<?xml version="1.0" encoding="UTF-8" standalone="no"?>
<svg
   width="1920"
   height="1080"
   viewBox="0 0 1920 1080"
   version="1.1"
   id="svg11"
   sodipodi:docname="definition.svg"
   inkscape:version="1.3 (0e150ed6c4, 2023-07-21)"
   inkscape:export-filename="..\..\Website\HG-website\svg\definition.svg"
   inkscape:export-xdpi="96"
   inkscape:export-ydpi="96"
   xmlns:inkscape="http://www.inkscape.org/namespaces/inkscape"
   xmlns:sodipodi="http://sodipodi.sourceforge.net/DTD/sodipodi-0.dtd"
   xmlns="http://www.w3.org/2000/svg"
   xmlns:svg="http://www.w3.org/2000/svg">
  <sodipodi:namedview
     id="namedview11"
     pagecolor="#505050"
     bordercolor="#eeeeee"
     borderopacity="1"
     inkscape:showpageshadow="0"
     inkscape:pageopacity="0"
     inkscape:pagecheckerboard="0"
     inkscape:deskcolor="#d1d1d1"
     showguides="true"
     inkscape:zoom="0.64114583"
     inkscape:cx="994.31357"
     inkscape:cy="521.72218"
     inkscape:window-width="1920"
     inkscape:window-height="1008"
     inkscape:window-x="-8"
     inkscape:window-y="-8"
     inkscape:window-maximized="1"
     inkscape:current-layer="svg11">
    <sodipodi:guide
       position="960,927.53859"
       orientation="1,0"
       id="guide57"
       inkscape:locked="false" />
  </sodipodi:namedview>
  <defs
     id="defs1">
    <rect
       x="232.39642"
       y="24.95532"
       width="1456.7668"
       height="293.22501"
       id="rect11" />
    <clipPath
       clipPathUnits="userSpaceOnUse"
       id="clipPath48">
      <g
         id="g49">
        <rect
           width="1920"
           height="1080"
           id="rect49"
           x="0"
           y="0" />
      </g>
    </clipPath>
    <clipPath
       clipPathUnits="userSpaceOnUse"
       id="clipPath49">
      <g
         id="g50">
        <rect
           width="1920"
           height="1080"
           id="rect50"
           x="0"
           y="0" />
      </g>
    </clipPath>
    <clipPath
       clipPathUnits="userSpaceOnUse"
       id="clipPath50">
      <g
         id="g51">
        <rect
           width="1920"
           height="1080"
           id="rect51"
           x="0"
           y="0" />
      </g>
    </clipPath>
    <clipPath
       clipPathUnits="userSpaceOnUse"
       id="clipPath51">
      <g
         id="g52">
        <rect
           width="1920"
           height="1080"
           id="rect52"
           x="0"
           y="0" />
      </g>
    </clipPath>
    <clipPath
       clipPathUnits="userSpaceOnUse"
       id="clipPath52">
      <g
         id="g53">
        <rect
           width="1920"
           height="1080"
           id="rect53"
           x="0"
           y="0" />
      </g>
    </clipPath>
    <rect
       x="232.39642"
       y="24.95532"
       width="1456.7668"
       height="293.22501"
       id="rect11-0" />
  </defs>
  <rect
     width="1920"
     height="1080"
     fill="#ffffff"
     id="rect2"
     x="0"
     y="0"
     clip-path="url(#clipPath52)" />
  <rect
     id="Rechteck_28"
     data-name="Rechteck 28"
     width="1920"
     height="1080"
     fill="#e9d6fb"
     x="0"
     y="0"
     clip-path="url(#clipPath51)"
     sodipodi:insensitive="true" />
  <g
     id="Text-2"
     data-name="Text"
     transform="translate(-15.143,-2561.054)">
    <text
       id="As_in_Emily_s_case_this_can_last_throughout_the_pregnancy."
       data-name="As in Emily's case, this can last throughout the pregnancy."
       transform="translate(146.031,3419.063)"
       fill="#42210b"
       font-size="70px"
       font-family="goingtodogreatthings"
       letter-spacing="0.035em"
       style="stroke:#6f4e93;stroke-width:0;stroke-dasharray:none;stroke-opacity:1"><tspan
         x="98.296997"
         y="55"
         id="tspan11"
         style="stroke:#6f4e93;stroke-width:0;stroke-dasharray:none;stroke-opacity:1">As in Emily's case, this can last throughout the pregnancy.</tspan></text>
  </g>
  <path
     id="Pfad_1396"
     data-name="Pfad 1396"
     d="m 611.195,362.5 c 0,0 98.463,-32.308 148.473,-65.113 50.01,-32.805 100.02,-54.011 142.441,-44.237 42.421,9.774 117.728,47.551 171.63,67.267 53.902,19.716 235.067,42.083 235.067,42.083 z"
     fill="rgba(106,73,143,0.81)"
     style="fill:#6f4e93;fill-opacity:1"
     clip-path="url(#clipPath50)"
     transform="translate(0,48)" />
  <line
     id="Linie_1"
     data-name="Linie 1"
     x2="1920.5"
     fill="none"
     stroke="rgba(112,112,112,0.67)"
     stroke-width="1"
     x1="0.5"
     y1="362.5"
     y2="362.5"
     clip-path="url(#clipPath49)" />
  <path
     id="Pfad_1397"
     data-name="Pfad 1397"
     d="m 611.195,362.499 c 0,0 98.463,-4.963 148.473,-10 50.01,-5.037 100.02,-8.3 142.441,-6.8 42.421,1.5 117.728,7.305 171.63,10.333 53.902,3.028 235.067,6.465 235.067,6.465 z"
     fill="rgba(255,0,0,0.71)"
     style="fill:#e7131f;fill-opacity:1"
     clip-path="url(#clipPath48)"
     transform="translate(0,48)" />
  <text
     xml:space="preserve"
     id="text11"
     style="font-size:64px;line-height:1.4;font-family:goingtodogreatthings;-inkscape-font-specification:goingtodogreatthings;white-space:pre;shape-inside:url(#rect11);display:inline;opacity:0.98;fill:#6f4e93;fill-opacity:1;stroke-width:3.989;stroke-linecap:round;stroke-linejoin:round;stroke-dasharray:1.1967, 7.978, 15.956, 35.901;stroke-dashoffset:0.7978;paint-order:stroke fill markers"
     x="634.72308"
     y="0"
     transform="matrix(1.1077297,0,0,1.1077297,-110.89682,446.96354)"><tspan
       x="322.15658"
       y="99.62178"
       id="tspan7"><tspan
         style="fill:#42210b"
         id="tspan1">At her first</tspan><tspan
         style="font-size:74.6667px"
         id="tspan2"> </tspan><tspan
         style="font-size:74.6667px;fill:#e7131f"
         id="tspan3">hospital visit</tspan><tspan
         style="font-size:74.6667px"
         id="tspan4">,</tspan><tspan
         style="fill:#42210b"
         id="tspan5"> Emily was told that she has</tspan><tspan
         style="text-align:center;text-anchor:middle"
         id="tspan6">&#10;</tspan></tspan></text>
  <text
     xml:space="preserve"
     id="text11-6"
     style="font-size:74.6667px;line-height:1.4;font-family:goingtodogreatthings;-inkscape-font-specification:goingtodogreatthings;white-space:pre;shape-inside:url(#rect11-0);display:inline;opacity:0.98;fill:#6f4e93;fill-opacity:1;stroke-width:3.989;stroke-linecap:round;stroke-linejoin:round;stroke-dasharray:1.1967, 7.978, 15.956, 35.901;stroke-dashoffset:0.7978;paint-order:stroke fill markers"
     x="634.72308"
     y="0"
     transform="matrix(1.0863357,0,0,1.0863357,-78.033187,657.23849)"><tspan
       x="255.85229"
       y="99.62178"
       id="tspan9"><tspan
         style="text-align:center;text-anchor:middle"
         id="tspan8">A severe form of Nauseau and Vomiting during Pregnancy. &#10;</tspan></tspan></text>
  <path
     style="font-size:85.3333px;line-height:1.4;font-family:goingtodogreatthings;-inkscape-font-specification:goingtodogreatthings;white-space:pre;opacity:0.98;fill:#6f4e93;stroke:#6f4e93;stroke-width:1.789;stroke-linecap:round;stroke-linejoin:round;stroke-dasharray:none;stroke-dashoffset:0.9578;stroke-opacity:1;paint-order:stroke fill markers"
     d="m 642.16687,622.10436 q 0,0.256 -0.17067,1.62134 -0.17066,1.53599 -0.42666,7.08266 -0.256,5.5467 -0.512,12.3733 -0.256,6.8267 -0.256,7.7654 -0.85334,17.408 -0.85334,22.3573 0.512,0.256 0.17067,2.304 0,0.1706 -0.0853,0.3413 0.0853,0.085 0.0853,0.256 0.0853,0.1707 0.0853,0.256 0,0.1707 0,0.256 -0.0853,0.4267 -0.85333,0.6827 -0.68267,0.3413 -1.19467,0 -0.34133,-0.1707 -0.512,-0.512 h -0.0853 l 0.0853,-0.3414 q 0,-0.1706 0.0853,-0.4266 0,-0.1707 0.0853,-0.1707 -0.0853,-0.256 -0.0853,-0.4267 -0.0853,-0.5973 -0.0853,-1.28 0.0853,-0.768 0.17067,-0.768 0.17067,-0.085 0.256,-0.085 0.0853,-1.024 0.17067,-2.4747 0.17066,-4.2666 0.34133,-8.9599 0.256,-4.7787 0.34133,-5.5467 0.34134,-5.12 0.68267,-16.64 0.42667,-11.60533 0.256,-15.104 -0.0853,-1.10933 -0.0853,-1.45066 -0.17067,-0.93867 -0.0853,-1.19467 0.0853,-1.45067 1.19467,-1.36533 1.10933,0 1.28,1.45066 z m 19.02932,-0.256 q 0,0.256 -0.0853,1.62134 -0.256,2.04799 -0.85333,26.36796 -0.34134,17.664 -0.256,22.1013 0.0853,-0.1706 0.256,-0.3413 -0.17067,0.256 0,1.4507 0.17066,1.28 -0.0853,1.3653 0.0853,0.1707 0.0853,0.256 0,0.085 0,0.1707 -0.0853,0.4266 -0.85334,0.768 -0.68266,0.256 -1.19466,0 -0.512,-0.3414 -0.512,-0.9387 0,-0.085 0.0853,-0.3413 0.0853,-0.3414 0.17067,-0.4267 0.0853,-0.512 0.17067,-4.608 0.17066,-4.096 0.25599,-8.7893 0.17067,-4.6933 0.17067,-5.2907 0.17067,-3.328 0.256,-8.8746 -0.0853,-0.085 -0.256,-0.085 -0.34133,-0.1706 -0.512,-0.1706 -1.36533,-0.1707 -4.01066,-0.085 -6.22933,0.1707 -10.24,0.8534 -0.0853,0 -0.42667,0.085 -0.34133,0 -0.512,0 -0.68266,0.1707 -0.85333,0.1707 -1.024,-0.1707 -1.024,-1.1947 0,-1.1093 1.024,-1.28 0.17067,0 1.10933,0.085 2.304,0.256 7.50933,-0.085 4.01067,-0.256 6.48534,-0.5973 0.93866,-0.085 1.10933,-0.085 0.42666,-0.1706 0.68266,-0.1706 0.0853,-1.9627 0.0853,-4.1814 0.17066,-10.41063 -0.0853,-15.1893 0,-1.10933 -0.0853,-1.36533 -0.0853,-1.024 -0.0853,-1.28 0.17066,-1.36533 1.28,-1.28 1.10933,0 1.19466,1.36533 z m -0.93866,49.7493 q 0,-0.085 0,-0.085 z m 10.32534,-34.56 v 0.768 q 0.0853,1.3654 1.79199,8.0214 1.70667,6.5706 2.64534,9.5573 0.68266,2.304 3.584,9.6427 2.64533,6.5706 3.41333,8.1919 1.70666,-5.2053 2.304,-7.2533 1.19466,-3.7546 3.32799,-13.2266 2.13334,-9.472 2.304,-12.544 0,-0.8534 0,-1.1947 0,-0.8533 0,-1.1093 0.34134,-1.28 1.36534,-1.1094 1.10933,0.085 1.10933,1.4507 0,0.256 -0.256,1.3653 -0.256,1.024 -2.38933,10.5814 -2.048,9.5573 -2.56,11.6053 -0.42667,1.4507 -3.584,11.6053 -3.15733,10.1547 -3.49867,11.6907 -0.256,0.9386 -0.34133,1.3653 l -0.256,1.1947 q -0.256,0.6826 -1.10933,0.8533 -0.85333,0.256 -1.28,-0.3413 -0.34133,-0.512 0,-1.536 0.0853,-0.256 0.34133,-0.6827 0.256,-0.3413 0.34134,-0.4267 0.42666,-1.024 3.07199,-8.96 0.0853,-0.256 0.17067,-0.512 -0.17067,-0.085 -0.256,-0.256 -0.0853,-0.1706 -0.17067,-0.4266 0,-0.256 0,-0.3414 -0.0853,-0.3413 -2.81599,-7.1679 -2.64534,-6.912 -2.98667,-7.8507 -0.34133,-1.024 -2.98667,-10.24 -2.64533,-9.3013 -3.24266,-10.9227 -0.256,-0.6826 -0.256,-0.768 -0.256,-0.4266 -0.256,-0.5973 0,-0.8533 1.024,-1.024 1.10933,-0.1707 1.45067,0.5973 z m 29.43991,-1.19464 q 0.0853,0.17064 0.0853,1.10934 0,0.6827 0.0853,6.144 0.0853,5.376 0.0853,9.5573 0,4.096 0,7.2534 -0.0853,0.768 -0.34133,6.3146 0.256,0.256 0.59733,0.512 0.0853,0 0.512,0.4267 0.42667,0.3413 0.68267,0.512 0.68267,0.3413 2.21867,0.768 1.62133,0.3413 4.69333,0.512 3.072,0.1706 6.48533,-0.6827 2.73066,-0.5973 5.12,-1.9626 2.47466,-1.3654 3.92533,-2.7307 1.536,-1.4507 2.38933,-2.56 0.93867,-1.1093 1.19467,-1.6213 1.28,-3.4987 0.17066,-7.3387 -0.59733,-2.304 -2.21866,-4.4373 -1.62134,-2.2187 -3.75467,-3.4987 -2.38933,-1.3653 -5.376,-1.9627 -2.98666,-0.6826 -5.20533,-0.5973 -2.21866,0.085 -4.01066,0.3413 -1.024,0.1707 -2.21867,0.5974 -0.256,0.085 -0.93866,0.4266 -0.68267,0.256 -1.10934,0.3414 -1.45066,0.4266 -2.304,0.256 -0.768,-0.256 -0.34133,-1.024 0.42667,-0.8534 1.96267,-1.6214 0.85333,-0.4266 2.816,-0.768 9.04532,-1.536 14.25066,0.8534 4.35199,2.048 7.16799,6.4 2.90134,4.2666 3.24267,6.9973 0.17067,1.3653 -0.256,3.7547 -0.42667,2.3893 -1.87733,4.6933 -1.36534,2.1333 -4.01067,4.0107 -2.56,1.7919 -5.632,2.4746 -8.78933,2.1333 -15.53066,0.8533 -0.85333,-0.1706 -2.13333,-0.6826 -0.34133,-0.1707 -0.59733,-0.256 -0.256,5.4613 -0.42667,10.24 -0.256,5.5466 -0.256,6.7413 0.0853,0.768 0.0853,1.1947 0.0853,0.1706 0.0853,0.4266 0.0853,0.256 0.0853,0.3414 0,0.1706 0,0.3413 -0.0853,0.512 -0.85333,0.9387 -0.68267,0.4266 -1.19467,0 -0.512,-0.3414 -0.512,-1.1947 0,-0.256 0.0853,-0.5973 0.17066,-0.3414 0.17066,-0.512 0.0853,-0.5974 0.34134,-5.4614 0.34133,-4.7786 0.59733,-10.24 0.17066,-2.1333 0.256,-3.4986 -0.256,-0.3413 -0.256,-0.6827 -0.17067,-0.768 0.0853,-1.1946 0.0853,-0.256 0.256,-0.3414 0,-0.1706 0,-0.256 0.34133,-3.9253 0.256,-14.5066 -0.0853,-10.5814 -0.59733,-13.056 -0.0853,-0.512 -0.256,-0.8534 -0.256,-0.5973 -0.256,-0.768 -0.0853,-0.93864 1.024,-1.1093 1.10933,-0.256 1.45066,0.68266 z m 41.64259,16.38404 q 2.21866,0.512 4.60799,0.6826 2.98667,0.1707 4.69334,-0.6826 1.36533,-0.5974 2.21866,-2.2187 0.85333,-1.7067 0.512,-3.7547 -0.768,-5.7173 -5.46133,-11.17864 -2.21867,-2.56 -3.49867,-0.512 -0.34133,0.59734 -0.59733,1.19467 -0.256,0.59737 -0.34133,0.93867 -0.0853,0.3413 -0.17067,0.8533 -0.0853,0.512 -0.0853,0.5974 -1.36533,5.888 -2.048,14.08 0.0853,0 0.17067,0 z m -1.96267,2.048 q -2.13333,-0.6827 -2.98667,-1.3654 -1.02399,-0.8533 0.34134,-1.024 1.024,-0.1706 2.816,0.085 0.256,-2.304 0.512,-4.5227 0.42666,-3.1573 0.93866,-6.144 0.59734,-3.328 1.10934,-4.7787 0.59733,-1.8773 2.73066,-3.1573 2.13333,-1.28 3.328,-0.17067 2.73067,2.64533 4.77866,6.39997 2.048,3.6694 2.21867,7.0827 0.0853,3.1573 -2.13333,5.4613 -2.13333,2.2187 -4.69333,2.816 -1.024,0.256 -3.584,0.1707 -2.47467,-0.085 -3.75467,-0.3413 -0.0853,0.5973 -0.0853,1.28 -0.768,12.4586 1.96267,16.8959 0.768,1.1094 2.64533,0.6827 1.87733,-0.4267 3.328,-1.8773 1.024,-0.9387 2.048,-3.072 0.59733,-1.1947 1.024,-2.56 0.17066,-0.4267 0.34133,-1.28 0.256,-0.8533 0.34133,-1.1093 0.68267,-1.792 1.96267,-2.048 0.59733,-0.1707 0.768,0.3413 0.34133,0.8533 -0.42667,2.9867 0,0.085 -1.19467,2.4746 l -0.256,0.512 q -0.17066,0.512 -0.34133,0.8533 -0.17067,0.3414 -0.59733,1.024 -0.34134,0.5974 -0.768,1.1947 -0.34133,0.512 -0.93867,1.1947 -0.512,0.6826 -1.19466,1.3653 -0.68267,0.5973 -1.45067,1.1947 -1.62133,1.1093 -3.75467,0.768 -2.04799,-0.3414 -3.15733,-1.8774 -1.62133,-2.304 -1.87733,-6.9119 -0.34133,-6.4854 0,-12.544 z m 26.79465,-19.28537 q 0.0853,0.256 0,1.19467 -0.0853,2.048 -0.0853,4.864 2.56,-3.6693 6.912,-6.48534 1.70666,-1.19466 3.92533,-1.45066 2.21866,-0.256 3.66933,0.42666 2.90133,1.10934 4.43733,3.92534 1.536,2.9013 0.85333,6.4 -0.34133,2.048 -1.96266,4.0107 -1.536,1.9626 -3.75467,2.816 -2.64533,0.9386 -5.46133,1.1093 -2.816,0.1707 -4.352,-0.085 -0.768,-0.085 -1.36533,-0.256 2.13333,3.072 7.76533,10.1546 1.87733,2.4747 9.13066,12.8 0,0.085 0.0853,0.1707 0.0853,0.085 0.0853,0.256 0.0853,0.085 0.17067,0.1706 l 0.42666,0.512 q 0,0.3414 -0.59733,0.768 -0.59733,0.512 -1.19467,0.4267 -0.51199,-0.085 -0.68266,-0.3413 0,-0.085 0,-0.256 0,-0.256 0,-0.3414 -0.0853,-0.4266 -2.90133,-4.7786 -2.816,-4.4373 -3.66934,-5.632 -1.70666,-2.3893 -5.88799,-7.68 -4.18133,-5.2907 -5.376,-6.5707 -0.0853,-0.085 -0.0853,-0.085 0,2.3893 0,2.9867 0,18.1759 0.0853,19.1146 0.0853,0.768 0.0853,1.1093 l 0.17067,0.9387 q -0.0853,0.5973 -0.85333,1.024 -0.68267,0.4267 -1.19467,0 -0.512,-0.3413 -0.512,-1.1947 0,-0.1706 0.0853,-0.512 0.0853,-0.3413 0.17067,-0.512 0.0853,-0.5973 0.17067,-4.1813 0.0853,-3.584 0.17066,-7.5946 0.0853,-4.096 0.0853,-4.4374 0.0853,-3.328 -0.0853,-10.8373 -0.17066,-7.5947 -0.59733,-9.8987 -0.0853,-0.768 -0.17067,-1.024 -0.17066,-0.68264 -0.17066,-0.8533 0.0853,-1.10934 1.19466,-1.10934 1.10934,-0.0853 1.28,0.93867 z m 0,10.66667 q 0,0.6827 0,1.536 0.512,0.085 1.10934,0.5973 0.256,0.1707 0.512,0.512 0.256,0.3414 0.34133,0.4267 0.512,0.4267 1.45066,0.8533 0.93867,0.4267 3.072,0.768 2.21867,0.3414 4.77867,-0.5973 2.38933,-0.6827 4.096,-2.4747 1.792,-1.8773 2.38933,-3.328 0.59733,-1.4506 0.59733,-2.1333 0,-2.9013 -1.792,-5.0347 -1.10933,-1.27997 -2.98666,-1.8773 -1.792,-0.59734 -3.584,0 -3.15733,1.28 -5.376,3.4987 -2.13333,2.2186 -3.072,4.0106 -0.34133,0.4267 -0.42666,1.024 0,0.1707 -0.0853,0.512 0,0.3414 -0.0853,0.512 -0.17067,0.8534 -0.768,1.1094 -0.0853,0 -0.17067,0.085 z m 32.1706,6.5707 q 2.21867,0.512 4.608,0.6826 2.98667,0.1707 4.69333,-0.6826 1.36533,-0.5974 2.21867,-2.2187 0.85333,-1.7067 0.512,-3.7547 -0.768,-5.7173 -5.46133,-11.17864 -2.21867,-2.56 -3.49867,-0.512 -0.34133,0.59734 -0.59733,1.19467 -0.256,0.59737 -0.34134,0.93867 -0.0853,0.3413 -0.17066,0.8533 -0.0853,0.512 -0.0853,0.5974 -1.36534,5.888 -2.048,14.08 0.0853,0 0.17066,0 z m -1.96266,2.048 q -2.13334,-0.6827 -2.98667,-1.3654 -1.024,-0.8533 0.34133,-1.024 1.024,-0.1706 2.816,0.085 0.256,-2.304 0.512,-4.5227 0.42667,-3.1573 0.93867,-6.144 0.59733,-3.328 1.10933,-4.7787 0.59734,-1.8773 2.73067,-3.1573 2.13333,-1.28 3.328,-0.17067 2.73066,2.64533 4.77866,6.39997 2.048,3.6694 2.21867,7.0827 0.0853,3.1573 -2.13334,5.4613 -2.13333,2.2187 -4.69333,2.816 -1.024,0.256 -3.584,0.1707 -2.47466,-0.085 -3.75466,-0.3413 -0.0853,0.5973 -0.0853,1.28 -0.768,12.4586 1.96266,16.8959 0.768,1.1094 2.64533,0.6827 1.87734,-0.4267 3.328,-1.8773 1.024,-0.9387 2.048,-3.072 0.59733,-1.1947 1.024,-2.56 0.17067,-0.4267 0.34133,-1.28 0.256,-0.8533 0.34134,-1.1093 0.68266,-1.792 1.96266,-2.048 0.59734,-0.1707 0.768,0.3413 0.34134,0.8533 -0.42666,2.9867 0,0.085 -1.19467,2.4746 l -0.256,0.512 q -0.17067,0.512 -0.34133,0.8533 -0.17067,0.3414 -0.59734,1.024 -0.34133,0.5974 -0.768,1.1947 -0.34133,0.512 -0.93866,1.1947 -0.512,0.6826 -1.19467,1.3653 -0.68266,0.5973 -1.45066,1.1947 -1.62134,1.1093 -3.75467,0.768 -2.048,-0.3414 -3.15733,-1.8774 -1.62133,-2.304 -1.87733,-6.9119 -0.34134,-6.4854 0,-12.544 z m 24.91732,-18.51737 q 0,0.0853 -0.34133,1.10937 -0.512,1.6213 -0.93867,8.704 -0.17066,1.536 -0.256,2.9013 0.17067,-0.256 0.42667,-0.5973 0.59733,-1.024 1.024,-1.7067 0.512,-0.768 1.36533,-1.9627 0.93867,-1.28 1.792,-2.304 3.66933,-4.096 6.4,-4.4373 1.87733,-0.1707 3.328,1.1093 1.45066,1.1947 1.87733,2.3894 0.256,0.8533 0.42667,3.84 4.77866,-5.376 8.53333,-7.8507 2.21866,-1.536 4.608,-2.048 2.38933,-0.59734 4.01066,0.34133 2.21867,1.62137 2.47467,6.31467 0.0853,2.2187 -0.85334,15.4453 -0.93866,13.2267 -0.93866,13.6533 -0.0853,0.4267 0,0.768 0,0 0,0 l 0.0853,0.768 q 0,0 0,0.085 0,0.1706 0,0.3413 0,0.085 0,0.1707 -0.0853,0.512 -0.85333,0.8533 -0.68267,0.256 -1.19467,-0.085 -0.512,-0.3414 -0.512,-1.1094 0,-0.1706 0.0853,-0.512 0.17067,-0.3413 0.256,-0.4266 0.17067,-1.024 1.19467,-11.52 1.10933,-10.5813 1.19467,-12.6293 0.17066,-3.4134 0,-5.2907 -0.256,-2.6453 -1.536,-4.4373 -1.28,-1.87737 -2.816,-1.4507 -3.49867,1.1093 -6.656,4.0107 -3.15733,2.816 -4.94933,5.2906 -0.512,0.6827 -0.768,1.1947 -0.42667,0.9387 -0.512,1.024 -0.34133,0.512 -0.768,0.5973 0.17067,3.4134 0.17067,8.3627 0.0853,13.7386 -0.0853,15.7013 0,0.768 0,1.28 0.0853,0.1707 0.0853,0.4267 0,0.1706 0,0.3413 0.0853,0.085 0.0853,0.1707 -0.0853,0.4266 -0.85333,0.768 -0.68267,0.256 -1.28,-0.085 -0.512,-0.256 -0.42667,-0.9386 0,-0.256 0.0853,-0.512 0.17066,-0.3414 0.17066,-0.512 0.256,-1.1947 0.768,-13.1413 0.34133,-8.704 0.34133,-12.032 -0.93866,-0.512 -0.42666,-1.7067 0.0853,-0.1707 0.34133,-0.5973 -0.256,-2.6454 -0.93866,-4.2667 -0.68267,-1.536 -2.048,-2.1333 -1.28,-0.6827 -2.816,0.1706 -5.03467,3.2427 -7.85067,9.472 -0.34133,0.8534 -0.512,1.28 -0.34133,1.024 -0.42666,1.1947 -0.59734,0.9387 -1.28,0.9387 0,1.7066 0,2.816 0,2.2186 0.42666,10.4106 0.512,8.1067 0.68267,9.8133 0.0853,0.9387 0.17067,1.1947 l 0.17066,1.024 q -0.0853,0.5973 -0.85333,1.024 -0.68267,0.4267 -1.19466,0 -0.512,-0.3413 -0.512,-1.1947 0,-0.1706 0.0853,-0.5973 0.0853,-0.3413 0.0853,-0.4267 0.0853,-0.5973 -0.0853,-4.4373 -0.0853,-3.84 -0.256,-8.0213 -0.17067,-4.1813 -0.17067,-4.6933 -0.17066,-7.3387 0.512,-22.1867 0.0853,-0.085 0.0853,-0.4267 0,-0.4266 0,-0.5973 0,-0.68267 0.0853,-0.93867 0.42666,-1.10933 1.45066,-0.85333 1.10934,0.256 1.024,1.36533 z m 46.42129,16.46937 q 2.21866,0.512 4.608,0.6826 2.98666,0.1707 4.69333,-0.6826 1.36533,-0.5974 2.21866,-2.2187 0.85334,-1.7067 0.512,-3.7547 -0.768,-5.7173 -5.46133,-11.17864 -2.21866,-2.56 -3.49866,-0.512 -0.34134,0.59734 -0.59734,1.19467 -0.256,0.59737 -0.34133,0.93867 -0.0853,0.3413 -0.17067,0.8533 -0.0853,0.512 -0.0853,0.5974 -1.36533,5.888 -2.048,14.08 0.0853,0 0.17067,0 z m -1.96267,2.048 q -2.13333,-0.6827 -2.98666,-1.3654 -1.024,-0.8533 0.34133,-1.024 1.024,-0.1706 2.816,0.085 0.256,-2.304 0.512,-4.5227 0.42667,-3.1573 0.93867,-6.144 0.59733,-3.328 1.10933,-4.7787 0.59733,-1.8773 2.73066,-3.1573 2.13334,-1.28 3.328,-0.17067 2.73067,2.64533 4.77867,6.39997 2.048,3.6694 2.21866,7.0827 0.0853,3.1573 -2.13333,5.4613 -2.13333,2.2187 -4.69333,2.816 -1.024,0.256 -3.584,0.1707 -2.47467,-0.085 -3.75466,-0.3413 -0.0853,0.5973 -0.0853,1.28 -0.768,12.4586 1.96267,16.8959 0.768,1.1094 2.64533,0.6827 1.87733,-0.4267 3.328,-1.8773 1.024,-0.9387 2.048,-3.072 0.59733,-1.1947 1.024,-2.56 0.17066,-0.4267 0.34133,-1.28 0.256,-0.8533 0.34133,-1.1093 0.68267,-1.792 1.96267,-2.048 0.59733,-0.1707 0.768,0.3413 0.34133,0.8533 -0.42667,2.9867 0,0.085 -1.19466,2.4746 l -0.256,0.512 q -0.17067,0.512 -0.34134,0.8533 -0.17066,0.3414 -0.59733,1.024 -0.34133,0.5974 -0.768,1.1947 -0.34133,0.512 -0.93867,1.1947 -0.512,0.6826 -1.19466,1.3653 -0.68267,0.5973 -1.45067,1.1947 -1.62133,1.1093 -3.75466,0.768 -2.048,-0.3414 -3.15733,-1.8774 -1.62134,-2.304 -1.87734,-6.9119 -0.34133,-6.4854 0,-12.544 z m 38.82666,-12.8854 q -0.17067,-1.3653 -0.93867,-2.6453 -0.85333,-1.28 -3.328,-2.304 -2.47466,-1.10934 -5.63199,-0.85334 -1.62134,0.0853 -3.328,1.19464 -1.62134,1.1094 -2.64534,2.6454 -1.19466,1.7066 -1.62133,3.84 -0.42666,2.1333 0.256,3.4133 1.36533,1.9627 3.84,4.096 2.56,2.048 4.43733,3.328 1.96267,1.28 4.864,3.072 2.90133,1.792 3.49866,2.1333 4.26667,2.816 6.99733,5.2907 3.66934,3.4133 3.24267,6.4 -0.17067,1.7066 -1.96267,3.2426 -1.79199,1.536 -4.01066,2.048 -3.328,0.9387 -8.53333,0.3414 -5.12,-0.5974 -7.76533,-2.9014 -1.70667,-1.4506 -2.816,-3.328 -1.024,-1.8773 -1.28,-3.4986 -0.256,-1.6213 -0.256,-2.816 0.0853,-1.28 0.34133,-2.048 0.42667,-1.024 1.70667,-2.1333 1.36533,-1.28 2.38933,-1.4507 2.304,-0.5973 3.328,0.5973 0.42667,0.512 -0.0853,0.8534 l -2.816,1.1093 q -1.36533,0.512 -1.70667,0.768 -0.68266,0.512 -1.28,2.1333 -0.512,1.536 -0.0853,3.4987 0.42667,1.8773 2.38933,3.84 1.96267,1.8773 4.69333,2.9013 3.41334,1.1947 6.82667,1.28 3.41333,0.085 5.46133,-1.024 1.96267,-1.024 2.73066,-2.56 0.768,-1.536 0.59734,-2.6453 -0.0853,-1.1093 -0.512,-1.6213 -0.93867,-1.024 -3.24267,-2.7307 -2.21866,-1.792 -4.608,-3.4133 -2.30399,-1.6214 -6.48533,-4.5227 -4.18133,-2.9013 -6.82666,-4.7787 -5.29066,-3.6693 -4.77866,-8.8746 0.34133,-2.7307 1.87733,-5.0347 1.536,-2.304 3.584,-3.15734 2.56,-1.024 5.29066,-1.024 2.73067,-0.0853 4.52267,0.512 1.87733,0.59734 3.15733,1.45064 0.85333,0.6827 1.87733,2.2187 1.10933,1.792 1.10933,2.7307 0.0853,2.048 -0.42666,2.9013 -0.512,0.8533 -1.19467,0.085 -0.59733,-0.768 -0.85333,-2.56 z m 18.17603,-19.19996 q -0.42667,-0.68267 -0.512,-0.68267 -0.68267,0.0853 -1.45067,2.56 -0.768,2.38933 -0.512,4.864 0.0853,1.19466 1.62133,0.17066 0.512,-0.34133 0.93867,-0.85333 1.19467,-1.19467 1.62133,-3.072 0.17067,-0.68267 0.17067,-1.45066 0,-0.17067 -0.0853,-0.42667 -0.17067,0 -0.34134,-0.0853 -0.768,-0.0853 -1.45066,-1.024 z m 1.70666,13.99466 q 0.0853,0.256 0,1.1947 0,1.3653 0.256,9.1306 0.256,7.68 0.256,8.96 0,0.5974 -0.0853,5.632 -0.0853,5.0347 -0.17067,8.2773 0,3.1574 0.0853,5.4614 0.0853,0.6826 0.0853,1.1093 l 0.17067,0.9387 q -0.0853,0.5973 -0.85334,1.024 -0.68266,0.4266 -1.19466,0 -0.512,-0.3414 -0.512,-1.1947 0,-0.1707 0.0853,-0.512 0.0853,-0.3413 0.17067,-0.512 0.0853,-0.5973 0.17066,-4.1813 0.17067,-3.6693 0.256,-7.7653 0.17067,-4.1814 0.17067,-4.4374 0.0853,-3.2426 -0.17067,-10.9226 -0.256,-7.68 -0.768,-10.0694 -0.17066,-0.6826 -0.256,-0.9386 -0.17066,-0.6827 -0.17066,-0.8534 0,-1.1093 1.10933,-1.19464 1.10933,-0.17066 1.36533,0.85334 z m 0.59734,-14.848 q 0,0 0.0853,0 0.59733,-0.59733 1.19467,-0.34133 0.68266,0.34133 0.68266,1.70667 0.0853,0.512 -0.256,1.62133 -0.0853,0.0853 -0.256,0.768 -0.17066,0.59733 -0.256,0.85333 -0.0853,0.17067 -0.34133,0.768 -0.17067,0.59733 -0.34133,0.93867 -0.17067,0.256 -0.512,0.768 -0.256,0.512 -0.59734,0.85333 -0.256,0.34133 -0.768,0.68267 -0.42666,0.34133 -0.93866,0.59733 -1.70667,1.024 -3.072,-0.93867 -1.28,-2.048 -0.93867,-4.69333 0.42667,-4.01066 3.24267,-5.54666 0.512,-0.256 1.62133,0.34133 0.93867,0.42667 1.19467,1.024 0.17066,0.34133 0.256,0.59733 z m 24.83195,20.0533 q -0.17067,-1.3653 -0.93867,-2.6453 -0.85333,-1.28 -3.328,-2.304 -2.47466,-1.10934 -5.63199,-0.85334 -1.62134,0.0853 -3.328,1.19464 -1.62133,1.1094 -2.64533,2.6454 -1.19467,1.7066 -1.62134,3.84 -0.42666,2.1333 0.256,3.4133 1.36534,1.9627 3.84,4.096 2.56,2.048 4.43733,3.328 1.96267,1.28 4.864,3.072 2.90133,1.792 3.49867,2.1333 4.26666,2.816 6.99733,5.2907 3.66933,3.4133 3.24266,6.4 -0.17067,1.7066 -1.96266,3.2426 -1.792,1.536 -4.01067,2.048 -3.328,0.9387 -8.53333,0.3414 -5.12,-0.5974 -7.76533,-2.9014 -1.70667,-1.4506 -2.816,-3.328 -1.024,-1.8773 -1.28,-3.4986 -0.256,-1.6213 -0.256,-2.816 0.0853,-1.28 0.34134,-2.048 0.42666,-1.024 1.70666,-2.1333 1.36533,-1.28 2.38933,-1.4507 2.304,-0.5973 3.328,0.5973 0.42667,0.512 -0.0853,0.8534 l -2.816,1.1093 q -1.36533,0.512 -1.70667,0.768 -0.68266,0.512 -1.27999,2.1333 -0.512,1.536 -0.0853,3.4987 0.42667,1.8773 2.38933,3.84 1.96267,1.8773 4.69334,2.9013 3.41333,1.1947 6.82666,1.28 3.41333,0.085 5.46133,-1.024 1.96267,-1.024 2.73067,-2.56 0.768,-1.536 0.59733,-2.6453 -0.0853,-1.1093 -0.512,-1.6213 -0.93867,-1.024 -3.24267,-2.7307 -2.21866,-1.792 -4.60799,-3.4133 -2.304,-1.6214 -6.48533,-4.5227 -4.18134,-2.9013 -6.82667,-4.7787 -5.29066,-3.6693 -4.77866,-8.8746 0.34133,-2.7307 1.87733,-5.0347 1.536,-2.304 3.584,-3.15734 2.56,-1.024 5.29066,-1.024 2.73067,-0.0853 4.52267,0.512 1.87733,0.59734 3.15733,1.45064 0.85333,0.6827 1.87733,2.2187 1.10933,1.792 1.10933,2.7307 0.0853,2.048 -0.42666,2.9013 -0.512,0.8533 -1.19467,0.085 -0.59733,-0.768 -0.85333,-2.56 z m 67.41333,-11.0933 q -0.6827,-2.56 -0.768,-2.816 -1.3654,-3.92533 -6.3147,-6.82666 -1.536,-0.93867 -3.328,-1.024 -1.792,-0.0853 -3.072,0.68266 -3.072,1.792 -4.18133,6.144 -2.73066,10.9227 -2.55999,24.2347 0.0853,14.4213 4.26662,22.8693 0.768,1.536 2.9014,1.792 2.1333,0.1706 3.6693,-0.8534 2.304,-1.536 4.2667,-5.2053 1.792,-3.4133 2.7306,-7.168 0.512,-1.7066 0.6827,-3.584 0.1707,-0.768 0.256,-1.9626 0.085,-1.28 0.085,-1.536 0.1707,-1.1947 0.4267,-2.048 -0.1707,0 -0.256,0 -0.9387,-0.085 -2.048,0 -2.56,0.256 -4.096,0.512 -0.3414,0.085 -0.9387,0.256 -0.512,0.085 -0.768,0.1706 -0.256,0 -0.9387,0 -1.024,-0.256 -1.024,-1.1946 0,-1.024 1.024,-1.28 0.1707,-0.085 2.2187,0 2.56,0.085 5.12,-0.3414 1.6213,-0.256 2.1333,-0.3413 0.1707,-0.085 0.3414,-0.085 0.1706,-0.085 0.256,-0.085 0.9386,-0.085 1.536,0.5974 0.5973,0.5973 0.3413,1.28 -0.085,0.3413 -0.6827,0.512 0.085,1.1946 -0.1706,3.072 -0.085,0.8533 -0.768,3.584 -0.512,1.8773 -1.536,4.608 -1.024,2.7306 -3.584,6.7413 -2.56,4.0106 -5.5467,5.888 -1.6213,0.9386 -4.0107,-0.3414 -2.3893,-1.1946 -3.83996,-3.328 -1.19466,-1.8773 -2.13333,-5.6319 -0.768,-3.4134 -0.93866,-5.632 -0.34134,-4.9494 -0.512,-7.5094 -0.0853,-2.6453 0,-8.192 0.0853,-5.632 0.68266,-11.17864 0.68267,-6.22933 2.90133,-11.17866 2.30396,-4.94933 5.46136,-5.71733 3.7546,-0.768 7.424,1.70667 3.7546,2.38933 5.7173,5.03466 0.4267,0.59733 1.1947,2.56 0.6826,1.62133 0.8533,2.38933 0.256,1.792 -0.1707,2.64533 -0.4266,0.768 -1.1946,0.17067 -0.6827,-0.68266 -1.1094,-2.38933 z m 13.312,4.69333 q 0.085,0.256 0,1.19467 -0.085,2.048 -0.085,4.864 2.56,-3.6693 6.912,-6.48534 1.7066,-1.19466 3.9253,-1.45066 2.2187,-0.256 3.6693,0.42666 2.9014,1.10934 4.4374,3.92534 1.536,2.9013 0.8533,6.4 -0.3413,2.048 -1.9627,4.0107 -1.536,1.9626 -3.7546,2.816 -2.6454,0.9386 -5.4614,1.1093 -2.816,0.1707 -4.352,-0.085 -0.768,-0.085 -1.3653,-0.256 2.1333,3.072 7.7653,10.1546 1.8774,2.4747 9.1307,12.8 0,0.085 0.085,0.1707 0.085,0.085 0.085,0.256 0.085,0.085 0.1707,0.1706 l 0.4266,0.512 q 0,0.3414 -0.5973,0.768 -0.5973,0.512 -1.1947,0.4267 -0.512,-0.085 -0.6826,-0.3413 0,-0.085 0,-0.256 0,-0.256 0,-0.3414 -0.085,-0.4266 -2.9014,-4.7786 -2.816,-4.4373 -3.6693,-5.632 -1.7067,-2.3893 -5.888,-7.68 -4.1813,-5.2907 -5.376,-6.5707 -0.085,-0.085 -0.085,-0.085 0,2.3893 0,2.9867 0,18.1759 0.085,19.1146 0.085,0.768 0.085,1.1093 l 0.1707,0.9387 q -0.085,0.5973 -0.8534,1.024 -0.6826,0.4267 -1.1946,0 -0.512,-0.3413 -0.512,-1.1947 0,-0.1706 0.085,-0.512 0.085,-0.3413 0.1706,-0.512 0.085,-0.5973 0.1707,-4.1813 0.085,-3.584 0.1707,-7.5946 0.085,-4.096 0.085,-4.4374 0.085,-3.328 -0.085,-10.8373 -0.1707,-7.5947 -0.5974,-9.8987 -0.085,-0.768 -0.1706,-1.024 -0.1707,-0.68264 -0.1707,-0.8533 0.085,-1.10934 1.1947,-1.10934 1.1093,-0.0853 1.28,0.93867 z m 0,10.66667 q 0,0.6827 0,1.536 0.512,0.085 1.1093,0.5973 0.256,0.1707 0.512,0.512 0.256,0.3414 0.3413,0.4267 0.512,0.4267 1.4507,0.8533 0.9387,0.4267 3.072,0.768 2.2187,0.3414 4.7787,-0.5973 2.3893,-0.6827 4.096,-2.4747 1.792,-1.8773 2.3893,-3.328 0.5973,-1.4506 0.5973,-2.1333 0,-2.9013 -1.792,-5.0347 -1.1093,-1.27997 -2.9866,-1.8773 -1.792,-0.59734 -3.584,0 -3.1574,1.28 -5.376,3.4987 -2.1334,2.2186 -3.072,4.0106 -0.3414,0.4267 -0.4267,1.024 0,0.1707 -0.085,0.512 0,0.3414 -0.085,0.512 -0.1707,0.8534 -0.768,1.1094 -0.085,0 -0.1707,0.085 z m 43.9466,-3.4133 q -0.1707,-1.536 -0.4267,-2.4747 -0.5973,-1.8773 -2.3893,-4.18134 -1.792,-2.304 -4.352,-3.15733 -1.9627,-0.59733 -4.5227,2.304 -2.56,2.90137 -3.6693,7.25337 -2.7307,9.984 -2.2187,21.8453 0.1707,4.608 1.3653,8.6186 0.512,1.6214 1.3654,2.816 0.9386,1.1947 1.792,1.1947 0.9386,0.085 2.304,-1.024 1.3653,-1.1093 2.304,-2.9867 6.0586,-11.0079 7.8506,-22.1866 0.256,-1.536 0.4267,-2.816 0.085,-0.4267 0.085,-0.9387 0.085,-0.5973 0.085,-1.024 0.085,-0.4266 0.1707,-0.6826 0.085,-0.3414 0.1706,-0.6827 -0.256,-0.6827 -0.3413,-1.8773 z m 2.9013,2.3893 q 0,0.085 -0.085,1.7067 -0.085,4.0106 0.768,12.1173 0.6827,6.8267 1.1947,10.496 0,0.085 0.085,0.768 0.085,0.5973 0.085,0.9386 0.256,1.4507 0.256,1.536 -0.085,0.8534 -0.8534,1.4507 -0.6826,0.512 -1.1946,0.085 -0.512,-0.512 -0.5974,-1.792 0,-0.256 0.085,-0.768 0.085,-0.512 0.1707,-0.768 0.085,-2.4746 -0.256,-6.3146 -0.5973,-6.912 -1.28,-12.8 -0.3413,1.4507 -0.768,3.1573 -0.512,2.4747 -1.1947,4.9494 -1.9626,7.168 -5.9733,13.4826 -1.6213,2.56 -3.4133,4.0107 -1.792,1.4506 -3.1574,1.1946 -1.7066,-0.256 -2.7306,-1.6213 -1.024,-1.28 -1.3654,-2.4747 -1.024,-3.1573 -1.536,-8.6186 -0.4266,-5.4613 0.1707,-14.4213 1.28,-13.2267 6.4,-18.43204 1.9627,-1.79199 4.5227,-1.53599 2.6453,0.256 4.7786,1.87733 2.048,1.536 3.7547,4.4373 0.5973,0.9387 1.1093,2.4747 0.5974,1.6213 0.5974,2.3893 0,0.085 0,0.1707 0.085,0.085 0.1706,0.256 0.1707,0.4267 0.1707,1.4507 0.085,0.256 0.085,0.5973 z m 9.728,-6.656 q 0.085,0.085 0.256,1.1093 0.256,1.28 5.5467,17.0667 0.5973,1.7067 2.4747,9.216 0.6826,2.56 1.1093,4.4373 0.1707,-1.1947 0.3413,-2.56 1.024,-7.7653 1.3654,-9.472 0.1706,-1.024 2.1333,-9.3866 1.9627,-8.448 2.2187,-9.728 0.1706,-0.768 0.1706,-1.1094 l 0.085,-1.024 q 0.256,-0.5973 1.024,-0.76797 0.8534,-0.256 1.28,0.25597 0.3414,0.512 0.1707,1.3654 -0.085,0.1706 -0.256,0.512 -0.1707,0.256 -0.256,0.4266 -0.768,1.9627 -4.2667,16.0427 -0.6826,3.072 -1.792,10.752 -1.024,7.5946 -0.8533,9.984 0,0.6826 0.085,1.024 0.1707,0.6826 0.1707,0.8533 -0.1707,1.024 -1.1947,1.1093 -0.512,0.1707 -0.8533,-0.1706 -0.512,-0.3414 -0.5974,-1.1094 0,-0.1706 0.085,-0.512 0.085,-0.3413 0.085,-0.512 0.085,-0.8533 -1.28,-7.4239 -1.3653,-6.656 -1.7066,-8.1067 -0.8534,-2.816 -3.4987,-10.1547 -2.56,-7.3386 -3.6693,-9.6426 l -0.085,-0.3414 q -0.1707,-0.4266 -0.256,-0.5973 -0.3414,-0.6827 -0.4267,-0.8533 -0.1707,-1.1094 0.8533,-1.3654 1.1094,-0.3413 1.536,0.6827 z m 26.7094,-15.78666 q -0.4267,-0.68267 -0.512,-0.68267 -0.6827,0.0853 -1.4507,2.56 -0.768,2.38933 -0.512,4.864 0.085,1.19466 1.6214,0.17066 0.512,-0.34133 0.9386,-0.85333 1.1947,-1.19467 1.6214,-3.072 0.1706,-0.68267 0.1706,-1.45066 0,-0.17067 -0.085,-0.42667 -0.1706,0 -0.3413,-0.0853 -0.768,-0.0853 -1.4507,-1.024 z m 1.7067,13.99466 q 0.085,0.256 0,1.1947 0,1.3653 0.256,9.1306 0.256,7.68 0.256,8.96 0,0.5974 -0.085,5.632 -0.085,5.0347 -0.1707,8.2773 0,3.1574 0.085,5.4614 0.085,0.6826 0.085,1.1093 l 0.1707,0.9387 q -0.085,0.5973 -0.8534,1.024 -0.6826,0.4266 -1.1946,0 -0.512,-0.3414 -0.512,-1.1947 0,-0.1707 0.085,-0.512 0.085,-0.3413 0.1706,-0.512 0.085,-0.5973 0.1707,-4.1813 0.1707,-3.6693 0.256,-7.7653 0.1707,-4.1814 0.1707,-4.4374 0.085,-3.2426 -0.1707,-10.9226 -0.256,-7.68 -0.768,-10.0694 -0.1707,-0.6826 -0.256,-0.9386 -0.1707,-0.6827 -0.1707,-0.8534 0,-1.1093 1.1094,-1.19464 1.1093,-0.17066 1.3653,0.85334 z m 0.5973,-14.848 q 0,0 0.085,0 0.5973,-0.59733 1.1947,-0.34133 0.6826,0.34133 0.6826,1.70667 0.085,0.512 -0.256,1.62133 -0.085,0.0853 -0.256,0.768 -0.1706,0.59733 -0.256,0.85333 -0.085,0.17067 -0.3413,0.768 -0.1707,0.59733 -0.3413,0.93867 -0.1707,0.256 -0.512,0.768 -0.256,0.512 -0.5974,0.85333 -0.256,0.34133 -0.768,0.68267 -0.4266,0.34133 -0.9386,0.59733 -1.7067,1.024 -3.072,-0.93867 -1.28,-2.048 -0.9387,-4.69333 0.4267,-4.01066 3.2427,-5.54666 0.512,-0.256 1.6213,0.34133 0.9387,0.42667 1.1947,1.024 0.1706,0.34133 0.256,0.59733 z m 26.7093,27.904 q -0.085,-1.8773 -0.3414,-3.072 -0.5973,-4.1813 -2.7306,-6.4853 -1.7067,-1.9627 -4.6933,-2.56 -2.9014,-0.5974 -5.2907,0.9386 -3.4133,2.304 -5.376,7.0827 -1.8773,4.7787 -2.1333,8.704 -0.3414,4.2667 0.512,9.728 0.8533,5.4613 3.584,8.704 2.048,2.1333 5.376,1.8773 3.4133,-0.256 5.8026,-2.304 2.56,-2.1333 4.1813,-6.3146 0.4267,-1.1947 0.5974,-2.4747 0.1706,-0.512 0.256,-1.3653 0.085,-0.8534 0.085,-1.024 0.1707,-1.28 0.6827,-1.9627 -0.3414,-4.7787 -0.3414,-5.4613 0,-1.1094 0,-2.1334 -0.1706,-0.768 -0.1706,-1.8773 z m 1.4506,-28.416 q 0.1707,0.42667 0.1707,1.62134 0.085,2.73066 0.1707,12.71466 0.085,6.8267 0,10.3253 0.1706,0.4267 0.256,1.024 0.4266,1.9627 0.4266,2.816 -0.085,1.792 -0.512,2.56 0.085,2.6454 0.4267,6.912 0.085,0.512 0.085,1.1947 0,0.5973 0.085,1.1947 0.6827,10.7519 1.024,13.5679 l 0.085,0.5974 q 0.085,0.5973 0.085,0.9386 l 0.256,1.4507 q -0.085,0.8533 -0.8533,1.3653 -0.6827,0.5974 -1.1947,0.1707 -0.512,-0.512 -0.5973,-1.7067 0,-0.256 0.085,-0.768 0.085,-0.512 0.1707,-0.6826 0,-0.9387 -0.6827,-10.6667 -0.4267,0.8534 -0.9387,1.8774 -1.024,1.9626 -3.584,4.6933 -2.4746,2.7306 -5.2906,3.84 -2.3894,0.9386 -5.376,-0.3414 -2.9014,-1.28 -4.5227,-3.4986 -1.7067,-2.304 -2.3893,-5.2907 -0.512,-2.4746 -0.8534,-5.632 -0.256,-3.2426 0.085,-8.1066 0.4267,-4.864 1.8774,-8.704 1.6213,-4.1814 5.376,-6.8267 3.84,-2.73067 7.168,-2.13334 3.1573,0.512 5.4613,3.07204 1.3653,1.6213 2.3893,3.328 0,-14.16537 -0.6826,-17.92003 -0.1707,-0.85333 -0.3414,-1.36533 -0.3413,-0.93867 -0.3413,-1.19467 -0.1707,-1.45067 0.9387,-1.62133 1.1093,-0.256 1.536,1.19466 z m 26.0267,21.4187 q -0.1707,-1.536 -0.4267,-2.4747 -0.5973,-1.8773 -2.3893,-4.18134 -1.792,-2.304 -4.352,-3.15733 -1.9626,-0.59733 -4.5226,2.304 -2.56,2.90137 -3.6694,7.25337 -2.7306,9.984 -2.2186,21.8453 0.1706,4.608 1.3653,8.6186 0.512,1.6214 1.3653,2.816 0.9387,1.1947 1.792,1.1947 0.9387,0.085 2.304,-1.024 1.3654,-1.1093 2.304,-2.9867 6.0587,-11.0079 7.8507,-22.1866 0.256,-1.536 0.4266,-2.816 0.085,-0.4267 0.085,-0.9387 0.085,-0.5973 0.085,-1.024 0.085,-0.4266 0.1707,-0.6826 0.085,-0.3414 0.1707,-0.6827 -0.256,-0.6827 -0.3414,-1.8773 z m 2.9013,2.3893 q 0,0.085 -0.085,1.7067 -0.085,4.0106 0.768,12.1173 0.6827,6.8267 1.1947,10.496 0,0.085 0.085,0.768 0.085,0.5973 0.085,0.9386 0.256,1.4507 0.256,1.536 -0.085,0.8534 -0.8533,1.4507 -0.6827,0.512 -1.1947,0.085 -0.512,-0.512 -0.5973,-1.792 0,-0.256 0.085,-0.768 0.085,-0.512 0.1706,-0.768 0.085,-2.4746 -0.256,-6.3146 -0.5973,-6.912 -1.28,-12.8 -0.3413,1.4507 -0.768,3.1573 -0.512,2.4747 -1.1946,4.9494 -1.9627,7.168 -5.9734,13.4826 -1.6213,2.56 -3.4133,4.0107 -1.792,1.4506 -3.1573,1.1946 -1.7067,-0.256 -2.7307,-1.6213 -1.024,-1.28 -1.3653,-2.4747 -1.024,-3.1573 -1.536,-8.6186 -0.4267,-5.4613 0.1707,-14.4213 1.28,-13.2267 6.3999,-18.43204 1.9627,-1.79199 4.5227,-1.53599 2.6453,0.256 4.7787,1.87733 2.048,1.536 3.7546,4.4373 0.5974,0.9387 1.1094,2.4747 0.5973,1.6213 0.5973,2.3893 0,0.085 0,0.1707 0.085,0.085 0.1707,0.256 0.1706,0.4267 0.1706,1.4507 0.085,0.256 0.085,0.5973 z m 13.0561,-9.64267 q 0.085,0.256 0,1.19467 -0.085,2.048 -0.085,4.864 2.56,-3.6693 6.912,-6.48534 1.7067,-1.19466 3.9253,-1.45066 2.2187,-0.256 3.6694,0.42666 2.9013,1.10934 4.4373,3.92534 1.536,2.9013 0.8533,6.4 -0.3413,2.048 -1.9626,4.0107 -1.536,1.9626 -3.7547,2.816 -2.6453,0.9386 -5.4613,1.1093 -2.816,0.1707 -4.352,-0.085 -0.768,-0.085 -1.3654,-0.256 2.1334,3.072 7.7654,10.1546 1.8773,2.4747 9.1306,12.8 0,0.085 0.085,0.1707 0.085,0.085 0.085,0.256 0.085,0.085 0.1707,0.1706 l 0.4267,0.512 q 0,0.3414 -0.5974,0.768 -0.5973,0.512 -1.1946,0.4267 -0.512,-0.085 -0.6827,-0.3413 0,-0.085 0,-0.256 0,-0.256 0,-0.3414 -0.085,-0.4266 -2.9013,-4.7786 -2.816,-4.4373 -3.6694,-5.632 -1.7066,-2.3893 -5.888,-7.68 -4.1813,-5.2907 -5.376,-6.5707 -0.085,-0.085 -0.085,-0.085 0,2.3893 0,2.9867 0,18.1759 0.085,19.1146 0.085,0.768 0.085,1.1093 l 0.1707,0.9387 q -0.085,0.5973 -0.8533,1.024 -0.6827,0.4267 -1.1947,0 -0.512,-0.3413 -0.512,-1.1947 0,-0.1706 0.085,-0.512 0.085,-0.3413 0.1707,-0.512 0.085,-0.5973 0.1706,-4.1813 0.085,-3.584 0.1707,-7.5946 0.085,-4.096 0.085,-4.4374 0.085,-3.328 -0.085,-10.8373 -0.1707,-7.5947 -0.5973,-9.8987 -0.085,-0.768 -0.1707,-1.024 -0.1707,-0.68264 -0.1707,-0.8533 0.085,-1.10934 1.1947,-1.10934 1.1093,-0.0853 1.28,0.93867 z m 0,10.66667 q 0,0.6827 0,1.536 0.512,0.085 1.1093,0.5973 0.256,0.1707 0.512,0.512 0.256,0.3414 0.3414,0.4267 0.512,0.4267 1.4506,0.8533 0.9387,0.4267 3.072,0.768 2.2187,0.3414 4.7787,-0.5973 2.3893,-0.6827 4.096,-2.4747 1.792,-1.8773 2.3893,-3.328 0.5974,-1.4506 0.5974,-2.1333 0,-2.9013 -1.792,-5.0347 -1.1094,-1.27997 -2.9867,-1.8773 -1.792,-0.59734 -3.584,0 -3.1573,1.28 -5.376,3.4987 -2.1333,2.2186 -3.072,4.0106 -0.3413,0.4267 -0.4267,1.024 0,0.1707 -0.085,0.512 0,0.3414 -0.085,0.512 -0.1706,0.8534 -0.768,1.1094 -0.085,0 -0.1706,0.085 z m 30.4639,-8.2773 q 0,0.512 -0.256,2.6453 -0.8533,8.192 -0.9386,17.92 -0.1707,7.2533 1.024,12.2026 0.6826,2.6454 2.1333,4.352 1.4507,1.7067 2.6453,1.8774 1.28,0.1706 3.6694,-1.536 2.4746,-1.792 4.2666,-5.2907 2.2187,-4.4373 3.6694,-13.9093 1.3653,-9.8133 1.4506,-17.2373 0,-1.4507 0,-2.3894 0,-0.3413 -0.085,-0.76797 0,-0.42667 -0.085,-0.68267 0,-0.34133 0.085,-0.512 0,-0.256 0.085,-0.512 -0.085,-0.34133 -0.085,-0.512 0.1707,-0.93866 1.28,-0.93866 1.1094,0 1.1947,0.93866 0,0.0853 0,0.256 0.085,0.512 0.085,1.19467 -0.085,0.34133 -0.1707,1.024 -0.085,0.59737 -0.1706,0.85337 -0.085,4.352 0,15.4453 0.256,18.7733 0.4266,21.3333 0.085,0.8533 0.1707,1.1947 0.1707,1.024 0.1707,1.1093 -0.085,0.5973 -0.8534,1.024 -0.768,0.4267 -1.28,0 -0.512,-0.3413 -0.512,-1.28 0,-0.1707 0.085,-0.512 0.1707,-0.4267 0.1707,-0.5973 0.085,-0.5974 0.085,-4.608 0.085,-4.096 0,-8.6187 0,-4.5226 0,-4.864 0,-1.1093 0,-2.4746 -0.085,0.768 -0.256,1.6213 -1.1947,6.9973 -3.7547,13.2267 -2.56,6.1439 -3.7546,7.3386 -2.304,2.2187 -5.4614,2.2187 -1.6213,0 -3.4133,-1.3654 -1.792,-1.28 -2.56,-3.328 -1.792,-4.9493 -1.8773,-13.9946 -0.085,-4.608 0.085,-11.008 0.256,-6.4 0.256,-6.7413 0,-1.7067 0,-2.2187 -0.085,-1.6213 0,-2.048 0.085,-2.048 1.1946,-1.96267 1.1947,0 1.28,2.13337 z m 29.44,-1.62137 q 0,0.0853 -0.3413,1.10937 -0.512,1.6213 -0.9387,8.704 -0.1706,1.536 -0.256,2.9013 0.1707,-0.256 0.4267,-0.5973 0.5973,-1.024 1.024,-1.7067 0.512,-0.768 1.3653,-1.9627 0.9387,-1.28 1.792,-2.304 3.6694,-4.096 6.4,-4.4373 1.8774,-0.1707 3.328,1.1093 1.4507,1.1947 1.8774,2.3894 0.256,0.8533 0.4266,3.84 4.7787,-5.376 8.5334,-7.8507 2.2186,-1.536 4.6079,-2.048 2.3894,-0.59734 4.0107,0.34133 2.2187,1.62137 2.4747,6.31467 0.085,2.2187 -0.8534,15.4453 -0.9386,13.2267 -0.9386,13.6533 -0.085,0.4267 0,0.768 0,0 0,0 l 0.085,0.768 q 0,0 0,0.085 0,0.1706 0,0.3413 0,0.085 0,0.1707 -0.085,0.512 -0.8533,0.8533 -0.6827,0.256 -1.1947,-0.085 -0.512,-0.3414 -0.512,-1.1094 0,-0.1706 0.085,-0.512 0.1707,-0.3413 0.256,-0.4266 0.1707,-1.024 1.1947,-11.52 1.1093,-10.5813 1.1946,-12.6293 0.1707,-3.4134 0,-5.2907 -0.256,-2.6453 -1.536,-4.4373 -1.28,-1.87737 -2.816,-1.4507 -3.4986,1.1093 -6.656,4.0107 -3.1573,2.816 -4.9493,5.2906 -0.512,0.6827 -0.768,1.1947 -0.4267,0.9387 -0.512,1.024 -0.3413,0.512 -0.768,0.5973 0.1707,3.4134 0.1707,8.3627 0.085,13.7386 -0.085,15.7013 0,0.768 0,1.28 0.085,0.1707 0.085,0.4267 0,0.1706 0,0.3413 0.085,0.085 0.085,0.1707 -0.085,0.4266 -0.8534,0.768 -0.6826,0.256 -1.28,-0.085 -0.512,-0.256 -0.4266,-0.9386 0,-0.256 0.085,-0.512 0.1706,-0.3414 0.1706,-0.512 0.256,-1.1947 0.768,-13.1413 0.3414,-8.704 0.3414,-12.032 -0.9387,-0.512 -0.4267,-1.7067 0.085,-0.1707 0.3413,-0.5973 -0.256,-2.6454 -0.9386,-4.2667 -0.6827,-1.536 -2.048,-2.1333 -1.28,-0.6827 -2.816,0.1706 -5.0347,3.2427 -7.8507,9.472 -0.3413,0.8534 -0.512,1.28 -0.3413,1.024 -0.4267,1.1947 -0.5973,0.9387 -1.28,0.9387 0,1.7066 0,2.816 0,2.2186 0.4267,10.4106 0.512,8.1067 0.6827,9.8133 0.085,0.9387 0.1706,1.1947 l 0.1707,1.024 q -0.085,0.5973 -0.8533,1.024 -0.6827,0.4267 -1.1947,0 -0.512,-0.3413 -0.512,-1.1947 0,-0.1706 0.085,-0.5973 0.085,-0.3413 0.085,-0.4267 0.085,-0.5973 -0.085,-4.4373 -0.085,-3.84 -0.256,-8.0213 -0.1707,-4.1813 -0.1707,-4.6933 -0.1706,-7.3387 0.512,-22.1867 0.085,-0.085 0.085,-0.4267 0,-0.4266 0,-0.5973 0,-0.68267 0.085,-0.93867 0.4267,-1.10933 1.4507,-0.85333 1.1093,0.256 1.024,1.36533 z"
     id="text48"
     aria-label="Hyperemesis Gravidarum " />
</svg>
