<?xml version="1.0" encoding="UTF-8" standalone="no"?>
<!-- Created with Inkscape (http://www.inkscape.org/) -->

<svg
   width="10mm"
   height="10mm"
   viewBox="0 0 10 10"
   version="1.1"
   id="svg1"
   inkscape:version="1.3 (0e150ed6c4, 2023-07-21)"
   sodipodi:docname="gdf.svg"
   inkscape:export-filename="..\..\..\MASTER_Project\Website\svg\GIF-explain\SVG\gdf.svg"
   inkscape:export-xdpi="96"
   inkscape:export-ydpi="96"
   xmlns:inkscape="http://www.inkscape.org/namespaces/inkscape"
   xmlns:sodipodi="http://sodipodi.sourceforge.net/DTD/sodipodi-0.dtd"
   xmlns="http://www.w3.org/2000/svg"
   xmlns:svg="http://www.w3.org/2000/svg">
  <sodipodi:namedview
     id="namedview1"
     pagecolor="#505050"
     bordercolor="#eeeeee"
     borderopacity="1"
     inkscape:showpageshadow="0"
     inkscape:pageopacity="0"
     inkscape:pagecheckerboard="0"
     inkscape:deskcolor="#d1d1d1"
     inkscape:document-units="mm"
     showguides="true"
     inkscape:zoom="8"
     inkscape:cx="-2.9375"
     inkscape:cy="4.6875"
     inkscape:window-width="1920"
     inkscape:window-height="1008"
     inkscape:window-x="-8"
     inkscape:window-y="-8"
     inkscape:window-maximized="1"
     inkscape:current-layer="g75-4-3">
    <sodipodi:guide
       position="5.07478,6.0828308"
       orientation="0,-1"
       id="guide1"
       inkscape:locked="false" />
    <sodipodi:guide
       position="5.2326361,5.1883132"
       orientation="0,-1"
       id="guide2"
       inkscape:locked="false" />
    <sodipodi:guide
       position="5.2326361,4.2119442"
       orientation="0,-1"
       id="guide3"
       inkscape:locked="false" />
  </sodipodi:namedview>
  <defs
     id="defs1" />
  <g
     inkscape:label="Layer 1"
     inkscape:groupmode="layer"
     id="layer1">
    <g
       id="g75-4-3"
       transform="matrix(-0.52059371,0.19801088,0.19801088,0.52059371,108.7176,-414.20903)">
      <path
         id="path39-0-4-0-7"
         style="fill:#b62222;stroke-width:1.35515;stroke-linecap:round;stroke-linejoin:bevel;paint-order:stroke fill markers"
         d="m 438.78445,632.10919 a 1.2563401,1.2847256 69.175393 0 1 -0.98502,-1.48097 1.2563401,1.2847256 69.175393 0 1 1.52069,-0.99081 1.2563401,1.2847256 69.175393 0 1 0.98505,1.48096 1.2563401,1.2847256 69.175393 0 1 -1.52072,0.99082 z" />
      <path
         id="circle41-5-3-39-8"
         style="fill:#b62222;stroke-width:1.35515;stroke-linecap:round;stroke-linejoin:bevel;paint-order:stroke fill markers"
         d="m 438.12276,641.15382 a 1.2563401,1.2847256 69.175393 0 1 -0.98502,-1.48097 1.2563401,1.2847256 69.175393 0 1 1.52069,-0.99084 1.2563401,1.2847256 69.175393 0 1 0.98502,1.481 1.2563401,1.2847256 69.175393 0 1 -1.52069,0.99081 z" />
      <path
         id="circle42-2-1-06-0"
         style="fill:#b62222;stroke-width:1.35515;stroke-linecap:round;stroke-linejoin:bevel;paint-order:stroke fill markers"
         d="m 438.39539,645.25142 a 1.2563401,1.2847256 69.175393 0 1 -0.98502,-1.481 1.2563401,1.2847256 69.175393 0 1 1.52072,-0.99081 1.2563401,1.2847256 69.175393 0 1 0.98502,1.48097 1.2563401,1.2847256 69.175393 0 1 -1.52072,0.99084 z" />
      <path
         id="circle43-4-5-6-1"
         style="fill:#b62222;stroke-width:1.35515;stroke-linecap:round;stroke-linejoin:bevel;paint-order:stroke fill markers"
         d="m 442.85543,643.53302 a 1.2563401,1.2847256 69.175393 0 1 -0.98502,-1.481 1.2563401,1.2847256 69.175393 0 1 1.52069,-0.99081 1.2563401,1.2847256 69.175393 0 1 0.98502,1.481 1.2563401,1.2847256 69.175393 0 1 -1.52069,0.99081 z" />
      <path
         id="circle44-4-1-7-3"
         style="fill:#b62222;stroke-width:1.35515;stroke-linecap:round;stroke-linejoin:bevel;paint-order:stroke fill markers"
         d="m 447.51319,641.783 a 1.2563401,1.2847256 69.175393 0 1 -0.98502,-1.48097 1.2563401,1.2847256 69.175393 0 1 1.5207,-0.99083 1.2563401,1.2847256 69.175393 0 1 0.98501,1.48099 1.2563401,1.2847256 69.175393 0 1 -1.52069,0.99081 z" />
      <path
         id="circle45-4-6-8-8"
         style="fill:#b62222;stroke-width:1.35515;stroke-linecap:round;stroke-linejoin:bevel;paint-order:stroke fill markers"
         d="m 445.15293,638.46296 a 1.2563401,1.2847256 69.175393 0 1 -0.98504,-1.48097 1.2563401,1.2847256 69.175393 0 1 1.52072,-0.99084 1.2563401,1.2847256 69.175393 0 1 0.98502,1.481 1.2563401,1.2847256 69.175393 0 1 -1.5207,0.99081 z" />
      <path
         id="circle46-5-4-71-3"
         style="fill:#b62222;stroke-width:1.35515;stroke-linecap:round;stroke-linejoin:bevel;paint-order:stroke fill markers"
         d="m 441.57454,639.7993 a 1.2563401,1.2847256 69.175393 0 1 -0.98504,-1.48099 1.2563401,1.2847256 69.175393 0 1 1.52071,-0.99081 1.2563401,1.2847256 69.175393 0 1 0.98502,1.48099 1.2563401,1.2847256 69.175393 0 1 -1.52069,0.99081 z" />
      <path
         id="circle47-2-3-4-3"
         style="fill:#b62222;stroke-width:1.35515;stroke-linecap:round;stroke-linejoin:bevel;paint-order:stroke fill markers"
         d="m 438.38364,636.74204 a 1.2563401,1.2847256 69.175393 0 1 -0.98502,-1.48097 1.2563401,1.2847256 69.175393 0 1 1.52069,-0.99084 1.2563401,1.2847256 69.175393 0 1 0.98502,1.481 1.2563401,1.2847256 69.175393 0 1 -1.52069,0.99081 z" />
      <path
         id="circle48-1-2-2-2"
         style="fill:#b62222;stroke-width:1.35515;stroke-linecap:round;stroke-linejoin:bevel;paint-order:stroke fill markers"
         d="m 442.03856,635.32019 a 1.2563401,1.2847256 69.175393 0 1 -0.98502,-1.48099 1.2563401,1.2847256 69.175393 0 1 1.52069,-0.99081 1.2563401,1.2847256 69.175393 0 1 0.98502,1.48096 1.2563401,1.2847256 69.175393 0 1 -1.52069,0.99084 z" />
    </g>
  </g>
</svg>
