<?xml version="1.0" encoding="UTF-8" standalone="no"?>
<svg
   width="1920"
   height="1080"
   viewBox="0 0 1920 1080"
   version="1.1"
   id="svg8"
   sodipodi:docname="intro-DV-organge.svg"
   inkscape:version="1.3 (0e150ed6c4, 2023-07-21)"
   xmlns:inkscape="http://www.inkscape.org/namespaces/inkscape"
   xmlns:sodipodi="http://sodipodi.sourceforge.net/DTD/sodipodi-0.dtd"
   xmlns="http://www.w3.org/2000/svg"
   xmlns:svg="http://www.w3.org/2000/svg">
  <sodipodi:namedview
     id="namedview8"
     pagecolor="#505050"
     bordercolor="#eeeeee"
     borderopacity="1"
     inkscape:showpageshadow="0"
     inkscape:pageopacity="0"
     inkscape:pagecheckerboard="0"
     inkscape:deskcolor="#d1d1d1"
     inkscape:zoom="0.6224013"
     inkscape:cx="968.82831"
     inkscape:cy="367.12648"
     inkscape:window-width="1920"
     inkscape:window-height="1008"
     inkscape:window-x="-8"
     inkscape:window-y="-8"
     inkscape:window-maximized="1"
     inkscape:current-layer="Intro" />
  <defs
     id="defs1">
    <clipPath
       id="clip-Intro">
      <rect
         width="1920"
         height="1080"
         id="rect1" />
    </clipPath>
  </defs>
  <g
     id="Intro"
     clip-path="url(#clip-Intro)">
    <path
       id="path48-2-5"
       style="display:inline;opacity:0.90126;fill:#3c3d7b;fill-opacity:0.823529;stroke-width:1.42526;stroke-linecap:round;stroke-linejoin:round;stroke-dashoffset:0.9578;paint-order:stroke fill markers"
       d="m 257.61807,352.37236 c -23.22362,-2.13902 -129.14149,10.1957 -173.585892,10.75138 -44.4444,0.55567 -82.3296102,-5.60169 -126.78128,-8.96517 l 0.0332,605.92742 1933.766802,1.61168 4.82,-598.65568 c -95.4101,8.59549 -234.3353,-3.96888 -305.8272,-9.0775 -91.8776,-6.56532 -194.0773,12.80106 -323.6928,5.85017 -106.1822,-5.69424 -200.8363,-23.52338 -339.60215,-18.50916 -247.57058,8.94582 -225.88415,28.49716 -358.78548,18.9006 -80.27286,-5.79636 -158.30118,6.17032 -188.23749,3.41303 -29.9363,-2.75729 -98.88409,-9.10775 -122.10771,-11.24677 z"
       sodipodi:nodetypes="zzccccsssszz" />
    <path
       id="path48-2"
       style="display:inline;opacity:0.228992;fill:#6599ff;fill-opacity:0.8;stroke-width:1.467;stroke-linecap:round;stroke-linejoin:round;stroke-dashoffset:0.9578;paint-order:stroke fill markers"
       d="m 1544.847,331.15213 c -69.749,-0.0255 -143.3457,3.42069 -217.4754,12.28399 C 988.49279,383.95406 928.58101,385.53888 781.43625,380.77206 634.29146,376.00525 497.4186,343.42539 312.3729,341.04198 214.98465,339.78761 93.831251,352.07923 0.1706311,363.99686 l 0.0888,601.11749 H 1927.727 l 0.251,-601.7941 c -78.5765,-13.14305 -219.7693,-32.1085 -383.131,-32.16812 z"
       sodipodi:nodetypes="ssssccccs" />
    <path
       id="Pfad_1358"
       data-name="Pfad 1358"
       d="M582.2,7526.853s98.463-32.308,148.473-65.113,100.02-54.011,142.441-44.237,117.728,47.551,171.63,67.267,235.067,42.083,235.067,42.083Z"
       transform="translate(32.211 -7164.01)"
       fill="rgba(106,73,143,0.81)"
       style="fill:#00d023;fill-opacity:0.66666669" />
    <line
       id="Linie_4"
       data-name="Linie 4"
       x2="1167.156"
       fill="none"
       stroke="#707070"
       stroke-width="1"
       x1="886.34894"
       y1="287.44101"
       y2="287.44101"
       style="stroke-width:2.09484;stroke-dasharray:none" />
    <text
       id="text18"
       data-name="Unusual Fatigue/Drowsiness "
       fill="#42210b"
       font-size="55px"
       font-family="goingtodogreatthings"
       letter-spacing="0.035em"
       x="150.888"
       y="483.15601"><tspan
         x="300.59198"
         y="526.15601"
         id="tspan18"
         style="font-style:normal;font-variant:normal;font-weight:normal;font-stretch:normal;font-family:'Ink Free';-inkscape-font-specification:'Ink Free';fill:#ffffff;fill-opacity:1">Drowsiness</tspan></text>
    <ellipse
       cx="956.67755"
       cy="590.51874"
       rx="117.19125"
       ry="144.42159"
       fill="none"
       id="ellipse4"
       style="display:inline;fill:#c4f4c4;fill-opacity:1;stroke-width:0.432688" />
    <path
       id="Pfad_1359"
       data-name="Pfad 1359"
       d="M582.2,7415.108s83.4,80.287,133.409,163.2,104.106,124.085,166.98,102.857,72.2-103,171.334-79.068,225.888-186.99,225.888-186.99Z"
       transform="translate(32.211,-7052.266)"
       fill="#a6b7da"
       style="opacity:0.71052632" />
    <path
       id="Pfad_1360"
       data-name="Pfad 1360"
       d="M1148.6,7550h697.611s-98.821,35.937-186.422,50.9-263.1,14.649-339.721,0S1148.6,7550,1148.6,7550Z"
       transform="translate(-534.189,-7187.157)"
       fill="rgba(255,255,0,0.8)"
       opacity="0.8"
       style="fill:#ff794b;fill-opacity:0.66666669;opacity:1" />
    <path
       id="Pfad_1343"
       data-name="Pfad 1343"
       d="m 952.38185,650.98894 c 0.38465,-0.44135 -5.00317,-6.18181 -9.23658,-6.18181 -4.23342,0 -6.37046,2.02974 -5.38826,3.53246 2.30925,3.53246 5.56436,1.03196 8.08217,1.32446 2.51781,0.2925 6.15757,1.76666 6.54267,1.32489 z"
       fill="#42210b"
       style="display:inline;stroke-width:0.432688" />
    <path
       id="Pfad_1347"
       data-name="Pfad 1347"
       d="m 977.03812,674.63747 a 65.076203,65.076203 0 0 0 -12.41813,-2.42954 c -2.56887,-0.30288 -3.63112,2.1258 -7.88271,2.66276 -4.25158,-0.53696 -5.31384,-2.9665 -7.8827,-2.66276 a 65.076203,65.076203 0 0 0 -12.41813,2.42954 c -5.50898,1.59835 -14.92772,6.37738 -14.92772,7.59194 0,1.21455 20.71967,-2.15436 28.25796,-0.30289 a 27.135998,27.135998 0 0 0 13.94292,0 c 7.53828,-1.8506 28.25796,1.5183 28.25796,0.30289 0,-1.21542 -9.42048,-5.99359 -14.92945,-7.59194 z"
       fill="#f79885"
       style="display:inline;fill:#b398c5;fill-opacity:1;stroke-width:0.432688" />
    <path
       id="Pfad_1348"
       data-name="Pfad 1348"
       d="m 991.9654,684.48631 c -0.57114,-0.82904 -19.01965,-0.0827 -26.72624,1.41056 a 58.075751,58.075751 0 0 1 -8.50318,0.99518 58.075751,58.075751 0 0 1 -8.50317,-0.99518 c -7.7066,-1.4932 -26.1551,-2.2396 -26.72624,-1.41056 -0.57115,0.82903 4.85259,6.63612 6.56516,8.12933 a 39.268122,39.268122 0 0 0 17.98207,8.58495 51.512747,51.512747 0 0 0 21.36437,0 39.26769,39.26769 0 0 0 17.98206,-8.58495 c 1.71041,-1.49321 7.13592,-7.29987 6.56517,-8.12933 z"
       fill="#f79885"
       style="display:inline;fill:#00d023;fill-opacity:1;stroke-width:0.432688" />
    <path
       id="Pfad_1349"
       data-name="Pfad 1349"
       d="m 960.51941,650.98894 c -0.3851,-0.44135 5.00316,-6.18181 9.23657,-6.18181 4.23342,0 6.37003,2.02974 5.38783,3.53246 -2.30883,3.53246 -5.56436,1.03196 -8.08174,1.32446 -2.51737,0.2925 -6.15801,1.76666 -6.54266,1.32489 z"
       fill="#42210b"
       style="display:inline;fill:#42210b;fill-opacity:1;stroke-width:0.432688" />
    <path
       d="m 974.98713,539.18224 c -3.40975,1.89504 -9.1391,4.38654 -7.48722,8.25775 1.36841,3.20612 6.95999,2.27371 10.36347,1.20401 3.40352,-1.0697 3.35004,-3.12909 8.78217,-4.60536 5.43213,-1.4763 17.41845,1.49344 32.20355,8.24111 7.2234,3.29662 14.3376,9.72165 19.1314,13.34452 4.1887,3.16563 7.9422,-1.98196 4.8099,-7.45423 -3.2977,-5.76135 -38.8058,-19.89747 -49.40078,-21.3762 -10.59512,-1.47872 -14.99274,0.49336 -18.40249,2.3884 z"
       style="display:inline;fill:#e6b9cf;fill-opacity:1;stroke-width:0.444024"
       id="path181"
       sodipodi:nodetypes="zczzssszz" />
    <path
       d="m 932.41172,539.82534 c 3.41918,2.16882 9.18821,5.07443 7.36732,9.13059 -1.50839,3.3593 -7.19013,2.12215 -10.6313,0.83367 -3.44112,-1.28847 -3.31577,-3.48213 -8.81596,-5.29228 -5.50011,-1.81017 -17.85025,0.8358 -33.19021,7.38866 -7.49446,3.20139 -14.98475,9.74345 -20.0076,13.39831 -1.40721,1.02394 -2.73935,1.13858 -3.78823,0.63389 -2.22252,-1.06941 -3.17315,-4.91952 -0.87096,-8.79137 3.56767,-6.00012 40.33696,-19.53119 51.21438,-20.64769 10.87737,-1.11649 15.30337,1.17738 18.72256,3.34622 z"
       style="display:inline;fill:#e6b9cf;fill-opacity:1;stroke-width:0.463811"
       id="path278"
       sodipodi:nodetypes="zczzsssszz" />
    <path
       id="path179"
       style="display:inline;fill:#e6b9cf;fill-opacity:1;stroke-width:0.432688"
       d="m 959.09889,441.32277 c -113.27176,-0.60576 -149.1048,83.64606 -149.10481,175.52578 0,94.84491 23.15371,137.10437 44.68149,154.94797 6.10347,-5.85362 11.1549,-17.75919 11.1549,-17.75919 0,0 16.94662,6.95251 32.23073,10.94582 1.59316,-3.08437 -22.80399,-47.62563 -30.61108,-57.12026 -2.72836,-5.45671 1.0939,-43.17415 2.41041,-70.08387 0.69751,-14.25734 -10.83021,-32.8786 -9.25748,-50.29427 1.13921,-12.61501 13.4612,-22.78326 19.43571,-35.39651 8.01113,-16.91294 4.32096,-56.08425 27.52551,-68.3773 14.66995,-8.38818 20.65916,-4.50519 20.65916,-4.50519 l 3.17078,-2.72543 -0.69892,1.20257 c 2.25729,-3.36911 10.72053,-10.92639 38.18636,2.87332 12.51799,6.28944 35.12375,25.43428 43.25665,34.49779 8.109,9.03683 17.5832,40.47462 23.0438,49.94751 5.9492,10.32052 11.1433,23.58531 2.7378,60.54356 -2.0987,9.22801 7.0892,40.24675 7.4959,51.84339 -1.4432,15.83913 -16.0818,44.09083 -18.0342,47.99535 -4.1357,8.27082 -17.8519,34.77224 -23.6012,46.42166 1.8221,2.12579 26.8169,-14.48153 33.498,-19.64391 3.0093,6.99369 3.5789,10.03664 9.8868,16.0539 15.4866,-8.66862 54.4721,-56.43287 54.4721,-151.27649 0,-90.08276 -34.4513,-172.83126 -142.55364,-175.4607 z m -28.4036,36.36012 c -0.52446,0.78282 -0.82055,1.41131 -0.82055,1.41131 z"
       sodipodi:nodetypes="csccccsssccccsssscccccsccccc" />
    <path
       d="m 883.8366,584.39965 0.66171,0.94566 4.45195,2.63838 0.55353,-0.36761 c 0,0 -0.0172,-8.6e-4 -0.0474,-0.003 -0.0302,-0.003 -0.0732,-0.008 -0.12677,-0.0144 -0.0535,-0.007 -0.11739,-0.0146 -0.1876,-0.0262 -0.0351,-0.006 -0.0719,-0.0122 -0.10987,-0.0194 -0.038,-0.007 -0.0774,-0.0156 -0.11747,-0.0245 -0.04,-0.009 -0.0804,-0.0189 -0.12169,-0.0296 -0.0412,-0.0106 -0.0834,-0.0222 -0.12507,-0.0346 -0.0416,-0.0125 -0.0831,-0.026 -0.12423,-0.0406 -0.0412,-0.0145 -0.0818,-0.0297 -0.12169,-0.0465 -0.0399,-0.0168 -0.079,-0.035 -0.11663,-0.0541 -0.0377,-0.0191 -0.0743,-0.0393 -0.10901,-0.0608 -0.0346,-0.0216 -0.0672,-0.0443 -0.098,-0.0685 -0.0154,-0.012 -0.0305,-0.0244 -0.0448,-0.0372 -0.0143,-0.0128 -0.0275,-0.0254 -0.0406,-0.0389 -0.018,-0.0185 -0.0429,-0.0402 -0.0736,-0.0642 -0.0306,-0.0241 -0.0671,-0.0504 -0.10902,-0.0794 -0.0419,-0.029 -0.0893,-0.0604 -0.14113,-0.0938 -0.0518,-0.0334 -0.10776,-0.0692 -0.16817,-0.10648 -0.12083,-0.0745 -0.25767,-0.15594 -0.4048,-0.24254 -0.14713,-0.0866 -0.30465,-0.17796 -0.46733,-0.27212 -0.1627,-0.0942 -0.33026,-0.19095 -0.49776,-0.28818 -0.16751,-0.0972 -0.33536,-0.1949 -0.49692,-0.29071 -0.16157,-0.0958 -0.31739,-0.18982 -0.46227,-0.27973 -0.0724,-0.045 -0.14165,-0.0892 -0.20789,-0.13183 -0.0663,-0.0426 -0.12974,-0.0836 -0.18845,-0.12338 -0.0535,-0.0362 -0.10849,-0.0756 -0.16395,-0.11578 -0.0554,-0.0401 -0.11065,-0.0816 -0.16564,-0.12339 -0.10999,-0.0834 -0.21693,-0.16749 -0.31015,-0.24253 -0.0932,-0.075 -0.17331,-0.14038 -0.22987,-0.18762 -0.0566,-0.0473 -0.0896,-0.0761 -0.0896,-0.0761 z"
       style="fill:#42210b;stroke-width:0.386891"
       id="path5" />
    <path
       d="m 888.91561,579.82939 0.47325,1.25496 4.17138,5.26831 0.92284,-0.35494 c 0,0 -0.0229,-0.0121 -0.0642,-0.0338 -0.0412,-0.0217 -0.10031,-0.0535 -0.17239,-0.0938 -0.0721,-0.0404 -0.15683,-0.0892 -0.2493,-0.14535 -0.0462,-0.028 -0.0951,-0.0573 -0.14452,-0.0887 -0.0494,-0.0314 -0.0992,-0.0652 -0.15042,-0.0997 -0.0512,-0.0345 -0.10374,-0.0702 -0.15551,-0.10733 -0.0517,-0.0371 -0.10281,-0.0755 -0.1538,-0.11493 -0.051,-0.0394 -0.10151,-0.0795 -0.15042,-0.12086 -0.0489,-0.0413 -0.0965,-0.0839 -0.14198,-0.12676 -0.0456,-0.0429 -0.0893,-0.0861 -0.13015,-0.13014 -0.0408,-0.0441 -0.0792,-0.0887 -0.11408,-0.13353 -0.0175,-0.0224 -0.0334,-0.045 -0.049,-0.0676 -0.0157,-0.0226 -0.031,-0.0449 -0.0448,-0.0676 -0.0138,-0.0227 -0.0263,-0.0457 -0.0381,-0.0685 -0.0117,-0.0227 -0.0226,-0.0449 -0.0321,-0.0676 -0.007,-0.0156 -0.0143,-0.0327 -0.0236,-0.0498 -0.009,-0.0172 -0.0207,-0.0345 -0.033,-0.0533 -0.0245,-0.0376 -0.0541,-0.0789 -0.0887,-0.12253 -0.0347,-0.0437 -0.0745,-0.09 -0.11831,-0.13945 -0.0438,-0.0495 -0.0919,-0.10212 -0.14367,-0.15718 -0.10365,-0.11013 -0.22184,-0.23086 -0.35072,-0.3617 -0.12886,-0.13085 -0.26818,-0.27139 -0.41325,-0.42086 -0.0725,-0.0748 -0.14652,-0.15171 -0.22141,-0.23071 -0.0749,-0.079 -0.15038,-0.16039 -0.22648,-0.24339 -0.0761,-0.083 -0.15282,-0.16763 -0.22902,-0.25437 -0.0762,-0.0867 -0.15216,-0.17514 -0.22733,-0.26536 -0.0752,-0.0902 -0.14925,-0.18206 -0.22227,-0.2755 -0.073,-0.0934 -0.14493,-0.1884 -0.21465,-0.28479 -0.0697,-0.0964 -0.13753,-0.19416 -0.20282,-0.29325 -0.0327,-0.0496 -0.065,-0.0994 -0.0963,-0.14958 -0.0313,-0.0502 -0.0614,-0.10136 -0.0913,-0.15212 -0.0408,-0.0693 -0.0856,-0.14007 -0.13184,-0.21212 -0.0462,-0.072 -0.0942,-0.14481 -0.14282,-0.21634 -0.0486,-0.0715 -0.0973,-0.14267 -0.14535,-0.21043 -0.048,-0.0677 -0.095,-0.13281 -0.13945,-0.19352 -0.0888,-0.12145 -0.16753,-0.22541 -0.22394,-0.29917 -0.0564,-0.0737 -0.0904,-0.11663 -0.0904,-0.11663 z"
       style="fill:#42210b;stroke-width:0.386891"
       id="path6" />
    <path
       d="m 879.75142,588.36567 0.72762,0.71664 4.70802,2.67049 0.59325,-0.36677 c 0,0 -0.0844,-0.0147 -0.21719,-0.0431 -0.0664,-0.0143 -0.14508,-0.0314 -0.23155,-0.0524 -0.0865,-0.021 -0.18025,-0.046 -0.27803,-0.0736 -0.0489,-0.0137 -0.0987,-0.0277 -0.14874,-0.0431 -0.0501,-0.0154 -0.10026,-0.0321 -0.15043,-0.049 -0.0502,-0.0169 -0.10041,-0.034 -0.14958,-0.0524 -0.0491,-0.0184 -0.0974,-0.0376 -0.14451,-0.0575 -0.0471,-0.0199 -0.093,-0.0412 -0.1369,-0.0626 -0.0439,-0.0214 -0.0855,-0.0431 -0.12508,-0.0659 -0.0396,-0.0229 -0.0773,-0.0467 -0.11156,-0.071 -0.0171,-0.0121 -0.0334,-0.0247 -0.049,-0.0372 -0.0156,-0.0125 -0.0301,-0.0252 -0.0439,-0.038 -0.01,-0.009 -0.0208,-0.0176 -0.033,-0.0271 -0.0122,-0.009 -0.0258,-0.0187 -0.0406,-0.0287 -0.0296,-0.0199 -0.064,-0.0412 -0.10311,-0.0633 -0.0391,-0.0222 -0.0824,-0.0449 -0.13015,-0.0693 -0.0477,-0.0244 -0.10007,-0.0503 -0.15549,-0.0769 -0.11084,-0.0533 -0.23581,-0.1108 -0.37184,-0.17324 -0.13604,-0.0625 -0.28314,-0.12949 -0.43692,-0.20113 -0.15378,-0.0717 -0.31425,-0.14809 -0.47832,-0.22902 -0.0821,-0.0405 -0.16524,-0.0822 -0.24846,-0.12508 -0.0832,-0.0428 -0.16669,-0.0867 -0.25014,-0.13183 -0.0834,-0.0451 -0.16654,-0.0911 -0.2493,-0.1386 -0.0828,-0.0475 -0.16477,-0.0963 -0.24593,-0.1462 -0.0811,-0.0498 -0.1614,-0.10156 -0.24,-0.1538 -0.0786,-0.0523 -0.15559,-0.1051 -0.23071,-0.15973 -0.0513,-0.0373 -0.10609,-0.0759 -0.16227,-0.11408 -0.0562,-0.0383 -0.1137,-0.0766 -0.17155,-0.1141 -0.11568,-0.0749 -0.23169,-0.14689 -0.33465,-0.20958 -0.10297,-0.0627 -0.19335,-0.11612 -0.25775,-0.1538 -0.0644,-0.0377 -0.10226,-0.0591 -0.10226,-0.0591 z"
       style="fill:#42210b;stroke-width:0.386891"
       id="path7" />
    <path
       d="m 882.2343,586.73041 0.66002,0.66087 4.28124,2.47612 0.54509,-0.33381 c 0,0 -0.0767,-0.0138 -0.19776,-0.0406 -0.0605,-0.0134 -0.13163,-0.0302 -0.21042,-0.0498 -0.0788,-0.0197 -0.1653,-0.0427 -0.25437,-0.0685 -0.0445,-0.0128 -0.0896,-0.0262 -0.13522,-0.0406 -0.0456,-0.0143 -0.0912,-0.0298 -0.13691,-0.0456 -0.0457,-0.0157 -0.0913,-0.0319 -0.13606,-0.049 -0.0448,-0.0172 -0.089,-0.0347 -0.13183,-0.0533 -0.0428,-0.0185 -0.0843,-0.0385 -0.12423,-0.0584 -0.04,-0.0199 -0.0781,-0.0397 -0.11409,-0.0608 -0.036,-0.0211 -0.0695,-0.0435 -0.10057,-0.0659 -0.0155,-0.0112 -0.0307,-0.0223 -0.0448,-0.0338 -0.0141,-0.0115 -0.028,-0.0236 -0.0406,-0.0355 -0.009,-0.008 -0.0184,-0.0158 -0.0296,-0.0245 -0.0112,-0.009 -0.0236,-0.0178 -0.0371,-0.0271 -0.0271,-0.0184 -0.059,-0.0378 -0.0947,-0.0583 -0.0357,-0.0205 -0.0756,-0.0425 -0.11915,-0.065 -0.0436,-0.0226 -0.0906,-0.0462 -0.14114,-0.071 -0.10101,-0.0494 -0.21503,-0.10261 -0.33887,-0.16057 -0.12385,-0.0579 -0.25729,-0.12026 -0.3972,-0.18676 -0.13991,-0.0665 -0.28602,-0.13787 -0.43522,-0.21297 -0.0746,-0.0376 -0.14999,-0.0761 -0.22564,-0.11577 -0.0756,-0.0397 -0.15147,-0.0807 -0.22733,-0.12255 -0.0759,-0.0418 -0.15211,-0.0844 -0.22733,-0.12845 -0.0752,-0.044 -0.14937,-0.089 -0.22311,-0.13521 -0.0737,-0.0462 -0.14663,-0.0936 -0.21802,-0.14198 -0.0714,-0.0484 -0.14137,-0.0982 -0.20959,-0.14873 -0.0468,-0.0345 -0.0967,-0.0694 -0.1479,-0.1048 -0.0512,-0.0353 -0.10371,-0.0709 -0.15634,-0.10563 -0.10526,-0.0694 -0.21071,-0.13631 -0.30423,-0.19437 -0.0935,-0.058 -0.17565,-0.10707 -0.23409,-0.14198 -0.0584,-0.0349 -0.093,-0.0558 -0.093,-0.0558 z"
       style="fill:#42210b;stroke-width:0.386891"
       id="path8" />
    <path
       d="m 892.62134,577.01185 0.83073,2.28935 3.81813,5.63424 1.17467,-0.3093 c 0,0 -0.0244,-0.0102 -0.0668,-0.0304 -0.0423,-0.0202 -0.1029,-0.0503 -0.17662,-0.0887 -0.0737,-0.0385 -0.16021,-0.0855 -0.25438,-0.14029 -0.0471,-0.0274 -0.096,-0.0567 -0.1462,-0.0879 -0.0501,-0.0311 -0.10112,-0.0643 -0.15295,-0.0989 -0.0518,-0.0346 -0.10418,-0.0703 -0.15635,-0.10817 -0.0522,-0.0379 -0.10438,-0.0774 -0.15549,-0.11832 -0.0511,-0.0408 -0.10172,-0.0832 -0.15043,-0.12676 -0.0487,-0.0436 -0.0953,-0.0883 -0.14029,-0.13437 -0.0449,-0.0462 -0.0878,-0.0936 -0.1276,-0.14197 -0.0199,-0.0241 -0.0391,-0.0488 -0.0575,-0.0736 -0.0183,-0.0248 -0.0358,-0.05 -0.0524,-0.0752 -0.0166,-0.0253 -0.0326,-0.0504 -0.0474,-0.0761 -0.0148,-0.0257 -0.0287,-0.0516 -0.0414,-0.0778 -0.0127,-0.0261 -0.0242,-0.0521 -0.0346,-0.0786 -0.0105,-0.0266 -0.0199,-0.0534 -0.0279,-0.0803 -0.005,-0.0185 -0.0127,-0.0393 -0.022,-0.0617 -0.009,-0.0224 -0.021,-0.0466 -0.0338,-0.0727 -0.0258,-0.0522 -0.0584,-0.11156 -0.0972,-0.17747 -0.0388,-0.0659 -0.0833,-0.13836 -0.13353,-0.21634 -0.0503,-0.0779 -0.10636,-0.16171 -0.16648,-0.25015 -0.12024,-0.17687 -0.25799,-0.37232 -0.40818,-0.58142 -0.15019,-0.2091 -0.31257,-0.43153 -0.48002,-0.66001 -0.16743,-0.2285 -0.34015,-0.46302 -0.51212,-0.69806 -0.17197,-0.23503 -0.34325,-0.47014 -0.50706,-0.69889 -0.0819,-0.11437 -0.16169,-0.22764 -0.23916,-0.33803 -0.0774,-0.11039 -0.15249,-0.21802 -0.22395,-0.32283 -0.0714,-0.1048 -0.13981,-0.20662 -0.20366,-0.30423 -0.0639,-0.0976 -0.12281,-0.19091 -0.17747,-0.27972 -0.0994,-0.16157 -0.20099,-0.33145 -0.29747,-0.49439 -0.0965,-0.16294 -0.18808,-0.31903 -0.26706,-0.4555 -0.15794,-0.27295 -0.2662,-0.46565 -0.2662,-0.46565 z"
       style="fill:#42210b;stroke-width:0.386891"
       id="path9" />
    <path
       d="m 897.22202,575.34195 0.63636,2.50231 2.94852,6.05679 1.29384,-0.18001 c 0,0 -0.0274,-0.0144 -0.0743,-0.0406 -0.047,-0.0263 -0.11408,-0.0651 -0.19521,-0.11409 -0.0811,-0.0491 -0.17562,-0.10828 -0.27804,-0.17662 -0.0512,-0.0342 -0.10475,-0.0706 -0.15888,-0.10902 -0.0541,-0.0383 -0.10936,-0.0788 -0.16479,-0.12084 -0.0554,-0.042 -0.11051,-0.0856 -0.16563,-0.13099 -0.0552,-0.0454 -0.10989,-0.0929 -0.16311,-0.14114 -0.0532,-0.0482 -0.10495,-0.0972 -0.15466,-0.14789 -0.0497,-0.0507 -0.0974,-0.10281 -0.14197,-0.15549 -0.0446,-0.0527 -0.0864,-0.10633 -0.12423,-0.16057 -0.0189,-0.0272 -0.0371,-0.0546 -0.0541,-0.082 -0.0169,-0.0274 -0.0326,-0.0551 -0.0474,-0.0829 -0.0148,-0.0277 -0.0282,-0.0549 -0.0406,-0.0828 -0.0124,-0.0279 -0.024,-0.0556 -0.0338,-0.0837 -0.01,-0.028 -0.0183,-0.0564 -0.0254,-0.0845 -0.007,-0.0281 -0.012,-0.0564 -0.0161,-0.0845 -0.003,-0.0193 -0.007,-0.0407 -0.0127,-0.0642 -0.006,-0.0235 -0.0135,-0.0495 -0.022,-0.0769 -0.0169,-0.0548 -0.0388,-0.11741 -0.0659,-0.18676 -0.0272,-0.0693 -0.0593,-0.14518 -0.0955,-0.22733 -0.0362,-0.0822 -0.0769,-0.1704 -0.12086,-0.26367 -0.044,-0.0933 -0.0914,-0.19136 -0.14197,-0.29409 -0.0505,-0.10273 -0.10381,-0.20978 -0.15972,-0.32029 -0.11183,-0.22102 -0.23314,-0.45595 -0.35917,-0.69805 -0.25204,-0.4842 -0.52264,-0.99751 -0.77326,-1.48568 -0.1253,-0.24407 -0.24623,-0.48151 -0.35662,-0.70649 -0.0552,-0.11249 -0.10754,-0.22185 -0.1572,-0.32705 -0.0497,-0.1052 -0.0965,-0.2063 -0.13943,-0.30255 -0.0389,-0.0875 -0.0779,-0.17886 -0.11663,-0.27126 -0.0388,-0.0924 -0.0769,-0.18615 -0.11408,-0.27889 -0.0743,-0.18547 -0.14443,-0.36675 -0.20451,-0.52649 -0.1202,-0.31948 -0.20114,-0.55185 -0.20114,-0.55185 z"
       style="fill:#42210b;stroke-width:0.386891"
       id="path10" />
    <path
       d="m 902.66611,574.34727 -0.0947,2.68064 0.0431,6.90863 1.32257,-0.0871 c 0,0 -0.0119,-0.0324 -0.033,-0.0904 -0.021,-0.0581 -0.0512,-0.142 -0.0862,-0.24593 -0.035,-0.10393 -0.0748,-0.2283 -0.11662,-0.36593 -0.0209,-0.0688 -0.0421,-0.14054 -0.0634,-0.21549 -0.0213,-0.0749 -0.0426,-0.15283 -0.0634,-0.23241 -0.0208,-0.0796 -0.0415,-0.1607 -0.0608,-0.24338 -0.0194,-0.0827 -0.0378,-0.16674 -0.0549,-0.25099 -0.0171,-0.0842 -0.0326,-0.16922 -0.0465,-0.25353 -0.0139,-0.0843 -0.0257,-0.16814 -0.0355,-0.251 -0.01,-0.0828 -0.018,-0.16436 -0.0228,-0.24423 -0.005,-0.0798 -0.007,-0.15789 -0.006,-0.23325 4.4e-4,-0.0377 0.003,-0.0744 0.004,-0.1107 0.003,-0.0363 0.005,-0.0719 0.009,-0.10648 0.004,-0.0346 0.009,-0.0686 0.0143,-0.10141 0.006,-0.0329 0.0118,-0.0655 0.0194,-0.0964 0.005,-0.0212 0.01,-0.044 0.0135,-0.0693 0.004,-0.0253 0.007,-0.0528 0.009,-0.082 0.004,-0.0584 0.006,-0.12479 0.005,-0.19775 -8.6e-4,-0.073 -0.004,-0.15248 -0.0101,-0.23832 -0.005,-0.0859 -0.0125,-0.17754 -0.022,-0.27465 -0.009,-0.0971 -0.0211,-0.19996 -0.0338,-0.30677 -0.0127,-0.1068 -0.0271,-0.21808 -0.0423,-0.33297 -0.0304,-0.22979 -0.0651,-0.47421 -0.10141,-0.72678 -0.0363,-0.25257 -0.0741,-0.5132 -0.11071,-0.77579 -0.0366,-0.26259 -0.0718,-0.52694 -0.1031,-0.78679 -0.0156,-0.12991 -0.0307,-0.25851 -0.0439,-0.38536 -0.0132,-0.12684 -0.0253,-0.2522 -0.0355,-0.37438 -0.0101,-0.12216 -0.019,-0.24157 -0.0254,-0.35747 -0.006,-0.11589 -0.01,-0.22831 -0.0118,-0.33634 a 5.8724172,4.2709075 0 0 0 0,-0.0228 5.8724172,4.2709075 0 0 0 0,-0.0236 5.8724172,4.2709075 0 0 0 0,-0.0228 5.8724172,4.2709075 0 0 0 0,-0.0228 5.8724172,4.2709075 0 0 0 0,-0.0236 5.8724172,4.2709075 0 0 0 -8.6e-4,-0.0228 5.8724172,4.2709075 0 0 0 0,-0.0236 5.8724172,4.2709075 0 0 0 -8.6e-4,-0.0228 5.8724172,4.2709075 0 0 0 -0.002,-0.0236 5.8724172,4.2709075 0 0 0 -8.6e-4,-0.0228 5.8724172,4.2709075 0 0 0 -0.002,-0.0236 5.8724172,4.2709075 0 0 0 -8.6e-4,-0.0228 5.8724172,4.2709075 0 0 0 -0.002,-0.0236 5.8724172,4.2709075 0 0 0 -0.003,-0.0228 5.8724172,4.2709075 0 0 0 -0.002,-0.0236 5.8724172,4.2709075 0 0 0 -0.003,-0.0228 5.8724172,4.2709075 0 0 0 -0.002,-0.0228 5.8724172,4.2709075 0 0 0 -0.003,-0.0236 5.8724172,4.2709075 0 0 0 -0.003,-0.0228 5.8724172,4.2709075 0 0 0 -0.003,-0.0236 5.8724172,4.2709075 0 0 0 -0.003,-0.0228 5.8724172,4.2709075 0 0 0 -0.003,-0.0228 5.8724172,4.2709075 0 0 0 -0.004,-0.0236 5.8724172,4.2709075 0 0 0 -0.003,-0.0228 5.8724172,4.2709075 0 0 0 -0.003,-0.0228 5.8724172,4.2709075 0 0 0 -0.004,-0.0228 5.8724172,4.2709075 0 0 0 -0.004,-0.0236 5.8724172,4.2709075 0 0 0 -0.004,-0.0228 5.8724172,4.2709075 0 0 0 -0.004,-0.0228 5.8724172,4.2709075 0 0 0 -0.004,-0.0228 5.8724172,4.2709075 0 0 0 -0.005,-0.0228 5.8724172,4.2709075 0 0 0 -0.005,-0.0236 5.8724172,4.2709075 0 0 0 -0.005,-0.0228 5.8724172,4.2709075 0 0 0 -0.005,-0.0228 5.8724172,4.2709075 0 0 0 -0.006,-0.0228 5.8724172,4.2709075 0 0 0 -0.006,-0.0228 5.8724172,4.2709075 0 0 0 -0.005,-0.0228 5.8724172,4.2709075 0 0 0 -0.007,-0.0228 5.8724172,4.2709075 0 0 0 -0.006,-0.0228 5.8724172,4.2709075 0 0 0 -0.006,-0.0228 5.8724172,4.2709075 0 0 0 -0.007,-0.0228 5.8724172,4.2709075 0 0 0 -0.007,-0.0228 5.8724172,4.2709075 0 0 0 -0.007,-0.022 5.8724172,4.2709075 0 0 0 -0.007,-0.0228 5.8724172,4.2709075 0 0 0 -0.008,-0.0228 5.8724172,4.2709075 0 0 0 -0.007,-0.0228 5.8724172,4.2709075 0 0 0 -0.008,-0.0228 5.8724172,4.2709075 0 0 0 -0.008,-0.022 5.8724172,4.2709075 0 0 0 -0.009,-0.0228 5.8724172,4.2709075 0 0 0 -0.008,-0.022 5.8724172,4.2709075 0 0 0 -0.009,-0.0228 5.8724172,4.2709075 0 0 0 -0.009,-0.0228 5.8724172,4.2709075 0 0 0 -0.009,-0.022 z"
       style="fill:#42210b;stroke-width:0.386891"
       id="path11" />
    <path
       d="m 885.84116,582.21509 0.3879,0.89917 4.70632,4.29562 0.71495,-0.39889 c 0,0 -0.0223,-0.006 -0.0617,-0.0186 -0.0394,-0.0124 -0.0963,-0.0302 -0.16563,-0.0541 -0.0693,-0.0238 -0.15111,-0.0534 -0.24085,-0.0879 -0.0449,-0.0173 -0.0913,-0.036 -0.13945,-0.0558 -0.0482,-0.0198 -0.0984,-0.0404 -0.14873,-0.0626 -0.0503,-0.0222 -0.10091,-0.0457 -0.15211,-0.0701 -0.0512,-0.0245 -0.10289,-0.0503 -0.15382,-0.0769 -0.051,-0.0266 -0.10096,-0.0541 -0.15042,-0.0829 -0.0494,-0.0287 -0.0977,-0.0581 -0.14451,-0.0887 -0.0468,-0.0307 -0.0923,-0.063 -0.13521,-0.0955 -0.043,-0.0326 -0.0838,-0.0654 -0.1217,-0.0997 -0.019,-0.0171 -0.0366,-0.0348 -0.0541,-0.0524 -0.0174,-0.0175 -0.0349,-0.0352 -0.0507,-0.0533 -0.0158,-0.018 -0.0308,-0.0358 -0.0448,-0.0541 -0.0141,-0.0183 -0.0268,-0.037 -0.0389,-0.0558 -0.0166,-0.0258 -0.0398,-0.0572 -0.0693,-0.0938 -0.0295,-0.0365 -0.0655,-0.0781 -0.10648,-0.12423 -0.041,-0.0462 -0.0875,-0.0967 -0.1386,-0.15127 -0.051,-0.0546 -0.10663,-0.11307 -0.16648,-0.17494 -0.11969,-0.12372 -0.25569,-0.26069 -0.40226,-0.40648 -0.14659,-0.1458 -0.30392,-0.30039 -0.4665,-0.45889 -0.32516,-0.31702 -0.67085,-0.65002 -0.99467,-0.96172 -0.32382,-0.31169 -0.62579,-0.60261 -0.86115,-0.8341 a 3.1489426,2.2901713 0 0 0 -0.23409,-0.21719 3.1489426,2.2901713 0 0 0 -0.2679,-0.19522 3.1489426,2.2901713 0 0 0 -0.29916,-0.16986 z"
       style="fill:#42210b;stroke-width:0.386891"
       id="path12" />
    <path
       d="m 923.09621,583.52582 a 3.5631928,2.5914483 0 0 0 -0.26704,0.15043 3.5631928,2.5914483 0 0 0 -0.24677,0.16817 3.5631928,2.5914483 0 0 0 -0.22396,0.18508 c -0.11215,0.0972 -0.22196,0.19041 -0.32871,0.27973 -0.10674,0.0893 -0.21102,0.17432 -0.31101,0.25606 -0.19999,0.16346 -0.38514,0.31276 -0.55017,0.4479 -0.0825,0.0675 -0.15979,0.13168 -0.23153,0.19268 -0.0718,0.061 -0.1372,0.11848 -0.19691,0.17324 -0.0298,0.0274 -0.0588,0.0544 -0.0853,0.0803 -0.0264,0.0259 -0.0512,0.0508 -0.0743,0.0752 -0.0229,0.0245 -0.0447,0.048 -0.0643,0.071 -0.0194,0.023 -0.0376,0.0451 -0.0532,0.0668 -0.0117,0.0157 -0.0251,0.0325 -0.0407,0.0498 -0.0155,0.0174 -0.0329,0.036 -0.0524,0.0549 -0.0195,0.0189 -0.0402,0.0381 -0.0634,0.0583 -0.023,0.0203 -0.0482,0.0411 -0.0743,0.0626 -0.0523,0.043 -0.11055,0.0882 -0.17407,0.13521 -0.0635,0.047 -0.1321,0.0962 -0.20454,0.14621 -0.0724,0.05 -0.14832,0.10104 -0.22732,0.15296 -0.079,0.0519 -0.16092,0.10448 -0.24422,0.15719 -0.0833,0.0527 -0.16822,0.10564 -0.25351,0.15803 -0.0853,0.0523 -0.17108,0.10452 -0.25606,0.15549 -0.17004,0.10195 -0.33763,0.19936 -0.4927,0.28903 -0.15508,0.0897 -0.29743,0.17142 -0.41919,0.24001 -0.24348,0.13717 -0.40227,0.2231 -0.40227,0.2231 l 0.60088,0.0498 2.63333,-1.71976 z"
       style="fill:#42210b;stroke-width:0.386891"
       id="path13" />
    <path
       d="m 917.19579,578.33104 a 4.5523451,3.3108418 0 0 0 -0.27718,0.24507 4.5523451,3.3108418 0 0 0 -0.24425,0.26367 4.5523451,3.3108418 0 0 0 -0.20786,0.27973 c -0.0521,0.0737 -0.10827,0.15 -0.16733,0.22818 -0.0591,0.0782 -0.12115,0.15833 -0.18593,0.24 -0.0648,0.0816 -0.1327,0.16508 -0.20197,0.2493 -0.0693,0.0842 -0.1405,0.1694 -0.21297,0.25522 -0.145,0.17167 -0.29436,0.34563 -0.44455,0.51805 -0.15014,0.17242 -0.30097,0.34313 -0.44618,0.50874 -0.14525,0.16562 -0.28562,0.32623 -0.41581,0.47748 -0.0651,0.0756 -0.12734,0.1491 -0.18675,0.21972 -0.0594,0.0706 -0.1157,0.13817 -0.16819,0.20283 -0.0524,0.0646 -0.10108,0.12646 -0.14533,0.18422 -0.0443,0.0578 -0.0844,0.1115 -0.11917,0.16142 -0.0346,0.0499 -0.0639,0.0958 -0.0879,0.13691 -0.0121,0.0205 -0.023,0.0401 -0.0321,0.0584 -0.009,0.0181 -0.0168,0.035 -0.0229,0.0507 -0.009,0.0229 -0.0182,0.0464 -0.0294,0.0701 -0.0113,0.0237 -0.0238,0.048 -0.0372,0.0727 -0.0268,0.0493 -0.0584,0.0993 -0.093,0.15127 -0.0346,0.0519 -0.0722,0.1051 -0.11324,0.15888 -0.0411,0.0538 -0.0849,0.10834 -0.13098,0.16311 -0.0461,0.0547 -0.0947,0.10988 -0.14451,0.16478 -0.0498,0.0549 -0.1009,0.10977 -0.15296,0.16395 -0.0521,0.0542 -0.10501,0.10796 -0.15801,0.16057 -0.053,0.0526 -0.10632,0.10447 -0.15889,0.15466 -0.1052,0.10037 -0.2081,0.19503 -0.30341,0.28056 -0.0953,0.0855 -0.18243,0.16178 -0.2569,0.22565 -0.14895,0.12773 -0.24592,0.20536 -0.24592,0.20536 l 0.47663,0.25521 2.80401,-3.49699 z"
       style="fill:#42210b;stroke-width:0.386891"
       id="path14" />
    <path
       d="m 912.69484,576.67888 a 4.7947259,3.487121 0 0 0 -0.22904,0.28733 4.7947259,3.487121 0 0 0 -0.19098,0.3017 4.7947259,3.487121 0 0 0 -0.15043,0.31437 c -0.15114,0.33508 -0.3175,0.70106 -0.48762,1.07074 -0.0851,0.18484 -0.17107,0.37029 -0.25691,0.55354 -0.0859,0.18324 -0.17125,0.36435 -0.25522,0.53916 -0.084,0.17482 -0.16645,0.34326 -0.24591,0.50283 -0.0795,0.15958 -0.15587,0.31041 -0.22818,0.4479 -0.0723,0.1375 -0.14031,0.26157 -0.20283,0.37015 -0.0313,0.0543 -0.0613,0.10465 -0.0896,0.15043 -0.0283,0.0458 -0.0553,0.087 -0.0803,0.12338 -0.2544,0.37004 -0.68674,0.98945 -1.05552,1.5161 -0.36878,0.52665 -0.67354,0.96087 -0.67354,0.96087 l 0.95665,0.33973 2.77612,-6.02129 z"
       style="fill:#42210b;stroke-width:0.386891"
       id="path15" />
    <path
       d="m 908.27499,574.93038 a 5.3127389,3.8638629 0 0 0 -0.20789,0.3372 5.3127389,3.8638629 0 0 0 -0.16311,0.35071 5.3127389,3.8638629 0 0 0 -0.11577,0.36 c -0.0279,0.0953 -0.0591,0.19412 -0.093,0.29579 -0.0339,0.10168 -0.0703,0.20595 -0.10902,0.31268 -0.0387,0.10674 -0.08,0.21575 -0.12254,0.32621 -0.0425,0.11046 -0.0864,0.22264 -0.13183,0.3355 -0.0908,0.22574 -0.18603,0.45453 -0.28226,0.68199 -0.0962,0.22747 -0.1938,0.4532 -0.28734,0.67186 -0.0935,0.21865 -0.18343,0.43029 -0.2662,0.62959 -0.0414,0.0996 -0.0811,0.19619 -0.11831,0.28902 -0.0372,0.0928 -0.072,0.18236 -0.10395,0.26705 -0.032,0.0847 -0.0604,0.16476 -0.0862,0.24 -0.0257,0.0752 -0.0482,0.14512 -0.0668,0.20958 -0.0186,0.0645 -0.0337,0.12341 -0.0439,0.17578 -0.005,0.0262 -0.009,0.0506 -0.0119,0.0736 -0.003,0.0229 -0.004,0.0448 -0.005,0.0642 -8.6e-4,0.0284 -0.003,0.0572 -0.006,0.087 -0.003,0.0298 -0.007,0.0601 -0.0118,0.0913 -0.005,0.0312 -0.0108,0.0632 -0.0177,0.0955 -0.007,0.0324 -0.0149,0.0655 -0.0236,0.0989 -0.0174,0.0668 -0.038,0.13535 -0.0617,0.20536 -0.0237,0.07 -0.0506,0.14097 -0.0794,0.21297 -0.0288,0.072 -0.0602,0.14527 -0.093,0.21802 -0.0327,0.0728 -0.0667,0.14575 -0.10226,0.21804 -0.0355,0.0723 -0.0727,0.14406 -0.10986,0.21465 -0.0371,0.0706 -0.0748,0.13939 -0.1124,0.20706 -0.0754,0.13532 -0.15022,0.26404 -0.22057,0.38029 -0.0704,0.11623 -0.13571,0.22028 -0.19183,0.30761 -0.11227,0.17464 -0.18678,0.28141 -0.18678,0.28141 l 1.02849,0.21128 1.60229,-5.24465 z"
       style="fill:#42210b;stroke-width:0.386891"
       id="path16" />
    <path
       d="m 920.76295,581.34041 c 0,0 -0.21124,0.18635 -0.47583,0.42509 -0.13227,0.11937 -0.27808,0.25213 -0.41746,0.38113 -0.0697,0.0645 -0.13707,0.12781 -0.2011,0.18846 -0.0641,0.0607 -0.1248,0.11808 -0.17836,0.17071 -0.0588,0.0578 -0.11886,0.11562 -0.18082,0.1724 -0.062,0.0568 -0.12582,0.11261 -0.19017,0.16817 -0.0644,0.0555 -0.12924,0.11057 -0.19523,0.16479 -0.0659,0.0542 -0.13266,0.10781 -0.19942,0.16057 -0.13353,0.10551 -0.26745,0.20783 -0.39972,0.30677 -0.13227,0.0989 -0.26312,0.19507 -0.3879,0.28649 -0.12479,0.0914 -0.24378,0.17822 -0.35493,0.26112 -0.11117,0.0829 -0.21458,0.1615 -0.30591,0.23495 -0.0457,0.0367 -0.0881,0.0723 -0.12765,0.10647 -0.0394,0.0342 -0.0763,0.0674 -0.109,0.0989 -0.0329,0.0315 -0.0611,0.0608 -0.0862,0.0896 -0.0251,0.0287 -0.0468,0.0562 -0.0634,0.082 -0.0121,0.0187 -0.0255,0.0381 -0.0398,0.0575 -0.0143,0.0193 -0.0294,0.0386 -0.0456,0.0584 -0.0325,0.0395 -0.0693,0.0798 -0.10899,0.12085 -0.0398,0.041 -0.0822,0.0823 -0.12765,0.12423 -0.0455,0.0418 -0.0937,0.0846 -0.14365,0.12677 -0.0499,0.0421 -0.10159,0.084 -0.15464,0.12591 -0.053,0.0418 -0.10743,0.0833 -0.16225,0.12423 -0.0549,0.041 -0.11034,0.0813 -0.16564,0.12085 -0.0553,0.0395 -0.11033,0.0783 -0.16481,0.11578 -0.10891,0.0749 -0.21509,0.14549 -0.31266,0.20873 -0.0976,0.0633 -0.18636,0.11964 -0.26199,0.16649 -0.15131,0.0937 -0.24845,0.14958 -0.24845,0.14958 l 0.53238,0.15719 4.8914,-4.05391 z"
       style="fill:#42210b;stroke-width:0.386891"
       id="path17" />
    <path
       d="m 925.20306,586.68394 c 0,0 -0.19709,0.11295 -0.44455,0.2586 -0.1237,0.0728 -0.26073,0.15434 -0.39127,0.23324 -0.13054,0.0789 -0.25512,0.15581 -0.35576,0.22057 -0.0553,0.0356 -0.11185,0.0709 -0.16987,0.10564 -0.058,0.0347 -0.11748,0.0685 -0.17749,0.10225 -0.06,0.0338 -0.12038,0.067 -0.18169,0.0997 -0.0613,0.0328 -0.12314,0.0654 -0.18506,0.0972 -0.12383,0.0636 -0.24875,0.12493 -0.37098,0.18423 -0.12223,0.0593 -0.24231,0.1169 -0.35749,0.17156 -0.11518,0.0547 -0.22517,0.10667 -0.32789,0.15634 -0.10272,0.0497 -0.19748,0.0968 -0.28228,0.14113 -0.0425,0.0222 -0.0822,0.0435 -0.11917,0.0642 -0.0368,0.0208 -0.0715,0.0406 -0.10224,0.06 -0.0308,0.0193 -0.0581,0.038 -0.082,0.0558 -0.0238,0.0178 -0.0438,0.0352 -0.06,0.0516 -0.0121,0.0119 -0.0251,0.0234 -0.0389,0.0355 -0.0138,0.012 -0.0285,0.0249 -0.044,0.0372 -0.0311,0.0246 -0.0664,0.0491 -0.10394,0.0743 -0.0376,0.0253 -0.0774,0.0513 -0.12002,0.0769 -0.0425,0.0256 -0.0879,0.0505 -0.13435,0.0761 -0.0465,0.0256 -0.0945,0.0516 -0.14365,0.0769 -0.0492,0.0252 -0.0989,0.0498 -0.14958,0.0743 -0.10138,0.0491 -0.20492,0.0967 -0.3051,0.14113 -0.1002,0.0444 -0.19699,0.0861 -0.28647,0.12339 -0.0895,0.0373 -0.17165,0.0698 -0.24088,0.0972 -0.13842,0.0549 -0.22647,0.0879 -0.22647,0.0879 l 0.45129,0.13015 4.54911,-2.45416 z"
       style="fill:#42210b;stroke-width:0.386891"
       id="path18" />
    <path
       d="m 928.24455,588.25158 c 0,0 -0.21548,0.0942 -0.48595,0.21635 -0.13522,0.0611 -0.28367,0.12961 -0.42676,0.19606 -0.14309,0.0664 -0.28021,0.13093 -0.39128,0.18592 -0.061,0.0303 -0.1241,0.0604 -0.18762,0.0896 -0.0635,0.0291 -0.12738,0.0572 -0.19267,0.0853 -0.0653,0.0281 -0.13132,0.0558 -0.19774,0.0829 -0.0664,0.027 -0.13344,0.0535 -0.20029,0.0794 -0.13374,0.0519 -0.26831,0.10181 -0.39976,0.14957 -0.13141,0.0478 -0.26,0.094 -0.38366,0.13776 -0.12362,0.0438 -0.24196,0.0851 -0.35238,0.12507 -0.11043,0.04 -0.21254,0.0786 -0.30427,0.11494 -0.0459,0.0181 -0.0891,0.0351 -0.12929,0.0524 -0.0402,0.0173 -0.0778,0.0343 -0.11155,0.0507 -0.0338,0.0164 -0.0637,0.0327 -0.0904,0.0481 -0.0268,0.0156 -0.0503,0.0301 -0.0693,0.0448 -0.0277,0.0214 -0.0587,0.0434 -0.0938,0.0651 -0.0351,0.0217 -0.0743,0.0434 -0.11579,0.0651 -0.0415,0.0217 -0.0861,0.0436 -0.13265,0.065 -0.0467,0.0216 -0.0949,0.0422 -0.14539,0.0634 -0.0504,0.0211 -0.10324,0.0428 -0.15633,0.0634 -0.0531,0.0205 -0.10692,0.0402 -0.16144,0.06 -0.10894,0.0395 -0.21911,0.0773 -0.3262,0.1124 -0.10704,0.0351 -0.21072,0.0675 -0.30591,0.0963 -0.0952,0.0289 -0.18263,0.0543 -0.25606,0.0752 -0.14681,0.0419 -0.24001,0.0659 -0.24001,0.0659 l 0.42507,0.17071 4.93368,-2.02315 z"
       style="fill:#42210b;stroke-width:0.386891"
       id="path19" />
    <path
       d="m 903.55092,584.01345 c -0.18762,0.003 -0.41438,0.004 -0.67692,0.009 -0.26253,0.005 -0.56084,0.0144 -0.89072,0.0346 -0.16495,0.0101 -0.33769,0.023 -0.51805,0.0397 -0.18035,0.0167 -0.36801,0.0366 -0.56283,0.0617 -0.19482,0.0251 -0.39673,0.0552 -0.60508,0.0904 -0.20835,0.0352 -0.42304,0.0761 -0.64396,0.12338 -0.22093,0.0473 -0.44859,0.10041 -0.68115,0.16141 -0.23256,0.061 -0.47001,0.12963 -0.71325,0.20621 -0.24326,0.0766 -0.49239,0.16126 -0.74538,0.25521 -0.25298,0.094 -0.50979,0.19703 -0.77157,0.31016 -0.26178,0.11312 -0.52814,0.23605 -0.79776,0.37015 -0.26963,0.1341 -0.54322,0.27919 -0.81974,0.43606 -0.27653,0.15687 -0.55586,0.32562 -0.83833,0.50706 -0.28249,0.18144 -0.56775,0.37614 -0.85525,0.58396 -0.088,0.19884 -0.17116,0.39888 -0.2493,0.60086 -0.0781,0.20198 -0.15093,0.40562 -0.21888,0.61015 -0.0679,0.20454 -0.13103,0.4104 -0.18845,0.61693 -0.0574,0.20652 -0.10975,0.41404 -0.15634,0.62198 -0.0466,0.20794 -0.0871,0.41574 -0.12255,0.62453 -0.0354,0.20879 -0.0657,0.41798 -0.0896,0.62705 -0.0239,0.20908 -0.0419,0.41828 -0.0541,0.62706 -0.0121,0.20879 -0.0186,0.41744 -0.0186,0.62537 0,0.18919 0.005,0.37769 0.0152,0.56452 0.01,0.18683 0.0249,0.37183 0.0448,0.55607 0.0199,0.18426 0.045,0.36703 0.0743,0.54847 0.0294,0.18144 0.0635,0.36162 0.10226,0.54001 0.0388,0.1784 0.0823,0.35559 0.13013,0.53072 0.0479,0.17512 0.10052,0.34812 0.1572,0.51974 0.0566,0.17162 0.11726,0.34169 0.18254,0.50958 0.0653,0.1679 0.13511,0.33384 0.20874,0.49777 0.0737,0.16392 0.15151,0.32619 0.23324,0.48592 0.0817,0.15975 0.16732,0.31709 0.25691,0.47241 0.0896,0.15532 0.18251,0.30821 0.27973,0.45888 0.0972,0.15068 0.1988,0.29873 0.30338,0.44452 0.10458,0.14579 0.2128,0.28947 0.32452,0.43016 0.11171,0.14068 0.2262,0.27875 0.34479,0.4141 0.11861,0.13533 0.24069,0.26741 0.36593,0.39718 0.12524,0.12978 0.25372,0.25716 0.38537,0.38114 0.13164,0.12398 0.26699,0.2446 0.4048,0.36255 0.13779,0.11795 0.27798,0.2331 0.42169,0.34479 0.14372,0.1117 0.29091,0.22016 0.4403,0.32537 0.14937,0.10521 0.30155,0.20742 0.45635,0.30592 0.1548,0.0985 0.31157,0.19324 0.47156,0.28479 0.15998,0.0916 0.3227,0.18015 0.48762,0.26452 0.16492,0.0844 0.33237,0.16473 0.50199,0.24169 0.16961,0.077 0.34143,0.1504 0.5155,0.21973 0.17407,0.0694 0.35076,0.13459 0.52903,0.19606 0.17826,0.0615 0.35863,0.11902 0.54086,0.1724 0.18223,0.0534 0.3659,0.10283 0.55184,0.14789 0.18595,0.045 0.37341,0.086 0.56284,0.12254 0.18942,0.0365 0.38116,0.0686 0.57381,0.0963 0.19265,0.0278 0.38664,0.0506 0.58227,0.0693 0.19564,0.0187 0.39234,0.0328 0.59072,0.0423 0.19838,0.009 0.39829,0.0143 0.59917,0.0143 0.20088,0 0.40079,-0.005 0.59917,-0.0143 0.19838,-0.009 0.39509,-0.0236 0.59072,-0.0423 0.19564,-0.0186 0.39047,-0.0416 0.58312,-0.0693 0.19265,-0.0278 0.38354,-0.0598 0.57297,-0.0963 0.18942,-0.0365 0.37688,-0.0775 0.56283,-0.12254 0.18595,-0.045 0.37047,-0.0945 0.55269,-0.14789 0.18223,-0.0534 0.36259,-0.11092 0.54086,-0.1724 0.17827,-0.0614 0.35412,-0.12672 0.52818,-0.19606 0.17407,-0.0693 0.34589,-0.14275 0.51551,-0.21973 0.16962,-0.077 0.33706,-0.15732 0.50198,-0.24169 0.16493,-0.0844 0.32764,-0.17296 0.48762,-0.26452 0.15999,-0.0915 0.31761,-0.1863 0.47241,-0.28479 0.1548,-0.0985 0.30697,-0.20071 0.45636,-0.30592 0.14937,-0.10521 0.29573,-0.21367 0.43944,-0.32537 0.14372,-0.11169 0.28474,-0.22684 0.42255,-0.34479 0.1378,-0.11795 0.2723,-0.23857 0.40395,-0.36255 0.13165,-0.12398 0.26012,-0.25136 0.38537,-0.38114 0.12522,-0.12977 0.24732,-0.26185 0.36593,-0.39718 0.11859,-0.13535 0.2339,-0.27342 0.34563,-0.4141 0.11172,-0.14069 0.21993,-0.28437 0.32451,-0.43016 0.10458,-0.14579 0.20535,-0.29384 0.30253,-0.44452 0.0972,-0.15067 0.191,-0.30356 0.2806,-0.45888 0.0896,-0.15532 0.17516,-0.31266 0.25689,-0.47241 0.0817,-0.15973 0.15962,-0.322 0.23326,-0.48592 0.0736,-0.16393 0.14262,-0.32987 0.20786,-0.49777 0.0653,-0.16789 0.12674,-0.33796 0.18342,-0.50958 0.0566,-0.17162 0.10848,-0.34462 0.15633,-0.51974 0.0479,-0.17513 0.0914,-0.35232 0.13015,-0.53072 0.0389,-0.17839 0.0728,-0.35857 0.10224,-0.54001 0.0294,-0.18144 0.0545,-0.36421 0.0743,-0.54847 0.0199,-0.18424 0.0346,-0.36924 0.0448,-0.55607 0.01,-0.18683 0.0151,-0.37533 0.0151,-0.56452 0,-0.1848 -0.005,-0.36972 -0.0143,-0.55523 -0.01,-0.1855 -0.0242,-0.37195 -0.0432,-0.55775 -0.0191,-0.18581 -0.0428,-0.37121 -0.071,-0.55692 -0.0281,-0.18571 -0.0602,-0.37171 -0.0972,-0.55692 -0.0372,-0.18521 -0.0785,-0.37006 -0.12423,-0.55438 -0.0457,-0.18431 -0.0962,-0.36799 -0.1504,-0.551 -0.0541,-0.18302 -0.11254,-0.36545 -0.17494,-0.54678 -0.0624,-0.18132 -0.1282,-0.36163 -0.1986,-0.54086 -0.0703,-0.0878 -0.14552,-0.17352 -0.22478,-0.25775 -0.0793,-0.0842 -0.16334,-0.16688 -0.251,-0.24761 -0.0877,-0.0807 -0.17922,-0.15935 -0.27467,-0.23663 -0.0954,-0.0773 -0.19402,-0.15261 -0.29661,-0.22648 -0.10263,-0.0739 -0.20942,-0.14668 -0.31863,-0.21719 -0.10917,-0.0705 -0.22115,-0.13901 -0.33633,-0.2062 -0.11518,-0.0672 -0.23352,-0.13298 -0.35411,-0.19691 -0.12055,-0.0639 -0.2431,-0.12604 -0.36844,-0.18676 -0.25069,-0.12145 -0.51041,-0.23678 -0.77664,-0.34565 -0.26624,-0.10887 -0.53936,-0.21093 -0.81636,-0.30761 -0.277,-0.0967 -0.55791,-0.18809 -0.84087,-0.27297 -0.28296,-0.0849 -0.56771,-0.164 -0.85185,-0.23747 -0.28415,-0.0735 -0.56794,-0.14123 -0.84848,-0.20366 -0.28053,-0.0625 -0.55774,-0.11893 -0.82988,-0.17071 -0.27214,-0.0518 -0.53881,-0.0988 -0.79777,-0.14029 -0.25895,-0.0415 -0.51031,-0.0782 -0.75129,-0.10987 -0.24096,-0.0316 -0.47138,-0.0581 -0.68959,-0.0803 -0.21821,-0.0222 -0.42457,-0.0394 -0.61523,-0.0524 -0.19065,-0.0131 -0.36564,-0.0219 -0.52395,-0.0262 -0.15832,-0.004 -0.29967,-0.004 -0.42085,0 z"
       style="fill:#262100;stroke:#000000;stroke-width:0"
       id="path20" />
    <path
       d="m 904.11544,572.73145 c -0.36423,-0.009 -0.72938,-0.005 -1.09608,0.0119 -0.3667,0.0169 -0.73494,0.047 -1.10369,0.0913 -0.57979,0.0696 -1.13865,0.1484 -1.67835,0.23578 -0.53971,0.0874 -1.06,0.18334 -1.56174,0.28733 -0.50174,0.10399 -0.98514,0.2161 -1.45102,0.3355 -0.46587,0.11942 -0.91411,0.24583 -1.34624,0.37945 -0.43212,0.13363 -0.84856,0.27422 -1.24904,0.42085 -0.40048,0.14665 -0.78514,0.29959 -1.15609,0.45805 -0.74189,0.31692 -1.4273,0.65625 -2.06372,1.01326 -0.63641,0.35701 -1.22434,0.73139 -1.77215,1.11891 -0.54782,0.38752 -1.05521,0.78821 -1.53131,1.19665 -0.47611,0.40844 -0.92075,0.82505 -1.34201,1.24482 -0.42126,0.41978 -0.81926,0.84273 -1.20257,1.26426 l -8.6e-4,8.6e-4 c -0.24659,0.27264 -0.49983,0.58742 -0.75636,0.93383 -0.25653,0.34641 -0.51627,0.72449 -0.77665,1.12482 -0.52074,0.80066 -1.0428,1.68955 -1.54229,2.58683 -0.49948,0.89727 -0.97686,1.80241 -1.40623,2.63753 -0.42937,0.83512 -0.81105,1.59994 -1.12144,2.21414 a 0.51922502,0.51922502 0 0 0 -0.0304,0.39636 0.51922502,0.51922502 0 0 0 0.25944,0.30169 0.51922502,0.51922502 0 0 0 0.39636,0.0304 0.51922502,0.51922502 0 0 0 0.3017,-0.25945 c 0.31116,-0.61574 0.69924,-1.38396 1.13326,-2.21921 0.43403,-0.83524 0.91377,-1.73786 1.40877,-2.62317 0.495,-0.8853 1.00511,-1.75329 1.4992,-2.51922 0.24704,-0.38296 0.48987,-0.74009 0.72508,-1.06144 0.23522,-0.32134 0.46297,-0.60654 0.67862,-0.84509 0.37584,-0.41333 0.76125,-0.82528 1.16623,-1.23215 0.40497,-0.40686 0.82918,-0.80853 1.282,-1.20087 0.45282,-0.39233 0.93418,-0.77535 1.45356,-1.1451 0.51938,-0.36975 1.07708,-0.72656 1.68173,-1.06566 0.60465,-0.33911 1.25705,-0.66048 1.96569,-0.96088 0.70863,-0.30039 1.47322,-0.57962 2.30457,-0.83326 0.83134,-0.25363 1.729,-0.48232 2.70175,-0.68114 0.97277,-0.19882 2.021,-0.36774 3.15389,-0.50368 0.343,-0.0412 0.68615,-0.069 1.02848,-0.0845 0.34233,-0.0155 0.68383,-0.0191 1.0251,-0.0101 0.34127,0.009 0.6819,0.0297 1.02172,0.0617 0.33981,0.032 0.67868,0.0755 1.01665,0.1293 0.67592,0.10756 1.34768,0.2576 2.01385,0.44452 0.66617,0.18692 1.3268,0.4109 1.98005,0.66678 0.65325,0.25588 1.29892,0.54331 1.93611,0.85776 0.63718,0.31446 1.26575,0.6557 1.88371,1.01834 0.61796,0.36264 1.22559,0.74721 1.82118,1.14764 0.5956,0.40042 1.17929,0.81699 1.74932,1.24482 0.57006,0.42783 1.12633,0.86576 1.66653,1.30905 0.54022,0.44328 1.06442,0.8915 1.57187,1.33947 1.015,0.89596 1.96194,1.79076 2.82852,2.64092 1.73326,1.70032 3.1463,3.22317 4.14688,4.22377 a 0.51922502,0.51922502 0 0 0 0.36679,0.15212 0.51922502,0.51922502 0 0 0 0.36761,-0.15212 0.51922502,0.51922502 0 0 0 0.11241,-0.16817 0.51922502,0.51922502 0 0 0 0.0389,-0.19861 0.51922502,0.51922502 0 0 0 -0.0389,-0.19858 0.51922502,0.51922502 0 0 0 -0.11241,-0.16818 c -0.48655,-0.48655 -1.08336,-1.1118 -1.77808,-1.83047 -0.69469,-0.71868 -1.48719,-1.53077 -2.36456,-2.39162 -0.87735,-0.86084 -1.83961,-1.77012 -2.87416,-2.68316 -0.51728,-0.45652 -1.05303,-0.91382 -1.60484,-1.36652 -0.55181,-0.4527 -1.11976,-0.90099 -1.70284,-1.33862 -0.51027,-0.38294 -1.03214,-0.75887 -1.56512,-1.12313 -0.53303,-0.36427 -1.07722,-0.71686 -1.63106,-1.05468 -0.55379,-0.33781 -1.1175,-0.66067 -1.69016,-0.96425 -0.57267,-0.30358 -1.15473,-0.58775 -1.74428,-0.84932 -0.58955,-0.26157 -1.18628,-0.50064 -1.79075,-0.71241 -0.60447,-0.21178 -1.21644,-0.39681 -1.83385,-0.551 -0.61742,-0.1542 -1.24095,-0.2771 -1.86935,-0.36593 -0.62839,-0.0888 -1.26151,-0.14319 -1.89893,-0.15887 z"
       style="fill:#262100;stroke-width:0.432688;stroke-linecap:round;stroke-miterlimit:10"
       id="path30" />
    <path
       d="m 906.04987,593.71595 a 2.1634376,2.1634376 0 0 0 -0.30846,0.022 2.1634376,2.1634376 0 0 0 -0.30086,0.0659 2.1634376,2.1634376 0 0 0 -0.28987,0.10732 2.1634376,2.1634376 0 0 0 -0.27043,0.14789 2.1634376,2.1634376 0 0 0 -0.24761,0.18508 2.1634376,2.1634376 0 0 0 -0.21803,0.21803 2.1634376,2.1634376 0 0 0 -0.18508,0.24762 2.1634376,2.1634376 0 0 0 -0.14789,0.27042 2.1634376,2.1634376 0 0 0 -0.10817,0.28987 2.1634376,2.1634376 0 0 0 -0.0651,0.3017 2.1634376,2.1634376 0 0 0 -0.022,0.30761 2.1634376,2.1634376 0 0 0 0.022,0.30762 2.1634376,2.1634376 0 0 0 0.0651,0.3017 2.1634376,2.1634376 0 0 0 0.10817,0.28902 2.1634376,2.1634376 0 0 0 0.14789,0.27127 2.1634376,2.1634376 0 0 0 0.18508,0.24676 2.1634376,2.1634376 0 0 0 0.21803,0.21888 2.1634376,2.1634376 0 0 0 0.24761,0.18424 2.1634376,2.1634376 0 0 0 0.27043,0.14874 2.1634376,2.1634376 0 0 0 0.28987,0.10732 2.1634376,2.1634376 0 0 0 0.30086,0.0659 2.1634376,2.1634376 0 0 0 0.30846,0.022 2.1634376,2.1634376 0 0 0 0.3076,-0.022 2.1634376,2.1634376 0 0 0 0.30171,-0.0659 2.1634376,2.1634376 0 0 0 0.28902,-0.10732 2.1634376,2.1634376 0 0 0 0.27127,-0.14874 2.1634376,2.1634376 0 0 0 0.24677,-0.18424 2.1634376,2.1634376 0 0 0 0.21887,-0.21888 2.1634376,2.1634376 0 0 0 0.18423,-0.24676 2.1634376,2.1634376 0 0 0 0.1479,-0.27127 2.1634376,2.1634376 0 0 0 0.10817,-0.28902 2.1634376,2.1634376 0 0 0 0.0659,-0.3017 2.1634376,2.1634376 0 0 0 0.022,-0.30762 2.1634376,2.1634376 0 0 0 -0.003,-0.10648 2.1634376,2.1634376 0 0 0 -0.009,-0.10564 2.1634376,2.1634376 0 0 0 -0.0127,-0.10563 2.1634376,2.1634376 0 0 0 -0.0177,-0.1048 2.1634376,2.1634376 0 0 0 -0.0236,-0.10309 2.1634376,2.1634376 0 0 0 -0.0279,-0.10226 2.1634376,2.1634376 0 0 0 -0.0338,-0.10141 2.1634376,2.1634376 0 0 0 -0.0381,-0.0989 2.1634376,2.1634376 0 0 0 -0.0431,-0.0972 2.1634376,2.1634376 0 0 0 -0.0474,-0.0947 2.1634376,2.1634376 0 0 0 -0.0524,-0.0921 2.1634376,2.1634376 0 0 0 -0.0575,-0.0896 2.1634376,2.1634376 0 0 0 -0.0608,-0.087 2.1634376,2.1634376 0 0 0 -0.0651,-0.0837 2.1634376,2.1634376 0 0 0 -0.0693,-0.0803 2.1634376,2.1634376 0 0 0 -0.0736,-0.0769 2.1634376,2.1634376 0 0 0 -0.0769,-0.0736 2.1634376,2.1634376 0 0 0 -0.0803,-0.0693 2.1634376,2.1634376 0 0 0 -0.0837,-0.065 2.1634376,2.1634376 0 0 0 -0.087,-0.0617 2.1634376,2.1634376 0 0 0 -0.0896,-0.0566 2.1634376,2.1634376 0 0 0 -0.0921,-0.0524 2.1634376,2.1634376 0 0 0 -0.0955,-0.0474 2.1634376,2.1634376 0 0 0 -0.0972,-0.0431 2.1634376,2.1634376 0 0 0 -0.0989,-0.0388 2.1634376,2.1634376 0 0 0 -0.10057,-0.033 2.1634376,2.1634376 0 0 0 -0.10225,-0.0279 2.1634376,2.1634376 0 0 0 -0.10394,-0.0236 2.1634376,2.1634376 0 0 0 -0.10479,-0.0177 2.1634376,2.1634376 0 0 0 -0.1048,-0.0135 2.1634376,2.1634376 0 0 0 -0.10648,-0.008 2.1634376,2.1634376 0 0 0 -0.10563,-0.003 z"
       style="fill:#ffffff;stroke-width:0.432688"
       id="path21" />
    <path
       d="m 903.44191,582.4196 c -0.45331,0.0125 -0.91244,0.0449 -1.38004,0.0972 -0.4676,0.0523 -0.94344,0.12433 -1.43159,0.21719 -0.48814,0.0929 -0.98847,0.20646 -1.50341,0.34057 -0.51495,0.13412 -1.04416,0.28876 -1.59216,0.46481 -0.548,0.17604 -1.1147,0.37375 -1.70202,0.5924 -0.58731,0.21867 -1.19589,0.45808 -1.82878,0.72003 -0.63289,0.26194 -1.29027,0.54594 -1.97498,0.85185 -0.25961,0.0998 -0.51045,0.20337 -0.75382,0.3093 -0.24338,0.10594 -0.4791,0.21471 -0.70734,0.32621 -0.45649,0.22299 -0.88371,0.45605 -1.28624,0.69804 -0.40252,0.242 -0.78012,0.49296 -1.13749,0.7496 -0.35738,0.25664 -0.69478,0.51899 -1.01581,0.78594 -0.32102,0.26695 -0.62599,0.53836 -0.91945,0.81129 -0.29348,0.27292 -0.57546,0.54771 -0.85017,0.82227 -0.54942,0.54913 -1.07006,1.09718 -1.59723,1.62681 -0.26357,0.26481 -0.52824,0.5249 -0.79946,0.77833 -0.2712,0.25342 -0.54899,0.50006 -0.83663,0.73776 -0.28764,0.23771 -0.58546,0.46605 -0.89834,0.68368 -0.31287,0.21764 -0.64017,0.42454 -0.98706,0.61777 -0.3469,0.19323 -0.71313,0.37299 -1.10285,0.53747 -0.19486,0.0823 -0.39619,0.1607 -0.6034,0.23494 -0.20721,0.0743 -0.42076,0.14473 -0.64143,0.21043 -0.22065,0.0657 -0.44761,0.12677 -0.68283,0.18338 -0.23521,0.0566 -0.47844,0.10851 -0.72931,0.1555 -0.25088,0.047 -0.50986,0.0891 -0.77749,0.12592 -0.26762,0.0368 -0.54356,0.0685 -0.82904,0.0947 -0.47292,0.0433 -1.9263,0.11712 -3.26205,0.22226 -0.66788,0.0526 -1.30596,0.11256 -1.77808,0.18085 -0.23606,0.0341 -0.43052,0.0709 -0.56621,0.10902 -0.0678,0.0191 -0.12171,0.0382 -0.15803,0.0584 -0.0364,0.02 -0.0553,0.0406 -0.0558,0.0617 -8.6e-4,0.0272 0.0176,0.0545 0.0533,0.082 0.0357,0.0275 0.0883,0.0553 0.15634,0.0828 0.13622,0.0551 0.33354,0.10962 0.57637,0.16396 0.24281,0.0543 0.53169,0.10826 0.85015,0.16056 0.31847,0.0523 0.667,0.10314 1.03017,0.15212 0.72635,0.0979 1.51076,0.18771 2.2302,0.26451 0.71944,0.0768 1.374,0.14067 1.83892,0.18593 0.23236,0.0225 1.53101,0.14927 1.99442,0.1724 0.16201,0.008 0.32341,0.008 0.48339,8.6e-4 0.15999,-0.007 0.31844,-0.0222 0.47663,-0.0439 0.15821,-0.0218 0.31575,-0.0506 0.47241,-0.0862 0.15666,-0.0356 0.31282,-0.0782 0.46818,-0.12677 0.15536,-0.0486 0.31051,-0.10315 0.46481,-0.16395 0.15429,-0.0608 0.30794,-0.12722 0.46141,-0.19944 0.30695,-0.14445 0.61269,-0.31153 0.91778,-0.49692 0.30509,-0.18539 0.60925,-0.3893 0.91439,-0.60931 0.30515,-0.22 0.61065,-0.45566 0.91776,-0.70396 0.30713,-0.24831 0.61608,-0.50974 0.92708,-0.78002 0.31099,-0.27028 0.62464,-0.54986 0.94143,-0.8358 0.63359,-0.57187 1.28052,-1.16882 1.94879,-1.7654 0.33413,-0.29829 0.67351,-0.59574 1.01918,-0.89073 0.34566,-0.29498 0.69724,-0.58677 1.05636,-0.87214 0.35912,-0.28536 0.72583,-0.56469 1.10031,-0.8341 0.37449,-0.26942 0.75672,-0.52949 1.14849,-0.77664 0.39176,-0.24715 0.79245,-0.48117 1.20341,-0.69974 0.41096,-0.21856 0.83219,-0.42142 1.26425,-0.60508 0.45433,-0.19306 0.9011,-0.36809 1.34032,-0.52565 0.43922,-0.15755 0.87096,-0.29762 1.29468,-0.42254 0.42373,-0.12492 0.83952,-0.23444 1.24736,-0.32959 0.40785,-0.0952 0.80763,-0.17598 1.19919,-0.24423 0.39156,-0.0682 0.77528,-0.12394 1.15017,-0.16817 0.37489,-0.0443 0.74079,-0.0775 1.09862,-0.10057 0.35782,-0.023 0.70755,-0.0358 1.04792,-0.0406 0.34036,-0.005 0.67215,-0.002 0.99467,0.009 0.32251,0.0106 0.63547,0.0284 0.93975,0.0516 0.30426,0.0232 0.59917,0.0516 0.8848,0.0845 0.57127,0.0657 1.10541,0.14855 1.59976,0.23578 0.98873,0.17447 1.82066,0.36905 2.48289,0.49184 0.27473,0.0511 0.53667,0.10928 0.78932,0.17578 0.25264,0.0665 0.49567,0.141 0.731,0.22227 0.23533,0.0812 0.46343,0.16994 0.68621,0.26535 0.22278,0.0954 0.43995,0.19784 0.65496,0.30677 0.21499,0.10893 0.42774,0.22381 0.63974,0.34564 0.21198,0.12184 0.42347,0.25041 0.63717,0.38452 0.4275,0.26822 0.86287,0.56024 1.32598,0.87382 0.4631,0.31359 0.95385,0.64831 1.49073,1.00229 0.53684,0.35397 1.12002,0.72698 1.76878,1.11637 0.32439,0.19469 0.66561,0.39402 1.02509,0.59662 0.35952,0.20261 0.73726,0.40871 1.13667,0.61861 0.39937,0.20991 0.8202,0.42317 1.26427,0.63974 0.44402,0.21658 0.91106,0.43655 1.4045,0.65918 0.63696,0.28735 1.24726,0.55131 1.83048,0.79354 0.58326,0.24223 1.14,0.46271 1.67161,0.6634 0.53159,0.20067 1.03741,0.38153 1.51947,0.54423 0.4821,0.1627 0.94031,0.30694 1.37495,0.43523 0.43467,0.12829 0.84624,0.24058 1.23553,0.33803 0.38933,0.0975 0.75599,0.17996 1.10202,0.25015 0.34602,0.0702 0.67122,0.12759 0.9761,0.17409 0.30487,0.0465 0.58945,0.0827 0.8552,0.10902 0.2658,0.0264 0.51321,0.0434 0.74202,0.0532 0.22876,0.01 0.43909,0.0125 0.63293,0.009 0.38782,-0.006 0.70779,-0.0351 0.96849,-0.0719 0.2607,-0.0368 0.46237,-0.0814 0.61273,-0.11999 0.15032,-0.0387 0.24922,-0.0717 0.30591,-0.0837 0.0594,-0.0125 0.10553,-0.0276 0.13945,-0.0456 0.0338,-0.0181 0.056,-0.039 0.0693,-0.0617 0.0134,-0.0227 0.0177,-0.0472 0.0151,-0.0736 -0.004,-0.0263 -0.0113,-0.0547 -0.0247,-0.0837 -0.0264,-0.0578 -0.0693,-0.11931 -0.109,-0.1817 -0.0398,-0.0624 -0.0759,-0.1253 -0.0896,-0.18423 -0.007,-0.0304 -0.0247,-0.0576 -0.0507,-0.082 -0.0264,-0.0244 -0.061,-0.0457 -0.1048,-0.0651 -0.0875,-0.0387 -0.20929,-0.0682 -0.35744,-0.0921 -0.29631,-0.0478 -0.70044,-0.0737 -1.16203,-0.10733 -0.23075,-0.0168 -0.47565,-0.0356 -0.72847,-0.06 -0.25282,-0.0244 -0.51378,-0.0543 -0.77577,-0.0938 -0.26203,-0.0395 -0.52506,-0.0884 -0.78342,-0.15042 -0.25831,-0.062 -0.512,-0.13704 -0.75383,-0.22902 -0.91103,-0.34625 -1.4521,-0.53589 -1.83892,-0.67101 -0.38678,-0.13511 -0.61927,-0.21604 -0.91353,-0.34395 -0.29427,-0.1279 -0.65034,-0.3033 -1.2837,-0.62791 -0.63337,-0.3246 -1.54435,-0.79849 -2.94851,-1.5237 -0.33758,-0.17432 -0.68364,-0.37361 -1.03611,-0.59156 -0.35247,-0.21796 -0.71082,-0.45475 -1.07242,-0.70312 -0.72315,-0.49673 -1.45897,-1.0412 -2.18373,-1.58032 -0.72475,-0.53913 -1.43877,-1.07238 -2.11865,-1.54821 -0.33992,-0.23792 -0.67127,-0.46197 -0.99129,-0.66425 -0.32002,-0.20226 -0.62857,-0.3832 -0.92284,-0.53663 -0.60623,-0.31604 -1.19019,-0.61522 -1.75442,-0.89749 -0.56422,-0.28227 -1.10845,-0.54742 -1.63694,-0.79523 -0.52844,-0.24782 -1.04078,-0.47861 -1.53975,-0.69129 -0.49896,-0.21267 -0.9846,-0.40709 -1.46031,-0.58396 -0.47572,-0.17686 -0.94161,-0.33542 -1.40033,-0.47578 -0.45871,-0.14037 -0.91008,-0.26273 -1.35806,-0.36593 -0.44799,-0.10319 -0.89259,-0.18733 -1.33609,-0.25267 -0.4435,-0.0653 -0.88659,-0.11179 -1.33187,-0.13861 -0.44527,-0.0268 -0.89292,-0.0344 -1.34624,-0.022 z"
       style="fill:#262100;stroke-width:0.432688"
       id="path22" />
    <path
       d="m 1026.566,584.39965 c 0,0 -0.032,0.0288 -0.087,0.0761 -0.055,0.0473 -0.133,0.11256 -0.2239,0.18761 -0.091,0.075 -0.1953,0.15914 -0.3026,0.24254 -0.053,0.0417 -0.1081,0.0832 -0.1623,0.12338 -0.054,0.0401 -0.1076,0.0796 -0.1597,0.11578 -0.058,0.0398 -0.1187,0.0808 -0.1833,0.12338 -0.064,0.0426 -0.1331,0.0869 -0.2037,0.13183 -0.1414,0.0899 -0.2928,0.18392 -0.4504,0.27974 -0.1577,0.0958 -0.3209,0.19348 -0.4843,0.2907 -0.1635,0.0972 -0.3273,0.19403 -0.486,0.28818 -0.1587,0.0942 -0.3127,0.18552 -0.4563,0.27212 -0.1435,0.0866 -0.2767,0.16799 -0.3947,0.24254 -0.059,0.0373 -0.1142,0.073 -0.1648,0.10649 -0.051,0.0334 -0.096,0.0648 -0.1369,0.0938 -0.04,0.029 -0.077,0.0554 -0.1065,0.0794 -0.03,0.0241 -0.054,0.0457 -0.072,0.0642 -0.013,0.0135 -0.026,0.0261 -0.039,0.0389 -0.014,0.0128 -0.029,0.0251 -0.044,0.0372 -0.015,0.012 -0.03,0.0242 -0.046,0.0355 -0.016,0.0114 -0.032,0.0222 -0.049,0.033 -0.034,0.0216 -0.07,0.0418 -0.1065,0.0609 -0.037,0.0191 -0.075,0.0373 -0.1133,0.054 -0.039,0.0168 -0.079,0.0319 -0.1191,0.0465 -0.04,0.0145 -0.08,0.028 -0.1208,0.0406 -0.04,0.0125 -0.082,0.024 -0.1218,0.0346 -0.04,0.0106 -0.08,0.0207 -0.1191,0.0296 -0.039,0.009 -0.078,0.0173 -0.115,0.0245 -0.037,0.007 -0.073,0.0137 -0.1073,0.0194 -0.069,0.0115 -0.1303,0.0197 -0.1825,0.0262 -0.052,0.007 -0.095,0.0117 -0.1242,0.0144 -0.029,0.003 -0.046,0.003 -0.046,0.003 l 0.54,0.36762 4.3438,-2.63839 z"
       style="fill:#42210b;stroke-width:0.386891"
       id="path23" />
    <path
       d="m 1021.6113,579.82939 c 0,0 -0.034,0.0429 -0.089,0.11662 -0.055,0.0737 -0.1314,0.17772 -0.2181,0.29917 -0.043,0.0608 -0.089,0.12576 -0.136,0.19352 -0.046,0.0677 -0.095,0.13889 -0.142,0.21043 -0.047,0.0715 -0.094,0.14429 -0.1395,0.21634 -0.045,0.072 -0.089,0.14281 -0.1284,0.21212 -0.029,0.0508 -0.059,0.10195 -0.09,0.15212 -0.031,0.0502 -0.062,0.10003 -0.094,0.14958 -0.064,0.0991 -0.1297,0.19685 -0.1977,0.29325 -0.068,0.0964 -0.1375,0.19136 -0.2088,0.28479 -0.071,0.0934 -0.1438,0.18529 -0.2171,0.2755 -0.073,0.0902 -0.1479,0.17862 -0.2223,0.26536 -0.075,0.0867 -0.1488,0.17137 -0.2232,0.25437 -0.074,0.083 -0.1474,0.1644 -0.2205,0.24339 -0.073,0.079 -0.1456,0.15598 -0.2163,0.23071 -0.1415,0.14947 -0.2774,0.29001 -0.4031,0.42086 -0.1258,0.13084 -0.2412,0.25157 -0.3423,0.3617 -0.051,0.0551 -0.097,0.10769 -0.1403,0.15718 -0.043,0.0495 -0.082,0.0958 -0.1157,0.13945 -0.034,0.0437 -0.063,0.085 -0.086,0.12253 -0.012,0.0188 -0.023,0.036 -0.032,0.0533 -0.01,0.0172 -0.017,0.0343 -0.024,0.0498 -0.01,0.0227 -0.019,0.0449 -0.03,0.0676 -0.011,0.0227 -0.025,0.0458 -0.038,0.0685 -0.014,0.0227 -0.027,0.045 -0.043,0.0676 -0.015,0.0226 -0.031,0.0452 -0.048,0.0676 -0.034,0.0449 -0.071,0.0895 -0.1116,0.13353 -0.04,0.0441 -0.082,0.0873 -0.1267,0.13014 -0.045,0.0429 -0.09,0.0854 -0.1378,0.12677 -0.047,0.0413 -0.097,0.0815 -0.147,0.12085 -0.05,0.0394 -0.1,0.0778 -0.1505,0.11493 -0.051,0.0371 -0.1012,0.0729 -0.1512,0.10733 -0.05,0.0345 -0.099,0.0682 -0.1471,0.0997 -0.048,0.0315 -0.095,0.0607 -0.1402,0.0887 -0.09,0.0561 -0.1731,0.10501 -0.2434,0.14535 -0.071,0.0404 -0.1288,0.0722 -0.1691,0.0938 -0.04,0.0217 -0.063,0.0338 -0.063,0.0338 l 0.901,0.35494 4.0699,-5.26831 z"
       style="fill:#42210b;stroke-width:0.386891"
       id="path24" />
    <path
       d="m 1030.5523,588.36567 c 0,0 -0.038,0.0215 -0.1005,0.0591 -0.063,0.0377 -0.1505,0.0911 -0.2511,0.15381 -0.1004,0.0626 -0.2133,0.1346 -0.3261,0.20958 -0.057,0.0376 -0.1134,0.0759 -0.1682,0.11408 -0.055,0.0383 -0.108,0.0768 -0.158,0.1141 -0.073,0.0547 -0.1481,0.10747 -0.2249,0.15972 -0.076,0.0523 -0.1548,0.10394 -0.234,0.15381 -0.079,0.0498 -0.1593,0.0987 -0.24,0.1462 -0.081,0.0475 -0.162,0.0934 -0.2434,0.13859 -0.082,0.0451 -0.163,0.089 -0.2442,0.13184 -0.082,0.0428 -0.1625,0.0846 -0.2425,0.12507 -0.1601,0.081 -0.3166,0.15737 -0.4665,0.22902 -0.1502,0.0717 -0.2933,0.13869 -0.426,0.20113 -0.1327,0.0625 -0.2553,0.11993 -0.3634,0.17325 -0.054,0.0266 -0.1047,0.0525 -0.1513,0.0769 -0.046,0.0244 -0.089,0.0472 -0.1267,0.0693 -0.038,0.0222 -0.071,0.0435 -0.1006,0.0634 -0.015,0.01 -0.028,0.0193 -0.04,0.0287 -0.012,0.009 -0.023,0.0182 -0.032,0.0271 -0.014,0.0128 -0.028,0.0255 -0.043,0.038 -0.015,0.0125 -0.032,0.0251 -0.048,0.0372 -0.034,0.0243 -0.07,0.0481 -0.1081,0.071 -0.039,0.0229 -0.08,0.0445 -0.1225,0.0659 -0.043,0.0214 -0.087,0.0426 -0.1327,0.0626 -0.046,0.0199 -0.093,0.039 -0.1411,0.0575 -0.048,0.0184 -0.097,0.0355 -0.1462,0.0524 -0.049,0.0169 -0.098,0.0337 -0.147,0.049 -0.049,0.0154 -0.097,0.0293 -0.1446,0.0431 -0.095,0.0275 -0.1878,0.0525 -0.2721,0.0736 -0.084,0.021 -0.1609,0.0382 -0.2257,0.0524 -0.1295,0.0284 -0.2112,0.0431 -0.2112,0.0431 l 0.578,0.36676 4.5939,-2.67049 z"
       style="fill:#42210b;stroke-width:0.386891"
       id="path25" />
    <path
       d="m 1028.1294,586.73041 c 0,0 -0.034,0.0209 -0.09,0.0558 -0.057,0.0349 -0.1369,0.0839 -0.2282,0.14197 -0.091,0.0581 -0.1938,0.12493 -0.2965,0.19437 -0.052,0.0347 -0.1031,0.0703 -0.153,0.10564 -0.05,0.0353 -0.098,0.0703 -0.1437,0.10479 -0.066,0.0506 -0.1357,0.10035 -0.2054,0.14873 -0.07,0.0484 -0.1402,0.0958 -0.2121,0.14199 -0.072,0.0462 -0.1446,0.0912 -0.218,0.1352 -0.073,0.044 -0.1474,0.0866 -0.2214,0.12846 -0.074,0.0418 -0.1484,0.0828 -0.2222,0.12254 -0.074,0.0397 -0.147,0.0782 -0.2198,0.11578 -0.1456,0.0751 -0.2886,0.14645 -0.4251,0.21296 -0.1365,0.0665 -0.267,0.12881 -0.3879,0.18677 -0.1208,0.0579 -0.2318,0.11111 -0.3304,0.16056 -0.049,0.0247 -0.095,0.0484 -0.1378,0.071 -0.042,0.0226 -0.082,0.0446 -0.1166,0.0651 -0.035,0.0205 -0.065,0.0399 -0.091,0.0584 -0.014,0.009 -0.026,0.0184 -0.036,0.0271 -0.011,0.009 -0.021,0.0163 -0.029,0.0245 -0.012,0.0119 -0.025,0.024 -0.039,0.0355 -0.014,0.0115 -0.029,0.0226 -0.044,0.0338 -0.03,0.0224 -0.063,0.0448 -0.098,0.0659 -0.035,0.0211 -0.072,0.041 -0.1116,0.0608 -0.039,0.0199 -0.079,0.0398 -0.1208,0.0584 -0.042,0.0185 -0.085,0.0361 -0.1285,0.0533 -0.044,0.0172 -0.088,0.0333 -0.1326,0.049 -0.045,0.0157 -0.09,0.0313 -0.1344,0.0456 -0.045,0.0143 -0.088,0.0277 -0.1318,0.0406 -0.087,0.0258 -0.1707,0.0487 -0.2476,0.0684 -0.077,0.0197 -0.1472,0.0364 -0.2063,0.0498 -0.1181,0.0267 -0.1927,0.0406 -0.1927,0.0406 l 0.5325,0.3338 4.1764,-2.47612 z"
       style="fill:#42210b;stroke-width:0.386891"
       id="path26" />
    <path
       d="m 1017.9959,577.01185 c 0,0 -0.1062,0.19271 -0.2603,0.46565 -0.077,0.13646 -0.1661,0.29256 -0.2602,0.4555 -0.094,0.16294 -0.193,0.33281 -0.2898,0.49438 -0.053,0.0888 -0.1119,0.18211 -0.1742,0.27972 -0.062,0.0976 -0.1289,0.19943 -0.1986,0.30424 -0.07,0.1048 -0.1425,0.21244 -0.218,0.32282 -0.076,0.1104 -0.1534,0.22367 -0.2332,0.33804 -0.1599,0.22874 -0.3266,0.46386 -0.4945,0.6989 -0.1677,0.23502 -0.3368,0.46955 -0.5003,0.69804 -0.1633,0.22849 -0.3216,0.45091 -0.4681,0.66002 -0.1466,0.2091 -0.2816,0.40454 -0.3989,0.58142 -0.058,0.0884 -0.1124,0.17218 -0.1614,0.25015 -0.049,0.0779 -0.093,0.15043 -0.131,0.21634 -0.038,0.0659 -0.07,0.12524 -0.095,0.17748 -0.013,0.0261 -0.023,0.0503 -0.032,0.0727 -0.01,0.0224 -0.016,0.0432 -0.022,0.0617 -0.01,0.0269 -0.017,0.0538 -0.027,0.0803 -0.01,0.0266 -0.022,0.0525 -0.034,0.0786 -0.013,0.0261 -0.025,0.0521 -0.039,0.0778 -0.015,0.0257 -0.03,0.0509 -0.046,0.0761 -0.033,0.0504 -0.068,0.10035 -0.1065,0.14873 -0.039,0.0484 -0.081,0.0959 -0.125,0.14198 -0.044,0.0462 -0.09,0.0908 -0.1369,0.13437 -0.047,0.0436 -0.096,0.0859 -0.1463,0.12676 -0.05,0.0408 -0.1011,0.0804 -0.1521,0.11832 -0.051,0.0378 -0.1015,0.0736 -0.1521,0.10817 -0.051,0.0346 -0.1007,0.0677 -0.1496,0.0989 -0.049,0.0311 -0.097,0.0605 -0.1428,0.0879 -0.092,0.0548 -0.1765,0.10181 -0.2484,0.14028 -0.072,0.0385 -0.1312,0.0685 -0.1725,0.0887 -0.041,0.0202 -0.064,0.0304 -0.064,0.0304 l 1.146,0.30931 3.7251,-5.63424 z"
       style="fill:#42210b;stroke-width:0.386891"
       id="path27" />
    <path
       d="m 1013.5068,575.34195 c 0,0 -0.079,0.23235 -0.1961,0.55184 -0.058,0.15974 -0.1269,0.34102 -0.1995,0.52649 -0.036,0.0927 -0.074,0.18648 -0.1115,0.27888 -0.038,0.0924 -0.077,0.18372 -0.1141,0.27128 -0.042,0.0962 -0.087,0.19734 -0.1351,0.30254 -0.048,0.10521 -0.1,0.21457 -0.1539,0.32705 -0.1076,0.22498 -0.225,0.46242 -0.3473,0.7065 -0.2445,0.48816 -0.5088,1.00147 -0.7547,1.48568 -0.1229,0.2421 -0.2416,0.47701 -0.3507,0.69804 -0.055,0.11052 -0.107,0.21756 -0.1563,0.32029 -0.049,0.10273 -0.096,0.20082 -0.1386,0.29409 -0.043,0.0933 -0.083,0.18152 -0.1175,0.26367 -0.035,0.0822 -0.066,0.15798 -0.093,0.22734 -0.027,0.0693 -0.048,0.13189 -0.065,0.18676 -0.01,0.0274 -0.015,0.0534 -0.021,0.0769 -0.01,0.0235 -0.01,0.0449 -0.013,0.0642 0,0.0282 -0.01,0.0564 -0.016,0.0845 -0.01,0.0281 -0.015,0.0565 -0.025,0.0845 -0.01,0.028 -0.021,0.0558 -0.033,0.0837 -0.012,0.0279 -0.026,0.0552 -0.04,0.0828 -0.015,0.0277 -0.03,0.0554 -0.046,0.0829 -0.016,0.0274 -0.034,0.0548 -0.052,0.082 -0.037,0.0542 -0.077,0.10788 -0.1209,0.16056 -0.044,0.0527 -0.09,0.10482 -0.1385,0.1555 -0.048,0.0507 -0.099,0.0996 -0.1513,0.14789 -0.052,0.0483 -0.1051,0.0958 -0.1589,0.14113 -0.054,0.0454 -0.1082,0.0889 -0.1623,0.13099 -0.054,0.042 -0.1077,0.0825 -0.1606,0.12085 -0.052,0.0383 -0.1047,0.0749 -0.1546,0.10902 -0.1,0.0683 -0.1921,0.12759 -0.2713,0.17663 -0.079,0.0491 -0.1451,0.0878 -0.191,0.11408 -0.045,0.0263 -0.072,0.0406 -0.072,0.0406 l 1.2617,0.18001 2.8768,-6.05677 z"
       style="fill:#42210b;stroke-width:0.386891"
       id="path28" />
    <path
       d="m 1008.1954,574.34727 a 5.7293993,4.2709075 0 0 0 -0.1225,0.39973 5.7293993,4.2709075 0 0 0 -0.071,0.40649 5.7293993,4.2709075 0 0 0 -0.018,0.40987 c 0,0.10803 -0.01,0.22045 -0.013,0.33634 -0.01,0.1159 -0.015,0.23531 -0.025,0.35748 -0.01,0.12217 -0.021,0.24754 -0.034,0.37437 -0.013,0.12685 -0.027,0.25545 -0.042,0.38537 -0.031,0.25984 -0.064,0.52419 -0.1006,0.78678 -0.036,0.2626 -0.073,0.52322 -0.1082,0.77579 -0.035,0.25258 -0.071,0.497 -0.1,0.72678 -0.015,0.11489 -0.028,0.22617 -0.04,0.33297 -0.013,0.10681 -0.024,0.20965 -0.033,0.30677 -0.01,0.0971 -0.016,0.18882 -0.022,0.27466 -0.01,0.0858 -0.01,0.16535 -0.01,0.23832 0,0.073 0,0.13926 0.01,0.19774 0,0.0292 0.01,0.0566 0.01,0.082 0,0.0253 0.01,0.0481 0.014,0.0693 0.01,0.0309 0.014,0.0635 0.02,0.0963 0.01,0.0329 0.01,0.0668 0.015,0.10141 0,0.0346 0.01,0.0702 0.01,0.10648 0,0.0363 0,0.073 0,0.11071 0,0.0754 -4e-4,0.15338 -0.01,0.23324 -0.01,0.0798 -0.013,0.16139 -0.022,0.24424 -0.01,0.0828 -0.022,0.16668 -0.034,0.25099 -0.014,0.0843 -0.029,0.16927 -0.046,0.25353 -0.017,0.0842 -0.035,0.16831 -0.054,0.25099 -0.019,0.0827 -0.038,0.16381 -0.058,0.24339 -0.021,0.0796 -0.041,0.15744 -0.062,0.2324 -0.021,0.0749 -0.042,0.14668 -0.063,0.21549 -0.04,0.13764 -0.08,0.262 -0.1141,0.36593 -0.034,0.10393 -0.063,0.18787 -0.083,0.24593 -0.021,0.058 -0.033,0.0904 -0.033,0.0904 l 1.2913,0.087 0.041,-6.90863 z"
       style="fill:#42210b;stroke-width:0.386891"
       id="path29" />
    <path
       d="m 1024.6105,582.21509 a 3.0722526,2.2901713 0 0 0 -0.426,0.26451 3.0722526,2.2901713 0 0 0 -0.3558,0.31775 c -0.4592,0.46299 -1.1765,1.16181 -1.811,1.79583 -0.3172,0.31701 -0.6131,0.61793 -0.8467,0.86537 -0.1168,0.12372 -0.2184,0.23392 -0.2984,0.32621 -0.08,0.0923 -0.1382,0.16653 -0.1707,0.21803 -0.047,0.0749 -0.1102,0.14693 -0.1842,0.2155 -0.074,0.0686 -0.1588,0.13388 -0.2501,0.19521 -0.091,0.0614 -0.1888,0.11832 -0.2883,0.17156 -0.099,0.0533 -0.201,0.10274 -0.2991,0.14705 -0.1962,0.0886 -0.3801,0.15848 -0.5155,0.2062 -0.1354,0.0477 -0.2223,0.0727 -0.2223,0.0727 l 0.6981,0.39889 4.5922,-4.29561 z"
       style="fill:#42210b;stroke-width:0.386891"
       id="path40" />
    <path
       d="m 988.26221,583.52582 2.24793,2.35951 2.56992,1.71976 0.58559,-0.0498 c 0,0 -0.61842,-0.34436 -1.28195,-0.75213 -0.33177,-0.20388 -0.67488,-0.42356 -0.95752,-0.62367 -0.14126,-0.10006 -0.26714,-0.19552 -0.36929,-0.28143 -0.10212,-0.0859 -0.17974,-0.1627 -0.22479,-0.22563 -0.0615,-0.0866 -0.15394,-0.18372 -0.27042,-0.29325 -0.11649,-0.10952 -0.25732,-0.23078 -0.41833,-0.36592 -0.32195,-0.27028 -0.72254,-0.59471 -1.16029,-0.98369 a 3.4764141,2.5914483 0 0 0 -0.72085,-0.50368 z"
       style="fill:#42210b;stroke-width:0.386891"
       id="path41" />
    <path
       d="m 994.01981,578.33104 2.05869,3.00937 2.7364,3.497 0.4639,-0.25522 c 0,0 -0.094,-0.0776 -0.2391,-0.20536 -0.1454,-0.12773 -0.3424,-0.30545 -0.5477,-0.50621 -0.1026,-0.10037 -0.2068,-0.20684 -0.3084,-0.31522 -0.1016,-0.10837 -0.2,-0.21921 -0.2899,-0.32874 -0.09,-0.10953 -0.1716,-0.21812 -0.2392,-0.32198 -0.068,-0.10386 -0.121,-0.20274 -0.1554,-0.29409 -0.023,-0.0628 -0.071,-0.14609 -0.1395,-0.24592 -0.068,-0.0998 -0.1554,-0.21632 -0.2577,-0.34564 -0.2048,-0.25866 -0.4688,-0.56879 -0.7522,-0.90003 -0.2833,-0.33124 -0.5867,-0.68346 -0.86961,-1.02679 -0.14137,-0.17166 -0.27741,-0.34117 -0.40391,-0.50452 -0.12651,-0.16335 -0.24321,-0.32071 -0.34479,-0.46818 a 4.4414768,3.3108418 0 0 0 -0.71158,-0.78847 z"
       style="fill:#42210b;stroke-width:0.386891"
       id="path38" />
    <path
       d="m 1001.4397,583.97373 c 0.055,-0.0181 0.1094,-0.0389 0.1648,-0.0566 0.2544,-0.081 0.5102,-0.15528 0.7657,-0.22648 -0.1109,-0.16177 -1.1304,-1.64798 -1.6015,-2.3502 -0.098,-0.14569 -0.2223,-0.36898 -0.3633,-0.64397 -0.1411,-0.27498 -0.2985,-0.60108 -0.4623,-0.95073 -0.3278,-0.69928 -0.6804,-1.49328 -0.9753,-2.16343 a 4.6779543,3.487121 0 0 0 -0.5569,-0.90341 l 0.404,1.45694 z"
       style="fill:#42210b;stroke-width:0.386891"
       id="path36" />
    <path
       d="m 1002.7234,574.93038 0.7817,3.20544 1.4857,4.98436 c 0.2302,-0.0384 0.4773,-0.0883 0.693,-0.11831 0.096,-0.0135 0.1681,-0.0169 0.2611,-0.0287 -0.026,-0.0394 -0.022,-0.0323 -0.056,-0.0853 -0.1095,-0.17465 -0.2552,-0.41725 -0.4022,-0.6879 -0.073,-0.13532 -0.1471,-0.27713 -0.2164,-0.42171 -0.07,-0.14456 -0.1348,-0.29206 -0.191,-0.43606 -0.056,-0.144 -0.1037,-0.28474 -0.1378,-0.41832 -0.034,-0.13358 -0.054,-0.25935 -0.058,-0.37268 0,-0.0779 -0.023,-0.18459 -0.059,-0.31354 -0.036,-0.12893 -0.087,-0.28019 -0.1495,-0.44959 -0.1248,-0.33878 -0.2942,-0.74835 -0.4766,-1.18566 -0.1826,-0.43731 -0.378,-0.90237 -0.5553,-1.35384 -0.089,-0.22574 -0.173,-0.44825 -0.2484,-0.66171 -0.076,-0.21345 -0.1424,-0.41783 -0.1969,-0.60846 a 5.1833516,3.8638629 0 0 0 -0.1869,-0.53664 5.1833516,3.8638629 0 0 0 -0.2881,-0.51128 z"
       style="fill:#42210b;stroke-width:0.386891"
       id="path33" />
    <path
       d="m 990.53969,581.34041 0.37523,0.90003 4.77229,4.05391 0.51969,-0.15719 c 0,0 -0.094,-0.0559 -0.24168,-0.14958 -0.14756,-0.0937 -0.34866,-0.22531 -0.56118,-0.37522 -0.21253,-0.14991 -0.43726,-0.31812 -0.63209,-0.48677 -0.0974,-0.0843 -0.18709,-0.16902 -0.26452,-0.251 -0.0774,-0.082 -0.14214,-0.16166 -0.18933,-0.23662 -0.0326,-0.0516 -0.0825,-0.10855 -0.14618,-0.17156 -0.0636,-0.063 -0.14154,-0.13192 -0.23066,-0.20535 -0.17832,-0.14688 -0.40134,-0.31326 -0.64489,-0.49607 -0.24346,-0.18282 -0.50756,-0.38224 -0.76821,-0.59326 -0.1302,-0.10551 -0.2598,-0.21425 -0.38531,-0.32536 -0.12552,-0.11111 -0.24694,-0.22482 -0.36168,-0.34057 -0.20895,-0.21051 -0.51936,-0.50156 -0.77751,-0.7403 -0.25813,-0.23874 -0.46397,-0.42509 -0.46397,-0.42509 z"
       style="fill:#42210b;stroke-width:0.386891"
       id="path39" />
    <path
       d="m 986.20776,586.68394 0.39045,0.57888 4.43843,2.45416 0.44026,-0.13015 c 0,0 -0.34421,-0.13058 -0.73522,-0.30846 -0.1955,-0.0889 -0.40253,-0.19018 -0.58396,-0.2924 -0.0907,-0.0511 -0.17524,-0.10244 -0.24845,-0.15296 -0.0732,-0.0505 -0.13535,-0.0997 -0.18169,-0.14706 -0.0321,-0.0327 -0.0795,-0.0687 -0.13945,-0.10732 -0.0599,-0.0387 -0.13193,-0.0799 -0.21466,-0.12422 -0.16546,-0.0887 -0.37185,-0.18817 -0.59663,-0.29747 -0.22478,-0.10931 -0.46825,-0.2286 -0.70986,-0.35579 -0.24166,-0.12719 -0.48115,-0.26247 -0.6972,-0.4048 -0.39283,-0.25902 -1.16202,-0.71241 -1.16202,-0.71241 z"
       style="fill:#42210b;stroke-width:0.386891"
       id="path42" />
    <path
       d="m 983.23978,588.25158 0.48595,0.53833 4.81279,2.02315 0.41495,-0.17071 c 0,0 -0.36385,-0.0973 -0.7817,-0.23747 -0.20894,-0.07 -0.43178,-0.15116 -0.62878,-0.23578 -0.0985,-0.0423 -0.1903,-0.0851 -0.27125,-0.12846 -0.081,-0.0434 -0.15075,-0.0874 -0.20453,-0.13014 -0.0372,-0.0294 -0.0895,-0.0602 -0.15547,-0.093 -0.066,-0.0327 -0.14546,-0.0668 -0.23494,-0.1031 -0.17901,-0.0726 -0.39934,-0.15241 -0.64061,-0.24001 -0.24126,-0.0876 -0.50381,-0.18356 -0.76481,-0.28733 -0.26096,-0.10377 -0.52074,-0.21606 -0.75889,-0.33719 -0.43347,-0.21999 -1.27271,-0.59833 -1.27271,-0.59833 z"
       style="fill:#42210b;stroke-width:0.386891"
       id="path43" />
    <path
       d="m 1001.4397,583.97373 0.082,0.18338 0.9338,-0.33973 c 0,0 -0.08,-0.11804 -0.086,-0.12676 -0.2555,0.0712 -0.5114,0.14547 -0.7657,0.22648 -0.056,0.0176 -0.1095,0.0385 -0.1648,0.0566 z"
       style="fill:#42210b;stroke:#000000;stroke-width:0"
       id="path37" />
    <path
       d="m 1005.9449,582.97313 c -0.093,0.0118 -0.1646,0.0153 -0.2611,0.0287 -0.2157,0.0301 -0.4628,0.0798 -0.693,0.11831 l 0.078,0.26029 1.0031,-0.21128 c 0,0 -0.069,-0.10565 -0.1268,-0.19605 z"
       style="fill:#42210b;stroke:#000000;stroke-width:0"
       id="path35" />
    <path
       d="m 1005.9449,582.97313 c 0.058,0.0904 0.1268,0.19607 0.1268,0.19607 l -1.0031,0.21127 -0.078,-0.26029 c -0.2845,0.0475 -0.5553,0.0854 -0.8561,0.1462 -0.2722,0.055 -0.5493,0.1154 -0.8298,0.1817 -0.2806,0.0663 -0.5644,0.13918 -0.8486,0.21718 -0.028,0.008 -0.058,0.0174 -0.086,0.0254 0.01,0.009 0.086,0.12676 0.086,0.12676 l -0.9338,0.33972 -0.082,-0.18338 c -0.2269,0.0744 -0.4534,0.14986 -0.6761,0.2324 -0.2769,0.10266 -0.5501,0.21145 -0.8164,0.32705 -0.2662,0.1156 -0.5259,0.23782 -0.7766,0.36677 -0.2507,0.12895 -0.4922,0.26463 -0.7225,0.40733 -0.2304,0.14271 -0.4488,0.29273 -0.6542,0.4496 -0.2052,0.15686 -0.3967,0.32039 -0.5721,0.49184 -0.088,0.0858 -0.1717,0.17339 -0.251,0.26282 -0.079,0.0894 -0.1536,0.18061 -0.2239,0.27382 -0.07,0.1903 -0.137,0.38212 -0.1994,0.57465 -0.063,0.19253 -0.1208,0.38625 -0.175,0.58059 -0.054,0.19432 -0.1047,0.38909 -0.1504,0.5848 -0.046,0.19571 -0.087,0.39237 -0.1243,0.58903 -0.037,0.19666 -0.069,0.39354 -0.097,0.59072 -0.0284,0.19718 -0.0524,0.39428 -0.0713,0.59156 -0.0189,0.1973 -0.0335,0.3946 -0.043,0.59157 -0.009,0.19697 -0.0146,0.39365 -0.0146,0.58987 0,0.20089 0.009,0.40079 0.0155,0.59917 0.0103,0.19838 0.0249,0.39508 0.0447,0.59072 0.0198,0.19564 0.0447,0.39047 0.0747,0.58312 0.029,0.19265 0.064,0.38355 0.1023,0.57297 0.039,0.18942 0.082,0.37688 0.1301,0.56283 0.048,0.18596 0.1,0.37046 0.1563,0.55269 0.057,0.18224 0.1182,0.3626 0.1834,0.54086 0.065,0.17827 0.1352,0.35413 0.2088,0.52819 0.074,0.17406 0.1507,0.34589 0.2325,0.5155 0.082,0.16961 0.1681,0.33707 0.2577,0.50199 0.09,0.16492 0.1825,0.32763 0.2796,0.48762 0.097,0.15998 0.198,0.3176 0.3026,0.4724 0.1046,0.15481 0.2128,0.30698 0.3245,0.45635 0.1118,0.14938 0.2271,0.29574 0.3457,0.43945 0.1186,0.14371 0.2407,0.28475 0.3659,0.42255 0.1252,0.13779 0.2538,0.27231 0.3854,0.40395 0.1316,0.13165 0.267,0.26012 0.4048,0.38537 0.1378,0.12524 0.278,0.24732 0.4217,0.36592 0.1437,0.1186 0.2909,0.23393 0.4402,0.34564 0.1495,0.11172 0.3017,0.21993 0.4564,0.32451 0.1548,0.10459 0.3116,0.20535 0.4716,0.30255 0.1599,0.0972 0.3227,0.19098 0.4876,0.28057 0.1649,0.0896 0.3324,0.17518 0.502,0.25692 0.1696,0.0817 0.3414,0.15961 0.5155,0.23324 0.1741,0.0737 0.3499,0.14261 0.5282,0.20789 0.1783,0.0652 0.3586,0.1267 0.5408,0.18339 0.1823,0.0566 0.3668,0.1085 0.5527,0.15634 0.186,0.0479 0.3734,0.0914 0.5628,0.13014 0.1895,0.0388 0.3812,0.0728 0.5738,0.10226 0.1927,0.0294 0.3867,0.0545 0.5824,0.0743 0.1956,0.0199 0.3923,0.0347 0.5906,0.0448 0.1985,0.01 0.3984,0.0152 0.5993,0.0152 0.2008,0 0.4007,-0.005 0.5991,-0.0152 0.1984,-0.0101 0.3951,-0.0249 0.5907,-0.0448 0.1956,-0.0199 0.3897,-0.0449 0.5823,-0.0743 0.1926,-0.0294 0.3844,-0.0635 0.5739,-0.10226 0.1894,-0.0388 0.3768,-0.0823 0.5628,-0.13014 0.1859,-0.0479 0.3704,-0.0997 0.5526,-0.15634 0.1823,-0.0567 0.3626,-0.11812 0.5409,-0.18339 0.1783,-0.0653 0.3541,-0.13427 0.5281,-0.20789 0.1742,-0.0737 0.3459,-0.15152 0.5156,-0.23324 0.1696,-0.0817 0.337,-0.16733 0.502,-0.25692 0.1649,-0.0896 0.3277,-0.18336 0.4876,-0.28057 0.16,-0.0972 0.3176,-0.19796 0.4724,-0.30255 0.1549,-0.10458 0.307,-0.21279 0.4563,-0.32451 0.1494,-0.11171 0.2958,-0.22704 0.4395,-0.34564 0.1437,-0.1186 0.2847,-0.24068 0.4226,-0.36592 0.1378,-0.12525 0.2722,-0.25372 0.4039,-0.38537 0.1317,-0.13164 0.2601,-0.26616 0.3854,-0.40395 0.1253,-0.1378 0.2473,-0.27884 0.3659,-0.42255 0.1186,-0.14371 0.2339,-0.29007 0.3456,-0.43945 0.1118,-0.14937 0.22,-0.30154 0.3245,-0.45635 0.1046,-0.1548 0.2054,-0.31242 0.3026,-0.4724 0.097,-0.15999 0.191,-0.3227 0.2805,-0.48762 0.09,-0.16492 0.1753,-0.33238 0.2569,-0.50199 0.082,-0.16961 0.1588,-0.34144 0.2325,-0.5155 0.074,-0.17406 0.1434,-0.34992 0.2087,-0.52819 0.065,-0.17826 0.1267,-0.35862 0.1834,-0.54086 0.057,-0.18223 0.1085,-0.36673 0.1563,-0.55269 0.048,-0.18595 0.091,-0.37341 0.1302,-0.56283 0.039,-0.18942 0.073,-0.38032 0.1022,-0.57297 0.029,-0.19265 0.054,-0.38748 0.075,-0.58312 0.02,-0.19564 0.034,-0.39234 0.045,-0.59072 0.01,-0.19838 0.015,-0.39828 0.015,-0.59917 0,-0.22078 -0.01,-0.4417 -0.019,-0.66339 -0.012,-0.2217 -0.03,-0.44394 -0.054,-0.66594 -0.024,-0.22199 -0.053,-0.44423 -0.089,-0.66593 -0.035,-0.2217 -0.077,-0.44261 -0.1234,-0.6634 -0.046,-0.2208 -0.099,-0.44157 -0.1563,-0.66087 -0.058,-0.21928 -0.1197,-0.43692 -0.1876,-0.65409 -0.068,-0.21718 -0.1416,-0.43373 -0.2198,-0.64819 -0.078,-0.21446 -0.1613,-0.4269 -0.2493,-0.63805 -0.2874,-0.22066 -0.5728,-0.42679 -0.8552,-0.61945 -0.2825,-0.19266 -0.5618,-0.37176 -0.8384,-0.53832 -0.2764,-0.16657 -0.5501,-0.32073 -0.8197,-0.46311 -0.2696,-0.14239 -0.5351,-0.2737 -0.7969,-0.39381 -0.2618,-0.12013 -0.5195,-0.22899 -0.7724,-0.32875 -0.253,-0.0997 -0.5013,-0.18996 -0.7446,-0.27127 -0.2432,-0.0813 -0.4815,-0.15411 -0.7141,-0.21888 -0.2325,-0.0648 -0.4593,-0.12141 -0.6803,-0.17155 -0.2209,-0.0502 -0.4364,-0.0936 -0.6448,-0.13099 -0.2084,-0.0374 -0.4094,-0.0688 -0.6042,-0.0955 -0.3896,-0.0533 -0.7518,-0.0875 -1.0817,-0.10901 -0.3299,-0.0215 -0.6282,-0.0305 -0.8908,-0.0355 -0.2625,-0.005 -0.4892,-0.006 -0.6769,-0.0101 -0.2424,-0.009 -0.5634,2.1e-4 -0.9448,0.0279 -0.305,0.0222 -0.6718,0.066 -1.0437,0.11326 z"
       style="fill:#42210b;stroke:#000000;stroke-width:0"
       id="path34" />
    <path
       d="m 981.8268,607.11067 a 0.25961252,0.25961252 0 0 0 -0.36592,0.0271 0.25961252,0.25961252 0 0 0 -0.0626,0.1893 0.25961252,0.25961252 0 0 0 0.0896,0.17748 c 0.54449,0.469 1.19288,1.0725 1.92849,1.76792 0.73566,0.69543 1.55871,1.48291 2.45416,2.31979 0.89544,0.83688 1.86298,1.72304 2.88685,2.6164 0.51191,0.44669 1.03793,0.89545 1.5761,1.34032 0.53814,0.44487 1.0883,0.88591 1.64876,1.31834 0.56044,0.43244 1.13185,0.85661 1.71134,1.2668 0.57949,0.41018 1.16706,0.80603 1.76202,1.18313 0.595,0.37711 1.1973,0.73501 1.8043,1.06819 0.6068,0.33321 1.2185,0.64185 1.8339,0.92032 0.6152,0.27846 1.234,0.5274 1.854,0.7403 0.6201,0.21289 1.2413,0.38999 1.8627,0.52649 0.6212,0.1365 1.2419,0.23214 1.8608,0.28142 0.3095,0.0247 0.6189,0.0381 0.9271,0.0388 0.3082,8.6e-4 0.6154,-0.0111 0.922,-0.0355 a 0.25961252,0.25961252 0 0 0 0.1267,-0.0448 0.25961252,0.25961252 0 0 0 0.088,-0.10226 0.25961252,0.25961252 0 0 0 0.024,-0.13267 0.25961252,0.25961252 0 0 0 -0.2797,-0.23748 c -0.2918,0.0232 -0.5851,0.0341 -0.8797,0.033 -0.2947,-0.002 -0.5912,-0.0147 -0.8882,-0.0388 -0.5941,-0.0485 -1.1919,-0.14146 -1.7925,-0.27465 -0.6005,-0.13319 -1.2037,-0.30604 -1.8068,-0.51382 -0.603,-0.20777 -1.2061,-0.45035 -1.8076,-0.72255 -0.6015,-0.27221 -1.2016,-0.57437 -1.7975,-0.90087 -0.596,-0.32651 -1.1875,-0.67728 -1.7739,-1.04792 -0.58645,-0.37064 -1.16714,-0.76075 -1.7401,-1.16538 -0.57287,-0.40463 -1.13818,-0.82396 -1.69352,-1.25243 -1.11065,-0.85693 -2.18099,-1.74973 -3.19698,-2.63669 -1.01603,-0.88695 -1.97777,-1.76796 -2.86993,-2.60204 -0.89219,-0.83408 -1.71504,-1.62146 -2.45416,-2.31978 -0.73911,-0.69832 -1.39446,-1.30769 -1.95133,-1.78737 z"
       style="fill:#b398c5;stroke-width:0.432688;stroke-linecap:round;stroke-miterlimit:10"
       id="path32" />
    <path
       d="m 983.2043,605.53035 a 0.25961252,0.25961252 0 0 0 -0.36592,0.0271 0.25961252,0.25961252 0 0 0 -0.0626,0.18846 0.25961252,0.25961252 0 0 0 0.0896,0.17831 c 0.55125,0.47485 1.1558,0.99119 1.8102,1.53638 0.65435,0.54519 1.35842,1.11912 2.10849,1.70793 0.75006,0.58881 1.54573,1.19263 2.38401,1.79836 0.83833,0.60573 1.71925,1.21341 2.6384,1.80934 0.91908,0.59593 1.87653,1.17979 2.86905,1.73921 0.9926,0.55941 2.02027,1.09426 3.07867,1.59046 0.5292,0.24809 1.0664,0.48682 1.6108,0.71411 0.5443,0.22727 1.0954,0.44336 1.6538,0.64648 0.5585,0.20314 1.1243,0.39312 1.6961,0.56875 0.5718,0.17564 1.1501,0.3369 1.7342,0.48171 a 0.25961252,0.25961252 0 0 0 0.196,-0.0304 0.25961252,0.25961252 0 0 0 0.1183,-0.15972 0.25961252,0.25961252 0 0 0 0,-0.10141 0.25961252,0.25961252 0 0 0 -0.034,-0.0955 0.25961252,0.25961252 0 0 0 -0.069,-0.0743 0.25961252,0.25961252 0 0 0 -0.091,-0.0431 c -0.5744,-0.14243 -1.1433,-0.30104 -1.7062,-0.4741 -0.5629,-0.17307 -1.1203,-0.36072 -1.6707,-0.56114 -0.5505,-0.20042 -1.0941,-0.41359 -1.6311,-0.63805 -0.537,-0.22447 -1.067,-0.46044 -1.5896,-0.70565 -1.0452,-0.49043 -2.06127,-1.01908 -3.04321,-1.57272 -0.98186,-0.55363 -1.92943,-1.13184 -2.84034,-1.7223 -0.91086,-0.59045 -1.78506,-1.19324 -2.61724,-1.79413 -0.8322,-0.60089 -1.62298,-1.19991 -2.36879,-1.78484 -0.74583,-0.58492 -1.44657,-1.15521 -2.09837,-1.69779 -0.6518,-0.54257 -1.25419,-1.05747 -1.80426,-1.5313 z"
       style="fill:#b398c5;stroke-width:0.432688;stroke-linecap:round;stroke-miterlimit:10"
       id="path31" />
    <path
       style="color:#000000;fill:#262100;stroke:none;stroke-width:0.432688;stroke-linecap:round;stroke-miterlimit:10;stroke-opacity:1;-inkscape-stroke:none"
       d="m 1007.6209,572.88259 c 0.7301,-0.0168 1.4643,0.0163 2.2014,0.1048 9.2761,1.11304 12.2064,4.47078 15.2354,7.8019 v 8.5e-4 c 1.9187,2.12136 5.1831,6.95378 6.4684,9.49716 a 0.51922502,0.51922502 0 0 1 -0.229,0.69805 0.51922502,0.51922502 0 0 1 -0.6981,-0.22902 c -1.201,-2.3765 -4.5308,-7.30013 -6.3103,-9.26813 v -0.002 c -3.0436,-3.34731 -5.5271,-6.38064 -14.5897,-7.46808 -5.4898,-0.65871 -10.9842,2.01818 -15.60803,5.40351 -4.62373,3.38534 -8.34056,7.43803 -10.33547,9.43293 a 0.51922502,0.51922502 0 0 1 -0.7344,0 0.51922502,0.51922502 0 0 1 0,-0.73354 c 1.95251,-1.9525 5.72796,-6.07579 10.45635,-9.53772 4.13725,-3.02918 9.03295,-5.58376 14.14345,-5.70099 z"
       id="path118" />
    <path
       d="m 1005.4344,593.71595 a 2.1634376,2.1634376 0 0 0 -0.3075,0.022 2.1634376,2.1634376 0 0 0 -0.3018,0.0659 2.1634376,2.1634376 0 0 0 -0.289,0.10732 2.1634376,2.1634376 0 0 0 -0.2713,0.14789 2.1634376,2.1634376 0 0 0 -0.2467,0.18508 2.1634376,2.1634376 0 0 0 -0.218,0.21803 2.1634376,2.1634376 0 0 0 -0.1851,0.24762 2.1634376,2.1634376 0 0 0 -0.1479,0.27042 2.1634376,2.1634376 0 0 0 -0.1082,0.28987 2.1634376,2.1634376 0 0 0 -0.066,0.3017 2.1634376,2.1634376 0 0 0 -0.022,0.30761 2.1634376,2.1634376 0 0 0 0.022,0.30762 2.1634376,2.1634376 0 0 0 0.066,0.3017 2.1634376,2.1634376 0 0 0 0.1082,0.28902 2.1634376,2.1634376 0 0 0 0.1479,0.27127 2.1634376,2.1634376 0 0 0 0.1851,0.24676 2.1634376,2.1634376 0 0 0 0.218,0.21888 2.1634376,2.1634376 0 0 0 0.2467,0.18424 2.1634376,2.1634376 0 0 0 0.2713,0.14874 2.1634376,2.1634376 0 0 0 0.289,0.10732 2.1634376,2.1634376 0 0 0 0.3018,0.0659 2.1634376,2.1634376 0 0 0 0.3075,0.022 2.1634376,2.1634376 0 0 0 0.3085,-0.022 2.1634376,2.1634376 0 0 0 0.3017,-0.0659 2.1634376,2.1634376 0 0 0 0.289,-0.10732 2.1634376,2.1634376 0 0 0 0.2705,-0.14874 2.1634376,2.1634376 0 0 0 0.2476,-0.18424 2.1634376,2.1634376 0 0 0 0.218,-0.21888 2.1634376,2.1634376 0 0 0 0.1851,-0.24676 2.1634376,2.1634376 0 0 0 0.1479,-0.27127 2.1634376,2.1634376 0 0 0 0.1081,-0.28902 2.1634376,2.1634376 0 0 0 0.065,-0.3017 2.1634376,2.1634376 0 0 0 0.022,-0.30762 2.1634376,2.1634376 0 0 0 0,-0.10648 2.1634376,2.1634376 0 0 0 -0.01,-0.10564 2.1634376,2.1634376 0 0 0 -0.013,-0.10563 2.1634376,2.1634376 0 0 0 -0.019,-0.1048 2.1634376,2.1634376 0 0 0 -0.023,-0.10309 2.1634376,2.1634376 0 0 0 -0.028,-0.10226 2.1634376,2.1634376 0 0 0 -0.033,-0.10141 2.1634376,2.1634376 0 0 0 -0.038,-0.0989 2.1634376,2.1634376 0 0 0 -0.043,-0.0972 2.1634376,2.1634376 0 0 0 -0.048,-0.0947 2.1634376,2.1634376 0 0 0 -0.052,-0.0921 2.1634376,2.1634376 0 0 0 -0.057,-0.0896 2.1634376,2.1634376 0 0 0 -0.061,-0.087 2.1634376,2.1634376 0 0 0 -0.066,-0.0837 2.1634376,2.1634376 0 0 0 -0.07,-0.0803 2.1634376,2.1634376 0 0 0 -0.073,-0.0769 2.1634376,2.1634376 0 0 0 -0.077,-0.0736 2.1634376,2.1634376 0 0 0 -0.081,-0.0693 2.1634376,2.1634376 0 0 0 -0.083,-0.065 2.1634376,2.1634376 0 0 0 -0.086,-0.0617 2.1634376,2.1634376 0 0 0 -0.09,-0.0566 2.1634376,2.1634376 0 0 0 -0.093,-0.0524 2.1634376,2.1634376 0 0 0 -0.095,-0.0474 2.1634376,2.1634376 0 0 0 -0.097,-0.0431 2.1634376,2.1634376 0 0 0 -0.099,-0.0388 2.1634376,2.1634376 0 0 0 -0.1005,-0.033 2.1634376,2.1634376 0 0 0 -0.1031,-0.0279 2.1634376,2.1634376 0 0 0 -0.1031,-0.0236 2.1634376,2.1634376 0 0 0 -0.1048,-0.0177 2.1634376,2.1634376 0 0 0 -0.1057,-0.0135 2.1634376,2.1634376 0 0 0 -0.1056,-0.008 2.1634376,2.1634376 0 0 0 -0.1065,-0.003 z"
       style="fill:#ffffff;stroke-width:0.432688"
       id="path4" />
    <path
       d="m 1008.8047,582.4196 c -0.4735,-0.0125 -0.9467,-0.005 -1.4206,0.022 -0.474,0.0268 -0.9485,0.0732 -1.4265,0.13859 -0.478,0.0653 -0.9595,0.14949 -1.4451,0.25268 -0.4857,0.1032 -0.9753,0.22556 -1.4722,0.36592 -0.4969,0.14038 -1.0003,0.29894 -1.5119,0.4758 -0.5115,0.17686 -1.0318,0.37128 -1.5617,0.58396 -0.5299,0.21267 -1.0691,0.44347 -1.6209,0.69128 -0.5518,0.24782 -1.1155,0.51297 -1.6927,0.79524 -0.5772,0.28226 -1.16845,0.58144 -1.77467,0.89749 -0.29434,0.15342 -0.60278,0.33435 -0.92282,0.53663 -0.32004,0.20227 -0.65142,0.42633 -0.99131,0.66424 -0.67995,0.47583 -1.39394,1.00908 -2.11865,1.54821 -0.72476,0.53913 -1.46058,1.08359 -2.18373,1.58032 -0.3616,0.24837 -0.71995,0.48517 -1.07241,0.70312 -0.35248,0.21795 -0.69854,0.41725 -1.03612,0.59157 -1.40416,0.7252 -2.31514,1.1991 -2.94851,1.5237 -0.6334,0.32459 -0.98943,0.5 -1.28369,0.6279 -0.29427,0.1279 -0.52676,0.20883 -0.91354,0.34396 -0.38682,0.13512 -0.92789,0.32474 -1.83892,0.67099 -0.24183,0.092 -0.49465,0.16701 -0.75301,0.22903 -0.25831,0.062 -0.52221,0.11092 -0.78424,0.15043 -0.26199,0.0395 -0.52212,0.0693 -0.77495,0.0938 -0.25281,0.0244 -0.49854,0.0431 -0.72929,0.06 -0.46159,0.0336 -0.86572,0.0595 -1.16203,0.10732 -0.14815,0.0239 -0.26904,0.0534 -0.35662,0.0921 -0.0437,0.0193 -0.0794,0.0407 -0.10561,0.0651 -0.0264,0.0244 -0.0437,0.0516 -0.0507,0.082 -0.0138,0.0589 -0.0499,0.12184 -0.0896,0.18424 -0.0398,0.0624 -0.0829,0.12382 -0.109,0.18169 -0.013,0.029 -0.0221,0.0573 -0.0247,0.0837 -0.004,0.0263 0,0.0508 0.0151,0.0735 0.0134,0.0227 0.0363,0.0436 0.0701,0.0617 0.0338,0.018 0.0792,0.0332 0.13858,0.0456 0.0567,0.0119 0.15559,0.045 0.30591,0.0836 0.15036,0.0387 0.35199,0.0833 0.61273,0.12001 0.26066,0.0368 0.58067,0.0656 0.96844,0.0718 0.19389,0.003 0.40505,4.3e-4 0.63385,-0.009 0.22876,-0.01 0.47535,-0.0269 0.74115,-0.0532 0.26575,-0.0264 0.55033,-0.0625 0.85521,-0.10901 0.30487,-0.0465 0.63003,-0.1039 0.9761,-0.17409 0.34602,-0.0702 0.71268,-0.1527 1.10201,-0.25015 0.38929,-0.0975 0.80086,-0.20974 1.23549,-0.33804 0.43468,-0.12829 0.8929,-0.27252 1.37499,-0.43523 0.48206,-0.16269 0.98783,-0.34355 1.51947,-0.54423 0.53161,-0.20068 1.08921,-0.42117 1.67243,-0.66339 0.58322,-0.24224 1.19271,-0.5062 1.82962,-0.79355 0.49348,-0.22263 0.96052,-0.44259 1.40454,-0.65917 0.44408,-0.21658 0.86486,-0.42983 1.26427,-0.63974 0.39937,-0.2099 0.77798,-0.416 1.13751,-0.61861 0.35949,-0.20261 0.6999,-0.40193 1.02423,-0.59663 0.64876,-0.38938 1.23194,-0.76239 1.7688,-1.11637 0.53687,-0.35398 1.02769,-0.68869 1.49069,-1.00228 0.4632,-0.31359 0.8985,-0.60561 1.326,-0.87383 0.2137,-0.1341 0.4261,-0.26268 0.6381,-0.38451 0.2119,-0.12183 0.4238,-0.23671 0.6388,-0.34565 0.215,-0.10893 0.4331,-0.21136 0.6559,-0.30677 0.2227,-0.0954 0.4499,-0.18409 0.6853,-0.26535 0.2353,-0.0813 0.4784,-0.15577 0.731,-0.22227 0.2527,-0.0665 0.5154,-0.12466 0.7901,-0.17578 0.6623,-0.12279 1.4934,-0.31736 2.4821,-0.49184 0.4944,-0.0872 1.0285,-0.17005 1.5997,-0.23578 0.2857,-0.0328 0.5806,-0.0614 0.8849,-0.0845 0.3043,-0.0232 0.618,-0.0409 0.9406,-0.0516 0.3225,-0.0107 0.6534,-0.0141 0.9938,-0.009 0.3404,0.005 0.6901,0.0174 1.0479,0.0406 0.3578,0.023 0.7237,0.0563 1.0987,0.10057 0.3748,0.0443 0.7586,0.0999 1.1501,0.16817 0.3916,0.0682 0.7913,0.14908 1.1992,0.24423 0.4079,0.0951 0.8236,0.20468 1.2474,0.32959 0.4237,0.12492 0.8554,0.26499 1.2947,0.42255 0.4392,0.15755 0.886,0.33259 1.3403,0.52564 0.432,0.18366 0.8533,0.38652 1.2642,0.60509 0.411,0.21857 0.8117,0.45259 1.2034,0.69974 0.3918,0.24715 0.774,0.50722 1.1485,0.77664 0.3746,0.26941 0.7413,0.54874 1.1003,0.8341 0.3591,0.28537 0.7107,0.57716 1.0564,0.87213 0.3456,0.295 0.6851,0.59245 1.0191,0.89074 0.6684,0.59657 1.3161,1.19353 1.9497,1.7654 0.3168,0.28593 0.6295,0.56552 0.9406,0.8358 0.311,0.27028 0.6199,0.53171 0.9271,0.78002 0.3071,0.24829 0.6125,0.48395 0.9177,0.70395 0.3052,0.22002 0.6102,0.42393 0.9153,0.60932 0.3051,0.18538 0.61,0.35246 0.9169,0.49691 0.1534,0.0722 0.308,0.13864 0.4622,0.19944 0.1544,0.0609 0.3086,0.11536 0.464,0.16396 0.1554,0.0485 0.3115,0.0912 0.4682,0.12676 0.1567,0.0356 0.3142,0.0644 0.4724,0.0862 0.1581,0.0218 0.3166,0.0368 0.4766,0.0439 0.16,0.007 0.3214,0.008 0.4834,-8.6e-4 0.4634,-0.0231 1.7629,-0.14984 1.9953,-0.1724 0.4649,-0.0453 1.1186,-0.10911 1.8381,-0.18592 0.7195,-0.0768 1.5047,-0.16657 2.231,-0.26452 0.3631,-0.049 0.7117,-0.0998 1.0301,-0.15211 0.3186,-0.0523 0.6066,-0.10624 0.8494,-0.16057 0.2428,-0.0543 0.4401,-0.10888 0.5764,-0.16395 0.068,-0.0275 0.1206,-0.0553 0.1563,-0.0828 0.035,-0.0275 0.054,-0.0547 0.053,-0.082 0,-0.021 -0.02,-0.0416 -0.056,-0.0617 -0.036,-0.02 -0.089,-0.0393 -0.1573,-0.0584 -0.1356,-0.0382 -0.3301,-0.0749 -0.5661,-0.10903 -0.4722,-0.0683 -1.1111,-0.12828 -1.779,-0.18084 -1.3357,-0.10514 -2.7882,-0.17899 -3.2611,-0.22226 -0.2855,-0.0261 -0.5623,-0.0578 -0.8299,-0.0947 -0.2677,-0.0368 -0.5267,-0.0789 -0.7775,-0.12592 -0.2509,-0.047 -0.4932,-0.0989 -0.7285,-0.1555 -0.2352,-0.0566 -0.463,-0.11767 -0.6837,-0.18338 -0.2207,-0.0657 -0.4342,-0.13618 -0.6414,-0.21042 -0.2072,-0.0743 -0.4085,-0.1527 -0.6034,-0.23494 -0.3897,-0.16448 -0.7551,-0.34425 -1.102,-0.53748 -0.3469,-0.19322 -0.6751,-0.40012 -0.9879,-0.61776 -0.3129,-0.21764 -0.6107,-0.44598 -0.8983,-0.68368 -0.2877,-0.2377 -0.5646,-0.48434 -0.8358,-0.73777 -0.2713,-0.25342 -0.5368,-0.51352 -0.8003,-0.77833 -0.5272,-0.52962 -1.0479,-1.07768 -1.5972,-1.6268 -0.2748,-0.27456 -0.5568,-0.54935 -0.8502,-0.82227 -0.2935,-0.27294 -0.5985,-0.54434 -0.9195,-0.8113 -0.321,-0.26695 -0.6585,-0.52929 -1.0158,-0.78593 -0.3574,-0.25665 -0.7349,-0.50761 -1.1375,-0.7496 -0.4025,-0.24199 -0.8297,-0.47505 -1.2862,-0.69804 -0.2283,-0.11151 -0.464,-0.22028 -0.7074,-0.32621 -0.2434,-0.10594 -0.4941,-0.20948 -0.7538,-0.3093 -0.57,-0.30592 -1.1269,-0.58992 -1.6724,-0.85186 -0.5455,-0.26194 -1.0794,-0.50136 -1.604,-0.72002 -0.5246,-0.21865 -1.0401,-0.41637 -1.5473,-0.59241 -0.5073,-0.17604 -1.0067,-0.33069 -1.5001,-0.4648 -0.4935,-0.13411 -0.9805,-0.24771 -1.4637,-0.34058 -0.4833,-0.0929 -0.9626,-0.16489 -1.4393,-0.21718 -0.4765,-0.0523 -0.9504,-0.0848 -1.4239,-0.0972 z"
       style="fill:#262100;stroke-width:0.432688"
       id="path3" />
    <path
       d="m 1007.3959,584.01345 c -0.1876,0.003 -0.4144,0.004 -0.6769,0.009 -0.2625,0.005 -0.5608,0.0144 -0.8907,0.0346 -0.165,0.0101 -0.3377,0.023 -0.5181,0.0397 -0.1803,0.0167 -0.368,0.0366 -0.5628,0.0617 -0.1948,0.0251 -0.3967,0.0552 -0.6051,0.0904 -0.2084,0.0352 -0.423,0.0761 -0.644,0.12338 -0.2208,0.0473 -0.4485,0.10041 -0.6811,0.16141 -0.2325,0.061 -0.47,0.12963 -0.7132,0.20621 -0.2433,0.0766 -0.4924,0.16126 -0.7454,0.25521 -0.253,0.094 -0.5098,0.19703 -0.7716,0.31016 -0.2617,0.11312 -0.5281,0.23605 -0.7977,0.37015 -0.2697,0.1341 -0.5433,0.27919 -0.8197,0.43606 -0.2766,0.15687 -0.556,0.32562 -0.8384,0.50706 -0.2825,0.18144 -0.5678,0.37614 -0.8552,0.58396 -0.088,0.19884 -0.1712,0.39888 -0.2493,0.60086 -0.078,0.20198 -0.151,0.40562 -0.2189,0.61015 -0.068,0.20454 -0.1311,0.4104 -0.1885,0.61693 -0.058,0.20652 -0.1097,0.41404 -0.1563,0.62198 -0.046,0.20794 -0.087,0.41574 -0.1226,0.62453 -0.035,0.20879 -0.065,0.41798 -0.09,0.62705 -0.024,0.20908 -0.042,0.41828 -0.054,0.62706 -0.012,0.20879 -0.019,0.41744 -0.019,0.62537 0,0.18919 0.01,0.37769 0.016,0.56452 0.01,0.18683 0.025,0.37183 0.045,0.55607 0.02,0.18426 0.045,0.36703 0.075,0.54847 0.029,0.18144 0.064,0.36162 0.1024,0.54001 0.039,0.1784 0.082,0.35559 0.1301,0.53072 0.048,0.17512 0.1005,0.34812 0.1572,0.51974 0.057,0.17162 0.1172,0.34169 0.1825,0.50958 0.065,0.1679 0.1351,0.33384 0.2088,0.49777 0.074,0.16392 0.1515,0.32619 0.2332,0.48592 0.082,0.15975 0.1673,0.31709 0.2569,0.47241 0.09,0.15532 0.1825,0.30821 0.2797,0.45888 0.097,0.15068 0.1989,0.29873 0.3034,0.44452 0.1046,0.14579 0.2128,0.28947 0.3246,0.43016 0.1117,0.14068 0.2262,0.27875 0.3448,0.4141 0.1185,0.13533 0.2406,0.26741 0.3659,0.39718 0.1252,0.12978 0.2537,0.25716 0.3853,0.38114 0.1316,0.12398 0.267,0.2446 0.4048,0.36255 0.1378,0.11795 0.278,0.2331 0.4217,0.34479 0.1437,0.1117 0.2909,0.22016 0.4403,0.32537 0.1494,0.10521 0.3015,0.20742 0.4563,0.30592 0.1549,0.0985 0.3116,0.19324 0.4717,0.28479 0.1599,0.0916 0.3227,0.18015 0.4875,0.26452 0.165,0.0844 0.3324,0.16473 0.502,0.24169 0.1696,0.077 0.3415,0.1504 0.5155,0.21973 0.1741,0.0694 0.3507,0.13459 0.5291,0.19606 0.1782,0.0615 0.3586,0.11902 0.5408,0.1724 0.1822,0.0534 0.3659,0.10283 0.5519,0.14789 0.1859,0.045 0.3734,0.086 0.5628,0.12254 0.1894,0.0365 0.3811,0.0686 0.5738,0.0963 0.1927,0.0278 0.3866,0.0506 0.5822,0.0693 0.1957,0.0187 0.3924,0.0328 0.5908,0.0423 0.1983,0.009 0.3982,0.0143 0.5992,0.0143 0.2008,0 0.4008,-0.005 0.5991,-0.0143 0.1984,-0.009 0.3951,-0.0236 0.5908,-0.0423 0.1956,-0.0186 0.3904,-0.0416 0.5831,-0.0693 0.1927,-0.0278 0.3835,-0.0598 0.5729,-0.0963 0.1894,-0.0365 0.377,-0.0775 0.5629,-0.12254 0.1859,-0.045 0.3704,-0.0945 0.5527,-0.14789 0.1822,-0.0534 0.3626,-0.11092 0.5408,-0.1724 0.1783,-0.0614 0.3541,-0.12672 0.5282,-0.19606 0.174,-0.0693 0.3459,-0.14275 0.5155,-0.21973 0.1696,-0.077 0.3371,-0.15732 0.502,-0.24169 0.165,-0.0844 0.3276,-0.17296 0.4877,-0.26452 0.1599,-0.0915 0.3175,-0.1863 0.4724,-0.28479 0.1547,-0.0985 0.3069,-0.20071 0.4563,-0.30592 0.1494,-0.10521 0.2957,-0.21367 0.4394,-0.32537 0.1437,-0.11169 0.2848,-0.22684 0.4226,-0.34479 0.1377,-0.11795 0.2723,-0.23857 0.404,-0.36255 0.1316,-0.12398 0.26,-0.25136 0.3853,-0.38114 0.1252,-0.12977 0.2474,-0.26185 0.366,-0.39718 0.1186,-0.13535 0.2338,-0.27342 0.3455,-0.4141 0.1117,-0.14069 0.22,-0.28437 0.3246,-0.43016 0.1045,-0.14579 0.2053,-0.29384 0.3025,-0.44452 0.097,-0.15067 0.191,-0.30356 0.2806,-0.45888 0.089,-0.15532 0.1752,-0.31266 0.2569,-0.47241 0.082,-0.15973 0.1596,-0.322 0.2332,-0.48592 0.074,-0.16393 0.1427,-0.32987 0.208,-0.49777 0.065,-0.16789 0.1267,-0.33796 0.1833,-0.50958 0.057,-0.17162 0.1086,-0.34462 0.1563,-0.51974 0.048,-0.17513 0.091,-0.35232 0.1302,-0.53072 0.039,-0.17839 0.073,-0.35857 0.1023,-0.54001 0.029,-0.18144 0.054,-0.36421 0.075,-0.54847 0.02,-0.18424 0.034,-0.36924 0.045,-0.55607 0.01,-0.18683 0.015,-0.37533 0.015,-0.56452 0,-0.1848 -0.01,-0.36972 -0.015,-0.55523 -0.01,-0.1855 -0.024,-0.37195 -0.043,-0.55775 -0.019,-0.18581 -0.043,-0.37121 -0.071,-0.55692 -0.028,-0.18571 -0.06,-0.37171 -0.097,-0.55692 -0.037,-0.18521 -0.078,-0.37006 -0.1243,-0.55438 -0.046,-0.18431 -0.096,-0.36799 -0.1504,-0.551 -0.054,-0.18302 -0.1125,-0.36545 -0.1749,-0.54678 -0.063,-0.18132 -0.1282,-0.36163 -0.1986,-0.54086 -0.071,-0.0878 -0.1455,-0.17352 -0.2248,-0.25775 -0.079,-0.0842 -0.1633,-0.16688 -0.251,-0.24761 -0.088,-0.0807 -0.1792,-0.15935 -0.2747,-0.23663 -0.095,-0.0773 -0.1939,-0.15261 -0.2965,-0.22648 -0.1027,-0.0739 -0.2095,-0.14668 -0.3187,-0.21719 -0.1091,-0.0705 -0.2211,-0.13901 -0.3363,-0.2062 -0.1152,-0.0672 -0.2336,-0.13298 -0.3541,-0.19691 -0.1205,-0.0639 -0.2431,-0.12604 -0.3685,-0.18676 -0.2507,-0.12145 -0.5104,-0.23678 -0.7766,-0.34565 -0.2662,-0.10887 -0.5394,-0.21093 -0.8164,-0.30761 -0.2769,-0.0967 -0.5579,-0.18809 -0.8409,-0.27297 -0.283,-0.0849 -0.5677,-0.164 -0.8518,-0.23747 -0.2842,-0.0735 -0.5679,-0.14123 -0.8485,-0.20366 -0.2806,-0.0625 -0.5577,-0.11893 -0.8299,-0.17071 -0.2721,-0.0518 -0.5387,-0.0988 -0.7977,-0.14029 -0.259,-0.0415 -0.5103,-0.0782 -0.7513,-0.10987 -0.241,-0.0316 -0.4714,-0.0581 -0.6896,-0.0803 -0.2182,-0.0222 -0.4246,-0.0394 -0.6153,-0.0524 -0.1906,-0.0131 -0.3655,-0.0219 -0.5238,-0.0262 -0.1584,-0.004 -0.2998,-0.004 -0.421,0 z"
       style="fill:#262100;stroke:#000000;stroke-width:0"
       id="path2" />
    <path
       d="m 1009.8949,593.71595 a 2.1634376,2.1634376 0 0 0 -0.3085,0.022 2.1634376,2.1634376 0 0 0 -0.3008,0.0659 2.1634376,2.1634376 0 0 0 -0.2899,0.10732 2.1634376,2.1634376 0 0 0 -0.2705,0.14789 2.1634376,2.1634376 0 0 0 -0.2476,0.18508 2.1634376,2.1634376 0 0 0 -0.218,0.21803 2.1634376,2.1634376 0 0 0 -0.1851,0.24762 2.1634376,2.1634376 0 0 0 -0.1479,0.27042 2.1634376,2.1634376 0 0 0 -0.1081,0.28987 2.1634376,2.1634376 0 0 0 -0.065,0.3017 2.1634376,2.1634376 0 0 0 -0.022,0.30761 2.1634376,2.1634376 0 0 0 0.022,0.30762 2.1634376,2.1634376 0 0 0 0.065,0.3017 2.1634376,2.1634376 0 0 0 0.1081,0.28902 2.1634376,2.1634376 0 0 0 0.1479,0.27127 2.1634376,2.1634376 0 0 0 0.1851,0.24676 2.1634376,2.1634376 0 0 0 0.218,0.21888 2.1634376,2.1634376 0 0 0 0.2476,0.18424 2.1634376,2.1634376 0 0 0 0.2705,0.14874 2.1634376,2.1634376 0 0 0 0.2899,0.10732 2.1634376,2.1634376 0 0 0 0.3008,0.0659 2.1634376,2.1634376 0 0 0 0.3085,0.022 2.1634376,2.1634376 0 0 0 0.3075,-0.022 2.1634376,2.1634376 0 0 0 0.3018,-0.0659 2.1634376,2.1634376 0 0 0 0.289,-0.10732 2.1634376,2.1634376 0 0 0 0.2713,-0.14874 2.1634376,2.1634376 0 0 0 0.2467,-0.18424 2.1634376,2.1634376 0 0 0 0.2189,-0.21888 2.1634376,2.1634376 0 0 0 0.1843,-0.24676 2.1634376,2.1634376 0 0 0 0.1478,-0.27127 2.1634376,2.1634376 0 0 0 0.1082,-0.28902 2.1634376,2.1634376 0 0 0 0.066,-0.3017 2.1634376,2.1634376 0 0 0 0.022,-0.30762 2.1634376,2.1634376 0 0 0 0,-0.10648 2.1634376,2.1634376 0 0 0 -0.01,-0.10564 2.1634376,2.1634376 0 0 0 -0.013,-0.10563 2.1634376,2.1634376 0 0 0 -0.018,-0.1048 2.1634376,2.1634376 0 0 0 -0.024,-0.10309 2.1634376,2.1634376 0 0 0 -0.028,-0.10226 2.1634376,2.1634376 0 0 0 -0.034,-0.10141 2.1634376,2.1634376 0 0 0 -0.038,-0.0989 2.1634376,2.1634376 0 0 0 -0.043,-0.0972 2.1634376,2.1634376 0 0 0 -0.047,-0.0947 2.1634376,2.1634376 0 0 0 -0.052,-0.0921 2.1634376,2.1634376 0 0 0 -0.058,-0.0896 2.1634376,2.1634376 0 0 0 -0.061,-0.087 2.1634376,2.1634376 0 0 0 -0.065,-0.0837 2.1634376,2.1634376 0 0 0 -0.07,-0.0803 2.1634376,2.1634376 0 0 0 -0.074,-0.0769 2.1634376,2.1634376 0 0 0 -0.077,-0.0736 2.1634376,2.1634376 0 0 0 -0.081,-0.0693 2.1634376,2.1634376 0 0 0 -0.083,-0.065 2.1634376,2.1634376 0 0 0 -0.087,-0.0617 2.1634376,2.1634376 0 0 0 -0.09,-0.0566 2.1634376,2.1634376 0 0 0 -0.092,-0.0524 2.1634376,2.1634376 0 0 0 -0.096,-0.0474 2.1634376,2.1634376 0 0 0 -0.097,-0.0431 2.1634376,2.1634376 0 0 0 -0.099,-0.0388 2.1634376,2.1634376 0 0 0 -0.1006,-0.033 2.1634376,2.1634376 0 0 0 -0.1022,-0.0279 2.1634376,2.1634376 0 0 0 -0.1039,-0.0236 2.1634376,2.1634376 0 0 0 -0.1049,-0.0177 2.1634376,2.1634376 0 0 0 -0.1047,-0.0135 2.1634376,2.1634376 0 0 0 -0.1065,-0.008 2.1634376,2.1634376 0 0 0 -0.1057,-0.003 z"
       style="fill:#ffffff;stroke-width:0.432688"
       id="path1" />
    <path
       id="Pfad_1394"
       data-name="Pfad 1394"
       d="m 966.503,478.8 -33.584,48.381 21.6,-4.2 -5.446,41 31.164,-58.9 -22.147,4.728 z"
       fill="#dfe54e"
       style="stroke:#878787;stroke-opacity:1;stroke-width:1.2;stroke-dasharray:none;fill:#ff794b;fill-opacity:0.86666667" />
    <text
       id="Headache_"
       data-name="Headache "
       fill="#42210b"
       font-size="66px"
       font-family="goingtodogreatthings"
       letter-spacing="0.035em"
       x="1329.799"
       y="413.211"><tspan
         x="1329.799"
         y="465.211"
         id="tspan4"
         style="font-style:normal;font-variant:normal;font-weight:normal;font-stretch:normal;font-family:'Ink Free';-inkscape-font-specification:'Ink Free';fill:#ffffff;fill-opacity:1">Headache</tspan></text>
    <text
       id="Nausea_Vomiting_"
       data-name="Nausea &amp; Vomiting "
       transform="translate(1185.544,251.098)"
       fill="#42210b"
       font-size="66px"
       font-family="goingtodogreatthings"
       letter-spacing="0.035em"><tspan
         x="0"
         y="52"
         id="tspan5"
         style="font-style:normal;font-variant:normal;font-weight:normal;font-stretch:normal;font-family:'Ink Free';-inkscape-font-specification:'Ink Free'">Nausea &amp; Vomiting</tspan></text>
    <text
       id="Unusual_Fatigue_Drowsiness_"
       data-name="Unusual Fatigue/Drowsiness "
       fill="#42210b"
       font-size="55px"
       font-family="goingtodogreatthings"
       letter-spacing="0.035em"
       x="20.888"
       y="417.15601"><tspan
         x="170.59198"
         y="460.15601"
         id="tspan6"
         style="font-style:normal;font-variant:normal;font-weight:normal;font-stretch:normal;font-family:'Ink Free';-inkscape-font-specification:'Ink Free';fill:#feffff;fill-opacity:1">Unusual Fatigue/</tspan></text>
    <line
       id="Linie_1"
       data-name="Linie 1"
       x2="1920"
       transform="translate(0.5,362.5)"
       fill="none"
       stroke="rgba(112,112,112,0.67)"
       stroke-width="1" />
    <line
       id="Linie_2"
       data-name="Linie 2"
       x2="152"
       transform="translate(614.5,453.5)"
       fill="none"
       stroke="#707070"
       stroke-width="1"
       style="stroke-width:1.9;stroke-dasharray:none;stroke:#ffffff;stroke-opacity:1" />
    <g
       id="g18"
       style="stroke:#ffffff;stroke-opacity:1">
      <path
         id="Pfad_1395"
         data-name="Pfad 1395"
         d="M1106.25,8577.847l47.25,59.653"
         transform="translate(0,-8184)"
         fill="none"
         stroke="#707070"
         stroke-width="1"
         style="stroke-width:1.9;stroke-dasharray:none;stroke:#ffffff;stroke-opacity:1" />
      <line
         id="Linie_5"
         data-name="Linie 5"
         x2="152"
         transform="translate(1153.5,453.5)"
         fill="none"
         stroke="#707070"
         stroke-width="1"
         style="stroke-width:1.9;stroke-dasharray:none;stroke:#ffffff;stroke-opacity:1" />
    </g>
  </g>
</svg>
