<?xml version="1.0" encoding="UTF-8" standalone="no"?>
<!-- Created with Inkscape (http://www.inkscape.org/) -->

<svg
   width="30mm"
   height="30mm"
   viewBox="0 0 30 30"
   version="1.1"
   id="svg1"
   sodipodi:docname="percent.svg"
   inkscape:version="1.3 (0e150ed6c4, 2023-07-21)"
   xmlns:inkscape="http://www.inkscape.org/namespaces/inkscape"
   xmlns:sodipodi="http://sodipodi.sourceforge.net/DTD/sodipodi-0.dtd"
   xmlns="http://www.w3.org/2000/svg"
   xmlns:svg="http://www.w3.org/2000/svg">
  <sodipodi:namedview
     id="namedview1"
     pagecolor="#505050"
     bordercolor="#eeeeee"
     borderopacity="1"
     inkscape:showpageshadow="0"
     inkscape:pageopacity="0"
     inkscape:pagecheckerboard="0"
     inkscape:deskcolor="#d1d1d1"
     inkscape:document-units="mm"
     inkscape:lockguides="true"
     inkscape:zoom="2.0384476"
     inkscape:cx="4.905694"
     inkscape:cy="7.1132562"
     inkscape:window-width="1920"
     inkscape:window-height="1008"
     inkscape:window-x="-8"
     inkscape:window-y="-8"
     inkscape:window-maximized="1"
     inkscape:current-layer="layer1" />
  <defs
     id="defs1">
    <rect
       x="-0.34688495"
       y="0.69376989"
       width="113.43138"
       height="112.04384"
       id="rect1" />
  </defs>
  <g
     inkscape:label="Layer 1"
     inkscape:groupmode="layer"
     id="layer1">
    <path
       style="font-size:85.3333px;line-height:1.24;font-family:'Ink Free';-inkscape-font-specification:'Ink Free';letter-spacing:0px;white-space:pre;stroke:none;stroke-width:0.463821;stroke-linecap:round;stroke-linejoin:round;stroke-dasharray:0.463821, 1.39146;paint-order:stroke fill markers;stroke-opacity:1;fill:#1a1a1a;fill-opacity:1"
       d="m 17.510423,12.624196 c -0.343021,1.108222 -0.897133,2.625432 -1.662334,4.551629 -0.131932,0.343022 -0.488146,1.292927 -1.068644,2.849717 -0.554111,1.530403 -3.562462,6.93715 -3.905484,8.256464 -0.158318,0.527724 -0.712429,0.791587 -1.6623345,0.791587 -0.4221804,0 -0.6332706,-0.422181 -0.6332706,-1.266541 0,-0.131931 2.9423861,-5.063725 3.7075891,-6.831605 1.451244,-3.298282 2.651818,-6.266737 3.601723,-8.905363 0.949906,-2.6650121 1.424858,-5.9014527 1.424858,-7.8540359 0,-0.395794 -0.116973,-0.6454388 -0.158317,-0.8311676 -0.404841,-1.8188618 0.917719,-2.58457085 1.820653,-1.8206518 0.290248,0.3694076 0.435373,0.9630982 0.435373,1.7810725 0,1.4776309 -0.633271,5.1890238 -1.899812,9.2788948 z"
       id="text1" />
    <path
       d="m 11.855449,1.8702494 c -0.538143,0.1074259 -0.958856,0.3372571 -1.262128,0.689494 -0.282687,0.3216099 -0.386208,0.6737483 -0.310541,1.0564118 0.04035,0.2040871 0.208634,0.4489328 0.504849,0.734534 0.321836,0.2804867 0.497889,0.4972649 0.528154,0.6503289 0.126106,0.6377722 -0.08384,1.4619598 -0.629856,2.4725664 C 10.13991,8.4841895 9.4583988,9.4157697 8.6413924,10.268327 7.8449693,11.090259 7.2033108,11.549822 6.7164195,11.647018 6.3832811,11.713528 6.0940314,11.66518 5.8486666,11.502008 5.5982591,11.313353 5.4327002,11.014925 5.3519887,10.606752 5.0745462,9.2036536 5.2579666,7.841143 5.9022511,6.5192254 6.5671153,5.1666804 8.0406159,2.9410987 8.6517984,2.6314046 9.2034812,2.3184426 9.6769139,1.9764783 9.7054228,1.7218542 9.7343635,1.4633888 9.4967863,1.2244451 9.2308393,1.0919092 8.9598497,0.93386138 8.2270468,0.94935408 7.7657765,1.0414338 7.30451,1.1335133 6.2417543,1.8373412 5.5054593,3.0980734 4.7947905,4.3536905 4.2091234,5.7699781 3.7484582,7.346939 c -0.4350391,1.5718464 -0.5491479,2.880744 -0.342327,3.926688 0.1967325,0.994926 0.5658858,1.716771 1.1074598,2.165537 0.5415737,0.448766 1.0942464,0.616877 1.6580174,0.504335 1.1787944,-0.235312 2.2799669,-0.916466 3.3635615,-1.984078 1.0232171,-0.919284 1.9158441,-1.9861297 2.7237231,-3.8054174 0,0 1.477582,-3.2205653 1.122008,-4.4027222 -0.355574,-1.1821569 -1.525452,-1.881032 -1.525452,-1.881032 z"
       style="font-size:85.3333px;line-height:1.24;font-family:'Ink Free';-inkscape-font-specification:'Ink Free';letter-spacing:0px;white-space:pre;stroke:none;stroke-width:1.73189;stroke-linecap:round;stroke-linejoin:round;stroke-dasharray:1.73189, 5.19566;paint-order:stroke fill markers;stroke-opacity:1;fill:#1a1a1a;fill-opacity:1"
       id="path1"
       sodipodi:nodetypes="cssssccscsccscscsscsccsc" />
    <path
       d="m 26.911122,15.598835 c -0.543962,0.17614 -0.951559,0.464074 -1.222787,0.86381 -0.25363,0.365682 -0.318129,0.741011 -0.193472,1.12598 0.06647,0.205315 0.270301,0.437052 0.611466,0.695203 0.367064,0.249765 0.575528,0.451644 0.62539,0.605629 0.20776,0.641614 0.09028,1.516144 -0.35246,2.623595 -0.442731,1.107447 -1.035271,2.149981 -1.777617,3.1276 -0.724751,0.943567 -1.333205,1.495033 -1.825361,1.654397 -0.336738,0.109041 -0.641961,0.09445 -0.915672,-0.04377 -0.282016,-0.163873 -0.48951,-0.45113 -0.622475,-0.861762 -0.457068,-1.411551 -0.432228,-2.837373 0.0745,-4.277456 0.524331,-1.474137 0.89476,-3.402556 2.177199,-4.297002 1.203126,-0.352729 1.283533,-1.027372 1.266913,-1.078702 -0.08311,-0.256645 -0.270302,-0.437052 -0.561606,-0.541216 -0.299611,-0.129828 -0.68254,-0.11926 -1.1488,0.03172 -0.466255,0.150971 -1.949312,1.021148 -2.558691,2.409402 -0.583474,1.379865 -1.018118,2.910026 -1.303926,4.590484 -0.259906,1.672069 -0.219495,3.034232 0.121214,4.086477 0.324103,1.000921 0.793591,1.699564 1.40846,2.095932 0.61487,0.396369 1.207238,0.50229 1.777104,0.317762 1.191541,-0.385825 2.24875,-1.221461 3.240967,-2.453044 0.94769,-1.071445 1.742348,-2.278998 2.358173,-4.251324 0,0 1.139262,-3.497246 0.628084,-4.671704 C 28.20655,16.1764 26.911104,15.598849 26.911104,15.598849 Z"
       style="font-size:85.3333px;line-height:1.24;font-family:'Ink Free';-inkscape-font-specification:'Ink Free';letter-spacing:0px;white-space:pre;stroke:none;stroke-width:1.80055;stroke-linecap:round;stroke-linejoin:round;stroke-dasharray:1.80055, 5.40163;paint-order:stroke fill markers;stroke-opacity:1;fill:#1a1a1a;fill-opacity:1"
       id="path1-5"
       sodipodi:nodetypes="cssssccscsccscscsscsccscc" />
  </g>
</svg>
