<?xml version="1.0" encoding="UTF-8" standalone="no"?>
<svg
   width="1920"
   height="2100"
   viewBox="0 0 1920 2099.9999"
   version="1.1"
   id="svg7"
   sodipodi:docname="waves-blue.svg"
   inkscape:version="1.3.2 (091e20e, 2023-11-25, custom)"
   inkscape:export-filename="..\..\Website\HG-website\svg\waves.svg"
   inkscape:export-xdpi="96"
   inkscape:export-ydpi="96"
   xmlns:inkscape="http://www.inkscape.org/namespaces/inkscape"
   xmlns:sodipodi="http://sodipodi.sourceforge.net/DTD/sodipodi-0.dtd"
   xmlns="http://www.w3.org/2000/svg"
   xmlns:svg="http://www.w3.org/2000/svg">
  <sodipodi:namedview
     id="namedview7"
     pagecolor="#505050"
     bordercolor="#eeeeee"
     borderopacity="1"
     inkscape:showpageshadow="0"
     inkscape:pageopacity="0"
     inkscape:pagecheckerboard="0"
     inkscape:deskcolor="#d1d1d1"
     inkscape:zoom="0.35355339"
     inkscape:cx="767.91796"
     inkscape:cy="1158.2409"
     inkscape:window-width="1920"
     inkscape:window-height="1147"
     inkscape:window-x="1912"
     inkscape:window-y="-8"
     inkscape:window-maximized="1"
     inkscape:current-layer="svg7"
     showguides="true"
     showgrid="false">
    <inkscape:grid
       id="grid48"
       units="px"
       originx="0"
       originy="-683.28217"
       spacingx="1"
       spacingy="1"
       empcolor="#0099e5"
       empopacity="0.30196078"
       color="#0099e5"
       opacity="0.14901961"
       empspacing="5"
       dotted="false"
       gridanglex="30"
       gridanglez="30"
       visible="false" />
  </sodipodi:namedview>
  <defs
     id="defs2" />
  <path
     id="path48-2"
     style="display:inline;opacity:0.2;fill:#6599ff;fill-opacity:0.8;stroke-width:2.22771;stroke-linecap:round;stroke-linejoin:round;stroke-dashoffset:0.9578;paint-order:stroke fill markers"
     d="m 1540.8207,3.295845 c -69.7489,-0.0587 -143.3456,7.888076 -217.4753,28.32675 C 984.4666,125.05655 924.55482,128.71113 777.41006,117.71889 630.26527,106.72666 493.39241,31.597862 308.34671,26.101735 210.95846,23.209182 89.805059,51.553533 -3.8555559,79.035458 L -3.7667993,2100.7035 H 1923.7007 l 0.251,-2023.2283 C 1845.3753,47.167468 1704.1825,3.433333 1540.8207,3.295845 Z"
     sodipodi:nodetypes="ssssccccs" />
  <path
     id="rect48"
     style="opacity:0.726054;fill:#2f478f;fill-opacity:0.929412;stroke-width:1.65212;stroke-linecap:round;stroke-linejoin:round;stroke-dashoffset:0.9578;paint-order:stroke fill markers"
     d="m 1504.7867,178.14647 c -262.081,-62.82745 -393.0914,92.80074 -752.32585,95.465 C 619.74343,274.59576 451.41253,225.21618 284.72104,221.86042 118.02953,218.50466 -6,255.57404 -6,255.57404 v 5.03364 82.21614 1755.89398 h 1928 c -0.1928,-61.5171 0,-1795.04434 0,-1856.5668 -89.1019,5.12678 -229.8354,-19.08531 -417.2133,-64.00453 z"
     sodipodi:nodetypes="sssccccccs" />
  <path
     id="path48-2-5"
     style="display:inline;opacity:0.8;fill:#3c3d7b;fill-opacity:0.823529;stroke-width:2.16432;stroke-linecap:round;stroke-linejoin:round;stroke-dashoffset:0.9578;paint-order:stroke fill markers"
     d="M 269.55847,102.72124 C 183.94544,97.156884 93.689477,79.412063 -3.9218529,62.380363 L -3.8886252,2095.2156 1923.8781,2098.9321 V 97.685403 C 1828.4679,117.50651 1726.1232,109.67791 1654.6313,97.897514 1487.4869,70.355475 1365.7396,-4.0509301 1057.5835,21.626336 744.24514,47.735409 555.99181,111.6221 269.55847,102.72124 Z"
     sodipodi:nodetypes="sccccsss" />
</svg>
