<?xml version="1.0" encoding="UTF-8" standalone="no"?>
<svg
   width="1920"
   height="300"
   viewBox="0 0 1920 300"
   version="1.1"
   id="svg7"
   sodipodi:docname="waves.svg"
   inkscape:version="1.3 (0e150ed6c4, 2023-07-21)"
   inkscape:export-filename="..\..\Website\HG-website\svg\waves.svg"
   inkscape:export-xdpi="96"
   inkscape:export-ydpi="96"
   xmlns:inkscape="http://www.inkscape.org/namespaces/inkscape"
   xmlns:sodipodi="http://sodipodi.sourceforge.net/DTD/sodipodi-0.dtd"
   xmlns="http://www.w3.org/2000/svg"
   xmlns:svg="http://www.w3.org/2000/svg">
  <sodipodi:namedview
     id="namedview7"
     pagecolor="#505050"
     bordercolor="#eeeeee"
     borderopacity="1"
     inkscape:showpageshadow="0"
     inkscape:pageopacity="0"
     inkscape:pagecheckerboard="0"
     inkscape:deskcolor="#d1d1d1"
     inkscape:zoom="0.5"
     inkscape:cx="1098"
     inkscape:cy="229"
     inkscape:window-width="1920"
     inkscape:window-height="1008"
     inkscape:window-x="-8"
     inkscape:window-y="-8"
     inkscape:window-maximized="1"
     inkscape:current-layer="svg7"
     showguides="true"
     showgrid="false">
    <inkscape:grid
       id="grid48"
       units="px"
       originx="0"
       originy="-683.28217"
       spacingx="1"
       spacingy="1"
       empcolor="#0099e5"
       empopacity="0.30196078"
       color="#0099e5"
       opacity="0.14901961"
       empspacing="5"
       dotted="false"
       gridanglex="30"
       gridanglez="30"
       visible="false" />
  </sodipodi:namedview>
  <defs
     id="defs2" />
  <path
     id="path48-2"
     style="display:inline;opacity:0.590288;fill:#9999ff;fill-opacity:0.8;stroke-width:2.22771;stroke-linecap:round;stroke-linejoin:round;stroke-dashoffset:0.9578;paint-order:stroke fill markers"
     d="m 1540.8207,3.295845 c -69.7489,-0.0587 -143.3456,7.888076 -217.4753,28.32675 C 984.4666,125.05655 924.55482,128.71113 777.41006,117.71889 630.26527,106.72666 493.39241,31.597862 308.34671,26.101735 210.95846,23.209182 89.805059,51.553533 -3.8555559,79.035458 L -3.7667993,270.7035 H 1923.7007 l 0.251,-193.2283 C 1845.3753,47.167468 1704.1825,3.433333 1540.8207,3.295845 Z"
     sodipodi:nodetypes="ssssccccs" />
  <path
     id="rect48"
     style="fill:#68478d;fill-opacity:1;stroke-width:1.52176;stroke-linecap:round;stroke-linejoin:round;stroke-dashoffset:0.9578;paint-order:stroke fill markers"
     d="M 1506.7867,117.88353 C 1244.7057,64.57938 1113.6953,196.61766 754.46085,198.87808 621.74343,199.71317 453.41253,157.81848 286.72104,154.97138 120.02953,152.12428 -4,183.57474 -4,183.57474 v 4.27064 69.75393 23.11852 h 1928 c -0.1928,-52.19242 0,-56.33452 0,-108.53149 -89.1019,4.34967 -229.8354,-16.19238 -417.2133,-54.30281 z"
     sodipodi:nodetypes="sssccccccs" />
  <path
     id="path48-2-5"
     style="display:inline;opacity:0.61305;fill:#68478d;fill-opacity:1;stroke-width:2.16432;stroke-linecap:round;stroke-linejoin:round;stroke-dashoffset:0.9578;paint-order:stroke fill markers"
     d="M 269.55847,102.72124 C 183.94544,97.156884 93.689477,79.412063 -3.9218529,62.380363 L -3.8886252,275.21559 1923.8781,278.9321 V 97.685403 C 1828.4679,117.50651 1726.1232,109.67791 1654.6313,97.897514 1487.4869,70.355475 1365.7396,-4.0509301 1057.5835,21.626336 744.24514,47.735409 555.99181,111.6221 269.55847,102.72124 Z"
     sodipodi:nodetypes="sccccsss" />
  <ellipse
     cx="958.86499"
     cy="-188.67116"
     rx="270.845"
     ry="333.77802"
     fill="none"
     id="ellipse6"
     style="display:none" />
</svg>
