<?xml version="1.0" encoding="utf-8"?>
<!-- Generator: Adobe Illustrator 28.0.0, SVG Export Plug-In . SVG Version: 6.00 Build 0)  -->
<svg version="1.1" id="Ebene_1" xmlns="http://www.w3.org/2000/svg" xmlns:xlink="http://www.w3.org/1999/xlink" x="0px" y="0px"
	 viewBox="0 0 1002 881" style="enable-background:new 0 0 1002 881;" xml:space="preserve">
<style type="text/css">
	.st0{fill:#FFFFFF;}
	.st1{fill:#F297FF;}
	.st2{fill:#F57F80;}
	.st3{fill:#B7294E;}
	.st4{fill:#E56A75;}
	.st5{fill:#D45063;}
	.st6{fill:#E46672;}
	.st7{fill:#45272A;}
	.st8{fill:#710731;}
	.st9{fill:#E25F4D;}
	.st10{fill:#D54645;}
	.st11{fill:#F69969;}
	.st12{fill:#F2885A;}
	.st13{fill:#FDAE7B;}
	.st14{fill:#F8A977;}
	.st15{fill:#FABF96;}
	.st16{fill:#F9B68A;}
	.st17{fill:#F27C58;}
	.st18{fill:#F7A06F;}
	.st19{fill:#F59062;}
	.st20{fill:#48282B;}
	.st21{fill:none;stroke:#FFFFFF;stroke-miterlimit:10;}
	.st22{fill:#F79885;}
	.st23{fill:#42210B;}
	.st24{fill:none;stroke:#42210B;stroke-linecap:round;stroke-miterlimit:10;}
	.st25{opacity:0.43;fill:#FACCFF;stroke:#FFFFFF;stroke-width:3;stroke-miterlimit:10;}
	.st26{fill:#FF176C;}
</style>
<path class="st0" d="M483.4,271.7l4.2-52.7l-81.5,2l-2.9,49.7c-4.9,4-36.2,19-36.2,19l104.7,45.6l68.5,33.8l9.8-14.9l-6.7-31.8
	l-15.6-16.9l-19.7-15.9C507.9,289.6,493.2,281.7,483.4,271.7z"/>
<path class="st0" d="M323.5,354.7c0,0-1.8,22.4,0,39.6c1.8,17.2,2.9,89.5,3.7,104.1c0.8,14.6-0.9,19,2.2,31s65.2,42.8,66.1,53.4
	c0.9,10.6,18-24.6,19.5-41.7c1.5-17.2-33.8-49.2-32.5-57.1c1-5.9,8.8-45.2,8.2-63.3c-0.7-18.5-5.7-91.4-5.7-90.1
	C384.9,331.9,323.5,354.7,323.5,354.7z"/>
<g>
	<path class="st1" d="M579,666.7c9.2-6.9,26.6-47,27.9-84.6c1.1-30.3,0.2-44.4-7-77c-4-18-14.9-77.3-15.6-77.8
		c1.1-1,2.6-2.3,3.1-2.8c5.6-4.7,10-10.2,12.5-17.1c4.7-13.1,1.5-25.1-4.8-36.7c-7.6-14-19-24.9-30.5-35.3
		c-15.3-13.9-31.4-26.8-47.1-40.1c-0.3-0.2-0.7-0.3-1.1-0.5c3.6,6.2,7.2,12.3,12,17.3c8.2,8.4,13.8,18,16.5,29.3
		c1.1,4.6,1.3,9.4,1.9,14.1c-0.6,0.3-1.4,1.4-1.9,0.9c-2.9-2.9-4.5-4.5-15.2-15.2c-4-3.9,4.4,9.8,7.6,14.1c-1.4-0.1-3.5,0-3.8-0.1
		c-27.1-13.5-50.8-28.8-77.9-42.3l-13.7-6.7c-2.9-1.2-5.6-2.5-8.3-3.6c-12.9-5-19-2.4-32.1-6.9c-7.8-2.7-16.2-3.6-24.2-5.8
		c-7.8-2.2-8.7-2.4-16.4,0.4c-13.5,4.8-35.2,27-38.2,41c-0.2,1.1-4.8,35.7-2.6,35.7c2.2,0,43.4-0.7,48.8-0.2
		c12.4,1.2,49,76.8,48.7,79.2c0.7,9.1-6.4,62.4-17.2,86.5c-0.5,3.6-14,15.6-13.4,15.1l-14,15.2c-10.6,10.6-20.7,28-27.7,39.9
		c-14.6,24.8-22.6,51.4-23.3,80.2c-0.4,16.8,1.1,33.5,3.9,50c1.9,10.9,3.5,22.1,7.1,32.5c5.8,16.9-0.1,33.3,7,49.7
		c4.6,10.5,10.5,20.3,19.4,27.8c5.4,4.6,11.5,7.3,19,6c1.5-0.3,11.7-4.1,12.5-4.7c10.4-7,20.9-8.7,31-16c24.6-18,51-26.6,81.8-30
		c8-0.9,16.3-2.1,24.3-1.2c22.2,2.4,15.3,1.1,37.5,3.7c9.4,1.1,19-3.5,28.3-6.3c5.4-1.7,11-3.4,14.2-8.9c3.9-6.8,3.3-13.8,1.1-20.7
		c-2.1-6.5-5.1-12.8-7.7-19.1c-6.6-16.3-13.9-25.4-19.7-42.1c-3.3-9.6-4.4-19.9-6.5-30C574.9,670.3,576.5,668.5,579,666.7z"/>
</g>
<path class="st2" d="M585.1,574.8c1.9,25-1,48.8-15.1,70.5c-8.2,12.6-17.5,23.9-30,32.3c-5.4,3.6-8.5,8.6-10.3,14.7
	c-0.8,2.7-1.9,5.3-3,7.9c-2.3,5.4-5.4,6.3-10.4,3.2c-3.6-4.5-2-9.4-0.7-14c1.7-6.1,5.2-11.3,9.4-16c1.3-1.5,3-2.5,4.8-3.4
	c19.3-9.4,32.6-24,39.1-44.8c5.2-16.6,7-33.6,5.3-50.7c-0.9-9.5-5.1-18.1-10.5-26c-1-1.5-2.3-2.9-2.9-4.6
	c-1.9-5.8-6.9-8.4-11.8-10.8c-7.9-3.9-16.6-4.2-25.1-2.9c-12.6,2-22.6,8.4-30.9,18.1c-7.8,9.1-13.9,19.2-18.2,30.3
	c-3.1,8.1-4.8,16.6-4.9,25.4c0,1.1,0,2.2,0.7,3.2c0.2,0.5,0.3,1,0.2,1.5c-0.7,1-0.4,2,0.2,3c0.4,1.3,0.3,2.7,0.1,4
	c-0.5,1.2-0.1,2.2,0.6,3.2c1.1,4.5,1.6,9.1,2.7,13.6c3.2,12.5,10.8,21.9,20.1,30.3c4,3.6,8,7.1,10.7,12c0.8,1.5,1.5,3.1,1.1,4.9
	c-0.4,3.5-0.9,7-1.9,10.4c-1.1,4-3.3,7.4-6.1,10.3c-2.4,2.5-4.7,2.5-7.3,0.4c-1-4.2-2.7-8.4-2.8-12.6c-0.1-8.2-4-13.9-8.9-20
	c-5.5-6.8-9.9-14.5-14.1-22.2c-4.4-7.8-6.9-16.4-6.9-25.4c0-7.4,0.4-14.9,1.4-22.3c1.7-12.3,6.1-23.9,12.3-34.7
	c6.8-12,14.4-23.4,26.8-30.3c9.2-5.2,18.8-9.8,29.7-9.9c20.1-0.1,38.3,6.4,48.9,27.6C580.3,556.9,585.1,574.7,585.1,574.8z"/>
<path class="st3" d="M561.5,543.5c6.6,8.6,11.5,18.1,13.4,28.7c1,5.5,0.8,11.2,0.6,16.8c-0.2,6.3-0.4,12.7-1.5,18.9
	c-2.6,14.9-6.6,29.5-16.4,41.4c-6.9,8.4-15,16-25.3,20.3c-5.5,2.3-9.1,6.2-11.6,11c-2.5,4.6-4.1,9.8-5.3,15
	c-0.5,2.2,0.9,4.9,1.4,7.3c1.7,3,4.8,4,7.7,5.2c-1.5,1.1-3,2.1-4.5,3.2c-3,0.8-4.3-1.5-5.4-3.4c-3.2-5.4-4.5-11.3-3.5-17.5
	c0.1-0.8,0.6-1.5,0.2-2.3c0,0.9-0.5,1.6-0.7,2.4c-1,3.5-1.6,7.1-3.5,10.3c-1.7,2.9-3.7,5.5-6.4,7.5c-1.3,1-2.7,2.2-4.6,1.3
	c-2.3-1-3.5-2.8-4.1-5.1c7.6-0.6,10-6.3,12-12.3c1.4-4.1,1.8-8.3,1.6-12.7c-1.9-3.4-3.3-7.3-5.8-10.2c-5.5-6.3-11.8-11.8-17.2-18.2
	c-4.4-5-7.5-10.9-8.7-17.7c-0.9-5-2-9.9-2.9-14.9c0-2-0.7-5.6-0.8-7.3c-0.3-1.7,0-3.2,0-3.7c-1.4-4.4-0.4-8.7,0.5-12.9
	c3.7-19.1,12.7-35.8,26.8-49c15.3-14.4,33.5-18.5,53.6-10.8C555.5,536.4,559.2,539.2,561.5,543.5z"/>
<path class="st4" d="M524.4,708.1c-5.1-0.1-6.4-1-7.7-5.2c5.5,2.6,7.2,1.9,9.4-4.1c1.5-4.1,3-8.2,4.5-12.3
	c2.3-6.3,8.1-9.2,12.9-12.9c10.3-7.7,18-17.5,25-28.2c6.1-9.5,10.9-19.5,13.3-30.4c2.7-12.2,3.4-24.7,3.1-37.3c0-1,0-2,0.1-2.9
	c0.5,5.3,1.5,10.7,1.3,16c-0.3,7.6-1.2,15.2-2.2,22.7c-1.5,11.1-5.7,21.2-11.4,30.8c-6.5,11-13.6,21.4-23.8,29.5
	c-2.6,2-4.9,4.5-7.7,6.1c-5.8,3.4-9,8.5-11.2,14.6C528.5,699.2,526.4,703.6,524.4,708.1z"/>
<path class="st5" d="M496.1,709.6c7-2.8,10.6-8.3,12.5-15.3c0.8-2.8,1.4-5.6,2.2-8.4c0.1-0.5,0.7-0.8,1.1-1.2
	c0.2,0.6,0.5,1.1,0.5,1.7c0,4.3-0.7,8.7-0.1,12.9c0.8,4.8,2,9.9,7.5,11.9c-1.9,1.3-3.7,3.2-5.8,3.7
	C507.3,716.3,501.1,714.7,496.1,709.6z"/>
<path class="st6" d="M505.7,679.4c2,6.1-0.1,11.6-2.2,17.1c-0.6,1.7-2,3-2.9,4.6c-2,3.3-4.7,4.7-8.5,3.3c-0.3-1.2-0.7-2.4-1-3.6
	c2.9,1.3,5.1,0.8,7.3-1.8c4.2-4.9,5.9-10.7,6.6-16.9C505,681.2,505.4,680.3,505.7,679.4z"/>
<path class="st6" d="M561.5,543.5c-7.6-8.1-17-11.1-27.9-11.3c-15.8-0.3-28.3,6.2-38.7,17.4c-10.3,11.1-17.7,24-21.7,38.6
	c-1.7,6.2-2,12.9-2.9,19.3c-0.4-1.1-1.3-2.2-1.3-3.3c0.1-13.9,4-26.8,10.8-38.8c6.2-10.9,13.3-21.3,24-28.3c8.5-5.5,17.8-9,28.4-8.4
	c5.8,0.4,11.6,0.4,16.7,3.2c4,2.2,7.6,5.2,11.1,8C560.9,540.6,561,542.3,561.5,543.5z"/>
<path class="st7" d="M552.2,629.1c-2.7-3.8-5.6-7.4-8.4-11.1c-1.4-1.9-2.3-4-2.3-6.4c0.1-3.1,2.2-4.4,4.9-2.8
	c1.5,0.8,2.6,2.2,3.7,3.5c0.9,1.2,1.7,2.4,2.8,3.4c1.5,1.3,3.1,2.8,5.2,2c2.1-0.8,2.9-2.8,3.1-5c0.2-2.1,0-4.1-0.5-6.2
	c0-0.2,0-0.4,0-0.6c-0.2-1.8-0.6-3.6-0.5-5.4c0.1-2.2,0.2-4.7,1.2-6.6c0.8-1.5,3-1.9,4.7-2c2.3-0.1,4.7,0.4,4.8,3.1
	c0.2,4,0.5,8-0.3,11.9c-2.1,10.7-5.1,21.2-10.6,30.8c-8.4,14.6-19.5,26-36.4,30.4c-0.8,0.2-1.7,0.1-2.5,0.2L510,668
	c0,0-11.2-6.8-15-10c-9.7-8.2-17.5-18.5-18.7-30.8c-0.7-7.7-1.1-15.4-0.7-23.1c0.7-12.9,4.4-25.1,10.7-36.4
	c6.8-12.3,16.8-21.7,29.5-27.7c15.4-7.2,25.2-7.8,37.2,6c8.2,9.4,8.9,15.7,6,30c-2,3.9-1.9,9-3.3,13.1c-2.1,6.2-1.3,11.6,1.3,16.9
	c0.7,0.7,2.8,4,3,5c0.4,2.4,1.2,2.4-0.9,3.9c-2.2,1.6-4.1-0.1-5.9-1.5c-1-0.7-1.9-1.5-2.6-2.5c-0.2-0.3-0.4-0.6-0.6-0.9
	c-0.5-0.8-1-1.7-1.6-2.4c-0.2-0.2-0.4-0.5-0.6-0.7c-0.3-0.5-0.7-0.9-1.2-1.3c-0.3-0.2-0.5-0.4-0.7-0.5c-1.2-0.7-2.4-0.4-3.6,0.1
	c-1.6,0.7-2.3,2.1-2.8,3.6c-0.4,1.1-0.5,3.2-0.5,4.2c0,0,3.2,6.1,3.7,7c1.3,2.2,3.1,4,4.8,5.8l0,0c0.5,0.4,3.2,3.6,3.5,4.2
	c0,0,0.7,1.3,1,2l1-1L552.2,629.1z"/>
<path class="st7" d="M551.2,643.4"/>
<path class="st8" d="M562.2,581.7c1.7-4.1,1.9-15.6,3.7-19.7c0.8-1.6,5,6,5.8,8.9c1,3.8,2.1,7.2,0,10.8
	C568.6,584.6,565.4,582.8,562.2,581.7z"/>
<path class="st5" d="M562.2,581.7c2,0.2,4.1,0.4,6.1,0.5c1.2,0,2.3-0.3,3.5-0.4c2.7,1.4,1.5,3.6,0.6,5.2c-0.5,0.8-2.7,1.6-3.5,1.1
	c-4-2.2-6.6-0.4-9.1,2.4c-0.3,0.3-0.7,0.6-1,0.8c0-0.5-0.3-1-0.1-1.4C559.8,587.2,561,584.4,562.2,581.7z"/>
<path class="st9" d="M549.5,609.5c1.5,1.4,2.8,3,4.4,4.2c2.8,2,4.9,1.1,5-2.4c0.1-1.8-1.8-4-2-5.8c0.5,0,2.3,0.5,2.8,0.5l0,0
	c0.8,2.9,1.8,5.9,0.3,8.8c-1.3,2.7-3.4,3.4-6,1.8c-1.6-1-3.1-2-4.2-3.5C549.1,612,548.3,610.9,549.5,609.5z"/>
<path class="st3" d="M550.2,610.3c0,0,4.1,5.3,6.3,5.7c2.2,0.4,4.7-2.1,4.3-4.3c-0.2-1.4-0.3-2.9-0.5-4.3c2.4,2.8,2,5.7,0.2,8.5
	c-1.4,2.2-3.8,2.7-6.4,1.2c-1.8-1-3.2-2.5-4.8-3.9c-0.2-0.2-3.4-4.2-6.5-3.3c-1.5,0.4-1.1,3.9,0.7,5.9c3,3.3,6.1,6.5,9.1,9.8
	c3.5,3.9,3.8,7.8,0.4,11.9c-0.1-0.1-0.3-0.2-0.4-0.3c-0.5-2.6,0.7-5.3-1.3-7.7c-0.1-0.2-0.2-0.5-0.4-0.7c-0.3-0.4-0.6-0.8-1-1.1
	c-0.2-0.2-0.3-0.4-0.4-0.6c-0.2-0.3-0.3-0.6-0.5-0.9c-0.2-0.2-0.3-0.4-0.5-0.5c-0.3-0.2-0.5-0.5-0.8-0.7c-0.2-0.2-0.3-0.4-0.5-0.6
	c-0.2-0.3-0.4-0.6-0.7-0.9c-0.2-0.2-0.4-0.4-0.5-0.6c-2.9-2.9-3.8-2.3-6.2-5.6c-0.3-0.5-2-4.7-2.3-5.1c0.7-2.3,0.3-5.2,4.3-5.8
	c1.6-0.6,4.3,0.3,4.5,0.6C547.6,607.1,550.2,610.3,550.2,610.3z"/>
<path class="st3" d="M521.8,639.1c-0.3-0.5-0.6-0.9-0.8-1.4l0.2-0.1C522.3,637.6,522.3,638.2,521.8,639.1L521.8,639.1z"/>
<path class="st9" d="M547.2,622.5c-1.6-1.3-3.1-2.6-4.7-3.9c-0.9-0.8-1.8-1.6-2.6-2.4l0,0c-0.4-0.8-1.1-4-1.2-4.6
	C541.6,615.2,544.3,619,547.2,622.5z"/>
<path class="st9" d="M550.8,637.4c2.2-2.7,1.3-5.5,0.8-8.3c3,2.5,2.8,5.3,1.4,8.2C552.3,637.3,551.6,637.3,550.8,637.4z"/>
<path class="st10" d="M528,597.5c-0.7,0-0.8-0.1-1.2-0.3c-0.2-0.1-0.3-0.4-0.4-0.6c0.2-0.1,0.7,0.2,0.9,0.2c0.5,0.1,2.3-0.1,2.8,0
	c0.6,0.1-0.3,0,0.3,0.1C529.7,597.2,528.7,597.5,528,597.5z"/>
<path class="st11" d="M515.7,589.5c5.5,1.1,10.3,2.1,15.1,3.2c2,0.4,2.4,1.6,1.5,3.6c-0.4,1-0.9,1.9-1.6,2.8
	c-1.3,1.8-3.4,2.3-4.7,0.7c-3.3-3.8-7.1-2.9-11.1-2.1c-2.7,0.6-4.7-0.5-5.3-2.8c-0.4-1.6-0.4-3,1.6-3.6
	C513.1,590.7,514.8,589.9,515.7,589.5z"/>
<path class="st12" d="M507.1,653.1c-2.6-3.1-5.2-6.3-7.9-9.3c-2.5-2.9-5.4-5.4-6.5-9.5c-0.8-2.9-0.8-5.4,1.4-7.4
	c0.8-0.8,0.8-1.1,0.2-1.8c-0.2-0.2-0.3-0.4-0.3-0.7c0.1-0.3,0.3-0.4,0.5-0.6c1.9,0,3.8,0,5.6-0.8c1.9-1,3.5-2.2,5-3.7
	c1.9-1.9,3-3.9,2.2-6.8c0-0.1,0-0.2,0-0.4c0-0.3,0-0.5,0.1-0.7c0.2-0.3,0.5-0.5,0.8-0.7c0.2-0.1,0.4-0.3,0.6-0.4
	c0.8-0.6,0.3-1.1,1.1-1.7c0.2-0.2,1.5-0.4,1.7-0.6c3.1-0.9,7.8,1.6,8.6,2.5c0.8,2.2,0.1,3.6-2.1,4.1c-0.7,0.2-1.3,0.2-2,0.1
	c-3.6-2-3.6-2-5.8,2c-0.7,1.3-1.4,2.5-2.4,3.5c-1.2,1.3-1,2.2,0.2,3.4c1.7,1.7,4.1,2.6,5.5,4.7c0.5,0.5-2.1,1.1-2.5,2.5
	c-0.1,0.3,0.2,2.2,0.5,2.4c0.4,0.2,0.5-0.4,0.6-0.6c1.6-3.1,2.9-3.4,6.2-1.4c0.3,0.3,0.6,0.8,0.8,1.2c0.5,0.7,1,1.2,1.6,1.8
	c0.4,0.4,0.9,0.8,0.8,1.6c-0.4,0.9-0.9,1.6-1.7,2.1c-3.8,2.5-7.7,1.4-11.6,0.1c-0.9-0.3-1.7-0.8-2.6-1.2c-1.4-0.7-1.4-2.3-2.1-3.6
	c-0.7-1.3-1-2.9-2.1-4c-0.2-0.2-0.3-0.4-0.4-0.6c-0.3-0.5-0.7-0.9-1.2-1.3c-3-1-5.1,0.6-5.2,3.8c-0.1,3.4,1.6,6.1,3.7,8.5
	c1.9,2.2,3.9,4.3,6.3,6c1,1.2,2.1,2.4,3,3.7c1.8,2.6,1.8,2.5,2.9-0.3c2.9-0.5,4.2,1.5,5.4,3.7c0.1,0.3,0,0.5-0.1,0.8
	c-0.6,0.8-1.6,0.7-2.4,1.1c-1.9-0.4-3.9-0.7-5.8-1.1C507.4,653.6,507.2,653.3,507.1,653.1L507.1,653.1z"/>
<path class="st13" d="M519.8,610.5c-0.8,0.4-1.8-0.1-2.3-0.3c-0.8-0.4-1.1-0.8-1.9-1c-1.4-0.4-1.5-1.1-3-1.2c-0.4-1-1.5-1.3-2.6-2.2
	c-5.6-4.8-7.1-10.9-5-18.2c1.7-5.4,3.7-10.8,7.2-15.2c0.2-0.3,0.5-0.6,0.4-0.9c-0.2-0.6-0.7-0.3-1.1-0.3c-2.6,0.1-4.6,1.8-6.7,3.2
	c-0.6,0.4-1,1.3-1.9,1.1c0,0-0.1-0.1-0.1-0.2c0-0.1,0-0.2,0.1-0.3c1.5-5.2,4.6-9.3,9.4-10.9c2.4-0.8,4.5-1.5,6.5-1.5
	c0.6,1.9,1.8,2.8,3.7,3c2.5,0.3,4.8,1.7,7.2,2.7c5.3,3.9,6.6,9.8,6.6,16.2c0,0.8-0.1,1.6-0.2,2.4c-0.6,2.2-1.2,4.4-1.9,6.6
	c-0.3,0.9-0.7,1.9-0.8,2.8c-0.3,4.5-2.5,7.8-5.8,10.4c-0.2,0.2-0.4,0.6-0.5,0.9c-0.3,0.6-0.8,1-1.4,1.3
	C524,610,522.2,611.9,519.8,610.5z"/>
<path class="st14" d="M494.2,624.1c0,0.3,0,0.7,0,1c-2.5-1.1-2.5-3.5-1.9-5.5c1.9-5.8,4-11.6,6.4-17.2c0.6-1.4,2.3-2.3,3.5-3.5
	c1.8,0.5,2.2,2,2.4,3.7c-3.9,3.6-7.1,7.7-9.1,12.9c-0.2,0.6-0.5,1.1-0.5,1.8c0.7,0,0.8-0.8,1.3-1.1c0.3-0.3,0.7-0.6,1.1-0.7
	c1-0.2,1.9-0.7,2.9-0.1c1.1,2.8,1.1,5.5,0,8.2C498.4,624.6,496.3,625,494.2,624.1"/>
<path class="st11" d="M502.9,574.9c3-2.1,5.8-4.6,9.6-4.6c0.4,0,0.9,0.2,1.3,0.3c0.1,0,0,0.7-0.2,0.9c-4,4.6-6,10.3-8.2,15.9
	c-0.5-0.1-0.9-0.5-1.2-0.9c0-0.1-0.1-0.2-0.1-0.3c0-0.1,0-0.2,0-0.3c0-0.3,0.1-0.5,0-0.8c0-0.2-0.1-0.3-0.2-0.4
	c-0.1-0.1-0.2-0.2-0.3-0.3c0,0-0.2-0.1-0.2-0.1c-0.2,0-0.3,0.1-0.4,0.2c-0.1,0.1-0.3,0.2-0.4,0.3c-0.4,0.3-1.2,5.1-1.3,0.3
	C501.9,581.8,502.4,578.4,502.9,574.9z"/>
<path class="st12" d="M504.4,586.4c0.3,0.4,0.7,0.7,1,1.1c-0.2,2.6-0.8,5.2-0.7,7.7c0.2,4.2,2.5,7.3,5.5,9.9
	c1.3,1.1,4.8,3.5,3.7,5.1l-2.9-1.3c-0.6,0.4-1.3,0.8-2.1,0.7c-2.1-1.8-3.7-4-4.6-6.7c-0.7-1.3-1.4-2.6-2.2-3.9c-0.3-4-0.6-8-0.9-12
	c0.6-0.9,0.9-1.9,1.5-2.7l0,0c0.4-0.3,0.7-0.3,1.1,0l0,0c0.2,0.2,0.3,0.4,0.5,0.6l0,0c0.3,0.4,0.3,0.8,0,1.1l0,0
	C504.2,586.2,504.2,586.1,504.4,586.4z"/>
<path class="st14" d="M530.1,612.6c0.2,0.4,0.4,0.8,0.6,1.1c0.3,0.4,0.2,1,0.4,1.4c0.3,0.9,0.7,1.7,1,2.5c0.1,0.3,0.2,0.5,0.2,0.8
	c0.3,2,0.7,3.9,0.6,6c-0.1,1,0.1,2.1-1,2.6c-1.8-0.8-2.7-2.4-3.4-4.2c-1.5-4.1-1.6-8.6-2.8-12.7c-0.2-0.6,0.1-1.3,0.4-1.8
	c0.4-0.2,0.9-0.3,1.3-0.5C528.2,609.4,529.2,611,530.1,612.6z"/>
<path class="st15" d="M536.3,587c-0.2-1.8-0.3-3.6-0.5-5.4c-0.7-4.9-2-9.6-6.1-12.6c-0.7-1.6-0.8-2.7,0-3.8c3.1,1.1,4.5,3.8,5.5,6.8
	C536.7,576.9,537.9,581.9,536.3,587z"/>
<path class="st16" d="M529.6,565.1c-0.3,1.3,0.3,2.5,0,3.8c-3-0.9-6.1-1.8-9.1-2.8c-1.7-0.5-1.8-2-1.6-3.5
	C522.5,563.2,529.3,564.9,529.6,565.1z"/>
<path class="st17" d="M518.3,654.2c-0.1,0.7-4.1,0.8-5,0.7c0-0.2,2.4-1.5,2.4-1.7c0.2-1.5-1.4-2.2-1.5-3.5c-0.1-0.8-0.1-1.5,0.1-2.3
	c0.4-1-0.3-1.2-1-1.5c-2.2-0.9-4.4-1.6-6.4-2.8c-1.3-2.1-2.2-4.3-1.4-6.9c1.7,0.6,3.4,1,5,1.7c3.3,1.4,6.4,0.9,9.4-0.6
	c1.2,2-0.1,3.9-0.4,5.8c-0.2,1.1-1.4,2.2-0.1,3.2c1.2,1,2.2,0.1,3.2-0.7c1.9-1.5,3.4-3.5,4.6-5.7c0.8,0.1,2.2-0.3,2.2,0.9
	c-1.4,1.9-3.4,4.3-4.8,6.2c-1.1,1.6-2.1,3.4-3.4,4.9C520.4,652.8,519.3,653.4,518.3,654.2z"/>
<path class="st11" d="M504.4,602.8c1.5,2.2,3.1,4.4,4.6,6.5c0.6,0.8,0,1.2-0.5,1.7l0,0c-0.3,0.3-0.8,0.2-1,0.6c0,0.1,0,0.3,0,0.4
	l-0.1,0.1l0.1,0c1.3,3.9,0.4,6.2-3.7,9.3c-1.1,0.8-2.3,1.4-3.5,2.2c-0.2-2.7-0.4-5.5-0.6-8.2c-0.2-1.3,1.4-0.8,1.5-1.8
	c-0.6,0.6-1.4,0.9-2.1,1.4c-0.6,0.5-1.4,0.5-2,1.1c-0.6,0.7-1.2,1.5-1.9,2.2c-0.2,0.3-0.6,0.4-1,0.5c-0.1-0.3-0.3-0.7-0.2-1
	c1.9-6,4.7-11.3,9.7-14.9C504.1,602.8,504.3,602.8,504.4,602.8z"/>
<path class="st18" d="M504.5,646c-4.9-3.6-9.6-7.4-10.3-14.3c-0.4-3.4,2.2-6.2,5.2-5.7c0.4,0.1,0.7,0.9,1,1.3c0.3,0.4,0.7,0.8,1,1.2
	l0,0c2.4,4.8,3.2,10.1,4.3,15.4C505.5,644.7,505.8,645.9,504.5,646z"/>
<path class="st11" d="M526,608.3c1.7,6.3,1.2,13.3,5.7,18.6c0.8,1.6,0,2.4-1.3,2.9c-1-0.2-1.6-0.8-2.1-1.7c-0.7-2.1-2.3-3-4-3.9
	c-2-1.1-3.7-2.4-5.7-3.5c-0.8-0.4-1.4-1-1.5-2c0-0.3,0.4-0.6,0.1-0.9c-0.1-0.2-0.2-0.4-0.4-0.6c-0.9-2.5-0.9-2.5,1.1-2.4
	c1,1,2,2.1,2.6,3.5c0.6,1.3,1.5,2.1,2.6,2.7c0.2,0.1,0.2,0.4,0.5,0.4c0.1,0,0-0.1-0.2-0.2c-0.3-0.1,0.1,0-0.2-0.2
	c-1.2-0.7-2.2-1.6-2.8-3c-0.6-1.2-1.3-2.3-2.3-3.1c-0.1-0.1-0.2-0.3-0.2-0.4c0-0.2,0-0.2,0.1-0.2c1.9-0.5,2.4-1.9,2.1-3.9
	C521.9,609.7,524,609,526,608.3z"/>
<path class="st11" d="M513.2,628.7c-2-1.6-4-3.2-6.1-4.8c-1.2-0.9-1.4-2-0.5-3.2c1.4-2,2.8-4,4.2-6c2.2-3.2,2.2-3.2,4.8-0.4
	c0.7,0.9,0.1,1.4-0.5,1.9c-0.5,0.3-1.1,0.3-1.6,0.7c-0.3,0.2-0.5,0.5-0.6,0.8c-0.6,3.2-0.4,3.6,3.1,4.9c0.6,0.3,1.3,0.4,2,0.6
	c0.2,0.1,0.4,0.3,0.5,0.4c0.5,0.9,0.8,1.9,1.6,2.6c0.2,0.2,0.3,0.3,0.4,0.5c0.3,0.3,0.5,0.6,0.8,0.9c0.2,0.1,0.3,0.3,0.5,0.5
	c0.5,0.6,1.3,1,1.3,2c-0.2,1.3-0.5,2.3-2,2.1c-1.8-0.7-2.8-2.7-4.7-3.3c-0.2-0.1-0.4-0.1-0.6-0.1c-0.3,0.1-1.5,0.2-1.8,0.3
	C513.4,629.1,513.7,629.1,513.2,628.7z"/>
<path class="st16" d="M505,643.8c-0.7-2.9-1.3-5.9-2-8.8c-0.5-2.1-1-4.3-1.5-6.4c1,1.8,2.1,3.7,3.1,5.5c0.4,0.7,0.6,1.4,1,2.1
	c0.6,2.2,1.2,4.4,1.9,6.6c0.8,0.9,1.6,1.7,2.2,2.8c0.3,0.5,0.8,1,0.6,1.7c-0.3,0.5-0.7,0.8-1.2,0.8C506.4,648,506,645.6,505,643.8z"
	/>
<path class="st19" d="M505,643.8c0.5,0.7,1,1.6,1.6,2.2c0.7,0.7,1.6,1.2,2.4,1.8c0.7,0.4,1.7,0.3,1.6,1.6c0,0.6,0.1,1.3,0,1.9
	c-0.1,0.5-0.3,1.1-0.7,1.2c-0.3,0.1-1-0.1-1.3-0.4c-1.4-1.9-2.8-4-4.2-6C504.6,645.3,504.8,644.5,505,643.8z"/>
<path class="st14" d="M510.6,649.3c-0.5-0.5-1-1.1-1.6-1.6c0.4-0.2,0.7-0.4,1.1-0.6c1.9,0,3.2,1.3,4.5,2.6c0.1,1.3,2.5,1.7,1.1,3.5
	C514,651.9,512.3,650.6,510.6,649.3z"/>
<path class="st16" d="M521.6,635c0.2,0.4,0.5,0.7,0.7,1.1c0.3,1.9-0.5,3.7-1,5.5c-0.3,1.1-0.9,2.2-2.4,1.5c0.4-2.1,0.8-4.2,1.2-6.3
	C520.6,636.2,521.1,635.6,521.6,635z"/>
<path class="st11" d="M514.7,616.1c0.3-0.6,0.7-1.2,1-1.8c0.7,0,1.4,0,2.1,0c0,0.2,0.1,0.3,0.1,0.5l-0.1,0.1c-0.8,0-0.9,0.5-0.9,1.2
	c0,0.5,0.3,1,0.4,1.5c-0.3,0.3-0.6,0.4-1,0.3c-0.7-0.2-1.4-0.4-1.8-1.1C514.5,616.5,514.5,616.3,514.7,616.1z"/>
<path class="st16" d="M501.4,628.5c-0.3-0.4-0.7-0.8-1-1.2C500.7,627.7,501,628.1,501.4,628.5z"/>
<path class="st13" d="M507.5,611.6c0.3-0.2,0.7-0.4,1-0.6C508.2,611.2,507.9,611.4,507.5,611.6z"/>
<path class="st16" d="M526.8,589.3c-1.3-0.2-2.8-0.2-4-0.8c-1-0.5-2.3-1.5-2.6-2.6c-0.5-1.9-0.5-4-0.6-6c1.7,0,3.5-0.3,5.1-0.1
	c2.4,0.3,4.9,0.4,6.4,3.1c0.8,1.5,1.5,2.9,0.5,4.2c-0.8,1-2.3,1.4-3.6,2c-0.4,0.2-0.8,0-1.3,0C526.9,589.2,526.8,589.2,526.8,589.3z
	"/>
<path class="st11" d="M497.2,616.1c1.3-1.3,2.6-2.6,3.9-3.8c0.1-0.1,0.6,0.2,0.7,0.4c0.6,2-1.1,2-2,2.7
	C498.9,615.6,498.1,615.9,497.2,616.1z"/>
<path class="st11" d="M518.9,643.1c0.8-1.1,1.7-2.1,2.2-3.2c0.6-1.2,0.8-2.5,1.2-3.8c1.9,1.2,3.8,2.4,5.7,3.6c-0.2,2.3-5,7.9-7,7.8
	c-0.9,0-2.3-0.7-2.6-1.4C518.1,645.3,518.7,644.1,518.9,643.1z"/>
<path class="st10" d="M509.2,646.1c-0.6-1.1-1.2-2.3-1.9-3.4c2.5,0.9,4.9,1.8,7.4,2.8c0.2,0.1,0,1,0,1.6
	C512.7,647.9,511,646.9,509.2,646.1z"/>
<path class="st20" d="M509.2,646.1c1.8,0.3,3.7,0.7,5.5,1c0,0.8-0.1,1.7-0.1,2.5c-1.5-0.9-3-1.7-4.5-2.6
	C509.9,646.8,509.5,646.4,509.2,646.1z"/>
<path class="st13" d="M516.2,617.6c0.3,0,0.7,0,1-0.1l0,0c0.1,0.1,0.2,0.3,0.1,0.4c0,0.1-0.1,0.2-0.1,0.2c2,1.6,3.9,3.2,5.9,4.7
	c1.4,1,2.9,1.8,4.3,2.9c0.6,0.5,0.8,1.4,1.1,2.2c-1.5,1-3.3,1-4.9,1.5c-0.9-0.3-1.7-0.7-2.3-1.5l0,0c-0.4-0.4-0.7-0.7-1-1.1l0,0
	c-0.7-1.1-1.3-2.2-2.1-3.3l0,0c-0.5-0.6-1-0.3-1.5-0.8c-0.8-0.7-2.5-0.3-3-1.6C513.5,619.1,514.2,617.9,516.2,617.6z"/>
<path class="st15" d="M523.4,629.1c1.7-0.4,3.4-0.7,5.2-1.1c0.5,0.6,1.1,1.1,1.6,1.7c0.4,1,0.7,2,1.1,2.9c-1.1,0.1-1.6-1-2.4-1.4
	c-1.5-1-2.7-0.4-3.8,0.9c-0.7,0.8-1.3,2.1-2.7,1.4c-0.4-0.5-0.9-1.1-1.3-1.6c0.6-0.8,1.3-1.5,1.9-2.3
	C523,629.4,523.2,629.2,523.4,629.1z"/>
<path class="st9" d="M526.6,619.8c0,0.7-0.1,0.9,0,1.6c0,0.5,0.2,1,0.3,1.5c-0.6-0.3-1.3-0.5-1.8-0.9c-0.1-0.1,0.3-0.9,0.3-1.4
	c0-1.9-0.1-3.8-0.2-5.7c0-0.4,0.1-0.9,0.1-1.3c0.2,0.4,0.5,0.7,0.6,1.2C526.1,616.3,526.7,619.8,526.6,619.8z"/>
<path class="st9" d="M523.4,621.4c-1-0.8-2.2-1.4-3.1-2.4c-1-1.2-1.7-2.7-2.6-4.1l0.1-0.1c0.7,0.7,1.6,1.3,2.2,2.1
	C521.2,618.3,522.3,619.9,523.4,621.4L523.4,621.4z"/>
<path class="st9" d="M523.5,621.4c0.1,0.1,0.1,0.2,0.2,0.3C523.6,621.6,523.5,621.5,523.5,621.4L523.5,621.4z"/>
<path class="st9" d="M523.4,629.1c-0.2,0.2-0.3,0.4-0.5,0.6c-0.5-0.6-1-1.1-1.6-1.7C522.1,628.3,522.7,628.7,523.4,629.1z"/>
<path class="st9" d="M516.8,622.8c-0.9-0.5-1.7-0.9-2.6-1.4c-0.7-1.2-0.7-2.7-1.2-4c0.2-0.2,0.3-0.6,0.3-0.9c0,0-0.1-0.1-0.1-0.1
	c0.1,0.1,0.2,0.2,0.3,0.3c0.5,0.2,1,0.2,1.3-0.3c0-0.1,0-0.2,0-0.4c-0.5,0.1-0.8-0.1-1.4,0.1c0,0-0.2,0.3-0.2,0.3
	c-0.2,0.2-0.3,0.4-0.5,0.6c-1.5,3.8,1.4,5.1,3.5,5.8C516.7,623,516.7,623,516.8,622.8z"/>
<path class="st11" d="M512.6,617.6c0.2-0.2,0.4-0.9,0.6-1.1c0.5,0,1-0.1,1.5-0.1c0.5,0.4,1,0.8,1.5,1.2c-1.3,0.9-2.4,1.9-2.1,3.8
	C513.3,619.8,513.1,619.1,512.6,617.6z"/>
<path class="st12" d="M529.1,630.7c0.7,0.6,1.5,1.3,2.2,1.9l0,0c0,0.4,0.2,0.8,0.2,1.3c-0.2,1.3-0.3,2.6-0.5,3.9
	c-1.5-0.5-3-1-4.5-1.5C526.9,634.2,527.3,632.1,529.1,630.7z"/>
<path class="st4" d="M531.4,633.9c-0.1-0.4-0.1-0.8-0.2-1.3C531.3,633.1,531.4,633.5,531.4,633.9z"/>
<path class="st11" d="M529.1,630.7c-0.9,1.9-1.8,3.7-2.6,5.6c-1.4-0.9-2.7-1.8-4.1-2.8c0.7-0.7,1.5-1.3,2.2-2
	C525.9,630.2,527.3,629,529.1,630.7z"/>
<path class="st3" d="M522,636c0,0-1.2-1.4-2-2c0,0-1.9-2.7-3-3c-2.4-0.6-3.4-0.2-4,2c-0.2,0.7-1.8,0.7-2,0c-0.3-1-0.9-2.1,0-3
	c0.9-0.9,6-2.2,6-2c1.2,1.1,4.4,3.4,5,5c0,0,3.8,2.7,3.8,2.7l5.1,1.7c5.8,3.2,11.4,4.2,17.7,1.7c0.3-0.1,0.7-0.7,1-0.8
	c0.5-0.2,0.3-0.5,0.8-0.9c0.2-0.2,0.5-0.3,0.8-0.4c0.6-0.1,1.2-0.1,1.7,0.2c0.1,0.1,0.2,0.1,0.3,0.2c-2.8,4.1-7.1,5.7-12.6,5.6
	c-1.6,0-7.7-1.6-8.5-2C528.5,641.4,522,636,522,636z"/>
<path class="st9" d="M539.3,639.6c2.6,0.6,6.7-0.3,10-0.5c-4.9,2.8-13.3,2.6-19-0.2c-1.7-0.9-3.4-0.8-4.4-1.9c2.3,1.1,4,0.5,6,1
	C533.8,638.8,537.5,638.8,539.3,639.6z"/>
<g>
	<g>
		<line class="st21" x1="567.5" y1="581.6" x2="681" y2="581.6"/>
		<g>
			<path class="st0" d="M567.7,585.3c-2.1,0-3.8-1.7-3.8-3.8s1.7-3.8,3.8-3.8s3.8,1.7,3.8,3.8S569.8,585.3,567.7,585.3z"/>
		</g>
	</g>
</g>
<g>
	<path class="st0" d="M706.7,554.4c0,0.2,0,0.7-0.1,1.4c0,0.7-0.1,2.5-0.2,5.3c0,0,0.1-0.1,0.2-0.2c0,0,0.1-0.1,0.2-0.2
		c5.1-5.3,9.3-7.4,12.7-6.4c1,0.3,1.9,1,2.5,2.2c0.6,1.2,1,2.5,1.2,4c0.2,1.5,0.2,2.8,0.2,4c0,1.2-0.1,2.2-0.2,3
		c-0.2,1.1-0.7,2.6-1.5,4.4c-0.7,1.8-1.8,3.5-3,5.2c-1,1.3-2.1,2.4-3.5,3.4c-1.4,0.9-2.6,1.4-3.8,1.5c-1.4,0.1-2.6-0.3-3.6-1.1
		c-0.7-0.5-1.3-1-1.7-1.5c-0.1,9.8-0.1,15.9,0,18.2c0,0.6,0.1,1,0.1,1.3c0,0.7,0.1,1.1,0.1,1.2c0,0.4-0.3,0.8-0.7,1.1
		c-0.4,0.3-0.7,0.3-1,0c-0.3-0.2-0.4-0.7-0.4-1.4c0-0.1,0-0.3,0.1-0.6c0.1-0.3,0.1-0.4,0.1-0.5c0-0.5,0.1-2.1,0.1-4.8
		c0-2.8,0.1-5.6,0.1-8.6c0-3,0.1-4.6,0.1-4.9c0-0.9,0.1-2,0.1-3.2v-0.1c-0.3-0.8-0.4-1.4-0.4-1.8c0-0.7,0.1-1.3,0.5-1.8
		c0-1.6,0-3.3,0-5.2c0-5.2,0-9.1-0.1-11.7c0-0.7-0.1-1-0.1-1.2c-0.1-0.5-0.1-0.8-0.1-1c0.1-0.8,0.4-1.2,1-1.2
		C706.4,553.2,706.7,553.6,706.7,554.4z M706.4,564.2c0,2.5-0.1,5.6-0.1,9.3c0.1,0.4,0.3,1,0.4,1.8c0,0.2,0,0.4,0,0.8s0,0.6,0.1,0.7
		c0.2,1.4,0.8,2.4,1.7,3.1c0.6,0.5,1.4,0.7,2.5,0.6s2.1-0.3,3-0.9c1.4-0.9,2.6-2,3.7-3.3c1-1.3,1.8-2.4,2.2-3.1
		c0.5-0.9,0.9-2.1,1.3-3.6c0.4-1.5,0.7-3.3,0.9-5.4c0.2-2.1,0.1-4.2-0.4-6.3c-0.1-0.7-0.6-1.3-1.4-1.7c-0.8-0.4-1.6-0.6-2.4-0.6
		c-1.5,0.1-3,0.7-4.4,1.5c-1.9,1.2-3.5,2.6-4.8,4.2c-0.4,0.4-0.7,0.8-0.8,1.1c-0.4,0.7-0.6,1-0.6,1.1
		C706.9,563.8,706.7,564.1,706.4,564.2z"/>
	<path class="st0" d="M731,554.9c0,0.1,0,0.6,0,1.3c-0.1,1-0.2,4.3-0.4,9.9c-0.1,5.6-0.2,8.9-0.3,9.8c-0.6,11.8-0.8,18.7-0.8,20.8
		c0,0.6,0.1,1,0.1,1.3c0,0.1,0.1,0.2,0.1,0.4c0,0.2,0,0.3,0,0.4c0,0.1,0,0.2,0,0.3c0,0.4-0.3,0.8-0.7,1.1s-0.7,0.3-1,0.1
		c-0.3-0.2-0.4-0.7-0.4-1.4c0-0.1,0-0.3,0.1-0.6c0.1-0.3,0.1-0.4,0.1-0.5c0-0.6,0.2-3.6,0.5-9.1c0.3-5.5,0.4-8.4,0.5-8.6
		c0.1-2.4,0.3-6.3,0.4-11.6c0.1-5.3,0.1-9.1,0-11.3c0-0.5-0.1-0.9-0.1-1.1c-0.1-0.5-0.1-0.8-0.1-1c0-0.8,0.4-1.2,1-1.2
		C730.5,553.7,730.9,554.1,731,554.9z"/>
	<path class="st0" d="M752.9,574.2c0,0,0,0.5-0.1,1.4c0,2.2,0.2,5.5,0.6,9.9c0.4,3.7,0.7,6.6,1,8.6c0,0,0,0.2,0.1,0.6
		c0,0.3,0.1,0.6,0.1,0.8c0.1,0.8,0.2,1.2,0.2,1.3c0,0.5-0.3,0.9-0.7,1.2c-0.4,0.3-0.7,0.3-1,0.1c-0.3-0.3-0.4-0.8-0.5-1.5
		c0-0.1,0-0.3,0.1-0.6c0-0.3,0.1-0.5,0.1-0.6c0-1.4,0-3.1-0.2-5.2c-0.3-3.8-0.7-7.3-1.1-10.5c-0.2,0.8-0.4,1.7-0.6,2.6
		c-0.3,1.4-0.6,2.7-1,4.1c-1.1,3.9-2.7,7.6-4.9,11.1c-0.9,1.4-1.8,2.5-2.8,3.3c-1,0.8-1.8,1.1-2.6,1c-0.9-0.1-1.7-0.6-2.2-1.3
		c-0.6-0.7-0.9-1.4-1.1-2.1c-0.6-1.7-1-4.1-1.2-7.1c-0.3-3-0.2-6.9,0.1-11.8c0.7-7.2,2.5-12.3,5.2-15.1c1.1-1,2.3-1.4,3.7-1.3
		c1.4,0.1,2.7,0.7,3.9,1.5c1.1,0.8,2.1,2.1,3.1,3.6c0.3,0.5,0.6,1.2,0.9,2c0.3,0.9,0.5,1.5,0.5,2c0,0,0,0.1,0,0.1
		c0,0,0.1,0.1,0.1,0.2c0.1,0.2,0.1,0.6,0.1,1.2C752.9,573.8,752.9,574,752.9,574.2z M750.5,572.2c-0.1-0.8-0.2-1.5-0.3-2
		c-0.3-1-1-2.2-2-3.4c-1-1.3-2.2-2.1-3.6-2.6c-1.1-0.3-2.3,0.3-3.7,1.9s-2.4,3.6-3,5.9c-1.5,5.5-2.1,11.4-1.8,17.9
		c0.1,2.5,0.5,4.9,1.1,7.1c0.3,0.9,0.7,1.7,1.2,2.3c0.5,0.7,1,1,1.4,1c0.5,0,1.1-0.2,1.9-0.8c0.7-0.6,1.4-1.4,1.9-2.4
		c3.3-6,5.5-12.1,6.4-18.2c0.1-0.8,0.3-1.6,0.4-2.3c0-0.2,0.1-0.5,0.1-0.8s0-0.6,0.1-0.8c0-0.2,0.1-0.4,0.1-0.6
		c0-0.2,0.1-0.4,0.1-0.6C750.7,573.4,750.6,572.9,750.5,572.2z"/>
	<path class="st0" d="M773,575.8c0.2-0.9,0.3-1.7,0.4-2.3c0.2-2.5-0.3-4.5-1.5-5.8c-0.7-0.9-2-1.4-3.7-1.3c-1.7,0.1-3.1,0.7-4.2,1.8
		c-1.5,1.6-2.7,3.6-3.5,6.1c-0.8,2.5-1.2,4.9-1.4,7.2c-0.2,2.1-0.1,4.4,0.1,7c0.3,2.6,1,5,2.2,7c0.8,1.5,2,2.5,3.7,3.1
		c1.7,0.6,3.2,0.6,4.5,0.1c1.9-0.8,3.4-2.4,4.4-4.7c0.2-0.5,0.4-1.1,0.5-1.7c0-0.3,0.1-0.6,0.1-1c0-0.4,0.1-0.6,0.1-0.7
		c0.1-1,0.5-1.6,1.2-2c0.3-0.1,0.5-0.1,0.6,0.1c0.3,0.5,0.4,1.3,0.2,2.5c-0.1,0.4-0.3,1-0.6,1.9c-0.2,0.4-0.5,1-1.1,1.8
		c-0.5,0.7-1.2,1.6-2.1,2.6c-0.9,1-1.9,1.7-3.1,2.3c-1.2,0.6-2.4,0.8-3.6,0.7c-1.4-0.1-2.7-0.9-4-2.2c-1.3-1.3-2.2-2.6-2.8-3.8
		c-0.6-1.2-1-2.2-1.2-2.9c-1.1-5.4-1-10.9,0.5-16.7c0.6-2.5,1.7-4.7,3.4-6.6c1.6-1.9,3.4-3,5.2-3.5c1.2-0.3,2.3-0.1,3.5,0.5
		c1.2,0.6,2.1,1.4,2.8,2.3c0.7,1,1.2,2.5,1.4,4.3c0.1,0.5,0.1,1.2,0.1,2.2c0,1-0.1,1.7-0.2,2.1c-0.3,1-0.7,1.6-1.1,1.9
		c-0.4,0.3-0.7,0.2-0.9-0.3C772.8,577.5,772.8,576.8,773,575.8z"/>
	<path class="st0" d="M782.5,582.1c-1.2-0.4-2-0.7-2.5-1.1c-0.6-0.5-0.5-0.7,0.3-0.8c0.6-0.1,1.3-0.1,2.3,0.1
		c0.1-1.3,0.3-2.5,0.4-3.7c0.2-1.7,0.5-3.4,0.8-5c0.3-1.8,0.6-3.1,0.9-3.9c0.3-1,1.1-1.9,2.2-2.6c1.2-0.7,2.1-0.7,2.7-0.1
		c1.5,1.4,2.8,3.2,3.9,5.2c1.1,2,1.7,4,1.8,5.8c0,1.7-0.5,3.2-1.7,4.4c-1.2,1.2-2.5,2-3.9,2.3c-0.6,0.1-1.5,0.2-2.9,0.1
		c-1.4,0-2.4-0.1-3.1-0.3c0,0.3-0.1,0.7-0.1,1.1c-0.4,6.8,0.1,11.4,1.6,13.9c0.4,0.6,1.1,0.8,2.2,0.6c1-0.2,1.9-0.7,2.7-1.5
		c0.6-0.5,1.1-1.4,1.7-2.5c0.3-0.7,0.6-1.4,0.8-2.1c0.1-0.2,0.2-0.6,0.3-1.1c0.1-0.5,0.2-0.8,0.2-0.9c0.4-1,0.9-1.5,1.6-1.7
		c0.3-0.1,0.5,0,0.6,0.3c0.2,0.5,0.1,1.3-0.3,2.5c0,0-0.3,0.7-1,2l-0.2,0.4c-0.1,0.3-0.2,0.5-0.3,0.7c-0.1,0.2-0.2,0.5-0.5,0.8
		s-0.4,0.7-0.6,1c-0.2,0.3-0.5,0.6-0.8,1c-0.3,0.4-0.6,0.7-1,1.1c-0.4,0.3-0.8,0.7-1.2,1c-0.9,0.6-1.9,0.8-3,0.6
		c-1.1-0.2-2-0.7-2.6-1.5c-0.9-1.3-1.4-3.2-1.5-5.7C782.3,588.8,782.3,585.4,782.5,582.1z M784.1,580.4c1.2,0.3,2.5,0.5,3.8,0.6
		c1.6,0.1,2.9-0.1,3.8-0.6c0.7-0.3,1.4-0.9,1.8-1.9c0.5-0.9,0.6-1.9,0.4-3c-0.4-3.1-1.9-6.2-4.5-9.2c-1.2-1.4-2.2-1.5-2.9-0.4
		c-0.2,0.3-0.3,0.7-0.5,1c-0.1,0.3-0.2,0.6-0.3,0.8c0,0.2-0.1,0.4-0.1,0.7c0,0.3-0.1,0.4-0.1,0.5c-0.7,3.2-1.3,7.1-1.7,11.6
		C784,580.4,784.1,580.4,784.1,580.4z"/>
	<path class="st0" d="M802.5,566.4c0,0.1,0,0.4-0.1,1c-0.1,0.7-0.2,3.3-0.3,7.9c0.1-0.1,0.2-0.3,0.3-0.4c2-2.8,4.1-5.2,6.2-6.9
		c2.4-2,4.5-3,6.5-3c1.6,0,2.9,0.4,3.9,1.1c1,0.7,1.6,1.3,1.9,2c0.3,0.8,0.5,3.4,0.5,7.8c0.1,4.4,0.1,8.4,0,11.9
		c0,3.5-0.1,6.2-0.2,8.1c0,0.5,0,0.9,0,1.3c0,0.1,0,0.2,0,0.3c0,0.1,0,0.2,0,0.3c0,0.1,0,0.2,0,0.2c0,0.3-0.3,0.6-0.7,0.8
		c-0.4,0.2-0.7,0.2-1,0c-0.3-0.2-0.4-0.5-0.4-1c0-0.1,0-0.3,0.1-0.5c0.1-0.2,0.1-0.4,0.1-0.5c0.1-0.8,0.4-4.8,0.8-11.9
		c0.4-7.1,0.5-11.2,0.4-12.2c-0.2-2.6-0.8-4.4-1.7-5.2c-0.6-0.7-1.6-1-3-1c-1.4,0-2.7,0.3-4,1c-1.8,1.1-3.3,2.3-4.6,3.8
		c-1.3,1.4-2.3,2.8-2.9,4c-0.2,0.4-0.4,0.7-0.6,1.1c-0.2,0.5-0.3,0.8-0.4,0.9c-0.3,0.6-0.8,0.8-1.3,0.6c0,0-0.1,0-0.1-0.1
		c0,1.4-0.1,3-0.1,4.8c-0.3,8.6-0.3,13.9-0.2,15.8c0,0.4,0.1,0.7,0.1,1l0.1,0.8c0,0.3-0.3,0.6-0.7,0.8c-0.4,0.2-0.7,0.2-1,0
		c-0.3-0.2-0.4-0.5-0.4-1c0-0.1,0-0.2,0.1-0.4c0.1-0.2,0.1-0.3,0.1-0.4c0-0.3,0.1-1.5,0.2-3.5c0.1-2,0.1-4.1,0.2-6.3
		c0.1-2.2,0.1-3.4,0.1-3.7c0.1-2,0.2-4.9,0.2-8.8c0.1-3.9,0.1-6.7,0-8.6c0-0.5-0.1-0.7-0.1-0.8c-0.1-0.4-0.1-0.6-0.1-0.8
		c0-0.6,0.4-0.9,1-0.9C802.1,565.5,802.4,565.8,802.5,566.4z"/>
	<path class="st0" d="M830.8,558.8c0,0.2,0,0.8-0.1,1.7c-0.2,1.8-0.6,5.9-1,12.4c-0.1,2.2-0.3,4.2-0.4,5.9c0.4,0,0.9,0,1.3-0.1
		c1.8-0.1,3.3-0.2,4.5-0.4c0.4,0,0.6-0.1,0.7-0.1l0.6-0.1c0.3,0,0.5,0.3,0.7,0.7c0.2,0.4,0.2,0.8,0,1.1c-0.2,0.3-0.4,0.4-0.8,0.4
		c-0.1,0-0.2,0-0.3-0.1s-0.2-0.1-0.3-0.1c-0.6-0.1-1.5-0.1-2.7-0.1c-1.4,0-2.7,0-3.8,0.1c-0.1,2.6-0.2,4.5-0.3,5.6
		c0,0,0,0.6-0.1,1.6c0,1.1-0.1,2,0,2.8c0,0.8,0.1,1.8,0.2,3c0.1,1.1,0.4,2.2,0.8,3.1c0.4,0.9,1,1.6,1.7,2.1c0.7,0.5,1.9-0.4,3.6-2.6
		s2.8-3.9,3-5c0.1-0.5,0.2-1.1,0.2-1.6c0-0.2,0-0.5,0-0.8c0-0.3,0-0.5,0-0.6c0-0.5,0.2-0.9,0.5-1.3c0.3-0.4,0.6-0.5,1-0.3
		c0.4,0.3,0.6,0.9,0.6,1.9c0,0.2-0.1,0.8-0.3,1.6c-0.1,0.5-0.3,1-0.6,1.7c-0.2,0.7-0.6,1.6-1.1,2.7s-1.2,2.2-2,3.2
		c-0.9,1-1.8,1.8-2.8,2.3c-1,0.5-2.1,0.1-3.3-1.2c-1.2-1.3-1.9-2.8-2.2-4.5c-0.2-0.9-0.3-1.9-0.3-2.9c0-1.6,0-5.2,0.3-10.7
		c-0.8,0-1.5,0.1-2.2,0.3h-0.3c-0.1,0-0.3,0.1-0.3,0.1c-0.3,0.1-0.5,0.1-0.6,0.1c-0.5,0-0.8-0.4-0.7-1c0-0.6,0.3-1,0.7-1.1
		c0,0,0.3,0,0.7,0.1c0.7,0.1,1.6,0.1,2.7,0.1c0-1,0.1-2.1,0.1-3.2c0.4-8.2,0.6-13,0.6-14.3c0-0.7,0-1.1,0-1.4
		c-0.1-0.7-0.1-1.1-0.1-1.3c0.1-0.9,0.4-1.4,1-1.4C830.5,557.4,830.8,557.9,830.8,558.8z"/>
	<path class="st0" d="M862,574.2c0,0,0,0.5-0.1,1.4c0,2.2,0.2,5.5,0.6,9.9c0.4,3.7,0.7,6.6,1,8.6c0,0,0,0.2,0.1,0.6
		c0,0.3,0.1,0.6,0.1,0.8c0.1,0.8,0.2,1.2,0.2,1.3c0,0.5-0.3,0.9-0.7,1.2s-0.7,0.3-1,0.1c-0.3-0.3-0.4-0.8-0.5-1.5
		c0-0.1,0-0.3,0.1-0.6c0-0.3,0.1-0.5,0.1-0.6c0-1.4,0-3.1-0.2-5.2c-0.3-3.8-0.7-7.3-1-10.5c-0.2,0.8-0.4,1.7-0.6,2.6
		c-0.3,1.4-0.6,2.7-1,4.1c-1.1,3.9-2.7,7.6-4.9,11.1c-0.9,1.4-1.8,2.5-2.8,3.3c-1,0.8-1.8,1.1-2.6,1c-0.9-0.1-1.7-0.6-2.2-1.3
		c-0.6-0.7-0.9-1.4-1.1-2.1c-0.6-1.7-1-4.1-1.2-7.1c-0.3-3-0.2-6.9,0.1-11.8c0.7-7.2,2.5-12.3,5.2-15.1c1.1-1,2.3-1.4,3.7-1.3
		c1.4,0.1,2.7,0.7,3.9,1.5c1.1,0.8,2.1,2.1,3.1,3.6c0.3,0.5,0.6,1.2,0.9,2c0.3,0.9,0.5,1.5,0.5,2c0,0,0,0.1,0,0.1
		c0,0,0.1,0.1,0.1,0.2c0.1,0.2,0.1,0.6,0.1,1.2C862,573.8,862,574,862,574.2z M859.6,572.2c-0.1-0.8-0.2-1.5-0.4-2
		c-0.3-1-1-2.2-2-3.4c-1-1.3-2.2-2.1-3.6-2.6c-1.1-0.3-2.3,0.3-3.7,1.9c-1.4,1.6-2.4,3.6-3,5.9c-1.5,5.5-2.1,11.4-1.8,17.9
		c0.1,2.5,0.5,4.9,1.1,7.1c0.3,0.9,0.7,1.7,1.2,2.3s1,1,1.4,1c0.5,0,1.1-0.2,1.9-0.8c0.7-0.6,1.4-1.4,1.9-2.4
		c3.3-6,5.5-12.1,6.4-18.2c0.1-0.8,0.3-1.6,0.3-2.3c0-0.2,0.1-0.5,0.1-0.8c0-0.3,0-0.6,0.1-0.8c0-0.2,0.1-0.4,0.1-0.6
		c0-0.2,0.1-0.4,0.1-0.6C859.8,573.4,859.7,572.9,859.6,572.2z"/>
</g>
<g>
	<path class="st0" d="M704,469.1c0,0.1,0,0.6-0.1,1.3c-0.1,1-0.2,2.5-0.2,4.5c1.4-1.4,3-2.6,4.9-3.7c2.6-1.5,4.5-2.2,5.8-2
		c1.1,0.1,2,0.6,2.7,1.4c0.7,0.8,1.1,1.5,1.2,2.1c0.1,0.9-0.1,2.5-0.7,5c-0.6,2.4-1.6,4.7-2.9,6.9c-1.5,2.3-3.5,4.3-6,5.9
		c0.4,0,0.7,0,1,0c0,0,0.3-0.1,0.9-0.1c0.6,0,1,0,1.2-0.1c0.3,0,0.7,0,1.4,0c0.7,0,1.2,0.1,1.6,0.2c0.4,0.1,0.9,0.2,1.6,0.4
		c0.7,0.2,1.3,0.4,1.8,0.7c0.5,0.3,1.1,0.7,1.8,1.1s1.2,1,1.9,1.5c1.7,1.8,2.4,4.7,2.3,8.8c0,1.5-0.6,3.5-1.6,6.1s-2.5,4.6-4.5,6.2
		c-1.3,0.8-2.7,1.2-4.3,1.1c-1.6-0.1-3.1-0.5-4.7-1.2c-1.4-0.6-2.7-1.6-4-3.1c-0.1-0.2-0.3-0.4-0.5-0.6c0,0.6,0.1,1,0.1,1.3
		c0,0.4,0.1,0.8,0.1,1.1c0,0.1,0,0.2,0.1,0.4c0.1,0.2,0.1,0.3,0.1,0.4c0,0.2-0.2,0.5-0.6,0.7c-0.4,0.3-0.7,0.3-1,0.2
		c-0.3-0.1-0.5-0.4-0.6-0.9c0,0,0-0.1,0-0.2c0-0.1,0-0.3,0.1-0.4c0-0.1,0.1-0.3,0.1-0.3c0.1-1.1,0-7.5-0.1-19c0-1,0-1.9-0.1-2.9
		c-0.2-0.3-0.2-0.6,0-0.8c0-5.4-0.1-9.7-0.2-13.1c-0.2-0.3-0.3-0.8-0.1-1.3c-0.1-2.3-0.2-4.1-0.3-5.2c0-0.7-0.1-1.1-0.1-1.2
		c0-0.5-0.1-0.9-0.1-1.1c0.1-0.8,0.4-1.2,1.1-1.2C703.7,467.9,704,468.3,704,469.1z M703.8,478.1c0,3.2,0.1,7.3,0.3,12.2h0.1
		c0.1,0,0.3,0,0.6,0c0.3,0,0.5,0,0.6-0.1c0.7-0.1,1.8-0.6,3.3-1.6s2.9-2.2,4.1-3.6c0.9-1.1,1.7-2.4,2.3-3.8c0.7-1.4,1.1-2.5,1.4-3.3
		c0.3-0.8,0.4-1.4,0.5-1.9c0.4-1.7,0.4-3.1-0.1-4.1c-0.2-0.7-0.7-1.1-1.5-1.4c-0.8-0.3-1.7-0.2-2.7,0.1c-3.3,1.2-5.7,2.9-7.4,5.1
		c-0.2,0.3-0.4,0.6-0.6,0.8c-0.2,0.5-0.4,0.7-0.4,0.8C704.1,477.8,704,478,703.8,478.1z M704,515.1c0,0.1,0,0.3-0.1,0.3
		c0.4-0.2,0.7-0.5,0.8-0.8C704.6,515,704.4,515.1,704,515.1z M704.1,492.5c0,1,0,2.3,0.1,4c0.1,3.6,0.2,7,0.3,10.2
		c0,0.2,0,0.5,0,0.7h0.1c0.2,0.2,0.5,0.6,0.7,1.3c0,0.1,0.1,0.3,0.2,0.6c0.1,0.3,0.2,0.5,0.2,0.7c0.5,0.8,1.5,1.9,3.1,3.1
		c1.6,1.3,3.4,1.9,5.4,1.8c1.3,0,2.6-0.6,3.8-1.6s2.2-2,2.8-3c0.6-0.9,1-1.7,1.2-2.2c1.1-3,1.2-6.3,0.5-9.7
		c-0.3-1.2-0.8-2.4-1.5-3.4c-0.7-1.1-1.6-1.9-2.6-2.4c-0.5-0.3-1-0.5-1.5-0.7c-0.5-0.2-0.9-0.3-1.3-0.3c-0.4-0.1-0.8-0.1-1.1-0.2
		c-0.3,0-0.6,0-1,0c-0.4,0.1-0.6,0.1-0.8,0.1c-0.2,0-0.4,0.1-0.8,0.2c-0.4,0.1-0.6,0.2-0.7,0.2c-0.1,0-0.7,0.2-1.8,0.3
		c-1.1,0.1-1.9,0.2-2.5,0.2c-0.8,0-1.5,0-2.1-0.1c-0.3,0.1-0.5,0.1-0.6,0.1C704.2,492.5,704.2,492.5,704.1,492.5z"/>
	<path class="st0" d="M732.5,468.9c0,0.1,0,0.6,0,1.3c-0.1,1-0.2,4.3-0.4,9.9c-0.1,5.6-0.2,8.9-0.3,9.8c-0.6,11.8-0.8,18.7-0.8,20.8
		c0,0.6,0.1,1,0.1,1.3c0,0.1,0.1,0.2,0.1,0.4c0,0.2,0,0.3,0,0.4c0,0.1,0,0.2,0,0.3c0,0.4-0.3,0.8-0.7,1.1s-0.7,0.3-1,0.1
		c-0.3-0.2-0.4-0.7-0.4-1.4c0-0.1,0-0.3,0.1-0.6c0.1-0.3,0.1-0.4,0.1-0.5c0-0.6,0.2-3.6,0.5-9.1c0.3-5.5,0.4-8.4,0.5-8.6
		c0.1-2.4,0.3-6.3,0.4-11.6c0.1-5.3,0.1-9.1,0-11.3c0-0.5-0.1-0.9-0.1-1.1c-0.1-0.5-0.1-0.8-0.1-1c0-0.8,0.4-1.2,1-1.2
		C732.1,467.7,732.4,468.1,732.5,468.9z"/>
	<path class="st0" d="M756.8,491.3c0.1,0.5,0.2,1.1,0.2,1.9c0,0.3,0,0.7-0.1,1.2c-0.1,0.5-0.1,0.9-0.1,1.1l-0.1,1.1
		c0,0.7,0,1.4,0,2.1c0,0.7-0.1,1.6-0.3,2.7c-0.2,1.1-0.4,2.2-0.7,3.2c-0.3,1-0.7,2.1-1.3,3.4c-0.6,1.3-1.2,2.4-1.9,3.5
		c-0.7,1.1-1.8,1.8-3.1,2.3s-2.7,0.6-4,0.4c-1.3-0.2-2.4-0.5-3.4-1.2c-2-1.2-3.5-2.8-4.5-4.8c-0.7-1.3-1.2-2.8-1.6-4.5
		c-0.4-1.7-0.7-4-0.7-6.9c0-2.9,0.4-5.8,1.3-8.7c0.8-2.6,2.3-4.8,4.4-6.5s4.2-2.5,6.2-2.3c2,0.2,3.7,1,5.1,2.5
		c1.4,1.5,2.5,3,3.3,4.6c0.2,0.4,0.5,1.2,0.8,2.4C756.6,489.9,756.8,490.7,756.8,491.3L756.8,491.3z M754.7,491.2
		c-0.1-1-0.2-1.9-0.3-2.7c-0.6-2.8-1.7-4.9-3.5-6.3c-1.1-1-2.7-1.4-4.8-1.3c-2.1,0.1-3.8,0.9-5,2.2c-1.9,2.1-3.2,4.7-4,8
		c-0.8,3.3-1.1,6-1,8.2c0,2.2,0.6,4.4,1.7,6.5c1,2,2.4,3.7,4.1,5.2c1.7,1.5,3.4,2.2,5.1,2.1c1.5-0.1,3-1.2,4.4-3.1
		c1.4-1.9,2.4-3.9,3-6.1c0.4-1.6,0.6-3.8,0.6-6.5c0-0.9,0-1.7-0.1-2.5c0-0.2,0-0.5,0-0.8c0-0.3,0-0.6-0.1-0.8c0-0.2,0-0.4,0-0.6
		c0-0.1,0-0.3,0.1-0.4C754.8,492,754.7,491.6,754.7,491.2z"/>
	<path class="st0" d="M781.3,491.3c0.1,0.5,0.2,1.1,0.2,1.9c0,0.3,0,0.7-0.1,1.2c-0.1,0.5-0.1,0.9-0.1,1.1l-0.1,1.1
		c0,0.7,0,1.4,0,2.1c0,0.7-0.1,1.6-0.3,2.7c-0.2,1.1-0.4,2.2-0.7,3.2c-0.3,1-0.7,2.1-1.3,3.4c-0.6,1.3-1.2,2.4-1.9,3.5
		c-0.7,1.1-1.8,1.8-3.1,2.3s-2.7,0.6-4,0.4c-1.3-0.2-2.4-0.5-3.4-1.2c-2-1.2-3.5-2.8-4.5-4.8c-0.7-1.3-1.2-2.8-1.6-4.5
		c-0.4-1.7-0.7-4-0.7-6.9c0-2.9,0.4-5.8,1.3-8.7c0.8-2.6,2.3-4.8,4.4-6.5s4.2-2.5,6.2-2.3c2,0.2,3.7,1,5.1,2.5
		c1.4,1.5,2.5,3,3.3,4.6c0.2,0.4,0.5,1.2,0.8,2.4C781.1,489.9,781.3,490.7,781.3,491.3L781.3,491.3z M779.2,491.2
		c-0.1-1-0.2-1.9-0.3-2.7c-0.6-2.8-1.7-4.9-3.5-6.3c-1.1-1-2.7-1.4-4.8-1.3c-2.1,0.1-3.8,0.9-5,2.2c-1.9,2.1-3.2,4.7-4,8
		c-0.8,3.3-1.1,6-1,8.2c0,2.2,0.6,4.4,1.7,6.5c1,2,2.4,3.7,4.1,5.2c1.7,1.5,3.4,2.2,5.1,2.1c1.5-0.1,3-1.2,4.4-3.1
		c1.4-1.9,2.4-3.9,3-6.1c0.4-1.6,0.6-3.8,0.6-6.5c0-0.9,0-1.7-0.1-2.5c0-0.2,0-0.5,0-0.8c0-0.3,0-0.6-0.1-0.8c0-0.2,0-0.4,0-0.6
		c0-0.1,0-0.3,0.1-0.4C779.3,492,779.2,491.6,779.2,491.2z"/>
	<path class="st0" d="M803.7,468.7c0.1,0.2,0.1,0.7,0.1,1.3c0,1.5,0.1,5,0.1,10.4c0,3.7,0,6.6,0,8.5c0.1,0.2,0.2,0.5,0.2,0.8
		c0.2,1.1,0.3,1.8,0.3,2.3c0,1-0.2,1.7-0.4,2.1c0,1.4,0.2,3.3,0.3,5.7c0,0.3,0.1,0.6,0.1,1c0,0.3,0,0.7,0.1,1
		c0.4,5.9,0.7,9.6,0.8,11.1l0.1,0.5c0,0.3,0.1,0.6,0.1,0.8l0.2,1.2c0,0.5-0.3,0.9-0.7,1.2c-0.4,0.3-0.7,0.3-1,0.1
		c-0.3-0.3-0.4-0.7-0.5-1.4c0-0.1,0-0.3,0.1-0.6c0-0.3,0.1-0.5,0.1-0.6c0-0.5-0.2-3.4-0.6-8.8c-0.2,0.5-0.5,1-0.8,1.5
		c-0.6,1.1-1.5,2.4-2.9,3.8c-1.4,1.5-2.8,2.5-4.4,3.2c-1.3,0.5-2.8,0.4-4.4-0.3c-1.6-0.7-2.9-1.7-3.7-2.9c-0.9-1.3-1.6-2.7-2-4.3
		c-0.3-1.4-0.5-2.9-0.7-4.7c-0.2-1.8-0.1-4,0.1-6.6c0.2-2.7,0.7-5,1.5-7.1c0.9-2.3,2.4-4.2,4.4-5.6c2.1-1.5,4-2,5.8-1.7
		c1.7,0.3,3.2,1.1,4.5,2.5c0.7,0.9,1.4,1.8,2,2.7c0-7.7-0.2-12.6-0.6-14.7c-0.1-0.5-0.2-0.8-0.3-1.1c-0.2-0.5-0.3-0.8-0.3-1
		c-0.1-0.8,0.2-1.2,0.8-1.4C803.1,467.5,803.5,467.9,803.7,468.7z M802.5,492c0-1-0.1-1.9-0.3-2.5c-0.3-2.3-1.1-4.1-2.2-5.3
		c-0.9-1.1-2.2-1.8-3.8-2.1c-1.6-0.3-3.1-0.1-4.4,0.8c-1.9,1.3-3.3,3.2-4.4,5.8c-1,2.6-1.6,5-1.8,7.1c-0.2,2.3,0,5,0.4,8
		s1.4,5.4,2.9,7.1c1.1,1.2,2.6,1.7,4.4,1.5c1.8-0.1,3.4-0.8,4.7-1.9c1.4-1.2,2.5-2.9,3.4-5.2c0.2-0.7,0.4-1.3,0.5-2
		c0.1-0.3,0.2-0.7,0.2-1.1c0-0.5,0.1-0.7,0.1-0.8c0.1-0.7,0.3-1.2,0.6-1.6c-0.2-2.6-0.3-4.1-0.3-4.5c0-0.6,0-1.2,0-1.8
		C802.6,493.1,802.5,492.6,802.5,492z"/>
	<path class="st0" d="M824,485.5c-0.1-0.7-0.3-1.5-0.8-2.2c-0.5-0.7-1.4-1.3-2.7-1.9s-2.9-0.8-4.6-0.7c-0.9,0-1.8,0.4-2.7,1
		c-0.9,0.6-1.6,1.3-2.2,2.2c-0.7,0.9-1.1,2-1.3,3.2c-0.2,1.2-0.2,2.1,0.2,2.8c0.7,1.1,1.8,2.2,3.2,3.3c1.4,1.1,2.6,2.1,3.6,2.8
		c1,0.7,2.4,1.5,4,2.5c1.6,1,2.5,1.6,2.9,1.8c2.3,1.5,4.2,3,5.7,4.3c2,1.9,2.9,3.6,2.7,5.2c-0.1,0.9-0.6,1.8-1.6,2.7
		c-1,0.8-2.1,1.4-3.3,1.7c-1.8,0.5-4.1,0.6-7,0.3c-2.8-0.3-5-1.1-6.4-2.4c-0.9-0.8-1.7-1.7-2.3-2.7c-0.6-1-0.9-2-1.1-2.9
		c-0.1-0.9-0.2-1.7-0.2-2.3c0-0.7,0.1-1.2,0.2-1.6c0.2-0.6,0.7-1.1,1.4-1.8c0.7-0.7,1.4-1.1,2-1.2c1.3-0.3,2.2-0.2,2.7,0.5
		c0.2,0.3,0.2,0.5-0.1,0.7l-2.3,0.9c-0.7,0.3-1.2,0.5-1.4,0.6c-0.4,0.3-0.7,0.9-1,1.7c-0.3,0.9-0.3,1.8-0.1,2.9c0.2,1,0.9,2.1,2,3.1
		c1.1,1.1,2.4,1.9,3.9,2.4c1.9,0.7,3.7,1,5.6,1c1.9,0,3.4-0.2,4.5-0.8c1.1-0.6,1.8-1.3,2.2-2.1s0.6-1.6,0.5-2.2
		c-0.1-0.6-0.2-1.1-0.5-1.3c-0.5-0.6-1.4-1.3-2.6-2.3c-1.2-1-2.5-1.9-3.8-2.8c-1.3-0.9-3.1-2.1-5.4-3.7c-2.3-1.6-4.2-2.9-5.6-3.9
		c-2.9-2-4.2-4.4-3.9-7.3c0.2-1.5,0.7-2.9,1.5-4.1s1.8-2.1,2.9-2.6c1.4-0.6,2.8-0.9,4.3-0.9c1.5,0,2.7,0.1,3.7,0.5
		c1,0.3,1.9,0.7,2.6,1.2c0.5,0.4,1,1,1.5,1.8c0.6,1,0.9,1.7,0.9,2.2c0,1.1-0.1,1.9-0.3,2.4c-0.3,0.5-0.6,0.5-0.9,0.1
		C824.4,487.2,824.1,486.5,824,485.5z"/>
	<path class="st0" d="M839.1,472.8c0,0.2,0,0.8-0.1,1.7c-0.2,1.8-0.6,5.9-1,12.4c-0.1,2.2-0.3,4.2-0.4,5.9c0.4,0,0.9,0,1.3-0.1
		c1.8-0.1,3.3-0.2,4.5-0.4c0.4,0,0.6-0.1,0.7-0.1l0.6-0.1c0.3,0,0.5,0.3,0.7,0.7c0.2,0.4,0.2,0.8,0,1.1c-0.2,0.3-0.4,0.4-0.8,0.4
		c-0.1,0-0.2,0-0.3-0.1s-0.2-0.1-0.3-0.1c-0.6-0.1-1.5-0.1-2.7-0.1c-1.4,0-2.7,0-3.8,0.1c-0.1,2.6-0.2,4.5-0.3,5.6
		c0,0,0,0.6-0.1,1.6c0,1.1-0.1,2,0,2.8c0,0.8,0.1,1.8,0.2,3c0.1,1.1,0.4,2.2,0.8,3.1c0.4,0.9,1,1.6,1.7,2.1c0.7,0.5,1.9-0.4,3.6-2.6
		s2.8-3.9,3-5c0.1-0.5,0.2-1.1,0.2-1.6c0-0.2,0-0.5,0-0.8c0-0.3,0-0.5,0-0.6c0-0.5,0.2-0.9,0.5-1.3c0.3-0.4,0.6-0.5,1-0.3
		c0.4,0.3,0.6,0.9,0.6,1.9c0,0.2-0.1,0.8-0.3,1.6c-0.1,0.5-0.3,1-0.6,1.7c-0.2,0.7-0.6,1.6-1.1,2.7s-1.2,2.2-2,3.2
		c-0.9,1-1.8,1.8-2.8,2.3c-1,0.5-2.1,0.1-3.3-1.2c-1.2-1.3-1.9-2.8-2.2-4.5c-0.2-0.9-0.3-1.9-0.3-2.9c0-1.6,0-5.2,0.3-10.7
		c-0.8,0-1.5,0.1-2.2,0.3h-0.3c-0.1,0-0.3,0.1-0.3,0.1c-0.3,0.1-0.5,0.1-0.6,0.1c-0.5,0-0.8-0.4-0.7-1c0-0.6,0.3-1,0.7-1.1
		c0,0,0.3,0,0.7,0.1c0.7,0.1,1.6,0.1,2.7,0.1c0-1,0.1-2.1,0.1-3.2c0.4-8.2,0.6-13,0.6-14.3c0-0.7,0-1.1,0-1.4
		c-0.1-0.7-0.1-1.1-0.1-1.3c0.1-0.9,0.4-1.4,1-1.4C838.7,471.4,839,471.9,839.1,472.8z"/>
	<path class="st0" d="M855.4,480.3c0,0.1,0,0.5,0,1c0,1.1-0.1,2.4-0.1,4c1.4-2,3.3-3.8,5.7-5.3c0.9-0.7,2-1.1,3.2-1.2
		c1.2-0.1,2.2,0,3,0.3c1.6,0.6,2.8,1.7,3.6,3.2c0.8,1.6,1.1,3.3,0.7,5.2c-0.2,1.1-0.7,2.2-1.6,3.3c-0.9,1.1-1.9,1.8-3.1,2.3
		c-1.4,0.5-2.9,0.8-4.5,0.9s-2.7,0.1-3.6-0.1c-0.4,0-0.8-0.1-1.1-0.2c1.2,1.7,3.3,4.5,6.4,8.3c1,1.4,3.5,4.9,7.5,10.5
		c0,0,0,0.1,0.1,0.1c0,0,0.1,0.1,0.1,0.2c0,0.1,0.1,0.1,0.1,0.2l0.3,0.4c0,0.2-0.2,0.4-0.5,0.7c-0.3,0.3-0.7,0.4-1,0.3
		c-0.3,0-0.5-0.1-0.6-0.3c0,0,0-0.1,0-0.2c0-0.1,0-0.2,0-0.2c0-0.2-0.8-1.6-2.4-4s-2.5-3.9-3-4.6c-0.9-1.3-2.5-3.4-4.8-6.3
		c-2.3-2.9-3.8-4.7-4.4-5.4l-0.1-0.1c0,1.3,0,2.1,0,2.5c0,9.9,0,15.2,0.1,15.7c0,0.4,0.1,0.7,0.1,0.9l0.1,0.8c0,0.3-0.3,0.6-0.7,0.8
		s-0.7,0.2-1,0c-0.3-0.2-0.4-0.5-0.4-1c0-0.1,0-0.2,0.1-0.4c0-0.2,0.1-0.3,0.1-0.4c0-0.3,0.1-1.5,0.1-3.4c0-2,0.1-4,0.1-6.3
		c0-2.2,0.1-3.4,0.1-3.6c0-1.8,0-4.8-0.1-8.9c-0.1-4.1-0.3-6.8-0.5-8.1c0-0.4-0.1-0.7-0.1-0.8c-0.1-0.4-0.1-0.6-0.1-0.7
		c0-0.6,0.4-0.9,1-0.9C854.9,479.4,855.3,479.7,855.4,480.3z M855.4,489c0,0.4,0,0.8,0,1.3c0.3,0,0.6,0.2,0.9,0.5
		c0.1,0.1,0.3,0.2,0.4,0.4c0.1,0.2,0.2,0.3,0.3,0.3c0.3,0.2,0.7,0.5,1.2,0.7c0.5,0.2,1.4,0.4,2.6,0.6c1.2,0.2,2.5,0,3.9-0.5
		c1.3-0.4,2.4-1.1,3.4-2.1c1-1,1.6-1.9,1.9-2.7c0.3-0.8,0.5-1.4,0.5-1.8c0-1.6-0.5-3-1.5-4.1c-0.6-0.7-1.4-1.2-2.4-1.5
		c-1-0.3-2-0.3-3,0c-1.7,0.7-3.2,1.7-4.4,2.9c-1.2,1.2-2,2.3-2.6,3.3c-0.2,0.2-0.3,0.5-0.3,0.8c0,0.1,0,0.2,0,0.4
		c0,0.2-0.1,0.3-0.1,0.4c-0.1,0.5-0.3,0.8-0.6,0.9C855.5,489,855.4,489,855.4,489z"/>
	<path class="st0" d="M877,496.1c-1.2-0.4-2-0.7-2.5-1.1c-0.6-0.5-0.5-0.7,0.3-0.8c0.6-0.1,1.3-0.1,2.3,0.1c0.1-1.3,0.3-2.5,0.4-3.7
		c0.2-1.7,0.5-3.4,0.8-5c0.3-1.8,0.6-3.1,0.9-3.9c0.3-1,1.1-1.9,2.2-2.6c1.2-0.7,2.1-0.7,2.7-0.1c1.5,1.4,2.8,3.2,3.9,5.2
		c1.1,2,1.7,4,1.8,5.8c0,1.7-0.5,3.2-1.7,4.4c-1.2,1.2-2.5,2-3.9,2.3c-0.6,0.1-1.5,0.2-2.9,0.1c-1.4,0-2.4-0.1-3.1-0.3
		c0,0.3-0.1,0.7-0.1,1.1c-0.4,6.8,0.1,11.4,1.6,13.9c0.4,0.6,1.1,0.8,2.2,0.6c1-0.2,1.9-0.7,2.7-1.5c0.6-0.5,1.1-1.4,1.7-2.5
		c0.3-0.7,0.6-1.4,0.8-2.1c0.1-0.2,0.2-0.6,0.3-1.1c0.1-0.5,0.2-0.8,0.2-0.9c0.4-1,0.9-1.5,1.6-1.7c0.3-0.1,0.5,0,0.6,0.3
		c0.2,0.5,0.1,1.3-0.4,2.5c0,0-0.3,0.7-1,2l-0.2,0.4c-0.1,0.3-0.2,0.5-0.3,0.7c-0.1,0.2-0.2,0.5-0.5,0.8s-0.4,0.7-0.6,1
		c-0.2,0.3-0.5,0.6-0.8,1c-0.3,0.4-0.6,0.7-1,1.1c-0.4,0.3-0.8,0.7-1.2,1c-0.9,0.6-1.9,0.8-3,0.6c-1.1-0.2-2-0.7-2.6-1.5
		c-0.9-1.3-1.4-3.2-1.5-5.7C876.8,502.8,876.8,499.4,877,496.1z M878.6,494.4c1.2,0.3,2.5,0.5,3.8,0.6c1.6,0.1,2.9-0.1,3.8-0.6
		c0.7-0.3,1.4-0.9,1.8-1.9c0.5-0.9,0.6-1.9,0.4-3c-0.4-3.1-1.9-6.2-4.5-9.2c-1.2-1.4-2.2-1.5-2.9-0.4c-0.2,0.3-0.4,0.7-0.5,1
		s-0.2,0.6-0.3,0.8c0,0.2-0.1,0.4-0.1,0.7c0,0.3-0.1,0.4-0.1,0.5c-0.7,3.2-1.3,7.1-1.7,11.6C878.5,494.4,878.5,494.4,878.6,494.4z"
		/>
	<path class="st0" d="M911.7,488.2c0,0,0,0.5-0.1,1.4c0,2.2,0.2,5.5,0.6,9.9c0.4,3.7,0.7,6.6,1,8.6c0,0,0,0.2,0.1,0.6
		c0,0.3,0.1,0.6,0.1,0.8c0.1,0.8,0.2,1.2,0.2,1.3c0,0.5-0.3,0.9-0.7,1.2s-0.7,0.3-1,0.1c-0.3-0.3-0.4-0.8-0.5-1.5
		c0-0.1,0-0.3,0.1-0.6c0-0.3,0.1-0.5,0.1-0.6c0-1.4,0-3.1-0.2-5.2c-0.3-3.8-0.7-7.3-1-10.5c-0.2,0.8-0.4,1.7-0.6,2.6
		c-0.3,1.4-0.6,2.7-1,4.1c-1.1,3.9-2.7,7.6-4.9,11.1c-0.9,1.4-1.8,2.5-2.8,3.3c-1,0.8-1.8,1.1-2.6,1c-0.9-0.1-1.7-0.6-2.2-1.3
		c-0.6-0.7-0.9-1.4-1.1-2.1c-0.6-1.7-1-4.1-1.2-7.1c-0.3-3-0.2-6.9,0.1-11.8c0.7-7.2,2.5-12.3,5.2-15.1c1.1-1,2.3-1.4,3.7-1.3
		c1.4,0.1,2.7,0.7,3.9,1.5c1.1,0.8,2.1,2.1,3.1,3.6c0.3,0.5,0.6,1.2,0.9,2c0.3,0.9,0.5,1.5,0.5,2c0,0,0,0.1,0,0.1
		c0,0,0.1,0.1,0.1,0.2c0.1,0.2,0.1,0.6,0.1,1.2C911.7,487.8,911.7,488,911.7,488.2z M909.4,486.2c-0.1-0.8-0.2-1.5-0.4-2
		c-0.3-1-1-2.2-2-3.4c-1-1.3-2.2-2.1-3.6-2.6c-1.1-0.3-2.3,0.3-3.7,1.9c-1.4,1.6-2.4,3.6-3,5.9c-1.5,5.5-2.1,11.4-1.8,17.9
		c0.1,2.5,0.5,4.9,1.1,7.1c0.3,0.9,0.7,1.7,1.2,2.3s1,1,1.4,1c0.5,0,1.1-0.2,1.9-0.8c0.7-0.6,1.4-1.4,1.9-2.4
		c3.3-6,5.5-12.1,6.4-18.2c0.1-0.8,0.3-1.6,0.3-2.3c0-0.2,0.1-0.5,0.1-0.8c0-0.3,0-0.6,0.1-0.8c0-0.2,0.1-0.4,0.1-0.6
		c0-0.2,0.1-0.4,0.1-0.6C909.5,487.4,909.4,486.9,909.4,486.2z"/>
	<path class="st0" d="M920.6,480.9c0,0-0.1,0.3-0.3,0.9c-0.3,0.9-0.5,3.3-0.8,7.1c-0.1,0.8-0.2,1.6-0.2,2.4c0.1-0.1,0.2-0.3,0.4-0.5
		c0.3-0.6,0.6-1,0.9-1.4c0.3-0.4,0.6-0.9,1.1-1.6c0.5-0.7,1-1.3,1.4-1.9c2-2.2,3.8-3.5,5.2-3.6c1-0.1,1.9,0.2,2.7,0.9
		c0.8,0.7,1.3,1.3,1.5,2c0.1,0.5,0.3,1.5,0.4,3.2c2.6-2.9,4.9-5.1,7-6.4c1.2-0.8,2.5-1.4,3.8-1.7c1.3-0.3,2.4-0.2,3.3,0.3
		c1.2,0.9,1.9,2.6,2,5.2c0,1.2-0.2,5.4-0.7,12.7c-0.5,7.2-0.8,11-0.8,11.2c0,0.2,0,0.4,0,0.6l0.1,0.6v0.1c0,0.1,0,0.2,0,0.2
		s0,0.1,0,0.2c0,0.3-0.3,0.5-0.7,0.7c-0.4,0.2-0.7,0.2-1,0c-0.3-0.2-0.4-0.5-0.4-0.9c0-0.1,0-0.2,0.1-0.4c0.1-0.2,0.1-0.3,0.2-0.3
		c0.1-0.6,0.4-3.7,1-9.5c0.6-5.8,0.9-9.2,0.9-10.3c0.1-1.9,0.1-3.3,0-4.3c-0.1-1.4-0.6-2.7-1.3-3.7c-0.7-1-1.5-1.4-2.3-1.2
		c-1.9,0.6-3.7,1.7-5.5,3.3c-1.7,1.6-3.1,3-4.1,4.4c-0.3,0.4-0.5,0.7-0.6,1c-0.2,0.5-0.4,0.8-0.4,0.8c-0.2,0.3-0.4,0.4-0.6,0.5
		c0.1,1.9,0.1,4.2,0.1,6.9c0,7.5,0,11.8-0.1,12.9c0,0.4,0,0.8,0,1.1c0,0.1,0.1,0.2,0.1,0.3c0,0.1,0,0.2,0,0.3c0,0.1,0,0.1,0,0.2
		c0,0.2-0.3,0.4-0.7,0.6c-0.4,0.2-0.8,0.2-1.1,0c-0.3-0.1-0.4-0.4-0.3-0.8c0-0.1,0-0.3,0.1-0.5c0.1-0.2,0.1-0.3,0.1-0.4
		c0.1-0.7,0.4-4.2,0.6-10.8c0.2-4.8,0.3-8.1,0.3-9.9c-0.5-0.3-0.6-0.7-0.3-1.4c0-0.1,0.1-0.3,0.3-0.5c-0.1-1.4-0.4-2.6-0.8-3.5
		c-0.4-0.8-0.9-1.4-1.6-1.8s-1.5-0.3-2.3,0.2c-2.8,1.8-4.9,4.4-6.4,7.8c-0.2,0.5-0.3,0.8-0.4,1c-0.2,0.6-0.3,0.9-0.3,1
		c-0.3,0.5-0.7,0.8-1,0.8c0,0.9,0,1.7,0,2.3c0,1.2,0.1,4,0.4,8.5c0.3,4.5,0.4,7.2,0.5,8.1c0,0.5,0.1,0.8,0.1,1l0.1,0.8
		c0,0.3-0.3,0.6-0.7,0.8c-0.4,0.2-0.7,0.2-1,0c-0.3-0.2-0.4-0.5-0.4-1c0-0.1,0-0.2,0.1-0.5c0-0.2,0.1-0.3,0.1-0.4c0-0.3,0-1.5,0-3.6
		c-0.1-2.1-0.2-4.3-0.2-6.6c-0.1-2.3-0.1-3.6-0.1-3.9c-0.1-4,0-10.1,0.4-18.2c0,0,0.1-0.2,0.1-0.4c0-0.2,0-0.4,0-0.5
		c0-0.4,0-0.6,0.1-0.8c0.2-0.6,0.6-0.8,1.2-0.7C920.4,479.9,920.7,480.3,920.6,480.9z"/>
</g>
<g>
	<path class="st0" d="M691.4,337.4c-0.4-1.4-0.6-2.2-0.6-2.3c-0.7-2.1-2.5-4-5.2-5.6c-0.8-0.5-1.8-0.8-2.7-0.8c-1,0-1.8,0.1-2.5,0.6
		c-1.7,1-2.8,2.7-3.4,5c-1.5,6-2.2,12.6-2.1,19.9c0,7.9,1.2,14.1,3.5,18.8c0.4,0.8,1.2,1.3,2.4,1.4c1.2,0.1,2.2-0.1,3-0.7
		c1.3-0.8,2.4-2.3,3.5-4.3c1-1.9,1.7-3.8,2.2-5.9c0.3-0.9,0.5-1.9,0.6-2.9c0.1-0.4,0.2-1,0.2-1.6c0-0.7,0.1-1.1,0.1-1.2
		c0.1-0.7,0.2-1.2,0.4-1.7c-0.1,0-0.2,0-0.2,0c-0.5,0-1.1,0-1.7,0c-1.4,0.1-2.5,0.3-3.4,0.4c-0.2,0-0.4,0.1-0.7,0.2
		c-0.3,0.1-0.5,0.1-0.7,0.1c-0.1,0-0.4,0-0.8,0c-0.6-0.1-0.8-0.5-0.8-1c0-0.5,0.3-0.9,0.8-1c0.1,0,0.7,0,1.8,0c1.4,0,2.8,0,4.2-0.3
		c0.9-0.1,1.5-0.2,1.8-0.3c0.1,0,0.2-0.1,0.3-0.1c0.1,0,0.2,0,0.2,0c0.5,0,0.9,0.1,1.3,0.5c0.3,0.4,0.4,0.7,0.3,1.1
		c0,0.2-0.2,0.3-0.6,0.4c0,0.7,0,1.5-0.1,2.5c0,0.5-0.3,1.4-0.6,2.9c-0.3,1-0.7,2.3-1.3,3.8c-0.6,1.5-1.5,3.3-2.9,5.5
		c-1.4,2.2-2.9,3.8-4.5,4.8c-0.9,0.5-2,0.4-3.3-0.2c-1.3-0.7-2.4-1.6-3.1-2.8c-0.7-1-1.2-2.6-1.8-4.6c-0.4-1.9-0.7-3.4-0.8-4.6
		c-0.2-2.7-0.3-4.8-0.4-6.2c-0.1-1.4-0.1-3.7,0-6.7c0-3.1,0.2-6.1,0.6-9.1c0.4-3.4,1.2-6.5,2.4-9.2c1.2-2.7,2.7-4.3,4.4-4.7
		c2.1-0.4,4.1,0,6.1,1.4s3.6,2.7,4.7,4.2c0.2,0.3,0.6,1,1,2.1c0.4,0.9,0.6,1.5,0.7,2c0.1,1,0.1,1.7-0.1,2.1
		c-0.2,0.4-0.5,0.5-0.9,0.1C692,339,691.7,338.4,691.4,337.4z"/>
	<path class="st0" d="M701.1,341.3c0,0.1,0,0.5,0,1c0,1.1-0.1,2.5-0.1,4c1.4-2,3.3-3.8,5.7-5.3c0.9-0.7,2-1,3.2-1.2
		c1.2-0.1,2.2,0,3,0.3c1.6,0.6,2.8,1.7,3.6,3.2c0.8,1.6,1.1,3.3,0.7,5.2c-0.2,1.1-0.7,2.2-1.6,3.3c-0.9,1.1-1.9,1.8-3.1,2.3
		c-1.4,0.5-2.9,0.8-4.5,0.9c-1.5,0.1-2.7,0.1-3.6-0.1c-0.4,0-0.8-0.1-1.1-0.2c1.2,1.7,3.3,4.5,6.4,8.3c1,1.4,3.5,4.9,7.5,10.5
		c0,0,0,0.1,0.1,0.1c0,0,0.1,0.1,0.1,0.2c0,0.1,0.1,0.1,0.1,0.2l0.4,0.4c0,0.2-0.2,0.4-0.5,0.7c-0.3,0.3-0.7,0.4-1,0.3
		c-0.3,0-0.5-0.1-0.6-0.3c0,0,0-0.1,0-0.2c0-0.1,0-0.2,0-0.2c0-0.2-0.8-1.6-2.4-4c-1.5-2.4-2.5-3.9-3-4.6c-0.9-1.3-2.5-3.4-4.8-6.3
		c-2.3-2.9-3.8-4.7-4.4-5.4l-0.1-0.1c0,1.3,0,2.1,0,2.5c0,9.9,0,15.2,0.1,15.7c0,0.4,0.1,0.7,0.1,0.9l0.1,0.8c0,0.3-0.3,0.6-0.7,0.8
		c-0.4,0.2-0.7,0.2-1,0c-0.3-0.2-0.4-0.5-0.4-1c0-0.1,0-0.2,0.1-0.4c0-0.2,0.1-0.3,0.1-0.4c0-0.3,0.1-1.5,0.1-3.4c0-2,0.1-4,0.1-6.3
		c0-2.2,0.1-3.4,0.1-3.6c0-1.8,0-4.8-0.1-8.9c-0.1-4.1-0.3-6.8-0.5-8.1c0-0.4-0.1-0.7-0.1-0.8c-0.1-0.4-0.1-0.6-0.1-0.7
		c0-0.6,0.4-0.9,1-0.9S701,340.7,701.1,341.3z M701.1,350c0,0.4,0,0.8,0,1.3c0.3,0,0.6,0.2,0.9,0.5c0.1,0.1,0.3,0.2,0.4,0.4
		c0.1,0.2,0.2,0.3,0.3,0.3c0.3,0.2,0.7,0.5,1.2,0.7c0.5,0.2,1.4,0.4,2.6,0.6c1.2,0.2,2.5,0,3.9-0.5c1.3-0.4,2.4-1.1,3.4-2.1
		c1-1,1.6-1.9,1.9-2.7c0.3-0.8,0.5-1.4,0.5-1.8c0-1.6-0.5-3-1.5-4.1c-0.6-0.7-1.4-1.2-2.4-1.5c-1-0.3-2-0.3-3,0
		c-1.7,0.7-3.2,1.7-4.4,2.9c-1.2,1.2-2,2.3-2.6,3.3c-0.2,0.2-0.3,0.5-0.4,0.8c0,0.1,0,0.2,0,0.4c0,0.2-0.1,0.3-0.1,0.4
		c-0.1,0.5-0.3,0.8-0.6,0.9C701.2,350,701.1,350,701.1,350z"/>
	<path class="st0" d="M741.3,352.3c0.1,0.5,0.2,1.1,0.2,1.9c0,0.3,0,0.7-0.1,1.2c-0.1,0.5-0.1,0.9-0.1,1l-0.1,1.1c0,0.7,0,1.4,0,2.1
		c0,0.7-0.1,1.6-0.3,2.7c-0.2,1.1-0.4,2.2-0.7,3.2c-0.3,1-0.7,2.1-1.3,3.4c-0.6,1.3-1.2,2.4-1.9,3.5c-0.7,1.1-1.8,1.8-3.1,2.3
		c-1.4,0.4-2.7,0.6-4,0.4c-1.3-0.2-2.4-0.5-3.4-1.2c-2-1.2-3.5-2.8-4.5-4.8c-0.7-1.3-1.2-2.8-1.6-4.5c-0.4-1.7-0.7-4-0.7-6.9
		c0-2.9,0.4-5.8,1.3-8.7c0.8-2.6,2.3-4.8,4.4-6.5s4.2-2.5,6.2-2.3c2,0.2,3.7,1,5.1,2.5s2.5,3,3.3,4.6c0.2,0.4,0.5,1.2,0.8,2.4
		C741.2,350.9,741.3,351.7,741.3,352.3L741.3,352.3z M739.3,352.2c-0.1-1-0.2-1.9-0.3-2.7c-0.6-2.8-1.7-4.9-3.5-6.3
		c-1.1-1-2.7-1.4-4.8-1.3c-2.1,0.1-3.8,0.9-5,2.2c-1.9,2.1-3.2,4.7-4,8c-0.8,3.3-1.1,6-1,8.2c0,2.2,0.6,4.4,1.7,6.5
		c1,2,2.4,3.7,4.1,5.2c1.7,1.5,3.4,2.2,5.1,2.1c1.5-0.1,3-1.2,4.4-3.1c1.4-1.9,2.4-3.9,3-6.1c0.4-1.6,0.6-3.8,0.6-6.5
		c0-0.9,0-1.7-0.1-2.5c0-0.2,0-0.5,0-0.8s0-0.6-0.1-0.8c0-0.2,0-0.4,0-0.6s0-0.3,0.1-0.4C739.3,353,739.3,352.6,739.3,352.2z"/>
	<path class="st0" d="M748.3,342.6c0,0,0.1,0.1,0.1,0.2c0,0.1,0,0.2,0,0.3c0,0.1,0,0.2,0,0.4c0,0.6,0.3,2.9,1,6.8c0.7,3.9,1,6.2,1,7
		c0.5,8.1,1,13,1.4,14.8c0,0.2,0.1,0.4,0.2,0.6c0.4-1.4,1.2-4.8,2.4-10c0.5-2.1,1.1-5.1,1.8-9.2c0.7-4.1,1.1-6.5,1.1-7.3
		c0-0.2,0-0.3-0.1-0.4l-0.1-0.2c0.1-0.3,0.4-0.4,1.1-0.3c0.6,0,0.9,0.2,1,0.5v0.1c0,0,0.1-0.1,0.2-0.1c0.6-0.1,1,0,1.3,0.5
		c0,0.1,0.1,0.4,0.1,0.8c0.2,1.1,1.3,4.9,3.3,11.5c1.7,5.6,2.9,9.3,3.6,11.2c0.1-0.8,0.2-1.7,0.3-2.7c0.4-3.8,0.6-5.9,0.6-6.4
		c1.4-8.5,2.1-13.9,2.2-16.1c0-0.5,0.1-0.7,0.1-0.8c0-0.4,0-0.6,0-0.8c0.1-0.6,0.5-0.8,1.1-0.7c0.6,0.1,0.9,0.4,0.9,1.1
		c0,0.1-0.1,0.4-0.3,0.9c-0.5,1.6-1.3,6.2-2.4,13.7c-0.1,1.2-0.4,3.7-0.7,7.6c-0.4,3.9-0.5,6.3-0.5,7.1c0,0.3,0.1,0.6,0.1,0.8
		c0,0.1,0.1,0.2,0.1,0.3c0,0.1,0,0.2,0,0.3c0,0.1,0,0.1,0,0.2c0,0.3-0.3,0.6-0.7,0.8c-0.4,0.2-0.7,0.2-1,0c-0.3-0.2-0.4-0.5-0.4-0.9
		c0-0.1,0-0.3,0.1-0.5c0.1-0.2,0.1-0.3,0.1-0.4c0,0,0-0.1,0-0.2h-0.1c-0.3-0.1-0.5-0.3-0.6-0.6c0-0.1-0.1-0.2,0-0.4
		c0-0.1,0-0.3,0-0.3c0-0.3-0.2-1.2-0.7-2.8c-0.5-1.6-1-3.2-1.5-4.8c-0.5-1.7-0.8-2.6-0.8-2.8c-0.5-1.6-1.2-4-2.2-7.1
		c-1-3.1-1.7-5.2-2.1-6.1c-0.1-0.4-0.2-0.6-0.3-0.6c0-0.1-0.1-0.2-0.1-0.3c-0.1,0.5-0.3,1.2-0.4,2.1c-0.4,1.8-0.8,3.8-1.2,6.1
		c-0.4,2.3-0.7,3.7-0.8,4.2c-0.1,0.6-0.4,2.1-0.9,4.4c-0.5,2.3-1,4.5-1.4,6.5c-0.4,2.1-0.7,3.2-0.7,3.5c0,0.2-0.1,0.3-0.1,0.4v0.3
		c0,0.1-0.3,0.1-0.7,0c-0.2-0.1-0.4-0.2-0.5-0.3c0,0.1-0.1,0.2-0.2,0.3c-0.3,0.3-0.7,0.4-1,0.2c-0.3-0.1-0.5-0.4-0.6-0.8
		c0,0-0.1-0.2,0-0.4c0-0.2,0-0.3,0-0.4c0-0.3-0.2-2.4-0.5-6.3c-0.3-3.9-0.5-6.1-0.5-6.5c0-1.5-0.4-4.2-1-8.1
		c-0.6-3.9-1.2-6.5-1.6-7.8c0-0.1,0-0.2-0.1-0.4c0-0.2-0.1-0.3-0.1-0.4c-0.1-0.3-0.2-0.6-0.2-0.7c0-0.6,0.4-0.9,1-1
		C747.9,341.8,748.2,342,748.3,342.6z"/>
	<path class="st0" d="M781.2,333.8c0,0.2,0,0.8-0.1,1.7c-0.2,1.8-0.6,5.9-1,12.4c-0.1,2.2-0.3,4.2-0.4,5.9c0.4,0,0.9,0,1.3-0.1
		c1.8-0.1,3.3-0.2,4.5-0.4c0.4,0,0.6-0.1,0.7-0.1l0.6-0.1c0.3,0,0.5,0.3,0.7,0.7c0.2,0.4,0.2,0.8,0,1.1c-0.2,0.3-0.4,0.4-0.8,0.4
		c-0.1,0-0.2,0-0.3-0.1s-0.2-0.1-0.3-0.1c-0.6-0.1-1.5-0.1-2.7-0.1c-1.4,0-2.7,0-3.8,0.1c-0.1,2.6-0.2,4.5-0.3,5.6
		c0,0,0,0.6-0.1,1.6c0,1-0.1,2,0,2.8c0,0.8,0.1,1.8,0.2,3c0.1,1.1,0.4,2.2,0.8,3.1c0.4,0.9,1,1.6,1.7,2.1c0.7,0.5,1.9-0.4,3.6-2.6
		s2.8-3.9,3-5c0.1-0.5,0.2-1.1,0.2-1.6c0-0.2,0-0.5,0-0.8c0-0.3,0-0.5,0-0.6c0-0.5,0.2-0.9,0.5-1.3c0.3-0.4,0.6-0.5,1-0.3
		c0.4,0.3,0.6,0.9,0.6,1.9c0,0.2-0.1,0.8-0.3,1.6c-0.1,0.5-0.3,1-0.6,1.7c-0.2,0.7-0.6,1.6-1.1,2.7c-0.5,1.1-1.2,2.2-2,3.2
		s-1.8,1.8-2.8,2.3c-1,0.5-2.1,0.1-3.3-1.2c-1.2-1.3-1.9-2.8-2.2-4.5c-0.2-0.9-0.3-1.9-0.3-2.9c0-1.6,0-5.2,0.3-10.7
		c-0.8,0-1.5,0.1-2.2,0.3H776c-0.1,0-0.3,0.1-0.3,0.1c-0.3,0.1-0.5,0.1-0.6,0.1c-0.5,0-0.8-0.4-0.7-1s0.3-1,0.7-1c0,0,0.3,0,0.7,0.1
		c0.7,0.1,1.6,0.1,2.7,0.1c0-1,0.1-2.1,0.1-3.2c0.4-8.2,0.6-13,0.6-14.3c0-0.7,0-1.1,0-1.4c-0.1-0.7-0.1-1.1-0.1-1.3
		c0.1-0.9,0.4-1.4,1-1.4C780.8,332.4,781.1,332.9,781.2,333.8z"/>
	<path class="st0" d="M796.1,329.7c0,0.2,0.1,0.6,0.1,1.3c0,0.6,0.1,3.8,0.3,9.6c0.2,5.8,0.3,9.4,0.2,10.7c0,0.4,0,1.4-0.1,3.2
		c1.5-2.5,3.2-4.9,5-7c2.8-3.2,5-5.1,6.8-5.6c1.4-0.5,2.7-0.3,3.9,0.6c1.1,0.9,1.8,1.8,2.1,2.7c0.2,2,0.2,4.5,0.1,7.7
		c-0.1,3.2-0.3,7-0.6,11.4c-0.3,4.4-0.4,6.9-0.4,7.6c0,0.6,0,1.1,0,1.5c0,0.1,0.1,0.3,0.1,0.5c0,0.2,0,0.4,0,0.5s0,0.3,0,0.3
		c0,0.5-0.3,0.9-0.7,1.3c-0.4,0.4-0.8,0.4-1,0.1c-0.3-0.3-0.4-0.9-0.4-1.7c0-0.1,0-0.4,0.1-0.7c0.1-0.3,0.1-0.6,0.1-0.7
		c0.1-1.2,0.5-4.9,1-11.3c0.6-6.3,0.8-10.1,0.8-11.1c0-2.3-0.2-4.3-0.7-6c-0.2-0.7-0.6-1.2-1-1.6s-0.9-0.6-1.3-0.6
		c-1.2,0-2.4,0.6-3.6,1.7c-2,1.8-3.8,3.7-5.4,5.7c-1.6,2-2.6,3.7-3.3,4.9c-0.2,0.5-0.3,0.9-0.4,1.2c0,0.1-0.1,0.3-0.1,0.4
		c0,0.1,0,0.2-0.1,0.3c0,0.1-0.1,0.2-0.1,0.2c-0.1,0.4-0.3,0.6-0.7,0.7c-0.1,0-0.3,0-0.4,0c0,3.3-0.1,6.5-0.1,9.5
		c-0.1,3.1-0.1,5.1-0.1,5.9c0,0.6,0,1,0.1,1.3c0,0.1,0,0.2,0,0.4c0,0.2,0,0.3,0.1,0.4c0,0.1,0,0.2,0,0.3c0,0.4-0.3,0.8-0.7,1.1
		c-0.4,0.3-0.7,0.3-1,0c-0.3-0.2-0.4-0.7-0.4-1.3c0-0.2,0-0.4,0.1-0.7c0.1-0.3,0.1-0.4,0.1-0.5c0-0.4,0.1-2,0.2-4.7
		c0.1-2.7,0.2-5.6,0.3-8.7c0.1-3.1,0.2-4.7,0.2-4.9c0.1-2.4,0-6.5-0.1-12.2c-0.2-5.8-0.4-9.5-0.7-11.3c-0.1-0.5-0.2-0.9-0.3-1.1
		c-0.1-0.5-0.2-0.8-0.2-1c0-0.8,0.2-1.2,0.8-1.3C795.5,328.6,795.9,328.9,796.1,329.7z"/>
	<path class="st0" d="M865.9,332c-0.2,0-0.7,0-1.7-0.1c-4.4-0.5-8-0.7-10.6-0.4c-2.2,0.2-3.4,2.7-3.4,7.6c0,1.7,0.1,6,0.3,12.7
		c0.1-0.2,0.3-0.3,0.6-0.3c0,0,0.3,0,0.7,0.1c1.2,0.2,3,0.2,5.5-0.1c2-0.2,3.5-0.4,4.8-0.6c0.4,0,0.7-0.1,0.8-0.1
		c0.4-0.1,0.6-0.2,0.6-0.1c0.3,0,0.5,0.2,0.7,0.6c0.2,0.4,0.2,0.8,0,1.1c-0.2,0.3-0.4,0.4-0.8,0.4c-0.1,0-0.2,0-0.3-0.1
		c-0.1-0.1-0.3-0.1-0.3-0.1c-0.7-0.1-1.6-0.1-2.8,0c-3,0.1-5.5,0.4-7.5,0.7l-0.3,0.1c-0.2,0-0.3,0.1-0.4,0.1
		c-0.3,0.1-0.5,0.1-0.6,0.1c-0.2,0-0.4-0.1-0.6-0.3c0,0.7,0.1,1.5,0.1,2.3c0.2,9,0.4,14.2,0.6,15.8c0,0.6,0.1,1,0.1,1.3
		c0,0.1,0,0.2,0,0.4c0,0.1,0,0.3,0.1,0.3c0,0.1,0,0.2,0,0.3c0,0.3-0.3,0.6-0.7,0.8c-0.4,0.2-0.7,0.2-1,0c-0.3-0.2-0.4-0.5-0.4-1
		c0-0.1,0-0.3,0.1-0.6c0-0.2,0.1-0.4,0.1-0.5c0-0.4,0-2.7-0.1-6.8c-0.1-4.1-0.2-8.3-0.3-12.7c-0.1-4.4-0.1-6.9-0.1-7.6
		c-0.1-0.8-0.3-1.9-0.4-3.2c-0.1-1.3-0.2-3.1-0.1-5.5c0-2.4,0.4-4,1-4.8c0.7-0.7,1.7-1.3,3.1-1.6c1.4-0.3,2.7-0.5,3.9-0.5
		c1.2,0,2.6,0.1,4.1,0.2c1.5,0.1,2.4,0.2,2.7,0.2c0.8,0,1.3,0,1.5,0c0.7,0,1.1-0.1,1.3-0.1c0.9,0.1,1.4,0.4,1.4,1.1
		C867.4,331.7,866.9,332,865.9,332z"/>
	<path class="st0" d="M887.8,349.2c0,0,0,0.5-0.1,1.4c0,2.2,0.2,5.5,0.6,9.9c0.4,3.7,0.7,6.6,1,8.6c0,0,0,0.2,0.1,0.6
		c0,0.3,0.1,0.6,0.1,0.8c0.1,0.8,0.2,1.2,0.2,1.3c0,0.5-0.3,0.9-0.7,1.2c-0.4,0.3-0.7,0.3-1,0.1c-0.3-0.3-0.4-0.8-0.5-1.5
		c0-0.1,0-0.3,0.1-0.6c0-0.3,0.1-0.5,0.1-0.6c0-1.4,0-3.1-0.2-5.2c-0.3-3.8-0.7-7.3-1.1-10.5c-0.2,0.8-0.4,1.7-0.6,2.6
		c-0.3,1.4-0.6,2.7-1,4.1c-1.1,3.9-2.7,7.6-4.9,11.1c-0.9,1.4-1.8,2.5-2.8,3.3c-1,0.8-1.8,1.1-2.6,1c-0.9-0.1-1.7-0.6-2.2-1.3
		c-0.6-0.7-0.9-1.4-1.1-2.1c-0.6-1.7-1-4.1-1.2-7.1c-0.3-3-0.2-6.9,0.1-11.8c0.7-7.2,2.5-12.3,5.2-15.1c1.1-1,2.3-1.4,3.7-1.3
		c1.4,0.1,2.7,0.7,3.9,1.5c1.1,0.8,2.1,2.1,3.1,3.6c0.3,0.5,0.6,1.2,0.9,2c0.3,0.9,0.5,1.5,0.5,2c0,0,0,0.1,0,0.1
		c0,0,0.1,0.1,0.1,0.2c0.1,0.2,0.1,0.6,0.1,1.2C887.8,348.8,887.8,349,887.8,349.2z M885.4,347.2c-0.1-0.8-0.2-1.5-0.3-2
		c-0.3-1-1-2.2-2-3.4c-1-1.3-2.2-2.1-3.6-2.6c-1.1-0.3-2.3,0.3-3.7,1.9c-1.4,1.6-2.4,3.6-3,6c-1.5,5.5-2.1,11.4-1.8,17.9
		c0.1,2.5,0.5,4.9,1.1,7.1c0.3,0.9,0.7,1.7,1.2,2.3c0.5,0.7,1,1,1.4,1c0.5,0,1.1-0.2,1.9-0.8c0.7-0.6,1.4-1.4,1.9-2.5
		c3.3-6,5.5-12.1,6.4-18.2c0.1-0.8,0.3-1.6,0.4-2.3c0-0.2,0.1-0.5,0.1-0.8c0-0.3,0-0.6,0.1-0.8c0-0.2,0.1-0.4,0.1-0.6
		c0-0.2,0.1-0.4,0.1-0.6C885.6,348.4,885.5,347.9,885.4,347.2z"/>
	<path class="st0" d="M907.9,350.8c0.2-0.9,0.3-1.7,0.3-2.3c0.2-2.5-0.3-4.5-1.5-5.8c-0.7-0.9-2-1.4-3.7-1.3
		c-1.7,0.1-3.1,0.7-4.2,1.8c-1.5,1.6-2.7,3.6-3.5,6.1c-0.8,2.5-1.2,4.9-1.4,7.2c-0.2,2.1-0.1,4.4,0.1,7c0.3,2.6,1,5,2.2,7
		c0.8,1.5,2,2.5,3.7,3.1c1.7,0.6,3.2,0.6,4.5,0.1c1.9-0.8,3.4-2.4,4.4-4.7c0.2-0.5,0.4-1.1,0.5-1.7c0-0.3,0.1-0.6,0.1-1
		c0-0.4,0.1-0.6,0.1-0.7c0.1-1,0.5-1.6,1.2-2c0.3-0.1,0.5-0.1,0.6,0.1c0.3,0.5,0.4,1.3,0.2,2.5c-0.1,0.4-0.3,1-0.6,1.9
		c-0.2,0.4-0.5,1-1.1,1.8c-0.5,0.7-1.2,1.6-2.1,2.6c-0.9,1-1.9,1.7-3.1,2.3c-1.2,0.6-2.4,0.8-3.6,0.7c-1.4-0.1-2.7-0.9-4-2.2
		c-1.3-1.3-2.2-2.6-2.8-3.8c-0.6-1.2-1-2.2-1.2-2.9c-1.1-5.4-1-10.9,0.5-16.7c0.6-2.5,1.7-4.7,3.4-6.6c1.6-1.9,3.4-3,5.2-3.5
		c1.2-0.3,2.3-0.1,3.5,0.5c1.2,0.6,2.1,1.4,2.8,2.3c0.7,1,1.2,2.5,1.4,4.3c0.1,0.5,0.1,1.2,0.1,2.2c0,1-0.1,1.7-0.2,2.1
		c-0.3,1-0.7,1.6-1.1,1.9c-0.4,0.3-0.7,0.2-0.9-0.3C907.7,352.5,907.7,351.8,907.9,350.8z"/>
	<path class="st0" d="M919.7,333.8c0,0.2,0,0.8-0.1,1.7c-0.2,1.8-0.6,5.9-1,12.4c-0.1,2.2-0.3,4.2-0.4,5.9c0.4,0,0.9,0,1.3-0.1
		c1.8-0.1,3.3-0.2,4.5-0.4c0.4,0,0.6-0.1,0.7-0.1l0.6-0.1c0.3,0,0.5,0.3,0.7,0.7c0.2,0.4,0.2,0.8,0,1.1c-0.2,0.3-0.4,0.4-0.8,0.4
		c-0.1,0-0.2,0-0.4-0.1c-0.1-0.1-0.2-0.1-0.3-0.1c-0.6-0.1-1.5-0.1-2.7-0.1c-1.4,0-2.7,0-3.8,0.1c-0.1,2.6-0.2,4.5-0.3,5.6
		c0,0,0,0.6-0.1,1.6c0,1-0.1,2,0,2.8s0.1,1.8,0.2,3c0.1,1.1,0.4,2.2,0.8,3.1c0.4,0.9,1,1.6,1.7,2.1c0.7,0.5,1.9-0.4,3.6-2.6
		s2.8-3.9,3-5c0.1-0.5,0.2-1.1,0.2-1.6c0-0.2,0-0.5,0-0.8s0-0.5,0-0.6c0-0.5,0.2-0.9,0.5-1.3c0.3-0.4,0.6-0.5,1-0.3
		c0.4,0.3,0.6,0.9,0.6,1.9c0,0.2-0.1,0.8-0.3,1.6c-0.1,0.5-0.3,1-0.6,1.7c-0.2,0.7-0.6,1.6-1.1,2.7c-0.5,1.1-1.2,2.2-2,3.2
		c-0.9,1-1.8,1.8-2.8,2.3c-1,0.5-2.1,0.1-3.3-1.2c-1.2-1.3-1.9-2.8-2.2-4.5c-0.2-0.9-0.3-1.9-0.4-2.9c0-1.6,0-5.2,0.3-10.7
		c-0.8,0-1.5,0.1-2.2,0.3h-0.3c-0.1,0-0.3,0.1-0.3,0.1c-0.3,0.1-0.5,0.1-0.6,0.1c-0.5,0-0.8-0.4-0.7-1c0-0.6,0.3-1,0.7-1
		c0,0,0.3,0,0.7,0.1c0.7,0.1,1.6,0.1,2.7,0.1c0-1,0.1-2.1,0.1-3.2c0.4-8.2,0.6-13,0.6-14.3c0-0.7,0-1.1,0-1.4
		c-0.1-0.7-0.1-1.1-0.1-1.3c0.1-0.9,0.4-1.4,1-1.4S919.7,332.9,919.7,333.8z"/>
	<path class="st0" d="M953.6,352.3c0.1,0.5,0.2,1.1,0.2,1.9c0,0.3,0,0.7-0.1,1.2c-0.1,0.5-0.1,0.9-0.1,1l-0.1,1.1c0,0.7,0,1.4,0,2.1
		c0,0.7-0.1,1.6-0.3,2.7c-0.2,1.1-0.4,2.2-0.7,3.2c-0.3,1-0.7,2.1-1.3,3.4c-0.6,1.3-1.2,2.4-1.9,3.5c-0.7,1.1-1.8,1.8-3.1,2.3
		c-1.4,0.4-2.7,0.6-4,0.4c-1.3-0.2-2.4-0.5-3.4-1.2c-2-1.2-3.5-2.8-4.5-4.8c-0.7-1.3-1.2-2.8-1.6-4.5c-0.4-1.7-0.7-4-0.7-6.9
		c0-2.9,0.4-5.8,1.3-8.7c0.8-2.6,2.3-4.8,4.4-6.5s4.2-2.5,6.2-2.3c2,0.2,3.7,1,5.1,2.5s2.5,3,3.3,4.6c0.2,0.4,0.5,1.2,0.8,2.4
		C953.4,350.9,953.6,351.7,953.6,352.3L953.6,352.3z M951.6,352.2c-0.1-1-0.2-1.9-0.3-2.7c-0.6-2.8-1.7-4.9-3.5-6.3
		c-1.1-1-2.7-1.4-4.8-1.3c-2.1,0.1-3.8,0.9-5,2.2c-1.9,2.1-3.2,4.7-4,8c-0.8,3.3-1.1,6-1,8.2c0,2.2,0.6,4.4,1.7,6.5
		c1,2,2.4,3.7,4.1,5.2c1.7,1.5,3.4,2.2,5.1,2.1c1.5-0.1,3-1.2,4.4-3.1c1.4-1.9,2.4-3.9,3-6.1c0.4-1.6,0.6-3.8,0.6-6.5
		c0-0.9,0-1.7-0.1-2.5c0-0.2,0-0.5,0-0.8s0-0.6-0.1-0.8c0-0.2,0-0.4,0-0.6s0-0.3,0.1-0.4C951.6,353,951.6,352.6,951.6,352.2z"/>
	<path class="st0" d="M961,341.3c0,0.1,0,0.5,0,1c0,1.1-0.1,2.5-0.1,4c1.4-2,3.3-3.8,5.7-5.3c0.9-0.7,2-1,3.2-1.2
		c1.2-0.1,2.2,0,3,0.3c1.6,0.6,2.8,1.7,3.6,3.2c0.8,1.6,1.1,3.3,0.7,5.2c-0.2,1.1-0.7,2.2-1.6,3.3c-0.9,1.1-1.9,1.8-3.1,2.3
		c-1.4,0.5-2.9,0.8-4.5,0.9c-1.5,0.1-2.7,0.1-3.6-0.1c-0.4,0-0.8-0.1-1.1-0.2c1.2,1.7,3.3,4.5,6.4,8.3c1,1.4,3.5,4.9,7.5,10.5
		c0,0,0,0.1,0.1,0.1c0,0,0.1,0.1,0.1,0.2c0,0.1,0.1,0.1,0.1,0.2l0.3,0.4c0,0.2-0.2,0.4-0.5,0.7c-0.3,0.3-0.7,0.4-1,0.3
		c-0.3,0-0.5-0.1-0.6-0.3c0,0,0-0.1,0-0.2c0-0.1,0-0.2,0-0.2c0-0.2-0.8-1.6-2.4-4c-1.5-2.4-2.5-3.9-3-4.6c-0.9-1.3-2.5-3.4-4.8-6.3
		c-2.3-2.9-3.8-4.7-4.4-5.4l-0.1-0.1c0,1.3,0,2.1,0,2.5c0,9.9,0,15.2,0.1,15.7c0,0.4,0.1,0.7,0.1,0.9l0.1,0.8c0,0.3-0.3,0.6-0.7,0.8
		c-0.4,0.2-0.7,0.2-1,0c-0.3-0.2-0.4-0.5-0.4-1c0-0.1,0-0.2,0.1-0.4c0-0.2,0.1-0.3,0.1-0.4c0-0.3,0.1-1.5,0.1-3.4c0-2,0.1-4,0.1-6.3
		c0-2.2,0.1-3.4,0.1-3.6c0-1.8,0-4.8-0.1-8.9c-0.1-4.1-0.3-6.8-0.5-8.1c0-0.4-0.1-0.7-0.1-0.8c-0.1-0.4-0.1-0.6-0.1-0.7
		c0-0.6,0.4-0.9,1-0.9C960.5,340.4,960.9,340.7,961,341.3z M961,350c0,0.4,0,0.8,0,1.3c0.3,0,0.6,0.2,0.9,0.5
		c0.1,0.1,0.3,0.2,0.4,0.4c0.1,0.2,0.2,0.3,0.3,0.3c0.3,0.2,0.7,0.5,1.2,0.7c0.5,0.2,1.4,0.4,2.6,0.6c1.2,0.2,2.5,0,3.9-0.5
		c1.3-0.4,2.4-1.1,3.4-2.1c1-1,1.6-1.9,1.9-2.7c0.3-0.8,0.5-1.4,0.5-1.8c0-1.6-0.5-3-1.5-4.1c-0.6-0.7-1.4-1.2-2.4-1.5
		c-1-0.3-2-0.3-3,0c-1.7,0.7-3.2,1.7-4.4,2.9c-1.2,1.2-2,2.3-2.6,3.3c-0.2,0.2-0.3,0.5-0.3,0.8c0,0.1,0,0.2,0,0.4
		c0,0.2-0.1,0.3-0.1,0.4c-0.1,0.5-0.3,0.8-0.6,0.9C961,350,961,350,961,350z"/>
</g>
<g>
	<path class="st0" d="M742.5,396.7c0,0.1,0,0.6-0.1,1.3c-0.1,0.8-0.2,2.8-0.3,5.8s-0.3,6.4-0.4,10.1c-0.1,3.7-0.2,5.9-0.2,6.4
		c-0.5,9.5-0.7,15.6-0.7,18.3c0.3,0.1,0.3,0.8,0.1,1.9c0,0.1,0,0.2-0.1,0.3c0,0,0.1,0.1,0.1,0.2c0,0.1,0.1,0.2,0.1,0.2
		c0,0.1,0,0.1,0,0.2c0,0.2-0.3,0.4-0.7,0.6c-0.4,0.2-0.7,0.2-1,0c-0.2-0.1-0.3-0.2-0.4-0.4h-0.1l0.1-0.3c0-0.1,0-0.2,0.1-0.3
		c0-0.1,0-0.1,0.1-0.1c0-0.1-0.1-0.3-0.1-0.3c0-0.3-0.1-0.7,0-1.1s0.1-0.6,0.1-0.6c0.1,0,0.2-0.1,0.2-0.1c0-0.6,0.1-1.2,0.1-2
		c0.1-2.3,0.2-4.8,0.3-7.4c0.1-2.6,0.2-4.1,0.2-4.5c0.2-2.8,0.4-7.4,0.6-13.7c0.2-6.3,0.3-10.4,0.2-12.4c0-0.6-0.1-1-0.1-1.2
		c-0.1-0.5-0.1-0.8-0.1-1c0-0.8,0.4-1.2,1-1.2S742.4,395.9,742.5,396.7z M758.1,396.5c0,0.1,0,0.6-0.1,1.3
		c-0.1,1.1-0.4,8.3-0.7,21.6c-0.2,9.7-0.3,15.7-0.2,18.1c0-0.1,0.1-0.2,0.2-0.3c-0.1,0.1-0.1,0.5,0,1.2c0.1,0.7,0.1,1.1-0.1,1.1
		c0,0.1,0.1,0.2,0.1,0.2s0,0.1,0,0.1c0,0.2-0.3,0.4-0.7,0.6c-0.4,0.2-0.7,0.2-1,0c-0.3-0.2-0.4-0.4-0.4-0.8c0,0,0-0.2,0.1-0.3
		c0-0.2,0.1-0.3,0.1-0.3c0-0.3,0.1-1.5,0.2-3.8c0.1-2.2,0.1-4.6,0.2-7.2c0.1-2.6,0.1-4,0.1-4.3c0.1-1.8,0.2-4.2,0.2-7.3
		c0,0-0.1-0.1-0.2-0.1c-0.2-0.1-0.3-0.1-0.4-0.1c-0.7-0.1-1.8-0.1-3.3-0.1c-3.4,0.1-6.2,0.3-8.4,0.7c0,0-0.2,0-0.4,0
		c-0.2,0-0.3,0-0.4,0c-0.4,0.1-0.6,0.1-0.7,0.1c-0.6-0.1-0.8-0.4-0.8-1c0-0.6,0.3-0.9,0.8-1c0.1,0,0.4,0,0.9,0.1
		c1.3,0.1,3.3,0.1,6.2-0.1c2.2-0.1,4-0.3,5.3-0.5c0.5,0,0.8-0.1,0.9-0.1c0.2-0.1,0.4-0.1,0.6-0.1c0-1.1,0.1-2.2,0.1-3.4
		c0.1-5.7,0.1-9.8-0.1-12.5c0-0.6,0-1-0.1-1.1c0-0.6-0.1-0.9-0.1-1.1c0.1-0.7,0.4-1.1,1-1.1C757.8,395.4,758.1,395.7,758.1,396.5z
		 M757.4,437.3L757.4,437.3L757.4,437.3z"/>
	<path class="st0" d="M783.6,418.3c0.1,0.5,0.2,1.1,0.2,1.9c0,0.3,0,0.7-0.1,1.2c-0.1,0.5-0.1,0.9-0.1,1l-0.1,1.1c0,0.7,0,1.4,0,2.1
		c0,0.7-0.1,1.6-0.3,2.7c-0.2,1.1-0.4,2.2-0.7,3.2c-0.3,1-0.7,2.1-1.3,3.4c-0.6,1.3-1.2,2.4-1.9,3.5c-0.7,1.1-1.8,1.8-3.1,2.3
		c-1.4,0.4-2.7,0.6-4,0.4c-1.3-0.2-2.4-0.5-3.4-1.2c-2-1.2-3.5-2.8-4.5-4.8c-0.7-1.3-1.2-2.8-1.6-4.5c-0.4-1.7-0.7-4-0.7-6.9
		c0-2.9,0.4-5.8,1.3-8.7c0.8-2.6,2.3-4.8,4.4-6.5c2.2-1.7,4.2-2.5,6.2-2.3c2,0.2,3.7,1,5.1,2.5c1.4,1.5,2.5,3,3.3,4.6
		c0.2,0.4,0.5,1.2,0.8,2.4C783.5,416.9,783.6,417.7,783.6,418.3L783.6,418.3z M781.6,418.2c-0.1-1-0.2-1.9-0.4-2.7
		c-0.6-2.8-1.7-4.9-3.5-6.3c-1.1-1-2.7-1.4-4.8-1.3c-2.1,0.1-3.8,0.9-5,2.2c-1.9,2.1-3.2,4.7-4,8c-0.8,3.3-1.1,6-1,8.2
		c0,2.2,0.6,4.4,1.7,6.5c1,2,2.4,3.7,4.1,5.2c1.7,1.5,3.4,2.2,5.1,2.1c1.5-0.1,3-1.2,4.4-3.1c1.4-1.9,2.4-3.9,3-6.1
		c0.4-1.6,0.6-3.8,0.6-6.5c0-0.9,0-1.7-0.1-2.5c0-0.2,0-0.5,0-0.8c0-0.3,0-0.6-0.1-0.8c0-0.2,0-0.4,0-0.6s0-0.3,0.1-0.4
		C781.7,419,781.6,418.6,781.6,418.2z"/>
	<path class="st0" d="M791,407.3c0,0.1,0,0.5,0,1c0,1.1-0.1,2.5-0.1,4c1.4-2,3.3-3.8,5.7-5.3c0.9-0.7,2-1,3.2-1.2
		c1.2-0.1,2.2,0,3,0.3c1.6,0.6,2.8,1.7,3.6,3.2c0.8,1.6,1.1,3.3,0.7,5.2c-0.2,1.1-0.7,2.2-1.6,3.3c-0.9,1.1-1.9,1.8-3.1,2.3
		c-1.4,0.5-2.9,0.8-4.5,0.9c-1.5,0.1-2.7,0.1-3.6-0.1c-0.4,0-0.8-0.1-1.1-0.2c1.2,1.7,3.3,4.5,6.4,8.3c1,1.4,3.5,4.9,7.5,10.5
		c0,0,0,0.1,0.1,0.1c0,0,0.1,0.1,0.1,0.2c0,0.1,0.1,0.1,0.1,0.2l0.4,0.4c0,0.2-0.2,0.4-0.5,0.7c-0.3,0.3-0.7,0.4-1,0.3
		c-0.3,0-0.5-0.1-0.6-0.3c0,0,0-0.1,0-0.2c0-0.1,0-0.2,0-0.2c0-0.2-0.8-1.6-2.4-4s-2.5-3.9-3-4.6c-0.9-1.3-2.5-3.4-4.8-6.3
		c-2.3-2.9-3.8-4.7-4.4-5.4l-0.1-0.1c0,1.3,0,2.1,0,2.5c0,9.9,0,15.2,0.1,15.7c0,0.4,0.1,0.7,0.1,0.9l0.1,0.8c0,0.3-0.3,0.6-0.7,0.8
		c-0.4,0.2-0.7,0.2-1,0c-0.3-0.2-0.4-0.5-0.4-1c0-0.1,0-0.2,0.1-0.4c0-0.2,0.1-0.3,0.1-0.4c0-0.3,0.1-1.5,0.1-3.4c0-2,0.1-4,0.1-6.3
		c0-2.2,0.1-3.4,0.1-3.6c0-1.8,0-4.8-0.1-8.9c-0.1-4.1-0.3-6.8-0.5-8.1c0-0.4-0.1-0.7-0.1-0.8c-0.1-0.4-0.1-0.6-0.1-0.7
		c0-0.6,0.4-0.9,1-0.9S790.9,406.7,791,407.3z M791,416c0,0.4,0,0.8,0,1.3c0.3,0,0.6,0.2,0.9,0.5c0.1,0.1,0.3,0.2,0.4,0.4
		c0.1,0.2,0.2,0.3,0.3,0.3c0.3,0.2,0.7,0.5,1.2,0.7c0.5,0.2,1.4,0.4,2.6,0.6c1.2,0.2,2.5,0,3.9-0.5c1.3-0.4,2.4-1.1,3.4-2.1
		c1-1,1.6-1.9,1.9-2.7c0.3-0.8,0.5-1.4,0.5-1.8c0-1.6-0.5-3-1.5-4.1c-0.6-0.7-1.4-1.2-2.4-1.5c-1-0.3-2-0.3-3,0
		c-1.7,0.7-3.2,1.7-4.4,2.9c-1.2,1.2-2,2.3-2.6,3.3c-0.2,0.2-0.3,0.5-0.4,0.8c0,0.1,0,0.2,0,0.4c0,0.2-0.1,0.3-0.1,0.4
		c-0.1,0.5-0.3,0.8-0.6,0.9C791.1,416,791,416,791,416z"/>
	<path class="st0" d="M814.3,407.9c0,0-0.1,0.3-0.3,0.9c-0.3,0.9-0.5,3.3-0.8,7.1c-0.1,0.8-0.2,1.6-0.2,2.4c0.1-0.1,0.2-0.3,0.3-0.5
		c0.3-0.6,0.6-1,0.9-1.4c0.3-0.4,0.6-0.9,1.1-1.6c0.5-0.7,1-1.3,1.4-1.9c2-2.2,3.8-3.5,5.2-3.6c1-0.1,1.9,0.2,2.7,0.9
		c0.8,0.7,1.3,1.3,1.5,2c0.1,0.5,0.3,1.5,0.3,3.2c2.6-2.9,4.9-5.1,7-6.4c1.2-0.8,2.5-1.4,3.8-1.7c1.3-0.3,2.4-0.2,3.3,0.3
		c1.2,0.9,1.9,2.6,2,5.2c0,1.2-0.2,5.4-0.7,12.7c-0.5,7.2-0.8,11-0.8,11.2c0,0.2,0,0.4,0,0.6l0.1,0.6v0.1c0,0.1,0,0.2,0,0.2
		s0,0.1,0,0.2c0,0.3-0.3,0.5-0.7,0.7s-0.7,0.2-1,0c-0.3-0.2-0.4-0.5-0.4-0.9c0-0.1,0-0.2,0.1-0.4c0.1-0.2,0.1-0.3,0.2-0.3
		c0.1-0.6,0.4-3.7,1-9.5c0.6-5.8,0.9-9.2,0.9-10.3c0.1-1.9,0.1-3.3,0-4.3c-0.1-1.4-0.6-2.7-1.3-3.7c-0.7-1-1.5-1.4-2.3-1.2
		c-1.9,0.6-3.7,1.7-5.5,3.3c-1.7,1.6-3.1,3-4.1,4.4c-0.3,0.4-0.5,0.7-0.6,1c-0.2,0.5-0.4,0.8-0.4,0.8c-0.2,0.3-0.4,0.4-0.6,0.5
		c0.1,1.9,0.1,4.2,0.1,6.9c0,7.5,0,11.8-0.1,12.9c0,0.4,0,0.8,0,1.1c0,0.1,0.1,0.2,0.1,0.3c0,0.1,0,0.2,0,0.3c0,0.1,0,0.1,0,0.2
		c0,0.2-0.3,0.4-0.7,0.6c-0.4,0.2-0.8,0.2-1.1,0c-0.3-0.1-0.4-0.4-0.3-0.8c0-0.1,0-0.3,0.1-0.5c0.1-0.2,0.1-0.3,0.1-0.4
		c0.1-0.7,0.3-4.2,0.6-10.8c0.2-4.8,0.3-8,0.3-9.9c-0.5-0.3-0.6-0.7-0.3-1.4c0-0.1,0.1-0.3,0.3-0.5c-0.1-1.4-0.4-2.6-0.8-3.5
		c-0.4-0.8-0.9-1.4-1.6-1.8c-0.7-0.3-1.5-0.3-2.3,0.2c-2.8,1.8-4.9,4.4-6.4,7.8c-0.2,0.5-0.3,0.8-0.4,1c-0.2,0.6-0.3,0.9-0.4,1
		c-0.3,0.5-0.7,0.8-1,0.8c0,0.9,0,1.7,0,2.3c0,1.2,0.1,4,0.4,8.5c0.3,4.5,0.4,7.2,0.5,8.1c0,0.5,0.1,0.8,0.1,1l0.1,0.8
		c0,0.3-0.3,0.6-0.7,0.8c-0.4,0.2-0.7,0.2-1,0c-0.3-0.2-0.4-0.5-0.4-1c0-0.1,0-0.2,0.1-0.5c0-0.2,0.1-0.3,0.1-0.4c0-0.3,0-1.5,0-3.6
		c-0.1-2.1-0.2-4.3-0.2-6.6c-0.1-2.3-0.1-3.6-0.1-3.9c-0.1-4,0-10.1,0.4-18.2c0,0,0.1-0.2,0.1-0.4s0-0.4,0-0.5c0-0.4,0-0.6,0.1-0.8
		c0.2-0.6,0.6-0.8,1.2-0.7C814.1,406.9,814.4,407.3,814.3,407.9z"/>
	<path class="st0" d="M867.2,418.3c0.1,0.5,0.2,1.1,0.2,1.9c0,0.3,0,0.7-0.1,1.2c-0.1,0.5-0.1,0.9-0.1,1l-0.1,1.1c0,0.7,0,1.4,0,2.1
		c0,0.7-0.1,1.6-0.3,2.7c-0.2,1.1-0.4,2.2-0.7,3.2c-0.3,1-0.7,2.1-1.3,3.4c-0.6,1.3-1.2,2.4-1.9,3.5c-0.7,1.1-1.8,1.8-3.1,2.3
		s-2.7,0.6-4,0.4c-1.3-0.2-2.4-0.5-3.4-1.2c-2-1.2-3.5-2.8-4.5-4.8c-0.7-1.3-1.2-2.8-1.6-4.5c-0.4-1.7-0.7-4-0.7-6.9
		c0-2.9,0.4-5.8,1.3-8.7c0.8-2.6,2.3-4.8,4.4-6.5s4.2-2.5,6.2-2.3c2,0.2,3.7,1,5.1,2.5s2.5,3,3.3,4.6c0.2,0.4,0.5,1.2,0.8,2.4
		C867,416.9,867.2,417.7,867.2,418.3L867.2,418.3z M865.1,418.2c-0.1-1-0.2-1.9-0.3-2.7c-0.6-2.8-1.7-4.9-3.5-6.3
		c-1.1-1-2.7-1.4-4.8-1.3c-2.1,0.1-3.8,0.9-5,2.2c-1.9,2.1-3.2,4.7-4,8c-0.8,3.3-1.1,6-1,8.2c0,2.2,0.6,4.4,1.7,6.5
		c1,2,2.4,3.7,4.1,5.2c1.7,1.5,3.4,2.2,5.1,2.1c1.5-0.1,3-1.2,4.4-3.1c1.4-1.9,2.4-3.9,3-6.1c0.4-1.6,0.6-3.8,0.6-6.5
		c0-0.9,0-1.7-0.1-2.5c0-0.2,0-0.5,0-0.8s0-0.6-0.1-0.8c0-0.2,0-0.4,0-0.6s0-0.3,0.1-0.4C865.2,419,865.1,418.6,865.1,418.2z"/>
	<path class="st0" d="M874.4,407.4c0,0.1,0,0.4-0.1,1c-0.1,0.7-0.2,3.3-0.3,7.9c0.1-0.1,0.2-0.3,0.3-0.4c2-2.8,4.1-5.2,6.2-6.9
		c2.4-2,4.5-3,6.5-3c1.6,0,2.9,0.4,3.9,1c1,0.7,1.6,1.3,1.9,2c0.3,0.8,0.5,3.4,0.5,7.8c0.1,4.4,0.1,8.4,0,11.9
		c0,3.5-0.1,6.2-0.2,8.1c0,0.5,0,0.9,0,1.3c0,0.1,0,0.2,0,0.3c0,0.1,0,0.2,0,0.3c0,0.1,0,0.2,0,0.2c0,0.3-0.3,0.6-0.7,0.8
		c-0.4,0.2-0.7,0.2-1,0c-0.3-0.2-0.4-0.5-0.4-1c0-0.1,0-0.3,0.1-0.5c0.1-0.2,0.1-0.4,0.1-0.5c0.1-0.8,0.4-4.8,0.8-11.9
		c0.4-7.1,0.5-11.2,0.4-12.2c-0.2-2.6-0.8-4.4-1.7-5.2c-0.6-0.7-1.6-1-3-1c-1.4,0-2.7,0.3-4,1c-1.8,1.1-3.3,2.3-4.6,3.8
		c-1.3,1.4-2.3,2.8-2.9,4c-0.2,0.4-0.4,0.7-0.6,1.1c-0.2,0.5-0.3,0.8-0.4,0.9c-0.3,0.6-0.8,0.8-1.3,0.6c0,0-0.1,0-0.1-0.1
		c0,1.4-0.1,3-0.1,4.8c-0.3,8.6-0.3,13.9-0.2,15.8c0,0.4,0.1,0.7,0.1,1l0.1,0.8c0,0.3-0.3,0.6-0.7,0.8c-0.4,0.2-0.7,0.2-1,0
		c-0.3-0.2-0.4-0.5-0.4-1c0-0.1,0-0.2,0.1-0.4c0.1-0.2,0.1-0.3,0.1-0.4c0-0.3,0.1-1.5,0.2-3.5c0.1-2,0.1-4.1,0.2-6.3
		c0.1-2.2,0.1-3.4,0.1-3.7c0.1-2,0.2-4.9,0.2-8.8c0.1-3.9,0.1-6.7,0-8.6c0-0.5-0.1-0.7-0.1-0.8c-0.1-0.4-0.1-0.6-0.1-0.8
		c0-0.6,0.4-0.9,1-0.9C874,406.5,874.3,406.8,874.4,407.4z"/>
	<path class="st0" d="M900.4,423.1c-1.2-0.4-2-0.7-2.5-1.1c-0.6-0.5-0.5-0.7,0.3-0.8c0.6-0.1,1.3-0.1,2.3,0.1
		c0.1-1.3,0.3-2.5,0.4-3.7c0.2-1.7,0.5-3.4,0.8-5c0.3-1.8,0.6-3.1,0.9-3.9c0.3-1,1.1-1.9,2.2-2.6c1.2-0.7,2.1-0.7,2.7-0.1
		c1.5,1.4,2.8,3.2,3.9,5.2c1.1,2,1.7,4,1.8,5.8c0,1.7-0.5,3.2-1.7,4.4c-1.2,1.2-2.5,2-3.9,2.3c-0.6,0.1-1.5,0.2-2.9,0.1
		c-1.4,0-2.4-0.1-3.1-0.3c0,0.3-0.1,0.7-0.1,1c-0.4,6.8,0.1,11.4,1.6,13.9c0.4,0.6,1.1,0.8,2.2,0.6c1-0.2,1.9-0.7,2.7-1.5
		c0.6-0.5,1.1-1.4,1.7-2.5c0.3-0.7,0.6-1.4,0.8-2.1c0.1-0.2,0.2-0.6,0.3-1c0.1-0.5,0.2-0.8,0.2-0.9c0.4-1,0.9-1.5,1.6-1.7
		c0.3-0.1,0.5,0,0.6,0.3c0.2,0.5,0.1,1.3-0.4,2.5c0,0-0.3,0.7-1,2l-0.2,0.4c-0.1,0.3-0.2,0.5-0.3,0.7c-0.1,0.2-0.2,0.5-0.5,0.8
		s-0.4,0.7-0.6,1c-0.2,0.3-0.5,0.6-0.8,1c-0.3,0.4-0.6,0.7-1,1.1c-0.4,0.3-0.8,0.7-1.2,1c-0.9,0.6-1.9,0.8-3,0.6
		c-1.1-0.2-2-0.7-2.6-1.5c-0.9-1.3-1.4-3.2-1.5-5.7C900.2,429.8,900.2,426.4,900.4,423.1z M902,421.4c1.2,0.3,2.5,0.5,3.8,0.6
		c1.6,0.1,2.9-0.1,3.8-0.6c0.7-0.3,1.4-0.9,1.8-1.9c0.5-0.9,0.6-1.9,0.4-3c-0.4-3.1-1.9-6.2-4.5-9.2c-1.2-1.4-2.2-1.5-2.9-0.4
		c-0.2,0.3-0.4,0.7-0.5,1c-0.1,0.3-0.2,0.6-0.3,0.8c0,0.2-0.1,0.4-0.1,0.7c0,0.3-0.1,0.4-0.1,0.5c-0.7,3.2-1.3,7.1-1.7,11.5
		C901.9,421.4,902,421.4,902,421.4z"/>
</g>
<g>
	<path class="st0" d="M59.8,178.5c0,0.1,0.1,0.5,0.3,1.3c0.1,0.8,0.6,2.6,1.4,5.2c0.8,2.7,1.7,5.7,2.7,9c1,3.3,1.6,5.2,1.6,5.6
		c0.4,1.2,1.2,4.6,2.4,10.2c0.8,3.5,1.5,6.2,1.9,8.1c0.4-1.6,0.9-3.7,1.5-6.2c1.4-5.2,2.3-8.7,2.9-10.3c0.7-1.8,1.9-5.6,3.6-11.2
		c1.7-5.7,2.6-9.1,2.7-10.2c0-0.4,0-0.8,0-1.2c0-0.1,0-0.3,0-0.6c0-0.3,0-0.5,0-0.6c0-0.4,0.3-0.8,0.7-1c0.4-0.3,0.7-0.3,1,0
		c0.3,0.3,0.4,0.7,0.4,1.4c0,0.1-0.1,0.3-0.2,0.6c-0.1,0.3-0.1,0.4-0.1,0.5c-0.2,0.8-1,3.9-2.6,9.2c-1.5,5.3-2.5,8.4-2.8,9.2
		c-1,2.5-2.3,6.6-3.8,12.2c-1.6,5.7-2.4,9.4-2.5,11.1c0,0.3,0,0.7,0.1,1c0.1,0.5,0.1,0.8,0.1,1c0,0.7-0.3,1.1-0.8,1.1
		c-0.3,0.2-0.5,0.2-0.8,0c-0.3-0.2-0.5-0.7-0.6-1.3c0-0.1,0-0.3,0-0.6c0-0.3,0-0.4,0-0.5c0-0.7-0.6-3.5-1.6-8.5
		c-1-5-1.6-8.1-1.9-9.2c-0.6-2.2-1.7-6.1-3.5-11.8c-1.8-5.7-3-9.4-3.6-11.2c-0.3-0.7-0.4-1.1-0.4-1.1c-0.2-0.5-0.4-0.8-0.4-1
		c-0.1-0.8,0.1-1.3,0.7-1.4C59.1,177.4,59.5,177.7,59.8,178.5z"/>
	<path class="st0" d="M104.7,200.3c0.1,0.5,0.2,1.1,0.2,1.9c0,0.3,0,0.7-0.1,1.2s-0.1,0.9-0.1,1l-0.1,1.1c0,0.7,0,1.4,0,2.1
		c0,0.7-0.1,1.6-0.3,2.7c-0.2,1.1-0.4,2.2-0.7,3.2c-0.3,1-0.7,2.1-1.3,3.4c-0.6,1.3-1.2,2.4-1.9,3.5c-0.7,1.1-1.8,1.8-3.1,2.3
		c-1.4,0.4-2.7,0.6-4,0.4c-1.3-0.2-2.4-0.5-3.4-1.2c-2-1.2-3.5-2.8-4.5-4.8c-0.7-1.3-1.2-2.8-1.6-4.5c-0.4-1.7-0.7-4-0.7-6.9
		c0-2.9,0.4-5.8,1.3-8.7c0.8-2.6,2.3-4.8,4.4-6.5c2.2-1.7,4.2-2.5,6.2-2.3c2,0.2,3.7,1,5.1,2.5c1.4,1.5,2.5,3,3.3,4.6
		c0.2,0.4,0.5,1.2,0.8,2.4C104.5,198.9,104.7,199.7,104.7,200.3L104.7,200.3z M102.7,200.2c-0.1-1-0.2-1.9-0.4-2.7
		c-0.6-2.8-1.7-4.9-3.5-6.3c-1.1-1-2.7-1.4-4.8-1.3c-2.1,0.1-3.8,0.9-5,2.2c-1.9,2.1-3.2,4.7-4,8s-1.1,6-1,8.2
		c0,2.2,0.6,4.4,1.7,6.5c1,2,2.4,3.7,4.1,5.2c1.7,1.5,3.4,2.2,5.1,2.1c1.5-0.1,3-1.2,4.4-3.1c1.4-1.9,2.4-3.9,3-6.1
		c0.4-1.6,0.6-3.8,0.6-6.5c0-0.9,0-1.7-0.1-2.5c0-0.2,0-0.5,0-0.8c0-0.3,0-0.6-0.1-0.8c0-0.2,0-0.4,0-0.6s0-0.3,0.1-0.4
		C102.7,201,102.7,200.6,102.7,200.2z"/>
	<path class="st0" d="M112,189.9c0,0-0.1,0.3-0.3,0.9c-0.3,0.9-0.5,3.3-0.8,7.1c-0.1,0.8-0.2,1.6-0.2,2.4c0.1-0.1,0.2-0.3,0.4-0.5
		c0.3-0.6,0.6-1,0.9-1.4c0.3-0.4,0.6-0.9,1.1-1.6c0.5-0.7,1-1.3,1.4-1.9c2-2.2,3.8-3.5,5.2-3.6c1-0.1,1.9,0.2,2.7,0.9
		c0.8,0.7,1.3,1.3,1.5,2c0.1,0.5,0.3,1.5,0.4,3.2c2.6-2.9,4.9-5.1,7-6.4c1.2-0.8,2.5-1.4,3.8-1.7c1.3-0.3,2.4-0.2,3.3,0.3
		c1.2,0.9,1.9,2.6,2,5.2c0,1.2-0.2,5.4-0.7,12.7c-0.5,7.2-0.8,11-0.8,11.2c0,0.2,0,0.4,0,0.6l0.1,0.6v0.1c0,0.1,0,0.2,0,0.2
		s0,0.1,0,0.2c0,0.3-0.3,0.5-0.7,0.7c-0.4,0.2-0.7,0.2-1,0c-0.3-0.2-0.4-0.5-0.4-0.9c0-0.1,0-0.2,0.1-0.4c0.1-0.2,0.1-0.3,0.2-0.3
		c0.1-0.6,0.4-3.7,1-9.5c0.6-5.8,0.9-9.2,0.9-10.3c0.1-1.9,0.1-3.3,0-4.3c-0.1-1.4-0.6-2.7-1.3-3.7c-0.7-1-1.5-1.4-2.3-1.2
		c-1.9,0.6-3.7,1.7-5.5,3.3c-1.7,1.6-3.1,3-4.1,4.4c-0.3,0.4-0.5,0.7-0.6,1c-0.2,0.5-0.4,0.8-0.4,0.8c-0.2,0.3-0.4,0.4-0.6,0.5
		c0.1,1.9,0.1,4.2,0.1,6.9c0,7.5,0,11.8-0.1,12.9c0,0.4,0,0.8,0,1c0,0.1,0.1,0.2,0.1,0.3c0,0.1,0,0.2,0,0.3c0,0.1,0,0.1,0,0.2
		c0,0.2-0.3,0.4-0.7,0.6c-0.4,0.2-0.8,0.2-1.1,0c-0.3-0.1-0.4-0.4-0.3-0.8c0-0.1,0-0.3,0.1-0.5c0.1-0.2,0.1-0.3,0.1-0.4
		c0.1-0.7,0.4-4.2,0.6-10.8c0.2-4.8,0.3-8,0.3-9.9c-0.5-0.3-0.6-0.7-0.3-1.4c0-0.1,0.1-0.3,0.3-0.5c-0.1-1.4-0.4-2.6-0.8-3.5
		c-0.4-0.8-0.9-1.4-1.6-1.8c-0.7-0.3-1.5-0.3-2.3,0.2c-2.8,1.8-4.9,4.4-6.4,7.8c-0.2,0.5-0.3,0.8-0.4,1c-0.2,0.6-0.3,0.9-0.4,1
		c-0.3,0.5-0.7,0.8-1,0.8c0,0.9,0,1.7,0,2.3c0,1.2,0.1,4,0.4,8.5c0.3,4.5,0.4,7.2,0.5,8.1c0,0.5,0.1,0.8,0.1,1l0.1,0.8
		c0,0.3-0.3,0.6-0.7,0.8c-0.4,0.2-0.7,0.2-1,0c-0.3-0.2-0.4-0.5-0.4-1c0-0.1,0-0.2,0.1-0.5c0-0.2,0.1-0.3,0.1-0.4c0-0.3,0-1.5,0-3.6
		c-0.1-2.1-0.2-4.3-0.2-6.6c-0.1-2.3-0.1-3.6-0.1-3.9c-0.1-4,0-10.1,0.4-18.2c0,0,0.1-0.2,0.1-0.4s0-0.4,0-0.5c0-0.4,0-0.6,0.1-0.8
		c0.2-0.6,0.6-0.8,1.2-0.7C111.8,188.9,112,189.3,112,189.9z"/>
	<path class="st0" d="M148.1,178.1L148.1,178.1c0.4-0.3,0.7-0.4,1.1-0.3c0.4,0.2,0.6,0.7,0.6,1.4c0,0.3,0,0.7-0.2,1.3
		c0,0-0.1,0.2-0.2,0.6c-0.1,0.4-0.2,0.6-0.2,0.7c0,0.1-0.1,0.3-0.2,0.7c-0.1,0.3-0.2,0.6-0.3,0.7c-0.1,0.2-0.2,0.4-0.4,0.7
		c-0.2,0.3-0.3,0.5-0.5,0.7c-0.2,0.2-0.4,0.4-0.6,0.6c-0.3,0.2-0.5,0.3-0.8,0.5c-0.9,0.6-1.8,0.3-2.5-0.8c-0.7-1.1-1-2.4-0.8-3.8
		c0.2-2.2,1.1-3.7,2.7-4.6c0.3-0.1,0.7,0,1.3,0.3c0.5,0.2,0.8,0.5,1,0.8C148,177.8,148,177.9,148.1,178.1z M146.2,178.8
		c-0.2-0.4-0.4-0.6-0.4-0.6c-0.4,0-0.8,0.7-1.2,2.1s-0.6,2.7-0.4,4c0,0.7,0.5,0.7,1.3,0.1c0.3-0.2,0.5-0.4,0.8-0.7
		c0.7-0.7,1.1-1.5,1.3-2.5c0.1-0.4,0.1-0.8,0.1-1.2c0-0.1,0-0.2-0.1-0.3c-0.1,0-0.2,0-0.3-0.1C147,179.6,146.6,179.3,146.2,178.8z
		 M147.6,190.3c0,0.1,0,0.5,0,1c0,0.7,0.1,3.2,0.2,7.5c0.1,4.2,0.2,6.7,0.2,7.4c0,0.3,0,1.9-0.1,4.6c0,2.8-0.1,5-0.1,6.8
		c0,1.8,0,3.3,0,4.5c0,0.4,0.1,0.7,0.1,0.9l0.1,0.8c0,0.3-0.3,0.6-0.7,0.8c-0.4,0.2-0.7,0.2-1,0c-0.3-0.2-0.4-0.5-0.4-1
		c0-0.1,0-0.2,0.1-0.4c0-0.2,0.1-0.3,0.1-0.4c0-0.3,0.1-1.5,0.2-3.5c0.1-2,0.1-4.1,0.2-6.4c0.1-2.3,0.1-3.5,0.1-3.6
		c0-1.8,0-4.8-0.1-9c-0.1-4.2-0.4-7-0.6-8.3c-0.1-0.4-0.2-0.6-0.2-0.8c-0.1-0.4-0.1-0.6-0.1-0.7c0-0.6,0.3-0.9,0.9-1
		C147.1,189.4,147.5,189.7,147.6,190.3z"/>
	<path class="st0" d="M158.2,181.8c0,0.2,0,0.8-0.1,1.7c-0.2,1.8-0.6,5.9-1,12.4c-0.1,2.2-0.3,4.2-0.4,5.9c0.4,0,0.9,0,1.3-0.1
		c1.8-0.1,3.3-0.2,4.5-0.4c0.4,0,0.6-0.1,0.7-0.1l0.6-0.1c0.3,0,0.5,0.3,0.7,0.7c0.2,0.4,0.2,0.8,0,1.1c-0.2,0.3-0.4,0.4-0.8,0.4
		c-0.1,0-0.2,0-0.4-0.1c-0.1-0.1-0.2-0.1-0.3-0.1c-0.6-0.1-1.5-0.1-2.7-0.1c-1.4,0-2.7,0-3.8,0.1c-0.1,2.6-0.2,4.5-0.3,5.6
		c0,0,0,0.6-0.1,1.6c0,1-0.1,2,0,2.8c0,0.8,0.1,1.8,0.2,3c0.1,1.1,0.4,2.2,0.8,3.1c0.4,0.9,1,1.6,1.7,2.1c0.7,0.5,1.9-0.4,3.6-2.6
		s2.8-3.9,3-5c0.1-0.5,0.2-1.1,0.2-1.6c0-0.2,0-0.5,0-0.8c0-0.3,0-0.5,0-0.6c0-0.5,0.2-0.9,0.5-1.3c0.3-0.4,0.6-0.5,1-0.3
		c0.4,0.3,0.6,0.9,0.6,1.9c0,0.2-0.1,0.8-0.3,1.6c-0.1,0.5-0.3,1-0.6,1.7c-0.2,0.7-0.6,1.6-1.1,2.7c-0.5,1.1-1.2,2.2-2,3.2
		c-0.9,1-1.8,1.8-2.8,2.3c-1,0.5-2.1,0.1-3.3-1.2c-1.2-1.3-1.9-2.8-2.2-4.5c-0.2-0.9-0.3-1.9-0.4-2.9c0-1.6,0-5.2,0.3-10.7
		c-0.8,0-1.5,0.1-2.2,0.3H153c-0.1,0-0.3,0.1-0.3,0.1c-0.3,0.1-0.5,0.1-0.6,0.1c-0.5,0-0.8-0.4-0.7-1c0-0.6,0.3-1,0.7-1
		c0,0,0.3,0,0.7,0.1c0.7,0.1,1.6,0.1,2.7,0.1c0-1,0.1-2.1,0.1-3.2c0.4-8.2,0.6-13,0.6-14.3c0-0.7,0-1.1,0-1.4
		c-0.1-0.7-0.1-1.1-0.1-1.3c0.1-0.9,0.4-1.4,1-1.4C157.8,180.4,158.1,180.9,158.2,181.8z"/>
	<path class="st0" d="M174.6,178.1L174.6,178.1c0.4-0.3,0.7-0.4,1.1-0.3c0.4,0.2,0.6,0.7,0.6,1.4c0,0.3,0,0.7-0.2,1.3
		c0,0-0.1,0.2-0.2,0.6c-0.1,0.4-0.2,0.6-0.2,0.7c0,0.1-0.1,0.3-0.2,0.7c-0.1,0.3-0.2,0.6-0.3,0.7c-0.1,0.2-0.2,0.4-0.4,0.7
		c-0.2,0.3-0.3,0.5-0.5,0.7c-0.2,0.2-0.4,0.4-0.6,0.6c-0.3,0.2-0.5,0.3-0.8,0.5c-0.9,0.6-1.8,0.3-2.5-0.8c-0.7-1.1-1-2.4-0.8-3.8
		c0.2-2.2,1.1-3.7,2.7-4.6c0.3-0.1,0.7,0,1.3,0.3c0.5,0.2,0.8,0.5,1,0.8C174.5,177.8,174.5,177.9,174.6,178.1z M172.7,178.8
		c-0.2-0.4-0.4-0.6-0.4-0.6c-0.4,0-0.8,0.7-1.2,2.1s-0.6,2.7-0.4,4c0,0.7,0.5,0.7,1.3,0.1c0.3-0.2,0.5-0.4,0.8-0.7
		c0.7-0.7,1.1-1.5,1.3-2.5c0.1-0.4,0.1-0.8,0.1-1.2c0-0.1,0-0.2-0.1-0.3c-0.1,0-0.2,0-0.3-0.1C173.5,179.6,173.1,179.3,172.7,178.8z
		 M174.1,190.3c0,0.1,0,0.5,0,1c0,0.7,0.1,3.2,0.2,7.5c0.1,4.2,0.2,6.7,0.2,7.4c0,0.3,0,1.9-0.1,4.6c0,2.8-0.1,5-0.1,6.8
		c0,1.8,0,3.3,0,4.5c0,0.4,0.1,0.7,0.1,0.9l0.1,0.8c0,0.3-0.3,0.6-0.7,0.8c-0.4,0.2-0.7,0.2-1,0c-0.3-0.2-0.4-0.5-0.4-1
		c0-0.1,0-0.2,0.1-0.4c0-0.2,0.1-0.3,0.1-0.4c0-0.3,0.1-1.5,0.2-3.5c0.1-2,0.1-4.1,0.2-6.4c0.1-2.3,0.1-3.5,0.1-3.6
		c0-1.8,0-4.8-0.1-9c-0.1-4.2-0.4-7-0.6-8.3c-0.1-0.4-0.2-0.6-0.2-0.8c-0.1-0.4-0.1-0.6-0.1-0.7c0-0.6,0.3-0.9,0.9-1
		C173.6,189.4,173.9,189.7,174.1,190.3z"/>
	<path class="st0" d="M183,189.4c0,0.1,0,0.4-0.1,1c-0.1,0.7-0.2,3.3-0.3,7.9c0.1-0.1,0.2-0.3,0.3-0.4c2-2.8,4.1-5.2,6.2-6.9
		c2.4-2,4.5-3,6.5-3c1.6,0,2.9,0.4,3.9,1c1,0.7,1.6,1.3,1.9,2c0.3,0.8,0.5,3.4,0.5,7.8c0.1,4.4,0.1,8.4,0,11.9c0,3.5-0.1,6.2-0.2,8
		c0,0.5,0,0.9,0,1.3c0,0.1,0,0.2,0,0.4c0,0.1,0,0.2,0,0.3c0,0.1,0,0.2,0,0.2c0,0.3-0.3,0.6-0.7,0.8c-0.4,0.2-0.7,0.2-1,0
		c-0.3-0.2-0.4-0.5-0.4-1c0-0.1,0-0.3,0.1-0.5c0.1-0.2,0.1-0.4,0.1-0.5c0.1-0.8,0.4-4.8,0.8-11.9c0.4-7.1,0.5-11.2,0.4-12.2
		c-0.2-2.6-0.8-4.4-1.7-5.2c-0.6-0.7-1.6-1-3-1s-2.7,0.3-4,1c-1.8,1.1-3.3,2.3-4.6,3.8c-1.3,1.4-2.3,2.8-2.9,4
		c-0.2,0.4-0.4,0.7-0.6,1.1c-0.2,0.5-0.3,0.8-0.4,0.9c-0.3,0.6-0.8,0.8-1.3,0.6c0,0-0.1,0-0.1-0.1c0,1.4-0.1,3-0.1,4.8
		c-0.3,8.6-0.3,13.9-0.2,15.8c0,0.4,0.1,0.7,0.1,1l0.1,0.8c0,0.3-0.3,0.6-0.7,0.8c-0.4,0.2-0.7,0.2-1,0c-0.3-0.2-0.4-0.5-0.4-1
		c0-0.1,0-0.2,0.1-0.4c0.1-0.2,0.1-0.3,0.1-0.4c0-0.3,0.1-1.5,0.2-3.5c0.1-2,0.1-4.1,0.2-6.3c0.1-2.2,0.1-3.4,0.1-3.7
		c0.1-2,0.2-4.9,0.2-8.8c0.1-3.9,0.1-6.7,0-8.6c0-0.5-0.1-0.7-0.1-0.8c-0.1-0.4-0.1-0.6-0.1-0.8c0-0.6,0.4-0.9,1-0.9
		C182.6,188.5,182.9,188.8,183,189.4z"/>
	<path class="st0" d="M209.7,210.3c-0.1,0-0.4,0.2-0.8,0.4s-0.7,0.4-1,0.6c-0.7,0.5-1.4,1.1-1.9,1.6c-0.5,0.6-0.7,1.1-0.8,1.5
		c0,0.4,0.1,0.7,0.4,1c1.3,0.7,3.7,0.8,7.3,0.3c0.4,0,0.9-0.2,1.5-0.3c0.1,0,0.4-0.1,0.7-0.2c0.3-0.1,0.5-0.2,0.6-0.2
		c0.6-0.1,1.1-0.1,1.5,0.2c0.5,0.3,0.6,0.6,0.4,1c-0.1,0.2-0.4,0.4-0.6,0.5c-0.2,0.3-0.6,0.6-1.1,0.8c-0.6,0.4-1.2,0.9-1.9,1.5
		c-1.4,1.4-2.6,3.5-3.5,6.1c-0.7,1.9-0.8,3.8-0.5,5.6c0.2,1.1,0.6,2.1,1.2,3c0.6,0.9,1.4,1.5,2.2,1.9c2.1,0.5,4.2,0.6,6.3,0.4
		c2.1-0.3,4.1-0.8,5.9-1.5c3.3-1.4,5.7-3,7.1-4.9c0.4-0.5,0.7-1,1-1.7c0.3-0.7,0.5-1.4,0.6-2.3c0.1-0.9,0-1.7-0.4-2.4
		c-0.5-1.2-1.6-2.2-3.4-3.1s-3.7-1.3-5.8-1.3c-2.3,0-4.5,0.9-6.5,2.8c-2.1,2-3.4,3.9-3.7,5.8c-0.2,1-0.1,1.9,0.3,2.8
		c0.4,0.8,0.9,1.4,1.5,1.6c1,0.5,2.1,0.6,3.3,0.3c0.7-0.1,1.4-0.4,2-0.8c0.6-0.4,1.1-0.9,1.6-1.5c1.1-1.3,1.9-1.9,2.6-1.8
		c0.2,0,0.3,0.1,0.3,0.4c0,0.3-0.2,0.8-0.5,1.5s-0.8,1.2-1.2,1.7c-0.5,0.5-1.3,1-2.3,1.5c-0.5,0.2-1.3,0.4-2.3,0.4
		c-1,0-2.2-0.2-3.6-0.7c-1.4-0.5-2.4-1.3-3-2.6c-0.7-1.4-0.3-3.4,1.3-6c1.5-2.6,3.4-4.5,5.5-5.7c1.5-0.8,3.3-1.3,5.2-1.3
		c1.9,0,3.5,0.2,4.7,0.7c1.3,0.5,2.4,1.1,3.2,1.8c0.8,0.7,1.4,1.3,1.7,1.8c1,1.7,1.2,3.5,0.7,5.5c-0.3,1.1-0.8,2.1-1.6,3.2
		c-0.8,1-1.7,1.9-2.7,2.6c-3.9,2.7-8.5,4.2-13.9,4.7c-1.4,0.1-2.6-0.1-3.9-0.6c-1.2-0.5-2.2-1.2-2.9-2c-1.6-1.9-2.3-4.1-2-6.6
		c0.3-3.2,1.4-6.3,3.2-9.1c0.3-0.5,0.8-1.1,1.5-1.8c-2.2,0.2-3.7,0.2-4.6,0.1c-2.7-0.2-4.2-0.9-4.8-2.1c-0.5-1.1,0.2-2.7,2.2-4.8
		c0,0,0.5-0.4,1.3-1.1c0.7-0.5,1.1-0.8,1.4-1c1.3-0.6,2.1-0.6,2.3-0.1C211.4,209,211,209.6,209.7,210.3z M224.4,187.8
		c0.5-0.4,1.2-0.7,2-1c4.2-1.7,6.5-2,7.1-0.9c0.5,0.7-0.4,2.2-2.7,4.3c0,0-0.4,0.2-1,0.7c-0.5,0.4-0.8,0.6-1,0.6
		c-0.4,0.2-0.9,0.2-1.3-0.1c-0.4-0.3-0.6-0.6-0.5-0.9c0.1-0.3,0.5-0.6,1-0.9c0.1,0,0.3-0.1,0.5-0.2c0.2-0.1,0.4-0.1,0.5-0.2
		c1.3-0.6,2.2-1.3,2.7-2c0.3-0.5,0.2-0.7-0.3-0.6c-0.7,0-1.8,0.4-3.4,1.2c-0.4,0.2-0.8,0.5-1.3,0.8c-0.7,0.5-1.1,0.8-1.3,0.9
		c-0.7,0.3-1.3,0.5-1.8,0.5c0.9,1.1,1.6,2.6,2.2,4.3c0,0,0,0.1,0.1,0.2c0.1,0,0.3,0,0.4,0.2c0.3,0.4,0.4,1.1,0.2,2.2
		c0,0.1-0.1,0.5-0.3,1c-0.1,0.7-0.3,1.2-0.6,1.5c-1.2,2.9-2.7,5.4-4.7,7.4c-1,1.1-2.2,2-3.6,2.6c-1.4,0.6-2.6,0.8-3.6,0.5
		c-1-0.3-1.8-1-2.4-1.9c-0.6-0.9-1-1.8-1-2.5c-0.1-1.1-0.2-2.4-0.2-3.8c-0.1-1.5,0.1-3.3,0.5-5.4c0.4-2.1,1-3.9,1.9-5.4
		c0.9-1.5,2.4-2.6,4.3-3.1c1.9-0.5,3.5-0.4,4.8,0.3c0.5,0.3,1,0.7,1.5,1.1v-0.1C223.3,188.8,223.7,188.3,224.4,187.8z M224.2,197.7
		c0-1,0-1.6,0-1.9c0-1.6-0.4-2.9-1-4c-0.6-1-1.5-1.8-2.6-2.4c-1.1-0.7-2.1-0.8-3.1-0.6c-1.5,0.5-2.8,1.7-3.9,3.5
		c-1.1,1.8-1.8,3.6-2.1,5.2c-0.2,1.2-0.3,2.5-0.3,3.9c0,1.8,0.4,3.5,1.1,5.1c0.7,1.6,1.5,2.3,2.3,2.2c1.9-0.3,3.7-1.5,5.5-3.6
		c1.8-2.1,3-3.9,3.6-5.4c0.1-0.4,0.3-0.8,0.4-1.3C224.2,198.1,224.2,197.9,224.2,197.7z"/>
	<path class="st0" d="M112.9,275.7c0-0.3,0-0.8,0-1.4c0-0.7,0.1-1.2,0.1-1.5c0-2.3-0.5-4.6-1.5-7c-0.9-1.9-2.2-3.4-3.9-4.3
		c-2.3-1.4-4.5-1.7-6.5-0.9c-1.9,0.7-3.6,1.8-5.1,3.5c-1.5,1.7-2.6,3.5-3.3,5.5c-0.3,0.9-0.5,1.8-0.7,2.8c-0.2,1-0.3,1.7-0.3,2.3
		c0,0.5-0.1,1.3-0.1,2.2c0,1,0,1.5,0,1.5c0,1.4,0,3.2,0,5.4c0,2.1,0.2,5,0.7,8.6c0.5,3.6,1.2,6.8,2.2,9.7c0.4,1.3,1.2,2.4,2.3,3.3
		c1.1,0.9,2.3,1.4,3.4,1.6c2,0.3,4.2-0.3,6.8-1.8c2.5-1.5,4.6-3.2,6.3-5.2c0.6-0.7,1.1-1.5,1.6-2.3c0.2-0.3,0.6-1,1.1-2.2
		c0.6-1.2,1.2-1.8,1.9-2c0.3-0.1,0.5,0,0.6,0.3c0.2,0.7-0.1,1.7-0.8,3.2c-0.1,0.3-0.7,1.1-1.6,2.2c-1.5,2-3.1,3.6-4.6,4.8
		c-2,1.6-4.3,2.8-7,3.7s-4.9,0.9-6.6,0.1c-3.2-1.5-5.4-5.6-6.7-12.2c-0.5-2.2-0.7-4.4-0.8-6.6c-0.1-1.1-0.2-2.7-0.1-4.8
		c0.1-2.1,0.2-4.1,0.4-6.2c0.2-2.1,0.6-4.4,1.3-7c0.7-2.6,1.6-5,2.6-7.3c0.6-1.2,1.5-2.1,2.9-2.9c1.4-0.8,2.8-1.3,4.2-1.6
		c1.4-0.2,2.8-0.2,4.2,0.2c1.4,0.4,2.6,0.9,3.5,1.8c2.8,2.7,4.6,6,5.2,9.9c0,0.3,0.1,1.2,0.2,2.7c0.1,1.1,0.1,1.9,0.1,2.4
		c-0.1,1-0.3,1.7-0.6,2.1c-0.3,0.4-0.6,0.4-0.9-0.1C113.1,277.5,112.9,276.8,112.9,275.7z"/>
	<path class="st0" d="M125,289.1c-1.2-0.4-2-0.7-2.5-1.1c-0.6-0.5-0.5-0.7,0.3-0.8c0.6-0.1,1.3-0.1,2.3,0.1c0.1-1.3,0.3-2.5,0.4-3.7
		c0.2-1.7,0.5-3.4,0.8-5c0.3-1.8,0.6-3.1,0.9-3.9c0.3-1,1.1-1.9,2.2-2.6c1.2-0.7,2.1-0.7,2.7-0.1c1.5,1.4,2.8,3.2,3.9,5.2
		c1.1,2,1.7,4,1.8,5.8c0,1.7-0.5,3.2-1.7,4.4s-2.5,2-3.9,2.3c-0.6,0.1-1.5,0.2-2.9,0.1c-1.4,0-2.4-0.1-3.1-0.3c0,0.3-0.1,0.7-0.1,1
		c-0.4,6.8,0.1,11.4,1.6,13.9c0.4,0.6,1.1,0.8,2.2,0.6c1-0.2,1.9-0.7,2.7-1.5c0.6-0.5,1.1-1.4,1.7-2.5c0.3-0.7,0.6-1.4,0.8-2.1
		c0.1-0.2,0.2-0.6,0.3-1c0.1-0.5,0.2-0.8,0.2-0.9c0.4-1,0.9-1.5,1.6-1.7c0.3-0.1,0.5,0,0.6,0.3c0.2,0.5,0.1,1.3-0.4,2.5
		c0,0-0.3,0.7-1,2l-0.2,0.4c-0.1,0.3-0.2,0.5-0.3,0.7c-0.1,0.2-0.2,0.5-0.5,0.8c-0.2,0.4-0.4,0.7-0.6,1s-0.5,0.6-0.8,1
		c-0.3,0.4-0.6,0.7-1,1.1c-0.4,0.3-0.8,0.7-1.2,1c-0.9,0.6-1.9,0.8-3,0.6c-1.1-0.2-2-0.7-2.6-1.5c-0.9-1.3-1.4-3.2-1.5-5.7
		C124.8,295.8,124.8,292.4,125,289.1z M126.6,287.4c1.2,0.3,2.5,0.5,3.8,0.6c1.6,0.1,2.9-0.1,3.8-0.6c0.7-0.3,1.4-0.9,1.8-1.9
		c0.5-0.9,0.6-1.9,0.4-3c-0.4-3.1-1.9-6.2-4.5-9.2c-1.2-1.4-2.2-1.5-2.9-0.4c-0.2,0.3-0.4,0.7-0.5,1c-0.1,0.3-0.2,0.6-0.3,0.8
		c0,0.2-0.1,0.4-0.1,0.7c0,0.3-0.1,0.4-0.1,0.5c-0.7,3.2-1.3,7.1-1.7,11.5C126.5,287.4,126.5,287.4,126.6,287.4z"/>
	<path class="st0" d="M145,273.4c0,0.1,0,0.4-0.1,1c-0.1,0.7-0.2,3.3-0.3,7.9c0.1-0.1,0.2-0.3,0.3-0.4c2-2.8,4.1-5.2,6.2-6.9
		c2.4-2,4.5-3,6.5-3c1.6,0,2.9,0.4,3.9,1c1,0.7,1.6,1.3,1.9,2c0.3,0.8,0.5,3.4,0.5,7.8c0.1,4.4,0.1,8.4,0,11.9c0,3.5-0.1,6.2-0.2,8
		c0,0.5,0,0.9,0,1.3c0,0.1,0,0.2,0,0.4c0,0.1,0,0.2,0,0.3c0,0.1,0,0.2,0,0.2c0,0.3-0.3,0.6-0.7,0.8c-0.4,0.2-0.7,0.2-1,0
		c-0.3-0.2-0.4-0.5-0.4-1c0-0.1,0-0.3,0.1-0.5c0.1-0.2,0.1-0.4,0.1-0.5c0.1-0.8,0.4-4.8,0.8-11.9c0.4-7.1,0.5-11.2,0.4-12.2
		c-0.2-2.6-0.8-4.4-1.7-5.2c-0.6-0.7-1.6-1-3-1s-2.7,0.3-4,1c-1.8,1.1-3.3,2.3-4.6,3.8c-1.3,1.4-2.3,2.8-2.9,4
		c-0.2,0.4-0.4,0.7-0.6,1.1c-0.2,0.5-0.3,0.8-0.4,0.9c-0.3,0.6-0.8,0.8-1.3,0.6c0,0-0.1,0-0.1-0.1c0,1.4-0.1,3-0.1,4.8
		c-0.3,8.6-0.3,13.9-0.2,15.8c0,0.4,0.1,0.7,0.1,1l0.1,0.8c0,0.3-0.3,0.6-0.7,0.8c-0.4,0.2-0.7,0.2-1,0c-0.3-0.2-0.4-0.5-0.4-1
		c0-0.1,0-0.2,0.1-0.4c0.1-0.2,0.1-0.3,0.1-0.4c0-0.3,0.1-1.5,0.2-3.5c0.1-2,0.1-4.1,0.2-6.3c0.1-2.2,0.1-3.4,0.1-3.7
		c0.1-2,0.2-4.9,0.2-8.8c0.1-3.9,0.1-6.7,0-8.6c0-0.5-0.1-0.7-0.1-0.8c-0.1-0.4-0.1-0.6-0.1-0.8c0-0.6,0.4-0.9,1-0.9
		C144.6,272.5,144.9,272.8,145,273.4z"/>
	<path class="st0" d="M173.3,265.8c0,0.2,0,0.8-0.1,1.7c-0.2,1.8-0.6,5.9-1,12.4c-0.1,2.2-0.3,4.2-0.4,5.9c0.4,0,0.9,0,1.3-0.1
		c1.8-0.1,3.3-0.2,4.5-0.4c0.4,0,0.6-0.1,0.7-0.1l0.6-0.1c0.3,0,0.5,0.3,0.7,0.7c0.2,0.4,0.2,0.8,0,1.1c-0.2,0.3-0.4,0.4-0.8,0.4
		c-0.1,0-0.2,0-0.4-0.1c-0.1-0.1-0.2-0.1-0.3-0.1c-0.6-0.1-1.5-0.1-2.7-0.1c-1.4,0-2.7,0-3.8,0.1c-0.1,2.6-0.2,4.5-0.3,5.6
		c0,0,0,0.6-0.1,1.6c0,1-0.1,2,0,2.8c0,0.8,0.1,1.8,0.2,3c0.1,1.1,0.4,2.2,0.8,3.1c0.4,0.9,1,1.6,1.7,2.1c0.7,0.5,1.9-0.4,3.6-2.6
		s2.8-3.9,3-5c0.1-0.5,0.2-1.1,0.2-1.6c0-0.2,0-0.5,0-0.8c0-0.3,0-0.5,0-0.6c0-0.5,0.2-0.9,0.5-1.3c0.3-0.4,0.6-0.5,1-0.3
		c0.4,0.3,0.6,0.9,0.6,1.9c0,0.2-0.1,0.8-0.3,1.6c-0.1,0.5-0.3,1-0.6,1.7c-0.2,0.7-0.6,1.6-1.1,2.7c-0.5,1.1-1.2,2.2-2,3.2
		c-0.9,1-1.8,1.8-2.8,2.3c-1,0.5-2.1,0.1-3.3-1.2c-1.2-1.3-1.9-2.8-2.2-4.5c-0.2-0.9-0.3-1.9-0.4-2.9c0-1.6,0-5.2,0.3-10.7
		c-0.8,0-1.5,0.1-2.2,0.3h-0.3c-0.1,0-0.3,0.1-0.3,0.1c-0.3,0.1-0.5,0.1-0.6,0.1c-0.5,0-0.8-0.4-0.7-1c0-0.6,0.3-1,0.7-1
		c0,0,0.3,0,0.7,0.1c0.7,0.1,1.6,0.1,2.7,0.1c0-1,0.1-2.1,0.1-3.2c0.4-8.2,0.6-13,0.6-14.3c0-0.7,0-1.1,0-1.4
		c-0.1-0.7-0.1-1.1-0.1-1.3c0.1-0.9,0.4-1.4,1-1.4C172.9,264.4,173.2,264.9,173.3,265.8z"/>
	<path class="st0" d="M188.5,289.1c-1.2-0.4-2-0.7-2.5-1.1c-0.6-0.5-0.5-0.7,0.3-0.8c0.6-0.1,1.3-0.1,2.3,0.1
		c0.1-1.3,0.3-2.5,0.4-3.7c0.2-1.7,0.5-3.4,0.8-5c0.3-1.8,0.6-3.1,0.9-3.9c0.3-1,1.1-1.9,2.2-2.6c1.2-0.7,2.1-0.7,2.7-0.1
		c1.5,1.4,2.8,3.2,3.9,5.2c1.1,2,1.7,4,1.8,5.8c0,1.7-0.5,3.2-1.7,4.4s-2.5,2-3.9,2.3c-0.6,0.1-1.5,0.2-2.9,0.1
		c-1.4,0-2.4-0.1-3.1-0.3c0,0.3-0.1,0.7-0.1,1c-0.4,6.8,0.1,11.4,1.6,13.9c0.4,0.6,1.1,0.8,2.2,0.6c1-0.2,1.9-0.7,2.7-1.5
		c0.6-0.5,1.1-1.4,1.7-2.5c0.3-0.7,0.6-1.4,0.8-2.1c0.1-0.2,0.2-0.6,0.3-1c0.1-0.5,0.2-0.8,0.2-0.9c0.4-1,0.9-1.5,1.6-1.7
		c0.3-0.1,0.5,0,0.6,0.3c0.2,0.5,0.1,1.3-0.4,2.5c0,0-0.3,0.7-1,2l-0.2,0.4c-0.1,0.3-0.2,0.5-0.3,0.7c-0.1,0.2-0.2,0.5-0.5,0.8
		c-0.2,0.4-0.4,0.7-0.6,1s-0.5,0.6-0.8,1c-0.3,0.4-0.6,0.7-1,1.1c-0.4,0.3-0.8,0.7-1.2,1c-0.9,0.6-1.9,0.8-3,0.6
		c-1.1-0.2-2-0.7-2.6-1.5c-0.9-1.3-1.4-3.2-1.5-5.7C188.3,295.8,188.3,292.4,188.5,289.1z M190.1,287.4c1.2,0.3,2.5,0.5,3.8,0.6
		c1.6,0.1,2.9-0.1,3.8-0.6c0.7-0.3,1.4-0.9,1.8-1.9c0.5-0.9,0.6-1.9,0.4-3c-0.4-3.1-1.9-6.2-4.5-9.2c-1.2-1.4-2.2-1.5-2.9-0.4
		c-0.2,0.3-0.4,0.7-0.5,1c-0.1,0.3-0.2,0.6-0.3,0.8c0,0.2-0.1,0.4-0.1,0.7c0,0.3-0.1,0.4-0.1,0.5c-0.7,3.2-1.3,7.1-1.7,11.5
		C190,287.4,190.1,287.4,190.1,287.4z"/>
	<path class="st0" d="M208.6,273.3c0,0.1,0,0.5,0,1c0,1.1-0.1,2.5-0.1,4c1.4-2,3.3-3.8,5.7-5.3c0.9-0.7,2-1,3.2-1.2
		c1.2-0.1,2.2,0,3,0.3c1.6,0.6,2.8,1.7,3.6,3.2c0.8,1.6,1.1,3.3,0.7,5.2c-0.2,1.1-0.7,2.2-1.6,3.3c-0.9,1.1-1.9,1.8-3.1,2.3
		c-1.4,0.5-2.9,0.8-4.5,0.9c-1.5,0.1-2.7,0.1-3.6-0.1c-0.4,0-0.8-0.1-1.1-0.2c1.2,1.7,3.3,4.5,6.4,8.3c1,1.4,3.5,4.9,7.5,10.5
		c0,0,0,0.1,0.1,0.1c0,0,0.1,0.1,0.1,0.2c0,0.1,0.1,0.1,0.1,0.2l0.4,0.4c0,0.2-0.2,0.4-0.5,0.7c-0.3,0.3-0.7,0.4-1,0.3
		c-0.3,0-0.5-0.1-0.6-0.3c0,0,0-0.1,0-0.2c0-0.1,0-0.2,0-0.2c0-0.2-0.8-1.6-2.4-4c-1.5-2.4-2.5-3.9-3-4.6c-0.9-1.3-2.5-3.4-4.8-6.3
		c-2.3-2.9-3.8-4.7-4.4-5.4l-0.1-0.1c0,1.3,0,2.1,0,2.5c0,9.9,0,15.2,0.1,15.7c0,0.4,0.1,0.7,0.1,0.9l0.1,0.8c0,0.3-0.3,0.6-0.7,0.8
		c-0.4,0.2-0.7,0.2-1,0c-0.3-0.2-0.4-0.5-0.4-1c0-0.1,0-0.2,0.1-0.4c0-0.2,0.1-0.3,0.1-0.4c0-0.3,0.1-1.5,0.1-3.4c0-2,0.1-4,0.1-6.3
		c0-2.2,0.1-3.4,0.1-3.6c0-1.8,0-4.8-0.1-8.9c-0.1-4.1-0.3-6.8-0.5-8.1c0-0.4-0.1-0.7-0.1-0.8c-0.1-0.4-0.1-0.6-0.1-0.7
		c0-0.6,0.4-0.9,1-0.9C208.2,272.4,208.6,272.7,208.6,273.3z M208.6,282c0,0.4,0,0.8,0,1.3c0.3,0,0.6,0.2,0.9,0.5
		c0.1,0.1,0.3,0.2,0.4,0.4c0.1,0.2,0.2,0.3,0.3,0.3c0.3,0.2,0.7,0.5,1.2,0.7c0.5,0.2,1.4,0.4,2.6,0.6c1.2,0.2,2.5,0,3.9-0.5
		c1.3-0.4,2.4-1.1,3.4-2.1c1-1,1.6-1.9,1.9-2.7c0.3-0.8,0.5-1.4,0.5-1.8c0-1.6-0.5-3-1.5-4.1c-0.6-0.7-1.4-1.2-2.4-1.5
		c-1-0.3-2-0.3-3,0c-1.7,0.7-3.2,1.7-4.4,2.9c-1.2,1.2-2,2.3-2.6,3.3c-0.2,0.2-0.3,0.5-0.4,0.8c0,0.1,0,0.2,0,0.4
		c0,0.2-0.1,0.3-0.1,0.4c-0.1,0.5-0.3,0.8-0.6,0.9C208.7,282,208.7,282,208.6,282z"/>
</g>
<path class="st0" d="M534,177.1c0,7.9-15.2,4-15.8,10.5c-3.7,45.6-7.5,56.5-52.2,56.5c-51.2,0-114.5-48.5-114.5-111.5
	S409.3,20,459,32.1c63.9,15.6,62,44,64,89C523.6,134.8,534,164.3,534,177.1z"/>
<path class="st22" d="M518.5,113.2c2-2.4-2-7-6.6-9.2c-3-1.4-5.7-1.3-6.8-1.4c-7.6-0.5-15.3-1.4-24.3-0.5c-19.1,2-22.6,6.1-24.7,7.3
	c-2.2,1.3-4.8,2-4.2,4.9c0.4,1.9-0.4,2.5,1.7,2.4c5.3-0.3,6.7-2.8,16.5-7.4c10.5-5,30.4-6,34.9-0.5c1.1,1.3,1.7,3.5,3.3,4.7
	C511.1,115.8,516.8,115.2,518.5,113.2z"/>
<path class="st22" d="M514.3,143.4"/>
<path class="st22" d="M513.1,142.3"/>
<circle class="st23" cx="492.4" cy="138.9" r="9.2"/>
<circle class="st0" cx="493.5" cy="134.4" r="1.9"/>
<path class="st23" d="M518.1,142c-0.1-0.6-2.2-0.2-3.7-1.1c-2.9-1.7-1-0.5-5.5-3.8c-3.2-2.3-3.8-3.6-5.6-5
	c-7.6-6.1-13.4-4.9-20.3-1.5c-7.2,3.5-5.6,9.6-12.8,10.6c-0.7,0.1-4.6,0-4.6,0.4c0,0.5,3.8,1.1,5.3,1.3c0.2,0,1.2,0.2,1.6,0.2
	c4.1,0.3,6.6-6.7,12.1-10.3c5.7-3.7,10.6-1.4,12.6-0.8c3.5,1,3.8,2.6,10.1,7c8,5.6,10.5,3.9,10.9,3.7
	C518.5,142.6,518.2,142.3,518.1,142z"/>
<path class="st24" d="M511.1,133.5c-3.1-3.1-11.8-12.3-20.8-11.2c-7.2,0.9-11.4,4.2-13.7,6.8c-2.4,2.6-3.7,5.3-3.7,5.3"/>
<path class="st23" d="M516.7,180.2c0.3-0.3-3.9-4.9-7.3-4.9c-3.3,0-5,1.6-4.2,2.8c1.8,2.8,4.4,0.8,6.4,1S516.4,180.5,516.7,180.2z"
	/>
<path class="st22" d="M470.6,143.4"/>
<path class="st22" d="M471.7,142.3"/>
<circle class="st0" cx="493.4" cy="134.4" r="1.9"/>
<path class="st22" d="M499,47.1c-14.2,3.6-39.9-1.4-51,28c-25.8,68.2-3,155,0,162s14.7,36.7,12.1,38.1c-3,1.7-14.7-2.1-25.6-6.2
	c-10.9,4.5-30.7,0.1-36.1-1.4c-47-13.2-69.8-59.6-69.8-134.3C328.6,60.9,379,14.1,453,29.1C486,29.1,499,47.1,499,47.1z"/>
<path class="st22" d="M517,210.5c0,0-2.6-0.5-5.5-1.2c-5.9-1.5-22.1-2.5-22.1-3.5c0-1,7.3-1.2,11.6-2.5c4.9-1.5,10-2.5,12-2.2
	c2.3,0.4,2.4,3.5,5,2.1c0,0,2,2.1,1,4.2C518.5,208.3,519,210.5,517,210.5z"/>
<path class="st22" d="M517,211.1c0,0-2.2-1.4-6-1.9c-6.3-1-22.2-4.6-22.7-4c-0.5,0.5,5.7,8.1,7.1,9.1c1.4,1,5.1,4.7,13.2,6
	c4.7,0.7,5.2-0.2,5.2-0.2s4.1-0.9,4.1-5.2C518,212.8,518,211.1,517,211.1z"/>
<g>
	<path class="st23" d="M502.7,133.9l3.6-2l0.5-0.7c0,0-0.4,0.4-0.8,0.6c-0.8,0.5-2.3,1.3-2.6,1.5c-0.3,0.3-1.2,0.4-1.2,0.4
		L502.7,133.9z"/>
	<path class="st23" d="M499.6,132.1l3.3-4.1l0.4-1c0,0-0.4,0.5-0.7,1c-0.8,1.3-2.2,2.3-2.3,2.7c-0.2,0.6-1.4,1.1-1.4,1.1
		L499.6,132.1z"/>
	<path class="st23" d="M505.7,136.6l3.8-2.1l0.6-0.6c0,0-0.5,0.3-0.8,0.5c-1,0.7-2.3,1.1-2.6,1.3c-0.4,0.3-1.4,0.5-1.4,0.5
		L505.7,136.6z"/>
	<path class="st23" d="M504.4,135.1l3.4-1.9l0.5-0.5c0,0-0.4,0.3-0.7,0.5c-0.9,0.6-2.1,1-2.3,1.2c-0.3,0.3-1.3,0.5-1.3,0.5
		L504.4,135.1z"/>
	<path class="st23" d="M496.7,131l3.1-4.4l0.7-1.8c0,0-0.3,0.6-0.7,1.1c-0.7,1.1-2.4,3.2-2.6,3.6c-0.2,0.7-1.4,1.2-1.4,1.2
		L496.7,131z"/>
	<path class="st23" d="M493.9,130.3l2.3-4.8l0.5-2c0,0-0.3,0.7-0.5,1.3c-0.5,1.2-1.8,3.4-1.9,3.9c-0.1,0.7-1.5,1.4-1.5,1.4
		L493.9,130.3z"/>
	<path class="st23" d="M492.4,130.2l0-5.4l-0.1-2.1c0,0-0.2,0.3-0.2,0.9c0,1.3-0.5,3.5-0.4,4.1c0.2,0.8-0.4,2.4-0.4,2.4L492.4,130.2
		z"/>
	<path class="st23" d="M501.7,132.9l3.8-3.3l0.3-0.7c0,0-0.3,0.1-0.6,0.5c-0.8,0.7-2.4,2.2-2.6,2.5c-0.3,0.5-1.4,0.8-1.4,0.8
		L501.7,132.9z"/>
	<path class="st23" d="M480.6,133.6l-2.1-1.3l-1.8-1.8c0,0,0.3,0.1,0.6,0.4c0.7,0.6,1.3,1,1.5,1.3c0.3,0.4,2.3,1.5,2.3,1.5
		L480.6,133.6z"/>
	<path class="st23" d="M484.7,131.4l-2.3-3l-1.7-2.6c0,0,0.3,0.2,0.6,0.7c0.7,1,2.1,2.5,2.3,3c0.2,0.6,1.5,1.7,1.5,1.7L484.7,131.4z
		"/>
	<path class="st23" d="M486.9,130.8l-2.3-5l-0.3-1.2c0,0,0.2,0.2,0.5,0.7c0.5,1.1,1.2,2.6,1.5,3.1c0.4,0.6,1.4,2,1.4,2L486.9,130.8z
		"/>
	<path class="st23" d="M489.5,130.4l-1.3-4.3l-0.6-2.6c0,0,0.2,0.3,0.4,0.9c0.4,1.2,1.4,3.2,1.4,3.7c0,0.7,1,2.1,1,2.1L489.5,130.4z
		"/>
	<path class="st23" d="M482.1,132.1l-3.9-3.1l-0.3-0.7c0,0,0.7,0.6,1,0.9c0.8,0.7,1.9,1.3,2.1,1.7c0.3,0.5,1.5,1.2,1.5,1.2
		L482.1,132.1z"/>
	<path class="st23" d="M478,134.5l-3.6-1.9l-0.3-0.4c0,0,0.6,0.4,1,0.6c0.7,0.4,1.7,0.8,1.9,1c0.3,0.3,1.4,0.7,1.4,0.7L478,134.5z"
		/>
	<path class="st23" d="M475.6,137.8l-2.5-0.7c0,0-3.5-1.1-2.4-0.9c1,0.2,0.8,0.2,1.2,0.3c1,0.4,2.2,0.5,2.5,0.7
		c0.5,0.3,1.6,0.4,1.6,0.4L475.6,137.8z"/>
	<path class="st23" d="M476.8,136.5l-4.1-1.8l-0.4-0.5c0,0,0.7,0.3,1.1,0.5c0.8,0.4,1.9,0.7,2.2,0.9c0.4,0.3,1.6,0.6,1.6,0.6
		L476.8,136.5z"/>
</g>
<path class="st25" d="M416.5,36.6c-45,4-75,53-75,87.7s9.1,64.1,40,64.1c0,0,16,10,21,24.1c5,14,11,36.1,12,38.1s9,4,10,1
	c1-3-3-23-4-32.1s-5-29.1-8-46.1s4-17,10-19c6-2,27-12,36-25.1s49-12,51-23s9-25.1-11-47.1S455.5,33.1,416.5,36.6z"/>
<g>
	<g>
		<polygon class="st26" points="570,569.1 570.4,567.7 570.7,566.3 571.4,563.4 575.2,564.2 574.6,567.2 574.3,568.7 573.9,570.2 		
			"/>
		<path class="st26" d="M573,553.6c0.5-3.9,0.9-7.9,1.2-11.8l3.7,0.2c-0.2,4.1-0.5,8.1-1.1,12.2L573,553.6z"/>
		<path class="st26" d="M574.3,531.9c-0.1-3.9-0.5-7.9-1.1-11.7l3.4-0.6c0.7,4,1.1,8.1,1.3,12.2L574.3,531.9z"/>
		<path class="st26" d="M570.9,510.7c-1.2-3.7-2.9-7.2-5-10.5l2.7-1.8c2.3,3.5,4.1,7.3,5.5,11.2L570.9,510.7z"/>
		<polygon class="st26" points="559.6,493 550.7,484.8 552.8,482.6 561.7,490.6 		"/>
		<polygon class="st26" points="543.4,477.9 534.7,469.5 536.8,467.5 545.4,475.8 		"/>
		<polygon class="st26" points="527.7,462.3 519.4,453.6 521.3,451.8 529.6,460.4 		"/>
		<polygon class="st26" points="512.6,446.1 504.7,437 506.6,435.4 514.5,444.4 		"/>
		<path class="st26" d="M498.3,429.2c-2.5-3.2-4.9-6.4-7.3-9.6l1.8-1.3c2.4,3.2,4.8,6.4,7.3,9.5L498.3,429.2z"/>
		<path class="st26" d="M485.3,411.3c-2.2-3.4-4.4-6.8-6.5-10.2l1.8-1.1c2.1,3.4,4.2,6.8,6.5,10.1L485.3,411.3z"/>
		<path class="st26" d="M473.9,392.2c-0.9-1.8-1.8-3.6-2.7-5.4c-0.9-1.8-1.7-3.7-2.5-5.5l1.7-0.8c0.8,1.8,1.6,3.7,2.5,5.4
			c0.9,1.8,1.8,3.6,2.7,5.3L473.9,392.2z"/>
		<polygon class="st26" points="464.5,372.1 459.3,361.3 460.8,360.6 466.1,371.4 		"/>
		<polygon class="st26" points="454.9,352.3 449.4,341.6 450.5,341 456.2,351.6 		"/>
		<path class="st26" d="M444.8,332.6c-1.8-3.6-3.5-7.2-5.2-10.9l1-0.5c1.7,3.6,3.4,7.2,5.3,10.8L444.8,332.6z"/>
		<path class="st26" d="M435.8,312.4c-1.5-3.8-2.8-7.6-4-11.4l0.8-0.3c1.3,3.8,2.6,7.6,4.1,11.3L435.8,312.4z"/>
		<polygon class="st26" points="428.9,291.4 425.9,279.7 426.5,279.6 429.6,291.2 		"/>
		<polygon class="st26" points="423.6,269.9 421.2,258.1 421.5,258.1 424.1,269.8 		"/>
		<polygon class="st26" points="419.3,248.3 418.2,242.4 418.5,242.3 419.6,248.2 		"/>
		<g>
			<polygon class="st26" points="435.1,250.1 419.3,247.2 406.2,256.6 413,219.1 			"/>
		</g>
	</g>
</g>
<ellipse transform="matrix(0.9704 -0.2414 0.2414 0.9704 -36.9724 104.6214)" class="st26" cx="408.5" cy="203.2" rx="6.5" ry="10"/>
<line class="st21" x1="412" y1="203.6" x2="248" y2="203.6"/>
<g>
	<g>
		<line class="st21" x1="567.5" y1="495.6" x2="681" y2="495.6"/>
		<g>
			<path class="st0" d="M567.7,499.3c-2.1,0-3.8-1.7-3.8-3.8s1.7-3.8,3.8-3.8c2.1,0,3.8,1.7,3.8,3.8S569.8,499.3,567.7,499.3z"/>
		</g>
	</g>
</g>
<g>
</g>
<g>
</g>
<g>
</g>
<g>
</g>
<g>
</g>
<g>
</g>
<g>
</g>
<g>
</g>
<g>
</g>
<g>
</g>
<g>
</g>
<g>
</g>
<g>
</g>
<g>
</g>
<g>
</g>
<g>
</g>
<g>
</g>
</svg>
