<?xml version="1.0" encoding="utf-8"?>
<!-- Generator: Adobe Illustrator 28.0.0, SVG Export Plug-In . SVG Version: 6.00 Build 0)  -->
<svg version="1.1" xmlns="http://www.w3.org/2000/svg" xmlns:xlink="http://www.w3.org/1999/xlink" x="0px" y="0px"
	 viewBox="0 0 1920 1080" style="enable-background:new 0 0 1920 1080;" xml:space="preserve">
<style type="text/css">
	.st0{fill:none;}
	.st1{fill:#FBBDFF;}
	.st2{fill:#FACCFF;}
	.st3{fill:#FFEBFF;}
	.st4{fill:#FFF0FF;}
	.st5{fill:#333333;}
	.st6{fill:#42210B;}
	.st7{opacity:0.56;}
	.st8{fill:url(#SVGID_1_);}
	.st9{opacity:4.000000e-02;}
	.st10{fill:url(#SVGID_00000077290128411216626910000007997544133877307038_);}
	.st11{opacity:2.000000e-02;}
	.st12{fill:url(#SVGID_00000010312843293911998610000014238219400633463735_);}
	.st13{fill:#FFFAFF;}
	.st14{fill:#E8DAEA;}
	.st15{fill:#FFFFFF;}
	.st16{fill:#F297FF;}
	.st17{fill:#F0FAEB;}
	.st18{fill:#D7E4C1;}
	.st19{fill:url(#SVGID_00000098906126125356347380000015236557853519333054_);}
	.st20{fill:url(#SVGID_00000107570499020648459720000005784586215934452876_);}
	.st21{fill:url(#SVGID_00000145736887426918684350000009608622523752872579_);}
	.st22{fill:#F57F80;}
	.st23{fill:#B7294E;}
	.st24{fill:#E56A75;}
	.st25{fill:#D45063;}
	.st26{fill:#E46672;}
	.st27{fill:#45272A;}
	.st28{fill:#F2885A;}
	.st29{fill:#710731;}
	.st30{fill:#E25F4D;}
	.st31{fill:#48282B;}
	.st32{fill:#FDAE7B;}
	.st33{fill:#F8A977;}
	.st34{fill:#F69969;}
	.st35{fill:#FABF96;}
	.st36{fill:#F9B68A;}
	.st37{fill:#F27C58;}
	.st38{fill:#F7A06F;}
	.st39{fill:#F59062;}
	.st40{fill:#D54645;}
	.st41{fill:#F48C5E;}
	.st42{fill:#FEFEFE;}
	.st43{fill:#343341;}
	.st44{fill:#2A2938;}
	.st45{fill:#0A0A0A;}
	.st46{fill:#242332;}
	.st47{fill:#FAC099;}
	.st48{fill:#45272B;}
	.st49{fill:#F48C60;}
	.st50{fill:#ED7655;}
	.st51{fill:#FDAE7C;}
	.st52{fill:#E25C4D;}
	.st53{fill:#F9B78A;}
	.st54{fill:#D54444;}
	.st55{fill:#F9A977;}
	.st56{fill:#FAFAFA;}
	.st57{fill:#F4895B;}
	.st58{fill:#F79885;}
	.st59{fill:none;stroke:#42210B;stroke-width:3;stroke-linecap:round;stroke-miterlimit:10;}
	.st60{fill:none;stroke:#42210B;stroke-width:2;stroke-linecap:round;stroke-miterlimit:10;}
	.st61{fill:#00D023;}
	.st62{opacity:0.44;fill:#B8274E;}
	.st63{opacity:0.31;fill:#F79885;}
	.st64{opacity:0.44;fill:#42210B;}
	.st65{fill:none;stroke:#FFFFFF;stroke-miterlimit:10;}
	.st66{fill:none;stroke:#FF176C;stroke-width:4;stroke-miterlimit:10;}
	.st67{fill:none;stroke:#FF176C;stroke-width:4;stroke-miterlimit:10;stroke-dasharray:12.0245,10.0204;}
	.st68{fill:none;stroke:#42210B;stroke-linecap:round;stroke-miterlimit:10;}
	.st69{opacity:0.43;fill:#FACCFF;stroke:#FFFFFF;stroke-width:3;stroke-miterlimit:10;}
	.st70{fill:#FF176C;}
	.st71{fill:#FCD6CE;}
	.st72{fill:none;stroke:#E8DAEA;stroke-width:2;stroke-miterlimit:10;}
	.st73{fill:#FFFAFF;stroke:#E8DAEA;stroke-miterlimit:10;}
	.st74{fill:#FFFFFF;stroke:#666666;stroke-miterlimit:10;}
	.st75{fill:#FCFCFC;stroke:#808080;stroke-width:0.75;stroke-miterlimit:10;}
	.st76{opacity:0.54;fill:#E6E6E6;stroke:#808080;stroke-miterlimit:10;}
</style>
<pattern  y="-550" width="71.3" height="79" patternUnits="userSpaceOnUse" id="Hearts" viewBox="0 -79 71.3 79" style="overflow:visible;">
	<g>
		<rect y="-79" class="st0" width="71.3" height="79"/>
		<path class="st1" d="M15-57.2C15-48.9,35.7-10,35.7-10v-47.2c0,0-5.2-11.8-10.3-11.8S15-63.1,15-57.2z"/>
		<path class="st2" d="M56.3-57.2c0,8.3-20.7,47.2-20.7,47.2v-47.2c0,0,5.2-11.8,10.3-11.8S56.3-63.1,56.3-57.2z"/>
	</g>
</pattern>
<g id="BG_Kopie">
	<g>
		<rect y="-550" class="st5" width="1920" height="1080"/>
	</g>
	<g class="st11">
		<pattern  id="SVGID_1_" xlink:href="#Hearts" patternTransform="matrix(1 0 0 0.9991 0 -79.488)"  class="st11">
		</pattern>
		<rect y="-549" class="st8" width="1920" height="1079"/>
	</g>
</g>
<g id="Face_Kopie">
</g>
<g id="BG">
	<g>
		<rect class="st5" width="1920" height="1080"/>
	</g>
	<g>
		<rect x="146" y="963.2" class="st0" width="1646.2" height="110.3"/>
	</g>
</g>
<g id="Face">
</g>
<g id="Hair">
</g>
<g id="Text">
	<g>
		<rect x="-1" y="534.7" class="st0" width="1919.9" height="127.3"/>
		<path class="st15" d="M426.1,538.9c0.1,0.2,0.1,0.9,0.2,2.1c0.1,0.8,1.8,12.4,5.1,34.8c0.4,3.2,1.4,8.7,2.8,16.7
			c1,5.7,1.7,9.7,2.2,12c0.4-1.7,1-5.8,2-12.2c1.2-7.8,1.9-12.1,2.1-12.9c4.6-17.7,7.2-28.6,7.6-32.8c0.1-0.7,0.1-1.3,0.1-1.6
			c0-0.7,0-1.2,0.1-1.4c0.2-1.1,0.8-1.6,1.8-1.4c1,0.1,1.4,0.8,1.3,2c0,0.1,0,0.2,0,0.3c0.3,0.2,0.5,0.6,0.6,1.1
			c0,0.1,0,0.6-0.1,1.7c-0.1,1.5,0.4,5.5,1.5,12s2,10.9,2.6,13.3c2.4,8.9,4.5,16.2,6.4,22.1c0.6-4.1,1.2-8.1,1.9-12
			c0.6-4,1-6.3,1.1-7c4.3-17.4,6.6-28.4,7.1-33c0.1-0.8,0.1-1.4,0.2-1.7c0-0.7,0-1.2,0-1.4c0.4-1.1,1-1.6,1.9-1.4
			c0.9,0.1,1.3,0.8,1.3,2c0,0.3-0.1,0.9-0.4,1.9c-0.5,1.8-2.8,11.2-6.8,28.3c-0.5,2.2-1.4,7.4-2.6,15.5c-1.2,7.4-1.9,12.1-2,14.2
			c0.2,0.7,0.3,1,0.3,1.1c0.4,0.9,0.5,1.4,0.5,1.4c0.1,0.5-0.1,1-0.7,1.5c-0.1,0.5-0.5,1-1.1,1.3c-0.7,0.4-1.2,0.5-1.7,0.1
			c-0.4-0.4-0.6-1.1-0.5-2.1c0-0.2,0.1-0.5,0.2-0.9c0.1-0.4,0.2-0.6,0.2-0.8c0-0.1,0.1-0.4,0.2-1.1c-0.2-0.9-0.7-2.5-1.3-4.9
			c-0.9-3.4-1.9-7.1-2.9-11.1c-1.1-4-1.6-6-1.7-6.1c-0.6-2.5-1.7-7.4-3.3-14.7c-1.2-5.4-2.1-9.6-2.6-12.5c-0.2,0.7-0.4,1.5-0.5,2.4
			c-1,3.9-2.1,8-3.2,12.4c-1.1,4.4-1.8,7.1-2,8c-0.4,1.8-1.3,6.8-2.5,14.9c-1.2,8.1-2,13.2-2.2,15.3c0,0.1,0,0.4-0.1,0.9
			c-0.1,0.4-0.1,0.8-0.1,1c-0.1,1.1-0.2,1.7-0.2,1.8c-0.2,0.5-0.6,0.9-1.2,1.1c-0.1,0.1-0.1,0.3-0.2,0.3c-0.1,0.2-0.3,0.4-0.5,0.4
			c-0.4,0.3-0.8,0.4-1.2,0.3c-0.5-0.1-0.8-0.5-1-1c-0.1-0.1-0.1-0.3,0-0.5v-0.1c-0.1-0.1-0.3-0.3-0.3-0.5c-0.7-1.5-1-2.4-0.7-2.6
			c0.1-0.1,0.3-0.3,0.4-0.3c-0.3-2-0.8-5-1.4-8.9c-1.3-7.6-2-11.8-2.1-12.8c-0.7-4.8-1.7-12-3.2-21.7c-1.5-9.7-2.6-16-3.2-18.8
			c-0.2-1-0.4-1.5-0.5-1.8c-0.2-0.8-0.4-1.4-0.4-1.7c-0.1-1.2,0.3-1.8,1.3-2C425.1,537.2,425.7,537.7,426.1,538.9z"/>
		<path class="st15" d="M492.4,538c0,0.2-0.1,0.9-0.2,2.1c-0.1,1.3-0.3,4.4-0.5,9.1c-0.2,4.8-0.4,10.1-0.7,15.9
			c-0.2,5.9-0.3,9.2-0.3,10c-0.7,15-1.1,24.6-1.1,28.8c0.4,0.2,0.5,1.2,0.2,3c0,0.1,0,0.3-0.1,0.4c0.1,0.1,0.1,0.2,0.1,0.3
			c0.1,0.1,0.1,0.3,0.1,0.4c0,0.1,0,0.2,0,0.3c-0.1,0.4-0.4,0.7-1,0.9c-0.6,0.3-1.2,0.2-1.6-0.1c-0.3-0.1-0.5-0.4-0.7-0.7h-0.1
			l0.1-0.4c0-0.1,0-0.3,0.1-0.5c0-0.1,0-0.2,0.1-0.2c-0.1-0.2-0.1-0.4-0.1-0.5c-0.1-0.5-0.1-1.1-0.1-1.7c0-0.6,0.1-0.9,0.2-0.9
			c0.1-0.1,0.3-0.1,0.3-0.1c0.1-0.9,0.1-1.9,0.2-3.2c0.1-3.7,0.3-7.5,0.5-11.6c0.2-4.1,0.3-6.4,0.4-7.1c0.3-4.4,0.6-11.6,0.9-21.5
			c0.3-9.9,0.4-16.4,0.3-19.4c-0.1-1-0.1-1.6-0.1-1.9c-0.1-0.8-0.2-1.3-0.1-1.5c0.1-1.2,0.6-1.9,1.5-1.8
			C491.7,536.1,492.3,536.7,492.4,538z M517,537.7c0,0.2,0,0.9-0.1,2.1c-0.2,1.8-0.6,13.1-1.1,34c-0.3,15.2-0.4,24.7-0.3,28.5
			c0.1-0.1,0.2-0.3,0.3-0.4c-0.1,0.2-0.1,0.8,0,1.9c0.1,1.1,0.1,1.7-0.1,1.8c0.1,0.1,0.1,0.3,0.1,0.3c0,0.1,0,0.1,0,0.2
			c-0.1,0.4-0.4,0.7-1,0.9c-0.6,0.3-1.2,0.3-1.6,0.1c-0.4-0.3-0.7-0.7-0.7-1.2c0-0.1,0-0.2,0.1-0.5c0.1-0.3,0.1-0.4,0.2-0.5
			c0.1-0.4,0.2-2.4,0.3-5.9c0.1-3.5,0.2-7.3,0.3-11.3c0.1-4,0.2-6.3,0.2-6.8c0.1-2.9,0.3-6.7,0.3-11.4c-0.1-0.1-0.2-0.1-0.3-0.1
			c-0.3-0.1-0.5-0.2-0.7-0.2c-1.2-0.1-2.9-0.2-5.2-0.1c-5.4,0.1-9.8,0.5-13.2,1.1c-0.1,0-0.3,0-0.5,0.1c-0.3,0-0.5,0.1-0.7,0.1
			c-0.6,0.1-1,0.2-1.1,0.2c-0.9-0.1-1.3-0.7-1.3-1.6c0-0.9,0.4-1.4,1.3-1.6c0.1,0,0.6,0,1.4,0.1c2,0.2,5.2,0.2,9.7-0.1
			c3.4-0.2,6.2-0.5,8.4-0.8c0.8-0.1,1.3-0.1,1.4-0.1c0.4-0.1,0.7-0.2,0.9-0.2c0.1-1.7,0.1-3.5,0.1-5.4c0.1-8.9,0.1-15.5-0.1-19.6
			c0-1,0-1.5-0.1-1.8c-0.1-0.9-0.1-1.4-0.1-1.7c0.1-1.2,0.7-1.7,1.7-1.7C516.4,535.9,516.9,536.5,517,537.7z M515.8,601.8v-0.1
			V601.8z"/>
		<path class="st15" d="M546.2,539.9v2c0.1,1.9,0.9,7.1,2.6,15.6c1.6,8.5,2.9,14.4,3.8,17.7c0.7,2.5,2.1,7.7,4.4,15.6
			c1.8,5.9,3,10,3.6,12.1c0.1-0.3,0.3-0.6,0.3-0.9c-0.1,0.3,0.1,1,0.6,2c0.5,1,0.6,1.6,0.5,1.8c-0.1,0.1-0.1,0.1-0.2,0.2
			c0.1,0.1,0.1,0.3,0.2,0.5c0.1,0.4-0.2,0.8-0.8,1.2c-0.6,0.4-1.1,0.5-1.5,0.4c-0.5-0.1-0.8-0.4-1-0.9c0-0.1,0-0.3,0.1-0.5
			c0-0.2,0.1-0.4,0.1-0.6c-0.1-0.4-0.6-2.4-1.5-5.8c-0.9-3.4-1.9-7.1-3-11c-1.1-3.9-1.7-6.1-1.9-6.7c-0.1-0.3-0.1-0.6-0.2-0.9
			c-0.2,0-0.4,0-0.7,0c-0.3,0.1-1.1,0-2.5-0.3c-0.9-0.1-1.8-0.3-2.8-0.3c-2.6-0.1-4.5-0.1-5.7-0.1c-0.1,0-0.7,0.1-1.8,0.2
			c-1,0.1-1.6,0.1-1.8,0c-0.5-0.1-0.9-0.4-1.1-0.7c-2.6,11.4-4.3,18.8-5.1,22.3c0.1,0.1,0.1,0.5,0.1,1c-0.1,0.6-0.3,1.2-0.5,2
			c0,0.1,0,0.3-0.1,0.3c0,0.1,0,0.3,0,0.4c0,0.1,0,0.3,0,0.4s0,0.2-0.1,0.3c-0.1,0.4-0.4,0.6-1.1,0.7c-0.7,0.1-1.2,0-1.7-0.4
			c-0.4-0.3-0.5-0.7-0.4-1.1h-0.1l0.5-1c0-0.1,0-0.3,0-0.4c0.1-1.7,0.3-2.6,0.5-2.6c0.1,0,0.3,0,0.3,0c0.2-0.8,0.5-1.8,0.9-3
			c0.9-3.6,1.8-7.4,2.8-11.5c1-4.1,1.6-6.4,1.7-6.9c1-4.2,2.6-11.2,4.8-21.1c2.2-9.9,3.4-16.3,3.8-19.2c0.1-1,0.1-1.6,0.1-1.9
			c0.1-0.9,0.1-1.4,0.2-1.6c0.3-1.2,0.9-1.7,1.9-1.5c1,0.2,1.4,0.9,1.2,2.1c0,0.1,0,0.4-0.1,0.9
			C545.9,538.8,546.1,539.3,546.2,539.9z M544,545.2c-0.3,1-0.6,2.2-0.9,3.6c-1.1,4.8-2.3,9.9-3.5,15.3c-1.2,5.4-2,8.8-2.3,10
			c-0.3,1.4-0.6,2.7-1,4c0.2-0.1,0.5-0.1,0.8-0.2c0.4-0.1,1.4,0,3.2,0.2c2.6,0.3,5,0.4,7,0.4c1.1,0,2.1,0,2.9-0.1
			c0.1-0.1,0.3-0.1,0.4-0.2c0.1,0,0.3-0.1,0.3-0.1c0.1,0,0.3,0,0.4,0C549.8,571.5,547.4,560.5,544,545.2z"/>
		<path class="st15" d="M562,539.9c0.1-0.1,0.4-0.1,1.1,0c0.7,0.1,8-0.5,21.8-1.8c1.5-0.1,5.5-0.2,11.9-0.3s10.1,0,11.2,0.1
			c0.1,0,0.3,0,0.6,0.1c0.3,0,0.5,0.1,0.7,0.1c0.7,0.1,1,0.1,1.1,0.1c0.4,0.1,0.6,0.5,0.7,1.2c0.1,0.7-0.1,1.2-0.6,1.7
			c-0.4,0.3-0.8,0.4-1.2,0.3c-0.1-0.1-0.2-0.2-0.4-0.3c-0.2-0.1-0.3-0.2-0.4-0.2c-0.6-0.2-3.5-0.5-8.8-0.7c-5.3-0.3-8.5-0.3-9.7-0.3
			c-1,0-2.3,0.1-3.8,0.2c0.2,0.3,0.4,0.7,0.4,1.3c0,0.2-0.1,0.8-0.3,1.9c-0.3,1.8-0.6,6.2-1,13.3c-0.4,7.1-0.5,12.3-0.5,15.6
			c-0.1,1.8-0.1,6.9-0.1,15.5c0,8.5,0,13.7,0.1,15.3c0.1,0.8,0.1,1.4,0.2,1.8l0.2,1.7c-0.1,0.7-0.4,1.2-1.1,1.6
			c-0.7,0.4-1.2,0.4-1.7,0.1c-0.4-0.4-0.7-1-0.7-2c0-0.2,0.1-0.5,0.2-0.9c0.1-0.4,0.2-0.6,0.2-0.8c0.1-0.8,0.2-5.3,0.3-13.5
			c0.1-8.2,0.2-12.4,0.2-12.6c0.7-19.2,1-30.5,0.9-33.9c0-1,0-1.6,0-1.6c-0.1-0.7-0.1-1.2,0-1.4c0.1-0.4,0.1-0.7,0.2-0.9
			c-2,0.1-4.4,0.4-7.1,0.8c-6.4,0.7-10.5,1.2-12.3,1.7c-0.7,0.1-1,0.2-1.1,0.2c-0.4,0.1-0.7,0.2-0.9,0.2c-0.8-0.1-1.2-0.6-1.3-1.5
			C560.8,540.6,561.1,540,562,539.9z"/>
		<path class="st15" d="M670.2,538c0,0.2-0.1,0.9-0.2,2.1c-0.1,1.3-0.3,4.4-0.5,9.1c-0.2,4.8-0.4,10.1-0.7,15.9
			c-0.2,5.9-0.3,9.2-0.3,10c-0.7,15-1.1,24.6-1.1,28.8c0.4,0.2,0.5,1.2,0.2,3c0,0.1,0,0.3-0.1,0.4c0.1,0.1,0.1,0.2,0.1,0.3
			c0.1,0.1,0.1,0.3,0.1,0.4c0,0.1,0,0.2,0,0.3c-0.1,0.4-0.4,0.7-1,0.9c-0.6,0.3-1.2,0.2-1.6-0.1c-0.3-0.1-0.5-0.4-0.7-0.7h-0.1
			l0.1-0.4c0-0.1,0-0.3,0.1-0.5c0-0.1,0-0.2,0.1-0.2c-0.1-0.2-0.1-0.4-0.1-0.5c-0.1-0.5-0.1-1.1-0.1-1.7c0-0.6,0.1-0.9,0.2-0.9
			c0.1-0.1,0.3-0.1,0.3-0.1c0.1-0.9,0.1-1.9,0.2-3.2c0.1-3.7,0.3-7.5,0.5-11.6c0.2-4.1,0.3-6.4,0.4-7.1c0.3-4.4,0.6-11.6,0.9-21.5
			c0.3-9.9,0.4-16.4,0.3-19.4c-0.1-1-0.1-1.6-0.1-1.9c-0.1-0.8-0.2-1.3-0.1-1.5c0.1-1.2,0.6-1.9,1.5-1.8
			C669.5,536.1,670,536.7,670.2,538z M694.7,537.7c0,0.2,0,0.9-0.1,2.1c-0.2,1.8-0.6,13.1-1.1,34c-0.3,15.2-0.4,24.7-0.3,28.5
			c0.1-0.1,0.2-0.3,0.3-0.4c-0.1,0.2-0.1,0.8,0,1.9c0.1,1.1,0.1,1.7-0.1,1.8c0.1,0.1,0.1,0.3,0.1,0.3c0,0.1,0,0.1,0,0.2
			c-0.1,0.4-0.4,0.7-1,0.9c-0.6,0.3-1.2,0.3-1.6,0.1c-0.4-0.3-0.7-0.7-0.7-1.2c0-0.1,0-0.2,0.1-0.5c0.1-0.3,0.1-0.4,0.2-0.5
			c0.1-0.4,0.2-2.4,0.3-5.9c0.1-3.5,0.2-7.3,0.3-11.3c0.1-4,0.2-6.3,0.2-6.8c0.1-2.9,0.3-6.7,0.3-11.4c-0.1-0.1-0.2-0.1-0.3-0.1
			c-0.3-0.1-0.5-0.2-0.7-0.2c-1.2-0.1-2.9-0.2-5.2-0.1c-5.4,0.1-9.8,0.5-13.2,1.1c-0.1,0-0.3,0-0.5,0.1c-0.3,0-0.5,0.1-0.7,0.1
			c-0.6,0.1-1,0.2-1.1,0.2c-0.9-0.1-1.3-0.7-1.3-1.6c0-0.9,0.4-1.4,1.3-1.6c0.1,0,0.6,0,1.4,0.1c2,0.2,5.2,0.2,9.7-0.1
			c3.4-0.2,6.2-0.5,8.4-0.8c0.8-0.1,1.3-0.1,1.4-0.1c0.4-0.1,0.7-0.2,0.9-0.2c0.1-1.7,0.1-3.5,0.1-5.4c0.1-8.9,0.1-15.5-0.1-19.6
			c0-1,0-1.5-0.1-1.8c-0.1-0.9-0.1-1.4-0.1-1.7c0.1-1.2,0.7-1.7,1.7-1.7C694.1,535.9,694.6,536.5,694.7,537.7z M693.5,601.8v-0.1
			V601.8z"/>
		<path class="st15" d="M723.9,539.9v2c0.1,1.9,0.9,7.1,2.6,15.6c1.6,8.5,2.9,14.4,3.8,17.7c0.7,2.5,2.1,7.7,4.4,15.6
			c1.8,5.9,3,10,3.6,12.1c0.1-0.3,0.3-0.6,0.3-0.9c-0.1,0.3,0.1,1,0.6,2c0.5,1,0.6,1.6,0.5,1.8c-0.1,0.1-0.1,0.1-0.2,0.2
			c0.1,0.1,0.1,0.3,0.2,0.5c0.1,0.4-0.2,0.8-0.8,1.2c-0.6,0.4-1.1,0.5-1.5,0.4c-0.5-0.1-0.8-0.4-1-0.9c0-0.1,0-0.3,0.1-0.5
			c0-0.2,0.1-0.4,0.1-0.6c-0.1-0.4-0.6-2.4-1.5-5.8c-0.9-3.4-1.9-7.1-3-11c-1.1-3.9-1.7-6.1-1.9-6.7c-0.1-0.3-0.1-0.6-0.2-0.9
			c-0.2,0-0.4,0-0.7,0c-0.3,0.1-1.1,0-2.5-0.3c-0.9-0.1-1.8-0.3-2.8-0.3c-2.6-0.1-4.5-0.1-5.7-0.1c-0.1,0-0.7,0.1-1.8,0.2
			c-1,0.1-1.6,0.1-1.8,0c-0.5-0.1-0.9-0.4-1.1-0.7c-2.6,11.4-4.3,18.8-5.1,22.3c0.1,0.1,0.1,0.5,0.1,1c-0.1,0.6-0.3,1.2-0.5,2
			c0,0.1,0,0.3-0.1,0.3c0,0.1,0,0.3,0,0.4c0,0.1,0,0.3,0,0.4s0,0.2-0.1,0.3c-0.1,0.4-0.4,0.6-1.1,0.7c-0.7,0.1-1.2,0-1.7-0.4
			c-0.4-0.3-0.5-0.7-0.4-1.1h-0.1l0.5-1c0-0.1,0-0.3,0-0.4c0.1-1.7,0.3-2.6,0.5-2.6c0.1,0,0.3,0,0.3,0c0.2-0.8,0.5-1.8,0.9-3
			c0.9-3.6,1.8-7.4,2.8-11.5c1-4.1,1.6-6.4,1.7-6.9c1-4.2,2.6-11.2,4.8-21.1c2.2-9.9,3.4-16.3,3.8-19.2c0.1-1,0.1-1.6,0.1-1.9
			c0.1-0.9,0.1-1.4,0.2-1.6c0.3-1.2,0.9-1.7,1.9-1.5c1,0.2,1.4,0.9,1.2,2.1c0,0.1,0,0.4-0.1,0.9
			C723.7,538.8,723.9,539.3,723.9,539.9z M721.7,545.2c-0.3,1-0.6,2.2-0.9,3.6c-1.1,4.8-2.3,9.9-3.5,15.3c-1.2,5.4-2,8.8-2.3,10
			c-0.3,1.4-0.6,2.7-1,4c0.2-0.1,0.5-0.1,0.8-0.2c0.4-0.1,1.4,0,3.2,0.2c2.6,0.3,5,0.4,7,0.4c1.1,0,2.1,0,2.9-0.1
			c0.1-0.1,0.3-0.1,0.4-0.2c0.1,0,0.3-0.1,0.3-0.1c0.1,0,0.3,0,0.4,0C727.6,571.5,725.1,560.5,721.7,545.2z"/>
		<path class="st15" d="M754.4,535.9c0.1,0.3,0,1-0.1,2.2c-0.1,1.1-0.2,3.9-0.3,8.4c0.1-0.1,0.2-0.2,0.3-0.3
			c0.1-0.1,0.2-0.2,0.3-0.3c8-8.3,14.6-11.6,19.9-10c1.6,0.4,2.9,1.6,3.9,3.4c1,1.8,1.6,3.9,1.9,6.2c0.3,2.3,0.4,4.4,0.3,6.3
			c0,1.9-0.2,3.4-0.4,4.7c-0.4,1.8-1.1,4.1-2.3,6.9c-1.2,2.8-2.8,5.6-4.7,8.2c-1.5,2.1-3.4,3.8-5.5,5.3c-2.1,1.5-4.1,2.3-5.9,2.4
			c-2.1,0.1-4-0.4-5.7-1.7c-1.1-0.8-2-1.6-2.6-2.4c-0.2,15.5-0.2,25,0,28.6c0.1,0.9,0.1,1.5,0.2,2c0.1,1.2,0.1,1.8,0.1,1.9
			c-0.1,0.7-0.4,1.2-1,1.7c-0.6,0.5-1.2,0.5-1.6,0.1c-0.4-0.4-0.7-1.1-0.7-2.2c0-0.2,0.1-0.5,0.2-0.9c0.1-0.4,0.2-0.7,0.2-0.8
			c0.1-0.7,0.1-3.3,0.2-7.6c0.1-4.3,0.1-8.8,0.2-13.5c0.1-4.7,0.1-7.2,0.2-7.8c0.1-1.5,0.1-3.2,0.1-5.1v-0.1
			c-0.4-1.3-0.7-2.2-0.7-2.8c-0.1-1.2,0.2-2.1,0.8-2.8c0-2.5,0-5.2,0-8.1c0.1-8.2,0-14.3-0.1-18.4c-0.1-1-0.1-1.7-0.1-1.9
			c-0.1-0.8-0.2-1.3-0.2-1.5c0.1-1.3,0.7-2,1.7-1.9C753.8,534,754.3,534.7,754.4,535.9z M753.8,551.3c-0.1,4-0.1,8.8-0.2,14.6
			c0.2,0.6,0.4,1.5,0.7,2.8c0,0.3,0,0.7,0,1.2c0,0.5,0,0.9,0.1,1.1c0.4,2.1,1.2,3.7,2.6,4.8c0.9,0.7,2.2,1.1,3.9,1
			c1.7-0.1,3.3-0.5,4.7-1.4c2.2-1.4,4.1-3.1,5.8-5.2c1.6-2.1,2.8-3.7,3.5-4.9c0.7-1.5,1.4-3.4,2-5.7c0.6-2.3,1.1-5.2,1.5-8.5
			c0.4-3.4,0.2-6.7-0.5-9.9c-0.2-1.1-0.9-2-2.1-2.6s-2.5-1-3.8-0.9c-2.4,0.2-4.7,1-6.9,2.4c-2.9,1.9-5.4,4.1-7.5,6.6
			c-0.6,0.7-1,1.2-1.3,1.8c-0.6,1-0.9,1.6-1,1.8C754.7,550.8,754.3,551.2,753.8,551.3z"/>
		<path class="st15" d="M794.5,535.9c0.1,0.3,0,1-0.1,2.2c-0.1,1.1-0.2,3.9-0.3,8.4c0.1-0.1,0.2-0.2,0.3-0.3
			c0.1-0.1,0.2-0.2,0.3-0.3c8-8.3,14.6-11.6,19.9-10c1.6,0.4,2.9,1.6,3.9,3.4c1,1.8,1.6,3.9,1.9,6.2c0.3,2.3,0.4,4.4,0.3,6.3
			c0,1.9-0.2,3.4-0.4,4.7c-0.4,1.8-1.1,4.1-2.3,6.9c-1.2,2.8-2.8,5.6-4.7,8.2c-1.5,2.1-3.4,3.8-5.5,5.3c-2.1,1.5-4.1,2.3-5.9,2.4
			c-2.1,0.1-4-0.4-5.7-1.7c-1.1-0.8-2-1.6-2.6-2.4c-0.2,15.5-0.2,25,0,28.6c0.1,0.9,0.1,1.5,0.2,2c0.1,1.2,0.1,1.8,0.1,1.9
			c-0.1,0.7-0.4,1.2-1,1.7c-0.6,0.5-1.2,0.5-1.6,0.1c-0.4-0.4-0.7-1.1-0.7-2.2c0-0.2,0.1-0.5,0.2-0.9c0.1-0.4,0.2-0.7,0.2-0.8
			c0.1-0.7,0.1-3.3,0.2-7.6c0.1-4.3,0.1-8.8,0.2-13.5c0.1-4.7,0.1-7.2,0.2-7.8c0.1-1.5,0.1-3.2,0.1-5.1v-0.1
			c-0.4-1.3-0.7-2.2-0.7-2.8c-0.1-1.2,0.2-2.1,0.8-2.8c0-2.5,0-5.2,0-8.1c0.1-8.2,0-14.3-0.1-18.4c-0.1-1-0.1-1.7-0.1-1.9
			c-0.1-0.8-0.2-1.3-0.2-1.5c0.1-1.3,0.7-2,1.7-1.9C793.9,534,794.4,534.7,794.5,535.9z M793.9,551.3c-0.1,4-0.1,8.8-0.2,14.6
			c0.2,0.6,0.4,1.5,0.7,2.8c0,0.3,0,0.7,0,1.2c0,0.5,0,0.9,0.1,1.1c0.4,2.1,1.2,3.7,2.6,4.8c0.9,0.7,2.2,1.1,3.9,1
			c1.7-0.1,3.3-0.5,4.7-1.4c2.2-1.4,4.1-3.1,5.8-5.2c1.6-2.1,2.8-3.7,3.5-4.9c0.7-1.5,1.4-3.4,2-5.7c0.6-2.3,1.1-5.2,1.5-8.5
			c0.4-3.4,0.2-6.7-0.5-9.9c-0.2-1.1-0.9-2-2.1-2.6s-2.5-1-3.8-0.9c-2.4,0.2-4.7,1-6.9,2.4c-2.9,1.9-5.4,4.1-7.5,6.6
			c-0.6,0.7-1,1.2-1.3,1.8c-0.6,1-0.9,1.6-1,1.8C794.8,550.8,794.4,551.2,793.9,551.3z"/>
		<path class="st15" d="M861.6,541.6c-0.3,0-1.2,0-2.8-0.1c-0.6-0.1-2.6-0.1-6,0c-3.4,0.1-6.6,0-9.5-0.1c-1.8,0-3.3,0.3-4.5,0.8
			c-1.2,0.5-2,1.3-2.5,2.4c-0.5,1.1-0.8,2.1-1,2.9c-0.1,0.8-0.3,1.9-0.3,3.1c-0.1,3.1-0.4,10.4-0.7,21.9c1.6-0.2,4.2-0.6,7.7-1
			c2.1-0.3,4.9-0.5,8.6-0.7c0.1,0,0.4,0,0.7,0c0.3,0,0.5,0,0.7,0c0.7,0,1.1,0,1.2,0c0.4,0.1,0.6,0.6,0.7,1.3
			c0.1,0.7-0.1,1.2-0.5,1.6c-0.4,0.3-0.8,0.4-1.2,0.3c-0.1,0-0.2-0.1-0.4-0.2c-0.2-0.1-0.4-0.2-0.4-0.2c-1.4-0.4-2.9-0.6-4.6-0.5
			c-4.3,0.2-8.4,0.9-12.3,2.1c-0.1,1.1-0.1,2.2-0.1,3.4c-0.4,15-0.5,23.6-0.4,25.8c0.1,0.8,0.1,1.4,0.1,1.9c0.1,0.1,0.1,0.3,0.2,0.5
			c0,0.2,0.1,0.4,0.1,0.5c0,0.1,0,0.3,0,0.3c0.4,0,1.1,0,2.1,0.1c3.2,0.3,8.5,0.4,15.9,0.3c5.6,0,10.3-0.1,14-0.3
			c1-0.1,1.7-0.1,2.1-0.1l2-0.2c0.7,0.1,1.4,0.4,1.9,1c0.5,0.6,0.5,1.2,0.1,1.6c-0.4,0.4-1.2,0.7-2.3,0.7c-0.3,0-0.7-0.1-1.1-0.2
			c-0.4-0.1-0.7-0.2-0.9-0.2c-1.8-0.1-4.6-0.3-8.5-0.3c-9.2-0.1-16.5,0.1-21.9,0.4c-1.2,0.1-1.8,0.1-2,0.2c-0.9,0.1-1.5,0.1-1.8,0.1
			c-1.3-0.1-1.9-0.7-1.9-1.6c0-0.1,0-0.3,0-0.3c-0.1-0.1-0.3-0.1-0.4-0.2c-0.4-0.2-0.7-0.7-0.7-1.3c0-0.1,0-0.4,0.1-0.7
			c0.1-0.3,0.1-0.6,0.2-0.7c0.1-0.7,0.2-4.4,0.3-11.3c0.2-6,0.4-12.2,0.5-18.7c-0.1,0.1-0.3,0.1-0.3,0.1c-0.8,0-1.3-0.5-1.4-1.4
			c-0.1-0.9,0.1-1.5,0.9-1.8h1c0.2-7,0.4-11.1,0.4-12.3c0-1-0.1-3.2-0.2-6.8c-0.1-3.6-0.1-6.5,0-9c0.1-2.4,0.6-3.9,1.4-4.4
			c2.1-1.3,4.7-2.1,7.8-2.3c3.2-0.2,6.4-0.1,9.7,0.2c3.3,0.4,5.3,0.5,5.9,0.4c1.5-0.1,2.2-0.2,2.3-0.2c1.1-0.1,1.8-0.2,2.1-0.1
			c1.6,0.1,2.4,0.6,2.4,1.5C864,540.9,863.2,541.5,861.6,541.6z"/>
		<path class="st15" d="M887.6,537.8c0.1,0.1,0.3,0.8,0.7,2.1c1.2,3.5,6.2,14.7,14.9,33.4c0.6,1.2,2.9,6.2,6.8,15
			c1.7,3.7,3,6.6,4.1,8.9c-0.6-10.6-0.8-17.2-0.7-19.9c0.9-20.9,1.1-33.5,0.8-38c-0.1-0.7-0.1-1.1-0.2-1.4c-0.1-0.7-0.2-1.1-0.1-1.2
			c0.1-1,0.6-1.4,1.5-1.5c1,0,1.5,0.4,1.6,1.4c0,0.2,0,0.8-0.1,1.7c-0.1,1.7-0.6,12.3-1.3,31.9c-0.1,2.7,0,8.4,0.2,17.2
			c0.2,7.4,0.5,12.2,0.9,14.3c0.1,0.1,0.1,0.4,0.2,0.8c0.1,0.2,0.1,0.4,0.2,0.7c0.4,0.7,0.7,1.1,0.9,1.4l0.1,0.1l0.1,0.1
			c0,0.1-0.1,0.2-0.2,0.3c-0.1,0.1-0.2,0.3-0.3,0.5c-0.1,0.2-0.1,0.5-0.1,0.8c0.1,0.2-0.1,0.3-0.4,0.3c-0.1,0.1-0.3,0.1-0.4,0.1
			c-0.4,0.3-0.8,0.4-1.2,0.2c-0.4-0.1-0.8-0.4-1-0.8c-0.1-0.1-0.1-0.4-0.2-0.7c-0.1-0.1-0.1-0.3-0.1-0.7c0.1,0,0.1,0,0.1-0.1
			c-0.1,0-0.1,0-0.1-0.1c-0.6-1.2-0.8-2.1-0.8-2.5c-1.5-3.7-4.5-10.7-9-21c-1.8-4.3-5-11.1-9.4-20.5c-4.2-9.1-7-15.1-8.6-18
			c0,1.2,0,2.7,0.1,4.3c0.1,4.3,0.3,8.9,0.5,13.8c0.2,4.9,0.3,7.9,0.3,9c0,0.2,0.1,5.4,0.3,15.6c0.2,10.2,0.3,16,0.4,17.7
			c0.1,1,0.1,1.6,0.1,2c0.1,1.2,0.2,1.8,0.2,1.9c-0.1,0.7-0.4,1.2-1,1.7c-0.6,0.4-1.2,0.5-1.6,0.1c-0.4-0.4-0.7-1.2-0.7-2.2
			c0-0.2,0.1-0.5,0.2-0.9c0.1-0.4,0.2-0.7,0.2-0.8c0.1-1,0.1-10.5,0.1-28.3c0-3.7-0.2-10-0.6-18.9c-0.4-8.8-0.8-14.6-1.3-17.4
			c-0.1-1-0.2-1.5-0.2-1.8c-0.2-0.8-0.3-1.4-0.3-1.6c0-1.2,0.5-1.9,1.4-1.9c1,0,1.5,0.6,1.8,1.8c0,0.1,0,0.1,0,0.2
			C886.9,536.7,887.3,537.1,887.6,537.8z"/>
		<path class="st15" d="M961.4,541.6c-0.3,0-1.2,0-2.8-0.1c-0.6-0.1-2.6-0.1-6,0c-3.4,0.1-6.6,0-9.5-0.1c-1.8,0-3.3,0.3-4.5,0.8
			c-1.2,0.5-2,1.3-2.5,2.4c-0.5,1.1-0.8,2.1-1,2.9c-0.1,0.8-0.3,1.9-0.3,3.1c-0.1,3.1-0.4,10.4-0.7,21.9c1.6-0.2,4.2-0.6,7.7-1
			c2.1-0.3,4.9-0.5,8.6-0.7c0.1,0,0.4,0,0.7,0c0.3,0,0.5,0,0.7,0c0.7,0,1.1,0,1.2,0c0.4,0.1,0.6,0.6,0.7,1.3
			c0.1,0.7-0.1,1.2-0.5,1.6c-0.4,0.3-0.8,0.4-1.2,0.3c-0.1,0-0.2-0.1-0.4-0.2c-0.2-0.1-0.4-0.2-0.4-0.2c-1.4-0.4-2.9-0.6-4.6-0.5
			c-4.3,0.2-8.4,0.9-12.3,2.1c-0.1,1.1-0.1,2.2-0.1,3.4c-0.4,15-0.5,23.6-0.4,25.8c0.1,0.8,0.1,1.4,0.1,1.9c0.1,0.1,0.1,0.3,0.2,0.5
			c0,0.2,0.1,0.4,0.1,0.5c0,0.1,0,0.3,0,0.3c0.4,0,1.1,0,2.1,0.1c3.2,0.3,8.5,0.4,15.9,0.3c5.6,0,10.3-0.1,14-0.3
			c1-0.1,1.7-0.1,2.1-0.1l2-0.2c0.7,0.1,1.4,0.4,1.9,1c0.5,0.6,0.5,1.2,0.1,1.6c-0.4,0.4-1.2,0.7-2.3,0.7c-0.3,0-0.7-0.1-1.1-0.2
			c-0.4-0.1-0.7-0.2-0.9-0.2c-1.8-0.1-4.6-0.3-8.5-0.3c-9.2-0.1-16.5,0.1-21.9,0.4c-1.2,0.1-1.8,0.1-2,0.2c-0.9,0.1-1.5,0.1-1.8,0.1
			c-1.3-0.1-1.9-0.7-1.9-1.6c0-0.1,0-0.3,0-0.3c-0.1-0.1-0.3-0.1-0.4-0.2c-0.4-0.2-0.7-0.7-0.7-1.3c0-0.1,0-0.4,0.1-0.7
			c0.1-0.3,0.1-0.6,0.2-0.7c0.1-0.7,0.2-4.4,0.3-11.3c0.2-6,0.4-12.2,0.5-18.7c-0.1,0.1-0.3,0.1-0.3,0.1c-0.8,0-1.3-0.5-1.4-1.4
			c-0.1-0.9,0.1-1.5,0.9-1.8h1c0.2-7,0.4-11.1,0.4-12.3c0-1-0.1-3.2-0.2-6.8c-0.1-3.6-0.1-6.5,0-9c0.1-2.4,0.6-3.9,1.4-4.4
			c2.1-1.3,4.7-2.1,7.8-2.3c3.2-0.2,6.4-0.1,9.7,0.2c3.3,0.4,5.3,0.5,5.9,0.4c1.5-0.1,2.2-0.2,2.3-0.2c1.1-0.1,1.8-0.2,2.1-0.1
			c1.6,0.1,2.4,0.6,2.4,1.5C963.7,540.9,962.9,541.5,961.4,541.6z"/>
		<path class="st15" d="M984.6,537.2c0.1,0.2,0.1,0.9,0,2c0,1.7,0.1,7.5,0.3,17.5c0.2,10,0.3,15.6,0.3,16.9c0,0.8,0,3.9-0.1,9.4
			c0,5.5-0.1,9.8-0.1,13c0,1.5,0,3,0,4.3c0.5,0.3,1.1,0.8,1.8,1.4c1.4,1.2,2.1,1.8,2.1,1.9c0.8,0.4,2.3,0.9,4.5,1.5
			c2.2,0.5,5.1,0.7,8.6,0.5c3.6-0.2,6.7-1.1,9.3-2.8c1.9-1.2,3.6-2.8,5.2-4.9c1.6-2.1,2.8-4.2,3.7-6.3c0.9-2.1,1.5-3.9,1.9-5.4
			c0.4-1.5,0.7-2.6,0.8-3.5c0.4-2.1,0.6-4.5,0.6-7.3c0-2.8-0.2-6.2-0.8-10.2c-0.6-4-1.5-7.8-2.8-11.3c-1.2-3.2-2.8-6-5-8.5
			c-2.2-2.5-4.4-4.3-6.8-5.4c-3.8-1.8-8.1-2.1-12.8-0.7c-1,0.3-1.9,0.7-3,1.2c-0.5,0.3-1.5,0.8-2.9,1.6c-2.3,1.2-3.6,1.4-4.1,0.5
			c-0.4-0.8,0.5-2,2.6-3.5c0.9-0.5,2.2-1.1,4.1-1.8c4.3-1.3,8-1.8,11.1-1.3c2.6,0.4,5.2,1.5,7.8,3.1c2.6,1.7,4.7,3.7,6.3,6.2
			c2.6,4,4.6,8.3,5.9,13c1.3,4.7,2.1,8.7,2.3,11.9s-0.2,7.6-1.2,13.3c-1,5.6-3,10.7-5.9,15.3c-1.6,2.6-4,4.8-7.1,6.4
			c-3.1,1.7-6.3,2.7-9.5,3c-3.8,0.4-7.7,0-11.7-1.3c-1-0.3-2.2-0.8-3.4-1.4c-0.5-0.3-1-0.6-1.4-0.9c0,0.5,0,0.8-0.1,0.9
			c0,0.1,0,0.3,0.1,0.4c0,0.1,0.1,0.2,0.1,0.3c-0.1,0.4-0.4,0.7-1,0.9c-0.6,0.3-1.2,0.2-1.7-0.1c-0.4-0.3-0.6-0.7-0.5-1.1
			c0-0.1,0-0.3,0.1-0.6c0.1-0.2,0.1-0.4,0.1-0.5c0.1-0.4,0.3-8.5,0.7-24.3c0.1-4.1,0.1-11.1-0.2-21c-0.3-9.9-0.6-16.2-0.9-19.1
			c-0.1-0.9-0.1-1.5-0.2-1.8c-0.2-0.9-0.3-1.4-0.3-1.6c0-1.2,0.5-1.8,1.4-1.9C983.8,535.4,984.4,536,984.6,537.2z"/>
		<path class="st15" d="M1069.6,539.9c0.1-0.1,0.4-0.1,1.1,0c0.7,0.1,8-0.5,21.8-1.8c1.5-0.1,5.5-0.2,11.9-0.3s10.1,0,11.2,0.1
			c0.1,0,0.3,0,0.6,0.1c0.3,0,0.5,0.1,0.7,0.1c0.7,0.1,1,0.1,1.1,0.1c0.4,0.1,0.6,0.5,0.7,1.2c0.1,0.7-0.1,1.2-0.6,1.7
			c-0.4,0.3-0.8,0.4-1.2,0.3c-0.1-0.1-0.2-0.2-0.4-0.3c-0.2-0.1-0.3-0.2-0.4-0.2c-0.6-0.2-3.5-0.5-8.8-0.7c-5.3-0.3-8.5-0.3-9.7-0.3
			c-1,0-2.3,0.1-3.8,0.2c0.2,0.3,0.4,0.7,0.4,1.3c0,0.2-0.1,0.8-0.3,1.9c-0.3,1.8-0.6,6.2-1,13.3c-0.4,7.1-0.5,12.3-0.5,15.6
			c-0.1,1.8-0.1,6.9-0.1,15.5c0,8.5,0,13.7,0.1,15.3c0.1,0.8,0.1,1.4,0.2,1.8l0.2,1.7c-0.1,0.7-0.4,1.2-1.1,1.6
			c-0.7,0.4-1.2,0.4-1.7,0.1c-0.4-0.4-0.7-1-0.7-2c0-0.2,0.1-0.5,0.2-0.9c0.1-0.4,0.2-0.6,0.2-0.8c0.1-0.8,0.2-5.3,0.3-13.5
			c0.1-8.2,0.2-12.4,0.2-12.6c0.7-19.2,1-30.5,0.9-33.9c0-1,0-1.6,0-1.6c-0.1-0.7-0.1-1.2,0-1.4c0.1-0.4,0.1-0.7,0.2-0.9
			c-2,0.1-4.4,0.4-7.1,0.8c-6.4,0.7-10.5,1.2-12.3,1.7c-0.7,0.1-1,0.2-1.1,0.2c-0.4,0.1-0.7,0.2-0.9,0.2c-0.8-0.1-1.2-0.6-1.3-1.5
			C1068.4,540.6,1068.8,540,1069.6,539.9z"/>
		<path class="st15" d="M1162.2,549.9c0.1-0.1,0.2-0.3,0.3-0.3c0.4-0.3,0.8-0.2,1,0.2c0.4,0.8,0.7,2.7,0.7,5.6
			c0,0.7-0.1,1.5-0.2,2.6c-0.1,1.1-0.2,1.8-0.2,2.1c0,0.1,0,0.8-0.1,1.9c0,1.1-0.1,2.2-0.2,3.3c-0.1,1.1-0.2,2.5-0.4,4.2
			c-0.2,1.8-0.4,3.5-0.6,5.2c-0.2,1.7-0.5,3.6-0.9,5.7c-0.4,2.1-0.9,4.2-1.4,6.2c-1.2,4.9-3.2,9.7-5.9,14.5
			c-2.7,4.7-5.9,8.3-9.6,10.8c-1.2,0.9-2.6,1.2-4.1,0.8c-1.5-0.3-2.8-0.9-4-1.8c-1.2-0.8-2.2-1.8-2.9-2.8c-1.2-1.6-2.2-3.4-2.9-5.3
			c-1.6-4.5-3-10.7-4.3-18.4c-1.2-7.7-1.8-15.5-1.5-23.5c0.1-5,1.1-9.8,3-14.4c1.5-3.4,3.2-6.4,5.2-8.7c2-2.4,4.1-3.9,6.3-4.5
			c2.6-0.7,5.2-0.7,8,0.2s5.2,2.2,7.2,4c2.3,2,4.4,4.8,6,8.4C1161.2,547,1161.7,548.3,1162.2,549.9z M1159.6,553.9
			c0.1-1.5-0.1-2.9-0.5-4.4c-0.5-1.9-1.6-4.2-3.4-6.8c-1.8-2.6-4.1-4.8-6.9-6.5c-1.6-1-3.5-1.4-5.6-1.3c-2.1,0.1-4.1,0.7-5.9,1.8
			c-1.5,0.9-3,2.2-4.3,3.9c-1.3,1.7-2.2,3.6-2.6,5.7c-1.5,6.4-2.4,12.3-2.9,17.8c-0.5,5.5-0.6,9.3-0.5,11.5c0.1,2.2,0.4,4.7,0.9,7.6
			c0.6,4,1.5,8.2,2.8,12.9c1.3,4.6,3,8.4,5.1,11.3c1.5,2.2,3.3,3.4,5.3,3.5c2.2,0.1,4.1-1,5.8-3.2c6.2-7.9,10.2-16.1,12-24.5
			c1.3-5.7,2.1-12,2.2-18.8c0.1-1.8,0.1-3.5,0.1-5.2c0-0.3,0-0.7,0-1.2C1160.1,557.8,1159.6,556.5,1159.6,553.9z"/>
		<path class="st15" d="M1245.7,541.6c-0.3,0-1.2,0-2.8-0.1c-0.6-0.1-2.6-0.1-6,0c-3.4,0.1-6.6,0-9.5-0.1c-1.8,0-3.3,0.3-4.5,0.8
			c-1.2,0.5-2,1.3-2.5,2.4c-0.5,1.1-0.8,2.1-1,2.9c-0.1,0.8-0.3,1.9-0.3,3.1c-0.1,3.1-0.4,10.4-0.7,21.9c1.6-0.2,4.2-0.6,7.7-1
			c2.1-0.3,4.9-0.5,8.6-0.7c0.1,0,0.4,0,0.7,0c0.3,0,0.5,0,0.7,0c0.7,0,1.1,0,1.2,0c0.4,0.1,0.6,0.6,0.7,1.3
			c0.1,0.7-0.1,1.2-0.5,1.6c-0.4,0.3-0.8,0.4-1.2,0.3c-0.1,0-0.2-0.1-0.4-0.2c-0.2-0.1-0.4-0.2-0.4-0.2c-1.4-0.4-2.9-0.6-4.6-0.5
			c-4.3,0.2-8.4,0.9-12.3,2.1c-0.1,1.1-0.1,2.2-0.1,3.4c-0.4,15-0.5,23.6-0.4,25.8c0.1,0.8,0.1,1.4,0.1,1.9c0.1,0.1,0.1,0.3,0.2,0.5
			c0,0.2,0.1,0.4,0.1,0.5c0,0.1,0,0.3,0,0.3c0.4,0,1.1,0,2.1,0.1c3.2,0.3,8.5,0.4,15.9,0.3c5.6,0,10.3-0.1,14-0.3
			c1-0.1,1.7-0.1,2.1-0.1l2-0.2c0.7,0.1,1.4,0.4,1.9,1c0.5,0.6,0.5,1.2,0.1,1.6c-0.4,0.4-1.2,0.7-2.3,0.7c-0.3,0-0.7-0.1-1.1-0.2
			c-0.4-0.1-0.7-0.2-0.9-0.2c-1.8-0.1-4.6-0.3-8.5-0.3c-9.2-0.1-16.5,0.1-21.9,0.4c-1.2,0.1-1.8,0.1-2,0.2c-0.9,0.1-1.5,0.1-1.8,0.1
			c-1.3-0.1-1.9-0.7-1.9-1.6c0-0.1,0-0.3,0-0.3c-0.1-0.1-0.3-0.1-0.4-0.2c-0.4-0.2-0.7-0.7-0.7-1.3c0-0.1,0-0.4,0.1-0.7
			c0.1-0.3,0.1-0.6,0.2-0.7c0.1-0.7,0.2-4.4,0.3-11.3c0.2-6,0.4-12.2,0.5-18.7c-0.1,0.1-0.3,0.1-0.3,0.1c-0.8,0-1.3-0.5-1.4-1.4
			c-0.1-0.9,0.1-1.5,0.9-1.8h1c0.2-7,0.4-11.1,0.4-12.3c0-1-0.1-3.2-0.2-6.8c-0.1-3.6-0.1-6.5,0-9c0.1-2.4,0.6-3.9,1.4-4.4
			c2.1-1.3,4.7-2.1,7.8-2.3c3.2-0.2,6.4-0.1,9.7,0.2c3.3,0.4,5.3,0.5,5.9,0.4c1.5-0.1,2.2-0.2,2.3-0.2c1.1-0.1,1.8-0.2,2.1-0.1
			c1.6,0.1,2.4,0.6,2.4,1.5C1248,540.9,1247.3,541.5,1245.7,541.6z"/>
		<path class="st15" d="M1271.7,536.8c0.1,0.1,0.1,0.5,0,1.2c0,0.4,0,1.1,0,2.3c0.1,0.1,0.1,0.3,0.2,0.3c0.1,0.1,0.3,0.7,0.6,1.8
			c0.4,1.1,1.3,3.5,2.9,7.2c1.6,3.7,3.3,7.6,5.2,11.8c1.9,4.2,3,6.7,3.4,7.5c0.4,1.2,2.1,6,5.1,14.6c1.5,4.4,2.6,7.8,3.5,10.3
			c0.4-1.2,0.8-2.7,1.3-4.3c1.7-5.9,2.9-10.2,3.6-12.9c1.1-4.2,2.6-10.6,4.6-19.2c2-8.7,3-13.8,3.1-15.5c0.1-0.4,0.1-0.7,0-0.9
			c-0.1-0.3-0.1-0.5-0.1-0.6c0.2-0.4,0.8-0.6,1.8-0.5c1,0.1,1.4,0.4,1.4,0.9c0.1,0.1,0,0.3-0.1,0.5c0.2-0.1,0.4-0.1,0.7-0.1
			c1,0,1.5,0.6,1.5,1.8c0.1,0.2,0,0.8-0.1,1.9c-0.1,1.5-0.5,10.9-1.1,28.4c-0.5,16.1-0.7,26.2-0.4,30.1c0,0.7,0,1.3,0.1,1.8l0.2,1.5
			c-0.1,0.7-0.4,1.2-1.1,1.6c-0.7,0.4-1.2,0.4-1.6,0.1c-0.4-0.4-0.6-1-0.6-2c0-0.1,0-0.4,0.1-0.8c0.1-0.4,0.1-0.6,0.1-0.8
			c0.1-0.9,0.3-5.3,0.6-13.3c0.3-8,0.4-12.1,0.4-12.4c0.1-3.7,0.3-9.6,0.5-17.5c0.2-7.9,0.2-13.1,0.1-15.6c-0.1-0.9-0.1-1.4-0.1-1.7
			c0-0.1,0-0.1,0-0.2c-0.3,1.1-0.6,2.5-1,4.1c-1,3.7-2,8-3,12.7c-1.1,4.7-1.8,7.7-2.1,8.9c-0.4,1.5-1.7,6.6-4,15.3
			c-1.6,6.2-2.7,10.3-3.2,12.5c0,0.1,0,0.3,0.1,0.3c0.2,0.5,0.5,1,0.9,1.5c0.1,0.1,0.2,0.3,0.4,0.6c0.2,0.3,0.4,0.5,0.4,0.6
			c0.2,0.5,0.2,1.1-0.2,1.8c-0.3,0.7-0.8,1-1.4,0.9c-0.6-0.1-1.1-0.5-1.5-1.3c-0.1-0.2-0.3-0.5-0.3-1c-0.1-0.2-0.1-0.4-0.1-0.4
			l-0.1-0.1c-0.7-0.3-1.1-0.6-1.3-1c-0.1-0.1-0.2-0.2-0.3-0.3c-0.1,0-0.2,0-0.2-0.1c0,0,0.1-0.1,0.2-0.1c0.1,0,0.2-0.1,0.2-0.2
			c0.1-0.1,0.3-0.5,0.5-1.4c-0.3-1-0.7-2.2-1.1-3.6c-1.3-4.1-2.6-8.1-3.8-11.9c-1.2-3.8-2-6-2.3-6.7c-1-2.8-3.3-8-6.7-15.5
			c-2.4-5.4-4.3-9.4-5.7-12.2c0.1,2,0.1,4.3,0.2,6.8c0.2,9.8,0.3,15.7,0.3,17.7c0,5.3-0.4,17.5-1.3,36.6c0,0.1,0,0.2,0,0.4
			c0,0.2,0,0.3,0,0.5c0,0.1,0,0.3,0,0.3v1c-0.1,0.4-0.5,0.6-1.2,0.6c-0.7,0-1.2-0.1-1.7-0.5c-0.3-0.4-0.4-0.7-0.3-1
			c0-0.1,0.1-0.2,0.2-0.4c0.1-0.2,0.2-0.3,0.3-0.4c0.2-0.6,0.6-4.9,1.1-13c0.5-8.1,0.8-13.3,0.9-15.6c0.1-4.7,0-12.2-0.2-22.7
			c-0.2-6.7-0.4-11.7-0.7-15c-0.4-0.5-0.6-0.9-0.7-1.1c-0.2-0.9-0.1-1.5,0.3-1.9c0-0.4,0-0.7-0.1-0.9c-0.1-0.5-0.1-0.9-0.2-1.1
			c-0.2-0.4-0.3-0.7-0.3-0.9c0.1-0.7,0.6-1,1.5-1.2C1270.9,535.8,1271.4,536.1,1271.7,536.8z"/>
		<path class="st15" d="M1318.1,538.4c0.1-0.1,0.6-0.1,1.4,0c1.2,0,3.9-0.1,7.8-0.4c0.3-0.4,0.8-0.6,1.4-0.5
			c0.3,0.1,0.5,0.2,0.7,0.3c4.5-0.4,7.3-0.6,8.5-0.8c0.8-0.1,1.2-0.2,1.3-0.2l1.2-0.2c0.5,0.1,0.9,0.4,1.3,1
			c0.3,0.6,0.3,1.2,0.1,1.6c-0.4,0.4-0.8,0.7-1.4,0.7c-0.1,0-0.4,0-0.7-0.1c-0.3-0.1-0.5-0.1-0.5-0.1c-1.3-0.2-3-0.3-5.2-0.2
			c-1.3,0.1-2.6,0.2-3.8,0.3c-0.1,0.3-0.2,0.8-0.3,1.5c-0.4,1.7-0.9,6.3-1.3,13.8c-0.4,7.5-0.7,12.7-0.7,15.7
			c0,2.4,0.1,7.9,0.3,16.4c0.2,8.5,0.3,13.6,0.5,15.4c0.1,0.9,0.1,1.5,0.2,1.8l0.2,1.7c0,0.1,0,0.3-0.1,0.4c0.4-0.1,0.7-0.1,1.1-0.1
			c3.6-0.2,6.3-0.4,8.1-0.7c0.7-0.1,1.1-0.1,1.3-0.1l1.1-0.2c0.4,0.1,0.8,0.4,1.2,1c0.3,0.6,0.3,1.2,0.1,1.6
			c-0.3,0.4-0.8,0.7-1.4,0.7c-0.1,0-0.3,0-0.6-0.1c-0.3-0.1-0.4-0.1-0.5-0.2c-1.2-0.1-2.8-0.2-5-0.1c-5.1,0.1-9.4,0.4-12.8,1
			c-0.7,0.1-1,0.2-1.1,0.2c-0.5,0.1-0.9,0.2-1.1,0.2c-0.9-0.1-1.3-0.6-1.3-1.5c0-1,0.4-1.5,1.2-1.7c0.1-0.1,0.6-0.1,1.3,0
			c1.1,0.1,2.8,0.2,5.2,0.1c-0.1-0.3-0.1-0.6-0.1-0.9c0-0.1,0.1-0.4,0.2-0.8c0.1-0.4,0.2-0.7,0.2-0.8c0.1-1.5,0.1-3.9,0.1-7.3
			c0-3.4-0.1-7.4-0.1-11.9c0-4.5-0.1-7.1-0.1-7.7c0.1-2.2,0.3-8.1,0.5-17.8c0.3-9.7,0.4-15.4,0.4-17.2c0-0.1,0-0.3,0.1-0.7
			c0-0.4,0.1-0.7,0.1-0.9c0-0.1,0-0.3,0-0.3c-2.3,0.2-4.4,0.5-6.3,1c-0.7,0.1-1,0.3-1.1,0.3c-0.6,0.1-1,0.2-1.1,0.2
			c-0.9,0-1.4-0.5-1.5-1.4C1316.8,539.2,1317.2,538.6,1318.1,538.4z"/>
		<path class="st15" d="M1358.6,539.1c0,0.3,0,1-0.1,2.1c-0.1,1.1-0.4,6-0.9,14.8c-0.5,8.8-0.9,14.1-1,15.9
			c-0.4,3.6-0.9,9.5-1.5,17.7c-0.7,8.2-1,13.2-1,14.8c0.1,0.8,0.1,1.5,0.1,2c0,0.1,0,0.3,0,0.6c0.1,0.2,0.1,0.4,0.1,0.7
			c0.4-0.1,1-0.1,1.8,0c2.2,0.1,6.9,0.1,14.1-0.1c5.6-0.2,9.7-0.4,12.1-0.5c1-0.1,1.6-0.1,1.9-0.2l1.8-0.2c0.7,0.1,1.2,0.4,1.7,1.1
			c0.4,0.7,0.4,1.2,0,1.7c-0.4,0.4-1,0.7-2,0.7c-0.2,0-0.5-0.1-0.9-0.2c-0.4-0.1-0.7-0.2-0.8-0.2c-1.7-0.1-4.1-0.2-7.4-0.2
			c-7.6,0-14,0.3-19,1c-0.9,0.1-1.4,0.1-1.6,0.2c-0.8,0.1-1.3,0.2-1.5,0.2c-0.7-0.1-1.2-0.3-1.5-0.7c-0.4,0.1-0.7,0-1-0.3
			c-0.4-0.4-0.6-1.1-0.5-2.1c0-0.2,0-0.5,0.1-0.9c0.1-0.4,0.1-0.7,0.2-0.8c0.1-0.8,0.5-5.4,1.2-13.9c0.7-8.5,1.1-13.1,1.2-13.9
			c0.5-3.8,1-10,1.5-18.7c0.5-8.7,0.7-14.3,0.4-17.1c-0.1-0.7-0.1-1.3-0.2-1.7c-0.1-0.8-0.2-1.3-0.2-1.5c0.1-1.2,0.6-1.9,1.5-1.9
			C1357.8,537.2,1358.4,537.8,1358.6,539.1z"/>
		<path class="st15" d="M1385.9,533.3l0.2,0.8c0.2,1,1.7,4,4.5,9.1c2.8,5.1,5,9,6.6,11.7c1.2,2.1,3.7,5.9,7.4,11.7
			c3.7,5.7,5.8,8.9,6.4,9.7c0.4-1.2,0.6-2,0.7-2.2c7.6-20.5,11.7-32,12.4-34.8c0.3-0.9,0.4-1.4,0.4-1.7c0.1-0.9,0.3-1.4,0.4-1.7
			c0.5-1.1,1.2-1.5,2.1-1.2s1.2,1.1,0.9,2.4c-0.1,0.2-0.3,0.8-0.8,1.9c-2.1,4.3-5.9,14.2-11.4,29.5c-0.6,1.7-2,6.7-4.2,15
			c-2.2,8.3-3.7,14.2-4.6,17.8c0,0.1,0,0.3-0.1,0.5c-0.1,0.2-0.2,0.4-0.3,0.7s-0.2,0.5-0.2,0.7c-0.3,1-0.5,1.6-0.7,1.8
			c-0.4,0.6-0.9,0.9-1.7,0.9c-0.8,0-1.2-0.2-1.4-0.8c-0.1-0.5,0-1.1,0.3-1.9c0.1-0.2,0.2-0.5,0.4-0.7c0.2-0.3,0.4-0.5,0.4-0.7
			c0.4-0.7,1.8-5.4,4.1-13.9c1-3.6,1.7-6.5,2.3-8.6c-0.3,0-0.5-0.1-0.7-0.2c-0.1-0.1-0.1-0.2-0.2-0.4c0-0.2-0.1-0.3-0.1-0.4
			c-0.1-0.3-1.9-3.1-5.3-8.4c-3.4-5.3-5.2-8.2-5.6-8.9c-9-15.8-13.9-24.2-14.6-25.2c-0.3-0.4-0.5-0.7-0.5-0.7
			c-0.2-0.3-0.4-0.5-0.4-0.5c-0.1-0.6,0.3-1.1,1.2-1.4C1384.9,532.8,1385.5,532.8,1385.9,533.3z"/>
		<path class="st15" d="M1483.8,561.1c-0.1,1-0.5,1.8-1.4,2.4c-0.9,0.5-2.2,0.3-3.9-0.5c-1.7-0.9-3-2.5-4.1-4.7
			c-1.1-2.5-1-5.6,0.3-9.3c1.5-4.3,4.5-8.3,9-11.9c4-3.2,7.6-4.6,11-4.1c1.7,0.2,3.1,0.8,4.3,1.9c1.2,1,2.1,2.1,2.6,3.2
			c0.6,1.2,1.2,2.7,1.7,4.5c0.5,1.8,1.1,4,1.6,6.7c0.5,2.6,0.6,5.4,0.3,8.4c-0.3,2.9-1,5.6-2.2,8c-1.5,2.9-3.6,5.7-6.3,8.5
			c-2.8,2.8-5.2,5.1-7.5,6.9c-2.2,1.8-3.5,3-3.7,3.6c-0.4,0.7-0.5,1.4-0.5,2.3c0,0.4,0.1,1.1,0.2,2.1c0.1,0.9,0.1,1.7-0.3,2.6
			c-0.3,0.8-0.8,1.1-1.4,0.8c-0.3-0.1-0.6-0.6-1-1.3c-0.4-0.7-0.6-1.4-0.7-2.1c-0.1-0.7,0-1.7,0.4-2.9c0.1-0.4,0.5-0.9,1.1-1.7
			c0.6-0.8,1.4-1.8,2.6-3.1c1.1-1.3,2.2-2.5,3.3-3.7c1.1-1.2,2.5-2.7,4.2-4.6c1.8-1.9,3.2-3.5,4.4-4.8c1.3-1.5,2.4-3.2,3.1-5.3
			c0.8-2.1,1.2-4.1,1.4-6.2c0.2-2,0.3-3.6,0.2-4.9c0-1.2-0.1-2.3-0.2-3.2c0-0.1-0.1-0.5-0.2-1.3c-0.1-0.8-0.2-1.4-0.3-1.9
			c-0.1-0.4-0.2-1-0.4-1.8c-0.2-0.8-0.4-1.5-0.7-2.3c-0.3-0.7-0.6-1.4-1-2.1c-1-1.7-2.5-2.8-4.6-3.5c-2.1-0.6-4.3-0.5-6.5,0.4
			c-1.7,0.7-3.7,2.1-6,4.3c-2.3,2.2-4.1,4.5-5.3,6.9c-1.8,3.2-2.2,6.2-1.4,8.8c0.4,1.3,0.9,2.4,1.5,3.4c0.6,0.9,1.2,1.5,1.6,1.8
			c0.4,0.3,0.8,0.4,1,0.4c0.1-0.1,0.1-0.2,0.1-0.4l0.1-0.3c0.1-0.2,0.1-0.4,0.1-0.6c0.2-1.5,0.8-2.2,1.7-2.2
			C1483.3,558,1483.8,559,1483.8,561.1z M1490.5,601c0.7,0.6,1.1,1.4,1.1,2.4c-0.1,1.5-1,3.1-2.7,4.6c-1.7,1.5-3.1,1.9-4,1.1
			c-1-1.3-1.3-3-0.8-4.9c0.5-2,1.3-3.6,2.5-5c0.4-0.4,1-0.4,2-0.2c0.8,0.2,1.4,0.5,1.6,1C1490.3,600.4,1490.4,600.7,1490.5,601z
			 M1489.2,603.8c-0.2,0.5-0.6,1-1.1,1.4c-0.7,0.5-1.2,0.5-1.7,0c-0.1-0.2-0.3-0.4-0.3-0.7v0.1c-0.3,1.5-0.1,2.6,0.6,3.1
			c0.1,0.1,0.3,0.1,0.4,0C1488.3,606.6,1489,605.3,1489.2,603.8z"/>
	</g>
</g>
<g id="temp">
</g>
<g id="hand">
</g>
<g id="Nails">
</g>
<g id="test">
</g>
<g id="Ebene_9">
</g>
</svg>
