<?xml version="1.0" encoding="utf-8"?>
<!-- Generator: Adobe Illustrator 28.0.0, SVG Export Plug-In . SVG Version: 6.00 Build 0)  -->
<svg version="1.1" xmlns="http://www.w3.org/2000/svg" xmlns:xlink="http://www.w3.org/1999/xlink" x="0px" y="0px"
	 viewBox="0 0 1920 1080" style="enable-background:new 0 0 1920 1080;" xml:space="preserve">
<style type="text/css">
	.st0{fill:none;}
	.st1{fill:#FBBDFF;}
	.st2{fill:#FACCFF;}
	.st3{fill:#FFEBFF;}
	.st4{fill:#FFF0FF;}
	.st5{fill:#333333;}
	.st6{fill:#42210B;}
	.st7{opacity:0.56;}
	.st8{fill:url(#SVGID_1_);}
	.st9{opacity:4.000000e-02;}
	.st10{fill:url(#SVGID_00000018924371711349794840000009530600352767585177_);}
	.st11{opacity:2.000000e-02;}
	.st12{fill:url(#SVGID_00000026877620550413679020000003776127258186441878_);}
	.st13{fill:#FFFAFF;}
	.st14{fill:#E8DAEA;}
	.st15{fill:#FFFFFF;}
	.st16{fill:#F297FF;}
	.st17{fill:#F0FAEB;}
	.st18{fill:#D7E4C1;}
	.st19{fill:url(#SVGID_00000178181795064531641130000003253731760312215470_);}
	.st20{fill:url(#SVGID_00000081627140769503256480000009765325269816760765_);}
	.st21{fill:url(#SVGID_00000002363856674607279510000000898270730270139575_);}
	.st22{fill:#F57F80;}
	.st23{fill:#B7294E;}
	.st24{fill:#E56A75;}
	.st25{fill:#D45063;}
	.st26{fill:#E46672;}
	.st27{fill:#45272A;}
	.st28{fill:#F2885A;}
	.st29{fill:#710731;}
	.st30{fill:#E25F4D;}
	.st31{fill:#48282B;}
	.st32{fill:#FDAE7B;}
	.st33{fill:#F8A977;}
	.st34{fill:#F69969;}
	.st35{fill:#FABF96;}
	.st36{fill:#F9B68A;}
	.st37{fill:#F27C58;}
	.st38{fill:#F7A06F;}
	.st39{fill:#F59062;}
	.st40{fill:#D54645;}
	.st41{fill:#F48C5E;}
	.st42{fill:#FEFEFE;}
	.st43{fill:#343341;}
	.st44{fill:#2A2938;}
	.st45{fill:#0A0A0A;}
	.st46{fill:#242332;}
	.st47{fill:#FAC099;}
	.st48{fill:#45272B;}
	.st49{fill:#F48C60;}
	.st50{fill:#ED7655;}
	.st51{fill:#FDAE7C;}
	.st52{fill:#E25C4D;}
	.st53{fill:#F9B78A;}
	.st54{fill:#D54444;}
	.st55{fill:#F9A977;}
	.st56{fill:#FAFAFA;}
	.st57{fill:#F4895B;}
	.st58{fill:#F79885;}
	.st59{fill:none;stroke:#42210B;stroke-width:3;stroke-linecap:round;stroke-miterlimit:10;}
	.st60{fill:none;stroke:#42210B;stroke-width:2;stroke-linecap:round;stroke-miterlimit:10;}
	.st61{fill:#00D023;}
	.st62{opacity:0.44;fill:#B8274E;}
	.st63{opacity:0.31;fill:#F79885;}
	.st64{opacity:0.44;fill:#42210B;}
	.st65{fill:none;stroke:#FFFFFF;stroke-miterlimit:10;}
	.st66{fill:none;stroke:#FF176C;stroke-width:4;stroke-miterlimit:10;}
	.st67{fill:none;stroke:#FF176C;stroke-width:4;stroke-miterlimit:10;stroke-dasharray:12.0245,10.0204;}
	.st68{fill:none;stroke:#42210B;stroke-linecap:round;stroke-miterlimit:10;}
	.st69{opacity:0.43;fill:#FACCFF;stroke:#FFFFFF;stroke-width:3;stroke-miterlimit:10;}
	.st70{fill:#FF176C;}
	.st71{fill:#FCD6CE;}
	.st72{fill:none;stroke:#E8DAEA;stroke-width:2;stroke-miterlimit:10;}
	.st73{fill:#FFFAFF;stroke:#E8DAEA;stroke-miterlimit:10;}
	.st74{fill:#FFFFFF;stroke:#666666;stroke-miterlimit:10;}
	.st75{fill:#FCFCFC;stroke:#808080;stroke-width:0.75;stroke-miterlimit:10;}
	.st76{opacity:0.54;fill:#E6E6E6;stroke:#808080;stroke-miterlimit:10;}
</style>
<pattern  y="1650" width="71.3" height="79" patternUnits="userSpaceOnUse" id="Hearts" viewBox="0 -79 71.3 79" style="overflow:visible;">
	<g>
		<rect y="-79" class="st0" width="71.3" height="79"/>
		<path class="st1" d="M15-57.2C15-48.9,35.7-10,35.7-10v-47.2c0,0-5.2-11.8-10.3-11.8S15-63.1,15-57.2z"/>
		<path class="st2" d="M56.3-57.2c0,8.3-20.7,47.2-20.7,47.2v-47.2c0,0,5.2-11.8,10.3-11.8S56.3-63.1,56.3-57.2z"/>
	</g>
</pattern>
<g id="BG_Kopie">
	<g>
		<rect y="-550" class="st4" width="1920" height="1080"/>
	</g>
	<g>
		<rect y="550" class="st5" width="1920" height="1080"/>
	</g>
	<g class="st7">
		<pattern  id="SVGID_1_" xlink:href="#Hearts" patternTransform="matrix(1 0 0 1 -1 -227.9999)"  class="st7">
		</pattern>
		<rect x="-1" y="-550" class="st8" width="1920" height="1080"/>
	</g>
	<g class="st9">
		
			<pattern  id="SVGID_00000063624225356580074770000016592908951986879649_" xlink:href="#Hearts" patternTransform="matrix(1 0 0 1 0 -155)"  class="st9">
		</pattern>
		<rect y="550" style="fill:url(#SVGID_00000063624225356580074770000016592908951986879649_);" width="1920" height="1080"/>
	</g>
</g>
<g id="Face_Kopie">
	<g>
		<path class="st17" d="M958.9,828.4c-72.3,0-140.3-34.7-191.4-97.7C716.2,667.7,688,583.8,688,494.6c0-89.2,28.2-173,79.4-236.1
			c51.2-63,119.1-97.7,191.4-97.7s140.3,34.7,191.4,97.7c51.2,63.1,79.4,146.9,79.4,236.1c0,89.2-28.2,173-79.4,236.1
			C1099.2,793.7,1031.2,828.4,958.9,828.4z"/>
		<path class="st14" d="M958.9,161.8c36.4,0,71.7,8.8,104.9,26.1c32.1,16.7,61,40.7,85.8,71.2c24.8,30.6,44.3,66.2,57.9,105.8
			c14.1,41.1,21.3,84.7,21.3,129.7s-7.2,88.6-21.3,129.7c-13.6,39.6-33.1,75.2-57.9,105.8c-24.8,30.5-53.7,54.5-85.8,71.2
			c-33.2,17.3-68.5,26.1-104.9,26.1s-71.7-8.8-104.9-26.1c-32.1-16.7-61-40.7-85.8-71.2c-24.8-30.6-44.3-66.2-57.9-105.8
			c-14.1-41.1-21.3-84.7-21.3-129.7s7.2-88.6,21.3-129.7c13.6-39.6,33.1-75.2,57.9-105.8c24.8-30.5,53.7-54.5,85.8-71.2
			C887.2,170.6,922.5,161.8,958.9,161.8 M958.9,159.8C808.7,159.8,687,309.7,687,494.6s121.7,334.8,271.8,334.8
			s271.8-149.9,271.8-334.8S1109,159.8,958.9,159.8L958.9,159.8z"/>
	</g>
</g>
<g id="BG">
	<g>
		<rect class="st5" width="1920" height="1080"/>
	</g>
	<g class="st9">
		
			<pattern  id="SVGID_00000066512915907142757300000005729277945505276823_" xlink:href="#Hearts" patternTransform="matrix(1 0 0 1 0 -231)"  class="st9">
		</pattern>
		<rect style="fill:url(#SVGID_00000066512915907142757300000005729277945505276823_);" width="1920" height="1080"/>
	</g>
</g>
<g id="Face">
	<g>
		<path class="st17" d="M958.9,828.4c-72.3,0-140.3-34.7-191.4-97.7C716.2,667.7,688,583.8,688,494.6c0-89.2,28.2-173,79.4-236.1
			c51.2-63,119.1-97.7,191.4-97.7s140.3,34.7,191.4,97.7c51.2,63.1,79.4,146.9,79.4,236.1c0,89.2-28.2,173-79.4,236.1
			C1099.2,793.7,1031.2,828.4,958.9,828.4z"/>
		<path class="st14" d="M958.9,161.8c36.4,0,71.7,8.8,104.9,26.1c32.1,16.7,61,40.7,85.8,71.2c24.8,30.6,44.3,66.2,57.9,105.8
			c14.1,41.1,21.3,84.7,21.3,129.7s-7.2,88.6-21.3,129.7c-13.6,39.6-33.1,75.2-57.9,105.8c-24.8,30.5-53.7,54.5-85.8,71.2
			c-33.2,17.3-68.5,26.1-104.9,26.1s-71.7-8.8-104.9-26.1c-32.1-16.7-61-40.7-85.8-71.2c-24.8-30.6-44.3-66.2-57.9-105.8
			c-14.1-41.1-21.3-84.7-21.3-129.7s7.2-88.6,21.3-129.7c13.6-39.6,33.1-75.2,57.9-105.8c24.8-30.5,53.7-54.5,85.8-71.2
			C887.2,170.6,922.5,161.8,958.9,161.8 M958.9,159.8C808.7,159.8,687,309.7,687,494.6s121.7,334.8,271.8,334.8
			s271.8-149.9,271.8-334.8S1109,159.8,958.9,159.8L958.9,159.8z"/>
	</g>
</g>
<g id="Hair">
	<path class="st6" d="M948.9,634.4c0.9-1-11.6-14.3-21.3-14.3c-9.8,0-14.7,4.7-12.5,8.2c5.3,8.2,12.9,2.4,18.7,3.1
		C939.6,632,948,635.4,948.9,634.4z"/>
	<path class="st58" d="M1000.9,397.9c-5.4-7.4,7.2-20.1,20.9-25.6c8.9-3.6,16.9-2.8,20.3-2.8c22.4-0.1,44.6,1.1,68.2,13.2
		c36.4,18.7,67.2,32.6,73.1,36.4c6.4,4.1,13.6,6.6,11.5,15c-1.4,5.6,0.8,7.5-5.3,6.7c-15.3-1.9-19.1-9.3-47-24.6
		c-30-16.5-86.9-43.8-100.9-28.5c-3.5,3.7-5.6,10.1-10.4,13.3C1022.1,406.9,1005.3,404.1,1000.9,397.9z"/>
	<path class="st60" d="M1019.6,506.9c9.1,7.6,34.7,30.2,61.1,27.6c21.2-2.1,33.3-10.3,40.4-16.7c7-6.4,10.8-13.1,10.8-13.1"/>
	<path class="st58" d="M1005.9,689c-14.5-4.2-22.8-4.9-28.7-5.6c-5.9-0.7-8.4,4.9-18.2,6.2c-9.8-1.2-12.3-6.9-18.2-6.2
		c-5.9,0.7-14.2,1.4-28.7,5.6c-12.7,3.7-34.5,14.7-34.5,17.5c0,2.8,47.9-5,65.3-0.7c8.6,2.1,16.1,2.1,16.1,2.1s7.5,0,16.1-2.1
		c17.4-4.3,65.3,3.5,65.3,0.7C1040.4,703.8,1018.7,692.7,1005.9,689z"/>
	<path class="st61" d="M1040.4,711.8c-1.3-1.9-44-0.2-61.8,3.3c-10.6,2.1-19.7,2.3-19.7,2.3s-9-0.2-19.7-2.3
		c-17.8-3.5-60.4-5.2-61.8-3.3c-1.3,1.9,11.2,15.3,15.2,18.8c4,3.5,18.7,15.4,41.6,19.8C947.8,753,959,753,959,753s11.2,0,24.7-2.6
		c22.9-4.4,37.6-16.4,41.6-19.8C1029.2,727.1,1041.7,713.7,1040.4,711.8z"/>
	<path class="st6" d="M967.7,634.4c-0.9-1,11.6-14.3,21.3-14.3c9.8,0,14.7,4.7,12.5,8.2c-5.3,8.2-12.9,2.4-18.7,3.1
		C977,632,968.6,635.4,967.7,634.4z"/>
	<path class="st6" d="M1042.9,507.8l-11.1,7.6l-1.7,2.7c0,0,1.3-1.3,2.4-2.1c2.3-1.8,7.3-4.8,8-5.7c1-1.2,3.7-1.4,3.7-1.4
		L1042.9,507.8z"/>
	<path class="st6" d="M1052.4,514.6l-10.4,15.1l-1.2,3.6c0,0,1.4-2,2.2-3.6c2.4-4.7,6.7-8.5,7.2-9.9c0.8-2.1,4.5-4.2,4.5-4.2
		L1052.4,514.6z"/>
	<path class="st6" d="M1032.5,500l-11.8,7.7l-1.8,2.1c0,0,1.5-1,2.6-1.9c3-2.5,7.3-4.1,8-4.9c1.1-1.2,4.5-1.9,4.5-1.9L1032.5,500z"
		/>
	<path class="st6" d="M1037.5,504.4l-10.7,7.1l-1.6,1.9c0,0,1.4-0.9,2.3-1.7c2.7-2.3,6.6-3.8,7.3-4.6c1-1.1,4.1-1.7,4.1-1.7
		L1037.5,504.4z"/>
	<path class="st6" d="M1061.7,518.7l-9.5,16.2l-2.1,6.6c0,0,1.1-2.2,2.1-4.1c2.2-4.1,7.6-11.7,8-13.4c0.6-2.5,4.5-4.4,4.5-4.4
		L1061.7,518.7z"/>
	<path class="st6" d="M1070.4,521.1l-7.3,17.7l-1.6,7.3c0,0,0.8-2.7,1.6-4.8c1.7-4.5,5.8-12.7,6-14.5c0.3-2.6,4.6-5.2,4.6-5.2
		L1070.4,521.1z"/>
	<path class="st6" d="M1075,521.5l-0.1,19.8l0.2,7.7c0,0,0.5-1.2,0.5-3.5c0.1-5,1.7-13.1,1.3-15c-0.6-2.8,1.4-8.7,1.4-8.7
		L1075,521.5z"/>
	<path class="st6" d="M1045.8,511.6l-11.8,12.3l-1,2.6c0,0,0.9-0.5,2-1.7c2.3-2.7,7.3-8,8-9.2c1-1.7,4.5-2.9,4.5-2.9L1045.8,511.6z"
		/>
	<path class="st6" d="M1111.8,508.9l6.6,4.9l5.8,6.8c0,0-0.8-0.4-1.8-1.4c-2.2-2.2-4.1-3.7-4.7-4.7c-0.9-1.4-7.3-5.4-7.3-5.4
		L1111.8,508.9z"/>
	<path class="st6" d="M1099.1,517.2l7.1,11l5.3,9.4c0,0-0.9-0.8-1.8-2.5c-2.1-3.7-6.7-9.4-7.1-10.9c-0.7-2.3-4.6-6.2-4.6-6.2
		L1099.1,517.2z"/>
	<path class="st6" d="M1092.1,519.6l7.1,18.3l1,4.4c0,0-0.8-0.9-1.5-2.7c-1.5-4.1-3.7-9.7-4.7-11.4c-1.3-2.2-4.4-7.5-4.4-7.5
		L1092.1,519.6z"/>
	<path class="st6" d="M1084,520.9l4.1,15.8l2,9.7c0,0-0.7-1.1-1.2-3.2c-1.1-4.6-4.4-11.9-4.4-13.8c0-2.7-3.1-7.9-3.1-7.9L1084,520.9
		z"/>
	<path class="st6" d="M1107.1,514.8l12.2,11.6l1,2.6c0,0-2.1-2.1-3.2-3.3c-2.3-2.7-5.8-4.9-6.5-6.1c-1-1.7-4.8-4.3-4.8-4.3
		L1107.1,514.8z"/>
	<path class="st6" d="M1120,505.9l11.4,7l1,1.7c0,0-2-1.3-3-2c-2.2-1.6-5.4-2.9-6-3.7c-0.9-1.1-4.5-2.6-4.5-2.6L1120,505.9z"/>
	<path class="st6" d="M1121.4,499.6l12.3,5.8l1.2,1.5c0,0-2.1-1.1-3.3-1.7c-2.4-1.4-5.8-2.4-6.5-3c-1.1-1-4.8-2.1-4.8-2.1
		L1121.4,499.6z"/>
	<g>
		<path class="st6" d="M802.9,479.3l-11.1-9.1l-1.7-3.2c0,0,1.3,1.6,2.4,2.6c2.3,2.2,7.3,5.8,8,6.8c1,1.5,3.7,1.7,3.7,1.7
			L802.9,479.3z"/>
		<path class="st6" d="M812.4,471.2L802,453.1l-1.2-4.3c0,0,1.4,2.4,2.2,4.3c2.4,5.6,6.7,10.1,7.2,11.9c0.8,2.5,4.5,5,4.5,5
			L812.4,471.2z"/>
		<path class="st6" d="M795.5,492.2l-11.8-9.2l-1.8-2.5c0,0,1.5,1.2,2.6,2.2c3,3,7.3,5,8,5.9c1.1,1.4,4.5,2.2,4.5,2.2L795.5,492.2z"
			/>
		<path class="st6" d="M798.5,485.8l-10.7-8.5l-1.6-2.3c0,0,1.4,1.1,2.3,2.1c2.7,2.8,6.6,4.6,7.3,5.5c1,1.3,4.1,2.1,4.1,2.1
			L798.5,485.8z"/>
		<path class="st6" d="M821.7,466.3l-9.5-19.3l-2.1-7.9c0,0,1.1,2.6,2.1,4.9c2.2,4.9,7.6,14,8,16c0.6,3,4.5,5.3,4.5,5.3L821.7,466.3
			z"/>
		<path class="st6" d="M830.5,462.8l-7.4-20.8l-1.6-8.6c0,0,0.8,3.2,1.6,5.6c1.7,5.3,5.8,14.9,6,17c0.3,3.1,4.6,6.2,4.6,6.2
			L830.5,462.8z"/>
		<path class="st6" d="M835,462.9l-0.1-23.7l0.2-9.2c0,0,0.5,1.5,0.5,4.2c0.1,5.9,1.7,15.7,1.3,18c-0.6,3.4,1.4,10.4,1.4,10.4
			L835,462.9z"/>
		<path class="st6" d="M805.8,474.8l-11.8-14.7l-1-3.1c0,0,0.9,0.6,2,2c2.3,3.2,7.3,9.6,8,11c1,2.1,4.5,3.5,4.5,3.5L805.8,474.8z"/>
		<path class="st6" d="M871.8,478l6.6-5.9l5.8-8.1c0,0-0.8,0.5-1.8,1.7c-2.2,2.7-4.1,4.5-4.7,5.6c-0.9,1.7-7.3,6.5-7.3,6.5
			L871.8,478z"/>
		<path class="st6" d="M859.1,466l7-12l5.3-10.3c0,0-0.9,0.9-1.8,2.7c-2.1,4-6.6,10.3-7.1,12c-0.7,2.5-4.6,6.8-4.6,6.8L859.1,466z"
			/>
		<path class="st6" d="M852.2,463.7l6.9-20.7l1-5c0,0-0.7,1-1.4,3.1c-1.5,4.6-3.6,10.9-4.6,12.9c-1.3,2.5-4.3,8.5-4.3,8.5
			L852.2,463.7z"/>
		<path class="st6" d="M843.1,461l4-18l2-11c0,0-0.7,1.2-1.2,3.6c-1.1,5.2-4.3,13.6-4.3,15.7c-0.1,3.1-3,9-3,9L843.1,461z"/>
		<path class="st6" d="M867.1,471l12.2-13.9l1-3.1c0,0-2.1,2.6-3.2,4c-2.3,3.2-5.8,5.9-6.5,7.3c-1,2.1-4.8,5.1-4.8,5.1L867.1,471z"
			/>
		<path class="st6" d="M875,485.3l11.4-8.4l1-2c0,0-2,1.6-3,2.4c-2.2,2-5.4,3.5-6,4.4c-0.9,1.3-4.5,3.1-4.5,3.1L875,485.3z"/>
		<path class="st6" d="M879.4,491.5l12.3-6.9l1.2-1.8c0,0-2.1,1.3-3.3,2.1c-2.4,1.7-5.8,2.8-6.5,3.6c-1.1,1.2-4.8,2.5-4.8,2.5
			L879.4,491.5z"/>
	</g>
	<path class="st6" d="M1001.8,495.6c0.3,1,6.4,0.3,10.9,1.8c8.4,2.8,3.2,0.5,16.1,6.3c6.2,2.8,13.8,8.8,19.2,11.2
		c22.4,10.1,37.5,8.3,56.8,1.9c19.2-6.4,18.5-19.3,39.7-20.9c2.2-0.2,13.4-0.6,13.5-1.3c0-0.9-11.3-1.8-15.6-2.2
		c-0.5,0-3.5-0.3-4.6-0.3c-12-0.5-21.4,10.1-37.4,15.9c-16.8,6.2-29.2,2.9-35.3,1.9c-10.2-1.6-13.1-2.3-31.3-9.4
		c-23.6-9.2-30.9-6.4-32-6.2C1000.7,494.5,1001.7,495.1,1001.8,495.6z"/>
	<path class="st58" d="M964.4,150.2l0-0.4c-261.8-1.4-344.6,193.3-344.6,405.7c0,219.2,23.9,296.9,90.5,335.5
		c7.7,4.4,35.8,17.5,51.2,4.2c15.4,11.9,57.6,26,61.8,21.1c3.7-4.3-32.4-71-41.9-90.1c-9.1-18.2-68.4-191.8-23.7-436.3
		c19-104,52.4-130.6,106-159c57.9-30.7,93-1.7,93-1.7l0.1-1.2l0.1,1.4c0,0,35.1-29,93,1.7c53.6,28.4,87,55,106,159
		c44.7,244.5-14.6,418.1-23.7,436.3c-9.6,19.1-45.6,85.8-41.9,90.1c4.2,4.9,46.3-9.1,61.8-21.1c15.4,13.3,43.6,0.2,51.2-4.2
		c66.7-38.6,90.5-116.3,90.5-335.5C1293.9,347.5,1214.3,156.2,964.4,150.2z"/>
	<path class="st58" d="M914.7,413.3c5.8-7.1-6-20.4-19.4-26.9c-8.7-4.2-16.7-3.8-20.1-4c-22.3-1.4-44.6-1.6-68.9,9.1
		c-37.4,16.5-69,28.5-75.1,32c-6.6,3.8-14,5.8-12.4,14.3c1.1,5.7-1.2,7.4,4.9,7c15.4-1,19.6-8.1,48.4-21.8
		c30.9-14.6,89.3-38.5,102.5-22.4c3.2,3.9,4.9,10.4,9.6,13.9C893,421,909.9,419.1,914.7,413.3z"/>
	<path class="st6" d="M811.3,496.8c0,14.9,12,26.9,26.9,26.9c14.9,0,26.9-12,26.9-26.9c0-14.9-12-30.9-26.9-30.9
		C823.3,465.9,811.3,482,811.3,496.8z"/>
	<path class="st59" d="M896,473.9c-9.1-9.1-34.7-36.1-61.1-33c-21.2,2.5-33.3,12.3-40.4,20c-7,7.7-10.8,15.7-10.8,15.7"/>
	<circle class="st15" cx="843" cy="507" r="5"/>
	<path class="st6" d="M913.7,505.8c-0.3-1.7-6.4-0.5-10.9-3.1c-8.4-4.9-3.2-0.9-16.1-11.2c-6.2-4.9-13.8-15.6-19.2-19.9
		c-22.4-17.9-37.5-14.7-56.8-3.3c-19.2,11.3-18.5,34.2-39.7,37.2c-2.2,0.3-13.4,1-13.5,2.2c0,1.5,11.3,3.2,15.6,3.9
		c0.5,0.1,3.5,0.5,4.6,0.6c12,0.9,21.4-26.8,37.4-37.2c16.8-11,29.2-5.1,35.3-3.4c10.2,2.9,13.1,12.9,31.3,25.6
		c23.6,16.3,30.9,11.3,32,11C914.8,507.7,913.8,506.6,913.7,505.8z"/>
	<path class="st59" d="M1019.4,474.4c9.1-9.1,34.7-36.1,61.1-33c21.2,2.5,33.3,12.3,40.4,20s10.8,15.7,10.8,15.7"/>
</g>
<g id="Text">
	<g>
		<rect x="146" y="67.2" class="st0" width="1646.2" height="110.3"/>
		<path class="st17" d="M641.8,111.8c-0.2,0.4-0.6,0.8-1,1.2c-0.9,0.8-1.5,0.9-2,0.4c-0.6-0.7-0.6-1.6,0-2.7
			c0.6-1.1,1.5-1.7,2.5-1.8c0.2,0,0.5,0.3,0.8,0.8c0.3,0.4,0.4,0.7,0.4,0.9C642.4,111.2,642.2,111.6,641.8,111.8
			C641.8,111.8,641.8,111.8,641.8,111.8z"/>
		<path class="st17" d="M651.9,111.8c-0.2,0.4-0.6,0.8-1,1.2c-0.9,0.8-1.5,0.9-2,0.4c-0.6-0.7-0.6-1.6,0-2.7
			c0.6-1.1,1.5-1.7,2.5-1.8c0.2,0,0.5,0.3,0.8,0.8c0.3,0.4,0.4,0.7,0.4,0.9C652.5,111.2,652.3,111.6,651.9,111.8
			C652,111.8,652,111.8,651.9,111.8z"/>
		<path class="st17" d="M662,111.8c-0.2,0.4-0.6,0.8-1,1.2c-0.9,0.8-1.5,0.9-2,0.4c-0.6-0.7-0.6-1.6,0-2.7c0.6-1.1,1.5-1.7,2.5-1.8
			c0.2,0,0.5,0.3,0.8,0.8c0.3,0.4,0.4,0.7,0.4,0.9C662.6,111.2,662.4,111.6,662,111.8C662.1,111.8,662.1,111.8,662,111.8z"/>
		<path class="st17" d="M700,68.7c0,0.1,0,0.6-0.1,1.4c-0.1,1.1-0.2,2.6-0.2,4.6c1.4-1.4,3.1-2.7,5-3.8c2.6-1.6,4.6-2.3,6-2.1
			c1.1,0.1,2,0.6,2.7,1.4s1.1,1.5,1.2,2.2c0.1,0.9-0.1,2.6-0.7,5.1c-0.6,2.5-1.6,4.8-3,7.1c-1.6,2.4-3.6,4.4-6.1,6c0.4,0,0.8,0,1,0
			c0,0,0.4-0.1,0.9-0.1c0.6,0,1,0,1.3-0.1c0.3,0,0.7,0,1.4,0c0.7,0,1.2,0.1,1.6,0.2c0.4,0.1,1,0.2,1.7,0.4c0.7,0.2,1.3,0.4,1.9,0.7
			s1.2,0.7,1.8,1.2c0.6,0.5,1.3,1,1.9,1.6c1.7,1.8,2.5,4.8,2.4,9c0,1.5-0.6,3.6-1.7,6.3c-1.1,2.6-2.6,4.8-4.7,6.3
			c-1.3,0.8-2.8,1.2-4.4,1.1c-1.6-0.1-3.2-0.5-4.8-1.2c-1.4-0.6-2.8-1.7-4.1-3.2c-0.1-0.2-0.3-0.4-0.5-0.6c0,0.6,0.1,1,0.1,1.3
			c0,0.4,0.1,0.8,0.1,1.2c0,0.1,0,0.2,0.1,0.4c0.1,0.2,0.1,0.3,0.1,0.4c0,0.2-0.2,0.5-0.6,0.8c-0.4,0.3-0.7,0.3-1.1,0.2
			s-0.5-0.5-0.6-0.9c0,0,0-0.1,0-0.2c0-0.1,0-0.3,0.1-0.4s0.1-0.3,0.1-0.4c0.1-1.2,0-7.7-0.1-19.6c0-1,0-2-0.1-3
			c-0.2-0.3-0.2-0.6,0-0.9c0-5.5-0.1-10-0.2-13.5c-0.2-0.3-0.3-0.8-0.1-1.4c-0.1-2.4-0.2-4.2-0.3-5.4c0-0.8-0.1-1.2-0.1-1.2
			c0-0.5-0.1-0.9-0.1-1.1c0.1-0.8,0.5-1.2,1.1-1.2C699.6,67.5,699.9,67.9,700,68.7z M699.7,78c0,3.3,0.1,7.5,0.3,12.5h0.1
			c0.1,0,0.3,0,0.6,0s0.5,0,0.6-0.1c0.7-0.1,1.8-0.6,3.4-1.7c1.6-1,3-2.3,4.2-3.7c0.9-1.2,1.7-2.4,2.4-3.9c0.7-1.4,1.2-2.6,1.4-3.3
			c0.3-0.8,0.4-1.4,0.5-1.9c0.4-1.8,0.4-3.2-0.1-4.2c-0.2-0.7-0.8-1.1-1.6-1.4c-0.8-0.3-1.7-0.2-2.7,0.1c-3.4,1.2-5.9,3-7.6,5.3
			c-0.2,0.3-0.4,0.6-0.6,0.9c-0.2,0.5-0.4,0.8-0.4,0.9C700.1,77.6,699.9,77.8,699.7,78z M700,116.1c0,0.1,0,0.3-0.1,0.4
			c0.4-0.2,0.7-0.5,0.9-0.9C700.6,115.9,700.3,116.1,700,116.1z M700.1,92.7c0,1,0,2.4,0.1,4.1c0.1,3.7,0.2,7.2,0.3,10.4
			c0,0.2,0,0.5,0,0.7h0.1c0.2,0.2,0.5,0.6,0.7,1.3c0,0.1,0.1,0.3,0.2,0.6c0.1,0.3,0.2,0.6,0.2,0.8c0.5,0.9,1.5,1.9,3.2,3.2
			c1.7,1.3,3.5,1.9,5.6,1.9c1.3,0,2.7-0.6,3.9-1.7c1.3-1.1,2.2-2.1,2.8-3.1c0.6-1,1-1.7,1.2-2.3c1.1-3.1,1.3-6.4,0.5-9.9
			c-0.3-1.2-0.8-2.4-1.5-3.5c-0.7-1.1-1.6-1.9-2.7-2.4c-0.5-0.3-1-0.5-1.5-0.7c-0.5-0.2-0.9-0.3-1.4-0.4c-0.4-0.1-0.8-0.1-1.1-0.2
			c-0.3,0-0.6,0-1,0c-0.4,0.1-0.7,0.1-0.8,0.1c-0.2,0-0.4,0.1-0.8,0.2c-0.4,0.1-0.6,0.2-0.7,0.2c-0.1,0-0.7,0.2-1.9,0.4
			c-1.2,0.1-2,0.2-2.5,0.2c-0.9,0-1.6,0-2.2-0.1c-0.3,0.1-0.5,0.1-0.6,0.1C700.1,92.7,700.1,92.7,700.1,92.7z"/>
		<path class="st17" d="M730.3,70.4c0,0.4-0.1,1.4-0.2,3c-0.7,7.8-1.1,14.8-1,21.2c0,6,0.8,10.6,2.2,13.7c0.8,1.7,1.9,3.1,3.2,4.1
			c1.3,1,2.5,1.6,3.7,1.8c1.2,0.1,2.7-0.1,4.5-0.8c1.8-0.6,3.4-1.8,4.7-3.3c2.6-3.1,4.2-8.1,4.8-14.8c0.6-6.6,0.6-13.9,0-22
			c-0.1-1.2-0.2-2.1-0.2-2.7l-0.2-2.2c0-1.2,0.3-1.9,1-2.2c0.3-0.1,0.5-0.1,0.6,0.1c0.3,0.3,0.5,1.2,0.5,2.4c0,0.2,0,0.6,0,1.2
			c0,0.5,0,0.9,0,1.2c0,0,0.1,1.3,0.2,3.6s0.2,4.7,0.2,7.1c0,2.4-0.1,5.4-0.3,9.3c-0.4,4.9-1.4,9.6-3.2,14c-1.7,4.4-3.1,7.1-4.2,7.9
			c-0.5,0.4-1.2,0.8-2.1,1.2c-0.8,0.4-1.8,0.7-2.9,1c-1.1,0.3-2.3,0.4-3.6,0.3c-1.3-0.1-2.6-0.6-3.8-1.3c-2-1.2-3.4-3.2-4.4-6
			c-1-2.9-1.6-6-1.8-9.4c-0.1-4.4-0.2-7.5-0.2-9.5c0-2,0.1-4.7,0.2-8.2c0.1-3.5,0.2-5.4,0.3-5.7c0-1.2,0-2.1,0-2.6c0-1.2,0-2,0-2.3
			c0-1,0.2-1.6,0.6-2.1c0.3-0.4,0.7-0.4,1,0C730.1,68.6,730.3,69.3,730.3,70.4z"/>
		<path class="st17" d="M760.3,70.6c0,0,0.3,0,0.7,0c0.5,0,5.2-0.3,14.3-1.2c1-0.1,3.6-0.2,7.8-0.2c4.2,0,6.6,0,7.3,0
			c0,0,0.2,0,0.4,0c0.2,0,0.3,0,0.4,0c0.4,0,0.7,0.1,0.7,0.1c0.2,0.1,0.4,0.4,0.4,0.8c0,0.4-0.1,0.8-0.4,1.1
			c-0.2,0.2-0.5,0.3-0.8,0.2c0,0-0.1-0.1-0.3-0.2c-0.1-0.1-0.2-0.1-0.3-0.1c-0.4-0.1-2.3-0.3-5.8-0.5c-3.5-0.2-5.6-0.2-6.3-0.2
			c-0.7,0-1.5,0-2.5,0.1c0.1,0.2,0.2,0.5,0.3,0.9c0,0.1-0.1,0.6-0.2,1.2c-0.2,1.2-0.4,4-0.6,8.7c-0.2,4.6-0.4,8-0.4,10.2
			c0,1.2-0.1,4.5-0.1,10.1c0,5.6,0,8.9,0.1,10c0,0.5,0.1,0.9,0.1,1.2l0.1,1.1c0,0.4-0.3,0.8-0.7,1c-0.4,0.3-0.8,0.3-1.1,0
			c-0.3-0.2-0.4-0.7-0.4-1.3c0-0.1,0-0.3,0.1-0.6c0.1-0.2,0.1-0.4,0.1-0.5c0-0.5,0.1-3.5,0.2-8.9c0.1-5.4,0.1-8.1,0.1-8.3
			c0.4-12.6,0.6-20,0.6-22.2c0-0.7,0-1,0-1.1c0-0.5,0-0.8,0-0.9c0-0.2,0.1-0.4,0.1-0.6c-1.3,0.1-2.9,0.3-4.7,0.5
			c-4.2,0.4-6.9,0.8-8.1,1.1c-0.4,0.1-0.7,0.1-0.7,0.1c-0.3,0.1-0.5,0.1-0.6,0.1c-0.5,0-0.8-0.4-0.8-1
			C759.5,71,759.8,70.7,760.3,70.6z"/>
		<path class="st17" d="M821.4,69.6c0.1,0,0.4,0,0.9,0c0.8,0,2.5-0.1,5.1-0.3c0.2-0.3,0.5-0.4,0.9-0.4c0.2,0,0.3,0.1,0.4,0.2
			c2.9-0.2,4.8-0.4,5.5-0.5c0.5-0.1,0.8-0.1,0.9-0.1l0.8-0.1c0.3,0,0.6,0.3,0.8,0.7c0.2,0.4,0.2,0.8,0,1c-0.2,0.3-0.6,0.4-0.9,0.4
			c-0.1,0-0.2,0-0.4-0.1c-0.2,0-0.3-0.1-0.4-0.1c-0.9-0.1-2-0.2-3.4-0.1c-0.9,0-1.7,0.1-2.5,0.2c0,0.2-0.1,0.5-0.2,1
			c-0.3,1.1-0.6,4.1-0.9,9s-0.4,8.3-0.4,10.3c0,1.6,0.1,5.2,0.2,10.7c0.1,5.6,0.2,8.9,0.3,10.1c0,0.6,0.1,1,0.1,1.2l0.1,1.1
			c0,0.1,0,0.2-0.1,0.3c0.2,0,0.5-0.1,0.7-0.1c2.4-0.1,4.1-0.3,5.3-0.4c0.4,0,0.7-0.1,0.9-0.1l0.7-0.1c0.3,0,0.5,0.3,0.8,0.7
			c0.2,0.4,0.2,0.8,0,1c-0.2,0.3-0.5,0.4-0.9,0.4c-0.1,0-0.2,0-0.4-0.1c-0.2,0-0.3-0.1-0.3-0.1c-0.8-0.1-1.8-0.1-3.2-0.1
			c-3.4,0-6.1,0.3-8.4,0.6c-0.4,0.1-0.7,0.1-0.7,0.1c-0.3,0.1-0.6,0.1-0.7,0.1c-0.6,0-0.9-0.4-0.9-1c0-0.6,0.3-1,0.8-1.1
			c0.1,0,0.4,0,0.9,0c0.7,0.1,1.8,0.1,3.4,0.1c0-0.2-0.1-0.4-0.1-0.6c0-0.1,0-0.3,0.1-0.5c0.1-0.3,0.1-0.4,0.1-0.5
			c0-1,0.1-2.6,0-4.8c0-2.2,0-4.8-0.1-7.8c0-3,0-4.7,0-5c0-1.4,0.2-5.3,0.4-11.7c0.2-6.3,0.3-10.1,0.3-11.2c0,0,0-0.2,0-0.5
			c0-0.3,0-0.5,0-0.6c0-0.1,0-0.2,0-0.2c-1.5,0.1-2.9,0.4-4.1,0.6c-0.4,0.1-0.7,0.2-0.7,0.2c-0.4,0.1-0.6,0.1-0.7,0.1
			c-0.6,0-0.9-0.3-1-0.9C820.6,70.2,820.9,69.8,821.4,69.6z"/>
		<path class="st17" d="M843.3,70.6c0,0,0.3,0,0.7,0c0.5,0,5.2-0.3,14.3-1.2c1-0.1,3.6-0.2,7.8-0.2c4.2,0,6.6,0,7.3,0
			c0,0,0.2,0,0.4,0c0.2,0,0.3,0,0.4,0c0.4,0,0.7,0.1,0.7,0.1c0.2,0.1,0.4,0.4,0.4,0.8c0,0.4-0.1,0.8-0.4,1.1
			c-0.2,0.2-0.5,0.3-0.8,0.2c0,0-0.1-0.1-0.3-0.2c-0.1-0.1-0.2-0.1-0.3-0.1c-0.4-0.1-2.3-0.3-5.8-0.5c-3.5-0.2-5.6-0.2-6.3-0.2
			c-0.7,0-1.5,0-2.5,0.1c0.1,0.2,0.2,0.5,0.3,0.9c0,0.1-0.1,0.6-0.2,1.2c-0.2,1.2-0.4,4-0.6,8.7c-0.2,4.6-0.4,8-0.4,10.2
			c0,1.2-0.1,4.5-0.1,10.1c0,5.6,0,8.9,0.1,10c0,0.5,0.1,0.9,0.1,1.2l0.1,1.1c0,0.4-0.3,0.8-0.7,1c-0.4,0.3-0.8,0.3-1.1,0
			c-0.3-0.2-0.4-0.7-0.4-1.3c0-0.1,0-0.3,0.1-0.6c0.1-0.2,0.1-0.4,0.1-0.5c0-0.5,0.1-3.5,0.2-8.9c0.1-5.4,0.1-8.1,0.1-8.3
			c0.4-12.6,0.6-20,0.6-22.2c0-0.7,0-1,0-1.1c0-0.5,0-0.8,0-0.9c0-0.2,0.1-0.4,0.1-0.6c-1.3,0.1-2.9,0.3-4.7,0.5
			c-4.2,0.4-6.9,0.8-8.1,1.1c-0.4,0.1-0.7,0.1-0.7,0.1c-0.3,0.1-0.5,0.1-0.6,0.1c-0.5,0-0.8-0.4-0.8-1
			C842.5,71,842.7,70.7,843.3,70.6z"/>
		<path class="st17" d="M905.4,70.6c0,0,0.3,0,0.7,0c0.5,0,5.2-0.3,14.3-1.2c1-0.1,3.6-0.2,7.8-0.2c4.2,0,6.6,0,7.3,0
			c0,0,0.2,0,0.4,0c0.2,0,0.3,0,0.4,0c0.4,0,0.7,0.1,0.7,0.1c0.2,0.1,0.4,0.4,0.4,0.8c0,0.4-0.1,0.8-0.4,1.1
			c-0.2,0.2-0.5,0.3-0.8,0.2c0,0-0.1-0.1-0.3-0.2c-0.1-0.1-0.2-0.1-0.3-0.1c-0.4-0.1-2.3-0.3-5.8-0.5c-3.5-0.2-5.6-0.2-6.3-0.2
			c-0.7,0-1.5,0-2.5,0.1c0.1,0.2,0.2,0.5,0.3,0.9c0,0.1-0.1,0.6-0.2,1.2c-0.2,1.2-0.4,4-0.6,8.7c-0.2,4.6-0.4,8-0.4,10.2
			c0,1.2-0.1,4.5-0.1,10.1c0,5.6,0,8.9,0.1,10c0,0.5,0.1,0.9,0.1,1.2l0.1,1.1c0,0.4-0.3,0.8-0.7,1c-0.4,0.3-0.8,0.3-1.1,0
			c-0.3-0.2-0.4-0.7-0.4-1.3c0-0.1,0-0.3,0.1-0.6c0.1-0.2,0.1-0.4,0.1-0.5c0-0.5,0.1-3.5,0.2-8.9c0.1-5.4,0.1-8.1,0.1-8.3
			c0.4-12.6,0.6-20,0.6-22.2c0-0.7,0-1,0-1.1c0-0.5,0-0.8,0-0.9c0-0.2,0.1-0.4,0.1-0.6c-1.3,0.1-2.9,0.3-4.7,0.5
			c-4.2,0.4-6.9,0.8-8.1,1.1c-0.4,0.1-0.7,0.1-0.7,0.1c-0.3,0.1-0.5,0.1-0.6,0.1c-0.5,0-0.8-0.4-0.8-1
			C904.6,71,904.9,70.7,905.4,70.6z"/>
		<path class="st17" d="M946.9,70.4c0,0.4-0.1,1.4-0.2,3c-0.7,7.8-1.1,14.8-1,21.2c0,6,0.8,10.6,2.2,13.7c0.8,1.7,1.9,3.1,3.2,4.1
			c1.3,1,2.5,1.6,3.7,1.8c1.2,0.1,2.7-0.1,4.5-0.8c1.8-0.6,3.4-1.8,4.7-3.3c2.6-3.1,4.2-8.1,4.8-14.8c0.6-6.6,0.6-13.9,0-22
			c-0.1-1.2-0.2-2.1-0.2-2.7l-0.2-2.2c0-1.2,0.3-1.9,1-2.2c0.3-0.1,0.5-0.1,0.6,0.1c0.3,0.3,0.5,1.2,0.5,2.4c0,0.2,0,0.6,0,1.2
			c0,0.5,0,0.9,0,1.2c0,0,0.1,1.3,0.2,3.6s0.2,4.7,0.2,7.1c0,2.4-0.1,5.4-0.3,9.3c-0.4,4.9-1.4,9.6-3.2,14c-1.7,4.4-3.1,7.1-4.2,7.9
			c-0.5,0.4-1.2,0.8-2.1,1.2c-0.8,0.4-1.8,0.7-2.9,1c-1.1,0.3-2.3,0.4-3.6,0.3c-1.3-0.1-2.6-0.6-3.8-1.3c-2-1.2-3.4-3.2-4.4-6
			c-1-2.9-1.6-6-1.8-9.4c-0.1-4.4-0.2-7.5-0.2-9.5c0-2,0.1-4.7,0.2-8.2c0.1-3.5,0.2-5.4,0.3-5.7c0-1.2,0-2.1,0-2.6c0-1.2,0-2,0-2.3
			c0-1,0.2-1.6,0.6-2.1c0.3-0.4,0.7-0.4,1,0C946.7,68.6,946.9,69.3,946.9,70.4z"/>
		<path class="st17" d="M981.9,69.8c0,0.2,0,0.6,0,1.4c0,0.7-0.1,2.5-0.1,5.4c0.3-0.3,0.7-0.6,1.2-1c2.7-2.4,5.2-4,7.5-5
			c2.7-1.1,5.1-1.2,7.2-0.4c1.2,0.4,2.1,1.1,2.8,2c0.7,0.9,1.2,1.7,1.3,2.4c0.2,1.1-0.2,2.9-1.4,5.6s-3,5.1-5.7,7.5
			c-0.9,0.8-1.9,1.5-3.1,2.1c-1.2,0.6-2.1,1.1-3,1.4c-0.8,0.3-1.7,0.6-2.6,0.9c-0.9,0.3-1.4,0.5-1.5,0.5c-0.5,0.2-1,0.5-1.4,0.6
			c0,0,0.1,0.1,0.2,0.2c0,0.1,0.2,0.4,0.5,1c0.7,1.4,1.9,4,3.7,7.8c1.8,3.8,3,6.5,3.5,7.8c0.4,1,1.1,2.1,2.1,3.6s1.8,2,2.4,1.7
			c0.7-0.3,1.4-0.8,1.9-1.5c0.6-0.7,1-1.5,1.2-2.3c0.3-0.9,0.4-1.6,0.5-2.1c0.1-0.6,0.2-1,0.2-1.5c0-0.4,0-0.7,0-1.1
			c0-0.1,0-0.2,0-0.4s0-0.3,0-0.3c0-0.1,0-0.2,0-0.3c0-0.3,0.3-0.6,0.7-0.9c0.4-0.3,0.8-0.3,1.1,0c0.3,0.2,0.4,0.6,0.4,1.2
			c0,0.1,0,0.3-0.1,0.6c-0.1,0.2-0.1,0.4-0.1,0.4c0,0,0,0.3-0.1,0.6c-0.1,0.4-0.2,0.7-0.3,1.1c-0.1,0.4-0.2,0.8-0.4,1.3
			c-0.1,0.5-0.3,1.1-0.6,1.7c-0.2,0.6-0.5,1.2-0.8,1.7c-0.5,1-1.2,1.8-2.1,2.4c-0.9,0.6-1.7,0.9-2.3,0.8c-1.3-0.3-2.4-1.1-3-2.4
			c-0.4-0.9-1.3-2.7-2.6-5.6s-2.6-5.5-3.7-8c-1.2-2.4-2.1-4.1-2.7-4.8c-0.3-0.4-0.5-0.6-0.6-0.8c-0.2-0.2-0.3-0.3-0.4-0.4
			c-0.2,10.8-0.3,16.7-0.2,17.8c0,0.6,0.1,1,0.1,1.2l0.1,1.2c0,0.4-0.3,0.8-0.7,1.1c-0.4,0.3-0.8,0.3-1,0.1
			c-0.3-0.2-0.4-0.7-0.4-1.4c0-0.1,0-0.3,0.1-0.6c0-0.3,0.1-0.4,0.1-0.5c0-0.4,0.1-2,0.2-4.8c0.1-2.7,0.2-5.6,0.3-8.5
			c0.1-3,0.1-4.6,0.1-4.9c0-0.4,0-1,0.1-1.7c-0.3-0.2-0.5-0.5-0.4-0.8c0-0.2,0.2-0.4,0.4-0.6c0-2.1,0-5,0-8.8c0-6-0.1-9.8-0.4-11.6
			c0-0.6-0.1-1-0.1-1.2c-0.1-0.5-0.1-0.9-0.1-1c0-0.8,0.4-1.2,1-1.2C981.4,68.6,981.8,69,981.9,69.8z M981.8,79.6c0,0.5,0,0.9,0,1.4
			c0,5.5,0,9,0,10.3c0,0.1,0,0.3,0,0.4c0.1,0,0.2-0.1,0.4-0.1c0.3-0.1,0.5-0.1,0.6-0.1c0,0,0.3-0.1,0.8-0.3c0.5-0.1,0.9-0.3,1.4-0.4
			s1-0.3,1.8-0.6c0.7-0.3,1.4-0.5,2.1-0.8c0.6-0.3,1.4-0.6,2.1-1c0.8-0.4,1.5-0.9,2.1-1.3c1.5-1.1,2.8-2.4,4-3.7
			c1.2-1.4,2-2.5,2.4-3.3c0.5-0.8,0.8-1.4,0.9-1.8c0.6-1.9,0.5-3.5-0.4-4.8c-0.5-0.8-1.3-1.5-2.4-1.9c-1.1-0.5-2.3-0.6-3.5-0.4
			c-3,0.5-6,2.1-8.9,4.8c-0.4,0.4-0.9,0.9-1.3,1.4c-0.7,0.9-1,1.3-1.1,1.4C982.5,79.1,982.1,79.4,981.8,79.6z"/>
		<path class="st17" d="M1012.9,69.2c0,0.1,0.2,0.6,0.4,1.4c0.8,2.3,4.1,9.6,9.7,21.9c0.4,0.8,1.9,4,4.5,9.8c1.1,2.4,2,4.3,2.7,5.8
			c-0.4-6.9-0.5-11.3-0.4-13c0.6-13.7,0.7-22,0.5-24.8c0-0.4-0.1-0.7-0.1-0.9c-0.1-0.4-0.1-0.7-0.1-0.8c0-0.6,0.4-0.9,1-1
			c0.6,0,1,0.3,1.1,0.9c0,0.1,0,0.5-0.1,1.1c-0.1,1.1-0.4,8.1-0.9,20.9c0,1.8,0,5.5,0.1,11.2c0.1,4.8,0.3,8,0.6,9.4
			c0,0.1,0.1,0.3,0.1,0.5c0,0.1,0.1,0.3,0.1,0.4c0.2,0.4,0.4,0.7,0.6,0.9l0.1,0.1l0.1,0.1c0,0,0,0.1-0.1,0.2
			c-0.1,0.1-0.1,0.2-0.2,0.3c0,0.1-0.1,0.3-0.1,0.5c0,0.1,0,0.2-0.3,0.2c-0.1,0-0.2,0.1-0.3,0.1c-0.2,0.2-0.5,0.2-0.8,0.1
			c-0.3-0.1-0.5-0.3-0.6-0.5c0-0.1-0.1-0.2-0.1-0.4c0,0-0.1-0.2-0.1-0.4c0,0,0.1,0,0.1-0.1c0,0-0.1,0-0.1-0.1
			c-0.4-0.8-0.6-1.4-0.5-1.7c-1-2.4-2.9-7-5.9-13.8c-1.2-2.8-3.2-7.2-6.1-13.4c-2.7-6-4.6-9.9-5.6-11.8c0,0.8,0,1.8,0.1,2.8
			c0.1,2.8,0.2,5.8,0.4,9c0.1,3.2,0.2,5.1,0.2,5.9c0,0.1,0.1,3.5,0.2,10.2c0.1,6.6,0.2,10.5,0.3,11.6c0,0.6,0.1,1.1,0.1,1.3
			c0.1,0.8,0.1,1.2,0.1,1.2c0,0.4-0.3,0.8-0.7,1.1c-0.4,0.3-0.8,0.3-1,0.1c-0.3-0.3-0.4-0.8-0.4-1.4c0-0.1,0-0.3,0.1-0.6
			c0.1-0.3,0.1-0.4,0.1-0.5c0-0.7,0.1-6.8,0.1-18.5c0-2.4-0.1-6.6-0.4-12.3c-0.3-5.8-0.5-9.6-0.8-11.4c-0.1-0.6-0.1-1-0.1-1.2
			c-0.1-0.5-0.2-0.9-0.2-1.1c0-0.8,0.3-1.2,0.9-1.3c0.6,0,1,0.4,1.2,1.2c0,0,0,0.1,0,0.1C1012.4,68.5,1012.7,68.8,1012.9,69.2z"/>
		<path class="st17" d="M1061.9,71.7c-0.2,0-0.8,0-1.8-0.1c-0.4,0-1.7,0-4,0c-2.3,0-4.3,0-6.2-0.1c-1.2,0-2.2,0.2-3,0.5
			c-0.8,0.3-1.3,0.9-1.7,1.6c-0.3,0.7-0.6,1.4-0.6,1.9c-0.1,0.6-0.2,1.2-0.2,2.1c-0.1,2-0.2,6.8-0.4,14.3c1.1-0.1,2.7-0.4,5-0.6
			c1.3-0.2,3.2-0.3,5.6-0.4c0.1,0,0.2,0,0.4,0c0.2,0,0.3,0,0.4,0c0.5,0,0.7,0,0.8,0c0.2,0.1,0.4,0.4,0.5,0.8c0.1,0.5,0,0.8-0.3,1
			c-0.2,0.2-0.5,0.3-0.8,0.2c0,0-0.1,0-0.3-0.1c-0.1-0.1-0.2-0.1-0.3-0.1c-0.9-0.3-1.9-0.4-3-0.4c-2.8,0.1-5.5,0.6-8.1,1.4
			c0,0.7-0.1,1.5-0.1,2.2c-0.2,9.8-0.3,15.4-0.3,16.9c0,0.5,0.1,0.9,0.1,1.2c0,0.1,0.1,0.2,0.1,0.4c0,0.1,0,0.3,0,0.4
			c0,0.1,0,0.2,0,0.2c0.2,0,0.7,0,1.4,0.1c2.1,0.2,5.5,0.3,10.4,0.2c3.7,0,6.7-0.1,9.1-0.2c0.7,0,1.1-0.1,1.4-0.1l1.3-0.1
			c0.5,0,0.9,0.3,1.2,0.7c0.3,0.4,0.4,0.8,0.1,1c-0.3,0.3-0.8,0.4-1.5,0.4c-0.2,0-0.4,0-0.7-0.1c-0.3-0.1-0.5-0.1-0.6-0.1
			c-1.2-0.1-3-0.2-5.5-0.2c-6,0-10.8,0-14.3,0.3c-0.8,0-1.2,0.1-1.3,0.1c-0.6,0-1,0.1-1.2,0.1c-0.9-0.1-1.3-0.5-1.2-1.1
			c0-0.1,0-0.2,0-0.2c-0.1,0-0.2-0.1-0.3-0.1c-0.3-0.1-0.4-0.4-0.4-0.9c0-0.1,0-0.3,0.1-0.5c0-0.2,0.1-0.4,0.1-0.5
			c0-0.4,0.1-2.9,0.2-7.4c0.1-3.9,0.3-8,0.4-12.2c-0.1,0-0.2,0.1-0.2,0.1c-0.5,0-0.8-0.3-0.9-0.9c-0.1-0.6,0.1-1,0.6-1.2h0.6
			c0.1-4.6,0.2-7.3,0.3-8.1c0-0.6,0-2.1-0.1-4.4c-0.1-2.3-0.1-4.3,0-5.9c0.1-1.6,0.4-2.5,0.9-2.9c1.3-0.9,3-1.4,5.1-1.5
			c2.1-0.1,4.2-0.1,6.3,0.1c2.2,0.2,3.5,0.3,3.9,0.3c1-0.1,1.5-0.1,1.5-0.1c0.7-0.1,1.2-0.1,1.4-0.1c1.1,0,1.6,0.4,1.5,1
			C1063.4,71.3,1062.9,71.6,1061.9,71.7z"/>
		<path class="st17" d="M1077.8,68.8c0,0.1,0,0.6,0,1.3c0,1.1,0.1,4.9,0.2,11.4c0.1,6.5,0.2,10.2,0.2,11.1c0,0.5,0,2.6,0,6.2
			c0,3.6,0,6.4,0,8.5c0,1,0,1.9,0,2.8c0.3,0.2,0.7,0.5,1.2,0.9c0.9,0.8,1.4,1.2,1.4,1.2c0.5,0.3,1.5,0.6,3,1
			c1.4,0.4,3.3,0.5,5.7,0.4c2.3-0.1,4.4-0.7,6.1-1.8c1.2-0.8,2.4-1.8,3.4-3.2c1-1.4,1.8-2.7,2.4-4.1c0.6-1.4,1-2.6,1.3-3.5
			c0.3-1,0.4-1.7,0.5-2.3c0.2-1.3,0.4-2.9,0.4-4.8c0-1.8-0.2-4.1-0.5-6.7c-0.4-2.6-1-5.1-1.8-7.4c-0.8-2.1-1.9-3.9-3.3-5.6
			c-1.4-1.7-2.9-2.8-4.4-3.6c-2.5-1.2-5.3-1.3-8.4-0.4c-0.6,0.2-1.3,0.5-1.9,0.8c-0.3,0.2-1,0.6-1.9,1.1c-1.5,0.8-2.4,0.9-2.7,0.4
			c-0.2-0.5,0.3-1.3,1.7-2.3c0.6-0.3,1.5-0.7,2.7-1.2c2.8-0.9,5.2-1.2,7.3-0.9c1.7,0.3,3.4,1,5.1,2.1c1.7,1.1,3.1,2.4,4.1,4.1
			c1.7,2.6,3,5.4,3.9,8.5c0.9,3.1,1.4,5.7,1.5,7.8c0.1,2.1-0.1,5-0.8,8.7c-0.7,3.7-2,7-3.9,10c-1.1,1.7-2.6,3.1-4.6,4.2
			c-2,1.1-4.1,1.7-6.2,2c-2.5,0.3-5,0-7.6-0.9c-0.7-0.2-1.4-0.5-2.2-0.9c-0.3-0.2-0.6-0.4-0.9-0.6c0,0.3,0,0.5-0.1,0.6
			c0,0.1,0,0.2,0,0.3c0,0.1,0,0.1,0,0.2c0,0.2-0.3,0.4-0.7,0.6c-0.4,0.2-0.8,0.2-1.1,0c-0.3-0.2-0.4-0.4-0.4-0.7
			c0-0.1,0-0.2,0.1-0.4s0.1-0.3,0.1-0.4c0-0.2,0.2-5.5,0.4-15.9c0.1-2.7,0.1-7.3-0.1-13.7c-0.2-6.5-0.4-10.6-0.6-12.5
			c0-0.6-0.1-1-0.1-1.2c-0.1-0.6-0.2-0.9-0.2-1.1c0-0.8,0.3-1.2,0.9-1.2C1077.3,67.6,1077.7,68,1077.8,68.8z"/>
		<path class="st17" d="M1133.9,69.6c0.1,0,0.4,0,0.9,0c0.8,0,2.5-0.1,5.1-0.3c0.2-0.3,0.5-0.4,0.9-0.4c0.2,0,0.3,0.1,0.4,0.2
			c2.9-0.2,4.8-0.4,5.5-0.5c0.5-0.1,0.8-0.1,0.9-0.1l0.8-0.1c0.3,0,0.6,0.3,0.8,0.7c0.2,0.4,0.2,0.8,0,1c-0.2,0.3-0.6,0.4-0.9,0.4
			c-0.1,0-0.2,0-0.4-0.1c-0.2,0-0.3-0.1-0.4-0.1c-0.9-0.1-2-0.2-3.4-0.1c-0.9,0-1.7,0.1-2.5,0.2c0,0.2-0.1,0.5-0.2,1
			c-0.3,1.1-0.6,4.1-0.9,9s-0.4,8.3-0.4,10.3c0,1.6,0.1,5.2,0.2,10.7c0.1,5.6,0.2,8.9,0.3,10.1c0,0.6,0.1,1,0.1,1.2l0.1,1.1
			c0,0.1,0,0.2-0.1,0.3c0.2,0,0.5-0.1,0.7-0.1c2.4-0.1,4.1-0.3,5.3-0.4c0.4,0,0.7-0.1,0.9-0.1l0.7-0.1c0.3,0,0.5,0.3,0.8,0.7
			c0.2,0.4,0.2,0.8,0,1c-0.2,0.3-0.5,0.4-0.9,0.4c-0.1,0-0.2,0-0.4-0.1c-0.2,0-0.3-0.1-0.3-0.1c-0.8-0.1-1.8-0.1-3.2-0.1
			c-3.4,0-6.1,0.3-8.4,0.6c-0.4,0.1-0.7,0.1-0.7,0.1c-0.3,0.1-0.6,0.1-0.7,0.1c-0.6,0-0.9-0.4-0.9-1c0-0.6,0.3-1,0.8-1.1
			c0.1,0,0.4,0,0.9,0c0.7,0.1,1.8,0.1,3.4,0.1c0-0.2-0.1-0.4-0.1-0.6c0-0.1,0-0.3,0.1-0.5c0.1-0.3,0.1-0.4,0.1-0.5
			c0-1,0.1-2.6,0-4.8c0-2.2,0-4.8-0.1-7.8c0-3,0-4.7,0-5c0-1.4,0.2-5.3,0.4-11.7c0.2-6.3,0.3-10.1,0.3-11.2c0,0,0-0.2,0-0.5
			c0-0.3,0-0.5,0-0.6c0-0.1,0-0.2,0-0.2c-1.5,0.1-2.9,0.4-4.1,0.6c-0.4,0.1-0.7,0.2-0.7,0.2c-0.4,0.1-0.6,0.1-0.7,0.1
			c-0.6,0-0.9-0.3-1-0.9C1133.1,70.2,1133.4,69.8,1133.9,69.6z"/>
		<path class="st17" d="M1160.9,69.2c0,0.1,0.2,0.6,0.4,1.4c0.8,2.3,4.1,9.6,9.7,21.9c0.4,0.8,1.9,4,4.5,9.8c1.1,2.4,2,4.3,2.7,5.8
			c-0.4-6.9-0.5-11.3-0.4-13c0.6-13.7,0.7-22,0.5-24.8c0-0.4-0.1-0.7-0.1-0.9c-0.1-0.4-0.1-0.7-0.1-0.8c0-0.6,0.4-0.9,1-1
			c0.6,0,1,0.3,1.1,0.9c0,0.1,0,0.5-0.1,1.1c-0.1,1.1-0.4,8.1-0.9,20.9c0,1.8,0,5.5,0.1,11.2c0.1,4.8,0.3,8,0.6,9.4
			c0,0.1,0.1,0.3,0.1,0.5c0,0.1,0.1,0.3,0.1,0.4c0.2,0.4,0.4,0.7,0.6,0.9l0.1,0.1l0.1,0.1c0,0,0,0.1-0.1,0.2
			c-0.1,0.1-0.1,0.2-0.2,0.3c0,0.1-0.1,0.3-0.1,0.5c0,0.1,0,0.2-0.3,0.2c-0.1,0-0.2,0.1-0.3,0.1c-0.2,0.2-0.5,0.2-0.8,0.1
			c-0.3-0.1-0.5-0.3-0.6-0.5c0-0.1-0.1-0.2-0.1-0.4c0,0-0.1-0.2-0.1-0.4c0,0,0.1,0,0.1-0.1c0,0-0.1,0-0.1-0.1
			c-0.4-0.8-0.6-1.4-0.5-1.7c-1-2.4-2.9-7-5.9-13.8c-1.2-2.8-3.2-7.2-6.1-13.4c-2.7-6-4.6-9.9-5.6-11.8c0,0.8,0,1.8,0.1,2.8
			c0.1,2.8,0.2,5.8,0.4,9c0.1,3.2,0.2,5.1,0.2,5.9c0,0.1,0.1,3.5,0.2,10.2c0.1,6.6,0.2,10.5,0.3,11.6c0,0.6,0.1,1.1,0.1,1.3
			c0.1,0.8,0.1,1.2,0.1,1.2c0,0.4-0.3,0.8-0.7,1.1c-0.4,0.3-0.8,0.3-1,0.1c-0.3-0.3-0.4-0.8-0.4-1.4c0-0.1,0-0.3,0.1-0.6
			c0.1-0.3,0.1-0.4,0.1-0.5c0-0.7,0.1-6.8,0.1-18.5c0-2.4-0.1-6.6-0.4-12.3c-0.3-5.8-0.5-9.6-0.8-11.4c-0.1-0.6-0.1-1-0.1-1.2
			c-0.1-0.5-0.2-0.9-0.2-1.1c0-0.8,0.3-1.2,0.9-1.3c0.6,0,1,0.4,1.2,1.2c0,0,0,0.1,0,0.1C1160.4,68.5,1160.6,68.8,1160.9,69.2z"/>
		<path class="st17" d="M1186.7,70.6c0,0,0.3,0,0.7,0c0.5,0,5.2-0.3,14.3-1.2c1-0.1,3.6-0.2,7.8-0.2c4.2,0,6.6,0,7.3,0
			c0,0,0.2,0,0.4,0c0.2,0,0.3,0,0.4,0c0.4,0,0.7,0.1,0.7,0.1c0.2,0.1,0.4,0.4,0.4,0.8c0,0.4-0.1,0.8-0.4,1.1
			c-0.2,0.2-0.5,0.3-0.8,0.2c0,0-0.1-0.1-0.3-0.2c-0.1-0.1-0.2-0.1-0.3-0.1c-0.4-0.1-2.3-0.3-5.8-0.5c-3.5-0.2-5.6-0.2-6.3-0.2
			c-0.7,0-1.5,0-2.5,0.1c0.1,0.2,0.2,0.5,0.3,0.9c0,0.1-0.1,0.6-0.2,1.2c-0.2,1.2-0.4,4-0.6,8.7c-0.2,4.6-0.4,8-0.4,10.2
			c0,1.2-0.1,4.5-0.1,10.1c0,5.6,0,8.9,0.1,10c0,0.5,0.1,0.9,0.1,1.2l0.1,1.1c0,0.4-0.3,0.8-0.7,1c-0.4,0.3-0.8,0.3-1.1,0
			c-0.3-0.2-0.4-0.7-0.4-1.3c0-0.1,0-0.3,0.1-0.6c0.1-0.2,0.1-0.4,0.1-0.5c0-0.5,0.1-3.5,0.2-8.9c0.1-5.4,0.1-8.1,0.1-8.3
			c0.4-12.6,0.6-20,0.6-22.2c0-0.7,0-1,0-1.1c0-0.5,0-0.8,0-0.9c0-0.2,0.1-0.4,0.1-0.6c-1.3,0.1-2.9,0.3-4.7,0.5
			c-4.2,0.4-6.9,0.8-8.1,1.1c-0.4,0.1-0.7,0.1-0.7,0.1c-0.3,0.1-0.5,0.1-0.6,0.1c-0.5,0-0.8-0.4-0.8-1
			C1185.9,71,1186.1,70.7,1186.7,70.6z"/>
		<path class="st17" d="M1248,77.1c0-0.1,0.1-0.2,0.2-0.2c0.3-0.2,0.5-0.1,0.6,0.1c0.3,0.5,0.4,1.8,0.4,3.7c0,0.4,0,1-0.1,1.7
			c-0.1,0.7-0.1,1.2-0.1,1.4c0,0.1,0,0.5,0,1.3c0,0.7-0.1,1.5-0.1,2.2c0,0.7-0.1,1.6-0.3,2.8c-0.1,1.2-0.3,2.3-0.4,3.4
			c-0.1,1.1-0.3,2.4-0.6,3.7c-0.3,1.4-0.6,2.7-0.9,4c-0.8,3.2-2.1,6.4-3.9,9.5c-1.8,3.1-3.9,5.5-6.3,7.1c-0.8,0.6-1.7,0.8-2.7,0.5
			c-1-0.2-1.8-0.6-2.6-1.2c-0.8-0.6-1.4-1.2-1.9-1.8c-0.8-1.1-1.4-2.2-1.9-3.5c-1.1-3-2-7-2.8-12c-0.8-5-1.2-10.2-1-15.4
			c0-3.3,0.7-6.4,1.9-9.4c1-2.3,2.1-4.2,3.4-5.7c1.3-1.6,2.7-2.5,4.1-2.9c1.7-0.5,3.4-0.4,5.2,0.1c1.8,0.6,3.4,1.4,4.7,2.6
			c1.5,1.3,2.9,3.1,4,5.5C1247.3,75.2,1247.7,76.1,1248,77.1z M1246.3,79.8c0-1-0.1-1.9-0.4-2.9c-0.3-1.2-1.1-2.7-2.2-4.4
			c-1.2-1.7-2.7-3.1-4.5-4.3c-1.1-0.6-2.3-0.9-3.6-0.9c-1.4,0-2.7,0.4-3.9,1.2c-1,0.6-1.9,1.4-2.8,2.6c-0.9,1.1-1.4,2.4-1.7,3.7
			c-1,4.2-1.6,8.1-1.9,11.6c-0.3,3.6-0.4,6.1-0.3,7.5c0.1,1.4,0.3,3.1,0.6,5c0.4,2.6,1,5.4,1.8,8.4c0.9,3,2,5.5,3.3,7.4
			c1,1.4,2.2,2.2,3.5,2.3c1.4,0,2.7-0.6,3.8-2.1c4-5.2,6.6-10.5,7.8-16.1c0.9-3.7,1.3-7.8,1.4-12.3c0-1.2,0.1-2.3,0.1-3.4
			c0-0.2,0-0.5,0-0.8C1246.6,82.3,1246.3,81.5,1246.3,79.8z"/>
		<path class="st17" d="M1296,70.6v1.3c0,1.2,0.6,4.6,1.7,10.2c1.1,5.5,1.9,9.4,2.5,11.6c0.4,1.6,1.4,5,2.9,10.2
			c1.2,3.9,1.9,6.5,2.4,7.9c0.1-0.2,0.2-0.4,0.2-0.6c0,0.2,0.1,0.6,0.4,1.3c0.3,0.7,0.4,1.1,0.3,1.2c0,0-0.1,0.1-0.1,0.1
			c0,0.1,0.1,0.2,0.1,0.4c0,0.2-0.1,0.5-0.5,0.8c-0.4,0.3-0.7,0.3-1,0.3c-0.3-0.1-0.6-0.3-0.6-0.6c0-0.1,0-0.2,0-0.4
			c0-0.1,0-0.3,0-0.4c0-0.3-0.4-1.6-1-3.8c-0.6-2.3-1.3-4.7-2-7.2c-0.7-2.5-1.1-4-1.2-4.4c0-0.2-0.1-0.4-0.1-0.6c-0.1,0-0.3,0-0.4,0
			c-0.2,0-0.7,0-1.7-0.2c-0.6-0.1-1.2-0.2-1.8-0.2c-1.7,0-3-0.1-3.7-0.1c-0.1,0-0.5,0-1.2,0.1c-0.7,0.1-1.1,0.1-1.2,0
			c-0.3-0.1-0.6-0.2-0.7-0.4c-1.7,7.4-2.8,12.3-3.3,14.6c0,0.1,0.1,0.3,0.1,0.6c0,0.4-0.2,0.8-0.4,1.3c0,0.1,0,0.2-0.1,0.2
			c0,0.1,0,0.2,0,0.3c0,0.1,0,0.2,0,0.3c0,0.1,0,0.1-0.1,0.2c0,0.2-0.3,0.4-0.7,0.5c-0.4,0.1-0.8,0-1.1-0.3
			c-0.2-0.2-0.3-0.4-0.3-0.7h-0.1l0.4-0.6c0-0.1,0-0.2,0-0.3c0-1.1,0.2-1.7,0.4-1.7c0.1,0,0.2,0,0.2,0c0.1-0.5,0.3-1.2,0.6-1.9
			c0.6-2.4,1.2-4.9,1.8-7.6c0.6-2.7,1-4.2,1.1-4.5c0.7-2.7,1.7-7.3,3.1-13.8c1.4-6.5,2.2-10.6,2.5-12.6c0-0.6,0.1-1,0.1-1.2
			c0-0.6,0.1-0.9,0.1-1.1c0.2-0.8,0.6-1.1,1.2-1c0.6,0.1,0.9,0.6,0.8,1.4c0,0.1,0,0.3-0.1,0.6C1295.8,69.9,1296,70.2,1296,70.6z
			 M1294.6,74.1c-0.2,0.7-0.4,1.5-0.6,2.4c-0.7,3.1-1.5,6.5-2.3,10c-0.8,3.6-1.3,5.7-1.5,6.6c-0.2,0.9-0.4,1.8-0.6,2.6
			c0.1,0,0.3-0.1,0.5-0.1c0.2,0,0.9,0,2.1,0.1c1.7,0.2,3.3,0.3,4.6,0.3c0.7,0,1.3,0,1.9-0.1c0.1,0,0.2-0.1,0.3-0.1
			c0.1,0,0.2,0,0.2,0c0.1,0,0.2,0,0.3,0C1298.4,91.3,1296.8,84.1,1294.6,74.1z"/>
	</g>
	<g>
		<rect x="146" y="963.2" class="st0" width="1646.2" height="64.8"/>
		<path class="st17" d="M809.1,965.8c0.1,0.1,0.2,0.7,0.6,1.7c1,2.9,5.2,12.3,12.4,28c0.5,1,2.4,5.2,5.7,12.5
			c1.4,3.1,2.5,5.6,3.4,7.5c-0.5-8.8-0.7-14.4-0.6-16.7c0.7-17.5,1-28.1,0.6-31.7c-0.1-0.6-0.1-1-0.2-1.2c-0.1-0.6-0.2-0.9-0.1-1
			c0.1-0.8,0.5-1.2,1.3-1.2c0.8,0,1.3,0.4,1.4,1.1c0,0.2,0,0.6-0.1,1.4c-0.1,1.4-0.5,10.3-1.1,26.7c-0.1,2.3,0,7.1,0.2,14.4
			c0.2,6.2,0.4,10.2,0.7,12c0.1,0.1,0.1,0.3,0.2,0.6c0.1,0.2,0.1,0.4,0.2,0.6c0.3,0.6,0.6,1,0.7,1.2l0.1,0.1l0.1,0.1
			c0,0.1,0,0.1-0.1,0.2s-0.2,0.2-0.2,0.4c-0.1,0.2-0.1,0.4-0.1,0.6c0.1,0.2-0.1,0.3-0.4,0.3c-0.1,0.1-0.2,0.1-0.4,0.1
			c-0.3,0.2-0.6,0.3-1,0.2c-0.4-0.1-0.6-0.3-0.8-0.6c-0.1-0.1-0.1-0.3-0.2-0.6c-0.1-0.1-0.1-0.2-0.1-0.6c0.1,0,0.1,0,0.1-0.1
			c-0.1,0-0.1,0-0.1-0.1c-0.5-1-0.7-1.7-0.6-2.1c-1.2-3.1-3.7-9-7.5-17.6c-1.5-3.6-4.1-9.3-7.8-17.1c-3.5-7.6-5.9-12.6-7.2-15.1
			c0,1,0,2.2,0.1,3.6c0.1,3.6,0.3,7.5,0.5,11.5c0.2,4.1,0.3,6.6,0.3,7.5c0,0.2,0.1,4.5,0.2,13c0.2,8.5,0.3,13.4,0.3,14.8
			c0.1,0.8,0.1,1.3,0.1,1.7c0.1,1,0.2,1.5,0.2,1.6c-0.1,0.6-0.4,1-0.9,1.4c-0.5,0.4-1,0.4-1.3,0.1c-0.4-0.4-0.6-1-0.6-1.8
			c0-0.2,0-0.4,0.1-0.8c0.1-0.3,0.1-0.6,0.1-0.7c0.1-0.9,0.1-8.7,0.1-23.6c0-3.1-0.2-8.4-0.5-15.8c-0.3-7.4-0.7-12.3-1.1-14.6
			c-0.1-0.8-0.2-1.3-0.2-1.5c-0.2-0.7-0.3-1.1-0.3-1.4c0-1,0.4-1.6,1.2-1.6c0.8,0,1.3,0.5,1.5,1.5c0,0.1,0,0.1,0,0.2
			C808.4,964.9,808.8,965.2,809.1,965.8z"/>
		<path class="st17" d="M841.5,966.3c0.1-0.1,0.5-0.1,1.2,0c1,0,3.2-0.1,6.5-0.4c0.2-0.4,0.6-0.5,1.2-0.5c0.2,0.1,0.4,0.2,0.6,0.3
			c3.7-0.3,6.1-0.5,7.1-0.6c0.7-0.1,1-0.2,1.1-0.2l1-0.2c0.4,0.1,0.8,0.4,1.1,0.9c0.3,0.5,0.3,1,0,1.3c-0.3,0.4-0.7,0.6-1.2,0.6
			c-0.1,0-0.3,0-0.6-0.1c-0.2-0.1-0.4-0.1-0.5-0.1c-1.1-0.2-2.5-0.2-4.3-0.2c-1.1,0.1-2.2,0.2-3.2,0.3c-0.1,0.2-0.2,0.7-0.3,1.3
			c-0.4,1.4-0.7,5.2-1.1,11.5c-0.4,6.3-0.6,10.6-0.6,13.2c0,2,0.1,6.6,0.2,13.7c0.2,7.1,0.3,11.4,0.4,12.9c0.1,0.7,0.1,1.2,0.2,1.5
			l0.2,1.4c0,0.1,0,0.2-0.1,0.4c0.3-0.1,0.6-0.1,0.9-0.1c3-0.2,5.3-0.4,6.8-0.6c0.6-0.1,0.9-0.1,1.1-0.1l0.9-0.2
			c0.4,0.1,0.7,0.4,1,0.9c0.3,0.5,0.3,1,0,1.3c-0.2,0.4-0.6,0.6-1.2,0.6c-0.1,0-0.3,0-0.5-0.1c-0.2-0.1-0.4-0.1-0.4-0.2
			c-1-0.1-2.4-0.2-4.1-0.1c-4.3,0.1-7.9,0.3-10.7,0.8c-0.6,0.1-0.9,0.2-0.9,0.2c-0.4,0.1-0.7,0.2-0.9,0.2c-0.7-0.1-1.1-0.5-1.1-1.3
			s0.3-1.3,1-1.4c0.1-0.1,0.5-0.1,1.1,0c0.9,0.1,2.4,0.2,4.3,0.1c-0.1-0.2-0.1-0.5-0.1-0.7c0-0.1,0-0.4,0.1-0.7
			c0.1-0.3,0.1-0.6,0.1-0.7c0.1-1.2,0.1-3.3,0-6.1c0-2.9-0.1-6.2-0.1-10c0-3.8,0-5.9,0-6.4c0.1-1.8,0.2-6.8,0.5-14.9
			c0.2-8.1,0.4-12.9,0.4-14.4c0-0.1,0-0.3,0-0.6c0-0.3,0-0.6,0-0.8c0-0.1,0-0.2,0-0.3c-1.9,0.2-3.7,0.5-5.2,0.8
			c-0.6,0.1-0.9,0.2-0.9,0.3c-0.5,0.1-0.8,0.2-0.9,0.2c-0.7,0-1.2-0.4-1.2-1.2C840.4,967,840.8,966.5,841.5,966.3z"/>
		<path class="st17" d="M893.3,974.8c-0.5-1.8-0.8-2.9-0.8-3c-1-2.8-3.3-5.3-6.8-7.4c-1.1-0.7-2.3-1-3.6-1.1
			c-1.3-0.1-2.4,0.2-3.3,0.7c-2.2,1.3-3.7,3.5-4.5,6.6c-2,7.9-2.9,16.6-2.8,26.1c0.1,10.4,1.6,18.6,4.6,24.7
			c0.6,1.1,1.6,1.7,3.1,1.9c1.5,0.2,2.9-0.1,4-0.9c1.7-1.1,3.2-3,4.6-5.6c1.3-2.5,2.3-5,2.9-7.7c0.4-1.2,0.6-2.5,0.7-3.9
			c0.1-0.6,0.2-1.3,0.3-2.2c0.1-0.9,0.1-1.4,0.1-1.6c0.1-0.9,0.3-1.6,0.5-2.2c-0.1,0-0.2,0-0.3,0c-0.7-0.1-1.4-0.1-2.2,0
			c-1.8,0.2-3.3,0.4-4.4,0.6c-0.2,0.1-0.6,0.1-1,0.2c-0.4,0.1-0.7,0.2-0.9,0.2c-0.2,0-0.5,0-1,0c-0.7-0.2-1.1-0.6-1.1-1.3
			c0-0.7,0.4-1.1,1.1-1.3c0.1-0.1,0.9-0.1,2.4,0c1.8,0.1,3.7-0.1,5.5-0.4c1.2-0.2,1.9-0.3,2.3-0.4c0.1-0.1,0.2-0.1,0.4-0.1
			c0.1,0,0.2,0,0.3,0c0.7-0.1,1.2,0.1,1.7,0.6c0.4,0.5,0.6,0.9,0.4,1.4c-0.1,0.2-0.3,0.4-0.7,0.6c0.1,0.9,0,2-0.2,3.3
			c-0.1,0.6-0.3,1.9-0.8,3.9c-0.4,1.3-0.9,3-1.7,5c-0.7,2-2,4.4-3.9,7.3c-1.8,2.9-3.8,5-6,6.3c-1.2,0.7-2.6,0.6-4.3-0.3
			c-1.7-0.9-3.1-2.1-4.1-3.6c-0.9-1.3-1.6-3.4-2.3-6.1c-0.6-2.5-0.9-4.5-1-6.1c-0.2-3.6-0.4-6.3-0.5-8.1c-0.1-1.9-0.1-4.8,0-8.8
			c0.1-4,0.3-8,0.7-12c0.5-4.5,1.5-8.5,3.2-12.1c1.6-3.6,3.6-5.6,5.8-6.2c2.7-0.6,5.4,0,8,1.8s4.7,3.6,6.1,5.5
			c0.3,0.4,0.7,1.3,1.3,2.8c0.5,1.2,0.8,2,0.9,2.6c0.2,1.3,0.1,2.2-0.2,2.8c-0.3,0.6-0.7,0.6-1.2,0.2
			C894,976.8,893.6,976,893.3,974.8z"/>
		<path class="st17" d="M911.7,965.9c0,0.2-0.1,0.8-0.2,1.7c-0.1,1.1-0.3,3.6-0.5,7.6c-0.2,4-0.4,8.4-0.6,13.3
			c-0.2,4.9-0.3,7.7-0.3,8.4c-0.6,12.5-0.9,20.5-0.9,24.1c0.4,0.2,0.4,1,0.2,2.5c0,0.1,0,0.2-0.1,0.4c0.1,0.1,0.1,0.2,0.1,0.3
			c0.1,0.1,0.1,0.2,0.1,0.3s0,0.2,0,0.2c-0.1,0.3-0.4,0.6-0.9,0.8c-0.5,0.2-1,0.2-1.3,0c-0.2-0.1-0.4-0.3-0.6-0.6h-0.1l0.1-0.4
			c0-0.1,0-0.3,0.1-0.5c0-0.1,0-0.2,0.1-0.2c-0.1-0.2-0.1-0.3-0.1-0.5c-0.1-0.4-0.1-0.9,0-1.4c0-0.5,0.1-0.8,0.1-0.8
			c0.1-0.1,0.2-0.1,0.3-0.1c0.1-0.7,0.1-1.6,0.2-2.7c0.1-3.1,0.3-6.3,0.4-9.7c0.2-3.4,0.3-5.4,0.3-5.9c0.2-3.7,0.5-9.7,0.8-18
			c0.3-8.3,0.4-13.7,0.2-16.2c-0.1-0.8-0.1-1.3-0.1-1.6c-0.1-0.7-0.2-1.1-0.1-1.3c0.1-1,0.5-1.5,1.3-1.5
			C911.1,964.4,911.6,964.9,911.7,965.9z M932.2,965.7c0,0.2,0,0.8-0.1,1.7c-0.2,1.5-0.5,10.9-0.9,28.4c-0.2,12.7-0.3,20.6-0.3,23.8
			c0.1-0.1,0.2-0.2,0.3-0.4c-0.1,0.2-0.1,0.7,0,1.6c0.1,0.9,0.1,1.4-0.1,1.5c0.1,0.1,0.1,0.2,0.1,0.3c0,0.1,0,0.1,0,0.2
			c-0.1,0.3-0.4,0.6-0.9,0.8c-0.5,0.2-1,0.2-1.3,0c-0.4-0.2-0.6-0.6-0.6-1c0-0.1,0-0.2,0.1-0.4c0.1-0.2,0.1-0.4,0.2-0.4
			c0.1-0.4,0.1-2,0.2-5s0.2-6.1,0.3-9.5c0.1-3.4,0.1-5.3,0.1-5.7c0.1-2.4,0.2-5.6,0.3-9.6c-0.1-0.1-0.2-0.1-0.3-0.1
			c-0.2-0.1-0.4-0.2-0.6-0.2c-1-0.1-2.4-0.2-4.3-0.1c-4.5,0.1-8.2,0.4-11,0.9c-0.1,0-0.2,0-0.5,0c-0.2,0-0.4,0-0.6,0
			c-0.5,0.1-0.8,0.2-0.9,0.2c-0.7-0.1-1.1-0.6-1.1-1.3c0-0.8,0.4-1.2,1.1-1.3c0.1,0,0.5,0,1.2,0.1c1.7,0.2,4.4,0.2,8.1-0.1
			c2.9-0.2,5.2-0.4,7-0.6c0.7-0.1,1.1-0.1,1.2-0.1c0.3-0.1,0.6-0.2,0.7-0.2c0.1-1.4,0.1-2.9,0.1-4.5c0.1-7.5,0.1-12.9-0.1-16.4
			c0-0.8,0-1.3-0.1-1.5c-0.1-0.7-0.1-1.2-0.1-1.4c0.1-1,0.6-1.5,1.4-1.4C931.7,964.2,932.1,964.7,932.2,965.7z M931.2,1019.3
			L931.2,1019.3L931.2,1019.3z"/>
		<path class="st17" d="M940.2,967.5c0.1-0.1,0.4-0.1,0.9,0c0.6,0.1,6.7-0.4,18.2-1.5c1.3-0.1,4.6-0.2,9.9-0.2c5.3,0,8.5,0,9.4,0
			c0.1,0,0.2,0,0.5,0c0.2,0,0.4,0,0.6,0c0.6,0.1,0.9,0.1,0.9,0.1c0.3,0.1,0.5,0.5,0.6,1c0.1,0.6-0.1,1-0.5,1.4
			c-0.3,0.2-0.6,0.3-1,0.3c-0.1-0.1-0.2-0.2-0.3-0.3c-0.2-0.1-0.3-0.2-0.3-0.2c-0.5-0.2-2.9-0.4-7.4-0.6c-4.4-0.2-7.1-0.3-8.1-0.2
			c-0.9,0-1.9,0.1-3.2,0.2c0.2,0.2,0.3,0.6,0.4,1.1c0,0.2-0.1,0.7-0.3,1.6c-0.2,1.5-0.5,5.2-0.8,11.1c-0.3,5.9-0.5,10.3-0.5,13
			c-0.1,1.5-0.1,5.8-0.1,12.9c0,7.1,0,11.4,0.1,12.8c0.1,0.7,0.1,1.2,0.2,1.5l0.2,1.4c-0.1,0.6-0.4,1-0.9,1.3c-0.6,0.3-1,0.4-1.4,0
			c-0.4-0.3-0.6-0.9-0.6-1.7c0-0.2,0-0.4,0.1-0.7c0.1-0.3,0.1-0.5,0.1-0.6c0.1-0.7,0.1-4.4,0.2-11.3c0.1-6.9,0.1-10.4,0.1-10.6
			c0.6-16.1,0.8-25.5,0.7-28.3c0-0.9,0-1.3,0-1.4c-0.1-0.6-0.1-1,0-1.2c0.1-0.3,0.1-0.6,0.2-0.7c-1.7,0.1-3.7,0.3-6,0.6
			c-5.3,0.6-8.8,1-10.3,1.4c-0.6,0.1-0.9,0.2-0.9,0.2c-0.4,0.1-0.6,0.2-0.7,0.2c-0.7-0.1-1-0.5-1.1-1.3
			C939.2,968.1,939.5,967.6,940.2,967.5z"/>
		<path class="st17" d="M994.4,964.9c0.1,0.1,0.1,0.4,0,1c0,0.3,0,1,0,1.9c0.1,0.1,0.1,0.2,0.2,0.3c0.1,0.1,0.2,0.6,0.5,1.5
			c0.3,0.9,1.1,2.9,2.4,6c1.3,3.1,2.8,6.3,4.4,9.8c1.6,3.5,2.5,5.6,2.9,6.3c0.4,1,1.8,5.1,4.2,12.2c1.2,3.7,2.2,6.6,2.9,8.6
			c0.3-1,0.7-2.2,1.1-3.6c1.4-5,2.4-8.6,3-10.8c0.9-3.5,2.2-8.9,3.9-16.1c1.7-7.2,2.5-11.6,2.6-13c0.1-0.3,0.1-0.6,0-0.7
			c-0.1-0.2-0.1-0.4-0.1-0.5c0.2-0.4,0.7-0.5,1.5-0.4c0.8,0.1,1.2,0.4,1.2,0.8c0.1,0.1,0,0.2-0.1,0.5c0.2-0.1,0.4-0.1,0.6-0.1
			c0.8,0,1.2,0.5,1.3,1.5c0.1,0.2,0,0.7-0.1,1.6c-0.1,1.2-0.4,9.1-0.9,23.7c-0.4,13.5-0.6,21.9-0.4,25.2c0,0.6,0,1.1,0.1,1.5
			l0.2,1.3c-0.1,0.6-0.4,1-0.9,1.3c-0.6,0.3-1,0.4-1.4,0c-0.4-0.3-0.5-0.9-0.5-1.7c0-0.1,0-0.3,0.1-0.6c0.1-0.3,0.1-0.5,0.1-0.6
			c0.1-0.7,0.3-4.4,0.5-11.1c0.2-6.7,0.3-10.1,0.3-10.4c0.1-3.1,0.3-8,0.4-14.6s0.2-11,0-13.1c-0.1-0.7-0.1-1.2-0.1-1.4
			c0-0.1,0-0.1,0-0.2c-0.2,0.9-0.5,2.1-0.8,3.4c-0.8,3.1-1.6,6.7-2.5,10.6c-0.9,3.9-1.5,6.4-1.8,7.5c-0.3,1.2-1.4,5.5-3.3,12.8
			c-1.3,5.2-2.2,8.6-2.7,10.5c0,0.1,0,0.2,0.1,0.3c0.2,0.4,0.4,0.9,0.7,1.3c0.1,0.1,0.2,0.3,0.4,0.5c0.2,0.2,0.3,0.4,0.4,0.5
			c0.2,0.4,0.1,0.9-0.1,1.5c-0.3,0.6-0.7,0.8-1.1,0.7c-0.5-0.1-0.9-0.4-1.3-1.1c-0.1-0.2-0.2-0.5-0.3-0.8c-0.1-0.2-0.1-0.3-0.1-0.4
			l-0.1-0.1c-0.6-0.2-0.9-0.5-1.1-0.8c-0.1-0.1-0.2-0.2-0.3-0.3c-0.1,0-0.2,0-0.2,0c0,0,0.1-0.1,0.2-0.1c0.1,0,0.2-0.1,0.2-0.1
			c0.1-0.1,0.2-0.5,0.5-1.2c-0.2-0.8-0.6-1.8-0.9-3c-1.1-3.4-2.2-6.7-3.2-9.9c-1-3.2-1.6-5.1-1.9-5.6c-0.9-2.3-2.7-6.7-5.6-13
			c-2-4.5-3.6-7.9-4.8-10.2c0.1,1.7,0.1,3.6,0.2,5.7c0.2,8.2,0.3,13.1,0.3,14.8c0,4.4-0.4,14.6-1.1,30.6c0,0.1,0,0.2,0,0.3
			c0,0.2,0,0.3,0,0.4c0,0.1,0,0.2,0,0.3v0.8c-0.1,0.3-0.5,0.5-1,0.5c-0.6,0-1-0.1-1.4-0.4c-0.2-0.3-0.3-0.6-0.3-0.8
			c0-0.1,0-0.2,0.1-0.3c0.1-0.2,0.2-0.3,0.2-0.3c0.2-0.5,0.5-4.1,0.9-10.9c0.4-6.8,0.7-11.1,0.7-13c0.1-3.9,0-10.2-0.2-19
			c-0.2-5.6-0.4-9.8-0.6-12.5c-0.3-0.4-0.5-0.7-0.6-0.9c-0.2-0.7-0.1-1.3,0.3-1.6c0-0.3,0-0.6-0.1-0.7c-0.1-0.4-0.1-0.7-0.2-0.9
			c-0.2-0.4-0.3-0.6-0.3-0.7c0.1-0.6,0.5-0.9,1.2-1C993.7,964.1,994.2,964.4,994.4,964.9z"/>
		<path class="st17" d="M1052,967.5v1.7c0.1,1.6,0.8,5.9,2.2,13s2.4,12,3.2,14.8c0.6,2.1,1.8,6.4,3.7,13.1c1.5,5,2.5,8.3,3,10.1
			c0.1-0.2,0.2-0.5,0.3-0.7c-0.1,0.2,0.1,0.8,0.5,1.7c0.4,0.9,0.5,1.3,0.4,1.5c-0.1,0.1-0.1,0.1-0.2,0.2c0.1,0.1,0.1,0.3,0.2,0.5
			c0.1,0.3-0.2,0.6-0.6,1c-0.5,0.3-0.9,0.4-1.3,0.3c-0.4-0.1-0.7-0.4-0.8-0.7c0-0.1,0-0.3,0-0.5c0-0.2,0-0.3,0-0.5
			c-0.1-0.4-0.5-2-1.2-4.9c-0.8-2.9-1.6-5.9-2.5-9.2c-0.9-3.2-1.4-5.1-1.6-5.6c-0.1-0.2-0.1-0.5-0.2-0.7c-0.2,0-0.4,0-0.6,0
			c-0.2,0.1-1,0-2.1-0.3c-0.7-0.1-1.5-0.2-2.3-0.3c-2.2-0.1-3.8-0.1-4.8-0.1c-0.1,0-0.6,0.1-1.5,0.2c-0.9,0.1-1.3,0.1-1.5,0
			c-0.4-0.1-0.7-0.3-0.9-0.6c-2.2,9.5-3.6,15.7-4.2,18.7c0.1,0.1,0.1,0.4,0.1,0.8c-0.1,0.5-0.2,1-0.5,1.7c0,0.1,0,0.2-0.1,0.3
			c0,0.1,0,0.2,0,0.4c0,0.1,0,0.2,0,0.3s0,0.2-0.1,0.2c-0.1,0.3-0.4,0.5-0.9,0.6c-0.6,0.1-1,0-1.4-0.3c-0.3-0.2-0.4-0.6-0.4-0.9
			h-0.1l0.5-0.8c0-0.1,0-0.2,0-0.4c0.1-1.4,0.2-2.1,0.5-2.2c0.1,0,0.2,0,0.3,0c0.2-0.7,0.4-1.5,0.7-2.5c0.7-3,1.5-6.2,2.3-9.7
			c0.8-3.4,1.3-5.4,1.4-5.8c0.9-3.5,2.2-9.4,4-17.6c1.8-8.2,2.9-13.6,3.2-16.1c0.1-0.8,0.1-1.3,0.1-1.6c0.1-0.7,0.1-1.2,0.2-1.4
			c0.2-1,0.8-1.4,1.6-1.2c0.8,0.2,1.1,0.8,1,1.8c0,0.1,0,0.4-0.1,0.7C1051.8,966.6,1051.9,967,1052,967.5z M1050.2,972
			c-0.2,0.9-0.5,1.9-0.7,3c-0.9,4-1.9,8.2-2.9,12.8c-1,4.5-1.6,7.3-1.9,8.4c-0.2,1.2-0.5,2.3-0.8,3.3c0.2-0.1,0.4-0.1,0.6-0.2
			c0.3-0.1,1.2,0,2.7,0.2c2.2,0.2,4.2,0.4,5.9,0.4c0.9,0,1.7,0,2.4-0.1c0.1-0.1,0.2-0.1,0.4-0.1c0.1,0,0.2,0,0.3,0
			c0.1,0,0.2,0,0.4,0C1055.1,994,1053,984.8,1050.2,972z"/>
		<path class="st17" d="M1078.3,966.5c0.1,0.2,0.1,0.8,0,1.7c-0.1,0.9-0.1,3.2-0.1,6.9c0.4-0.4,0.9-0.8,1.5-1.3
			c3.4-3,6.6-5.1,9.6-6.3c3.5-1.4,6.6-1.6,9.2-0.6c1.5,0.6,2.7,1.4,3.6,2.5c0.9,1.1,1.5,2.2,1.7,3.1c0.3,1.3-0.3,3.7-1.7,7.1
			s-3.9,6.6-7.3,9.5c-1.2,1-2.5,1.9-4,2.7c-1.5,0.8-2.7,1.4-3.8,1.8c-1.1,0.4-2.2,0.8-3.3,1.2c-1.1,0.4-1.7,0.6-1.9,0.7
			c-0.7,0.3-1.3,0.6-1.7,0.8c0.1,0.1,0.2,0.2,0.3,0.3c0.1,0.1,0.3,0.6,0.6,1.3c0.9,1.8,2.4,5.1,4.7,10c2.3,4.9,3.8,8.2,4.5,10
			c0.5,1.2,1.4,2.7,2.7,4.6c1.3,1.8,2.3,2.5,3.1,2.2c0.9-0.4,1.7-1,2.4-1.9c0.7-0.9,1.2-1.9,1.6-3s0.6-2,0.7-2.7
			c0.1-0.7,0.2-1.3,0.3-1.9c0.1-0.5,0.1-1,0-1.4c0-0.1,0-0.3,0-0.5s0-0.3,0-0.4c0-0.1,0-0.2,0-0.3c0.1-0.4,0.4-0.8,0.9-1.2
			c0.6-0.3,1-0.4,1.4,0c0.4,0.3,0.5,0.8,0.5,1.6c0,0.2,0,0.4-0.1,0.7c-0.1,0.3-0.1,0.5-0.1,0.6c0,0.1,0,0.3-0.1,0.8
			s-0.2,0.9-0.3,1.4c-0.1,0.5-0.3,1.1-0.5,1.7s-0.4,1.3-0.7,2.1c-0.3,0.8-0.6,1.5-1,2.2c-0.7,1.2-1.6,2.3-2.7,3.1
			c-1.1,0.8-2.1,1.1-3,1c-1.7-0.4-3-1.4-3.9-3c-0.6-1.1-1.7-3.5-3.4-7.2c-1.7-3.7-3.3-7.1-4.8-10.2c-1.5-3.1-2.7-5.2-3.5-6.2
			c-0.4-0.5-0.6-0.8-0.7-1c-0.2-0.2-0.4-0.4-0.6-0.6c-0.2,13.8-0.3,21.4-0.3,22.7c0.1,0.7,0.1,1.3,0.1,1.6l0.2,1.5
			c-0.1,0.6-0.4,1-0.9,1.4c-0.5,0.4-1,0.4-1.3,0.1c-0.4-0.3-0.6-0.9-0.6-1.7c0-0.2,0-0.4,0.1-0.8c0.1-0.3,0.1-0.6,0.2-0.7
			c0.1-0.6,0.1-2.6,0.2-6.1s0.2-7.1,0.3-10.9c0.1-3.8,0.2-5.9,0.2-6.3c0-0.6,0-1.3,0.1-2.1c-0.4-0.3-0.6-0.6-0.5-1
			c0.1-0.2,0.2-0.5,0.5-0.7c0.1-2.7,0.1-6.4,0-11.2c0-7.6-0.2-12.5-0.5-14.8c-0.1-0.7-0.1-1.2-0.2-1.5c-0.1-0.7-0.2-1.1-0.2-1.3
			c0.1-1,0.5-1.5,1.3-1.5C1077.7,965,1078.2,965.5,1078.3,966.5z M1078.2,979c0,0.6,0,1.2,0,1.7c0,7.1,0,11.4,0,13.2
			c0,0.2,0,0.4,0,0.6c0.1-0.1,0.3-0.1,0.5-0.1c0.4-0.1,0.6-0.2,0.7-0.2c0.1-0.1,0.4-0.2,1-0.3c0.6-0.2,1.2-0.3,1.8-0.5
			c0.6-0.2,1.3-0.4,2.3-0.8c0.9-0.3,1.8-0.7,2.6-1c0.8-0.3,1.7-0.8,2.7-1.3c1-0.6,1.9-1.1,2.7-1.7c1.9-1.4,3.6-3,5.1-4.8
			c1.5-1.8,2.5-3.2,3.1-4.2c0.6-1,1-1.8,1.2-2.3c0.7-2.5,0.6-4.5-0.5-6.2c-0.6-1-1.6-1.9-3.1-2.4c-1.4-0.6-2.9-0.8-4.5-0.5
			c-3.9,0.6-7.6,2.7-11.3,6.2c-0.6,0.6-1.1,1.1-1.7,1.7c-0.9,1.1-1.3,1.7-1.4,1.8C1079.1,978.5,1078.6,978.8,1078.2,979z"/>
		<path class="st17" d="M1139.3,969c-0.2,0-1,0-2.3-0.1c-0.5-0.1-2.2-0.1-5.1,0c-2.9,0.1-5.5,0-7.9-0.1c-1.5,0-2.8,0.2-3.8,0.6
			c-1,0.4-1.7,1.1-2.1,2c-0.4,0.9-0.7,1.7-0.8,2.4c-0.1,0.7-0.2,1.6-0.3,2.6c-0.1,2.6-0.3,8.7-0.6,18.3c1.3-0.2,3.5-0.5,6.4-0.8
			c1.7-0.2,4.1-0.4,7.2-0.6c0.1,0,0.3,0,0.6,0c0.2,0,0.4,0,0.6,0c0.6,0,1,0,1,0c0.3,0.1,0.5,0.5,0.6,1.1c0.1,0.6,0,1-0.4,1.3
			c-0.3,0.2-0.6,0.3-1,0.3c-0.1,0-0.2-0.1-0.4-0.2c-0.2-0.1-0.3-0.2-0.4-0.2c-1.2-0.4-2.5-0.5-3.9-0.5c-3.6,0.2-7.1,0.8-10.3,1.7
			c-0.1,0.9-0.1,1.9-0.1,2.9c-0.3,12.5-0.4,19.7-0.4,21.6c0.1,0.7,0.1,1.2,0.1,1.6c0.1,0.1,0.1,0.3,0.1,0.5c0,0.2,0,0.3,0,0.5
			c0,0.1,0,0.2,0,0.3c0.3,0,0.9,0,1.7,0.1c2.6,0.2,7.1,0.3,13.3,0.3c4.7,0,8.6-0.1,11.7-0.3c0.9-0.1,1.4-0.1,1.7-0.1l1.7-0.2
			c0.6,0.1,1.1,0.4,1.6,0.9c0.4,0.5,0.5,1,0.1,1.3c-0.4,0.4-1,0.6-1.9,0.6c-0.2,0-0.6,0-0.9-0.1c-0.4-0.1-0.6-0.1-0.7-0.1
			c-1.5-0.1-3.8-0.2-7.1-0.3c-7.7-0.1-13.8,0.1-18.3,0.4c-1,0.1-1.5,0.1-1.7,0.2c-0.7,0.1-1.2,0.1-1.5,0.1c-1.1-0.1-1.6-0.6-1.6-1.4
			c0-0.1,0-0.2,0-0.3c-0.1-0.1-0.2-0.1-0.4-0.2c-0.4-0.2-0.6-0.6-0.6-1.1c0-0.1,0-0.3,0.1-0.6c0.1-0.3,0.1-0.5,0.2-0.6
			c0.1-0.6,0.2-3.7,0.3-9.5c0.2-5,0.3-10.2,0.5-15.6c-0.1,0.1-0.2,0.1-0.3,0.1c-0.7,0-1.1-0.4-1.2-1.1c-0.1-0.8,0.1-1.3,0.7-1.5h0.8
			c0.2-5.9,0.3-9.3,0.4-10.3c0-0.8-0.1-2.7-0.2-5.7c-0.1-3-0.1-5.5,0-7.5c0.1-2,0.5-3.3,1.2-3.7c1.7-1.1,3.9-1.7,6.5-1.9
			c2.6-0.2,5.3-0.1,8.1,0.2c2.8,0.3,4.4,0.4,5,0.4c1.2-0.1,1.9-0.2,1.9-0.2c0.9-0.1,1.5-0.2,1.7-0.1c1.3,0.1,2,0.5,2,1.3
			C1141.3,968.4,1140.6,968.9,1139.3,969z"/>
	</g>
</g>
<g id="temp">
</g>
<g id="hand">
</g>
<g id="Nails">
</g>
<g id="test">
</g>
<g id="Ebene_9">
</g>
</svg>
