<?xml version="1.0" encoding="utf-8"?>
<!-- Generator: Adobe Illustrator 28.0.0, SVG Export Plug-In . SVG Version: 6.00 Build 0)  -->
<svg version="1.1" xmlns="http://www.w3.org/2000/svg" xmlns:xlink="http://www.w3.org/1999/xlink" x="0px" y="0px"
	 viewBox="0 0 1920 1080" style="enable-background:new 0 0 1920 1080;" xml:space="preserve">
<style type="text/css">
	.st0{fill:#FFEBFF;}
	.st1{fill:#FFF0FF;}
	.st2{fill:#333333;}
	.st3{fill:none;}
	.st4{fill:#42210B;}
	.st5{opacity:0.56;}
	.st6{fill:url(#);}
	.st7{opacity:4.000000e-02;}
	.st8{opacity:2.000000e-02;}
	.st9{fill:#FFFAFF;}
	.st10{fill:#E8DAEA;}
	.st11{fill:#FFFFFF;}
	.st12{fill:#FACCFF;}
	.st13{fill:#F297FF;}
	.st14{fill:#F0FAEB;}
	.st15{fill:#D7E4C1;}
	.st16{fill:#F57F80;}
	.st17{fill:#B7294E;}
	.st18{fill:#E56A75;}
	.st19{fill:#D45063;}
	.st20{fill:#E46672;}
	.st21{fill:#45272A;}
	.st22{fill:#F2885A;}
	.st23{fill:#710731;}
	.st24{fill:#E25F4D;}
	.st25{fill:#48282B;}
	.st26{fill:#FDAE7B;}
	.st27{fill:#F8A977;}
	.st28{fill:#F69969;}
	.st29{fill:#FABF96;}
	.st30{fill:#F9B68A;}
	.st31{fill:#F27C58;}
	.st32{fill:#F7A06F;}
	.st33{fill:#F59062;}
	.st34{fill:#D54645;}
	.st35{fill:#F48C5E;}
	.st36{fill:#FEFEFE;}
	.st37{fill:#343341;}
	.st38{fill:#2A2938;}
	.st39{fill:#0A0A0A;}
	.st40{fill:#242332;}
	.st41{fill:#FAC099;}
	.st42{fill:#45272B;}
	.st43{fill:#F48C60;}
	.st44{fill:#ED7655;}
	.st45{fill:#FDAE7C;}
	.st46{fill:#E25C4D;}
	.st47{fill:#F9B78A;}
	.st48{fill:#D54444;}
	.st49{fill:#F9A977;}
	.st50{fill:#FAFAFA;}
	.st51{fill:#F4895B;}
	.st52{fill:#F79885;}
	.st53{fill:none;stroke:#42210B;stroke-width:3;stroke-linecap:round;stroke-miterlimit:10;}
	.st54{fill:none;stroke:#42210B;stroke-width:2;stroke-linecap:round;stroke-miterlimit:10;}
	.st55{fill:#00D023;}
	.st56{opacity:0.44;fill:#B8274E;}
	.st57{opacity:0.31;fill:#F79885;}
	.st58{opacity:0.44;fill:#42210B;}
	.st59{fill:none;stroke:#FFFFFF;stroke-miterlimit:10;}
	.st60{fill:none;stroke:#FF176C;stroke-width:4;stroke-miterlimit:10;}
	.st61{fill:none;stroke:#FF176C;stroke-width:4;stroke-miterlimit:10;stroke-dasharray:12.0245,10.0204;}
	.st62{fill:none;stroke:#42210B;stroke-linecap:round;stroke-miterlimit:10;}
	.st63{opacity:0.43;fill:#FACCFF;stroke:#FFFFFF;stroke-width:3;stroke-miterlimit:10;}
	.st64{fill:#FF176C;}
	.st65{fill:#FCD6CE;}
	.st66{fill:none;stroke:#E8DAEA;stroke-width:2;stroke-miterlimit:10;}
	.st67{fill:#FFFAFF;stroke:#E8DAEA;stroke-miterlimit:10;}
	.st68{fill:#FFFFFF;stroke:#666666;stroke-miterlimit:10;}
	.st69{fill:#FCFCFC;stroke:#808080;stroke-width:0.75;stroke-miterlimit:10;}
	.st70{opacity:0.54;fill:#E6E6E6;stroke:#808080;stroke-miterlimit:10;}
</style>
<g id="BG_Kopie">
</g>
<g id="Face_Kopie">
</g>
<g id="BG">
</g>
<g id="Face">
</g>
<g id="Hair">
</g>
<g id="Text">
	<g>
		<rect class="st0" width="1920" height="1080"/>
	</g>
	<g>
		<rect x="19.3" y="534.7" class="st3" width="1899.6" height="127.3"/>
		<path class="st4" d="M568.5,539.9c0.1-0.1,0.4-0.1,1.1,0c0.7,0.1,8-0.5,21.8-1.8c1.5-0.1,5.5-0.2,11.9-0.3c6.4,0,10.1,0,11.2,0.1
			c0.1,0,0.3,0,0.6,0.1c0.3,0,0.5,0.1,0.7,0.1c0.7,0.1,1,0.1,1.1,0.1c0.4,0.1,0.6,0.6,0.7,1.2c0.1,0.7-0.1,1.2-0.6,1.6
			c-0.4,0.3-0.8,0.4-1.2,0.3c-0.1-0.1-0.2-0.2-0.4-0.3c-0.2-0.1-0.3-0.2-0.4-0.2c-0.6-0.2-3.5-0.5-8.8-0.7c-5.3-0.3-8.5-0.3-9.7-0.3
			c-1,0-2.3,0.1-3.8,0.2c0.2,0.3,0.4,0.7,0.4,1.3c0,0.2-0.1,0.8-0.3,1.9c-0.3,1.8-0.6,6.2-1,13.3c-0.4,7.1-0.5,12.3-0.5,15.6
			c-0.1,1.8-0.1,6.9-0.1,15.5c0,8.5,0,13.7,0.1,15.3c0.1,0.8,0.1,1.4,0.2,1.8l0.2,1.6c-0.1,0.7-0.4,1.2-1.1,1.6
			c-0.7,0.4-1.2,0.4-1.7,0.1c-0.4-0.4-0.7-1-0.7-2c0-0.2,0.1-0.5,0.2-0.9c0.1-0.4,0.2-0.6,0.2-0.8c0.1-0.8,0.2-5.3,0.3-13.5
			c0.1-8.2,0.2-12.4,0.2-12.6c0.7-19.2,1-30.5,0.9-33.9c0-1,0-1.6,0-1.6c-0.1-0.7-0.1-1.2,0-1.4c0.1-0.4,0.1-0.7,0.2-0.9
			c-2,0.1-4.4,0.4-7.1,0.8c-6.4,0.7-10.5,1.2-12.3,1.6c-0.7,0.1-1,0.2-1.1,0.2c-0.4,0.1-0.7,0.2-0.9,0.2c-0.8-0.1-1.2-0.6-1.3-1.5
			C567.3,540.6,567.7,540,568.5,539.9z"/>
		<path class="st4" d="M638.9,539.9v2c0.1,1.9,0.9,7.1,2.6,15.6c1.6,8.5,2.9,14.4,3.8,17.7c0.7,2.5,2.1,7.7,4.4,15.6
			c1.8,5.9,3,10,3.6,12.1c0.1-0.3,0.3-0.6,0.3-0.9c-0.1,0.3,0.1,1,0.6,2c0.5,1,0.6,1.6,0.5,1.8c-0.1,0.1-0.1,0.1-0.2,0.2
			c0.1,0.1,0.1,0.3,0.2,0.5c0.1,0.4-0.2,0.8-0.8,1.2c-0.6,0.4-1.1,0.5-1.5,0.4c-0.5-0.1-0.8-0.4-1-0.9c0-0.1,0-0.3,0.1-0.5
			c0-0.2,0.1-0.4,0.1-0.6c-0.1-0.4-0.6-2.4-1.5-5.8c-0.9-3.4-1.9-7.1-3-11c-1.1-3.9-1.7-6.1-1.9-6.7c-0.1-0.3-0.1-0.6-0.2-0.9
			c-0.2,0-0.4,0-0.7,0c-0.3,0.1-1.1,0-2.5-0.3c-0.9-0.1-1.8-0.3-2.8-0.3c-2.6-0.1-4.5-0.1-5.7-0.1c-0.1,0-0.7,0.1-1.8,0.2
			c-1,0.1-1.6,0.1-1.8,0c-0.5-0.1-0.9-0.4-1.1-0.7c-2.6,11.4-4.3,18.8-5.1,22.3c0.1,0.1,0.1,0.5,0.1,1c-0.1,0.6-0.3,1.2-0.5,2
			c0,0.1,0,0.3-0.1,0.3c0,0.1,0,0.3,0,0.4c0,0.1,0,0.3,0,0.4s0,0.2-0.1,0.3c-0.1,0.4-0.4,0.6-1.1,0.7c-0.7,0.1-1.2,0-1.7-0.4
			c-0.4-0.3-0.5-0.7-0.4-1.1h-0.1l0.5-1c0-0.1,0-0.3,0-0.4c0.1-1.7,0.3-2.6,0.5-2.6c0.1,0,0.3,0,0.3,0c0.2-0.8,0.5-1.8,0.9-3
			c0.9-3.6,1.8-7.4,2.8-11.5c1-4.1,1.6-6.4,1.7-6.9c1-4.2,2.6-11.2,4.8-21.1c2.2-9.9,3.4-16.3,3.8-19.2c0.1-1,0.1-1.6,0.1-1.9
			c0.1-0.9,0.1-1.4,0.2-1.6c0.3-1.2,0.9-1.7,1.9-1.5c1,0.2,1.4,0.9,1.2,2.1c0,0.1,0,0.4-0.1,0.9
			C638.6,538.8,638.8,539.3,638.9,539.9z M636.7,545.2c-0.3,1-0.6,2.2-0.9,3.6c-1.1,4.8-2.3,9.9-3.5,15.3c-1.2,5.4-2,8.8-2.3,10
			c-0.3,1.4-0.6,2.7-1,4c0.2-0.1,0.5-0.1,0.8-0.2c0.4-0.1,1.4,0,3.2,0.2c2.6,0.3,5,0.4,7,0.4c1.1,0,2.1,0,2.9-0.1
			c0.1-0.1,0.3-0.1,0.4-0.2c0.1,0,0.3-0.1,0.3-0.1c0.1,0,0.3,0,0.4,0C642.6,571.5,640.1,560.5,636.7,545.2z"/>
		<path class="st4" d="M670.2,536.9c0,0.2,0,0.9-0.1,2.1c-0.3,2.3-0.5,12.8-0.8,31.5c1-1.2,2.5-3,4.4-5.3c4-4.7,6.2-7.3,6.7-7.9
			c10.3-10.2,16.4-16.4,18.3-18.7c0.4-0.5,0.6-0.8,0.7-1c0.4-0.5,0.6-0.8,0.7-0.9c0.7-0.6,1.4-0.6,2.1,0.1s0.7,1.4,0.2,2.1
			c-0.1,0.1-0.4,0.4-1.1,0.9c-2.2,1.8-7.5,6.9-16,15.5c-1.3,1.3-4,4.4-8,9.1c-3.6,4.3-5.9,7.1-6.8,8.5c0.1,0.2,0.2,0.5,0.3,0.9
			c0.4,1.4,2.3,5.1,5.9,11c3.6,5.9,6.1,9.9,7.5,11.9c2.8,3.4,5.4,6,7.9,7.7c1.4,0.9,2.9,1.5,4.6,1.9c1.6,0.4,3,0.5,4.1,0.4
			c1.1-0.1,1.8-0.3,2.1-0.6c0.1-0.2,0.2-0.5,0.2-1c0-0.1,0-0.3-0.1-0.5c0-0.2-0.1-0.3-0.1-0.4c0-0.4,0.2-0.9,0.7-1.4
			c0.5-0.5,1-0.6,1.6-0.5c0.2,0.1,0.4,0.3,0.7,0.7c0.2,0.4,0.3,0.8,0.3,1.3c0.1,0.4-0.1,1-0.6,1.8c-0.4,0.9-1.7,1.6-4.1,2.3
			c-2.4,0.7-4.8,0.6-7.2-0.1c-2.7-1.1-5.3-3-7.8-5.8c-2.6-3-8.4-11.5-17.4-25.5c-0.2,14.8-0.2,23.9,0,27.4c0.1,1,0.1,1.6,0.1,2
			l0.2,1.9c-0.1,0.7-0.4,1.2-1,1.7c-0.6,0.5-1.2,0.5-1.6,0.1c-0.4-0.4-0.7-1.1-0.7-2.2c0-0.2,0-0.5,0.1-0.9c0.1-0.4,0.1-0.7,0.2-0.8
			c0.1-0.7,0.1-3.2,0.2-7.5c0.1-4.3,0.1-8.8,0.2-13.4c0.1-4.6,0.1-7.2,0.1-7.8c0-0.4,0-0.8,0-1.2c-0.4-0.1-0.7-0.4-0.9-0.8
			c-0.2-0.5-0.1-1.1,0.2-1.6c0.1-0.1,0.2-0.2,0.4-0.4c0.1-0.1,0.3-0.1,0.3-0.2c0.1-3.8,0.1-8.6,0.2-14.3c0.1-8.2,0-14.3-0.1-18.4
			c-0.1-1-0.1-1.6-0.2-1.8c-0.1-0.9-0.1-1.4-0.1-1.6c0.1-1.2,0.7-1.9,1.7-1.8C669.6,535,670.1,535.6,670.2,536.9z"/>
		<path class="st4" d="M748,541.6c-0.3,0-1.2,0-2.8-0.1c-0.6-0.1-2.6-0.1-6,0c-3.4,0.1-6.6,0-9.5-0.1c-1.8,0-3.3,0.3-4.5,0.8
			c-1.2,0.5-2,1.3-2.5,2.4c-0.5,1.1-0.8,2.1-1,2.9c-0.1,0.8-0.3,1.9-0.3,3.1c-0.1,3.1-0.4,10.4-0.7,21.9c1.6-0.2,4.2-0.5,7.7-1
			c2.1-0.3,4.9-0.5,8.6-0.7c0.1,0,0.4,0,0.7,0c0.3,0,0.5,0,0.7,0c0.7,0,1.1,0,1.2,0c0.4,0.1,0.6,0.6,0.7,1.3
			c0.1,0.7-0.1,1.2-0.5,1.6c-0.4,0.3-0.8,0.4-1.2,0.3c-0.1,0-0.2-0.1-0.4-0.2c-0.2-0.1-0.4-0.2-0.4-0.2c-1.4-0.4-2.9-0.6-4.6-0.5
			c-4.3,0.2-8.4,0.9-12.3,2.1c-0.1,1.1-0.1,2.2-0.1,3.4c-0.4,15-0.5,23.6-0.4,25.8c0.1,0.8,0.1,1.4,0.1,1.9c0.1,0.1,0.1,0.3,0.2,0.5
			c0,0.2,0.1,0.4,0.1,0.6c0,0.1,0,0.3,0,0.3c0.4,0,1.1,0,2.1,0.1c3.2,0.3,8.5,0.4,15.9,0.3c5.6,0,10.3-0.1,14-0.3
			c1-0.1,1.7-0.1,2.1-0.1l2-0.2c0.7,0.1,1.4,0.4,1.9,1c0.5,0.6,0.5,1.2,0.1,1.6c-0.4,0.4-1.2,0.7-2.3,0.7c-0.3,0-0.7-0.1-1.1-0.2
			c-0.4-0.1-0.7-0.2-0.9-0.2c-1.8-0.1-4.6-0.3-8.5-0.3c-9.2-0.1-16.5,0.1-21.9,0.4c-1.2,0.1-1.8,0.1-2,0.2c-0.9,0.1-1.5,0.1-1.8,0.1
			c-1.3-0.1-1.9-0.7-1.9-1.6c0-0.1,0-0.3,0-0.3c-0.1-0.1-0.3-0.1-0.4-0.2c-0.4-0.2-0.7-0.7-0.7-1.3c0-0.1,0-0.4,0.1-0.7
			c0.1-0.3,0.1-0.6,0.2-0.7c0.1-0.7,0.2-4.4,0.3-11.3c0.2-6,0.4-12.2,0.5-18.7c-0.1,0.1-0.3,0.1-0.3,0.1c-0.8,0-1.3-0.5-1.4-1.4
			c-0.1-0.9,0.1-1.5,0.9-1.8h1c0.2-7,0.4-11.1,0.4-12.3c0-1-0.1-3.2-0.2-6.8c-0.1-3.6-0.1-6.5,0-9c0.1-2.4,0.6-3.9,1.4-4.4
			c2.1-1.3,4.7-2.1,7.8-2.3c3.2-0.2,6.4-0.1,9.7,0.2c3.3,0.4,5.3,0.5,5.9,0.4c1.5-0.1,2.2-0.2,2.3-0.2c1.1-0.1,1.8-0.2,2.1-0.1
			c1.6,0.1,2.4,0.6,2.4,1.5C750.3,540.9,749.6,541.5,748,541.6z"/>
		<path class="st4" d="M811.2,539.5c0,0.6-0.1,2.1-0.3,4.5c-1.1,11.9-1.6,22.7-1.5,32.3c0.1,9.2,1.2,16.1,3.4,20.9
			c1.2,2.6,2.9,4.7,4.8,6.2c2,1.5,3.9,2.4,5.6,2.7c1.8,0.2,4.1-0.2,6.9-1.2c2.8-1,5.2-2.7,7.2-5.1c4-4.8,6.4-12.3,7.3-22.7
			c0.9-10.1,0.9-21.3,0-33.5c-0.1-1.8-0.3-3.2-0.3-4.2l-0.3-3.4c0-1.8,0.5-2.9,1.5-3.4c0.4-0.2,0.8-0.1,1,0.2
			c0.4,0.5,0.7,1.8,0.8,3.7c0,0.4,0,1-0.1,1.8c0,0.8-0.1,1.4-0.1,1.8c0,0.1,0.1,1.9,0.3,5.6c0.2,3.6,0.3,7.2,0.3,10.8
			c0,3.6-0.1,8.3-0.4,14.2c-0.6,7.5-2.2,14.6-4.8,21.3c-2.6,6.7-4.8,10.8-6.4,12.1c-0.8,0.7-1.9,1.3-3.1,1.9
			c-1.3,0.6-2.8,1.1-4.5,1.6c-1.7,0.5-3.5,0.6-5.6,0.4c-2-0.2-3.9-0.9-5.8-2c-3-1.8-5.3-4.8-6.8-9.2c-1.5-4.4-2.4-9.2-2.8-14.4
			c-0.2-6.7-0.3-11.5-0.3-14.6c0-3,0.1-7.2,0.3-12.5c0.2-5.3,0.4-8.2,0.4-8.7c0-1.9,0-3.2,0-4c-0.1-1.9-0.1-3.1,0-3.5
			c0.1-1.5,0.4-2.5,0.9-3.1c0.5-0.6,1-0.6,1.5,0.1C810.8,536.8,811.1,537.9,811.2,539.5z"/>
		<path class="st4" d="M884.5,548.7c-0.3-1.2-0.9-2.5-1.8-4.1c-0.8-1.3-2-2.8-3.7-4.4c-1.7-1.6-3.6-3-5.9-4.2
			c-1.4-0.7-2.9-1.1-4.5-1.2c-1.6,0-3.1,0.3-4.4,1c-1.2,0.7-2.3,1.8-3.3,3.3c-1,1.5-1.5,3.2-1.6,5.1c-0.3,3.2,0.2,6.2,1.6,9
			c1.4,2.9,3.2,5.3,5.6,7.4c1.2,1.1,2.5,2.1,3.7,3c1.2,0.9,2.7,1.9,4.2,2.9c1.6,1,2.4,1.6,2.6,1.6c0.1,0.1,0.6,0.4,1.4,0.9
			c0.8,0.5,1.4,1,2,1.4c0.6,0.4,1.3,0.9,2.2,1.6c0.9,0.7,1.8,1.4,2.7,2.2c0.9,0.8,1.8,1.6,2.6,2.5c2.4,2.6,4.3,5.7,5.7,9.5
			c1.4,3.8,1.8,7.6,1.3,11.6c-0.3,2.1-1.4,4.1-3.2,5.9c-1.8,1.8-3.9,3-6.1,3.6c-2.1,0.6-4.3,0.7-6.4,0.3c-2.2-0.4-4.1-1.2-5.7-2.3
			c-2.8-2-4.9-4.2-6.4-6.7c-1.5-2.5-2.3-4.6-2.5-6.3c-0.1-1.4,0.1-2.9,0.7-4.6c0.8-2.1,1.7-3.5,2.5-4.1c1.1-0.7,1.9-1.1,2.5-1
			c0.6,0.1,1,0.3,1.2,0.8l0.2,0.7l-2.1,2.4c-1,1.2-1.7,2.1-2,2.9c-0.1,0.5-0.1,1.2-0.2,2c-0.1,0.8,0.1,2,0.5,3.6s1.1,3,2.1,4.4
			c1.5,2.3,4,4.1,7.5,5.3c4.2,1.5,7.4,1.3,9.8-0.4c2.4-1.8,4.1-4.2,4.9-7.3c0.8-3.1,0.9-6,0.2-8.9c-1-3.5-2.6-6.5-5.1-8.9
			c-1.1-1.2-3.3-2.9-6.5-5.3c-3.3-2.3-6.8-5.1-10.7-8.2c-3.8-3.1-7.2-6.2-10.1-9.2c-1.5-1.5-2.4-3.6-2.9-6.2
			c-0.5-2.6-0.4-5.1,0.2-7.5c0.7-2.9,2-5.4,3.8-7.4c1.8-2,3.7-3,5.7-3c5.7,0,11.1,2.6,16.3,7.8c0.8,0.8,1.7,2.1,2.8,3.7
			c1,1.7,1.6,2.9,1.6,3.6c0.3,1.7,0.3,2.9-0.1,3.6c-0.4,0.7-0.9,0.8-1.5,0.2C885.4,551.1,884.9,550.1,884.5,548.7z"/>
		<path class="st4" d="M970,548.7c-0.3-1.2-0.9-2.5-1.8-4.1c-0.8-1.3-2-2.8-3.7-4.4c-1.7-1.6-3.6-3-5.9-4.2
			c-1.4-0.7-2.9-1.1-4.5-1.2c-1.6,0-3.1,0.3-4.4,1c-1.2,0.7-2.3,1.8-3.3,3.3c-1,1.5-1.5,3.2-1.6,5.1c-0.3,3.2,0.2,6.2,1.6,9
			c1.4,2.9,3.2,5.3,5.6,7.4c1.2,1.1,2.5,2.1,3.7,3c1.2,0.9,2.7,1.9,4.2,2.9c1.6,1,2.4,1.6,2.6,1.6c0.1,0.1,0.6,0.4,1.4,0.9
			c0.8,0.5,1.4,1,2,1.4c0.6,0.4,1.3,0.9,2.2,1.6c0.9,0.7,1.8,1.4,2.7,2.2c0.9,0.8,1.8,1.6,2.6,2.5c2.4,2.6,4.3,5.7,5.7,9.5
			c1.4,3.8,1.8,7.6,1.3,11.6c-0.3,2.1-1.4,4.1-3.2,5.9c-1.8,1.8-3.9,3-6.1,3.6c-2.1,0.6-4.3,0.7-6.4,0.3c-2.2-0.4-4.1-1.2-5.7-2.3
			c-2.8-2-4.9-4.2-6.4-6.7c-1.5-2.5-2.3-4.6-2.5-6.3c-0.1-1.4,0.1-2.9,0.7-4.6c0.8-2.1,1.7-3.5,2.5-4.1c1.1-0.7,1.9-1.1,2.5-1
			c0.6,0.1,1,0.3,1.2,0.8l0.2,0.7l-2.1,2.4c-1,1.2-1.7,2.1-2,2.9c-0.1,0.5-0.1,1.2-0.2,2c-0.1,0.8,0.1,2,0.5,3.6s1.1,3,2.1,4.4
			c1.5,2.3,4,4.1,7.5,5.3c4.2,1.5,7.4,1.3,9.8-0.4c2.4-1.8,4.1-4.2,4.9-7.3c0.8-3.1,0.9-6,0.2-8.9c-1-3.5-2.6-6.5-5.1-8.9
			c-1.1-1.2-3.3-2.9-6.5-5.3c-3.3-2.3-6.8-5.1-10.7-8.2c-3.8-3.1-7.2-6.2-10.1-9.2c-1.5-1.5-2.4-3.6-2.9-6.2
			c-0.5-2.6-0.4-5.1,0.2-7.5c0.7-2.9,2-5.4,3.8-7.4c1.8-2,3.7-3,5.7-3c5.7,0,11.1,2.6,16.3,7.8c0.8,0.8,1.7,2.1,2.8,3.7
			c1,1.7,1.6,2.9,1.6,3.6c0.3,1.7,0.3,2.9-0.1,3.6c-0.4,0.7-0.9,0.8-1.5,0.2C970.8,551.1,970.3,550.1,970,548.7z"/>
		<path class="st4" d="M1022,541.6c-0.3,0-1.2,0-2.8-0.1c-0.6-0.1-2.6-0.1-6,0c-3.4,0.1-6.6,0-9.5-0.1c-1.8,0-3.3,0.3-4.5,0.8
			c-1.2,0.5-2,1.3-2.5,2.4c-0.5,1.1-0.8,2.1-1,2.9c-0.1,0.8-0.3,1.9-0.3,3.1c-0.1,3.1-0.4,10.4-0.7,21.9c1.6-0.2,4.2-0.5,7.7-1
			c2.1-0.3,4.9-0.5,8.6-0.7c0.1,0,0.4,0,0.7,0c0.3,0,0.5,0,0.7,0c0.7,0,1.1,0,1.2,0c0.4,0.1,0.6,0.6,0.7,1.3
			c0.1,0.7-0.1,1.2-0.5,1.6c-0.4,0.3-0.8,0.4-1.2,0.3c-0.1,0-0.2-0.1-0.4-0.2c-0.2-0.1-0.4-0.2-0.4-0.2c-1.4-0.4-2.9-0.6-4.6-0.5
			c-4.3,0.2-8.4,0.9-12.3,2.1c-0.1,1.1-0.1,2.2-0.1,3.4c-0.4,15-0.5,23.6-0.4,25.8c0.1,0.8,0.1,1.4,0.1,1.9c0.1,0.1,0.1,0.3,0.2,0.5
			c0,0.2,0.1,0.4,0.1,0.6c0,0.1,0,0.3,0,0.3c0.4,0,1.1,0,2.1,0.1c3.2,0.3,8.5,0.4,15.9,0.3c5.6,0,10.3-0.1,14-0.3
			c1-0.1,1.7-0.1,2.1-0.1l2-0.2c0.7,0.1,1.4,0.4,1.9,1c0.5,0.6,0.5,1.2,0.1,1.6c-0.4,0.4-1.2,0.7-2.3,0.7c-0.3,0-0.7-0.1-1.1-0.2
			c-0.4-0.1-0.7-0.2-0.9-0.2c-1.8-0.1-4.6-0.3-8.5-0.3c-9.2-0.1-16.5,0.1-21.9,0.4c-1.2,0.1-1.8,0.1-2,0.2c-0.9,0.1-1.5,0.1-1.8,0.1
			c-1.3-0.1-1.9-0.7-1.9-1.6c0-0.1,0-0.3,0-0.3c-0.1-0.1-0.3-0.1-0.4-0.2c-0.4-0.2-0.7-0.7-0.7-1.3c0-0.1,0-0.4,0.1-0.7
			c0.1-0.3,0.1-0.6,0.2-0.7c0.1-0.7,0.2-4.4,0.3-11.3c0.2-6,0.4-12.2,0.5-18.7c-0.1,0.1-0.3,0.1-0.3,0.1c-0.8,0-1.3-0.5-1.4-1.4
			c-0.1-0.9,0.1-1.5,0.9-1.8h1c0.2-7,0.4-11.1,0.4-12.3c0-1-0.1-3.2-0.2-6.8c-0.1-3.6-0.1-6.5,0-9c0.1-2.4,0.6-3.9,1.4-4.4
			c2.1-1.3,4.7-2.1,7.8-2.3c3.2-0.2,6.4-0.1,9.7,0.2c3.3,0.4,5.3,0.5,5.9,0.4c1.5-0.1,2.2-0.2,2.3-0.2c1.1-0.1,1.8-0.2,2.1-0.1
			c1.6,0.1,2.4,0.6,2.4,1.5C1024.3,540.9,1023.6,541.5,1022,541.6z"/>
		<path class="st4" d="M1047.3,538.6c0.1,0.3,0.1,1,0,2.1c-0.1,1.1-0.1,3.9-0.1,8.2c0.4-0.4,1-1,1.8-1.5c4.1-3.6,7.9-6.1,11.4-7.6
			c4.2-1.7,7.8-1.9,11-0.7c1.8,0.7,3.2,1.7,4.3,3c1.1,1.4,1.8,2.6,2,3.7c0.4,1.6-0.3,4.5-2.1,8.5c-1.8,4.1-4.7,7.9-8.7,11.4
			c-1.4,1.2-3,2.3-4.7,3.2c-1.8,1-3.3,1.7-4.6,2.2c-1.3,0.5-2.6,1-3.9,1.4c-1.3,0.5-2.1,0.8-2.3,0.8c-0.8,0.4-1.5,0.7-2.1,1
			c0.1,0.1,0.2,0.2,0.3,0.3c0.1,0.1,0.3,0.7,0.8,1.5c1,2.1,2.9,6.1,5.7,12c2.8,5.9,4.5,9.9,5.3,12c0.6,1.5,1.6,3.3,3.2,5.4
			s2.8,3,3.7,2.6c1.1-0.4,2.1-1.2,2.9-2.3c0.8-1.1,1.5-2.3,1.9-3.6c0.4-1.3,0.7-2.4,0.8-3.2c0.1-0.8,0.3-1.6,0.3-2.3
			c0.1-0.6,0.1-1.1,0-1.7c0-0.1,0-0.3,0-0.5s0-0.4-0.1-0.5c0-0.1-0.1-0.2-0.1-0.4c0.1-0.5,0.4-1,1.1-1.4c0.7-0.4,1.2-0.4,1.7-0.1
			c0.4,0.4,0.6,1,0.5,1.9c0,0.2-0.1,0.5-0.2,0.9c-0.1,0.4-0.2,0.6-0.2,0.7c0,0.1-0.1,0.4-0.2,0.9c-0.1,0.5-0.2,1.1-0.4,1.7
			c-0.1,0.6-0.3,1.3-0.5,2c-0.2,0.8-0.5,1.6-0.9,2.5c-0.4,0.9-0.8,1.8-1.2,2.6c-0.8,1.5-1.9,2.7-3.2,3.7c-1.4,1-2.5,1.4-3.6,1.2
			c-2.1-0.4-3.6-1.6-4.6-3.6c-0.7-1.3-2-4.2-4-8.6c-2-4.4-3.9-8.5-5.7-12.2c-1.8-3.7-3.2-6.2-4.1-7.4c-0.4-0.6-0.7-1-0.9-1.2
			c-0.3-0.3-0.5-0.5-0.7-0.7c-0.3,16.5-0.4,25.6-0.3,27.2c0.1,0.9,0.1,1.5,0.1,1.9l0.2,1.8c-0.1,0.7-0.4,1.2-1,1.6
			c-0.6,0.4-1.2,0.5-1.6,0.1c-0.4-0.4-0.7-1.1-0.7-2.1c0-0.2,0-0.5,0.1-0.9c0.1-0.4,0.1-0.7,0.2-0.8c0.1-0.7,0.2-3.1,0.3-7.3
			c0.1-4.2,0.2-8.5,0.4-13c0.1-4.5,0.2-7,0.2-7.5c0-0.7,0-1.5,0.1-2.5c-0.5-0.4-0.7-0.8-0.5-1.2c0.1-0.3,0.3-0.6,0.5-0.9
			c0.1-3.2,0.1-7.7,0-13.4c0-9.1-0.2-15-0.5-17.7c-0.1-0.9-0.1-1.5-0.2-1.8c-0.1-0.8-0.2-1.3-0.2-1.5c0.1-1.2,0.6-1.8,1.5-1.8
			C1046.6,536.9,1047.1,537.5,1047.3,538.6z M1047.2,553.6c0,0.7,0,1.4,0,2.1c0,8.4,0,13.7,0,15.7c0,0.2,0,0.4,0,0.7
			c0.1-0.1,0.3-0.1,0.5-0.1c0.4-0.1,0.7-0.2,0.9-0.2c0.1-0.1,0.5-0.2,1.2-0.4c0.7-0.2,1.4-0.4,2.1-0.6c0.7-0.2,1.6-0.5,2.7-0.9
			c1.1-0.4,2.1-0.8,3.1-1.2c1-0.4,2.1-0.9,3.2-1.6c1.2-0.7,2.2-1.3,3.2-2c2.3-1.7,4.3-3.6,6.1-5.7c1.8-2.1,3-3.8,3.7-5
			c0.7-1.2,1.2-2.1,1.4-2.8c0.9-2.9,0.7-5.4-0.6-7.4c-0.7-1.2-2-2.2-3.7-2.9c-1.7-0.7-3.5-0.9-5.3-0.6c-4.6,0.7-9.1,3.2-13.5,7.4
			c-0.7,0.7-1.3,1.4-2,2.1c-1,1.3-1.6,2.1-1.7,2.2C1048.2,552.9,1047.7,553.4,1047.2,553.6z"/>
		<path class="st4" d="M1084.6,538.4c0.1-0.1,0.6-0.1,1.4,0c1.2,0,3.9-0.1,7.8-0.4c0.3-0.4,0.8-0.6,1.4-0.5c0.3,0.1,0.5,0.2,0.7,0.3
			c4.5-0.4,7.3-0.6,8.5-0.8c0.8-0.1,1.2-0.2,1.3-0.2l1.2-0.2c0.5,0.1,0.9,0.4,1.3,1c0.3,0.6,0.3,1.2,0.1,1.6
			c-0.4,0.4-0.8,0.7-1.4,0.7c-0.1,0-0.4,0-0.7-0.1c-0.3-0.1-0.5-0.1-0.5-0.1c-1.3-0.2-3-0.3-5.2-0.2c-1.3,0.1-2.6,0.2-3.8,0.3
			c-0.1,0.3-0.2,0.8-0.3,1.5c-0.4,1.7-0.9,6.3-1.3,13.8c-0.4,7.5-0.7,12.7-0.7,15.7c0,2.4,0.1,7.9,0.3,16.4
			c0.2,8.5,0.3,13.6,0.5,15.4c0.1,0.9,0.1,1.5,0.2,1.8l0.2,1.6c0,0.1,0,0.3-0.1,0.4c0.4-0.1,0.7-0.1,1.1-0.1
			c3.6-0.2,6.3-0.4,8.1-0.7c0.7-0.1,1.1-0.1,1.3-0.1l1.1-0.2c0.4,0.1,0.8,0.4,1.2,1c0.3,0.6,0.3,1.2,0.1,1.6
			c-0.3,0.4-0.8,0.7-1.4,0.7c-0.1,0-0.3,0-0.6-0.1c-0.3-0.1-0.4-0.1-0.5-0.2c-1.2-0.1-2.8-0.2-5-0.1c-5.1,0.1-9.4,0.4-12.8,1
			c-0.7,0.1-1,0.2-1.1,0.2c-0.5,0.1-0.9,0.2-1.1,0.2c-0.9-0.1-1.3-0.6-1.3-1.5c0-1,0.4-1.5,1.2-1.7c0.1-0.1,0.6-0.1,1.3,0
			c1.1,0.1,2.8,0.2,5.2,0.1c-0.1-0.3-0.1-0.6-0.1-0.9c0-0.1,0.1-0.4,0.2-0.8c0.1-0.4,0.2-0.7,0.2-0.8c0.1-1.5,0.1-3.9,0.1-7.3
			c0-3.4-0.1-7.4-0.1-11.9c0-4.5-0.1-7.1-0.1-7.7c0.1-2.2,0.3-8.1,0.5-17.8c0.3-9.7,0.4-15.4,0.4-17.2c0-0.1,0-0.3,0.1-0.7
			c0-0.4,0.1-0.7,0.1-0.9c0-0.1,0-0.3,0-0.3c-2.3,0.2-4.4,0.5-6.3,1c-0.7,0.1-1,0.3-1.1,0.3c-0.6,0.1-1,0.2-1.1,0.2
			c-0.9,0-1.4-0.5-1.5-1.4C1083.3,539.2,1083.7,538.6,1084.6,538.4z"/>
		<path class="st4" d="M1151.5,549.9c0.1-0.1,0.2-0.3,0.3-0.3c0.4-0.3,0.8-0.2,1,0.2c0.4,0.8,0.7,2.7,0.7,5.6c0,0.7-0.1,1.5-0.2,2.6
			c-0.1,1.1-0.2,1.8-0.2,2.1c0,0.1,0,0.8-0.1,1.9c0,1.1-0.1,2.2-0.2,3.3c-0.1,1.1-0.2,2.5-0.4,4.2c-0.2,1.8-0.4,3.5-0.6,5.2
			c-0.2,1.7-0.5,3.6-0.9,5.7c-0.4,2.1-0.9,4.2-1.4,6.2c-1.2,4.9-3.2,9.7-5.9,14.5c-2.7,4.7-5.9,8.3-9.6,10.8
			c-1.2,0.9-2.6,1.2-4.1,0.8c-1.5-0.3-2.8-0.9-4-1.8c-1.2-0.8-2.2-1.8-2.9-2.8c-1.2-1.6-2.2-3.4-2.9-5.3c-1.6-4.5-3-10.7-4.3-18.4
			c-1.2-7.7-1.8-15.5-1.5-23.5c0.1-5,1.1-9.8,3-14.4c1.5-3.4,3.2-6.4,5.2-8.7c2-2.4,4.1-3.9,6.3-4.5c2.6-0.7,5.2-0.7,8,0.2
			s5.2,2.2,7.2,4c2.3,2,4.4,4.8,6,8.4C1150.5,547,1151,548.3,1151.5,549.9z M1148.9,553.9c0.1-1.5-0.1-2.9-0.5-4.4
			c-0.5-1.9-1.6-4.2-3.4-6.8c-1.8-2.6-4.1-4.8-6.9-6.5c-1.6-1-3.5-1.4-5.6-1.3c-2.1,0.1-4.1,0.7-5.9,1.8c-1.5,0.9-3,2.2-4.3,3.9
			c-1.3,1.7-2.2,3.6-2.6,5.7c-1.5,6.4-2.4,12.3-2.9,17.8c-0.5,5.5-0.6,9.3-0.5,11.5c0.1,2.2,0.4,4.7,0.9,7.6c0.6,4,1.5,8.2,2.8,12.9
			c1.3,4.6,3,8.4,5.1,11.3c1.5,2.2,3.3,3.4,5.3,3.5c2.2,0.1,4.1-1,5.8-3.2c6.2-7.9,10.2-16.1,12-24.5c1.3-5.7,2.1-12,2.2-18.8
			c0.1-1.8,0.1-3.5,0.1-5.2c0-0.3,0-0.7,0-1.2C1149.4,557.8,1148.9,556.5,1148.9,553.9z"/>
		<path class="st4" d="M1168.1,539.5c0,0.6-0.1,2.1-0.3,4.5c-1.1,11.9-1.6,22.7-1.5,32.3c0.1,9.2,1.2,16.1,3.4,20.9
			c1.2,2.6,2.9,4.7,4.8,6.2c2,1.5,3.9,2.4,5.6,2.7c1.8,0.2,4.1-0.2,6.9-1.2c2.8-1,5.2-2.7,7.2-5.1c4-4.8,6.4-12.3,7.3-22.7
			c0.9-10.1,0.9-21.3,0-33.5c-0.1-1.8-0.3-3.2-0.3-4.2l-0.3-3.4c0-1.8,0.5-2.9,1.5-3.4c0.4-0.2,0.8-0.1,1,0.2
			c0.4,0.5,0.7,1.8,0.8,3.7c0,0.4,0,1-0.1,1.8c0,0.8-0.1,1.4-0.1,1.8c0,0.1,0.1,1.9,0.3,5.6c0.2,3.6,0.3,7.2,0.3,10.8
			c0,3.6-0.1,8.3-0.4,14.2c-0.6,7.5-2.2,14.6-4.8,21.3c-2.6,6.7-4.8,10.8-6.4,12.1c-0.8,0.7-1.9,1.3-3.1,1.9
			c-1.3,0.6-2.8,1.1-4.5,1.6c-1.7,0.5-3.5,0.6-5.6,0.4c-2-0.2-3.9-0.9-5.8-2c-3-1.8-5.3-4.8-6.8-9.2c-1.5-4.4-2.4-9.2-2.8-14.4
			c-0.2-6.7-0.3-11.5-0.3-14.6c0-3,0.1-7.2,0.3-12.5c0.2-5.3,0.4-8.2,0.4-8.7c0-1.9,0-3.2,0-4c-0.1-1.9-0.1-3.1,0-3.5
			c0.1-1.5,0.4-2.5,0.9-3.1c0.5-0.6,1-0.6,1.5,0.1C1167.7,536.8,1168,537.9,1168.1,539.5z"/>
		<path class="st4" d="M1241.4,548.7c-0.3-1.2-0.9-2.5-1.8-4.1c-0.8-1.3-2-2.8-3.7-4.4c-1.7-1.6-3.6-3-5.9-4.2
			c-1.4-0.7-2.9-1.1-4.5-1.2c-1.6,0-3.1,0.3-4.4,1c-1.2,0.7-2.3,1.8-3.3,3.3c-1,1.5-1.5,3.2-1.6,5.1c-0.3,3.2,0.2,6.2,1.6,9
			c1.4,2.9,3.2,5.3,5.6,7.4c1.2,1.1,2.5,2.1,3.7,3c1.2,0.9,2.7,1.9,4.2,2.9c1.6,1,2.4,1.6,2.6,1.6c0.1,0.1,0.6,0.4,1.4,0.9
			c0.8,0.5,1.4,1,2,1.4c0.6,0.4,1.3,0.9,2.2,1.6c0.9,0.7,1.8,1.4,2.7,2.2c0.9,0.8,1.8,1.6,2.6,2.5c2.4,2.6,4.3,5.7,5.7,9.5
			c1.4,3.8,1.8,7.6,1.3,11.6c-0.3,2.1-1.4,4.1-3.2,5.9c-1.8,1.8-3.9,3-6.1,3.6c-2.1,0.6-4.3,0.7-6.4,0.3c-2.2-0.4-4.1-1.2-5.7-2.3
			c-2.8-2-4.9-4.2-6.4-6.7c-1.5-2.5-2.3-4.6-2.5-6.3c-0.1-1.4,0.1-2.9,0.7-4.6c0.8-2.1,1.7-3.5,2.5-4.1c1.1-0.7,1.9-1.1,2.5-1
			c0.6,0.1,1,0.3,1.2,0.8l0.2,0.7l-2.1,2.4c-1,1.2-1.7,2.1-2,2.9c-0.1,0.5-0.1,1.2-0.2,2c-0.1,0.8,0.1,2,0.5,3.6s1.1,3,2.1,4.4
			c1.5,2.3,4,4.1,7.5,5.3c4.2,1.5,7.4,1.3,9.8-0.4c2.4-1.8,4.1-4.2,4.9-7.3c0.8-3.1,0.9-6,0.2-8.9c-1-3.5-2.6-6.5-5.1-8.9
			c-1.1-1.2-3.3-2.9-6.5-5.3c-3.3-2.3-6.8-5.1-10.7-8.2c-3.8-3.1-7.2-6.2-10.1-9.2c-1.5-1.5-2.4-3.6-2.9-6.2
			c-0.5-2.6-0.4-5.1,0.2-7.5c0.7-2.9,2-5.4,3.8-7.4c1.8-2,3.7-3,5.7-3c5.7,0,11.1,2.6,16.3,7.8c0.8,0.8,1.7,2.1,2.8,3.7
			c1,1.7,1.6,2.9,1.6,3.6c0.3,1.7,0.3,2.9-0.1,3.6c-0.4,0.7-0.9,0.8-1.5,0.2C1242.3,551.1,1241.8,550.1,1241.4,548.7z"/>
		<path class="st4" d="M1268.2,539.1c0,0.3,0,1-0.1,2.1c-0.1,1.1-0.4,6-0.9,14.8c-0.5,8.8-0.9,14.1-1,15.9
			c-0.4,3.6-0.9,9.5-1.5,17.7c-0.7,8.2-1,13.2-1,14.8c0.1,0.8,0.1,1.5,0.1,2c0,0.1,0,0.3,0,0.6c0.1,0.2,0.1,0.4,0.1,0.7
			c0.4-0.1,1-0.1,1.8,0c2.2,0.1,6.9,0.1,14.1-0.1c5.6-0.2,9.7-0.4,12.1-0.5c1-0.1,1.6-0.1,1.9-0.2l1.8-0.2c0.7,0.1,1.2,0.4,1.7,1.1
			c0.4,0.7,0.4,1.2,0,1.7c-0.4,0.4-1,0.7-2,0.7c-0.2,0-0.5-0.1-0.9-0.2c-0.4-0.1-0.7-0.2-0.8-0.2c-1.7-0.1-4.1-0.2-7.4-0.2
			c-7.6,0-14,0.3-19,1c-0.9,0.1-1.4,0.1-1.6,0.2c-0.8,0.1-1.3,0.2-1.5,0.2c-0.7-0.1-1.2-0.3-1.5-0.7c-0.4,0.1-0.7,0-1-0.3
			c-0.4-0.4-0.6-1.1-0.5-2.1c0-0.2,0-0.5,0.1-0.9c0.1-0.4,0.1-0.7,0.2-0.8c0.1-0.8,0.5-5.4,1.2-13.9c0.7-8.5,1.1-13.1,1.2-13.9
			c0.5-3.8,1-10,1.5-18.7c0.5-8.7,0.7-14.3,0.4-17.1c-0.1-0.7-0.1-1.3-0.2-1.6c-0.1-0.8-0.2-1.3-0.2-1.5c0.1-1.2,0.6-1.9,1.5-1.9
			C1267.4,537.2,1268,537.8,1268.2,539.1z"/>
		<path class="st4" d="M1295.5,533.3l0.2,0.8c0.2,1,1.7,4,4.5,9.1c2.8,5.1,5,9,6.6,11.7c1.2,2.1,3.7,5.9,7.4,11.7
			c3.7,5.7,5.8,8.9,6.4,9.7c0.4-1.2,0.6-2,0.7-2.2c7.6-20.5,11.7-32,12.4-34.8c0.3-0.9,0.4-1.4,0.4-1.6c0.1-0.9,0.3-1.4,0.4-1.6
			c0.5-1.1,1.2-1.5,2.1-1.2c0.9,0.3,1.2,1.1,0.9,2.4c-0.1,0.2-0.3,0.8-0.8,1.9c-2.1,4.3-5.9,14.2-11.4,29.5c-0.6,1.7-2,6.7-4.2,15
			c-2.2,8.3-3.7,14.2-4.6,17.8c0,0.1,0,0.3-0.1,0.5c-0.1,0.2-0.2,0.4-0.3,0.7c-0.1,0.3-0.2,0.5-0.2,0.7c-0.3,1-0.5,1.6-0.7,1.8
			c-0.4,0.6-0.9,0.9-1.7,0.9c-0.8,0-1.2-0.2-1.4-0.8c-0.1-0.5,0-1.1,0.3-1.9c0.1-0.2,0.2-0.5,0.4-0.7c0.2-0.3,0.4-0.5,0.4-0.7
			c0.4-0.7,1.8-5.4,4.1-13.9c1-3.6,1.7-6.5,2.3-8.6c-0.3,0-0.5-0.1-0.7-0.2c-0.1-0.1-0.1-0.2-0.2-0.4c0-0.2-0.1-0.3-0.1-0.4
			c-0.1-0.3-1.9-3.1-5.3-8.4c-3.4-5.3-5.2-8.2-5.6-8.9c-9-15.8-13.9-24.2-14.6-25.2c-0.3-0.4-0.5-0.7-0.5-0.7
			c-0.2-0.3-0.4-0.5-0.4-0.5c-0.1-0.6,0.3-1.1,1.2-1.4C1294.5,532.8,1295.1,532.8,1295.5,533.3z"/>
		<path class="st4" d="M1376.1,599c0.2-0.5,0.6-1,1.1-1.3c0.7-0.5,1.2-0.5,1.6-0.1c0.4,0.5,0.6,1.4,0.4,2.5c-0.1,0.4-0.3,1-0.8,2
			c0,0.1-0.1,0.3-0.3,0.8c-0.2,0.4-0.4,0.7-0.4,0.9c-0.1,0.1-0.2,0.4-0.4,0.8c-0.2,0.4-0.3,0.7-0.5,0.9c-0.1,0.2-0.3,0.5-0.5,0.8
			c-0.2,0.4-0.4,0.7-0.6,0.9c-0.2,0.2-0.4,0.5-0.7,0.8c-0.3,0.3-0.5,0.6-0.8,0.8c-0.3,0.2-0.6,0.4-1,0.6c-1.7,1-3.3,1-4.8-0.2
			c-1.5-1.2-2.3-2.8-2.3-4.8c0.1-1.8,0.6-3.5,1.5-5c1-1.5,2.2-2.5,3.6-3c0.4-0.1,1.2,0,2.3,0.6c1,0.5,1.6,1,2,1.5
			C1375.8,598.6,1376,598.8,1376.1,599z M1373.2,600.4c-0.6-0.7-1.1-1.1-1.4-1.3c-0.5-0.2-1.1-0.1-1.7,0.4c-0.6,0.5-1.1,1.3-1.5,2.4
			c-0.9,2.7-0.8,4.7,0.1,5.9c0.5,0.7,1.5,0.4,3.1-0.8c1.5-1.2,2.8-2.6,3.6-4.3c0.1-0.1,0.3-0.4,0.3-0.7c-0.1,0-0.1,0-0.2,0
			C1374.8,601.9,1374,601.3,1373.2,600.4z M1371.8,583.7c0-0.1,0-0.6,0.1-1.4c0.2-1.2,0.6-8.5,1.1-22.1c0.6-12.6,0.8-20.5,0.6-23.5
			c-0.1-0.6-0.1-1.1-0.2-1.4l-0.1-1.2c0.1-0.5,0.4-0.9,1-1.3c0.6-0.3,1.2-0.3,1.6-0.1c0.4,0.4,0.7,0.9,0.7,1.5
			c0,0.2-0.1,0.5-0.2,0.7c-0.1,0.3-0.2,0.5-0.2,0.6c-0.1,0.7-0.2,4.1-0.5,10.4c-0.3,6.3-0.4,9.5-0.4,9.6c-0.2,2.9-0.4,7.5-0.6,13.7
			c-0.2,6.2-0.2,10.2,0.1,12.2c0,0.7,0,1.2,0.1,1.3c0.1,0.6,0.1,1,0.1,1.1c-0.1,1-0.7,1.4-1.7,1.4
			C1372.4,585.2,1371.9,584.7,1371.8,583.7z"/>
	</g>
	<g>
		<rect x="146" y="858.2" class="st3" width="1646.2" height="110.3"/>
		<path class="st4" d="M185.1,862.9v1.8c0.1,1.7,0.9,6.5,2.4,14.1c1.5,7.7,2.6,13.1,3.4,16.1c0.6,2.3,1.9,7,4,14.2
			c1.6,5.4,2.7,9.1,3.3,11c0.1-0.3,0.2-0.5,0.3-0.8c-0.1,0.3,0.1,0.9,0.5,1.8c0.4,0.9,0.6,1.5,0.5,1.6c-0.1,0.1-0.1,0.1-0.2,0.2
			c0.1,0.1,0.1,0.3,0.2,0.5c0.1,0.3-0.2,0.7-0.7,1c-0.5,0.4-1,0.5-1.4,0.4c-0.5-0.1-0.8-0.4-0.9-0.8c0-0.1,0-0.3,0-0.5
			c0-0.2,0-0.4,0-0.5c-0.1-0.4-0.5-2.2-1.3-5.3c-0.8-3.1-1.8-6.5-2.8-10c-1-3.5-1.6-5.6-1.7-6.1c-0.1-0.3-0.1-0.5-0.2-0.8
			c-0.2,0-0.4,0-0.6,0c-0.3,0.1-1,0-2.3-0.3c-0.8-0.1-1.6-0.2-2.5-0.3c-2.4-0.1-4.1-0.1-5.2-0.1c-0.1,0-0.7,0.1-1.6,0.2
			c-0.9,0.1-1.5,0.1-1.6,0c-0.5-0.1-0.8-0.3-1-0.6c-2.4,10.3-3.9,17.1-4.6,20.3c0.1,0.1,0.1,0.4,0.1,0.9c-0.1,0.5-0.2,1.1-0.5,1.8
			c0,0.1,0,0.2-0.1,0.3c0,0.1,0,0.3,0,0.4c0,0.1,0,0.2,0,0.3c0,0.1,0,0.2-0.1,0.2c-0.1,0.3-0.4,0.6-1,0.7c-0.6,0.1-1.1,0-1.5-0.4
			c-0.3-0.3-0.5-0.6-0.4-1h-0.1l0.5-0.9c0-0.1,0-0.3,0-0.4c0.1-1.5,0.2-2.3,0.5-2.4c0.1,0,0.2,0,0.3,0c0.2-0.7,0.5-1.6,0.8-2.7
			c0.8-3.3,1.6-6.8,2.5-10.5c0.9-3.7,1.4-5.8,1.5-6.3c0.9-3.8,2.4-10.2,4.3-19.1c2-9,3.1-14.8,3.5-17.5c0.1-0.9,0.1-1.4,0.1-1.7
			c0.1-0.8,0.1-1.3,0.2-1.5c0.3-1.1,0.8-1.5,1.7-1.4c0.9,0.2,1.2,0.8,1.1,2c0,0.1,0,0.4-0.1,0.8C184.8,861.9,185,862.3,185.1,862.9z
			 M183.1,867.8c-0.3,0.9-0.5,2-0.8,3.3c-1,4.3-2,9-3.2,13.9c-1.1,4.9-1.8,8-2,9.1c-0.3,1.3-0.6,2.5-0.9,3.6
			c0.2-0.1,0.4-0.1,0.7-0.2c0.3-0.1,1.3,0,2.9,0.2c2.4,0.3,4.5,0.4,6.4,0.4c1,0,1.9,0,2.6-0.1c0.1-0.1,0.3-0.1,0.4-0.1
			c0.1,0,0.2,0,0.3,0c0.1,0,0.3,0,0.4,0C188.4,891.6,186.1,881.6,183.1,867.8z"/>
		<path class="st4" d="M262.2,883.8c-0.1-1.1-0.5-2.1-1.1-3.1c-0.7-1-2-1.9-3.9-2.8c-1.9-0.8-4.1-1.1-6.6-1
			c-1.3,0.1-2.5,0.5-3.8,1.4c-1.3,0.9-2.4,1.9-3.2,3.1c-0.9,1.3-1.6,2.8-1.9,4.5c-0.3,1.7-0.2,3,0.3,4c1.1,1.5,2.6,3.1,4.5,4.8
			c2,1.6,3.7,3,5.2,4s3.4,2.2,5.6,3.6c2.3,1.4,3.6,2.2,4.1,2.5c3.3,2.2,6.1,4.3,8.2,6.2c2.9,2.7,4.1,5.2,3.8,7.5
			c-0.1,1.3-0.9,2.6-2.3,3.8c-1.4,1.2-3,2-4.7,2.4c-2.6,0.7-5.9,0.9-10,0.4c-4-0.5-7.1-1.6-9.2-3.4c-1.3-1.1-2.4-2.4-3.2-3.9
			c-0.8-1.5-1.3-2.8-1.5-4.1c-0.2-1.3-0.3-2.4-0.2-3.4c0-1,0.2-1.8,0.3-2.4c0.3-0.8,1-1.6,2-2.5c1.1-1,2-1.6,2.8-1.7
			c1.8-0.5,3.1-0.2,3.9,0.7c0.3,0.4,0.3,0.7-0.1,1l-3.3,1.3c-1.1,0.4-1.7,0.7-2,0.9c-0.5,0.4-1,1.2-1.5,2.5
			c-0.4,1.2-0.5,2.6-0.2,4.1c0.3,1.5,1.3,2.9,2.8,4.4c1.5,1.5,3.4,2.7,5.5,3.5c2.7,0.9,5.3,1.4,8,1.5c2.7,0.1,4.8-0.3,6.4-1.2
			c1.5-0.8,2.6-1.8,3.2-3c0.6-1.2,0.8-2.2,0.8-3.1c-0.1-0.9-0.3-1.5-0.7-1.9c-0.7-0.8-2-1.9-3.8-3.2c-1.8-1.4-3.6-2.7-5.4-3.9
			c-1.8-1.3-4.4-3-7.7-5.3c-3.3-2.3-5.9-4.1-8-5.6c-4.1-2.9-6-6.3-5.6-10.4c0.3-2.1,1-4.1,2.2-5.9c1.2-1.8,2.6-3,4.2-3.7
			c2-0.8,4.1-1.2,6.2-1.2c2.1,0,3.9,0.2,5.3,0.6c1.4,0.5,2.7,1,3.7,1.7c0.7,0.5,1.4,1.4,2.2,2.6c0.9,1.4,1.3,2.5,1.3,3.2
			c0.1,1.6-0.1,2.7-0.5,3.4c-0.4,0.7-0.8,0.7-1.3,0.1S262.4,885.2,262.2,883.8z"/>
		<path class="st4" d="M283.6,879.1c0,0.4-0.1,1.4-0.3,3.1c-0.7,6.4-1,13.4-1.1,21c-0.1,5.7,0.3,10.4,1.2,14.3
			c0.5,2.1,1.4,3.8,2.5,5.1c1.1,1.3,2.2,2.1,3.1,2.2c1,0.1,2.5-0.5,4.3-1.9c1.9-1.4,3.6-3.4,5-6.1c1.7-3.5,3.2-8.9,4.3-16.3
			c1.1-7.7,1.6-14.4,1.7-20.2c0-1.1,0-2.1,0-2.8c0-0.3,0-0.6,0-0.9c0-0.3-0.1-0.6-0.1-0.9c0-0.2,0-0.4,0-0.5c0-0.2,0-0.4,0.1-0.6
			c-0.1-0.3-0.1-0.5-0.1-0.6c0.1-0.7,0.6-1.1,1.5-1.1c0.9,0,1.3,0.4,1.4,1.1c0,0.1,0,0.2,0,0.3c0.1,0.4,0.1,0.9,0.1,1.4
			c-0.1,0.3-0.1,0.7-0.2,1.2c-0.1,0.5-0.1,0.8-0.2,1c-0.1,3.4-0.1,9.4,0,18.1c0.2,14.7,0.4,23,0.5,25c0.1,0.7,0.1,1.1,0.2,1.4
			c0.1,0.8,0.2,1.2,0.2,1.3c-0.1,0.5-0.4,0.9-1,1.2c-0.6,0.3-1.1,0.3-1.5,0c-0.4-0.3-0.6-0.8-0.6-1.5c0-0.1,0.1-0.4,0.2-0.7
			c0.1-0.3,0.2-0.5,0.2-0.6c0.1-0.5,0.1-2.3,0.1-5.4c0-3.2,0-6.5,0-10.1c0-3.5,0-5.4,0-5.7c0-0.9,0-1.8,0-2.9
			c-0.1,0.6-0.2,1.2-0.3,1.9c-0.9,5.5-2.4,10.6-4.4,15.4c-2,4.8-3.5,7.7-4.4,8.6c-1.8,1.7-3.9,2.6-6.4,2.6c-1.3,0-2.6-0.5-4-1.5
			s-2.4-2.4-3-4c-1.4-3.9-2.1-9.3-2.2-16.4c-0.1-3.6,0-7.9,0.2-12.9c0.2-5,0.2-7.6,0.2-7.9c0-1.3,0-2.2,0-2.6
			c-0.1-1.3-0.1-2.1,0-2.4c0.1-1.6,0.5-2.4,1.5-2.4C283,876.6,283.5,877.4,283.6,879.1z"/>
		<path class="st4" d="M319,876.3c0.1,0.2,0.1,0.7,0,1.4c-0.1,1.6-0.1,3.5-0.1,5.7c2-2.9,4.7-5.4,8.1-7.6c1.3-0.9,2.9-1.5,4.6-1.7
			c1.7-0.2,3.2,0,4.3,0.5c2.3,0.9,4,2.4,5.2,4.6c1.2,2.3,1.5,4.8,1,7.5c-0.3,1.6-1,3.2-2.2,4.7c-1.2,1.5-2.7,2.6-4.4,3.3
			c-2.1,0.7-4.2,1.2-6.4,1.3c-2.2,0.1-3.9,0.1-5.1-0.1c-0.6-0.1-1.1-0.2-1.6-0.3c1.7,2.4,4.7,6.4,9.1,11.9c1.5,1.9,5,6.9,10.7,15
			c0,0.1,0,0.1,0.1,0.2c0.1,0.1,0.1,0.1,0.1,0.2c0,0.1,0.1,0.2,0.2,0.2l0.5,0.6c0,0.3-0.2,0.6-0.7,0.9c-0.5,0.4-0.9,0.5-1.4,0.5
			c-0.4-0.1-0.7-0.2-0.8-0.4c0-0.1,0-0.2,0-0.4c0-0.2,0-0.3,0-0.4c-0.1-0.3-1.2-2.2-3.4-5.6c-2.2-3.4-3.6-5.6-4.3-6.5
			c-1.3-1.9-3.6-4.9-6.9-9c-3.3-4.1-5.4-6.7-6.3-7.7l-0.1-0.1c0,1.9,0,3,0,3.5c0,14.2,0,21.7,0.1,22.4c0.1,0.6,0.1,1,0.1,1.3
			l0.2,1.1c-0.1,0.5-0.4,0.9-1,1.2c-0.6,0.3-1,0.3-1.5,0c-0.4-0.3-0.6-0.7-0.6-1.4c0-0.1,0-0.3,0.1-0.6c0.1-0.3,0.1-0.5,0.2-0.6
			c0.1-0.5,0.1-2.1,0.2-4.9c0.1-2.8,0.1-5.8,0.2-8.9c0.1-3.2,0.1-4.9,0.1-5.2c0.1-2.6,0-6.8-0.1-12.8c-0.1-5.9-0.4-9.8-0.7-11.5
			c-0.1-0.6-0.1-1-0.2-1.2c-0.1-0.5-0.2-0.9-0.2-1c0.1-0.9,0.5-1.3,1.4-1.3C318.3,875.1,318.8,875.5,319,876.3z M319,888.8
			c0,0.5,0,1.1,0,1.8c0.4,0.1,0.8,0.3,1.3,0.7c0.2,0.1,0.4,0.3,0.6,0.6c0.2,0.3,0.3,0.4,0.4,0.5c0.4,0.3,1,0.7,1.7,1
			c0.7,0.3,2,0.6,3.7,0.9c1.7,0.3,3.5,0,5.5-0.7c1.9-0.5,3.5-1.5,4.8-2.9c1.4-1.4,2.3-2.7,2.8-3.9c0.5-1.1,0.7-2,0.7-2.5
			c0-2.3-0.7-4.2-2.1-5.9c-0.9-1-2-1.7-3.5-2.2c-1.4-0.5-2.9-0.5-4.2,0c-2.5,1-4.5,2.4-6.2,4.1c-1.7,1.7-2.9,3.3-3.7,4.7
			c-0.3,0.3-0.4,0.7-0.5,1.2c0,0.1,0,0.3,0,0.6c0,0.3-0.1,0.5-0.2,0.6c-0.1,0.7-0.4,1.1-0.9,1.3C319.1,888.7,319,888.7,319,888.8z"
			/>
		<path class="st4" d="M351.2,879.8c0.1,0.1,0.2,0.5,0.3,1.3c0.2,1,2.4,7.7,6.5,20c0.5,1.3,1.4,4.9,2.9,10.8c0.5,2,1,3.7,1.3,5.2
			c0.1-0.9,0.3-1.9,0.4-3c0.8-6.1,1.3-9.8,1.6-11.1c0.1-0.8,1-4.5,2.5-11c1.5-6.6,2.4-10.4,2.6-11.4c0.1-0.6,0.2-1,0.2-1.3l0.1-1.2
			c0.2-0.5,0.6-0.8,1.2-0.9c0.6-0.2,1.1-0.1,1.5,0.3c0.3,0.4,0.3,0.9,0.2,1.6c-0.1,0.1-0.2,0.3-0.3,0.6c-0.1,0.2-0.2,0.4-0.3,0.5
			c-0.6,1.5-2.3,7.8-5,18.8c-0.5,2.4-1.2,6.6-2,12.6c-0.8,6-1.2,9.9-1,11.8c0,0.5,0,0.9,0.1,1.2c0.1,0.5,0.2,0.9,0.2,1
			c-0.1,0.8-0.6,1.2-1.4,1.3c-0.4,0.1-0.7,0.1-1-0.2c-0.4-0.3-0.6-0.7-0.7-1.3c0-0.1,0-0.3,0.1-0.6c0.1-0.3,0.1-0.5,0.1-0.6
			c0.1-0.7-0.4-3.6-1.5-8.8c-1.1-5.2-1.7-8.3-2-9.4c-0.7-2.2-2-6.2-4-11.9c-2-5.7-3.5-9.5-4.3-11.3l-0.1-0.4
			c-0.1-0.3-0.2-0.6-0.3-0.7c-0.3-0.5-0.4-0.9-0.5-1c-0.1-0.9,0.2-1.4,1-1.6C350.3,878.7,350.9,879,351.2,879.8z"/>
		<path class="st4" d="M383.5,860.3L383.5,860.3c0.6-0.5,1-0.6,1.5-0.4c0.5,0.3,0.8,0.9,0.8,2c0.1,0.4,0,1-0.3,1.9
			c-0.1,0.1-0.2,0.4-0.3,0.9c-0.1,0.5-0.2,0.8-0.3,1c-0.1,0.2-0.2,0.5-0.4,0.9c-0.2,0.5-0.3,0.8-0.5,1.1c-0.1,0.2-0.3,0.5-0.5,0.9
			c-0.2,0.4-0.5,0.7-0.7,1c-0.2,0.3-0.5,0.5-0.9,0.8c-0.4,0.3-0.8,0.5-1.2,0.7c-1.3,0.8-2.5,0.4-3.5-1.1c-1-1.6-1.4-3.4-1.2-5.5
			c0.3-3.1,1.6-5.3,3.8-6.5c0.4-0.2,1-0.1,1.9,0.4c0.7,0.3,1.2,0.7,1.4,1.2C383.3,859.8,383.4,860.1,383.5,860.3z M380.8,861.3
			c-0.3-0.5-0.5-0.8-0.6-0.8c-0.5,0.1-1.1,1.1-1.7,3s-0.8,3.8-0.6,5.8c0.1,0.9,0.7,1,1.9,0.2c0.4-0.3,0.8-0.6,1.1-1
			c0.9-0.9,1.6-2.1,1.9-3.6c0.1-0.5,0.2-1.1,0.2-1.7c0-0.1,0-0.3-0.1-0.5c-0.1,0-0.3,0-0.4-0.1C381.9,862.4,381.3,862,380.8,861.3z
			 M382.8,877.7c0.1,0.2,0.1,0.7,0,1.4c0,1.1,0.1,4.6,0.3,10.6c0.2,6,0.3,9.6,0.3,10.6c0,0.5,0,2.7-0.1,6.6
			c-0.1,3.9-0.1,7.1-0.1,9.6c0,2.5,0,4.6,0,6.4c0.1,0.5,0.1,1,0.1,1.3l0.2,1.1c-0.1,0.5-0.4,0.9-1,1.2c-0.6,0.3-1,0.3-1.5,0
			c-0.4-0.3-0.6-0.7-0.6-1.4c0-0.1,0-0.3,0.1-0.6s0.1-0.5,0.2-0.6c0.1-0.5,0.2-2.1,0.2-4.9c0.1-2.8,0.2-5.9,0.3-9.1
			c0.1-3.2,0.2-5,0.2-5.1c0.1-2.5,0-6.8-0.2-12.8s-0.5-9.9-0.9-11.8c-0.1-0.5-0.2-0.9-0.3-1.1c-0.1-0.5-0.2-0.9-0.2-1
			c0-0.9,0.4-1.4,1.3-1.4C382.1,876.5,382.6,876.9,382.8,877.7z"/>
		<path class="st4" d="M393,879.8c0.1,0.1,0.2,0.5,0.3,1.3c0.2,1,2.4,7.7,6.5,20c0.5,1.3,1.4,4.9,2.9,10.8c0.5,2,1,3.7,1.3,5.2
			c0.1-0.9,0.3-1.9,0.4-3c0.8-6.1,1.3-9.8,1.6-11.1c0.1-0.8,1-4.5,2.5-11c1.5-6.6,2.4-10.4,2.6-11.4c0.1-0.6,0.2-1,0.2-1.3l0.1-1.2
			c0.2-0.5,0.6-0.8,1.2-0.9c0.6-0.2,1.1-0.1,1.5,0.3c0.3,0.4,0.3,0.9,0.2,1.6c-0.1,0.1-0.2,0.3-0.3,0.6c-0.1,0.2-0.2,0.4-0.3,0.5
			c-0.6,1.5-2.3,7.8-5,18.8c-0.5,2.4-1.2,6.6-2,12.6c-0.8,6-1.2,9.9-1,11.8c0,0.5,0,0.9,0.1,1.2c0.1,0.5,0.2,0.9,0.2,1
			c-0.1,0.8-0.6,1.2-1.4,1.3c-0.4,0.1-0.7,0.1-1-0.2c-0.4-0.3-0.6-0.7-0.7-1.3c0-0.1,0-0.3,0.1-0.6c0.1-0.3,0.1-0.5,0.1-0.6
			c0.1-0.7-0.4-3.6-1.5-8.8c-1.1-5.2-1.7-8.3-2-9.4c-0.7-2.2-2-6.2-4-11.9c-2-5.7-3.5-9.5-4.3-11.3l-0.1-0.4
			c-0.1-0.3-0.2-0.6-0.3-0.7c-0.3-0.5-0.4-0.9-0.5-1c-0.1-0.9,0.2-1.4,1-1.6C392.1,878.7,392.7,879,393,879.8z"/>
		<path class="st4" d="M447.4,892c0.1,0.7,0.2,1.6,0.3,2.7c0,0.4,0,1-0.1,1.7c-0.1,0.7-0.2,1.2-0.2,1.5l-0.1,1.6c0,1.1,0,2.1,0,3
			c0,0.9-0.2,2.2-0.4,3.9c-0.2,1.6-0.5,3.2-1,4.6c-0.4,1.4-1,3-1.8,4.9c-0.8,1.8-1.7,3.5-2.8,5c-1,1.5-2.5,2.6-4.5,3.2
			c-1.9,0.6-3.8,0.8-5.7,0.6c-1.9-0.2-3.5-0.8-4.8-1.7c-2.8-1.7-4.9-4-6.4-6.8c-0.9-1.9-1.7-4-2.4-6.4c-0.6-2.4-1-5.7-1-9.9
			c0-4.2,0.6-8.3,1.9-12.5c1.1-3.7,3.2-6.8,6.3-9.3c3.1-2.5,6-3.6,8.8-3.3c2.8,0.3,5.2,1.4,7.3,3.5c2.1,2.1,3.6,4.3,4.7,6.5
			c0.3,0.6,0.7,1.7,1.1,3.4C447.2,890,447.4,891.1,447.4,892L447.4,892z M444.5,891.9c-0.1-1.5-0.3-2.8-0.5-3.9
			c-0.8-4.1-2.5-7.1-5-9c-1.6-1.4-3.9-2-6.9-1.8c-3,0.2-5.4,1.2-7.1,3.1c-2.7,2.9-4.6,6.8-5.7,11.4c-1.1,4.7-1.6,8.6-1.5,11.8
			c0.1,3.2,0.9,6.3,2.4,9.3c1.5,2.8,3.4,5.3,5.9,7.4c2.5,2.1,4.9,3.1,7.3,3c2.2-0.2,4.3-1.7,6.3-4.4c2-2.7,3.5-5.6,4.2-8.7
			c0.5-2.3,0.8-5.4,0.8-9.3c0-1.3,0-2.5-0.1-3.6c0-0.3,0-0.7,0-1.1c0-0.4-0.1-0.8-0.1-1.1c0-0.3,0-0.6,0-0.8c0-0.2,0-0.4,0.1-0.6
			C444.6,893,444.5,892.5,444.5,891.9z"/>
		<path class="st4" d="M458.6,879.1c0,0.4-0.1,1.4-0.3,3.1c-0.7,6.4-1,13.4-1.1,21c-0.1,5.7,0.3,10.4,1.2,14.3
			c0.5,2.1,1.4,3.8,2.5,5.1c1.1,1.3,2.2,2.1,3.1,2.2c1,0.1,2.5-0.5,4.3-1.9c1.9-1.4,3.6-3.4,5-6.1c1.7-3.5,3.2-8.9,4.3-16.3
			c1.1-7.7,1.6-14.4,1.7-20.2c0-1.1,0-2.1,0-2.8c0-0.3,0-0.6,0-0.9c0-0.3-0.1-0.6-0.1-0.9c0-0.2,0-0.4,0-0.5c0-0.2,0-0.4,0.1-0.6
			c-0.1-0.3-0.1-0.5-0.1-0.6c0.1-0.7,0.6-1.1,1.5-1.1c0.9,0,1.3,0.4,1.4,1.1c0,0.1,0,0.2,0,0.3c0.1,0.4,0.1,0.9,0.1,1.4
			c-0.1,0.3-0.1,0.7-0.2,1.2c-0.1,0.5-0.1,0.8-0.2,1c-0.1,3.4-0.1,9.4,0,18.1c0.2,14.7,0.4,23,0.5,25c0.1,0.7,0.1,1.1,0.2,1.4
			c0.1,0.8,0.2,1.2,0.2,1.3c-0.1,0.5-0.4,0.9-1,1.2c-0.6,0.3-1.1,0.3-1.5,0c-0.4-0.3-0.6-0.8-0.6-1.5c0-0.1,0.1-0.4,0.2-0.7
			c0.1-0.3,0.2-0.5,0.2-0.6c0.1-0.5,0.1-2.3,0.1-5.4c0-3.2,0-6.5,0-10.1c0-3.5,0-5.4,0-5.7c0-0.9,0-1.8,0-2.9
			c-0.1,0.6-0.2,1.2-0.3,1.9c-0.9,5.5-2.4,10.6-4.4,15.4c-2,4.8-3.5,7.7-4.4,8.6c-1.8,1.7-3.9,2.6-6.4,2.6c-1.3,0-2.6-0.5-4-1.5
			s-2.4-2.4-3-4c-1.4-3.9-2.1-9.3-2.2-16.4c-0.1-3.6,0-7.9,0.2-12.9c0.2-5,0.2-7.6,0.2-7.9c0-1.3,0-2.2,0-2.6
			c-0.1-1.3-0.1-2.1,0-2.4c0.1-1.6,0.5-2.4,1.5-2.4C458,876.6,458.5,877.4,458.6,879.1z"/>
		<path class="st4" d="M494,876.3c0.1,0.2,0.1,0.7,0,1.4c-0.1,1.6-0.1,3.5-0.1,5.7c2-2.9,4.7-5.4,8.1-7.6c1.3-0.9,2.9-1.5,4.6-1.7
			c1.7-0.2,3.2,0,4.3,0.5c2.3,0.9,4,2.4,5.2,4.6c1.2,2.3,1.5,4.8,1,7.5c-0.3,1.6-1,3.2-2.2,4.7c-1.2,1.5-2.7,2.6-4.4,3.3
			c-2.1,0.7-4.2,1.2-6.4,1.3c-2.2,0.1-3.9,0.1-5.1-0.1c-0.6-0.1-1.1-0.2-1.6-0.3c1.7,2.4,4.7,6.4,9.1,11.9c1.5,1.9,5,6.9,10.7,15
			c0,0.1,0,0.1,0.1,0.2c0.1,0.1,0.1,0.1,0.1,0.2c0,0.1,0.1,0.2,0.2,0.2l0.5,0.6c0,0.3-0.2,0.6-0.7,0.9c-0.5,0.4-0.9,0.5-1.4,0.5
			c-0.4-0.1-0.7-0.2-0.8-0.4c0-0.1,0-0.2,0-0.4c0-0.2,0-0.3,0-0.4c-0.1-0.3-1.2-2.2-3.4-5.6c-2.2-3.4-3.6-5.6-4.3-6.5
			c-1.3-1.9-3.6-4.9-6.9-9c-3.3-4.1-5.4-6.7-6.3-7.7l-0.1-0.1c0,1.9,0,3,0,3.5c0,14.2,0,21.7,0.1,22.4c0.1,0.6,0.1,1,0.1,1.3
			l0.2,1.1c-0.1,0.5-0.4,0.9-1,1.2c-0.6,0.3-1,0.3-1.5,0c-0.4-0.3-0.6-0.7-0.6-1.4c0-0.1,0-0.3,0.1-0.6c0.1-0.3,0.1-0.5,0.2-0.6
			c0.1-0.5,0.1-2.1,0.2-4.9c0.1-2.8,0.1-5.8,0.2-8.9c0.1-3.2,0.1-4.9,0.1-5.2c0.1-2.6,0-6.8-0.1-12.8c-0.1-5.9-0.4-9.8-0.7-11.5
			c-0.1-0.6-0.1-1-0.2-1.2c-0.1-0.5-0.2-0.9-0.2-1c0.1-0.9,0.5-1.3,1.4-1.3C493.3,875.1,493.8,875.5,494,876.3z M494,888.8
			c0,0.5,0,1.1,0,1.8c0.4,0.1,0.8,0.3,1.3,0.7c0.2,0.1,0.4,0.3,0.6,0.6c0.2,0.3,0.3,0.4,0.4,0.5c0.4,0.3,1,0.7,1.7,1
			c0.7,0.3,2,0.6,3.7,0.9c1.7,0.3,3.5,0,5.5-0.7c1.9-0.5,3.5-1.5,4.8-2.9c1.4-1.4,2.3-2.7,2.8-3.9c0.5-1.1,0.7-2,0.7-2.5
			c0-2.3-0.7-4.2-2.1-5.9c-0.9-1-2-1.7-3.5-2.2c-1.4-0.5-2.9-0.5-4.2,0c-2.5,1-4.5,2.4-6.2,4.1c-1.7,1.7-2.9,3.3-3.7,4.7
			c-0.3,0.3-0.4,0.7-0.5,1.2c0,0.1,0,0.3,0,0.6c0,0.3-0.1,0.5-0.2,0.6c-0.1,0.7-0.4,1.1-0.9,1.3C494.1,888.7,494,888.7,494,888.8z"
			/>
		<path class="st4" d="M587,870.9c-0.3-1.1-0.8-2.3-1.6-3.7c-0.7-1.2-1.8-2.5-3.3-4c-1.5-1.5-3.3-2.7-5.4-3.8
			c-1.3-0.7-2.6-1-4.1-1.1c-1.5,0-2.8,0.3-4,1c-1.1,0.6-2.1,1.6-3,3c-0.9,1.4-1.4,2.9-1.5,4.6c-0.3,2.9,0.2,5.6,1.5,8.2
			c1.2,2.6,2.9,4.8,5,6.7c1.1,1,2.3,1.9,3.4,2.8c1.1,0.8,2.4,1.7,3.8,2.6c1.4,0.9,2.2,1.4,2.3,1.5c0.1,0.1,0.6,0.4,1.2,0.9
			c0.7,0.5,1.3,0.9,1.9,1.3c0.5,0.4,1.2,0.9,2,1.5s1.6,1.3,2.5,2c0.8,0.7,1.6,1.5,2.3,2.3c2.2,2.3,3.9,5.2,5.2,8.6
			c1.3,3.4,1.7,7,1.2,10.6c-0.3,1.9-1.2,3.7-2.9,5.4c-1.7,1.7-3.5,2.8-5.5,3.3c-1.9,0.5-3.9,0.6-5.8,0.2c-2-0.4-3.7-1-5.2-2
			c-2.5-1.8-4.5-3.8-5.8-6.1c-1.3-2.3-2.1-4.2-2.3-5.7c-0.1-1.3,0.1-2.7,0.6-4.2c0.7-1.9,1.5-3.2,2.3-3.7c1-0.7,1.8-1,2.3-0.9
			c0.5,0.1,0.9,0.3,1.1,0.7l0.2,0.6l-1.9,2.2c-0.9,1.1-1.5,1.9-1.8,2.6c-0.1,0.5-0.1,1.1-0.2,1.9c-0.1,0.8,0.1,1.9,0.5,3.2
			s1,2.7,1.9,4c1.4,2.1,3.7,3.7,6.8,4.8c3.8,1.3,6.8,1.2,8.9-0.4c2.2-1.6,3.7-3.8,4.5-6.6c0.8-2.8,0.8-5.5,0.2-8.1
			c-0.9-3.2-2.4-5.9-4.6-8.1c-1-1.1-3-2.7-5.9-4.8c-3-2.1-6.2-4.6-9.7-7.4c-3.5-2.8-6.5-5.6-9.2-8.4c-1.3-1.4-2.2-3.3-2.6-5.6
			c-0.4-2.3-0.4-4.6,0.1-6.8c0.7-2.7,1.8-4.9,3.5-6.8c1.6-1.8,3.3-2.8,5.2-2.8c5.2,0,10.1,2.4,14.8,7.1c0.7,0.7,1.6,1.9,2.5,3.4
			c0.9,1.5,1.4,2.6,1.5,3.3c0.3,1.5,0.2,2.6-0.1,3.2c-0.3,0.6-0.8,0.7-1.3,0.2C587.7,873.1,587.3,872.2,587,870.9z"/>
		<path class="st4" d="M608.7,865.6c0,0.3-0.1,1.1-0.2,2.4c-0.3,2.5-0.8,8.4-1.5,17.7c-0.2,3.2-0.4,6-0.6,8.4c0.6,0,1.2,0,1.9-0.1
			c2.6-0.1,4.7-0.3,6.4-0.6c0.5-0.1,0.9-0.1,1-0.2l0.9-0.2c0.4,0.1,0.7,0.4,1,1c0.3,0.6,0.3,1.1,0,1.5c-0.3,0.4-0.6,0.6-1.1,0.6
			c-0.1,0-0.3,0-0.5-0.1c-0.2-0.1-0.3-0.1-0.4-0.1c-0.9-0.1-2.2-0.2-3.9-0.1c-2,0-3.8,0.1-5.4,0.2c-0.2,3.7-0.3,6.4-0.4,8
			c0,0.1,0,0.8-0.1,2.3c-0.1,1.5-0.1,2.9,0,4.1c0,1.2,0.1,2.6,0.3,4.2c0.2,1.6,0.6,3.1,1.2,4.4c0.6,1.3,1.4,2.3,2.4,3
			c0.9,0.7,2.7-0.5,5.2-3.8c2.5-3.2,4-5.6,4.3-7.1c0.2-0.7,0.3-1.5,0.3-2.3c0-0.3,0-0.7-0.1-1.1c0-0.4,0-0.7,0-0.9
			c0-0.7,0.2-1.3,0.7-1.9c0.4-0.6,0.9-0.7,1.5-0.5c0.5,0.4,0.8,1.3,0.9,2.7c0,0.3-0.1,1.1-0.4,2.3c-0.2,0.7-0.5,1.5-0.8,2.5
			c-0.3,1-0.8,2.2-1.5,3.9s-1.7,3.1-2.9,4.6c-1.2,1.5-2.6,2.6-4,3.3c-1.4,0.8-3,0.2-4.7-1.7c-1.7-1.9-2.7-4.1-3.2-6.5
			c-0.3-1.3-0.4-2.7-0.5-4.2c-0.1-2.3,0.1-7.4,0.4-15.3c-1.1,0.1-2.2,0.2-3.1,0.4h-0.4c-0.2,0.1-0.4,0.1-0.5,0.2
			c-0.4,0.1-0.7,0.2-0.8,0.1c-0.7-0.1-1.1-0.5-1.1-1.4c0-0.9,0.4-1.4,1.1-1.5c0.1,0,0.4,0,1,0.1c0.9,0.1,2.2,0.2,3.9,0.2
			c0.1-1.5,0.1-3,0.2-4.5c0.5-11.7,0.8-18.5,0.8-20.4c0-0.9,0-1.6,0-2c-0.1-1-0.2-1.6-0.1-1.8c0.1-1.3,0.6-2,1.5-1.9
			C608.1,863.6,608.6,864.2,608.7,865.6z"/>
		<path class="st4" d="M657.5,892c0.1,0.7,0.2,1.6,0.3,2.7c0,0.4,0,1-0.1,1.7c-0.1,0.7-0.2,1.2-0.2,1.5l-0.1,1.6c0,1.1,0,2.1,0,3
			c0,0.9-0.2,2.2-0.4,3.9c-0.2,1.6-0.5,3.2-1,4.6c-0.4,1.4-1,3-1.8,4.9c-0.8,1.8-1.7,3.5-2.8,5c-1,1.5-2.5,2.6-4.5,3.2
			c-1.9,0.6-3.8,0.8-5.7,0.6c-1.9-0.2-3.5-0.8-4.8-1.7c-2.8-1.7-4.9-4-6.4-6.8c-0.9-1.9-1.7-4-2.4-6.4c-0.6-2.4-1-5.7-1-9.9
			c0-4.2,0.6-8.3,1.9-12.5c1.1-3.7,3.2-6.8,6.3-9.3c3.1-2.5,6-3.6,8.8-3.3c2.8,0.3,5.2,1.4,7.3,3.5c2.1,2.1,3.6,4.3,4.7,6.5
			c0.3,0.6,0.7,1.7,1.1,3.4C657.3,890,657.5,891.1,657.5,892L657.5,892z M654.6,891.9c-0.1-1.5-0.3-2.8-0.5-3.9
			c-0.8-4.1-2.5-7.1-5-9c-1.6-1.4-3.9-2-6.9-1.8c-3,0.2-5.4,1.2-7.1,3.1c-2.7,2.9-4.6,6.8-5.7,11.4c-1.1,4.7-1.6,8.6-1.5,11.8
			c0.1,3.2,0.9,6.3,2.4,9.3c1.5,2.8,3.4,5.3,5.9,7.4c2.5,2.1,4.9,3.1,7.3,3c2.2-0.2,4.3-1.7,6.3-4.4c2-2.7,3.5-5.6,4.2-8.7
			c0.5-2.3,0.8-5.4,0.8-9.3c0-1.3,0-2.5-0.1-3.6c0-0.3,0-0.7,0-1.1c0-0.4-0.1-0.8-0.1-1.1c0-0.3,0-0.6,0-0.8c0-0.2,0-0.4,0.1-0.6
			C654.6,893,654.6,892.5,654.6,891.9z"/>
		<path class="st4" d="M668.4,876.3c0.1,0.2,0.1,0.7,0,1.4c-0.1,1.6-0.1,3.5-0.1,5.7c2-2.9,4.7-5.4,8.1-7.6c1.3-0.9,2.9-1.5,4.6-1.7
			c1.7-0.2,3.2,0,4.3,0.5c2.3,0.9,4,2.4,5.2,4.6c1.2,2.3,1.5,4.8,1,7.5c-0.3,1.6-1,3.2-2.2,4.7c-1.2,1.5-2.7,2.6-4.4,3.3
			c-2.1,0.7-4.2,1.2-6.4,1.3c-2.2,0.1-3.9,0.1-5.1-0.1c-0.6-0.1-1.1-0.2-1.6-0.3c1.7,2.4,4.7,6.4,9.1,11.9c1.5,1.9,5,6.9,10.7,15
			c0,0.1,0,0.1,0.1,0.2c0.1,0.1,0.1,0.1,0.1,0.2c0,0.1,0.1,0.2,0.2,0.2l0.5,0.6c0,0.3-0.2,0.6-0.7,0.9c-0.5,0.4-0.9,0.5-1.4,0.5
			c-0.4-0.1-0.7-0.2-0.8-0.4c0-0.1,0-0.2,0-0.4c0-0.2,0-0.3,0-0.4c-0.1-0.3-1.2-2.2-3.4-5.6c-2.2-3.4-3.6-5.6-4.3-6.5
			c-1.3-1.9-3.6-4.9-6.9-9c-3.3-4.1-5.4-6.7-6.3-7.7l-0.1-0.1c0,1.9,0,3,0,3.5c0,14.2,0,21.7,0.1,22.4c0.1,0.6,0.1,1,0.1,1.3
			l0.2,1.1c-0.1,0.5-0.4,0.9-1,1.2c-0.6,0.3-1,0.3-1.5,0c-0.4-0.3-0.6-0.7-0.6-1.4c0-0.1,0-0.3,0.1-0.6c0.1-0.3,0.1-0.5,0.2-0.6
			c0.1-0.5,0.1-2.1,0.2-4.9c0.1-2.8,0.1-5.8,0.2-8.9c0.1-3.2,0.1-4.9,0.1-5.2c0.1-2.6,0-6.8-0.1-12.8c-0.1-5.9-0.4-9.8-0.7-11.5
			c-0.1-0.6-0.1-1-0.2-1.2c-0.1-0.5-0.2-0.9-0.2-1c0.1-0.9,0.5-1.3,1.4-1.3C667.8,875.1,668.3,875.5,668.4,876.3z M668.4,888.8
			c0,0.5,0,1.1,0,1.8c0.4,0.1,0.8,0.3,1.3,0.7c0.2,0.1,0.4,0.3,0.6,0.6c0.2,0.3,0.3,0.4,0.4,0.5c0.4,0.3,1,0.7,1.7,1
			c0.7,0.3,2,0.6,3.7,0.9c1.7,0.3,3.5,0,5.5-0.7c1.9-0.5,3.5-1.5,4.8-2.9c1.4-1.4,2.3-2.7,2.8-3.9c0.5-1.1,0.7-2,0.7-2.5
			c0-2.3-0.7-4.2-2.1-5.9c-0.9-1-2-1.7-3.5-2.2c-1.4-0.5-2.9-0.5-4.2,0c-2.5,1-4.5,2.4-6.2,4.1c-1.7,1.7-2.9,3.3-3.7,4.7
			c-0.3,0.3-0.4,0.7-0.5,1.2c0,0.1,0,0.3,0,0.6c0,0.3-0.1,0.5-0.2,0.6c-0.1,0.7-0.4,1.1-0.9,1.3
			C668.6,888.7,668.5,888.7,668.4,888.8z"/>
		<path class="st4" d="M701.6,878.7v0.9c0.1,1.1,0.8,4.2,2.1,9.4c1.3,5.2,2.4,8.9,3.1,11.2c0.5,1.8,1.9,5.6,4.2,11.3
			c2.1,5.1,3.4,8.3,4,9.6c1.3-4.1,2.2-6.9,2.7-8.5c0.9-2.9,2.2-8.1,3.9-15.5c1.7-7.4,2.6-12.3,2.7-14.7c0-0.7,0-1.1,0-1.4
			c0-0.7,0-1.1,0-1.3c0.3-1,0.8-1.5,1.7-1.4c0.8,0.1,1.2,0.7,1.2,1.8c0,0.2-0.1,0.7-0.3,1.6c-0.2,0.8-1.1,4.9-2.8,12.4
			c-1.6,7.5-2.6,12-3,13.6c-0.3,1.1-1.7,5.7-4.2,13.6c-2.5,7.9-3.8,12.5-4.1,13.7c-0.2,0.7-0.3,1.3-0.4,1.6l-0.3,1.4
			c-0.2,0.5-0.6,0.9-1.3,1.1c-0.7,0.2-1.2,0-1.5-0.5c-0.3-0.4-0.3-1,0-1.8c0.1-0.2,0.2-0.5,0.4-0.8c0.2-0.3,0.3-0.5,0.4-0.6
			c0.3-0.8,1.5-4.3,3.6-10.5c0.1-0.2,0.1-0.4,0.2-0.6c-0.1-0.1-0.2-0.2-0.3-0.3c-0.1-0.1-0.1-0.3-0.1-0.5c0-0.2-0.1-0.3-0.1-0.4
			c-0.1-0.3-1.1-3.1-3.2-8.5c-2.1-5.4-3.3-8.4-3.5-9.1c-0.3-0.8-1.4-4.8-3.5-12c-2.1-7.2-3.3-11.5-3.8-12.8
			c-0.2-0.5-0.3-0.8-0.3-0.9c-0.2-0.3-0.3-0.6-0.3-0.7c0-0.7,0.4-1.1,1.2-1.2C700.8,877.8,701.4,878.1,701.6,878.7z"/>
		<path class="st4" d="M796.7,892c0.1,0.7,0.2,1.6,0.3,2.7c0,0.4,0,1-0.1,1.7c-0.1,0.7-0.2,1.2-0.2,1.5l-0.1,1.6c0,1.1,0,2.1,0,3
			c0,0.9-0.2,2.2-0.4,3.9c-0.2,1.6-0.5,3.2-1,4.6c-0.4,1.4-1,3-1.8,4.9c-0.8,1.8-1.7,3.5-2.8,5c-1,1.5-2.5,2.6-4.5,3.2
			c-1.9,0.6-3.8,0.8-5.7,0.6c-1.9-0.2-3.5-0.8-4.8-1.7c-2.8-1.7-4.9-4-6.4-6.8c-0.9-1.9-1.7-4-2.4-6.4c-0.6-2.4-1-5.7-1-9.9
			c0-4.2,0.6-8.3,1.9-12.5c1.1-3.7,3.2-6.8,6.3-9.3c3.1-2.5,6-3.6,8.8-3.3c2.8,0.3,5.2,1.4,7.3,3.5c2.1,2.1,3.6,4.3,4.7,6.5
			c0.3,0.6,0.7,1.7,1.1,3.4C796.5,890,796.7,891.1,796.7,892L796.7,892z M793.8,891.9c-0.1-1.5-0.3-2.8-0.5-3.9
			c-0.8-4.1-2.5-7.1-5-9c-1.6-1.4-3.9-2-6.9-1.8c-3,0.2-5.4,1.2-7.1,3.1c-2.7,2.9-4.6,6.8-5.7,11.4c-1.1,4.7-1.6,8.6-1.5,11.8
			c0.1,3.2,0.9,6.3,2.4,9.3c1.5,2.8,3.4,5.3,5.9,7.4c2.5,2.1,4.9,3.1,7.3,3c2.2-0.2,4.3-1.7,6.3-4.4c2-2.7,3.5-5.6,4.2-8.7
			c0.5-2.3,0.8-5.4,0.8-9.3c0-1.3,0-2.5-0.1-3.6c0-0.3,0-0.7,0-1.1c0-0.4-0.1-0.8-0.1-1.1c0-0.3,0-0.6,0-0.8c0-0.2,0-0.4,0.1-0.6
			C793.9,893,793.8,892.5,793.8,891.9z"/>
		<path class="st4" d="M822.7,865.7c0.3-0.6,0.5-1.2,0.6-1.9c0.2-0.7,0.2-1.7-0.1-2.8c-0.3-1.1-0.9-2.1-1.8-3
			c-0.9-0.9-2.3-1.3-4.2-1.2c-1.9,0.1-3.2,0.9-4,2.4c-0.6,1.1-1.2,2.4-1.7,3.6c-0.5,1.3-0.9,2.5-1.1,3.5c-0.3,1-0.5,2.1-0.7,3.4
			c-0.2,1.2-0.3,2.1-0.4,2.7c0,0.6-0.1,1.4-0.1,2.4c-0.1,1-0.1,1.6-0.1,1.7c-0.1,2.2,0,8.2,0.3,18.1c0.1-0.1,0.3-0.1,0.4-0.1
			c1.6-0.3,2.9-0.6,3.8-0.7c0.4-0.1,1-0.2,1.7-0.4s1.1-0.2,1.2-0.2c0.1,0,0.2,0,0.3-0.1c0.2-0.1,0.3-0.1,0.5-0.1
			c0.8,0,1.5,0.2,2,0.7c0.5,0.5,0.7,1,0.5,1.5c-0.1,0.4-0.7,0.7-1.8,0.8l-2.5-0.1c-0.9-0.1-1.7,0-2.6,0.2c-1.3,0.2-2.4,0.4-3.4,0.7
			c0.3,10.5,0.6,17.2,0.9,20l0.2,2.3c0.1,1.3,0.2,2,0.2,2.1c-0.1,0.8-0.4,1.5-1,2c-0.6,0.5-1,0.6-1.4,0.2c-0.4-0.5-0.6-1.3-0.6-2.5
			c0-0.3,0-0.6,0.1-1.1c0.1-0.5,0.1-0.8,0.1-1c0.1-0.9-0.1-6.7-0.5-17.2c-0.1-1.5-0.1-2.8-0.2-4.1c-0.2,0.1-0.5,0.3-1,0.5
			c-0.7,0.4-1.3,0.7-1.8,0.8c-0.9,0.1-1.4-0.2-1.7-0.9c-0.3-0.7,0-1.3,0.8-1.8c0.5-0.3,1.5-0.6,3-0.9c0.1-0.1,0.4-0.1,0.7-0.2
			c-0.3-6.3-0.4-9.9-0.4-10.7c0.2-7.3,0.8-13.3,1.9-18.2c0.6-2.9,1.7-5.6,3.4-7.9c1.7-2.3,3.3-3.5,5-3.5c2.3,0,4.2,0.9,5.8,2.7
			c1.6,1.8,2.5,3.5,3,5.2c0.1,0.5,0.1,1.2,0,2.4c-0.1,1.1-0.4,1.8-0.7,2.1c-0.7,0.9-1.3,1.4-1.9,1.5c-0.6,0.1-1-0.2-1-0.8
			C822.1,867.2,822.3,866.5,822.7,865.7z"/>
		<path class="st4" d="M880.9,861.2c0,0.2-0.1,0.8-0.2,1.9c-0.1,1.2-0.3,4-0.5,8.3c-0.2,4.3-0.4,9.2-0.6,14.5
			c-0.2,5.3-0.3,8.4-0.3,9.1c-0.7,13.6-1,22.3-1,26.2c0.4,0.2,0.5,1.1,0.2,2.7c0,0.1,0,0.3-0.1,0.4c0.1,0.1,0.1,0.2,0.1,0.3
			c0.1,0.1,0.1,0.2,0.1,0.4s0,0.2,0,0.2c-0.1,0.3-0.4,0.6-1,0.9c-0.6,0.2-1,0.2-1.5-0.1c-0.3-0.1-0.5-0.3-0.6-0.6h-0.1l0.1-0.4
			c0-0.1,0-0.3,0.1-0.5c0-0.1,0-0.2,0.1-0.2c-0.1-0.2-0.1-0.4-0.1-0.5c-0.1-0.5-0.1-1,0-1.6c0-0.6,0.1-0.8,0.2-0.8
			c0.1-0.1,0.2-0.1,0.3-0.1c0.1-0.8,0.1-1.8,0.2-2.9c0.1-3.3,0.3-6.9,0.5-10.6c0.2-3.7,0.3-5.9,0.3-6.4c0.3-4,0.5-10.5,0.8-19.6
			c0.3-9,0.4-14.9,0.2-17.6c-0.1-0.9-0.1-1.4-0.1-1.7c-0.1-0.7-0.2-1.2-0.1-1.4c0.1-1.1,0.5-1.7,1.4-1.6
			C880.3,859.5,880.8,860,880.9,861.2z M903.2,860.9c0,0.2,0,0.8-0.1,1.9c-0.2,1.6-0.5,11.9-1,30.9c-0.3,13.8-0.4,22.4-0.3,25.9
			c0.1-0.1,0.2-0.3,0.3-0.4c-0.1,0.2-0.1,0.8,0,1.7c0.1,1,0.1,1.5-0.1,1.6c0.1,0.1,0.1,0.2,0.1,0.3c0,0.1,0,0.1,0,0.2
			c-0.1,0.3-0.4,0.6-1,0.9c-0.6,0.2-1,0.2-1.5,0.1c-0.4-0.3-0.6-0.6-0.6-1.1c0-0.1,0-0.2,0.1-0.5c0.1-0.2,0.1-0.4,0.2-0.4
			c0.1-0.4,0.2-2.2,0.2-5.4c0.1-3.2,0.2-6.6,0.3-10.3c0.1-3.7,0.2-5.7,0.2-6.2c0.1-2.6,0.2-6.1,0.3-10.4c-0.1-0.1-0.2-0.1-0.3-0.1
			c-0.3-0.1-0.5-0.2-0.6-0.2c-1.1-0.1-2.6-0.2-4.7-0.1c-4.9,0.1-8.9,0.5-12,1c-0.1,0-0.2,0-0.5,0c-0.3,0-0.5,0.1-0.6,0.1
			c-0.5,0.1-0.9,0.2-1,0.2c-0.8-0.1-1.2-0.6-1.2-1.4c0-0.8,0.4-1.3,1.2-1.5c0.1,0,0.6,0,1.3,0.1c1.8,0.2,4.7,0.2,8.8-0.1
			c3.1-0.2,5.7-0.4,7.6-0.7c0.7-0.1,1.2-0.1,1.3-0.1c0.3-0.1,0.6-0.2,0.8-0.2c0.1-1.5,0.1-3.2,0.1-4.9c0.1-8.1,0.1-14.1-0.1-17.8
			c0-0.9,0-1.4-0.1-1.6c-0.1-0.8-0.1-1.3-0.1-1.5c0.1-1.1,0.6-1.6,1.5-1.6C902.7,859.3,903.1,859.8,903.2,860.9z M902.1,919.2v-0.1
			V919.2z"/>
		<path class="st4" d="M913.7,878.7v0.9c0.1,1.1,0.8,4.2,2.1,9.4c1.3,5.2,2.4,8.9,3.1,11.2c0.5,1.8,1.9,5.6,4.2,11.3
			c2.1,5.1,3.4,8.3,4,9.6c1.3-4.1,2.2-6.9,2.7-8.5c0.9-2.9,2.2-8.1,3.9-15.5c1.7-7.4,2.6-12.3,2.7-14.7c0-0.7,0-1.1,0-1.4
			c0-0.7,0-1.1,0-1.3c0.3-1,0.8-1.5,1.7-1.4c0.8,0.1,1.2,0.7,1.2,1.8c0,0.2-0.1,0.7-0.3,1.6c-0.2,0.8-1.1,4.9-2.8,12.4
			c-1.6,7.5-2.6,12-3,13.6c-0.3,1.1-1.7,5.7-4.2,13.6c-2.5,7.9-3.8,12.5-4.1,13.7c-0.2,0.7-0.3,1.3-0.4,1.6l-0.3,1.4
			c-0.2,0.5-0.6,0.9-1.3,1.1c-0.7,0.2-1.2,0-1.5-0.5c-0.3-0.4-0.3-1,0-1.8c0.1-0.2,0.2-0.5,0.4-0.8c0.2-0.3,0.3-0.5,0.4-0.6
			c0.3-0.8,1.5-4.3,3.6-10.5c0.1-0.2,0.1-0.4,0.2-0.6c-0.1-0.1-0.2-0.2-0.3-0.3c-0.1-0.1-0.1-0.3-0.1-0.5c0-0.2-0.1-0.3-0.1-0.4
			c-0.1-0.3-1.1-3.1-3.2-8.5c-2.1-5.4-3.3-8.4-3.5-9.1c-0.3-0.8-1.4-4.8-3.5-12c-2.1-7.2-3.3-11.5-3.8-12.8
			c-0.2-0.5-0.3-0.8-0.3-0.9c-0.2-0.3-0.3-0.6-0.3-0.7c0-0.7,0.4-1.1,1.2-1.2C912.9,877.8,913.4,878.1,913.7,878.7z"/>
		<path class="st4" d="M948,877.3c0.1,0.1,0.1,0.6,0.1,1.3c0,0.5,0,2.9,0.1,7.1c0.1,4.2,0.1,8,0.1,11.2c0,3.2,0,6.1,0,8.5
			c-0.1,0.6-0.2,3.1-0.4,7.4c0.2,0.2,0.4,0.4,0.7,0.6c0.1,0,0.3,0.2,0.6,0.5c0.3,0.3,0.6,0.5,0.8,0.6c0.5,0.3,1.4,0.6,2.6,0.9
			c1.2,0.3,3.1,0.5,5.5,0.6c2.4,0.1,4.9-0.1,7.6-0.8c2.1-0.5,4.1-1.2,6-2.3c1.9-1.1,3.4-2.1,4.6-3.2c1.2-1.1,2.1-2.1,2.8-2.9
			c0.7-0.9,1.2-1.5,1.4-1.9c1-2.7,1.1-5.6,0.2-8.6c-0.5-1.8-1.3-3.6-2.6-5.2c-1.3-1.7-2.7-3.1-4.4-4.1c-1.9-1.1-4-1.8-6.3-2.3
			c-2.3-0.5-4.4-0.7-6.1-0.7c-1.7,0.1-3.3,0.2-4.7,0.4c-0.8,0.1-1.7,0.4-2.6,0.7c-0.2,0.1-0.6,0.2-1.1,0.5c-0.5,0.2-1,0.4-1.3,0.4
			c-1.1,0.3-2,0.4-2.6,0.2c-0.6-0.2-0.8-0.6-0.5-1.2c0.3-0.6,1.1-1.2,2.3-1.9c0.7-0.3,1.8-0.6,3.3-0.9c7.1-1.2,12.6-0.9,16.7,1
			c3.4,1.6,6.2,4.1,8.5,7.4c2.2,3.4,3.5,6.1,3.8,8.2c0.1,1.1,0,2.5-0.3,4.4c-0.3,1.9-1.1,3.7-2.2,5.5c-1.1,1.7-2.6,3.2-4.7,4.6
			c-2,1.4-4.2,2.4-6.6,2.9c-6.9,1.7-12.9,2-18.2,1c-0.7-0.1-1.5-0.4-2.5-0.8c-0.3-0.1-0.5-0.2-0.7-0.3c-0.2,4.3-0.4,8.3-0.5,12
			c-0.2,4.3-0.3,7-0.3,7.9c0.1,0.6,0.1,1.1,0.1,1.4c0.1,0.1,0.1,0.3,0.2,0.5c0,0.2,0,0.4,0,0.5c0,0.1,0,0.2,0,0.3
			c-0.1,0.4-0.4,0.8-1,1.1c-0.6,0.3-1,0.3-1.5,0c-0.4-0.3-0.6-0.7-0.6-1.4c0-0.2,0-0.4,0.2-0.7c0.1-0.3,0.1-0.5,0.1-0.6
			c0.1-0.5,0.2-2.6,0.5-6.4c0.2-3.8,0.5-7.8,0.7-12.1c0.1-1.7,0.2-3,0.3-4.1c-0.2-0.3-0.3-0.5-0.3-0.8c-0.1-0.6-0.1-1.1,0.1-1.4
			c0.1-0.2,0.2-0.3,0.3-0.4c0-0.1,0-0.2,0-0.3c0.3-3.1,0.4-8.7,0.3-17c-0.1-8.3-0.3-13.4-0.7-15.3c-0.1-0.4-0.2-0.7-0.3-1
			c-0.2-0.5-0.3-0.8-0.3-0.9c-0.1-0.7,0.3-1.2,1.2-1.4C947.2,876.3,947.8,876.5,948,877.3z"/>
		<path class="st4" d="M993.6,898.9c-1.7-0.5-2.8-1.1-3.5-1.6c-0.8-0.7-0.7-1.1,0.4-1.2c0.8-0.1,1.9-0.1,3.3,0.1
			c0.2-1.8,0.4-3.6,0.6-5.3c0.3-2.5,0.7-4.9,1.1-7.2c0.5-2.6,0.9-4.5,1.3-5.6c0.5-1.5,1.5-2.7,3.2-3.7c1.7-1,3-1.1,3.9-0.2
			c2.1,2.1,4,4.5,5.6,7.5c1.6,2.9,2.5,5.7,2.6,8.3c0.1,2.5-0.8,4.6-2.5,6.4c-1.7,1.8-3.5,2.9-5.5,3.4c-0.8,0.2-2.2,0.3-4.2,0.2
			c-1.9-0.1-3.4-0.2-4.4-0.4c-0.1,0.5-0.1,1-0.1,1.5c-0.6,9.7,0.2,16.3,2.3,19.8c0.6,0.9,1.6,1.1,3.1,0.8c1.5-0.3,2.8-1.1,3.9-2.2
			c0.8-0.7,1.6-1.9,2.4-3.6c0.5-0.9,0.9-1.9,1.2-3c0.1-0.3,0.3-0.8,0.5-1.5c0.2-0.7,0.3-1.1,0.3-1.3c0.5-1.4,1.3-2.2,2.3-2.4
			c0.5-0.1,0.8,0,0.9,0.4c0.3,0.7,0.1,1.8-0.5,3.5c0,0.1-0.5,1-1.4,2.9l-0.3,0.6c-0.1,0.4-0.3,0.7-0.4,1c-0.1,0.3-0.4,0.7-0.7,1.2
			s-0.6,1-0.9,1.4c-0.3,0.4-0.7,0.9-1.1,1.4c-0.4,0.5-0.9,1.1-1.5,1.6c-0.5,0.5-1.1,1-1.7,1.4c-1.3,0.9-2.7,1.2-4.3,0.9
			c-1.6-0.3-2.9-1-3.8-2.2c-1.3-1.8-2-4.5-2.2-8.1C993.4,908.5,993.4,903.6,993.6,898.9z M995.9,896.5c1.7,0.4,3.5,0.7,5.4,0.8
			c2.3,0.1,4.2-0.1,5.5-0.8c1.1-0.5,1.9-1.3,2.6-2.6c0.7-1.3,0.9-2.8,0.6-4.4c-0.6-4.5-2.7-8.8-6.4-13.1c-1.7-2-3.1-2.2-4.1-0.6
			c-0.3,0.5-0.5,0.9-0.7,1.4c-0.2,0.5-0.3,0.8-0.4,1.1c-0.1,0.3-0.1,0.6-0.2,1c-0.1,0.4-0.1,0.6-0.1,0.7c-1.1,4.6-1.9,10.1-2.4,16.5
			C995.8,896.5,995.9,896.5,995.9,896.5z"/>
		<path class="st4" d="M1022.8,876.3c0.1,0.2,0.1,0.7,0,1.4c-0.1,1.6-0.1,3.5-0.1,5.7c2-2.9,4.7-5.4,8.1-7.6
			c1.3-0.9,2.9-1.5,4.6-1.7c1.7-0.2,3.2,0,4.3,0.5c2.3,0.9,4,2.4,5.2,4.6c1.2,2.3,1.5,4.8,1,7.5c-0.3,1.6-1,3.2-2.2,4.7
			c-1.2,1.5-2.7,2.6-4.4,3.3c-2.1,0.7-4.2,1.2-6.4,1.3c-2.2,0.1-3.9,0.1-5.1-0.1c-0.6-0.1-1.1-0.2-1.6-0.3c1.7,2.4,4.7,6.4,9.1,11.9
			c1.5,1.9,5,6.9,10.7,15c0,0.1,0,0.1,0.1,0.2c0.1,0.1,0.1,0.1,0.1,0.2c0,0.1,0.1,0.2,0.2,0.2l0.5,0.6c0,0.3-0.2,0.6-0.7,0.9
			c-0.5,0.4-0.9,0.5-1.4,0.5c-0.4-0.1-0.7-0.2-0.8-0.4c0-0.1,0-0.2,0-0.4c0-0.2,0-0.3,0-0.4c-0.1-0.3-1.2-2.2-3.4-5.6
			c-2.2-3.4-3.6-5.6-4.3-6.5c-1.3-1.9-3.6-4.9-6.9-9c-3.3-4.1-5.4-6.7-6.3-7.7l-0.1-0.1c0,1.9,0,3,0,3.5c0,14.2,0,21.7,0.1,22.4
			c0.1,0.6,0.1,1,0.1,1.3l0.2,1.1c-0.1,0.5-0.4,0.9-1,1.2c-0.6,0.3-1,0.3-1.5,0c-0.4-0.3-0.6-0.7-0.6-1.4c0-0.1,0-0.3,0.1-0.6
			c0.1-0.3,0.1-0.5,0.2-0.6c0.1-0.5,0.1-2.1,0.2-4.9c0.1-2.8,0.1-5.8,0.2-8.9c0.1-3.2,0.1-4.9,0.1-5.2c0.1-2.6,0-6.8-0.1-12.8
			c-0.1-5.9-0.4-9.8-0.7-11.5c-0.1-0.6-0.1-1-0.2-1.2c-0.1-0.5-0.2-0.9-0.2-1c0.1-0.9,0.5-1.3,1.4-1.3
			C1022.2,875.1,1022.7,875.5,1022.8,876.3z M1022.8,888.8c0,0.5,0,1.1,0,1.8c0.4,0.1,0.8,0.3,1.3,0.7c0.2,0.1,0.4,0.3,0.6,0.6
			c0.2,0.3,0.3,0.4,0.4,0.5c0.4,0.3,1,0.7,1.7,1c0.7,0.3,2,0.6,3.7,0.9c1.7,0.3,3.5,0,5.5-0.7c1.9-0.5,3.5-1.5,4.8-2.9
			c1.4-1.4,2.3-2.7,2.8-3.9c0.5-1.1,0.7-2,0.7-2.5c0-2.3-0.7-4.2-2.1-5.9c-0.9-1-2-1.7-3.5-2.2c-1.4-0.5-2.9-0.5-4.2,0
			c-2.5,1-4.5,2.4-6.2,4.1c-1.7,1.7-2.9,3.3-3.7,4.7c-0.3,0.3-0.4,0.7-0.5,1.2c0,0.1,0,0.3,0,0.6c0,0.3-0.1,0.5-0.2,0.6
			c-0.1,0.7-0.4,1.1-0.9,1.3C1023,888.7,1022.9,888.7,1022.8,888.8z"/>
		<path class="st4" d="M1054.1,898.9c-1.7-0.5-2.8-1.1-3.5-1.6c-0.8-0.7-0.7-1.1,0.4-1.2c0.8-0.1,1.9-0.1,3.3,0.1
			c0.2-1.8,0.4-3.6,0.6-5.3c0.3-2.5,0.7-4.9,1.1-7.2c0.5-2.6,0.9-4.5,1.3-5.6c0.5-1.5,1.5-2.7,3.2-3.7c1.7-1,3-1.1,3.9-0.2
			c2.1,2.1,4,4.5,5.6,7.5c1.6,2.9,2.5,5.7,2.6,8.3c0.1,2.5-0.8,4.6-2.5,6.4c-1.7,1.8-3.5,2.9-5.5,3.4c-0.8,0.2-2.2,0.3-4.2,0.2
			c-1.9-0.1-3.4-0.2-4.4-0.4c-0.1,0.5-0.1,1-0.1,1.5c-0.6,9.7,0.2,16.3,2.3,19.8c0.6,0.9,1.6,1.1,3.1,0.8c1.5-0.3,2.8-1.1,3.9-2.2
			c0.8-0.7,1.6-1.9,2.4-3.6c0.5-0.9,0.9-1.9,1.2-3c0.1-0.3,0.3-0.8,0.5-1.5c0.2-0.7,0.3-1.1,0.3-1.3c0.5-1.4,1.3-2.2,2.3-2.4
			c0.5-0.1,0.8,0,0.9,0.4c0.3,0.7,0.1,1.8-0.5,3.5c0,0.1-0.5,1-1.4,2.9l-0.3,0.6c-0.1,0.4-0.3,0.7-0.4,1c-0.1,0.3-0.4,0.7-0.7,1.2
			s-0.6,1-0.9,1.4c-0.3,0.4-0.7,0.9-1.1,1.4c-0.4,0.5-0.9,1.1-1.5,1.6c-0.5,0.5-1.1,1-1.7,1.4c-1.3,0.9-2.7,1.2-4.3,0.9
			c-1.6-0.3-2.9-1-3.8-2.2c-1.3-1.8-2-4.5-2.2-8.1C1053.9,908.5,1053.9,903.6,1054.1,898.9z M1056.4,896.5c1.7,0.4,3.5,0.7,5.4,0.8
			c2.3,0.1,4.2-0.1,5.5-0.8c1.1-0.5,1.9-1.3,2.6-2.6c0.7-1.3,0.9-2.8,0.6-4.4c-0.6-4.5-2.7-8.8-6.4-13.1c-1.7-2-3.1-2.2-4.1-0.6
			c-0.3,0.5-0.5,0.9-0.7,1.4c-0.2,0.5-0.3,0.8-0.4,1.1c-0.1,0.3-0.1,0.6-0.2,1c-0.1,0.4-0.1,0.6-0.1,0.7c-1.1,4.6-1.9,10.1-2.4,16.5
			C1056.3,896.5,1056.4,896.5,1056.4,896.5z"/>
		<path class="st4" d="M1083.3,877.2c0,0.1-0.1,0.5-0.4,1.3c-0.4,1.3-0.8,4.7-1.1,10.2c-0.1,1.2-0.2,2.3-0.3,3.4
			c0.1-0.2,0.3-0.4,0.5-0.7c0.5-0.8,0.9-1.5,1.2-2.1c0.4-0.6,0.9-1.3,1.6-2.3c0.7-1,1.4-1.9,2.1-2.6c2.9-3.2,5.4-4.9,7.5-5.2
			c1.5-0.1,2.8,0.3,3.9,1.2c1.1,1,1.9,1.9,2.2,2.9c0.2,0.7,0.4,2.2,0.5,4.5c3.7-4.2,7.1-7.3,10-9.2c1.7-1.2,3.5-2,5.4-2.4
			c1.9-0.4,3.4-0.3,4.7,0.4c1.7,1.3,2.7,3.7,2.9,7.4c0.1,1.7-0.3,7.8-1,18.1c-0.7,10.3-1.1,15.7-1.1,16c-0.1,0.3-0.1,0.6,0,0.9
			l0.1,0.9v0.1c0,0.1,0,0.2,0,0.4s0,0.2,0,0.2c-0.1,0.4-0.4,0.7-1,1c-0.6,0.2-1,0.2-1.5-0.1c-0.4-0.3-0.6-0.7-0.6-1.3
			c0-0.1,0-0.3,0.2-0.6c0.1-0.3,0.2-0.4,0.2-0.5c0.1-0.8,0.6-5.3,1.4-13.5c0.8-8.2,1.3-13.1,1.4-14.8c0.1-2.7,0.1-4.7,0-6.2
			c-0.2-2.1-0.8-3.8-1.8-5.2c-1-1.4-2.1-2-3.3-1.6c-2.7,0.9-5.3,2.4-7.8,4.6c-2.5,2.2-4.4,4.3-5.8,6.2c-0.4,0.5-0.7,1-0.9,1.4
			c-0.3,0.7-0.5,1.1-0.6,1.2c-0.3,0.4-0.6,0.6-0.9,0.7c0.1,2.7,0.2,5.9,0.2,9.8c0.1,10.7,0,16.9-0.1,18.4c0,0.6,0,1.1,0,1.5
			c0.1,0.1,0.1,0.3,0.1,0.5c0,0.2,0,0.3,0,0.4c0,0.1,0.1,0.2,0.1,0.2c-0.1,0.3-0.4,0.6-1,0.9c-0.6,0.2-1.1,0.2-1.5-0.1
			c-0.4-0.2-0.6-0.6-0.5-1.1c0-0.2,0-0.4,0.1-0.7c0.1-0.2,0.2-0.4,0.2-0.5c0.2-0.9,0.5-6.1,0.9-15.4c0.3-6.8,0.4-11.5,0.4-14.1
			c-0.7-0.4-0.9-1.1-0.5-2c0.1-0.1,0.2-0.4,0.4-0.7c-0.2-2.1-0.6-3.7-1.1-5c-0.5-1.2-1.3-2-2.3-2.5c-1-0.5-2.2-0.4-3.4,0.2
			c-3.9,2.5-7,6.2-9.2,11.1c-0.3,0.7-0.5,1.2-0.6,1.5c-0.3,0.8-0.4,1.3-0.5,1.4c-0.5,0.7-1,1.1-1.5,1.1c0,1.3,0,2.4,0,3.3
			c0,1.7,0.2,5.8,0.5,12.1c0.4,6.4,0.6,10.2,0.8,11.6c0.1,0.7,0.1,1.2,0.2,1.4l0.2,1.2c-0.1,0.5-0.4,0.9-1,1.2c-0.6,0.3-1,0.3-1.5,0
			c-0.4-0.3-0.6-0.7-0.6-1.4c0-0.1,0-0.4,0.1-0.6c0.1-0.3,0.1-0.5,0.1-0.6c0.1-0.5,0-2.2,0-5.2c-0.1-3-0.2-6.1-0.4-9.4
			c-0.1-3.3-0.2-5.1-0.2-5.5c-0.1-5.7,0.1-14.4,0.6-26c0.1-0.1,0.1-0.2,0.1-0.6c0-0.3,0-0.5,0-0.6c0-0.5,0-0.9,0.1-1.1
			c0.3-0.9,0.9-1.2,1.8-1C1083,875.8,1083.3,876.3,1083.3,877.2z"/>
		<path class="st4" d="M1134.4,898.9c-1.7-0.5-2.8-1.1-3.5-1.6c-0.8-0.7-0.7-1.1,0.4-1.2c0.8-0.1,1.9-0.1,3.3,0.1
			c0.2-1.8,0.4-3.6,0.6-5.3c0.3-2.5,0.7-4.9,1.1-7.2c0.5-2.6,0.9-4.5,1.3-5.6c0.5-1.5,1.5-2.7,3.2-3.7c1.7-1,3-1.1,3.9-0.2
			c2.1,2.1,4,4.5,5.6,7.5c1.6,2.9,2.5,5.7,2.6,8.3c0.1,2.5-0.8,4.6-2.5,6.4c-1.7,1.8-3.5,2.9-5.5,3.4c-0.8,0.2-2.2,0.3-4.2,0.2
			c-1.9-0.1-3.4-0.2-4.4-0.4c-0.1,0.5-0.1,1-0.1,1.5c-0.6,9.7,0.2,16.3,2.3,19.8c0.6,0.9,1.6,1.1,3.1,0.8c1.5-0.3,2.8-1.1,3.9-2.2
			c0.8-0.7,1.6-1.9,2.4-3.6c0.5-0.9,0.9-1.9,1.2-3c0.1-0.3,0.3-0.8,0.5-1.5c0.2-0.7,0.3-1.1,0.3-1.3c0.5-1.4,1.3-2.2,2.3-2.4
			c0.5-0.1,0.8,0,0.9,0.4c0.3,0.7,0.1,1.8-0.5,3.5c0,0.1-0.5,1-1.4,2.9l-0.3,0.6c-0.1,0.4-0.3,0.7-0.4,1c-0.1,0.3-0.4,0.7-0.7,1.2
			s-0.6,1-0.9,1.4c-0.3,0.4-0.7,0.9-1.1,1.4c-0.4,0.5-0.9,1.1-1.5,1.6c-0.5,0.5-1.1,1-1.7,1.4c-1.3,0.9-2.7,1.2-4.3,0.9
			c-1.6-0.3-2.9-1-3.8-2.2c-1.3-1.8-2-4.5-2.2-8.1C1134.1,908.5,1134.1,903.6,1134.4,898.9z M1136.7,896.5c1.7,0.4,3.5,0.7,5.4,0.8
			c2.3,0.1,4.2-0.1,5.5-0.8c1.1-0.5,1.9-1.3,2.6-2.6c0.7-1.3,0.9-2.8,0.6-4.4c-0.6-4.5-2.7-8.8-6.4-13.1c-1.7-2-3.1-2.2-4.1-0.6
			c-0.3,0.5-0.5,0.9-0.7,1.4c-0.2,0.5-0.3,0.8-0.4,1.1c-0.1,0.3-0.1,0.6-0.2,1c-0.1,0.4-0.1,0.6-0.1,0.7c-1.1,4.6-1.9,10.1-2.4,16.5
			C1136.5,896.5,1136.6,896.5,1136.7,896.5z"/>
		<path class="st4" d="M1180.5,883.8c-0.1-1.1-0.5-2.1-1.1-3.1c-0.7-1-2-1.9-3.9-2.8c-1.9-0.8-4.1-1.1-6.6-1
			c-1.3,0.1-2.5,0.5-3.8,1.4c-1.3,0.9-2.4,1.9-3.2,3.1c-0.9,1.3-1.6,2.8-1.9,4.5c-0.3,1.7-0.2,3,0.3,4c1.1,1.5,2.6,3.1,4.5,4.8
			c2,1.6,3.7,3,5.2,4s3.4,2.2,5.6,3.6c2.3,1.4,3.6,2.2,4.1,2.5c3.3,2.2,6.1,4.3,8.2,6.2c2.9,2.7,4.1,5.2,3.8,7.5
			c-0.1,1.3-0.9,2.6-2.3,3.8c-1.4,1.2-3,2-4.7,2.4c-2.6,0.7-5.9,0.9-10,0.4c-4-0.5-7.1-1.6-9.2-3.4c-1.3-1.1-2.4-2.4-3.2-3.9
			c-0.8-1.5-1.3-2.8-1.5-4.1c-0.2-1.3-0.3-2.4-0.2-3.4c0-1,0.2-1.8,0.3-2.4c0.3-0.8,1-1.6,2-2.5c1.1-1,2-1.6,2.8-1.7
			c1.8-0.5,3.1-0.2,3.9,0.7c0.3,0.4,0.3,0.7-0.1,1l-3.3,1.3c-1.1,0.4-1.7,0.7-2,0.9c-0.5,0.4-1,1.2-1.5,2.5
			c-0.4,1.2-0.5,2.6-0.2,4.1c0.3,1.5,1.3,2.9,2.8,4.4c1.5,1.5,3.4,2.7,5.5,3.5c2.7,0.9,5.3,1.4,8,1.5c2.7,0.1,4.8-0.3,6.4-1.2
			c1.5-0.8,2.6-1.8,3.2-3c0.6-1.2,0.8-2.2,0.8-3.1c-0.1-0.9-0.3-1.5-0.7-1.9c-0.7-0.8-2-1.9-3.8-3.2c-1.8-1.4-3.6-2.7-5.4-3.9
			c-1.8-1.3-4.4-3-7.7-5.3c-3.3-2.3-5.9-4.1-8-5.6c-4.1-2.9-6-6.3-5.6-10.4c0.3-2.1,1-4.1,2.2-5.9c1.2-1.8,2.6-3,4.2-3.7
			c2-0.8,4.1-1.2,6.2-1.2c2.1,0,3.9,0.2,5.3,0.6c1.4,0.5,2.7,1,3.7,1.7c0.7,0.5,1.4,1.4,2.2,2.6c0.9,1.4,1.3,2.5,1.3,3.2
			c0.1,1.6-0.1,2.7-0.5,3.4c-0.4,0.7-0.8,0.7-1.3,0.1S1180.7,885.2,1180.5,883.8z"/>
		<path class="st4" d="M1202.2,860.3L1202.2,860.3c0.6-0.5,1-0.6,1.5-0.4c0.5,0.3,0.8,0.9,0.8,2c0.1,0.4,0,1-0.3,1.9
			c-0.1,0.1-0.2,0.4-0.3,0.9c-0.1,0.5-0.2,0.8-0.3,1c-0.1,0.2-0.2,0.5-0.4,0.9c-0.2,0.5-0.3,0.8-0.5,1.1c-0.1,0.2-0.3,0.5-0.5,0.9
			c-0.2,0.4-0.5,0.7-0.7,1c-0.2,0.3-0.5,0.5-0.9,0.8c-0.4,0.3-0.8,0.5-1.2,0.7c-1.3,0.8-2.5,0.4-3.5-1.1c-1-1.6-1.4-3.4-1.2-5.5
			c0.3-3.1,1.6-5.3,3.8-6.5c0.4-0.2,1-0.1,1.9,0.4c0.7,0.3,1.2,0.7,1.4,1.2C1202,859.8,1202.1,860.1,1202.2,860.3z M1199.5,861.3
			c-0.3-0.5-0.5-0.8-0.6-0.8c-0.5,0.1-1.1,1.1-1.7,3s-0.8,3.8-0.6,5.8c0.1,0.9,0.7,1,1.9,0.2c0.4-0.3,0.8-0.6,1.1-1
			c0.9-0.9,1.6-2.1,1.9-3.6c0.1-0.5,0.2-1.1,0.2-1.7c0-0.1,0-0.3-0.1-0.5c-0.1,0-0.3,0-0.4-0.1C1200.6,862.4,1200,862,1199.5,861.3z
			 M1201.5,877.7c0.1,0.2,0.1,0.7,0,1.4c0,1.1,0.1,4.6,0.3,10.6c0.2,6,0.3,9.6,0.3,10.6c0,0.5,0,2.7-0.1,6.6
			c-0.1,3.9-0.1,7.1-0.1,9.6c0,2.5,0,4.6,0,6.4c0.1,0.5,0.1,1,0.1,1.3l0.2,1.1c-0.1,0.5-0.4,0.9-1,1.2c-0.6,0.3-1,0.3-1.5,0
			c-0.4-0.3-0.6-0.7-0.6-1.4c0-0.1,0-0.3,0.1-0.6s0.1-0.5,0.2-0.6c0.1-0.5,0.2-2.1,0.2-4.9c0.1-2.8,0.2-5.9,0.3-9.1
			c0.1-3.2,0.2-5,0.2-5.1c0.1-2.5,0-6.8-0.2-12.8s-0.5-9.9-0.9-11.8c-0.1-0.5-0.2-0.9-0.3-1.1c-0.1-0.5-0.2-0.9-0.2-1
			c0-0.9,0.4-1.4,1.3-1.4C1200.7,876.5,1201.3,876.9,1201.5,877.7z"/>
		<path class="st4" d="M1230.5,883.8c-0.1-1.1-0.5-2.1-1.1-3.1c-0.7-1-2-1.9-3.9-2.8c-1.9-0.8-4.1-1.1-6.6-1
			c-1.3,0.1-2.5,0.5-3.8,1.4c-1.3,0.9-2.4,1.9-3.2,3.1c-0.9,1.3-1.6,2.8-1.9,4.5c-0.3,1.7-0.2,3,0.3,4c1.1,1.5,2.6,3.1,4.5,4.8
			c2,1.6,3.7,3,5.2,4s3.4,2.2,5.6,3.6c2.3,1.4,3.6,2.2,4.1,2.5c3.3,2.2,6.1,4.3,8.2,6.2c2.9,2.7,4.1,5.2,3.8,7.5
			c-0.1,1.3-0.9,2.6-2.3,3.8c-1.4,1.2-3,2-4.7,2.4c-2.6,0.7-5.9,0.9-10,0.4c-4-0.5-7.1-1.6-9.2-3.4c-1.3-1.1-2.4-2.4-3.2-3.9
			c-0.8-1.5-1.3-2.8-1.5-4.1c-0.2-1.3-0.3-2.4-0.2-3.4c0-1,0.2-1.8,0.3-2.4c0.3-0.8,1-1.6,2-2.5c1.1-1,2-1.6,2.8-1.7
			c1.8-0.5,3.1-0.2,3.9,0.7c0.3,0.4,0.3,0.7-0.1,1l-3.3,1.3c-1.1,0.4-1.7,0.7-2,0.9c-0.5,0.4-1,1.2-1.5,2.5
			c-0.4,1.2-0.5,2.6-0.2,4.1c0.3,1.5,1.3,2.9,2.8,4.4c1.5,1.5,3.4,2.7,5.5,3.5c2.7,0.9,5.3,1.4,8,1.5c2.7,0.1,4.8-0.3,6.4-1.2
			c1.5-0.8,2.6-1.8,3.2-3c0.6-1.2,0.8-2.2,0.8-3.1c-0.1-0.9-0.3-1.5-0.7-1.9c-0.7-0.8-2-1.9-3.8-3.2c-1.8-1.4-3.6-2.7-5.4-3.9
			c-1.8-1.3-4.4-3-7.7-5.3c-3.3-2.3-5.9-4.1-8-5.6c-4.1-2.9-6-6.3-5.6-10.4c0.3-2.1,1-4.1,2.2-5.9c1.2-1.8,2.6-3,4.2-3.7
			c2-0.8,4.1-1.2,6.2-1.2c2.1,0,3.9,0.2,5.3,0.6c1.4,0.5,2.7,1,3.7,1.7c0.7,0.5,1.4,1.4,2.2,2.6c0.9,1.4,1.3,2.5,1.3,3.2
			c0.1,1.6-0.1,2.7-0.5,3.4c-0.4,0.7-0.8,0.7-1.3,0.1S1230.7,885.2,1230.5,883.8z"/>
		<path class="st4" d="M1315.5,870.8c-0.5-2-0.8-3.1-0.9-3.3c-1.1-3.1-3.5-5.7-7.4-8c-1.2-0.7-2.5-1.1-3.9-1.2
			c-1.4-0.1-2.6,0.2-3.6,0.8c-2.4,1.4-4,3.8-4.9,7.2c-2.1,8.5-3.1,18-3,28.4c0.1,11.3,1.7,20.2,5,26.8c0.6,1.2,1.7,1.9,3.4,2.1
			c1.7,0.2,3.1-0.1,4.3-1c1.8-1.2,3.5-3.2,5-6.1c1.4-2.7,2.5-5.5,3.2-8.4c0.4-1.3,0.7-2.7,0.8-4.2c0.1-0.6,0.2-1.4,0.3-2.4
			c0.1-1,0.1-1.6,0.1-1.8c0.1-0.9,0.3-1.7,0.5-2.4c-0.1,0-0.2,0-0.3,0c-0.7-0.1-1.5-0.1-2.4,0c-2,0.2-3.6,0.4-4.8,0.6
			c-0.3,0.1-0.6,0.2-1.1,0.2c-0.4,0.1-0.8,0.2-0.9,0.2c-0.2,0-0.6,0-1.1,0c-0.8-0.2-1.2-0.7-1.2-1.4c0-0.8,0.4-1.2,1.2-1.5
			c0.1-0.1,1-0.1,2.6,0c2,0.1,4-0.1,6-0.4c1.3-0.2,2.1-0.3,2.5-0.4c0.1-0.1,0.3-0.1,0.4-0.1c0.1,0,0.2-0.1,0.3-0.1
			c0.7-0.1,1.3,0.1,1.8,0.6c0.5,0.5,0.6,1,0.4,1.6c-0.1,0.3-0.3,0.5-0.8,0.6c0.1,0.9,0,2.1-0.2,3.6c-0.1,0.7-0.4,2.1-0.9,4.2
			c-0.4,1.5-1,3.3-1.8,5.4c-0.8,2.1-2.2,4.8-4.2,7.9c-2,3.1-4.2,5.4-6.5,6.9c-1.3,0.7-2.8,0.6-4.7-0.4c-1.9-1-3.4-2.3-4.5-4
			c-0.9-1.5-1.8-3.7-2.5-6.6c-0.6-2.7-1-4.9-1.1-6.6c-0.3-3.9-0.4-6.8-0.5-8.9c-0.1-2-0.1-5.2,0-9.6c0.1-4.4,0.3-8.7,0.8-13
			c0.5-4.9,1.7-9.2,3.5-13.1c1.8-3.9,3.9-6.1,6.3-6.7c2.9-0.6,5.9,0.1,8.8,2c2.9,1.9,5.1,3.9,6.7,5.9c0.3,0.5,0.8,1.5,1.4,3
			c0.5,1.3,0.9,2.2,1,2.8c0.2,1.4,0.1,2.4-0.2,3c-0.3,0.6-0.8,0.7-1.4,0.2S1315.9,872.1,1315.5,870.8z"/>
		<path class="st4" d="M1329.7,876.3c0.1,0.2,0.1,0.7,0,1.4c-0.1,1.6-0.1,3.5-0.1,5.7c2-2.9,4.7-5.4,8.1-7.6
			c1.3-0.9,2.9-1.5,4.6-1.7c1.7-0.2,3.2,0,4.3,0.5c2.3,0.9,4,2.4,5.2,4.6c1.2,2.3,1.5,4.8,1,7.5c-0.3,1.6-1,3.2-2.2,4.7
			c-1.2,1.5-2.7,2.6-4.4,3.3c-2.1,0.7-4.2,1.2-6.4,1.3c-2.2,0.1-3.9,0.1-5.1-0.1c-0.6-0.1-1.1-0.2-1.6-0.3c1.7,2.4,4.7,6.4,9.1,11.9
			c1.5,1.9,5,6.9,10.7,15c0,0.1,0,0.1,0.1,0.2c0.1,0.1,0.1,0.1,0.1,0.2c0,0.1,0.1,0.2,0.2,0.2l0.5,0.6c0,0.3-0.2,0.6-0.7,0.9
			c-0.5,0.4-0.9,0.5-1.4,0.5c-0.4-0.1-0.7-0.2-0.8-0.4c0-0.1,0-0.2,0-0.4c0-0.2,0-0.3,0-0.4c-0.1-0.3-1.2-2.2-3.4-5.6
			c-2.2-3.4-3.6-5.6-4.3-6.5c-1.3-1.9-3.6-4.9-6.9-9c-3.3-4.1-5.4-6.7-6.3-7.7l-0.1-0.1c0,1.9,0,3,0,3.5c0,14.2,0,21.7,0.1,22.4
			c0.1,0.6,0.1,1,0.1,1.3l0.2,1.1c-0.1,0.5-0.4,0.9-1,1.2c-0.6,0.3-1,0.3-1.5,0c-0.4-0.3-0.6-0.7-0.6-1.4c0-0.1,0-0.3,0.1-0.6
			c0.1-0.3,0.1-0.5,0.2-0.6c0.1-0.5,0.1-2.1,0.2-4.9c0.1-2.8,0.1-5.8,0.2-8.9c0.1-3.2,0.1-4.9,0.1-5.2c0.1-2.6,0-6.8-0.1-12.8
			c-0.1-5.9-0.4-9.8-0.7-11.5c-0.1-0.6-0.1-1-0.2-1.2c-0.1-0.5-0.2-0.9-0.2-1c0.1-0.9,0.5-1.3,1.4-1.3
			C1329.1,875.1,1329.6,875.5,1329.7,876.3z M1329.7,888.8c0,0.5,0,1.1,0,1.8c0.4,0.1,0.8,0.3,1.3,0.7c0.2,0.1,0.4,0.3,0.6,0.6
			c0.2,0.3,0.3,0.4,0.4,0.5c0.4,0.3,1,0.7,1.7,1c0.7,0.3,2,0.6,3.7,0.9c1.7,0.3,3.5,0,5.5-0.7c1.9-0.5,3.5-1.5,4.8-2.9
			c1.4-1.4,2.3-2.7,2.8-3.9c0.5-1.1,0.7-2,0.7-2.5c0-2.3-0.7-4.2-2.1-5.9c-0.9-1-2-1.7-3.5-2.2c-1.4-0.5-2.9-0.5-4.2,0
			c-2.5,1-4.5,2.4-6.2,4.1c-1.7,1.7-2.9,3.3-3.7,4.7c-0.3,0.3-0.4,0.7-0.5,1.2c0,0.1,0,0.3,0,0.6c0,0.3-0.1,0.5-0.2,0.6
			c-0.1,0.7-0.4,1.1-0.9,1.3C1329.9,888.7,1329.8,888.7,1329.7,888.8z"/>
		<path class="st4" d="M1383.9,887.6c0,0.1,0,0.7-0.1,2c-0.1,3.1,0.2,7.9,0.9,14.2c0.5,5.3,1,9.4,1.4,12.3c0,0.1,0,0.4,0.1,0.9
			s0.1,0.9,0.1,1.1c0.2,1.1,0.3,1.7,0.3,1.8c-0.1,0.7-0.4,1.2-1,1.6c-0.6,0.4-1,0.5-1.5,0.1c-0.4-0.4-0.6-1.1-0.7-2.1
			c0-0.2,0-0.5,0.1-0.9c0.1-0.4,0.1-0.7,0.2-0.9c0.1-1.9,0-4.4-0.3-7.4c-0.5-5.4-1-10.4-1.5-15c-0.3,1.1-0.6,2.4-0.9,3.7
			c-0.4,1.9-0.9,3.9-1.4,5.8c-1.5,5.6-3.9,10.9-7,15.8c-1.3,2-2.6,3.6-4,4.7c-1.4,1.1-2.6,1.6-3.7,1.4c-1.3-0.2-2.4-0.8-3.2-1.9
			s-1.3-2-1.6-3c-0.8-2.5-1.4-5.8-1.8-10.1c-0.4-4.3-0.3-9.9,0.2-16.9c1-10.3,3.5-17.5,7.5-21.6c1.5-1.4,3.3-2,5.3-1.8
			c2,0.2,3.9,0.9,5.6,2.2c1.6,1.2,3.1,2.9,4.4,5.2c0.5,0.7,0.9,1.7,1.3,2.9c0.5,1.3,0.7,2.2,0.7,2.8c0,0.1,0,0.1,0,0.2
			c0.1,0.1,0.1,0.2,0.2,0.3c0.1,0.3,0.2,0.9,0.2,1.7C1383.9,887.1,1383.9,887.3,1383.9,887.6z M1380.5,884.8
			c-0.1-1.2-0.3-2.2-0.5-2.9c-0.5-1.5-1.4-3.1-2.8-4.9c-1.4-1.8-3.1-3-5.1-3.7c-1.5-0.5-3.3,0.4-5.3,2.7c-2,2.3-3.4,5.1-4.3,8.5
			c-2.1,7.8-3,16.3-2.6,25.6c0.1,3.6,0.7,7,1.6,10.1c0.4,1.3,0.9,2.4,1.6,3.3c0.7,0.9,1.4,1.4,2,1.4c0.7,0.1,1.6-0.3,2.7-1.2
			c1.1-0.9,2-2,2.7-3.5c4.7-8.6,7.8-17.3,9.2-26c0.2-1.2,0.4-2.3,0.5-3.3c0.1-0.3,0.1-0.7,0.1-1.2c0-0.4,0.1-0.8,0.1-1.1
			c0-0.3,0.1-0.6,0.1-0.8c0.1-0.3,0.1-0.5,0.2-0.8C1380.7,886.4,1380.6,885.7,1380.5,884.8z"/>
		<path class="st4" d="M1393.3,879.8c0.1,0.1,0.2,0.5,0.3,1.3c0.2,1,2.4,7.7,6.5,20c0.5,1.3,1.4,4.9,2.9,10.8c0.5,2,1,3.7,1.3,5.2
			c0.1-0.9,0.3-1.9,0.4-3c0.8-6.1,1.3-9.8,1.6-11.1c0.1-0.8,1-4.5,2.5-11c1.5-6.6,2.4-10.4,2.6-11.4c0.1-0.6,0.2-1,0.2-1.3l0.1-1.2
			c0.2-0.5,0.6-0.8,1.2-0.9c0.6-0.2,1.1-0.1,1.5,0.3c0.3,0.4,0.3,0.9,0.2,1.6c-0.1,0.1-0.2,0.3-0.3,0.6c-0.1,0.2-0.2,0.4-0.3,0.5
			c-0.6,1.5-2.3,7.8-5,18.8c-0.5,2.4-1.2,6.6-2,12.6c-0.8,6-1.2,9.9-1,11.8c0,0.5,0,0.9,0.1,1.2c0.1,0.5,0.2,0.9,0.2,1
			c-0.1,0.8-0.6,1.2-1.4,1.3c-0.4,0.1-0.7,0.1-1-0.2c-0.4-0.3-0.6-0.7-0.7-1.3c0-0.1,0-0.3,0.1-0.6c0.1-0.3,0.1-0.5,0.1-0.6
			c0.1-0.7-0.4-3.6-1.5-8.8c-1.1-5.2-1.7-8.3-2-9.4c-0.7-2.2-2-6.2-4-11.9c-2-5.7-3.5-9.5-4.3-11.3l-0.1-0.4
			c-0.1-0.3-0.2-0.6-0.3-0.7c-0.3-0.5-0.4-0.9-0.5-1c-0.1-0.9,0.2-1.4,1-1.6C1392.4,878.7,1393,879,1393.3,879.8z"/>
		<path class="st4" d="M1425.6,860.3L1425.6,860.3c0.6-0.5,1-0.6,1.5-0.4c0.5,0.3,0.8,0.9,0.8,2c0.1,0.4,0,1-0.3,1.9
			c-0.1,0.1-0.2,0.4-0.3,0.9c-0.1,0.5-0.2,0.8-0.3,1c-0.1,0.2-0.2,0.5-0.4,0.9c-0.2,0.5-0.3,0.8-0.5,1.1c-0.1,0.2-0.3,0.5-0.5,0.9
			c-0.2,0.4-0.5,0.7-0.7,1c-0.2,0.3-0.5,0.5-0.9,0.8c-0.4,0.3-0.8,0.5-1.2,0.7c-1.3,0.8-2.5,0.4-3.5-1.1c-1-1.6-1.4-3.4-1.2-5.5
			c0.3-3.1,1.6-5.3,3.8-6.5c0.4-0.2,1-0.1,1.9,0.4c0.7,0.3,1.2,0.7,1.4,1.2C1425.4,859.8,1425.5,860.1,1425.6,860.3z M1422.9,861.3
			c-0.3-0.5-0.5-0.8-0.6-0.8c-0.5,0.1-1.1,1.1-1.7,3s-0.8,3.8-0.6,5.8c0.1,0.9,0.7,1,1.9,0.2c0.4-0.3,0.8-0.6,1.1-1
			c0.9-0.9,1.6-2.1,1.9-3.6c0.1-0.5,0.2-1.1,0.2-1.7c0-0.1,0-0.3-0.1-0.5c-0.1,0-0.3,0-0.4-0.1C1424,862.4,1423.4,862,1422.9,861.3z
			 M1424.9,877.7c0.1,0.2,0.1,0.7,0,1.4c0,1.1,0.1,4.6,0.3,10.6c0.2,6,0.3,9.6,0.3,10.6c0,0.5,0,2.7-0.1,6.6
			c-0.1,3.9-0.1,7.1-0.1,9.6c0,2.5,0,4.6,0,6.4c0.1,0.5,0.1,1,0.1,1.3l0.2,1.1c-0.1,0.5-0.4,0.9-1,1.2c-0.6,0.3-1,0.3-1.5,0
			c-0.4-0.3-0.6-0.7-0.6-1.4c0-0.1,0-0.3,0.1-0.6s0.1-0.5,0.2-0.6c0.1-0.5,0.2-2.1,0.2-4.9c0.1-2.8,0.2-5.9,0.3-9.1
			c0.1-3.2,0.2-5,0.2-5.1c0.1-2.5,0-6.8-0.2-12.8s-0.5-9.9-0.9-11.8c-0.1-0.5-0.2-0.9-0.3-1.1c-0.1-0.5-0.2-0.9-0.2-1
			c0-0.9,0.4-1.4,1.3-1.4C1424.2,876.5,1424.7,876.9,1424.9,877.7z"/>
		<path class="st4" d="M1459.4,859.7c0.1,0.3,0.2,1,0.2,1.9c0.1,2.1,0.1,7.1,0.2,14.9c0.1,5.3,0.1,9.4,0,12.1
			c0.1,0.3,0.2,0.7,0.3,1.2c0.3,1.5,0.5,2.6,0.5,3.3c-0.1,1.4-0.3,2.4-0.6,3c0.1,2.1,0.2,4.8,0.5,8.1c0.1,0.4,0.1,0.9,0.1,1.4
			c0,0.5,0,0.9,0.1,1.4c0.5,8.4,0.9,13.7,1.2,15.9l0.1,0.7c0.1,0.5,0.1,0.8,0.1,1.1l0.3,1.7c-0.1,0.7-0.4,1.2-1,1.6
			c-0.6,0.4-1,0.5-1.5,0.1c-0.4-0.4-0.6-1.1-0.7-2c0-0.2,0-0.5,0.1-0.9c0.1-0.4,0.1-0.7,0.2-0.8c0-0.7-0.3-4.9-0.8-12.5
			c-0.3,0.7-0.7,1.4-1.1,2.2c-0.8,1.5-2.2,3.4-4.1,5.5c-2,2.1-4.1,3.6-6.2,4.5c-1.9,0.7-4,0.6-6.2-0.4c-2.3-1-4.1-2.4-5.4-4.1
			c-1.3-1.8-2.3-3.9-2.8-6.2c-0.4-1.9-0.7-4.1-1-6.6c-0.2-2.5-0.2-5.6,0.1-9.4c0.3-3.8,1-7.2,2.1-10.2c1.3-3.3,3.4-6,6.4-8
			c3-2.1,5.8-2.9,8.3-2.5c2.5,0.4,4.6,1.6,6.4,3.6c1.1,1.3,2,2.6,2.8,3.9c0-11.1-0.3-18.1-0.8-21c-0.1-0.7-0.3-1.2-0.4-1.6
			c-0.3-0.7-0.4-1.2-0.4-1.4c-0.1-1.1,0.2-1.8,1.1-2C1458.5,858.1,1459.1,858.5,1459.4,859.7z M1457.7,893c-0.1-1.5-0.2-2.7-0.4-3.6
			c-0.5-3.3-1.5-5.8-3.2-7.6c-1.3-1.5-3.2-2.5-5.5-3c-2.3-0.5-4.4-0.1-6.2,1.1c-2.7,1.8-4.8,4.6-6.2,8.3c-1.5,3.7-2.3,7.1-2.5,10.2
			c-0.3,3.3-0.1,7.1,0.6,11.4c0.7,4.3,2.1,7.7,4.2,10.2c1.6,1.7,3.7,2.4,6.3,2.2c2.6-0.2,4.9-1.1,6.8-2.7c2-1.7,3.6-4.1,4.9-7.4
			c0.3-0.9,0.6-1.9,0.7-2.9c0.1-0.4,0.2-0.9,0.3-1.6c0.1-0.7,0.1-1.1,0.1-1.2c0.1-1,0.4-1.8,0.8-2.3c-0.3-3.7-0.4-5.9-0.4-6.4
			c0-0.9,0-1.7,0-2.5C1457.8,894.6,1457.7,893.8,1457.7,893z"/>
		<path class="st4" d="M1494,887.6c0,0.1,0,0.7-0.1,2c-0.1,3.1,0.2,7.9,0.9,14.2c0.5,5.3,1,9.4,1.4,12.3c0,0.1,0,0.4,0.1,0.9
			s0.1,0.9,0.1,1.1c0.2,1.1,0.3,1.7,0.3,1.8c-0.1,0.7-0.4,1.2-1,1.6c-0.6,0.4-1,0.5-1.5,0.1c-0.4-0.4-0.6-1.1-0.7-2.1
			c0-0.2,0-0.5,0.1-0.9c0.1-0.4,0.1-0.7,0.2-0.9c0.1-1.9,0-4.4-0.3-7.4c-0.5-5.4-1-10.4-1.5-15c-0.3,1.1-0.6,2.4-0.9,3.7
			c-0.4,1.9-0.9,3.9-1.4,5.8c-1.5,5.6-3.9,10.9-7,15.8c-1.3,2-2.6,3.6-4,4.7c-1.4,1.1-2.6,1.6-3.7,1.4c-1.3-0.2-2.4-0.8-3.2-1.9
			s-1.3-2-1.6-3c-0.8-2.5-1.4-5.8-1.8-10.1c-0.4-4.3-0.3-9.9,0.2-16.9c1-10.3,3.5-17.5,7.5-21.6c1.5-1.4,3.3-2,5.3-1.8
			c2,0.2,3.9,0.9,5.6,2.2c1.6,1.2,3.1,2.9,4.4,5.2c0.5,0.7,0.9,1.7,1.3,2.9c0.5,1.3,0.7,2.2,0.7,2.8c0,0.1,0,0.1,0,0.2
			c0.1,0.1,0.1,0.2,0.2,0.3c0.1,0.3,0.2,0.9,0.2,1.7C1494,887.1,1494,887.3,1494,887.6z M1490.6,884.8c-0.1-1.2-0.3-2.2-0.5-2.9
			c-0.5-1.5-1.4-3.1-2.8-4.9c-1.4-1.8-3.1-3-5.1-3.7c-1.5-0.5-3.3,0.4-5.3,2.7c-2,2.3-3.4,5.1-4.3,8.5c-2.1,7.8-3,16.3-2.6,25.6
			c0.1,3.6,0.7,7,1.6,10.1c0.4,1.3,0.9,2.4,1.6,3.3c0.7,0.9,1.4,1.4,2,1.4c0.7,0.1,1.6-0.3,2.7-1.2c1.1-0.9,2-2,2.7-3.5
			c4.7-8.6,7.8-17.3,9.2-26c0.2-1.2,0.4-2.3,0.5-3.3c0.1-0.3,0.1-0.7,0.1-1.2c0-0.4,0.1-0.8,0.1-1.1c0-0.3,0.1-0.6,0.1-0.8
			c0.1-0.3,0.1-0.5,0.2-0.8C1490.8,886.4,1490.7,885.7,1490.6,884.8z"/>
		<path class="st4" d="M1507.4,876.3c0.1,0.2,0.1,0.7,0,1.4c-0.1,1.6-0.1,3.5-0.1,5.7c2-2.9,4.7-5.4,8.1-7.6
			c1.3-0.9,2.9-1.5,4.6-1.7c1.7-0.2,3.2,0,4.3,0.5c2.3,0.9,4,2.4,5.2,4.6c1.2,2.3,1.5,4.8,1,7.5c-0.3,1.6-1,3.2-2.2,4.7
			c-1.2,1.5-2.7,2.6-4.4,3.3c-2.1,0.7-4.2,1.2-6.4,1.3c-2.2,0.1-3.9,0.1-5.1-0.1c-0.6-0.1-1.1-0.2-1.6-0.3c1.7,2.4,4.7,6.4,9.1,11.9
			c1.5,1.9,5,6.9,10.7,15c0,0.1,0,0.1,0.1,0.2c0.1,0.1,0.1,0.1,0.1,0.2c0,0.1,0.1,0.2,0.2,0.2l0.5,0.6c0,0.3-0.2,0.6-0.7,0.9
			c-0.5,0.4-0.9,0.5-1.4,0.5c-0.4-0.1-0.7-0.2-0.8-0.4c0-0.1,0-0.2,0-0.4c0-0.2,0-0.3,0-0.4c-0.1-0.3-1.2-2.2-3.4-5.6
			c-2.2-3.4-3.6-5.6-4.3-6.5c-1.3-1.9-3.6-4.9-6.9-9c-3.3-4.1-5.4-6.7-6.3-7.7l-0.1-0.1c0,1.9,0,3,0,3.5c0,14.2,0,21.7,0.1,22.4
			c0.1,0.6,0.1,1,0.1,1.3l0.2,1.1c-0.1,0.5-0.4,0.9-1,1.2c-0.6,0.3-1,0.3-1.5,0c-0.4-0.3-0.6-0.7-0.6-1.4c0-0.1,0-0.3,0.1-0.6
			c0.1-0.3,0.1-0.5,0.2-0.6c0.1-0.5,0.1-2.1,0.2-4.9c0.1-2.8,0.1-5.8,0.2-8.9c0.1-3.2,0.1-4.9,0.1-5.2c0.1-2.6,0-6.8-0.1-12.8
			c-0.1-5.9-0.4-9.8-0.7-11.5c-0.1-0.6-0.1-1-0.2-1.2c-0.1-0.5-0.2-0.9-0.2-1c0.1-0.9,0.5-1.3,1.4-1.3
			C1506.8,875.1,1507.3,875.5,1507.4,876.3z M1507.4,888.8c0,0.5,0,1.1,0,1.8c0.4,0.1,0.8,0.3,1.3,0.7c0.2,0.1,0.4,0.3,0.6,0.6
			c0.2,0.3,0.3,0.4,0.4,0.5c0.4,0.3,1,0.7,1.7,1c0.7,0.3,2,0.6,3.7,0.9c1.7,0.3,3.5,0,5.5-0.7c1.9-0.5,3.5-1.5,4.8-2.9
			c1.4-1.4,2.3-2.7,2.8-3.9c0.5-1.1,0.7-2,0.7-2.5c0-2.3-0.7-4.2-2.1-5.9c-0.9-1-2-1.7-3.5-2.2c-1.4-0.5-2.9-0.5-4.2,0
			c-2.5,1-4.5,2.4-6.2,4.1c-1.7,1.7-2.9,3.3-3.7,4.7c-0.3,0.3-0.4,0.7-0.5,1.2c0,0.1,0,0.3,0,0.6c0,0.3-0.1,0.5-0.2,0.6
			c-0.1,0.7-0.4,1.1-0.9,1.3C1507.6,888.7,1507.5,888.7,1507.4,888.8z"/>
		<path class="st4" d="M1541.2,879.1c0,0.4-0.1,1.4-0.3,3.1c-0.7,6.4-1,13.4-1.1,21c-0.1,5.7,0.3,10.4,1.2,14.3
			c0.5,2.1,1.4,3.8,2.5,5.1c1.1,1.3,2.2,2.1,3.1,2.2c1,0.1,2.5-0.5,4.3-1.9c1.9-1.4,3.6-3.4,5-6.1c1.7-3.5,3.2-8.9,4.3-16.3
			c1.1-7.7,1.6-14.4,1.7-20.2c0-1.1,0-2.1,0-2.8c0-0.3,0-0.6,0-0.9c0-0.3-0.1-0.6-0.1-0.9c0-0.2,0-0.4,0-0.5c0-0.2,0-0.4,0.1-0.6
			c-0.1-0.3-0.1-0.5-0.1-0.6c0.1-0.7,0.6-1.1,1.5-1.1c0.9,0,1.3,0.4,1.4,1.1c0,0.1,0,0.2,0,0.3c0.1,0.4,0.1,0.9,0.1,1.4
			c-0.1,0.3-0.1,0.7-0.2,1.2c-0.1,0.5-0.1,0.8-0.2,1c-0.1,3.4-0.1,9.4,0,18.1c0.2,14.7,0.4,23,0.5,25c0.1,0.7,0.1,1.1,0.2,1.4
			c0.1,0.8,0.2,1.2,0.2,1.3c-0.1,0.5-0.4,0.9-1,1.2c-0.6,0.3-1.1,0.3-1.5,0c-0.4-0.3-0.6-0.8-0.6-1.5c0-0.1,0.1-0.4,0.2-0.7
			c0.1-0.3,0.2-0.5,0.2-0.6c0.1-0.5,0.1-2.3,0.1-5.4c0-3.2,0-6.5,0-10.1c0-3.5,0-5.4,0-5.7c0-0.9,0-1.8,0-2.9
			c-0.1,0.6-0.2,1.2-0.3,1.9c-0.9,5.5-2.4,10.6-4.4,15.4c-2,4.8-3.5,7.7-4.4,8.6c-1.8,1.7-3.9,2.6-6.4,2.6c-1.3,0-2.6-0.5-4-1.5
			s-2.4-2.4-3-4c-1.4-3.9-2.1-9.3-2.2-16.4c-0.1-3.6,0-7.9,0.2-12.9c0.2-5,0.2-7.6,0.2-7.9c0-1.3,0-2.2,0-2.6
			c-0.1-1.3-0.1-2.1,0-2.4c0.1-1.6,0.5-2.4,1.5-2.4C1540.7,876.6,1541.2,877.4,1541.2,879.1z"/>
		<path class="st4" d="M1576.4,877.2c0,0.1-0.1,0.5-0.4,1.3c-0.4,1.3-0.8,4.7-1.1,10.2c-0.1,1.2-0.2,2.3-0.3,3.4
			c0.1-0.2,0.3-0.4,0.5-0.7c0.5-0.8,0.9-1.5,1.2-2.1c0.4-0.6,0.9-1.3,1.6-2.3c0.7-1,1.4-1.9,2.1-2.6c2.9-3.2,5.4-4.9,7.5-5.2
			c1.5-0.1,2.8,0.3,3.9,1.2c1.1,1,1.9,1.9,2.2,2.9c0.2,0.7,0.4,2.2,0.5,4.5c3.7-4.2,7.1-7.3,10-9.2c1.7-1.2,3.5-2,5.4-2.4
			c1.9-0.4,3.4-0.3,4.7,0.4c1.7,1.3,2.7,3.7,2.9,7.4c0.1,1.7-0.3,7.8-1,18.1c-0.7,10.3-1.1,15.7-1.1,16c-0.1,0.3-0.1,0.6,0,0.9
			l0.1,0.9v0.1c0,0.1,0,0.2,0,0.4s0,0.2,0,0.2c-0.1,0.4-0.4,0.7-1,1c-0.6,0.2-1,0.2-1.5-0.1c-0.4-0.3-0.6-0.7-0.6-1.3
			c0-0.1,0-0.3,0.2-0.6c0.1-0.3,0.2-0.4,0.2-0.5c0.1-0.8,0.6-5.3,1.4-13.5c0.8-8.2,1.3-13.1,1.4-14.8c0.1-2.7,0.1-4.7,0-6.2
			c-0.2-2.1-0.8-3.8-1.8-5.2c-1-1.4-2.1-2-3.3-1.6c-2.7,0.9-5.3,2.4-7.8,4.6c-2.5,2.2-4.4,4.3-5.8,6.2c-0.4,0.5-0.7,1-0.9,1.4
			c-0.3,0.7-0.5,1.1-0.6,1.2c-0.3,0.4-0.6,0.6-0.9,0.7c0.1,2.7,0.2,5.9,0.2,9.8c0.1,10.7,0,16.9-0.1,18.4c0,0.6,0,1.1,0,1.5
			c0.1,0.1,0.1,0.3,0.1,0.5c0,0.2,0,0.3,0,0.4c0,0.1,0.1,0.2,0.1,0.2c-0.1,0.3-0.4,0.6-1,0.9c-0.6,0.2-1.1,0.2-1.5-0.1
			c-0.4-0.2-0.6-0.6-0.5-1.1c0-0.2,0-0.4,0.1-0.7c0.1-0.2,0.2-0.4,0.2-0.5c0.2-0.9,0.5-6.1,0.9-15.4c0.3-6.8,0.4-11.5,0.4-14.1
			c-0.7-0.4-0.9-1.1-0.5-2c0.1-0.1,0.2-0.4,0.4-0.7c-0.2-2.1-0.6-3.7-1.1-5c-0.5-1.2-1.3-2-2.3-2.5c-1-0.5-2.2-0.4-3.4,0.2
			c-3.9,2.5-7,6.2-9.2,11.1c-0.3,0.7-0.5,1.2-0.6,1.5c-0.3,0.8-0.4,1.3-0.5,1.4c-0.5,0.7-1,1.1-1.5,1.1c0,1.3,0,2.4,0,3.3
			c0,1.7,0.2,5.8,0.5,12.1c0.4,6.4,0.6,10.2,0.8,11.6c0.1,0.7,0.1,1.2,0.2,1.4l0.2,1.2c-0.1,0.5-0.4,0.9-1,1.2c-0.6,0.3-1,0.3-1.5,0
			c-0.4-0.3-0.6-0.7-0.6-1.4c0-0.1,0-0.4,0.1-0.6c0.1-0.3,0.1-0.5,0.1-0.6c0.1-0.5,0-2.2,0-5.2c-0.1-3-0.2-6.1-0.4-9.4
			c-0.1-3.3-0.2-5.1-0.2-5.5c-0.1-5.7,0.1-14.4,0.6-26c0.1-0.1,0.1-0.2,0.1-0.6c0-0.3,0-0.5,0-0.6c0-0.5,0-0.9,0.1-1.1
			c0.3-0.9,0.9-1.2,1.8-1C1576.1,875.8,1576.5,876.3,1576.4,877.2z"/>
		<path class="st4" d="M1677.7,859.9c-0.1,0.1-0.3,0.2-0.7,0.5c-0.4,0.3-0.7,0.5-1,0.8c-1.3,1.1-2.9,3.3-4.9,6.4
			c-2,3.1-3.5,6.5-4.6,10.1c-1.7,5.5-2.4,11.7-2.3,18.7c0.2,7.3,1.5,14,3.8,20.1c1.5,3.9,3.5,7.6,6,10.9c2.5,3.3,4.5,5.5,6,6.6
			c0.5,0.5,1.2,0.9,1.9,1.3c0.2,0.1,0.5,0.3,1,0.5c0.4,0.2,0.7,0.3,0.8,0.4c0.6,0.4,1,1,1.2,1.8c0.2,0.8,0,1.2-0.5,1.4
			c-0.6,0.2-1.5,0-2.6-0.7c-0.1-0.1-0.6-0.6-1.7-1.5c-0.8-0.7-1.7-1.5-2.8-2.5s-2.5-2.7-4.4-5.1c-1.9-2.4-3.4-4.8-4.6-7.1
			c-2.7-5.3-4.4-11-5.1-17c-1.1-8.6-1-16.2,0.3-22.8c0.9-4.5,2.3-8.7,4.2-12.8c2-4,3.8-7.2,5.5-9.4c0.1-0.2,0.4-0.5,0.8-0.9
			c0.4-0.4,0.6-0.6,0.7-0.6c0.6-0.7,1-1.2,1.3-1.4c1.1-0.7,2-0.6,2.5,0.1C1679,858.2,1678.7,859,1677.7,859.9z"/>
		<path class="st4" d="M1697,861.2c0,0.2-0.1,0.8-0.2,1.9c-0.1,1.2-0.3,4-0.5,8.3c-0.2,4.3-0.4,9.2-0.6,14.5
			c-0.2,5.3-0.3,8.4-0.3,9.1c-0.7,13.6-1,22.3-1,26.2c0.4,0.2,0.5,1.1,0.2,2.7c0,0.1,0,0.3-0.1,0.4c0.1,0.1,0.1,0.2,0.1,0.3
			c0.1,0.1,0.1,0.2,0.1,0.4s0,0.2,0,0.2c-0.1,0.3-0.4,0.6-1,0.9c-0.6,0.2-1,0.2-1.5-0.1c-0.3-0.1-0.5-0.3-0.6-0.6h-0.1l0.1-0.4
			c0-0.1,0-0.3,0.1-0.5c0-0.1,0-0.2,0.1-0.2c-0.1-0.2-0.1-0.4-0.1-0.5c-0.1-0.5-0.1-1,0-1.6c0-0.6,0.1-0.8,0.2-0.8
			c0.1-0.1,0.2-0.1,0.3-0.1c0.1-0.8,0.1-1.8,0.2-2.9c0.1-3.3,0.3-6.9,0.5-10.6c0.2-3.7,0.3-5.9,0.3-6.4c0.3-4,0.5-10.5,0.8-19.6
			c0.3-9,0.4-14.9,0.2-17.6c-0.1-0.9-0.1-1.4-0.1-1.7c-0.1-0.7-0.2-1.2-0.1-1.4c0.1-1.1,0.5-1.7,1.4-1.6
			C1696.4,859.5,1696.9,860,1697,861.2z M1719.3,860.9c0,0.2,0,0.8-0.1,1.9c-0.2,1.6-0.5,11.9-1,30.9c-0.3,13.8-0.4,22.4-0.3,25.9
			c0.1-0.1,0.2-0.3,0.3-0.4c-0.1,0.2-0.1,0.8,0,1.7c0.1,1,0.1,1.5-0.1,1.6c0.1,0.1,0.1,0.2,0.1,0.3c0,0.1,0,0.1,0,0.2
			c-0.1,0.3-0.4,0.6-1,0.9c-0.6,0.2-1,0.2-1.5,0.1c-0.4-0.3-0.6-0.6-0.6-1.1c0-0.1,0-0.2,0.1-0.5c0.1-0.2,0.1-0.4,0.2-0.4
			c0.1-0.4,0.2-2.2,0.2-5.4c0.1-3.2,0.2-6.6,0.3-10.3c0.1-3.7,0.2-5.7,0.2-6.2c0.1-2.6,0.2-6.1,0.3-10.4c-0.1-0.1-0.2-0.1-0.3-0.1
			c-0.3-0.1-0.5-0.2-0.6-0.2c-1.1-0.1-2.6-0.2-4.7-0.1c-4.9,0.1-8.9,0.5-12,1c-0.1,0-0.2,0-0.5,0c-0.3,0-0.5,0.1-0.6,0.1
			c-0.5,0.1-0.9,0.2-1,0.2c-0.8-0.1-1.2-0.6-1.2-1.4c0-0.8,0.4-1.3,1.2-1.5c0.1,0,0.6,0,1.3,0.1c1.8,0.2,4.7,0.2,8.8-0.1
			c3.1-0.2,5.7-0.4,7.6-0.7c0.7-0.1,1.2-0.1,1.3-0.1c0.3-0.1,0.6-0.2,0.8-0.2c0.1-1.5,0.1-3.2,0.1-4.9c0.1-8.1,0.1-14.1-0.1-17.8
			c0-0.9,0-1.4-0.1-1.6c-0.1-0.8-0.1-1.3-0.1-1.5c0.1-1.1,0.6-1.6,1.5-1.6C1718.8,859.3,1719.3,859.8,1719.3,860.9z M1718.2,919.2
			v-0.1V919.2z"/>
		<path class="st4" d="M1757.2,870.8c-0.5-2-0.8-3.1-0.9-3.3c-1.1-3.1-3.5-5.7-7.4-8c-1.2-0.7-2.5-1.1-3.9-1.2
			c-1.4-0.1-2.6,0.2-3.6,0.8c-2.4,1.4-4,3.8-4.9,7.2c-2.1,8.5-3.1,18-3,28.4c0.1,11.3,1.7,20.2,5,26.8c0.6,1.2,1.7,1.9,3.4,2.1
			c1.7,0.2,3.1-0.1,4.3-1c1.8-1.2,3.5-3.2,5-6.1c1.4-2.7,2.5-5.5,3.2-8.4c0.4-1.3,0.7-2.7,0.8-4.2c0.1-0.6,0.2-1.4,0.3-2.4
			c0.1-1,0.1-1.6,0.1-1.8c0.1-0.9,0.3-1.7,0.5-2.4c-0.1,0-0.2,0-0.3,0c-0.7-0.1-1.5-0.1-2.4,0c-2,0.2-3.6,0.4-4.8,0.6
			c-0.3,0.1-0.6,0.2-1.1,0.2c-0.4,0.1-0.8,0.2-0.9,0.2c-0.2,0-0.6,0-1.1,0c-0.8-0.2-1.2-0.7-1.2-1.4c0-0.8,0.4-1.2,1.2-1.5
			c0.1-0.1,1-0.1,2.6,0c2,0.1,4-0.1,6-0.4c1.3-0.2,2.1-0.3,2.5-0.4c0.1-0.1,0.3-0.1,0.4-0.1c0.1,0,0.2-0.1,0.3-0.1
			c0.7-0.1,1.3,0.1,1.8,0.6c0.5,0.5,0.6,1,0.4,1.6c-0.1,0.3-0.3,0.5-0.8,0.6c0.1,0.9,0,2.1-0.2,3.6c-0.1,0.7-0.4,2.1-0.9,4.2
			c-0.4,1.5-1,3.3-1.8,5.4c-0.8,2.1-2.2,4.8-4.2,7.9c-2,3.1-4.2,5.4-6.5,6.9c-1.3,0.7-2.8,0.6-4.7-0.4c-1.9-1-3.4-2.3-4.5-4
			c-0.9-1.5-1.8-3.7-2.5-6.6c-0.6-2.7-1-4.9-1.1-6.6c-0.3-3.9-0.4-6.8-0.5-8.9c-0.1-2-0.1-5.2,0-9.6c0.1-4.4,0.3-8.7,0.8-13
			c0.5-4.9,1.7-9.2,3.5-13.1c1.8-3.9,3.9-6.1,6.3-6.7c2.9-0.6,5.9,0.1,8.8,2c2.9,1.9,5.1,3.9,6.7,5.9c0.3,0.5,0.8,1.5,1.4,3
			c0.5,1.3,0.9,2.2,1,2.8c0.2,1.4,0.1,2.4-0.2,3c-0.3,0.6-0.8,0.7-1.4,0.2S1757.6,872.1,1757.2,870.8z"/>
		<path class="st4" d="M1766.1,858.3c0.5,0.2,1.3,0.7,2.2,1.4c1.8,1.4,3.9,3.5,6.3,6.3c2.4,2.8,4.4,5.9,5.9,9.4
			c2.3,5.3,3.7,11.7,4.2,19.1c0.5,7.4-0.1,14.1-1.8,20c-0.4,1.2-0.8,2.4-1.2,3.6c-0.4,1.2-0.9,2.4-1.5,3.5c-0.5,1.1-1,2.2-1.5,3.1
			s-1,1.9-1.6,2.9c-0.6,1-1,1.8-1.4,2.3c-0.3,0.5-0.7,1.2-1.2,1.9c-0.5,0.7-0.7,1.1-0.8,1.2c-0.1,0.1-0.3,0.4-0.6,0.9
			c-0.3,0.5-0.6,0.9-0.7,1.2c-0.7,1.2-1.1,1.8-1.2,1.8c-0.5,0.7-1.2,1-2,1.1s-1.2-0.1-1.3-0.8c0-0.6,0.4-1.4,1.2-2.5
			c0.1-0.2,0.4-0.5,0.8-0.9c0.4-0.4,0.6-0.6,0.8-0.8c0.9-1.1,3.2-6.1,6.8-14.9c3.6-8.8,5.4-14,5.5-15.5c0.6-8-0.2-15.3-2.3-22
			c-1.3-4.1-3.2-7.8-5.8-11.1c-2.5-3.4-4.7-5.7-6.6-7.1c-0.5-0.4-1.1-0.7-1.7-1c-1.1-0.5-1.6-0.7-1.7-0.8c-0.8-0.4-1.2-0.9-1.3-1.5
			c-0.1-0.6,0.1-0.9,0.6-1.1S1765.2,858,1766.1,858.3z"/>
	</g>
</g>
<g id="temp">
</g>
<g id="hand">
</g>
<g id="Nails">
</g>
<g id="test">
</g>
<g id="Ebene_9">
</g>
</svg>
