<?xml version="1.0" encoding="utf-8"?>
<!-- Generator: Adobe Illustrator 28.0.0, SVG Export Plug-In . SVG Version: 6.00 Build 0)  -->
<svg version="1.1" xmlns="http://www.w3.org/2000/svg" xmlns:xlink="http://www.w3.org/1999/xlink" x="0px" y="0px"
	 viewBox="0 0 1920 1080" style="enable-background:new 0 0 1920 1080;" xml:space="preserve">
<style type="text/css">
	.st0{fill:#FFEBFF;}
	.st1{fill:#FFF0FF;}
	.st2{fill:#333333;}
	.st3{fill:none;}
	.st4{fill:#42210B;}
	.st5{opacity:0.56;}
	.st6{fill:url(#);}
	.st7{opacity:4.000000e-02;}
	.st8{opacity:2.000000e-02;}
	.st9{fill:#FFFAFF;}
	.st10{fill:#E8DAEA;}
	.st11{fill:#FFFFFF;}
	.st12{fill:#FACCFF;}
	.st13{fill:#F297FF;}
	.st14{fill:#F0FAEB;}
	.st15{fill:#D7E4C1;}
	.st16{fill:#F57F80;}
	.st17{fill:#B7294E;}
	.st18{fill:#E56A75;}
	.st19{fill:#D45063;}
	.st20{fill:#E46672;}
	.st21{fill:#45272A;}
	.st22{fill:#F2885A;}
	.st23{fill:#710731;}
	.st24{fill:#E25F4D;}
	.st25{fill:#48282B;}
	.st26{fill:#FDAE7B;}
	.st27{fill:#F8A977;}
	.st28{fill:#F69969;}
	.st29{fill:#FABF96;}
	.st30{fill:#F9B68A;}
	.st31{fill:#F27C58;}
	.st32{fill:#F7A06F;}
	.st33{fill:#F59062;}
	.st34{fill:#D54645;}
	.st35{fill:#F48C5E;}
	.st36{fill:#FEFEFE;}
	.st37{fill:#343341;}
	.st38{fill:#2A2938;}
	.st39{fill:#0A0A0A;}
	.st40{fill:#242332;}
	.st41{fill:#FAC099;}
	.st42{fill:#45272B;}
	.st43{fill:#F48C60;}
	.st44{fill:#ED7655;}
	.st45{fill:#FDAE7C;}
	.st46{fill:#E25C4D;}
	.st47{fill:#F9B78A;}
	.st48{fill:#D54444;}
	.st49{fill:#F9A977;}
	.st50{fill:#FAFAFA;}
	.st51{fill:#F4895B;}
	.st52{fill:#F79885;}
	.st53{fill:none;stroke:#42210B;stroke-width:3;stroke-linecap:round;stroke-miterlimit:10;}
	.st54{fill:none;stroke:#42210B;stroke-width:2;stroke-linecap:round;stroke-miterlimit:10;}
	.st55{fill:#00D023;}
	.st56{opacity:0.44;fill:#B8274E;}
	.st57{opacity:0.31;fill:#F79885;}
	.st58{opacity:0.44;fill:#42210B;}
	.st59{fill:none;stroke:#FFFFFF;stroke-miterlimit:10;}
	.st60{fill:none;stroke:#FF176C;stroke-width:4;stroke-miterlimit:10;}
	.st61{fill:none;stroke:#FF176C;stroke-width:4;stroke-miterlimit:10;stroke-dasharray:12.0245,10.0204;}
	.st62{fill:none;stroke:#42210B;stroke-linecap:round;stroke-miterlimit:10;}
	.st63{opacity:0.43;fill:#FACCFF;stroke:#FFFFFF;stroke-width:3;stroke-miterlimit:10;}
	.st64{fill:#FF176C;}
	.st65{fill:#FCD6CE;}
	.st66{fill:none;stroke:#E8DAEA;stroke-width:2;stroke-miterlimit:10;}
	.st67{fill:#FFFAFF;stroke:#E8DAEA;stroke-miterlimit:10;}
	.st68{fill:#FFFFFF;stroke:#666666;stroke-miterlimit:10;}
	.st69{fill:#FCFCFC;stroke:#808080;stroke-width:0.75;stroke-miterlimit:10;}
	.st70{opacity:0.54;fill:#E6E6E6;stroke:#808080;stroke-miterlimit:10;}
</style>
<g id="BG_Kopie">
	<g>
		<rect y="550" class="st0" width="1920" height="1080"/>
	</g>
</g>
<g id="Face_Kopie">
	<ellipse class="st11" cx="958.9" cy="494.6" rx="271.8" ry="334.8"/>
</g>
<g id="BG">
	<g>
		<rect class="st0" width="1920" height="1080"/>
	</g>
	<g>
		<rect x="146" y="963.2" class="st3" width="1646.2" height="110.3"/>
		<path class="st4" d="M695.3,966.6c0,0,0.3,0,0.7,0c0.5,0,5.2-0.3,14.3-1.2c1-0.1,3.6-0.2,7.8-0.2c4.2,0,6.6,0,7.3,0
			c0,0,0.2,0,0.4,0c0.2,0,0.3,0,0.4,0c0.4,0,0.7,0.1,0.7,0.1c0.2,0.1,0.4,0.4,0.4,0.8c0,0.4-0.1,0.8-0.4,1.1
			c-0.2,0.2-0.5,0.3-0.8,0.2c0,0-0.1-0.1-0.3-0.2c-0.1-0.1-0.2-0.1-0.3-0.1c-0.4-0.1-2.3-0.3-5.8-0.5c-3.5-0.2-5.6-0.2-6.3-0.2
			c-0.7,0-1.5,0-2.5,0.1c0.1,0.2,0.2,0.5,0.3,0.9c0,0.1-0.1,0.6-0.2,1.2c-0.2,1.2-0.4,4-0.6,8.7c-0.2,4.6-0.4,8-0.4,10.2
			c0,1.2-0.1,4.5-0.1,10.1c0,5.6,0,8.9,0.1,10c0,0.5,0.1,0.9,0.1,1.2l0.1,1.1c0,0.4-0.3,0.8-0.7,1c-0.4,0.3-0.8,0.3-1.1,0
			c-0.3-0.2-0.4-0.7-0.4-1.3c0-0.1,0-0.3,0.1-0.6c0.1-0.2,0.1-0.4,0.1-0.5c0-0.5,0.1-3.5,0.2-8.9c0.1-5.4,0.1-8.1,0.1-8.3
			c0.4-12.6,0.6-20,0.6-22.2c0-0.7,0-1,0-1.1c0-0.5,0-0.8,0-0.9c0-0.2,0.1-0.4,0.1-0.6c-1.3,0.1-2.9,0.3-4.7,0.5
			c-4.2,0.4-6.9,0.8-8.1,1.1c-0.4,0.1-0.7,0.1-0.7,0.1c-0.3,0.1-0.5,0.1-0.6,0.1c-0.5,0-0.8-0.4-0.8-1
			C694.5,967,694.8,966.7,695.3,966.6z"/>
		<path class="st4" d="M738.6,965.3c0,0.1,0,0.6-0.1,1.4c-0.1,0.9-0.2,2.9-0.4,6c-0.1,3.1-0.3,6.6-0.4,10.4c-0.1,3.8-0.2,6-0.2,6.6
			c-0.5,9.8-0.7,16.1-0.7,18.9c0.3,0.1,0.3,0.8,0.1,1.9c0,0.1,0,0.2-0.1,0.3c0,0,0.1,0.1,0.1,0.2c0,0.1,0.1,0.2,0.1,0.3
			c0,0.1,0,0.1,0,0.2c0,0.2-0.3,0.4-0.7,0.6c-0.4,0.2-0.8,0.2-1,0c-0.2-0.1-0.3-0.2-0.4-0.4h-0.1l0.1-0.3c0-0.1,0-0.2,0.1-0.4
			c0-0.1,0-0.1,0.1-0.1c0-0.1-0.1-0.3-0.1-0.4c0-0.3-0.1-0.7,0-1.1c0-0.4,0.1-0.6,0.1-0.6c0.1,0,0.2-0.1,0.2-0.1
			c0-0.6,0.1-1.3,0.1-2.1c0.1-2.4,0.2-4.9,0.3-7.6c0.1-2.7,0.2-4.2,0.3-4.6c0.2-2.9,0.4-7.6,0.6-14.1c0.2-6.5,0.3-10.7,0.2-12.7
			c0-0.6-0.1-1-0.1-1.2c-0.1-0.5-0.1-0.9-0.1-1c0-0.8,0.4-1.2,1-1.2C738.1,964.1,738.5,964.5,738.6,965.3z M754.6,965.1
			c0,0.1,0,0.6-0.1,1.4c-0.1,1.2-0.4,8.6-0.7,22.2c-0.2,9.9-0.3,16.2-0.2,18.6c0-0.1,0.1-0.2,0.2-0.3c-0.1,0.1-0.1,0.6,0,1.2
			c0.1,0.7,0.1,1.1-0.1,1.2c0,0.1,0.1,0.2,0.1,0.2c0,0,0,0.1,0,0.1c0,0.2-0.3,0.4-0.7,0.6c-0.4,0.2-0.8,0.2-1,0
			c-0.3-0.2-0.4-0.5-0.4-0.8c0,0,0-0.2,0.1-0.3c0-0.2,0.1-0.3,0.1-0.3c0-0.3,0.1-1.6,0.2-3.9c0.1-2.3,0.1-4.8,0.2-7.4
			c0.1-2.6,0.1-4.1,0.1-4.5c0.1-1.9,0.2-4.4,0.2-7.5c0,0-0.1-0.1-0.2-0.1c-0.2-0.1-0.3-0.1-0.4-0.1c-0.8-0.1-1.9-0.1-3.4-0.1
			c-3.5,0.1-6.4,0.3-8.6,0.7c0,0-0.2,0-0.4,0c-0.2,0-0.3,0-0.4,0c-0.4,0.1-0.6,0.1-0.7,0.1c-0.6-0.1-0.9-0.4-0.9-1
			c0-0.6,0.3-0.9,0.9-1c0.1,0,0.4,0,0.9,0.1c1.3,0.1,3.4,0.1,6.3-0.1c2.3-0.1,4.1-0.3,5.5-0.5c0.5,0,0.8-0.1,0.9-0.1
			c0.2-0.1,0.4-0.1,0.6-0.1c0-1.1,0.1-2.3,0.1-3.5c0.1-5.9,0.1-10.1-0.1-12.8c0-0.6,0-1-0.1-1.2c0-0.6-0.1-0.9-0.1-1.1
			c0.1-0.8,0.5-1.1,1.1-1.1C754.2,964,754.6,964.4,754.6,965.1z M753.8,1007.1L753.8,1007.1L753.8,1007.1z"/>
		<path class="st4" d="M760.1,965.6c0.1,0,0.4,0,0.9,0c0.8,0,2.5-0.1,5.1-0.3c0.2-0.3,0.5-0.4,0.9-0.4c0.2,0,0.3,0.1,0.4,0.2
			c2.9-0.2,4.8-0.4,5.5-0.5c0.5-0.1,0.8-0.1,0.9-0.1l0.8-0.1c0.3,0,0.6,0.3,0.8,0.7c0.2,0.4,0.2,0.8,0,1c-0.2,0.3-0.6,0.4-0.9,0.4
			c-0.1,0-0.2,0-0.4-0.1c-0.2,0-0.3-0.1-0.4-0.1c-0.9-0.1-2-0.2-3.4-0.1c-0.9,0-1.7,0.1-2.5,0.2c0,0.2-0.1,0.5-0.2,1
			c-0.3,1.1-0.6,4.1-0.9,9s-0.4,8.3-0.4,10.3c0,1.6,0.1,5.2,0.2,10.7c0.1,5.6,0.2,8.9,0.3,10.1c0,0.6,0.1,1,0.1,1.2l0.1,1.1
			c0,0.1,0,0.2-0.1,0.3c0.2,0,0.5-0.1,0.7-0.1c2.4-0.1,4.1-0.3,5.3-0.4c0.4,0,0.7-0.1,0.9-0.1l0.7-0.1c0.3,0,0.5,0.3,0.8,0.7
			c0.2,0.4,0.2,0.8,0,1c-0.2,0.3-0.5,0.4-0.9,0.4c-0.1,0-0.2,0-0.4-0.1c-0.2,0-0.3-0.1-0.3-0.1c-0.8-0.1-1.8-0.1-3.2-0.1
			c-3.4,0-6.1,0.3-8.4,0.6c-0.4,0.1-0.7,0.1-0.7,0.1c-0.3,0.1-0.6,0.1-0.7,0.1c-0.6,0-0.9-0.4-0.9-1c0-0.6,0.3-1,0.8-1.1
			c0.1,0,0.4,0,0.9,0c0.7,0.1,1.8,0.1,3.4,0.1c0-0.2-0.1-0.4-0.1-0.6c0-0.1,0-0.3,0.1-0.5c0.1-0.3,0.1-0.4,0.1-0.5
			c0-1,0.1-2.6,0-4.8c0-2.2,0-4.8-0.1-7.8c0-3,0-4.7,0-5c0-1.4,0.2-5.3,0.4-11.7c0.2-6.3,0.3-10.1,0.3-11.2c0,0,0-0.2,0-0.5
			c0-0.3,0-0.5,0-0.6c0-0.1,0-0.2,0-0.2c-1.5,0.1-2.9,0.4-4.1,0.6c-0.4,0.1-0.7,0.2-0.7,0.2c-0.4,0.1-0.6,0.1-0.7,0.1
			c-0.6,0-0.9-0.3-1-0.9C759.3,966.2,759.5,965.8,760.1,965.6z"/>
		<path class="st4" d="M799.8,972.3c-0.2-0.8-0.6-1.7-1.2-2.7c-0.5-0.9-1.3-1.8-2.4-2.9c-1.1-1.1-2.4-2-3.9-2.7
			c-0.9-0.5-1.9-0.7-3-0.8c-1.1,0-2,0.2-2.9,0.7c-0.8,0.4-1.5,1.2-2.2,2.2c-0.6,1-1,2.1-1.1,3.3c-0.2,2.1,0.2,4,1,5.9
			c0.9,1.9,2.1,3.5,3.6,4.8c0.8,0.7,1.6,1.4,2.4,2c0.8,0.6,1.7,1.2,2.8,1.9c1,0.7,1.6,1,1.7,1.1c0.1,0,0.4,0.3,0.9,0.6
			s0.9,0.7,1.3,0.9c0.4,0.3,0.9,0.6,1.4,1c0.6,0.4,1.2,0.9,1.8,1.4c0.6,0.5,1.2,1.1,1.7,1.7c1.6,1.7,2.8,3.8,3.7,6.2
			c0.9,2.5,1.2,5,0.9,7.6c-0.2,1.4-0.9,2.7-2.1,3.9c-1.2,1.2-2.5,2-4,2.4c-1.4,0.4-2.8,0.4-4.2,0.2c-1.4-0.3-2.7-0.8-3.7-1.5
			c-1.8-1.3-3.2-2.8-4.2-4.4c-1-1.6-1.5-3-1.7-4.1c-0.1-0.9,0-1.9,0.4-3c0.5-1.4,1.1-2.3,1.7-2.7c0.7-0.5,1.3-0.7,1.7-0.6
			c0.4,0,0.6,0.2,0.8,0.5l0.1,0.4l-1.4,1.6c-0.7,0.8-1.1,1.4-1.3,1.9c0,0.3-0.1,0.8-0.1,1.3c0,0.6,0.1,1.3,0.4,2.3s0.7,2,1.4,2.9
			c1,1.5,2.6,2.7,4.9,3.5c2.7,1,4.9,0.9,6.4-0.3c1.6-1.2,2.7-2.7,3.2-4.8c0.6-2,0.6-4,0.1-5.8c-0.6-2.3-1.7-4.2-3.3-5.8
			c-0.7-0.8-2.1-1.9-4.3-3.5c-2.1-1.5-4.5-3.3-7-5.4c-2.5-2-4.7-4-6.6-6c-1-1-1.6-2.4-1.9-4c-0.3-1.7-0.3-3.3,0.1-4.9
			c0.5-1.9,1.3-3.5,2.5-4.9c1.2-1.3,2.4-2,3.7-2c3.7,0,7.3,1.7,10.7,5.1c0.5,0.5,1.1,1.3,1.8,2.4c0.7,1.1,1,1.9,1.1,2.4
			c0.2,1.1,0.2,1.9-0.1,2.3c-0.2,0.5-0.6,0.5-1,0.1C800.4,973.9,800,973.3,799.8,972.3z"/>
		<path class="st4" d="M835.2,965.6c0.1,0,0.4,0,0.9,0c0.8,0,2.5-0.1,5.1-0.3c0.2-0.3,0.5-0.4,0.9-0.4c0.2,0,0.3,0.1,0.4,0.2
			c2.9-0.2,4.8-0.4,5.5-0.5c0.5-0.1,0.8-0.1,0.9-0.1l0.8-0.1c0.3,0,0.6,0.3,0.8,0.7c0.2,0.4,0.2,0.8,0,1c-0.2,0.3-0.6,0.4-0.9,0.4
			c-0.1,0-0.2,0-0.4-0.1c-0.2,0-0.3-0.1-0.4-0.1c-0.9-0.1-2-0.2-3.4-0.1c-0.9,0-1.7,0.1-2.5,0.2c0,0.2-0.1,0.5-0.2,1
			c-0.3,1.1-0.6,4.1-0.9,9s-0.4,8.3-0.4,10.3c0,1.6,0.1,5.2,0.2,10.7c0.1,5.6,0.2,8.9,0.3,10.1c0,0.6,0.1,1,0.1,1.2l0.1,1.1
			c0,0.1,0,0.2-0.1,0.3c0.2,0,0.5-0.1,0.7-0.1c2.4-0.1,4.1-0.3,5.3-0.4c0.4,0,0.7-0.1,0.9-0.1l0.7-0.1c0.3,0,0.5,0.3,0.8,0.7
			c0.2,0.4,0.2,0.8,0,1c-0.2,0.3-0.5,0.4-0.9,0.4c-0.1,0-0.2,0-0.4-0.1c-0.2,0-0.3-0.1-0.3-0.1c-0.8-0.1-1.8-0.1-3.2-0.1
			c-3.4,0-6.1,0.3-8.4,0.6c-0.4,0.1-0.7,0.1-0.7,0.1c-0.3,0.1-0.6,0.1-0.7,0.1c-0.6,0-0.9-0.4-0.9-1c0-0.6,0.3-1,0.8-1.1
			c0.1,0,0.4,0,0.9,0c0.7,0.1,1.8,0.1,3.4,0.1c0-0.2-0.1-0.4-0.1-0.6c0-0.1,0-0.3,0.1-0.5c0.1-0.3,0.1-0.4,0.1-0.5
			c0-1,0.1-2.6,0-4.8c0-2.2,0-4.8-0.1-7.8c0-3,0-4.7,0-5c0-1.4,0.2-5.3,0.4-11.7c0.2-6.3,0.3-10.1,0.3-11.2c0,0,0-0.2,0-0.5
			c0-0.3,0-0.5,0-0.6c0-0.1,0-0.2,0-0.2c-1.5,0.1-2.9,0.4-4.1,0.6c-0.4,0.1-0.7,0.2-0.7,0.2c-0.4,0.1-0.6,0.1-0.7,0.1
			c-0.6,0-0.9-0.3-1-0.9C834.3,966.2,834.6,965.8,835.2,965.6z"/>
		<path class="st4" d="M874.9,972.3c-0.2-0.8-0.6-1.7-1.2-2.7c-0.5-0.9-1.3-1.8-2.4-2.9c-1.1-1.1-2.4-2-3.9-2.7
			c-0.9-0.5-1.9-0.7-3-0.8c-1.1,0-2,0.2-2.9,0.7c-0.8,0.4-1.5,1.2-2.2,2.2c-0.6,1-1,2.1-1.1,3.3c-0.2,2.1,0.2,4,1,5.9
			c0.9,1.9,2.1,3.5,3.6,4.8c0.8,0.7,1.6,1.4,2.4,2c0.8,0.6,1.7,1.2,2.8,1.9c1,0.7,1.6,1,1.7,1.1c0.1,0,0.4,0.3,0.9,0.6
			s0.9,0.7,1.3,0.9c0.4,0.3,0.9,0.6,1.4,1c0.6,0.4,1.2,0.9,1.8,1.4c0.6,0.5,1.2,1.1,1.7,1.7c1.6,1.7,2.8,3.8,3.7,6.2
			c0.9,2.5,1.2,5,0.9,7.6c-0.2,1.4-0.9,2.7-2.1,3.9c-1.2,1.2-2.5,2-4,2.4c-1.4,0.4-2.8,0.4-4.2,0.2c-1.4-0.3-2.7-0.8-3.7-1.5
			c-1.8-1.3-3.2-2.8-4.2-4.4c-1-1.6-1.5-3-1.7-4.1c-0.1-0.9,0-1.9,0.4-3c0.5-1.4,1.1-2.3,1.7-2.7c0.7-0.5,1.3-0.7,1.7-0.6
			c0.4,0,0.6,0.2,0.8,0.5l0.1,0.4l-1.4,1.6c-0.7,0.8-1.1,1.4-1.3,1.9c0,0.3-0.1,0.8-0.1,1.3c0,0.6,0.1,1.3,0.4,2.3s0.7,2,1.4,2.9
			c1,1.5,2.6,2.7,4.9,3.5c2.7,1,4.9,0.9,6.4-0.3c1.6-1.2,2.7-2.7,3.2-4.8c0.6-2,0.6-4,0.1-5.8c-0.6-2.3-1.7-4.2-3.3-5.8
			c-0.7-0.8-2.1-1.9-4.3-3.5c-2.1-1.5-4.5-3.3-7-5.4c-2.5-2-4.7-4-6.6-6c-1-1-1.6-2.4-1.9-4c-0.3-1.7-0.3-3.3,0.1-4.9
			c0.5-1.9,1.3-3.5,2.5-4.9c1.2-1.3,2.4-2,3.7-2c3.7,0,7.3,1.7,10.7,5.1c0.5,0.5,1.1,1.3,1.8,2.4c0.7,1.1,1,1.9,1.1,2.4
			c0.2,1.1,0.2,1.9-0.1,2.3c-0.2,0.5-0.6,0.5-1,0.1C875.4,973.9,875.1,973.3,874.9,972.3z"/>
		<path class="st4" d="M918.8,964.6c0,0,0,0.3,0,0.8c0,0.2,0,0.7,0,1.5c0,0.1,0.1,0.2,0.1,0.2c0,0.1,0.2,0.5,0.4,1.2
			c0.2,0.7,0.9,2.3,1.9,4.7c1,2.4,2.2,5,3.4,7.7c1.2,2.7,2,4.4,2.2,4.9c0.3,0.8,1.4,4,3.3,9.6c1,2.9,1.7,5.1,2.3,6.8
			c0.2-0.8,0.5-1.8,0.9-2.8c1.1-3.9,1.9-6.7,2.4-8.4c0.7-2.7,1.7-6.9,3-12.6c1.3-5.7,2-9,2-10.2c0-0.2,0-0.4,0-0.6
			c0-0.2-0.1-0.3-0.1-0.4c0.1-0.3,0.5-0.4,1.2-0.3c0.6,0.1,0.9,0.3,0.9,0.6c0,0,0,0.2-0.1,0.4c0.1,0,0.3-0.1,0.4-0.1
			c0.6,0,1,0.4,1,1.2c0,0.1,0,0.6-0.1,1.2c-0.1,1-0.3,7.2-0.7,18.6c-0.3,10.6-0.4,17.1-0.3,19.7c0,0.5,0,0.9,0.1,1.2l0.1,1
			c0,0.4-0.3,0.8-0.7,1c-0.4,0.3-0.8,0.3-1.1,0c-0.3-0.2-0.4-0.7-0.4-1.3c0-0.1,0-0.3,0.1-0.5c0-0.2,0.1-0.4,0.1-0.5
			c0.1-0.6,0.2-3.5,0.4-8.7c0.2-5.2,0.3-7.9,0.3-8.1c0.1-2.4,0.2-6.3,0.3-11.4c0.1-5.2,0.1-8.6,0-10.2c0-0.6-0.1-0.9-0.1-1.1
			c0,0,0-0.1,0-0.1c-0.2,0.7-0.4,1.6-0.6,2.7c-0.6,2.4-1.3,5.2-2,8.3c-0.7,3.1-1.2,5-1.4,5.8c-0.2,1-1.1,4.3-2.6,10
			c-1.1,4-1.8,6.8-2.1,8.2c0,0.1,0,0.2,0.1,0.2c0.1,0.3,0.3,0.7,0.6,1c0,0.1,0.1,0.2,0.3,0.4c0.1,0.2,0.2,0.3,0.3,0.4
			c0.1,0.3,0.1,0.7-0.1,1.2c-0.2,0.4-0.5,0.6-0.9,0.6c-0.4,0-0.7-0.3-1-0.9c-0.1-0.1-0.2-0.4-0.2-0.6c0-0.1-0.1-0.2-0.1-0.3
			l-0.1-0.1c-0.4-0.2-0.7-0.4-0.9-0.6c0,0-0.1-0.1-0.2-0.2c-0.1,0-0.1,0-0.1,0c0,0,0,0,0.1-0.1c0.1,0,0.1-0.1,0.1-0.1
			c0,0,0.2-0.4,0.4-0.9c-0.2-0.6-0.4-1.4-0.7-2.4c-0.9-2.7-1.7-5.3-2.5-7.8c-0.8-2.5-1.3-4-1.5-4.4c-0.7-1.8-2.1-5.2-4.4-10.2
			c-1.6-3.5-2.8-6.2-3.7-8c0,1.3,0.1,2.8,0.1,4.5c0.1,6.4,0.2,10.2,0.2,11.6c0,3.5-0.3,11.4-0.9,24c0,0,0,0.1,0,0.3
			c0,0.1,0,0.2,0,0.3c0,0.1,0,0.2,0,0.2v0.6c-0.1,0.2-0.4,0.4-0.8,0.4c-0.4,0-0.8-0.1-1.1-0.3c-0.2-0.2-0.3-0.5-0.2-0.6
			c0,0,0-0.1,0.1-0.3c0.1-0.1,0.1-0.2,0.2-0.3c0.1-0.4,0.4-3.2,0.7-8.5c0.3-5.3,0.5-8.7,0.6-10.2c0-3.1,0-8-0.1-14.8
			c-0.1-4.4-0.3-7.6-0.4-9.8c-0.2-0.3-0.4-0.6-0.4-0.7c-0.1-0.6-0.1-1,0.2-1.2c0-0.2,0-0.4-0.1-0.6c0-0.3-0.1-0.6-0.1-0.7
			c-0.1-0.3-0.2-0.5-0.2-0.6c0-0.4,0.4-0.7,1-0.8C918.3,963.9,918.6,964.1,918.8,964.6z"/>
		<path class="st4" d="M949.3,962.2l0.1,0.5c0.1,0.6,1.1,2.6,3,5.9c1.8,3.3,3.3,5.9,4.3,7.7c0.8,1.3,2.4,3.9,4.9,7.6
			c2.4,3.7,3.8,5.9,4.2,6.3c0.2-0.8,0.4-1.3,0.4-1.4c4.9-13.4,7.7-21,8.1-22.8c0.2-0.6,0.3-0.9,0.3-1.1c0.1-0.6,0.2-0.9,0.3-1.1
			c0.3-0.7,0.8-1,1.4-0.8c0.6,0.2,0.8,0.7,0.6,1.5c0,0.1-0.2,0.6-0.5,1.2c-1.3,2.8-3.8,9.3-7.5,19.3c-0.4,1.1-1.3,4.4-2.7,9.8
			c-1.4,5.4-2.4,9.3-3,11.7c0,0.1,0,0.2-0.1,0.3c0,0.1-0.1,0.3-0.2,0.5c-0.1,0.2-0.1,0.3-0.1,0.4c-0.2,0.7-0.3,1.1-0.4,1.2
			c-0.2,0.4-0.6,0.6-1.1,0.6c-0.5,0-0.8-0.2-0.9-0.5c-0.1-0.3,0-0.7,0.2-1.2c0-0.1,0.1-0.3,0.3-0.5c0.1-0.2,0.2-0.3,0.3-0.5
			c0.3-0.5,1.2-3.5,2.7-9.1c0.6-2.4,1.1-4.2,1.5-5.6c-0.2,0-0.3,0-0.4-0.1c0,0-0.1-0.1-0.1-0.3c0-0.1,0-0.2,0-0.3
			c-0.1-0.2-1.2-2-3.5-5.5c-2.2-3.5-3.4-5.4-3.7-5.8c-5.9-10.3-9.1-15.8-9.6-16.5c-0.2-0.3-0.3-0.4-0.4-0.4
			c-0.1-0.2-0.2-0.3-0.3-0.4c0-0.4,0.2-0.7,0.8-0.9C948.7,961.9,949.1,962,949.3,962.2z"/>
		<path class="st4" d="M1016.5,965.3c0,0.1,0,0.6-0.1,1.4c-0.1,0.9-0.2,2.9-0.4,6c-0.1,3.1-0.3,6.6-0.4,10.4c-0.1,3.8-0.2,6-0.2,6.6
			c-0.5,9.8-0.7,16.1-0.7,18.9c0.3,0.1,0.3,0.8,0.1,1.9c0,0.1,0,0.2-0.1,0.3c0,0,0.1,0.1,0.1,0.2c0,0.1,0.1,0.2,0.1,0.3
			c0,0.1,0,0.1,0,0.2c0,0.2-0.3,0.4-0.7,0.6c-0.4,0.2-0.8,0.2-1,0c-0.2-0.1-0.3-0.2-0.4-0.4h-0.1l0.1-0.3c0-0.1,0-0.2,0.1-0.4
			c0-0.1,0-0.1,0.1-0.1c0-0.1-0.1-0.3-0.1-0.4c0-0.3-0.1-0.7,0-1.1c0-0.4,0.1-0.6,0.1-0.6c0.1,0,0.2-0.1,0.2-0.1
			c0-0.6,0.1-1.3,0.1-2.1c0.1-2.4,0.2-4.9,0.3-7.6c0.1-2.7,0.2-4.2,0.3-4.6c0.2-2.9,0.4-7.6,0.6-14.1c0.2-6.5,0.3-10.7,0.2-12.7
			c0-0.6-0.1-1-0.1-1.2c-0.1-0.5-0.1-0.9-0.1-1c0-0.8,0.4-1.2,1-1.2C1016,964.1,1016.4,964.5,1016.5,965.3z M1032.5,965.1
			c0,0.1,0,0.6-0.1,1.4c-0.1,1.2-0.4,8.6-0.7,22.2c-0.2,9.9-0.3,16.2-0.2,18.6c0-0.1,0.1-0.2,0.2-0.3c-0.1,0.1-0.1,0.6,0,1.2
			c0.1,0.7,0.1,1.1-0.1,1.2c0,0.1,0.1,0.2,0.1,0.2c0,0,0,0.1,0,0.1c0,0.2-0.3,0.4-0.7,0.6c-0.4,0.2-0.8,0.2-1,0
			c-0.3-0.2-0.4-0.5-0.4-0.8c0,0,0-0.2,0.1-0.3c0-0.2,0.1-0.3,0.1-0.3c0-0.3,0.1-1.6,0.2-3.9c0.1-2.3,0.1-4.8,0.2-7.4
			c0.1-2.6,0.1-4.1,0.1-4.5c0.1-1.9,0.2-4.4,0.2-7.5c0,0-0.1-0.1-0.2-0.1c-0.2-0.1-0.3-0.1-0.4-0.1c-0.8-0.1-1.9-0.1-3.4-0.1
			c-3.5,0.1-6.4,0.3-8.6,0.7c0,0-0.2,0-0.4,0c-0.2,0-0.3,0-0.4,0c-0.4,0.1-0.6,0.1-0.7,0.1c-0.6-0.1-0.9-0.4-0.9-1
			c0-0.6,0.3-0.9,0.9-1c0.1,0,0.4,0,0.9,0.1c1.3,0.1,3.4,0.1,6.3-0.1c2.3-0.1,4.1-0.3,5.5-0.5c0.5,0,0.8-0.1,0.9-0.1
			c0.2-0.1,0.4-0.1,0.6-0.1c0-1.1,0.1-2.3,0.1-3.5c0.1-5.9,0.1-10.1-0.1-12.8c0-0.6,0-1-0.1-1.2c0-0.6-0.1-0.9-0.1-1.1
			c0.1-0.8,0.5-1.1,1.1-1.1C1032.2,964,1032.5,964.4,1032.5,965.1z M1031.8,1007.1L1031.8,1007.1L1031.8,1007.1z"/>
		<path class="st4" d="M1059.8,972.3c-0.4-1.4-0.6-2.2-0.6-2.4c-0.8-2.2-2.5-4.1-5.3-5.8c-0.9-0.5-1.8-0.8-2.8-0.9
			c-1,0-1.9,0.1-2.6,0.6c-1.7,1-2.9,2.7-3.5,5.2c-1.5,6.1-2.3,13-2.2,20.4c0,8.1,1.2,14.5,3.6,19.3c0.4,0.9,1.2,1.4,2.4,1.5
			c1.2,0.1,2.2-0.1,3.1-0.7c1.3-0.9,2.5-2.3,3.6-4.4c1-1.9,1.8-3.9,2.3-6c0.3-1,0.5-2,0.6-3c0.1-0.4,0.2-1,0.2-1.7
			c0-0.7,0.1-1.1,0.1-1.3c0.1-0.7,0.2-1.2,0.4-1.7c-0.1,0-0.2,0-0.2,0c-0.5,0-1.1,0-1.7,0c-1.4,0.1-2.6,0.3-3.5,0.4
			c-0.2,0-0.4,0.1-0.8,0.2c-0.3,0.1-0.5,0.1-0.7,0.1c-0.1,0-0.4,0-0.8,0c-0.6-0.1-0.9-0.5-0.9-1c0-0.6,0.3-0.9,0.9-1
			c0.1,0,0.7,0,1.9,0c1.4,0,2.9,0,4.3-0.3c0.9-0.1,1.5-0.2,1.8-0.3c0.1,0,0.2-0.1,0.3-0.1c0.1,0,0.2,0,0.2,0c0.5,0,1,0.1,1.3,0.5
			s0.4,0.7,0.3,1.1c0,0.2-0.2,0.3-0.6,0.4c0,0.7,0,1.5-0.1,2.6c0,0.5-0.3,1.5-0.6,3c-0.3,1.1-0.7,2.4-1.3,3.9
			c-0.6,1.5-1.6,3.4-3,5.7c-1.4,2.3-3,3.9-4.7,5c-0.9,0.5-2,0.4-3.4-0.3s-2.4-1.6-3.2-2.8c-0.7-1.1-1.3-2.6-1.8-4.8
			c-0.4-1.9-0.7-3.5-0.8-4.8c-0.2-2.8-0.3-4.9-0.4-6.4c-0.1-1.5-0.1-3.8,0-6.9c0-3.1,0.2-6.3,0.6-9.4c0.4-3.5,1.2-6.6,2.5-9.4
			c1.3-2.8,2.8-4.4,4.6-4.8c2.1-0.4,4.2,0,6.3,1.4s3.7,2.8,4.8,4.3c0.2,0.3,0.6,1.1,1,2.2c0.4,0.9,0.6,1.6,0.7,2
			c0.1,1,0.1,1.7-0.1,2.2c-0.2,0.5-0.6,0.5-1,0.1C1060.4,973.9,1060.1,973.2,1059.8,972.3z"/>
		<path class="st4" d="M1111.7,972.3c-0.2-0.8-0.6-1.7-1.2-2.7c-0.5-0.9-1.3-1.8-2.4-2.9c-1.1-1.1-2.4-2-3.9-2.7
			c-0.9-0.5-1.9-0.7-3-0.8c-1.1,0-2,0.2-2.9,0.7c-0.8,0.4-1.5,1.2-2.2,2.2c-0.6,1-1,2.1-1.1,3.3c-0.2,2.1,0.2,4,1,5.9
			c0.9,1.9,2.1,3.5,3.6,4.8c0.8,0.7,1.6,1.4,2.4,2c0.8,0.6,1.7,1.2,2.8,1.9c1,0.7,1.6,1,1.7,1.1c0.1,0,0.4,0.3,0.9,0.6
			s0.9,0.7,1.3,0.9c0.4,0.3,0.9,0.6,1.4,1c0.6,0.4,1.2,0.9,1.8,1.4c0.6,0.5,1.2,1.1,1.7,1.7c1.6,1.7,2.8,3.8,3.7,6.2
			c0.9,2.5,1.2,5,0.9,7.6c-0.2,1.4-0.9,2.7-2.1,3.9c-1.2,1.2-2.5,2-4,2.4c-1.4,0.4-2.8,0.4-4.2,0.2c-1.4-0.3-2.7-0.8-3.7-1.5
			c-1.8-1.3-3.2-2.8-4.2-4.4c-1-1.6-1.5-3-1.7-4.1c-0.1-0.9,0-1.9,0.4-3c0.5-1.4,1.1-2.3,1.7-2.7c0.7-0.5,1.3-0.7,1.7-0.6
			c0.4,0,0.6,0.2,0.8,0.5l0.1,0.4l-1.4,1.6c-0.7,0.8-1.1,1.4-1.3,1.9c0,0.3-0.1,0.8-0.1,1.3c0,0.6,0.1,1.3,0.4,2.3s0.7,2,1.4,2.9
			c1,1.5,2.6,2.7,4.9,3.5c2.7,1,4.9,0.9,6.4-0.3c1.6-1.2,2.7-2.7,3.2-4.8c0.6-2,0.6-4,0.1-5.8c-0.6-2.3-1.7-4.2-3.3-5.8
			c-0.7-0.8-2.1-1.9-4.3-3.5c-2.1-1.5-4.5-3.3-7-5.4c-2.5-2-4.7-4-6.6-6c-1-1-1.6-2.4-1.9-4c-0.3-1.7-0.3-3.3,0.1-4.9
			c0.5-1.9,1.3-3.5,2.5-4.9c1.2-1.3,2.4-2,3.7-2c3.7,0,7.3,1.7,10.7,5.1c0.5,0.5,1.1,1.3,1.8,2.4c0.7,1.1,1,1.9,1.1,2.4
			c0.2,1.1,0.2,1.9-0.1,2.3c-0.2,0.5-0.6,0.5-1,0.1C1112.2,973.9,1111.9,973.3,1111.7,972.3z"/>
		<path class="st4" d="M1121.2,966.6c0,0,0.3,0,0.7,0c0.5,0,5.2-0.3,14.3-1.2c1-0.1,3.6-0.2,7.8-0.2c4.2,0,6.6,0,7.3,0
			c0,0,0.2,0,0.4,0c0.2,0,0.3,0,0.4,0c0.4,0,0.7,0.1,0.7,0.1c0.2,0.1,0.4,0.4,0.4,0.8c0,0.4-0.1,0.8-0.4,1.1
			c-0.2,0.2-0.5,0.3-0.8,0.2c0,0-0.1-0.1-0.3-0.2c-0.1-0.1-0.2-0.1-0.3-0.1c-0.4-0.1-2.3-0.3-5.8-0.5c-3.5-0.2-5.6-0.2-6.3-0.2
			c-0.7,0-1.5,0-2.5,0.1c0.1,0.2,0.2,0.5,0.3,0.9c0,0.1-0.1,0.6-0.2,1.2c-0.2,1.2-0.4,4-0.6,8.7c-0.2,4.6-0.4,8-0.4,10.2
			c0,1.2-0.1,4.5-0.1,10.1c0,5.6,0,8.9,0.1,10c0,0.5,0.1,0.9,0.1,1.2l0.1,1.1c0,0.4-0.3,0.8-0.7,1c-0.4,0.3-0.8,0.3-1.1,0
			c-0.3-0.2-0.4-0.7-0.4-1.3c0-0.1,0-0.3,0.1-0.6c0.1-0.2,0.1-0.4,0.1-0.5c0-0.5,0.1-3.5,0.2-8.9c0.1-5.4,0.1-8.1,0.1-8.3
			c0.4-12.6,0.6-20,0.6-22.2c0-0.7,0-1,0-1.1c0-0.5,0-0.8,0-0.9c0-0.2,0.1-0.4,0.1-0.6c-1.3,0.1-2.9,0.3-4.7,0.5
			c-4.2,0.4-6.9,0.8-8.1,1.1c-0.4,0.1-0.7,0.1-0.7,0.1c-0.3,0.1-0.5,0.1-0.6,0.1c-0.5,0-0.8-0.4-0.8-1
			C1120.4,967,1120.6,966.7,1121.2,966.6z"/>
		<path class="st4" d="M1182.1,973.1c0-0.1,0.1-0.2,0.2-0.2c0.3-0.2,0.5-0.1,0.6,0.1c0.3,0.5,0.4,1.8,0.4,3.7c0,0.4,0,1-0.1,1.7
			c-0.1,0.7-0.1,1.2-0.1,1.4c0,0.1,0,0.5,0,1.3c0,0.7-0.1,1.5-0.1,2.2c0,0.7-0.1,1.6-0.3,2.8c-0.1,1.2-0.3,2.3-0.4,3.4
			c-0.1,1.1-0.3,2.4-0.6,3.7c-0.3,1.4-0.6,2.7-0.9,4c-0.8,3.2-2.1,6.4-3.9,9.5c-1.8,3.1-3.9,5.5-6.3,7.1c-0.8,0.6-1.7,0.8-2.7,0.5
			c-1-0.2-1.8-0.6-2.6-1.2c-0.8-0.6-1.4-1.2-1.9-1.8c-0.8-1.1-1.4-2.2-1.9-3.5c-1.1-3-2-7-2.8-12c-0.8-5-1.2-10.2-1-15.4
			c0-3.3,0.7-6.4,1.9-9.4c1-2.3,2.1-4.2,3.4-5.7c1.3-1.6,2.7-2.5,4.1-2.9c1.7-0.5,3.4-0.4,5.2,0.1c1.8,0.6,3.4,1.4,4.7,2.6
			c1.5,1.3,2.9,3.1,4,5.5C1181.4,971.2,1181.8,972.1,1182.1,973.1z M1180.4,975.8c0-1-0.1-1.9-0.4-2.9c-0.3-1.2-1.1-2.7-2.2-4.4
			c-1.2-1.7-2.7-3.1-4.5-4.3c-1.1-0.6-2.3-0.9-3.6-0.9c-1.4,0-2.7,0.4-3.9,1.2c-1,0.6-1.9,1.4-2.8,2.6c-0.9,1.1-1.4,2.4-1.7,3.7
			c-1,4.2-1.6,8.1-1.9,11.6c-0.3,3.6-0.4,6.1-0.3,7.5c0.1,1.4,0.3,3.1,0.6,5c0.4,2.6,1,5.4,1.8,8.4c0.9,3,2,5.5,3.3,7.4
			c1,1.4,2.2,2.2,3.5,2.3c1.4,0,2.7-0.6,3.8-2.1c4-5.2,6.6-10.5,7.8-16.1c0.9-3.7,1.3-7.8,1.4-12.3c0-1.2,0.1-2.3,0.1-3.4
			c0-0.2,0-0.5,0-0.8C1180.7,978.3,1180.4,977.5,1180.4,975.8z"/>
		<path class="st4" d="M1193.6,965.8c0,0.2,0,0.6,0,1.4c0,0.7-0.1,2.5-0.1,5.4c0.3-0.3,0.7-0.6,1.2-1c2.7-2.4,5.2-4,7.5-5
			c2.7-1.1,5.1-1.2,7.2-0.4c1.2,0.4,2.1,1.1,2.8,2c0.7,0.9,1.2,1.7,1.3,2.4c0.2,1.1-0.2,2.9-1.4,5.6s-3,5.1-5.7,7.5
			c-0.9,0.8-1.9,1.5-3.1,2.1c-1.2,0.6-2.1,1.1-3,1.4c-0.8,0.3-1.7,0.6-2.6,0.9c-0.9,0.3-1.4,0.5-1.5,0.5c-0.5,0.2-1,0.5-1.4,0.6
			c0,0,0.1,0.1,0.2,0.2c0,0.1,0.2,0.4,0.5,1c0.7,1.4,1.9,4,3.7,7.8c1.8,3.8,3,6.5,3.5,7.8c0.4,1,1.1,2.1,2.1,3.6s1.8,2,2.4,1.7
			c0.7-0.3,1.4-0.8,1.9-1.5c0.6-0.7,1-1.5,1.2-2.3c0.3-0.9,0.4-1.6,0.5-2.1c0.1-0.6,0.2-1,0.2-1.5c0-0.4,0-0.7,0-1.1
			c0-0.1,0-0.2,0-0.4s0-0.3,0-0.3c0-0.1,0-0.2,0-0.3c0-0.3,0.3-0.6,0.7-0.9c0.4-0.3,0.8-0.3,1.1,0c0.3,0.2,0.4,0.6,0.4,1.2
			c0,0.1,0,0.3-0.1,0.6c-0.1,0.2-0.1,0.4-0.1,0.4c0,0,0,0.3-0.1,0.6c-0.1,0.4-0.2,0.7-0.3,1.1c-0.1,0.4-0.2,0.8-0.4,1.3
			c-0.1,0.5-0.3,1.1-0.6,1.7c-0.2,0.6-0.5,1.2-0.8,1.7c-0.5,1-1.2,1.8-2.1,2.4c-0.9,0.6-1.7,0.9-2.3,0.8c-1.3-0.3-2.4-1.1-3-2.4
			c-0.4-0.9-1.3-2.7-2.6-5.6s-2.6-5.5-3.7-8c-1.2-2.4-2.1-4.1-2.7-4.8c-0.3-0.4-0.5-0.6-0.6-0.8c-0.2-0.2-0.3-0.3-0.4-0.4
			c-0.2,10.8-0.3,16.7-0.2,17.8c0,0.6,0.1,1,0.1,1.2l0.1,1.2c0,0.4-0.3,0.8-0.7,1.1c-0.4,0.3-0.8,0.3-1,0.1
			c-0.3-0.2-0.4-0.7-0.4-1.4c0-0.1,0-0.3,0.1-0.6c0-0.3,0.1-0.4,0.1-0.5c0-0.4,0.1-2,0.2-4.8c0.1-2.7,0.2-5.6,0.3-8.5
			c0.1-3,0.1-4.6,0.1-4.9c0-0.4,0-1,0.1-1.7c-0.3-0.2-0.5-0.5-0.4-0.8c0-0.2,0.2-0.4,0.4-0.6c0-2.1,0-5,0-8.8c0-6-0.1-9.8-0.4-11.6
			c0-0.6-0.1-1-0.1-1.2c-0.1-0.5-0.1-0.9-0.1-1c0-0.8,0.4-1.2,1-1.2C1193.1,964.6,1193.5,965,1193.6,965.8z M1193.5,975.6
			c0,0.5,0,0.9,0,1.4c0,5.5,0,9,0,10.3c0,0.1,0,0.3,0,0.4c0.1,0,0.2-0.1,0.4-0.1c0.3-0.1,0.5-0.1,0.6-0.1c0,0,0.3-0.1,0.8-0.3
			c0.5-0.1,0.9-0.3,1.4-0.4s1-0.3,1.8-0.6c0.7-0.3,1.4-0.5,2.1-0.8c0.6-0.3,1.4-0.6,2.1-1c0.8-0.4,1.5-0.9,2.1-1.3
			c1.5-1.1,2.8-2.4,4-3.7c1.2-1.4,2-2.5,2.4-3.3c0.5-0.8,0.8-1.4,0.9-1.8c0.6-1.9,0.5-3.5-0.4-4.8c-0.5-0.8-1.3-1.5-2.4-1.9
			c-1.1-0.5-2.3-0.6-3.5-0.4c-3,0.5-6,2.1-8.9,4.8c-0.4,0.4-0.9,0.9-1.3,1.4c-0.7,0.9-1,1.3-1.1,1.4
			C1194.2,975.1,1193.8,975.4,1193.5,975.6z"/>
		<path class="st4" d="M1218.1,962.2l0.1,0.5c0.1,0.6,1.1,2.6,3,5.9c1.8,3.3,3.3,5.9,4.3,7.7c0.8,1.3,2.4,3.9,4.9,7.6
			c2.4,3.7,3.8,5.9,4.2,6.3c0.2-0.8,0.4-1.3,0.4-1.4c4.9-13.4,7.7-21,8.1-22.8c0.2-0.6,0.3-0.9,0.3-1.1c0.1-0.6,0.2-0.9,0.3-1.1
			c0.3-0.7,0.8-1,1.4-0.8c0.6,0.2,0.8,0.7,0.6,1.5c0,0.1-0.2,0.6-0.5,1.2c-1.3,2.8-3.8,9.3-7.5,19.3c-0.4,1.1-1.3,4.4-2.7,9.8
			c-1.4,5.4-2.4,9.3-3,11.7c0,0.1,0,0.2-0.1,0.3c0,0.1-0.1,0.3-0.2,0.5c-0.1,0.2-0.1,0.3-0.1,0.4c-0.2,0.7-0.3,1.1-0.4,1.2
			c-0.2,0.4-0.6,0.6-1.1,0.6c-0.5,0-0.8-0.2-0.9-0.5c-0.1-0.3,0-0.7,0.2-1.2c0-0.1,0.1-0.3,0.3-0.5c0.1-0.2,0.2-0.3,0.3-0.5
			c0.3-0.5,1.2-3.5,2.7-9.1c0.6-2.4,1.1-4.2,1.5-5.6c-0.2,0-0.3,0-0.4-0.1c0,0-0.1-0.1-0.1-0.3c0-0.1,0-0.2,0-0.3
			c-0.1-0.2-1.2-2-3.5-5.5c-2.2-3.5-3.4-5.4-3.7-5.8c-5.9-10.3-9.1-15.8-9.6-16.5c-0.2-0.3-0.3-0.4-0.4-0.4
			c-0.1-0.2-0.2-0.3-0.3-0.4c0-0.4,0.2-0.7,0.8-0.9C1217.4,961.9,1217.8,962,1218.1,962.2z"/>
		<path class="st4" d="M1248.5,1007.8c-0.2,0.4-0.6,0.8-1,1.2c-0.9,0.8-1.5,0.9-2,0.4c-0.6-0.7-0.6-1.6,0-2.7
			c0.6-1.1,1.5-1.7,2.5-1.8c0.2,0,0.5,0.3,0.8,0.8c0.3,0.4,0.4,0.7,0.4,0.9C1249.1,1007.2,1248.9,1007.6,1248.5,1007.8
			C1248.5,1007.8,1248.5,1007.8,1248.5,1007.8z"/>
	</g>
</g>
<g id="Face">
	<g>
		<path class="st9" d="M958.9,828.4c-72.3,0-140.3-34.7-191.4-97.7C716.2,667.7,688,583.8,688,494.6c0-89.2,28.2-173,79.4-236.1
			c51.2-63,119.1-97.7,191.4-97.7s140.3,34.7,191.4,97.7c51.2,63.1,79.4,146.9,79.4,236.1c0,89.2-28.2,173-79.4,236.1
			C1099.2,793.7,1031.2,828.4,958.9,828.4z"/>
		<path class="st10" d="M958.9,161.8c36.4,0,71.7,8.8,104.9,26.1c32.1,16.7,61,40.7,85.8,71.2c24.8,30.6,44.3,66.2,57.9,105.8
			c14.1,41.1,21.3,84.7,21.3,129.7s-7.2,88.6-21.3,129.7c-13.6,39.6-33.1,75.2-57.9,105.8c-24.8,30.5-53.7,54.5-85.8,71.2
			c-33.2,17.3-68.5,26.1-104.9,26.1s-71.7-8.8-104.9-26.1c-32.1-16.7-61-40.7-85.8-71.2c-24.8-30.6-44.3-66.2-57.9-105.8
			c-14.1-41.1-21.3-84.7-21.3-129.7s7.2-88.6,21.3-129.7c13.6-39.6,33.1-75.2,57.9-105.8c24.8-30.5,53.7-54.5,85.8-71.2
			C887.2,170.6,922.5,161.8,958.9,161.8 M958.9,159.8C808.7,159.8,687,309.7,687,494.6s121.7,334.8,271.8,334.8
			s271.8-149.9,271.8-334.8S1109,159.8,958.9,159.8L958.9,159.8z"/>
	</g>
</g>
<g id="Hair">
	<path class="st52" d="M916,437.8c5.8-7.1-6-20.4-19.4-26.9c-8.7-4.2-16.7-3.8-20.1-4c-22.3-1.4-45-4.1-71.5-1.4
		c-56.1,5.8-66.4,18-72.6,21.5c-6.6,3.8-14,5.8-12.4,14.3c1.1,5.7-1.2,7.4,4.9,7c15.4-1,19.6-8.1,48.4-21.8
		c30.9-14.6,89.3-17.5,102.5-1.4c3.2,3.9,4.9,10.4,9.6,13.9C894.2,445.5,911.2,443.6,916,437.8z"/>
	<circle class="st4" cx="839.5" cy="513.3" r="26.9"/>
	<circle class="st11" cx="842.6" cy="500.1" r="5.6"/>
	<path class="st4" d="M915,522.3c-0.3-1.7-6.4-0.5-10.9-3.1c-8.4-4.9-2.8-1.4-16.1-11.2c-9.3-6.9-11.1-10.4-16.5-14.8
		c-22.4-17.9-39.4-14.3-59.5-4.5c-21.2,10.4-16.5,28.2-37.7,31.2c-2.2,0.3-13.4,0-13.5,1.2c0,1.5,11.3,3.2,15.6,3.9
		c0.5,0.1,3.5,0.5,4.6,0.6c12,0.9,19.4-19.8,35.4-30.2c16.8-11,31-4,37.1-2.2c10.2,2.9,11.3,7.8,29.5,20.4
		c23.6,16.3,30.9,11.3,32,11C916.1,524.2,915.1,523.1,915,522.3z"/>
	<path class="st53" d="M894.2,497.4c-9.1-9.1-34.7-36.1-61.1-33c-21.2,2.5-33.3,12.3-40.4,20c-7,7.7-10.8,15.7-10.8,15.7"/>
	<path class="st4" d="M948.9,634.4c0.9-1-11.6-14.3-21.3-14.3c-9.8,0-14.7,4.7-12.5,8.2c5.3,8.2,12.9,2.4,18.7,3.1
		C939.6,632,948,635.4,948.9,634.4z"/>
	<path class="st52" d="M1000.7,437.8c-5.8-7.1,6-20.4,19.4-26.9c8.7-4.2,16.7-3.8,20.1-4c22.3-1.4,45-4.1,71.5-1.4
		c56.1,5.8,66.4,18,72.6,21.5c6.6,3.8,14,5.8,12.4,14.3c-1.1,5.7,1.2,7.4-4.9,7c-15.4-1-19.6-8.1-48.4-21.8
		c-30.9-14.6-89.3-17.5-102.5-1.4c-3.2,3.9-4.9,10.4-9.6,13.9C1022.4,445.5,1005.5,443.6,1000.7,437.8z"/>
	<circle class="st4" cx="1077.2" cy="513.3" r="26.9"/>
	<circle class="st11" cx="1080.1" cy="500.1" r="5.6"/>
	<path class="st53" d="M1022.4,497.4c9.1-9.1,34.7-36.1,61.1-33c21.2,2.5,33.3,12.3,40.4,20s10.8,15.7,10.8,15.7"/>
	<path class="st52" d="M958,693.6c9.8-1.2,12.3-6.9,18.2-6.2c5.9,0.7,14.2,1.4,28.7,5.6c12.7,3.7,34.1,4.2,34.1,7
		s-47.5,5.6-64.9,9.9C965.5,712,958,712,958,712V693.6z"/>
	<path class="st52" d="M957.9,722.2v29c0,0,8.2,0,21.7-2.1c22.9-3.6,35.5-14.3,39.4-17.1s21.3-24.4,20-26s-43.7,11.5-61.5,14.3
		C966.9,722,957.9,722.2,957.9,722.2z"/>
	<path class="st4" d="M967.7,634.4c-0.9-1,11.6-14.3,21.3-14.3c9.8,0,14.7,4.7,12.5,8.2c-5.3,8.2-12.9,2.4-18.7,3.1
		C977,632,968.6,635.4,967.7,634.4z"/>
	<path class="st52" d="M964.4,150.2l0-0.4c-261.8-1.4-344.6,193.3-344.6,405.7c0,219.2,23.9,296.9,90.5,335.5
		c7.7,4.4,35.8,17.5,51.2,4.2c15.4,11.9,57.6,26,61.8,21.1c3.7-4.3-32.4-71-41.9-90.1c-9.1-18.2-68.4-191.8-23.7-436.3
		c19-104,52.4-130.6,106-159c57.9-30.7,93-1.7,93-1.7l0.1-1.2l0.1,1.4c0,0,35.1-29,93,1.7c53.6,28.4,87,55,106,159
		c44.7,244.5-14.6,418.1-23.7,436.3c-9.6,19.1-45.6,85.8-41.9,90.1c4.2,4.9,46.3-9.1,61.8-21.1c15.4,13.3,43.6,0.2,51.2-4.2
		c66.7-38.6,90.5-116.3,90.5-335.5C1293.9,347.5,1214.3,156.2,964.4,150.2z"/>
	<path class="st52" d="M958,693.6c-9.8-1.2-12.3-6.9-18.2-6.2c-5.9,0.7-14.2,1.4-28.7,5.6c-12.7,3.7-34.1,4.2-34.1,7
		s47.5,5.6,64.9,9.9c8.6,2.1,16.1,2.1,16.1,2.1V693.6z"/>
	<path class="st52" d="M958.1,722.2v29c0,0-10.2,0-23.7-2.1c-22.9-3.6-33.5-14.3-37.4-17.1c-4-2.8-21.3-24.4-20-26
		s43.7,11.5,61.5,14.3C949.1,722,958.1,722.2,958.1,722.2z"/>
	<g>
		<path class="st4" d="M1043.6,499.7l-10.4-6l-1.6-2.2c0,0,1.2,1,2.3,1.7c2.2,1.4,6.9,3.8,7.6,4.5c1,1,3.5,1.1,3.5,1.1L1043.6,499.7
			z"/>
		<path class="st4" d="M1052.5,494.3l-9.8-12l-1.1-2.9c0,0,1.3,1.6,2.1,2.8c2.2,3.7,6.3,6.7,6.8,7.9c0.7,1.7,4.2,3.3,4.2,3.3
			L1052.5,494.3z"/>
		<path class="st4" d="M1034.8,507.4l-11.1-6.1l-1.7-1.6c0,0,1.5,0.8,2.4,1.5c2.8,2,6.8,3.3,7.5,3.9c1,0.9,4.2,1.5,4.2,1.5
			L1034.8,507.4z"/>
		<path class="st4" d="M1038.5,503.1l-10-5.6l-1.5-1.5c0,0,1.3,0.7,2.2,1.4c2.6,1.8,6.2,3,6.9,3.6c0.9,0.9,3.8,1.4,3.8,1.4
			L1038.5,503.1z"/>
		<path class="st4" d="M1061.2,491.1l-9-12.8l-2-5.2c0,0,1,1.7,2,3.2c2.1,3.2,7.1,9.3,7.5,10.6c0.6,2,4.2,3.5,4.2,3.5L1061.2,491.1z
			"/>
		<path class="st4" d="M1069.5,489.1l-6.9-14.1l-1.5-5.8c0,0,0.8,2.2,1.5,3.8c1.6,3.6,5.4,10.1,5.6,11.5c0.3,2.1,4.3,4.2,4.3,4.2
			L1069.5,489.1z"/>
		<path class="st4" d="M1073.8,488.8l-0.1-15.7l0.2-6.1c0,0,0.5,1,0.5,2.8c0.1,3.9,1.6,10.4,1.2,11.9c-0.6,2.2,1.3,6.9,1.3,6.9
			L1073.8,488.8z"/>
		<path class="st4" d="M1046.4,496.7l-11.1-9.8l-0.9-2c0,0,0.9,0.4,1.9,1.3c2.2,2.1,6.9,6.3,7.5,7.3c0.9,1.4,4.2,2.3,4.2,2.3
			L1046.4,496.7z"/>
		<path class="st4" d="M1108.4,498.8l6.2-3.9l5.4-5.4c0,0-0.8,0.3-1.7,1.1c-2.1,1.8-3.9,2.9-4.4,3.7c-0.9,1.1-6.8,4.3-6.8,4.3
			L1108.4,498.8z"/>
		<path class="st4" d="M1096.4,492.2l6.6-8.7l5-7.5c0,0-0.8,0.6-1.7,2c-2,2.9-6.3,7.4-6.7,8.7c-0.7,1.8-4.3,4.9-4.3,4.9
			L1096.4,492.2z"/>
		<path class="st4" d="M1089.8,490.4l6.6-14.5l1-3.5c0,0-0.7,0.7-1.4,2.2c-1.4,3.2-3.5,7.7-4.4,9.1c-1.2,1.8-4.2,6-4.2,6
			L1089.8,490.4z"/>
		<path class="st4" d="M1082.3,489.3l3.8-12.5l1.9-7.7c0,0-0.7,0.8-1.2,2.5c-1.1,3.6-4.1,9.4-4.1,10.9c0,2.2-2.9,6.3-2.9,6.3
			L1082.3,489.3z"/>
		<path class="st4" d="M1104,494.2l11.5-9.2l0.9-2c0,0-2,1.7-3,2.6c-2.2,2.1-5.5,3.9-6.1,4.8c-0.9,1.4-4.5,3.4-4.5,3.4L1104,494.2z"
			/>
		<path class="st4" d="M1116.1,501.2l10.7-5.6l0.9-1.3c0,0-1.9,1-2.8,1.6c-2.1,1.3-5.1,2.3-5.7,2.9c-0.9,0.9-4.2,2-4.2,2
			L1116.1,501.2z"/>
		<path class="st4" d="M1123,511l7.3-2c0,0,10.1-3.3,7.2-2.8c-3,0.5-2.3,0.5-3.6,1c-2.8,1-6.3,1.4-7.3,2c-1.3,0.8-4.6,1.1-4.6,1.1
			L1123,511z"/>
		<path class="st4" d="M1119.5,507.1l11.9-5.2l1.2-1.3c0,0-2.1,1-3.1,1.5c-2.4,1.2-5.6,2.1-6.3,2.7c-1.1,0.9-4.7,1.9-4.7,1.9
			L1119.5,507.1z"/>
	</g>
	<g>
		<path class="st4" d="M869.6,498.7l10.4-6l1.6-2.2c0,0-1.2,1-2.3,1.7c-2.2,1.4-6.9,3.8-7.6,4.5c-1,1-3.5,1.1-3.5,1.1L869.6,498.7z"
			/>
		<path class="st4" d="M860.7,493.3l9.8-12l1.1-2.9c0,0-1.3,1.6-2.1,2.8c-2.2,3.7-6.3,6.7-6.8,7.9c-0.7,1.7-4.2,3.3-4.2,3.3
			L860.7,493.3z"/>
		<path class="st4" d="M878.5,506.4l11.1-6.1l1.7-1.6c0,0-1.5,0.8-2.4,1.5c-2.8,2-6.8,3.3-7.5,3.9c-1,0.9-4.2,1.5-4.2,1.5
			L878.5,506.4z"/>
		<path class="st4" d="M874.7,502.1l10-5.6l1.5-1.5c0,0-1.3,0.7-2.2,1.4c-2.6,1.8-6.2,3-6.9,3.6c-0.9,0.9-3.8,1.4-3.8,1.4
			L874.7,502.1z"/>
		<path class="st4" d="M852,490.1l9-12.8l2-5.2c0,0-1,1.7-2,3.2c-2.1,3.2-7.1,9.3-7.5,10.6c-0.6,2-4.2,3.5-4.2,3.5L852,490.1z"/>
		<path class="st4" d="M843.7,488.1l6.9-14.1l1.5-5.8c0,0-0.8,2.2-1.5,3.8c-1.6,3.6-5.4,10.1-5.6,11.5c-0.3,2.1-4.3,4.2-4.3,4.2
			L843.7,488.1z"/>
		<path class="st4" d="M839.4,487.8l0.1-15.7l-0.2-6.1c0,0-0.5,1-0.5,2.8c-0.1,3.9-1.6,10.4-1.2,11.9c0.6,2.2-1.3,6.9-1.3,6.9
			L839.4,487.8z"/>
		<path class="st4" d="M866.8,495.7l11.1-9.8l0.9-2c0,0-0.9,0.4-1.9,1.3c-2.2,2.1-6.9,6.3-7.5,7.3c-0.9,1.4-4.2,2.3-4.2,2.3
			L866.8,495.7z"/>
		<path class="st4" d="M804.8,497.8l-6.2-3.9l-5.4-5.4c0,0,0.8,0.3,1.7,1.1c2.1,1.8,3.9,2.9,4.4,3.7c0.9,1.1,6.8,4.3,6.8,4.3
			L804.8,497.8z"/>
		<path class="st4" d="M816.8,491.2l-6.6-8.7l-5-7.5c0,0,0.8,0.6,1.7,2c2,2.9,6.3,7.4,6.7,8.7c0.7,1.8,4.3,4.9,4.3,4.9L816.8,491.2z
			"/>
		<path class="st4" d="M823.4,489.4l-6.6-14.5l-1-3.5c0,0,0.7,0.7,1.4,2.2c1.4,3.2,3.5,7.7,4.4,9.1c1.2,1.8,4.2,6,4.2,6L823.4,489.4
			z"/>
		<path class="st4" d="M830.9,488.3l-3.8-12.5l-1.9-7.7c0,0,0.7,0.8,1.2,2.5c1.1,3.6,4.1,9.4,4.1,10.9c0,2.2,2.9,6.3,2.9,6.3
			L830.9,488.3z"/>
		<path class="st4" d="M809.2,493.2l-11.5-9.2l-0.9-2c0,0,2,1.7,3,2.6c2.2,2.1,5.5,3.9,6.1,4.8c0.9,1.4,4.5,3.4,4.5,3.4L809.2,493.2
			z"/>
		<path class="st4" d="M797.1,500.2l-10.7-5.6l-0.9-1.3c0,0,1.9,1,2.8,1.6c2.1,1.3,5.1,2.3,5.7,2.9c0.9,0.9,4.2,2,4.2,2L797.1,500.2
			z"/>
		<path class="st4" d="M790.2,510l-7.3-2c0,0-10.1-3.3-7.2-2.8c3,0.5,2.3,0.5,3.6,1c2.8,1,6.3,1.4,7.3,2c1.3,0.8,4.6,1.1,4.6,1.1
			L790.2,510z"/>
		<path class="st4" d="M793.8,506.1l-11.9-5.2l-1.2-1.3c0,0,2.1,1,3.1,1.5c2.4,1.2,5.6,2.1,6.3,2.7c1.1,0.9,4.7,1.9,4.7,1.9
			L793.8,506.1z"/>
	</g>
	<path class="st4" d="M1002.3,522.3c0.3-1.7,6.4-0.5,10.9-3.1c8.4-4.9,2.8-1.4,16.1-11.2c9.3-6.9,11.1-10.4,16.5-14.8
		c22.4-17.9,39.4-14.3,59.5-4.5c21.2,10.4,16.5,28.2,37.7,31.2c2.2,0.3,13.4,0,13.5,1.2c0,1.5-11.3,3.2-15.6,3.9
		c-0.5,0.1-3.5,0.5-4.6,0.6c-12,0.9-19.4-19.8-35.4-30.2c-16.8-11-31-4-37.1-2.2c-10.2,2.9-11.3,7.8-29.5,20.4
		c-23.6,16.3-30.9,11.3-32,11C1001.2,524.2,1002.2,523.1,1002.3,522.3z"/>
</g>
<g id="Text">
	<g>
		<rect x="146" y="57.2" class="st3" width="1646.2" height="110.3"/>
		<path class="st4" d="M536.8,59.3c0,0.1,0,0.6-0.1,1.4c-0.1,0.9-0.2,2.9-0.4,6c-0.1,3.1-0.3,6.6-0.4,10.4c-0.1,3.8-0.2,6-0.2,6.6
			c-0.5,9.8-0.7,16.1-0.7,18.9c0.3,0.1,0.3,0.8,0.1,1.9c0,0.1,0,0.2-0.1,0.3c0,0,0.1,0.1,0.1,0.2c0,0.1,0.1,0.2,0.1,0.3
			c0,0.1,0,0.1,0,0.2c0,0.2-0.3,0.4-0.7,0.6c-0.4,0.2-0.8,0.2-1,0c-0.2-0.1-0.3-0.2-0.4-0.4h-0.1l0.1-0.3c0-0.1,0-0.2,0.1-0.4
			c0-0.1,0-0.1,0.1-0.1c0-0.1-0.1-0.3-0.1-0.4c0-0.3-0.1-0.7,0-1.1c0-0.4,0.1-0.6,0.1-0.6c0.1,0,0.2-0.1,0.2-0.1
			c0-0.6,0.1-1.3,0.1-2.1c0.1-2.4,0.2-4.9,0.3-7.6c0.1-2.7,0.2-4.2,0.3-4.6c0.2-2.9,0.4-7.6,0.6-14.1c0.2-6.5,0.3-10.7,0.2-12.7
			c0-0.6-0.1-1-0.1-1.2c-0.1-0.5-0.1-0.9-0.1-1c0-0.8,0.4-1.2,1-1.2C536.4,58.1,536.7,58.5,536.8,59.3z M552.9,59.1
			c0,0.1,0,0.6-0.1,1.4c-0.1,1.2-0.4,8.6-0.7,22.2c-0.2,9.9-0.3,16.2-0.2,18.6c0-0.1,0.1-0.2,0.2-0.3c-0.1,0.1-0.1,0.6,0,1.2
			c0.1,0.7,0.1,1.1-0.1,1.2c0,0.1,0.1,0.2,0.1,0.2c0,0,0,0.1,0,0.1c0,0.2-0.3,0.4-0.7,0.6c-0.4,0.2-0.8,0.2-1,0
			c-0.3-0.2-0.4-0.5-0.4-0.8c0,0,0-0.2,0.1-0.3c0-0.2,0.1-0.3,0.1-0.3c0-0.3,0.1-1.6,0.2-3.9c0.1-2.3,0.1-4.8,0.2-7.4
			c0.1-2.6,0.1-4.1,0.1-4.5c0.1-1.9,0.2-4.4,0.2-7.5c0,0-0.1-0.1-0.2-0.1c-0.2-0.1-0.3-0.1-0.4-0.1c-0.8-0.1-1.9-0.1-3.4-0.1
			c-3.5,0.1-6.4,0.3-8.6,0.7c0,0-0.2,0-0.4,0c-0.2,0-0.3,0-0.4,0c-0.4,0.1-0.6,0.1-0.7,0.1c-0.6-0.1-0.9-0.4-0.9-1
			c0-0.6,0.3-0.9,0.9-1c0.1,0,0.4,0,0.9,0.1c1.3,0.1,3.4,0.1,6.3-0.1c2.3-0.1,4.1-0.3,5.5-0.5c0.5,0,0.8-0.1,0.9-0.1
			c0.2-0.1,0.4-0.1,0.6-0.1c0-1.1,0.1-2.3,0.1-3.5c0.1-5.9,0.1-10.1-0.1-12.8c0-0.6,0-1-0.1-1.2c0-0.6-0.1-0.9-0.1-1.1
			c0.1-0.8,0.5-1.1,1.1-1.1C552.5,58,552.8,58.4,552.9,59.1z M552.1,101.1L552.1,101.1L552.1,101.1z"/>
		<path class="st4" d="M558.4,59.6c0.1,0,0.4,0,0.9,0c0.8,0,2.5-0.1,5.1-0.3c0.2-0.3,0.5-0.4,0.9-0.4c0.2,0,0.3,0.1,0.4,0.2
			c2.9-0.2,4.8-0.4,5.5-0.5c0.5-0.1,0.8-0.1,0.9-0.1l0.8-0.1c0.3,0,0.6,0.3,0.8,0.7c0.2,0.4,0.2,0.8,0,1c-0.2,0.3-0.6,0.4-0.9,0.4
			c-0.1,0-0.2,0-0.4-0.1c-0.2,0-0.3-0.1-0.4-0.1c-0.9-0.1-2-0.2-3.4-0.1c-0.9,0-1.7,0.1-2.5,0.2c0,0.2-0.1,0.5-0.2,1
			c-0.3,1.1-0.6,4.1-0.9,9s-0.4,8.3-0.4,10.3c0,1.6,0.1,5.2,0.2,10.7c0.1,5.6,0.2,8.9,0.3,10.1c0,0.6,0.1,1,0.1,1.2l0.1,1.1
			c0,0.1,0,0.2-0.1,0.3c0.2,0,0.5-0.1,0.7-0.1c2.4-0.1,4.1-0.3,5.3-0.4c0.4,0,0.7-0.1,0.9-0.1l0.7-0.1c0.3,0,0.5,0.3,0.8,0.7
			c0.2,0.4,0.2,0.8,0,1c-0.2,0.3-0.5,0.4-0.9,0.4c-0.1,0-0.2,0-0.4-0.1c-0.2,0-0.3-0.1-0.3-0.1c-0.8-0.1-1.8-0.1-3.2-0.1
			c-3.4,0-6.1,0.3-8.4,0.6c-0.4,0.1-0.7,0.1-0.7,0.1c-0.3,0.1-0.6,0.1-0.7,0.1c-0.6,0-0.9-0.4-0.9-1c0-0.6,0.3-1,0.8-1.1
			c0.1,0,0.4,0,0.9,0c0.7,0.1,1.8,0.1,3.4,0.1c0-0.2-0.1-0.4-0.1-0.6c0-0.1,0-0.3,0.1-0.5c0.1-0.3,0.1-0.4,0.1-0.5
			c0-1,0.1-2.6,0-4.8c0-2.2,0-4.8-0.1-7.8c0-3,0-4.7,0-5c0-1.4,0.2-5.3,0.4-11.7c0.2-6.3,0.3-10.1,0.3-11.2c0,0,0-0.2,0-0.5
			c0-0.3,0-0.5,0-0.6c0-0.1,0-0.2,0-0.2c-1.5,0.1-2.9,0.4-4.1,0.6c-0.4,0.1-0.7,0.2-0.7,0.2c-0.4,0.1-0.6,0.1-0.7,0.1
			c-0.6,0-0.9-0.3-1-0.9C557.6,60.2,557.8,59.8,558.4,59.6z"/>
		<path class="st4" d="M581.2,101c0.3,0,0.6,0.2,0.9,0.4c2.1,1.7,3.2,3.1,3.2,4.4c0.1,1.2-0.7,2.6-2.5,4.2c0,0-0.3,0.2-0.9,0.6
			c-0.5,0.3-0.8,0.5-0.9,0.6c-0.4,0.1-0.8,0-1.2-0.3c-0.4-0.3-0.6-0.6-0.4-1c0.1-0.3,0.5-0.6,0.9-0.8c0.1,0,0.2-0.1,0.4-0.1
			c0.2,0,0.3-0.1,0.4-0.1c1.2-0.5,2-1,2.3-1.6c0.4-0.7,0.4-1.4,0-2.2c-0.4-0.8-1-1.4-1.8-1.9c-0.1-0.1-0.4-0.2-0.6-0.2
			c-0.3,0-0.6-0.1-0.6-0.1c-0.6-0.2-0.8-0.7-0.6-1.3C580.1,101.1,580.6,100.9,581.2,101z"/>
		<path class="st4" d="M622.4,58.6c0,0,0,0.3,0,0.8c0,0.2,0,0.7,0,1.5c0,0.1,0.1,0.2,0.1,0.2c0,0.1,0.2,0.5,0.4,1.2
			c0.2,0.7,0.9,2.3,1.9,4.7c1,2.4,2.2,5,3.4,7.7c1.2,2.7,2,4.4,2.2,4.9c0.3,0.8,1.4,4,3.3,9.6c1,2.9,1.7,5.1,2.3,6.8
			c0.2-0.8,0.5-1.8,0.9-2.8c1.1-3.9,1.9-6.7,2.4-8.4c0.7-2.7,1.7-6.9,3-12.6c1.3-5.7,2-9,2-10.2c0-0.2,0-0.4,0-0.6
			c0-0.2-0.1-0.3-0.1-0.4c0.1-0.3,0.5-0.4,1.2-0.3c0.6,0.1,0.9,0.3,0.9,0.6c0,0,0,0.2-0.1,0.4c0.1,0,0.3-0.1,0.4-0.1
			c0.6,0,1,0.4,1,1.2c0,0.1,0,0.6-0.1,1.2c-0.1,1-0.3,7.2-0.7,18.6c-0.3,10.6-0.4,17.1-0.3,19.7c0,0.5,0,0.9,0.1,1.2l0.1,1
			c0,0.4-0.3,0.8-0.7,1c-0.4,0.3-0.8,0.3-1.1,0c-0.3-0.2-0.4-0.7-0.4-1.3c0-0.1,0-0.3,0.1-0.5c0-0.2,0.1-0.4,0.1-0.5
			c0.1-0.6,0.2-3.5,0.4-8.7c0.2-5.2,0.3-7.9,0.3-8.1c0.1-2.4,0.2-6.3,0.3-11.4c0.1-5.2,0.1-8.6,0-10.2c0-0.6-0.1-0.9-0.1-1.1
			c0,0,0-0.1,0-0.1c-0.2,0.7-0.4,1.6-0.6,2.7c-0.6,2.4-1.3,5.2-2,8.3c-0.7,3.1-1.2,5-1.4,5.8c-0.2,1-1.1,4.3-2.6,10
			c-1.1,4-1.8,6.8-2.1,8.2c0,0.1,0,0.2,0.1,0.2c0.1,0.3,0.3,0.7,0.6,1c0,0.1,0.1,0.2,0.3,0.4c0.1,0.2,0.2,0.3,0.3,0.4
			c0.1,0.3,0.1,0.7-0.1,1.2c-0.2,0.4-0.5,0.6-0.9,0.6c-0.4,0-0.7-0.3-1-0.9c-0.1-0.1-0.2-0.4-0.2-0.6c0-0.1-0.1-0.2-0.1-0.3
			l-0.1-0.1c-0.4-0.2-0.7-0.4-0.9-0.6c0,0-0.1-0.1-0.2-0.2c-0.1,0-0.1,0-0.1,0c0,0,0,0,0.1-0.1c0.1,0,0.1-0.1,0.1-0.1
			c0,0,0.2-0.4,0.4-0.9c-0.2-0.6-0.4-1.4-0.7-2.4c-0.9-2.7-1.7-5.3-2.5-7.8c-0.8-2.5-1.3-4-1.5-4.4c-0.7-1.8-2.1-5.2-4.4-10.2
			c-1.6-3.5-2.8-6.2-3.7-8c0,1.3,0.1,2.8,0.1,4.5c0.1,6.4,0.2,10.2,0.2,11.6c0,3.5-0.3,11.4-0.9,24c0,0,0,0.1,0,0.3
			c0,0.1,0,0.2,0,0.3c0,0.1,0,0.2,0,0.2v0.6c-0.1,0.2-0.4,0.4-0.8,0.4c-0.4,0-0.8-0.1-1.1-0.3c-0.2-0.2-0.3-0.5-0.2-0.6
			c0,0,0-0.1,0.1-0.3c0.1-0.1,0.1-0.2,0.2-0.3c0.1-0.4,0.4-3.2,0.7-8.5c0.3-5.3,0.5-8.7,0.6-10.2c0-3.1,0-8-0.1-14.8
			c-0.1-4.4-0.3-7.6-0.4-9.8c-0.2-0.3-0.4-0.6-0.4-0.7c-0.1-0.6-0.1-1,0.2-1.2c0-0.2,0-0.4-0.1-0.6c0-0.3-0.1-0.6-0.1-0.7
			c-0.1-0.3-0.2-0.5-0.2-0.6c0-0.4,0.4-0.7,1-0.8C621.9,57.9,622.3,58.1,622.4,58.6z"/>
		<path class="st4" d="M653,56.2l0.1,0.5c0.1,0.6,1.1,2.6,3,5.9c1.8,3.3,3.3,5.9,4.3,7.7c0.8,1.3,2.4,3.9,4.9,7.6
			c2.4,3.7,3.8,5.9,4.2,6.3c0.2-0.8,0.4-1.3,0.4-1.4c4.9-13.4,7.7-21,8.1-22.8c0.2-0.6,0.3-0.9,0.3-1.1c0.1-0.6,0.2-0.9,0.3-1.1
			c0.3-0.7,0.8-1,1.4-0.8c0.6,0.2,0.8,0.7,0.6,1.5c0,0.1-0.2,0.6-0.5,1.2c-1.3,2.8-3.8,9.3-7.5,19.3c-0.4,1.1-1.3,4.4-2.7,9.8
			c-1.4,5.4-2.4,9.3-3,11.7c0,0.1,0,0.2-0.1,0.3c0,0.1-0.1,0.3-0.2,0.5c-0.1,0.2-0.1,0.3-0.1,0.4c-0.2,0.7-0.3,1.1-0.4,1.2
			c-0.2,0.4-0.6,0.6-1.1,0.6c-0.5,0-0.8-0.2-0.9-0.5c-0.1-0.3,0-0.7,0.2-1.2c0-0.1,0.1-0.3,0.3-0.5c0.1-0.2,0.2-0.3,0.3-0.5
			c0.3-0.5,1.2-3.5,2.7-9.1c0.6-2.4,1.1-4.2,1.5-5.6c-0.2,0-0.3,0-0.4-0.1c0,0-0.1-0.1-0.1-0.3c0-0.1,0-0.2,0-0.3
			c-0.1-0.2-1.2-2-3.5-5.5c-2.2-3.5-3.4-5.4-3.7-5.8c-5.9-10.3-9.1-15.8-9.6-16.5c-0.2-0.3-0.3-0.4-0.4-0.4
			c-0.1-0.2-0.2-0.3-0.3-0.4c0-0.4,0.2-0.7,0.8-0.9C652.3,55.9,652.7,56,653,56.2z"/>
		<path class="st4" d="M718.8,59.2c0,0.1,0.2,0.6,0.4,1.4c0.8,2.3,4.1,9.6,9.7,21.9c0.4,0.8,1.9,4,4.5,9.8c1.1,2.4,2,4.3,2.7,5.8
			c-0.4-6.9-0.5-11.3-0.4-13c0.6-13.7,0.7-22,0.5-24.8c0-0.4-0.1-0.7-0.1-0.9c-0.1-0.4-0.1-0.7-0.1-0.8c0-0.6,0.4-0.9,1-1
			c0.6,0,1,0.3,1.1,0.9c0,0.1,0,0.5-0.1,1.1c-0.1,1.1-0.4,8.1-0.9,20.9c0,1.8,0,5.5,0.1,11.2c0.1,4.8,0.3,8,0.6,9.4
			c0,0.1,0.1,0.3,0.1,0.5c0,0.1,0.1,0.3,0.1,0.4c0.2,0.4,0.4,0.7,0.6,0.9l0.1,0.1l0.1,0.1c0,0,0,0.1-0.1,0.2
			c-0.1,0.1-0.1,0.2-0.2,0.3c0,0.1-0.1,0.3-0.1,0.5c0,0.1,0,0.2-0.3,0.2c-0.1,0-0.2,0.1-0.3,0.1c-0.2,0.2-0.5,0.2-0.8,0.1
			c-0.3-0.1-0.5-0.3-0.6-0.5c0-0.1-0.1-0.2-0.1-0.4c0,0-0.1-0.2-0.1-0.4c0,0,0.1,0,0.1-0.1c0,0-0.1,0-0.1-0.1
			c-0.4-0.8-0.6-1.4-0.5-1.7c-1-2.4-2.9-7-5.9-13.8c-1.2-2.8-3.2-7.2-6.1-13.4c-2.7-6-4.6-9.9-5.6-11.8c0,0.8,0,1.8,0.1,2.8
			c0.1,2.8,0.2,5.8,0.4,9c0.1,3.2,0.2,5.1,0.2,5.9c0,0.1,0.1,3.5,0.2,10.2c0.1,6.6,0.2,10.5,0.3,11.6c0,0.6,0.1,1.1,0.1,1.3
			c0.1,0.8,0.1,1.2,0.1,1.2c0,0.4-0.3,0.8-0.7,1.1c-0.4,0.3-0.8,0.3-1,0.1c-0.3-0.3-0.4-0.8-0.4-1.4c0-0.1,0-0.3,0.1-0.6
			c0.1-0.3,0.1-0.4,0.1-0.5c0-0.7,0.1-6.8,0.1-18.5c0-2.4-0.1-6.6-0.4-12.3c-0.3-5.8-0.5-9.6-0.8-11.4c-0.1-0.6-0.1-1-0.1-1.2
			c-0.1-0.5-0.2-0.9-0.2-1.1c0-0.8,0.3-1.2,0.9-1.3c0.6,0,1,0.4,1.2,1.2c0,0,0,0.1,0,0.1C718.3,58.5,718.6,58.8,718.8,59.2z"/>
		<path class="st4" d="M758.8,60.6v1.3c0,1.2,0.6,4.6,1.7,10.2c1.1,5.5,1.9,9.4,2.5,11.6c0.4,1.6,1.4,5,2.9,10.2
			c1.2,3.9,1.9,6.5,2.4,7.9c0.1-0.2,0.2-0.4,0.2-0.6c0,0.2,0.1,0.6,0.4,1.3c0.3,0.7,0.4,1.1,0.3,1.2c0,0-0.1,0.1-0.1,0.1
			c0,0.1,0.1,0.2,0.1,0.4c0,0.2-0.1,0.5-0.5,0.8c-0.4,0.3-0.7,0.3-1,0.3c-0.3-0.1-0.6-0.3-0.6-0.6c0-0.1,0-0.2,0-0.4
			c0-0.1,0-0.3,0-0.4c0-0.3-0.4-1.6-1-3.8c-0.6-2.3-1.3-4.7-2-7.2c-0.7-2.5-1.1-4-1.2-4.4c0-0.2-0.1-0.4-0.1-0.6c-0.1,0-0.3,0-0.4,0
			c-0.2,0-0.7,0-1.7-0.2c-0.6-0.1-1.2-0.2-1.8-0.2c-1.7,0-3-0.1-3.7-0.1c-0.1,0-0.5,0-1.2,0.1c-0.7,0.1-1.1,0.1-1.2,0
			c-0.3-0.1-0.6-0.2-0.7-0.4c-1.7,7.4-2.8,12.3-3.3,14.6c0,0.1,0.1,0.3,0.1,0.6c0,0.4-0.2,0.8-0.4,1.3c0,0.1,0,0.2-0.1,0.2
			c0,0.1,0,0.2,0,0.3c0,0.1,0,0.2,0,0.3c0,0.1,0,0.1-0.1,0.2c0,0.2-0.3,0.4-0.7,0.5c-0.4,0.1-0.8,0-1.1-0.3
			c-0.2-0.2-0.3-0.4-0.3-0.7h-0.1l0.4-0.6c0-0.1,0-0.2,0-0.3c0-1.1,0.2-1.7,0.4-1.7c0.1,0,0.2,0,0.2,0c0.1-0.5,0.3-1.2,0.6-1.9
			c0.6-2.4,1.2-4.9,1.8-7.6c0.6-2.7,1-4.2,1.1-4.5c0.7-2.7,1.7-7.3,3.1-13.8c1.4-6.5,2.2-10.6,2.5-12.6c0-0.6,0.1-1,0.1-1.2
			c0-0.6,0.1-0.9,0.1-1.1c0.2-0.8,0.6-1.1,1.2-1c0.6,0.1,0.9,0.6,0.8,1.4c0,0.1,0,0.3-0.1,0.6C758.6,59.9,758.7,60.2,758.8,60.6z
			 M757.3,64.1c-0.2,0.7-0.4,1.5-0.6,2.4c-0.7,3.1-1.5,6.5-2.3,10c-0.8,3.6-1.3,5.7-1.5,6.6c-0.2,0.9-0.4,1.8-0.6,2.6
			c0.1,0,0.3-0.1,0.5-0.1c0.2,0,0.9,0,2.1,0.1c1.7,0.2,3.3,0.3,4.6,0.3c0.7,0,1.3,0,1.9-0.1c0.1,0,0.2-0.1,0.3-0.1
			c0.1,0,0.2,0,0.2,0c0.1,0,0.2,0,0.3,0C761.2,81.3,759.5,74.1,757.3,64.1z"/>
		<path class="st4" d="M779.2,58.6c0,0,0,0.3,0,0.8c0,0.2,0,0.7,0,1.5c0,0.1,0.1,0.2,0.1,0.2c0,0.1,0.2,0.5,0.4,1.2
			c0.2,0.7,0.9,2.3,1.9,4.7c1,2.4,2.2,5,3.4,7.7c1.2,2.7,2,4.4,2.2,4.9c0.3,0.8,1.4,4,3.3,9.6c1,2.9,1.7,5.1,2.3,6.8
			c0.2-0.8,0.5-1.8,0.9-2.8c1.1-3.9,1.9-6.7,2.4-8.4c0.7-2.7,1.7-6.9,3-12.6c1.3-5.7,2-9,2-10.2c0-0.2,0-0.4,0-0.6
			c0-0.2-0.1-0.3-0.1-0.4c0.1-0.3,0.5-0.4,1.2-0.3c0.6,0.1,0.9,0.3,0.9,0.6c0,0,0,0.2-0.1,0.4c0.1,0,0.3-0.1,0.4-0.1
			c0.6,0,1,0.4,1,1.2c0,0.1,0,0.6-0.1,1.2c-0.1,1-0.3,7.2-0.7,18.6c-0.3,10.6-0.4,17.1-0.3,19.7c0,0.5,0,0.9,0.1,1.2l0.1,1
			c0,0.4-0.3,0.8-0.7,1c-0.4,0.3-0.8,0.3-1.1,0c-0.3-0.2-0.4-0.7-0.4-1.3c0-0.1,0-0.3,0.1-0.5c0-0.2,0.1-0.4,0.1-0.5
			c0.1-0.6,0.2-3.5,0.4-8.7c0.2-5.2,0.3-7.9,0.3-8.1c0.1-2.4,0.2-6.3,0.3-11.4c0.1-5.2,0.1-8.6,0-10.2c0-0.6-0.1-0.9-0.1-1.1
			c0,0,0-0.1,0-0.1c-0.2,0.7-0.4,1.6-0.6,2.7c-0.6,2.4-1.3,5.2-2,8.3c-0.7,3.1-1.2,5-1.4,5.8c-0.2,1-1.1,4.3-2.6,10
			c-1.1,4-1.8,6.8-2.1,8.2c0,0.1,0,0.2,0.1,0.2c0.1,0.3,0.3,0.7,0.6,1c0,0.1,0.1,0.2,0.3,0.4c0.1,0.2,0.2,0.3,0.3,0.4
			c0.1,0.3,0.1,0.7-0.1,1.2c-0.2,0.4-0.5,0.6-0.9,0.6c-0.4,0-0.7-0.3-1-0.9c-0.1-0.1-0.2-0.4-0.2-0.6c0-0.1-0.1-0.2-0.1-0.3
			l-0.1-0.1c-0.4-0.2-0.7-0.4-0.9-0.6c0,0-0.1-0.1-0.2-0.2c-0.1,0-0.1,0-0.1,0c0,0,0,0,0.1-0.1c0.1,0,0.1-0.1,0.1-0.1
			c0,0,0.2-0.4,0.4-0.9c-0.2-0.6-0.4-1.4-0.7-2.4c-0.9-2.7-1.7-5.3-2.5-7.8c-0.8-2.5-1.3-4-1.5-4.4c-0.7-1.8-2.1-5.2-4.4-10.2
			c-1.6-3.5-2.8-6.2-3.7-8c0,1.3,0.1,2.8,0.1,4.5c0.1,6.4,0.2,10.2,0.2,11.6c0,3.5-0.3,11.4-0.9,24c0,0,0,0.1,0,0.3
			c0,0.1,0,0.2,0,0.3c0,0.1,0,0.2,0,0.2v0.6c-0.1,0.2-0.4,0.4-0.8,0.4c-0.4,0-0.8-0.1-1.1-0.3c-0.2-0.2-0.3-0.5-0.2-0.6
			c0,0,0-0.1,0.1-0.3c0.1-0.1,0.1-0.2,0.2-0.3c0.1-0.4,0.4-3.2,0.7-8.5c0.3-5.3,0.5-8.7,0.6-10.2c0-3.1,0-8-0.1-14.8
			c-0.1-4.4-0.3-7.6-0.4-9.8c-0.2-0.3-0.4-0.6-0.4-0.7c-0.1-0.6-0.1-1,0.2-1.2c0-0.2,0-0.4-0.1-0.6c0-0.3-0.1-0.6-0.1-0.7
			c-0.1-0.3-0.2-0.5-0.2-0.6c0-0.4,0.4-0.7,1-0.8C778.7,57.9,779.1,58.1,779.2,58.6z"/>
		<path class="st4" d="M833.4,61.7c-0.2,0-0.8,0-1.8-0.1c-0.4,0-1.7,0-4,0c-2.3,0-4.3,0-6.2-0.1c-1.2,0-2.2,0.2-3,0.5
			c-0.8,0.3-1.3,0.9-1.7,1.6c-0.3,0.7-0.6,1.4-0.6,1.9c-0.1,0.6-0.2,1.2-0.2,2.1c-0.1,2-0.2,6.8-0.4,14.3c1.1-0.1,2.7-0.4,5-0.6
			c1.3-0.2,3.2-0.3,5.6-0.4c0.1,0,0.2,0,0.4,0c0.2,0,0.3,0,0.4,0c0.5,0,0.7,0,0.8,0c0.2,0.1,0.4,0.4,0.5,0.8c0.1,0.5,0,0.8-0.3,1
			c-0.2,0.2-0.5,0.3-0.8,0.2c0,0-0.1,0-0.3-0.1c-0.1-0.1-0.2-0.1-0.3-0.1c-0.9-0.3-1.9-0.4-3-0.4c-2.8,0.1-5.5,0.6-8.1,1.4
			c0,0.7-0.1,1.5-0.1,2.2c-0.2,9.8-0.3,15.4-0.3,16.9c0,0.5,0.1,0.9,0.1,1.2c0,0.1,0.1,0.2,0.1,0.4c0,0.1,0,0.3,0,0.4
			c0,0.1,0,0.2,0,0.2c0.2,0,0.7,0,1.4,0.1c2.1,0.2,5.5,0.3,10.4,0.2c3.7,0,6.7-0.1,9.1-0.2c0.7,0,1.1-0.1,1.4-0.1l1.3-0.1
			c0.5,0,0.9,0.3,1.2,0.7c0.3,0.4,0.4,0.8,0.1,1c-0.3,0.3-0.8,0.4-1.5,0.4c-0.2,0-0.4,0-0.7-0.1c-0.3-0.1-0.5-0.1-0.6-0.1
			c-1.2-0.1-3-0.2-5.5-0.2c-6,0-10.8,0-14.3,0.3c-0.8,0-1.2,0.1-1.3,0.1c-0.6,0-1,0.1-1.2,0.1c-0.9-0.1-1.3-0.5-1.2-1.1
			c0-0.1,0-0.2,0-0.2c-0.1,0-0.2-0.1-0.3-0.1c-0.3-0.1-0.4-0.4-0.4-0.9c0-0.1,0-0.3,0.1-0.5c0-0.2,0.1-0.4,0.1-0.5
			c0-0.4,0.1-2.9,0.2-7.4c0.1-3.9,0.3-8,0.4-12.2c-0.1,0-0.2,0.1-0.2,0.1c-0.5,0-0.8-0.3-0.9-0.9c-0.1-0.6,0.1-1,0.6-1.2h0.6
			c0.1-4.6,0.2-7.3,0.3-8.1c0-0.6,0-2.1-0.1-4.4c-0.1-2.3-0.1-4.3,0-5.9c0.1-1.6,0.4-2.5,0.9-2.9c1.3-0.9,3-1.4,5.1-1.5
			c2.1-0.1,4.2-0.1,6.3,0.1c2.2,0.2,3.5,0.3,3.9,0.3c1-0.1,1.5-0.1,1.5-0.1c0.7-0.1,1.2-0.1,1.4-0.1c1.1,0,1.6,0.4,1.5,1
			C835,61.3,834.4,61.6,833.4,61.7z"/>
		<path class="st4" d="M868.9,59.6c0.1,0,0.4,0,0.9,0c0.8,0,2.5-0.1,5.1-0.3c0.2-0.3,0.5-0.4,0.9-0.4c0.2,0,0.3,0.1,0.4,0.2
			c2.9-0.2,4.8-0.4,5.5-0.5c0.5-0.1,0.8-0.1,0.9-0.1l0.8-0.1c0.3,0,0.6,0.3,0.8,0.7c0.2,0.4,0.2,0.8,0,1c-0.2,0.3-0.6,0.4-0.9,0.4
			c-0.1,0-0.2,0-0.4-0.1c-0.2,0-0.3-0.1-0.4-0.1c-0.9-0.1-2-0.2-3.4-0.1c-0.9,0-1.7,0.1-2.5,0.2c0,0.2-0.1,0.5-0.2,1
			c-0.3,1.1-0.6,4.1-0.9,9s-0.4,8.3-0.4,10.3c0,1.6,0.1,5.2,0.2,10.7c0.1,5.6,0.2,8.9,0.3,10.1c0,0.6,0.1,1,0.1,1.2l0.1,1.1
			c0,0.1,0,0.2-0.1,0.3c0.2,0,0.5-0.1,0.7-0.1c2.4-0.1,4.1-0.3,5.3-0.4c0.4,0,0.7-0.1,0.9-0.1l0.7-0.1c0.3,0,0.5,0.3,0.8,0.7
			c0.2,0.4,0.2,0.8,0,1c-0.2,0.3-0.5,0.4-0.9,0.4c-0.1,0-0.2,0-0.4-0.1c-0.2,0-0.3-0.1-0.3-0.1c-0.8-0.1-1.8-0.1-3.2-0.1
			c-3.4,0-6.1,0.3-8.4,0.6c-0.4,0.1-0.7,0.1-0.7,0.1c-0.3,0.1-0.6,0.1-0.7,0.1c-0.6,0-0.9-0.4-0.9-1c0-0.6,0.3-1,0.8-1.1
			c0.1,0,0.4,0,0.9,0c0.7,0.1,1.8,0.1,3.4,0.1c0-0.2-0.1-0.4-0.1-0.6c0-0.1,0-0.3,0.1-0.5c0.1-0.3,0.1-0.4,0.1-0.5
			c0-1,0.1-2.6,0-4.8c0-2.2,0-4.8-0.1-7.8c0-3,0-4.7,0-5c0-1.4,0.2-5.3,0.4-11.7c0.2-6.3,0.3-10.1,0.3-11.2c0,0,0-0.2,0-0.5
			c0-0.3,0-0.5,0-0.6c0-0.1,0-0.2,0-0.2c-1.5,0.1-2.9,0.4-4.1,0.6c-0.4,0.1-0.7,0.2-0.7,0.2c-0.4,0.1-0.6,0.1-0.7,0.1
			c-0.6,0-0.9-0.3-1-0.9C868.1,60.2,868.3,59.8,868.9,59.6z"/>
		<path class="st4" d="M908.6,66.3c-0.2-0.8-0.6-1.7-1.2-2.7c-0.5-0.9-1.3-1.8-2.4-2.9c-1.1-1.1-2.4-2-3.9-2.7
			c-0.9-0.5-1.9-0.7-3-0.8c-1.1,0-2,0.2-2.9,0.7c-0.8,0.4-1.5,1.2-2.2,2.2c-0.6,1-1,2.1-1.1,3.3c-0.2,2.1,0.2,4,1,5.9
			c0.9,1.9,2.1,3.5,3.6,4.8c0.8,0.7,1.6,1.4,2.4,2c0.8,0.6,1.7,1.2,2.8,1.9c1,0.7,1.6,1,1.7,1.1c0.1,0,0.4,0.3,0.9,0.6
			s0.9,0.7,1.3,0.9c0.4,0.3,0.9,0.6,1.4,1c0.6,0.4,1.2,0.9,1.8,1.4c0.6,0.5,1.2,1.1,1.7,1.7c1.6,1.7,2.8,3.8,3.7,6.2
			c0.9,2.5,1.2,5,0.9,7.6c-0.2,1.4-0.9,2.7-2.1,3.9c-1.2,1.2-2.5,2-4,2.4c-1.4,0.4-2.8,0.4-4.2,0.2c-1.4-0.3-2.7-0.8-3.7-1.5
			c-1.8-1.3-3.2-2.8-4.2-4.4c-1-1.6-1.5-3-1.7-4.1c-0.1-0.9,0-1.9,0.4-3c0.5-1.4,1.1-2.3,1.7-2.7c0.7-0.5,1.3-0.7,1.7-0.6
			c0.4,0,0.6,0.2,0.8,0.5l0.1,0.4l-1.4,1.6c-0.7,0.8-1.1,1.4-1.3,1.9c0,0.3-0.1,0.8-0.1,1.3c0,0.6,0.1,1.3,0.4,2.3s0.7,2,1.4,2.9
			c1,1.5,2.6,2.7,4.9,3.5c2.7,1,4.9,0.9,6.4-0.3c1.6-1.2,2.7-2.7,3.2-4.8c0.6-2,0.6-4,0.1-5.8c-0.6-2.3-1.7-4.2-3.3-5.8
			c-0.7-0.8-2.1-1.9-4.3-3.5c-2.1-1.5-4.5-3.3-7-5.4c-2.5-2-4.7-4-6.6-6c-1-1-1.6-2.4-1.9-4c-0.3-1.7-0.3-3.3,0.1-4.9
			c0.5-1.9,1.3-3.5,2.5-4.9c1.2-1.3,2.4-2,3.7-2c3.7,0,7.3,1.7,10.7,5.1c0.5,0.5,1.1,1.3,1.8,2.4c0.7,1.1,1,1.9,1.1,2.4
			c0.2,1.1,0.2,1.9-0.1,2.3c-0.2,0.5-0.6,0.5-1,0.1C909.2,67.9,908.9,67.3,908.6,66.3z"/>
		<path class="st4" d="M969.7,61.7c-0.2,0-0.8,0-1.8-0.1c-0.4,0-1.7,0-4,0c-2.3,0-4.3,0-6.2-0.1c-1.2,0-2.2,0.2-3,0.5
			c-0.8,0.3-1.3,0.9-1.7,1.6c-0.3,0.7-0.6,1.4-0.6,1.9c-0.1,0.6-0.2,1.2-0.2,2.1c-0.1,2-0.2,6.8-0.4,14.3c1.1-0.1,2.7-0.4,5-0.6
			c1.3-0.2,3.2-0.3,5.6-0.4c0.1,0,0.2,0,0.4,0c0.2,0,0.3,0,0.4,0c0.5,0,0.7,0,0.8,0c0.2,0.1,0.4,0.4,0.5,0.8c0.1,0.5,0,0.8-0.3,1
			c-0.2,0.2-0.5,0.3-0.8,0.2c0,0-0.1,0-0.3-0.1c-0.1-0.1-0.2-0.1-0.3-0.1c-0.9-0.3-1.9-0.4-3-0.4c-2.8,0.1-5.5,0.6-8.1,1.4
			c0,0.7-0.1,1.5-0.1,2.2c-0.2,9.8-0.3,15.4-0.3,16.9c0,0.5,0.1,0.9,0.1,1.2c0,0.1,0.1,0.2,0.1,0.4c0,0.1,0,0.3,0,0.4
			c0,0.1,0,0.2,0,0.2c0.2,0,0.7,0,1.4,0.1c2.1,0.2,5.5,0.3,10.4,0.2c3.7,0,6.7-0.1,9.1-0.2c0.7,0,1.1-0.1,1.4-0.1l1.3-0.1
			c0.5,0,0.9,0.3,1.2,0.7c0.3,0.4,0.4,0.8,0.1,1c-0.3,0.3-0.8,0.4-1.5,0.4c-0.2,0-0.4,0-0.7-0.1c-0.3-0.1-0.5-0.1-0.6-0.1
			c-1.2-0.1-3-0.2-5.5-0.2c-6,0-10.8,0-14.3,0.3c-0.8,0-1.2,0.1-1.3,0.1c-0.6,0-1,0.1-1.2,0.1c-0.9-0.1-1.3-0.5-1.2-1.1
			c0-0.1,0-0.2,0-0.2c-0.1,0-0.2-0.1-0.3-0.1c-0.3-0.1-0.4-0.4-0.4-0.9c0-0.1,0-0.3,0.1-0.5c0-0.2,0.1-0.4,0.1-0.5
			c0-0.4,0.1-2.9,0.2-7.4c0.1-3.9,0.3-8,0.4-12.2c-0.1,0-0.2,0.1-0.2,0.1c-0.5,0-0.8-0.3-0.9-0.9c-0.1-0.6,0.1-1,0.6-1.2h0.6
			c0.1-4.6,0.2-7.3,0.3-8.1c0-0.6,0-2.1-0.1-4.4c-0.1-2.3-0.1-4.3,0-5.9c0.1-1.6,0.4-2.5,0.9-2.9c1.3-0.9,3-1.4,5.1-1.5
			c2.1-0.1,4.2-0.1,6.3,0.1c2.2,0.2,3.5,0.3,3.9,0.3c1-0.1,1.5-0.1,1.5-0.1c0.7-0.1,1.2-0.1,1.4-0.1c1.1,0,1.6,0.4,1.5,1
			C971.2,61.3,970.7,61.6,969.7,61.7z"/>
		<path class="st4" d="M987,58.6c0,0,0,0.3,0,0.8c0,0.2,0,0.7,0,1.5c0,0.1,0.1,0.2,0.1,0.2c0,0.1,0.2,0.5,0.4,1.2
			c0.2,0.7,0.9,2.3,1.9,4.7c1,2.4,2.2,5,3.4,7.7c1.2,2.7,2,4.4,2.2,4.9c0.3,0.8,1.4,4,3.3,9.6c1,2.9,1.7,5.1,2.3,6.8
			c0.2-0.8,0.5-1.8,0.9-2.8c1.1-3.9,1.9-6.7,2.4-8.4c0.7-2.7,1.7-6.9,3-12.6c1.3-5.7,2-9,2-10.2c0-0.2,0-0.4,0-0.6
			c0-0.2-0.1-0.3-0.1-0.4c0.1-0.3,0.5-0.4,1.2-0.3c0.6,0.1,0.9,0.3,0.9,0.6c0,0,0,0.2-0.1,0.4c0.1,0,0.3-0.1,0.4-0.1
			c0.6,0,1,0.4,1,1.2c0,0.1,0,0.6-0.1,1.2c-0.1,1-0.3,7.2-0.7,18.6c-0.3,10.6-0.4,17.1-0.3,19.7c0,0.5,0,0.9,0.1,1.2l0.1,1
			c0,0.4-0.3,0.8-0.7,1c-0.4,0.3-0.8,0.3-1.1,0c-0.3-0.2-0.4-0.7-0.4-1.3c0-0.1,0-0.3,0.1-0.5c0-0.2,0.1-0.4,0.1-0.5
			c0.1-0.6,0.2-3.5,0.4-8.7c0.2-5.2,0.3-7.9,0.3-8.1c0.1-2.4,0.2-6.3,0.3-11.4c0.1-5.2,0.1-8.6,0-10.2c0-0.6-0.1-0.9-0.1-1.1
			c0,0,0-0.1,0-0.1c-0.2,0.7-0.4,1.6-0.6,2.7c-0.6,2.4-1.3,5.2-2,8.3c-0.7,3.1-1.2,5-1.4,5.8c-0.2,1-1.1,4.3-2.6,10
			c-1.1,4-1.8,6.8-2.1,8.2c0,0.1,0,0.2,0.1,0.2c0.1,0.3,0.3,0.7,0.6,1c0,0.1,0.1,0.2,0.3,0.4c0.1,0.2,0.2,0.3,0.3,0.4
			c0.1,0.3,0.1,0.7-0.1,1.2c-0.2,0.4-0.5,0.6-0.9,0.6c-0.4,0-0.7-0.3-1-0.9c-0.1-0.1-0.2-0.4-0.2-0.6c0-0.1-0.1-0.2-0.1-0.3
			l-0.1-0.1c-0.4-0.2-0.7-0.4-0.9-0.6c0,0-0.1-0.1-0.2-0.2c-0.1,0-0.1,0-0.1,0c0,0,0,0,0.1-0.1c0.1,0,0.1-0.1,0.1-0.1
			c0,0,0.2-0.4,0.4-0.9c-0.2-0.6-0.4-1.4-0.7-2.4c-0.9-2.7-1.7-5.3-2.5-7.8c-0.8-2.5-1.3-4-1.5-4.4c-0.7-1.8-2.1-5.2-4.4-10.2
			c-1.6-3.5-2.8-6.2-3.7-8c0,1.3,0.1,2.8,0.1,4.5c0.1,6.4,0.2,10.2,0.2,11.6c0,3.5-0.3,11.4-0.9,24c0,0,0,0.1,0,0.3
			c0,0.1,0,0.2,0,0.3c0,0.1,0,0.2,0,0.2v0.6c-0.1,0.2-0.4,0.4-0.8,0.4c-0.4,0-0.8-0.1-1.1-0.3c-0.2-0.2-0.3-0.5-0.2-0.6
			c0,0,0-0.1,0.1-0.3c0.1-0.1,0.1-0.2,0.2-0.3c0.1-0.4,0.4-3.2,0.7-8.5c0.3-5.3,0.5-8.7,0.6-10.2c0-3.1,0-8-0.1-14.8
			c-0.1-4.4-0.3-7.6-0.4-9.8c-0.2-0.3-0.4-0.6-0.4-0.7c-0.1-0.6-0.1-1,0.2-1.2c0-0.2,0-0.4-0.1-0.6c0-0.3-0.1-0.6-0.1-0.7
			c-0.1-0.3-0.2-0.5-0.2-0.6c0-0.4,0.4-0.7,1-0.8C986.5,57.9,986.9,58.1,987,58.6z"/>
		<path class="st4" d="M1017.8,59.6c0.1,0,0.4,0,0.9,0c0.8,0,2.5-0.1,5.1-0.3c0.2-0.3,0.5-0.4,0.9-0.4c0.2,0,0.3,0.1,0.4,0.2
			c2.9-0.2,4.8-0.4,5.5-0.5c0.5-0.1,0.8-0.1,0.9-0.1l0.8-0.1c0.3,0,0.6,0.3,0.8,0.7c0.2,0.4,0.2,0.8,0,1c-0.2,0.3-0.6,0.4-0.9,0.4
			c-0.1,0-0.2,0-0.4-0.1c-0.2,0-0.3-0.1-0.4-0.1c-0.9-0.1-2-0.2-3.4-0.1c-0.9,0-1.7,0.1-2.5,0.2c0,0.2-0.1,0.5-0.2,1
			c-0.3,1.1-0.6,4.1-0.9,9s-0.4,8.3-0.4,10.3c0,1.6,0.1,5.2,0.2,10.7c0.1,5.6,0.2,8.9,0.3,10.1c0,0.6,0.1,1,0.1,1.2l0.1,1.1
			c0,0.1,0,0.2-0.1,0.3c0.2,0,0.5-0.1,0.7-0.1c2.4-0.1,4.1-0.3,5.3-0.4c0.4,0,0.7-0.1,0.9-0.1l0.7-0.1c0.3,0,0.5,0.3,0.8,0.7
			c0.2,0.4,0.2,0.8,0,1c-0.2,0.3-0.5,0.4-0.9,0.4c-0.1,0-0.2,0-0.4-0.1c-0.2,0-0.3-0.1-0.3-0.1c-0.8-0.1-1.8-0.1-3.2-0.1
			c-3.4,0-6.1,0.3-8.4,0.6c-0.4,0.1-0.7,0.1-0.7,0.1c-0.3,0.1-0.6,0.1-0.7,0.1c-0.6,0-0.9-0.4-0.9-1c0-0.6,0.3-1,0.8-1.1
			c0.1,0,0.4,0,0.9,0c0.7,0.1,1.8,0.1,3.4,0.1c0-0.2-0.1-0.4-0.1-0.6c0-0.1,0-0.3,0.1-0.5c0.1-0.3,0.1-0.4,0.1-0.5
			c0-1,0.1-2.6,0-4.8c0-2.2,0-4.8-0.1-7.8c0-3,0-4.7,0-5c0-1.4,0.2-5.3,0.4-11.7c0.2-6.3,0.3-10.1,0.3-11.2c0,0,0-0.2,0-0.5
			c0-0.3,0-0.5,0-0.6c0-0.1,0-0.2,0-0.2c-1.5,0.1-2.9,0.4-4.1,0.6c-0.4,0.1-0.7,0.2-0.7,0.2c-0.4,0.1-0.6,0.1-0.7,0.1
			c-0.6,0-0.9-0.3-1-0.9C1016.9,60.2,1017.2,59.8,1017.8,59.6z"/>
		<path class="st4" d="M1044.6,60.1c0,0.2,0,0.6-0.1,1.4c0,0.7-0.3,3.9-0.6,9.7c-0.4,5.7-0.6,9.2-0.7,10.4c-0.2,2.4-0.6,6.2-1,11.6
			c-0.4,5.4-0.6,8.6-0.6,9.7c0,0.5,0.1,1,0.1,1.3c0,0.1,0,0.2,0,0.4c0,0.1,0.1,0.3,0.1,0.4c0.2,0,0.6,0,1.2,0
			c1.4,0.1,4.5,0.1,9.2-0.1c3.7-0.1,6.3-0.3,7.9-0.4c0.6,0,1-0.1,1.2-0.1l1.2-0.1c0.4,0,0.8,0.3,1.1,0.7s0.3,0.8,0,1.1
			c-0.2,0.3-0.7,0.4-1.3,0.4c-0.1,0-0.3,0-0.6-0.1c-0.3-0.1-0.4-0.1-0.5-0.1c-1.1-0.1-2.7-0.1-4.8-0.1c-5,0-9.1,0.2-12.5,0.6
			c-0.6,0-0.9,0.1-1.1,0.1c-0.5,0.1-0.9,0.1-1,0.1c-0.5,0-0.8-0.2-1-0.4c-0.2,0-0.5,0-0.6-0.2c-0.3-0.2-0.4-0.7-0.4-1.4
			c0-0.1,0-0.3,0.1-0.6c0-0.3,0.1-0.4,0.1-0.5c0-0.5,0.3-3.6,0.8-9.1c0.5-5.5,0.7-8.6,0.8-9.1c0.3-2.5,0.7-6.6,1-12.2
			c0.3-5.7,0.4-9.4,0.3-11.2c0-0.5-0.1-0.8-0.1-1.1c-0.1-0.5-0.1-0.9-0.1-1c0-0.8,0.4-1.2,1-1.3
			C1044.1,58.9,1044.5,59.2,1044.6,60.1z"/>
		<path class="st4" d="M1062.9,56.2l0.1,0.5c0.1,0.6,1.1,2.6,3,5.9c1.8,3.3,3.3,5.9,4.3,7.7c0.8,1.3,2.4,3.9,4.9,7.6
			c2.4,3.7,3.8,5.9,4.2,6.3c0.2-0.8,0.4-1.3,0.4-1.4c4.9-13.4,7.7-21,8.1-22.8c0.2-0.6,0.3-0.9,0.3-1.1c0.1-0.6,0.2-0.9,0.3-1.1
			c0.3-0.7,0.8-1,1.4-0.8c0.6,0.2,0.8,0.7,0.6,1.5c0,0.1-0.2,0.6-0.5,1.2c-1.3,2.8-3.8,9.3-7.5,19.3c-0.4,1.1-1.3,4.4-2.7,9.8
			c-1.4,5.4-2.4,9.3-3,11.7c0,0.1,0,0.2-0.1,0.3c0,0.1-0.1,0.3-0.2,0.5c-0.1,0.2-0.1,0.3-0.1,0.4c-0.2,0.7-0.3,1.1-0.4,1.2
			c-0.2,0.4-0.6,0.6-1.1,0.6c-0.5,0-0.8-0.2-0.9-0.5c-0.1-0.3,0-0.7,0.2-1.2c0-0.1,0.1-0.3,0.3-0.5c0.1-0.2,0.2-0.3,0.3-0.5
			c0.3-0.5,1.2-3.5,2.7-9.1c0.6-2.4,1.1-4.2,1.5-5.6c-0.2,0-0.3,0-0.4-0.1c0,0-0.1-0.1-0.1-0.3c0-0.1,0-0.2,0-0.3
			c-0.1-0.2-1.2-2-3.5-5.5c-2.2-3.5-3.4-5.4-3.7-5.8c-5.9-10.3-9.1-15.8-9.6-16.5c-0.2-0.3-0.3-0.4-0.4-0.4
			c-0.1-0.2-0.2-0.3-0.3-0.4c0-0.4,0.2-0.7,0.8-0.9C1062.2,55.9,1062.6,56,1062.9,56.2z"/>
		<path class="st4" d="M1126.7,60.1c0,0.2,0,0.6-0.1,1.4c0,0.7-0.3,3.9-0.6,9.7c-0.4,5.7-0.6,9.2-0.7,10.4c-0.2,2.4-0.6,6.2-1,11.6
			c-0.4,5.4-0.6,8.6-0.6,9.7c0,0.5,0.1,1,0.1,1.3c0,0.1,0,0.2,0,0.4c0,0.1,0.1,0.3,0.1,0.4c0.2,0,0.6,0,1.2,0
			c1.4,0.1,4.5,0.1,9.2-0.1c3.7-0.1,6.3-0.3,7.9-0.4c0.6,0,1-0.1,1.2-0.1l1.2-0.1c0.4,0,0.8,0.3,1.1,0.7s0.3,0.8,0,1.1
			c-0.2,0.3-0.7,0.4-1.3,0.4c-0.1,0-0.3,0-0.6-0.1c-0.3-0.1-0.4-0.1-0.5-0.1c-1.1-0.1-2.7-0.1-4.8-0.1c-5,0-9.1,0.2-12.5,0.6
			c-0.6,0-0.9,0.1-1.1,0.1c-0.5,0.1-0.9,0.1-1,0.1c-0.5,0-0.8-0.2-1-0.4c-0.2,0-0.5,0-0.6-0.2c-0.3-0.2-0.4-0.7-0.4-1.4
			c0-0.1,0-0.3,0.1-0.6c0-0.3,0.1-0.4,0.1-0.5c0-0.5,0.3-3.6,0.8-9.1c0.5-5.5,0.7-8.6,0.8-9.1c0.3-2.5,0.7-6.6,1-12.2
			c0.3-5.7,0.4-9.4,0.3-11.2c0-0.5-0.1-0.8-0.1-1.1c-0.1-0.5-0.1-0.9-0.1-1c0-0.8,0.4-1.2,1-1.3
			C1126.1,58.9,1126.5,59.2,1126.7,60.1z"/>
		<path class="st4" d="M1150.8,59.6c0.1,0,0.4,0,0.9,0c0.8,0,2.5-0.1,5.1-0.3c0.2-0.3,0.5-0.4,0.9-0.4c0.2,0,0.3,0.1,0.4,0.2
			c2.9-0.2,4.8-0.4,5.5-0.5c0.5-0.1,0.8-0.1,0.9-0.1l0.8-0.1c0.3,0,0.6,0.3,0.8,0.7c0.2,0.4,0.2,0.8,0,1c-0.2,0.3-0.6,0.4-0.9,0.4
			c-0.1,0-0.2,0-0.4-0.1c-0.2,0-0.3-0.1-0.4-0.1c-0.9-0.1-2-0.2-3.4-0.1c-0.9,0-1.7,0.1-2.5,0.2c0,0.2-0.1,0.5-0.2,1
			c-0.3,1.1-0.6,4.1-0.9,9s-0.4,8.3-0.4,10.3c0,1.6,0.1,5.2,0.2,10.7c0.1,5.6,0.2,8.9,0.3,10.1c0,0.6,0.1,1,0.1,1.2l0.1,1.1
			c0,0.1,0,0.2-0.1,0.3c0.2,0,0.5-0.1,0.7-0.1c2.4-0.1,4.1-0.3,5.3-0.4c0.4,0,0.7-0.1,0.9-0.1l0.7-0.1c0.3,0,0.5,0.3,0.8,0.7
			c0.2,0.4,0.2,0.8,0,1c-0.2,0.3-0.5,0.4-0.9,0.4c-0.1,0-0.2,0-0.4-0.1c-0.2,0-0.3-0.1-0.3-0.1c-0.8-0.1-1.8-0.1-3.2-0.1
			c-3.4,0-6.1,0.3-8.4,0.6c-0.4,0.1-0.7,0.1-0.7,0.1c-0.3,0.1-0.6,0.1-0.7,0.1c-0.6,0-0.9-0.4-0.9-1c0-0.6,0.3-1,0.8-1.1
			c0.1,0,0.4,0,0.9,0c0.7,0.1,1.8,0.1,3.4,0.1c0-0.2-0.1-0.4-0.1-0.6c0-0.1,0-0.3,0.1-0.5c0.1-0.3,0.1-0.4,0.1-0.5
			c0-1,0.1-2.6,0-4.8c0-2.2,0-4.8-0.1-7.8c0-3,0-4.7,0-5c0-1.4,0.2-5.3,0.4-11.7c0.2-6.3,0.3-10.1,0.3-11.2c0,0,0-0.2,0-0.5
			c0-0.3,0-0.5,0-0.6c0-0.1,0-0.2,0-0.2c-1.5,0.1-2.9,0.4-4.1,0.6c-0.4,0.1-0.7,0.2-0.7,0.2c-0.4,0.1-0.6,0.1-0.7,0.1
			c-0.6,0-0.9-0.3-1-0.9C1149.9,60.2,1150.2,59.8,1150.8,59.6z"/>
		<path class="st4" d="M1176.2,58.7c0,0.1,0,0.6-0.1,1.4c-0.1,1.1-0.2,2.6-0.2,4.6c1.4-1.4,3.1-2.7,5-3.8c2.6-1.6,4.6-2.3,6-2.1
			c1.1,0.1,2,0.6,2.7,1.4s1.1,1.5,1.2,2.2c0.1,0.9-0.1,2.6-0.7,5.1c-0.6,2.5-1.6,4.8-3,7.1c-1.6,2.4-3.6,4.4-6.1,6c0.4,0,0.8,0,1,0
			c0,0,0.4-0.1,0.9-0.1c0.6,0,1,0,1.3-0.1c0.3,0,0.7,0,1.4,0c0.7,0,1.2,0.1,1.6,0.2c0.4,0.1,1,0.2,1.7,0.4c0.7,0.2,1.3,0.4,1.9,0.7
			s1.2,0.7,1.8,1.2c0.6,0.5,1.3,1,1.9,1.6c1.7,1.8,2.5,4.8,2.4,9c0,1.5-0.6,3.6-1.7,6.3c-1.1,2.6-2.6,4.8-4.7,6.3
			c-1.3,0.8-2.8,1.2-4.4,1.1c-1.6-0.1-3.2-0.5-4.8-1.2c-1.4-0.6-2.8-1.7-4.1-3.2c-0.1-0.2-0.3-0.4-0.5-0.6c0,0.6,0.1,1,0.1,1.3
			c0,0.4,0.1,0.8,0.1,1.2c0,0.1,0,0.2,0.1,0.4c0.1,0.2,0.1,0.3,0.1,0.4c0,0.2-0.2,0.5-0.6,0.8c-0.4,0.3-0.7,0.3-1.1,0.2
			s-0.5-0.5-0.6-0.9c0,0,0-0.1,0-0.2c0-0.1,0-0.3,0.1-0.4s0.1-0.3,0.1-0.4c0.1-1.2,0-7.7-0.1-19.6c0-1,0-2-0.1-3
			c-0.2-0.3-0.2-0.6,0-0.9c0-5.5-0.1-10-0.2-13.5c-0.2-0.3-0.3-0.8-0.1-1.4c-0.1-2.4-0.2-4.2-0.3-5.4c0-0.8-0.1-1.2-0.1-1.2
			c0-0.5-0.1-0.9-0.1-1.1c0.1-0.8,0.5-1.2,1.1-1.2C1175.8,57.5,1176.1,57.9,1176.2,58.7z M1175.9,68c0,3.3,0.1,7.5,0.3,12.5h0.1
			c0.1,0,0.3,0,0.6,0s0.5,0,0.6-0.1c0.7-0.1,1.8-0.6,3.4-1.7c1.6-1,3-2.3,4.2-3.7c0.9-1.2,1.7-2.4,2.4-3.9c0.7-1.4,1.2-2.6,1.4-3.3
			c0.3-0.8,0.4-1.4,0.5-1.9c0.4-1.8,0.4-3.2-0.1-4.2c-0.2-0.7-0.8-1.1-1.6-1.4c-0.8-0.3-1.7-0.2-2.7,0.1c-3.4,1.2-5.9,3-7.6,5.3
			c-0.2,0.3-0.4,0.6-0.6,0.9c-0.2,0.5-0.4,0.8-0.4,0.9C1176.2,67.6,1176.1,67.8,1175.9,68z M1176.2,106.1c0,0.1,0,0.3-0.1,0.4
			c0.4-0.2,0.7-0.5,0.9-0.9C1176.8,105.9,1176.5,106.1,1176.2,106.1z M1176.2,82.7c0,1,0,2.4,0.1,4.1c0.1,3.7,0.2,7.2,0.3,10.4
			c0,0.2,0,0.5,0,0.7h0.1c0.2,0.2,0.5,0.6,0.7,1.3c0,0.1,0.1,0.3,0.2,0.6c0.1,0.3,0.2,0.6,0.2,0.8c0.5,0.9,1.5,1.9,3.2,3.2
			c1.7,1.3,3.5,1.9,5.6,1.9c1.3,0,2.7-0.6,3.9-1.7c1.3-1.1,2.2-2.1,2.8-3.1c0.6-1,1-1.7,1.2-2.3c1.1-3.1,1.3-6.4,0.5-9.9
			c-0.3-1.2-0.8-2.4-1.5-3.5c-0.7-1.1-1.6-1.9-2.7-2.4c-0.5-0.3-1-0.5-1.5-0.7c-0.5-0.2-0.9-0.3-1.4-0.4c-0.4-0.1-0.8-0.1-1.1-0.2
			c-0.3,0-0.6,0-1,0c-0.4,0.1-0.7,0.1-0.8,0.1c-0.2,0-0.4,0.1-0.8,0.2c-0.4,0.1-0.6,0.2-0.7,0.2c-0.1,0-0.7,0.2-1.9,0.4
			c-1.2,0.1-2,0.2-2.5,0.2c-0.9,0-1.6,0-2.2-0.1c-0.3,0.1-0.5,0.1-0.6,0.1C1176.3,82.7,1176.3,82.7,1176.2,82.7z"/>
		<path class="st4" d="M1224.3,61.7c-0.2,0-0.8,0-1.8-0.1c-0.4,0-1.7,0-4,0c-2.3,0-4.3,0-6.2-0.1c-1.2,0-2.2,0.2-3,0.5
			c-0.8,0.3-1.3,0.9-1.7,1.6c-0.3,0.7-0.6,1.4-0.6,1.9c-0.1,0.6-0.2,1.2-0.2,2.1c-0.1,2-0.2,6.8-0.4,14.3c1.1-0.1,2.7-0.4,5-0.6
			c1.3-0.2,3.2-0.3,5.6-0.4c0.1,0,0.2,0,0.4,0c0.2,0,0.3,0,0.4,0c0.5,0,0.7,0,0.8,0c0.2,0.1,0.4,0.4,0.5,0.8c0.1,0.5,0,0.8-0.3,1
			c-0.2,0.2-0.5,0.3-0.8,0.2c0,0-0.1,0-0.3-0.1c-0.1-0.1-0.2-0.1-0.3-0.1c-0.9-0.3-1.9-0.4-3-0.4c-2.8,0.1-5.5,0.6-8.1,1.4
			c0,0.7-0.1,1.5-0.1,2.2c-0.2,9.8-0.3,15.4-0.3,16.9c0,0.5,0.1,0.9,0.1,1.2c0,0.1,0.1,0.2,0.1,0.4c0,0.1,0,0.3,0,0.4
			c0,0.1,0,0.2,0,0.2c0.2,0,0.7,0,1.4,0.1c2.1,0.2,5.5,0.3,10.4,0.2c3.7,0,6.7-0.1,9.1-0.2c0.7,0,1.1-0.1,1.4-0.1l1.3-0.1
			c0.5,0,0.9,0.3,1.2,0.7c0.3,0.4,0.4,0.8,0.1,1c-0.3,0.3-0.8,0.4-1.5,0.4c-0.2,0-0.4,0-0.7-0.1c-0.3-0.1-0.5-0.1-0.6-0.1
			c-1.2-0.1-3-0.2-5.5-0.2c-6,0-10.8,0-14.3,0.3c-0.8,0-1.2,0.1-1.3,0.1c-0.6,0-1,0.1-1.2,0.1c-0.9-0.1-1.3-0.5-1.2-1.1
			c0-0.1,0-0.2,0-0.2c-0.1,0-0.2-0.1-0.3-0.1c-0.3-0.1-0.4-0.4-0.4-0.9c0-0.1,0-0.3,0.1-0.5c0-0.2,0.1-0.4,0.1-0.5
			c0-0.4,0.1-2.9,0.2-7.4c0.1-3.9,0.3-8,0.4-12.2c-0.1,0-0.2,0.1-0.2,0.1c-0.5,0-0.8-0.3-0.9-0.9c-0.1-0.6,0.1-1,0.6-1.2h0.6
			c0.1-4.6,0.2-7.3,0.3-8.1c0-0.6,0-2.1-0.1-4.4c-0.1-2.3-0.1-4.3,0-5.9c0.1-1.6,0.4-2.5,0.9-2.9c1.3-0.9,3-1.4,5.1-1.5
			c2.1-0.1,4.2-0.1,6.3,0.1c2.2,0.2,3.5,0.3,3.9,0.3c1-0.1,1.5-0.1,1.5-0.1c0.7-0.1,1.2-0.1,1.4-0.1c1.1,0,1.6,0.4,1.5,1
			C1225.9,61.3,1225.3,61.6,1224.3,61.7z"/>
		<path class="st4" d="M1241.2,59.8c0,0.2,0,0.6,0,1.4c0,0.7-0.1,2.5-0.1,5.4c0.3-0.3,0.7-0.6,1.2-1c2.7-2.4,5.2-4,7.5-5
			c2.7-1.1,5.1-1.2,7.2-0.4c1.2,0.4,2.1,1.1,2.8,2c0.7,0.9,1.2,1.7,1.3,2.4c0.2,1.1-0.2,2.9-1.4,5.6s-3,5.1-5.7,7.5
			c-0.9,0.8-1.9,1.5-3.1,2.1c-1.2,0.6-2.1,1.1-3,1.4c-0.8,0.3-1.7,0.6-2.6,0.9c-0.9,0.3-1.4,0.5-1.5,0.5c-0.5,0.2-1,0.5-1.4,0.6
			c0,0,0.1,0.1,0.2,0.2c0,0.1,0.2,0.4,0.5,1c0.7,1.4,1.9,4,3.7,7.8c1.8,3.8,3,6.5,3.5,7.8c0.4,1,1.1,2.1,2.1,3.6s1.8,2,2.4,1.7
			c0.7-0.3,1.4-0.8,1.9-1.5c0.6-0.7,1-1.5,1.2-2.3c0.3-0.9,0.4-1.6,0.5-2.1c0.1-0.6,0.2-1,0.2-1.5c0-0.4,0-0.7,0-1.1
			c0-0.1,0-0.2,0-0.4s0-0.3,0-0.3c0-0.1,0-0.2,0-0.3c0-0.3,0.3-0.6,0.7-0.9c0.4-0.3,0.8-0.3,1.1,0c0.3,0.2,0.4,0.6,0.4,1.2
			c0,0.1,0,0.3-0.1,0.6c-0.1,0.2-0.1,0.4-0.1,0.4c0,0,0,0.3-0.1,0.6c-0.1,0.4-0.2,0.7-0.3,1.1c-0.1,0.4-0.2,0.8-0.4,1.3
			c-0.1,0.5-0.3,1.1-0.6,1.7c-0.2,0.6-0.5,1.2-0.8,1.7c-0.5,1-1.2,1.8-2.1,2.4c-0.9,0.6-1.7,0.9-2.3,0.8c-1.3-0.3-2.4-1.1-3-2.4
			c-0.4-0.9-1.3-2.7-2.6-5.6s-2.6-5.5-3.7-8c-1.2-2.4-2.1-4.1-2.7-4.8c-0.3-0.4-0.5-0.6-0.6-0.8c-0.2-0.2-0.3-0.3-0.4-0.4
			c-0.2,10.8-0.3,16.7-0.2,17.8c0,0.6,0.1,1,0.1,1.2l0.1,1.2c0,0.4-0.3,0.8-0.7,1.1c-0.4,0.3-0.8,0.3-1,0.1
			c-0.3-0.2-0.4-0.7-0.4-1.4c0-0.1,0-0.3,0.1-0.6c0-0.3,0.1-0.4,0.1-0.5c0-0.4,0.1-2,0.2-4.8c0.1-2.7,0.2-5.6,0.3-8.5
			c0.1-3,0.1-4.6,0.1-4.9c0-0.4,0-1,0.1-1.7c-0.3-0.2-0.5-0.5-0.4-0.8c0-0.2,0.2-0.4,0.4-0.6c0-2.1,0-5,0-8.8c0-6-0.1-9.8-0.4-11.6
			c0-0.6-0.1-1-0.1-1.2c-0.1-0.5-0.1-0.9-0.1-1c0-0.8,0.4-1.2,1-1.2C1240.8,58.6,1241.1,59,1241.2,59.8z M1241.2,69.6
			c0,0.5,0,0.9,0,1.4c0,5.5,0,9,0,10.3c0,0.1,0,0.3,0,0.4c0.1,0,0.2-0.1,0.4-0.1c0.3-0.1,0.5-0.1,0.6-0.1c0,0,0.3-0.1,0.8-0.3
			c0.5-0.1,0.9-0.3,1.4-0.4s1-0.3,1.8-0.6c0.7-0.3,1.4-0.5,2.1-0.8c0.6-0.3,1.4-0.6,2.1-1c0.8-0.4,1.5-0.9,2.1-1.3
			c1.5-1.1,2.8-2.4,4-3.7c1.2-1.4,2-2.5,2.4-3.3c0.5-0.8,0.8-1.4,0.9-1.8c0.6-1.9,0.5-3.5-0.4-4.8c-0.5-0.8-1.3-1.5-2.4-1.9
			c-1.1-0.5-2.3-0.6-3.5-0.4c-3,0.5-6,2.1-8.9,4.8c-0.4,0.4-0.9,0.9-1.3,1.4c-0.7,0.9-1,1.3-1.1,1.4
			C1241.8,69.1,1241.5,69.4,1241.2,69.6z"/>
		<path class="st4" d="M1280.2,60.6v1.3c0,1.2,0.6,4.6,1.7,10.2c1.1,5.5,1.9,9.4,2.5,11.6c0.4,1.6,1.4,5,2.9,10.2
			c1.2,3.9,1.9,6.5,2.4,7.9c0.1-0.2,0.2-0.4,0.2-0.6c0,0.2,0.1,0.6,0.4,1.3c0.3,0.7,0.4,1.1,0.3,1.2c0,0-0.1,0.1-0.1,0.1
			c0,0.1,0.1,0.2,0.1,0.4c0,0.2-0.1,0.5-0.5,0.8c-0.4,0.3-0.7,0.3-1,0.3c-0.3-0.1-0.6-0.3-0.6-0.6c0-0.1,0-0.2,0-0.4
			c0-0.1,0-0.3,0-0.4c0-0.3-0.4-1.6-1-3.8c-0.6-2.3-1.3-4.7-2-7.2c-0.7-2.5-1.1-4-1.2-4.4c0-0.2-0.1-0.4-0.1-0.6c-0.1,0-0.3,0-0.4,0
			c-0.2,0-0.7,0-1.7-0.2c-0.6-0.1-1.2-0.2-1.8-0.2c-1.7,0-3-0.1-3.7-0.1c-0.1,0-0.5,0-1.2,0.1c-0.7,0.1-1.1,0.1-1.2,0
			c-0.3-0.1-0.6-0.2-0.7-0.4c-1.7,7.4-2.8,12.3-3.3,14.6c0,0.1,0.1,0.3,0.1,0.6c0,0.4-0.2,0.8-0.4,1.3c0,0.1,0,0.2-0.1,0.2
			c0,0.1,0,0.2,0,0.3c0,0.1,0,0.2,0,0.3c0,0.1,0,0.1-0.1,0.2c0,0.2-0.3,0.4-0.7,0.5c-0.4,0.1-0.8,0-1.1-0.3
			c-0.2-0.2-0.3-0.4-0.3-0.7h-0.1l0.4-0.6c0-0.1,0-0.2,0-0.3c0-1.1,0.2-1.7,0.4-1.7c0.1,0,0.2,0,0.2,0c0.1-0.5,0.3-1.2,0.6-1.9
			c0.6-2.4,1.2-4.9,1.8-7.6c0.6-2.7,1-4.2,1.1-4.5c0.7-2.7,1.7-7.3,3.1-13.8c1.4-6.5,2.2-10.6,2.5-12.6c0-0.6,0.1-1,0.1-1.2
			c0-0.6,0.1-0.9,0.1-1.1c0.2-0.8,0.6-1.1,1.2-1c0.6,0.1,0.9,0.6,0.8,1.4c0,0.1,0,0.3-0.1,0.6C1280,59.9,1280.1,60.2,1280.2,60.6z
			 M1278.7,64.1c-0.2,0.7-0.4,1.5-0.6,2.4c-0.7,3.1-1.5,6.5-2.3,10c-0.8,3.6-1.3,5.7-1.5,6.6c-0.2,0.9-0.4,1.8-0.6,2.6
			c0.1,0,0.3-0.1,0.5-0.1c0.2,0,0.9,0,2.1,0.1c1.7,0.2,3.3,0.3,4.6,0.3c0.7,0,1.3,0,1.9-0.1c0.1,0,0.2-0.1,0.3-0.1
			c0.1,0,0.2,0,0.2,0c0.1,0,0.2,0,0.3,0C1282.6,81.3,1280.9,74.1,1278.7,64.1z"/>
		<path class="st4" d="M1290.8,60.6c0,0,0.3,0,0.7,0c0.5,0,5.2-0.3,14.3-1.2c1-0.1,3.6-0.2,7.8-0.2c4.2,0,6.6,0,7.3,0
			c0,0,0.2,0,0.4,0c0.2,0,0.3,0,0.4,0c0.4,0,0.7,0.1,0.7,0.1c0.2,0.1,0.4,0.4,0.4,0.8c0,0.4-0.1,0.8-0.4,1.1
			c-0.2,0.2-0.5,0.3-0.8,0.2c0,0-0.1-0.1-0.3-0.2c-0.1-0.1-0.2-0.1-0.3-0.1c-0.4-0.1-2.3-0.3-5.8-0.5c-3.5-0.2-5.6-0.2-6.3-0.2
			c-0.7,0-1.5,0-2.5,0.1c0.1,0.2,0.2,0.5,0.3,0.9c0,0.1-0.1,0.6-0.2,1.2c-0.2,1.2-0.4,4-0.6,8.7c-0.2,4.6-0.4,8-0.4,10.2
			c0,1.2-0.1,4.5-0.1,10.1c0,5.6,0,8.9,0.1,10c0,0.5,0.1,0.9,0.1,1.2l0.1,1.1c0,0.4-0.3,0.8-0.7,1c-0.4,0.3-0.8,0.3-1.1,0
			c-0.3-0.2-0.4-0.7-0.4-1.3c0-0.1,0-0.3,0.1-0.6c0.1-0.2,0.1-0.4,0.1-0.5c0-0.5,0.1-3.5,0.2-8.9c0.1-5.4,0.1-8.1,0.1-8.3
			c0.4-12.6,0.6-20,0.6-22.2c0-0.7,0-1,0-1.1c0-0.5,0-0.8,0-0.9c0-0.2,0.1-0.4,0.1-0.6c-1.3,0.1-2.9,0.3-4.7,0.5
			c-4.2,0.4-6.9,0.8-8.1,1.1c-0.4,0.1-0.7,0.1-0.7,0.1c-0.3,0.1-0.5,0.1-0.6,0.1c-0.5,0-0.8-0.4-0.8-1
			C1290.1,61,1290.3,60.7,1290.8,60.6z"/>
		<path class="st4" d="M1351.8,67.1c0-0.1,0.1-0.2,0.2-0.2c0.3-0.2,0.5-0.1,0.6,0.1c0.3,0.5,0.4,1.8,0.4,3.7c0,0.4,0,1-0.1,1.7
			c-0.1,0.7-0.1,1.2-0.1,1.4c0,0.1,0,0.5,0,1.3c0,0.7-0.1,1.5-0.1,2.2c0,0.7-0.1,1.6-0.3,2.8c-0.1,1.2-0.3,2.3-0.4,3.4
			c-0.1,1.1-0.3,2.4-0.6,3.7c-0.3,1.4-0.6,2.7-0.9,4c-0.8,3.2-2.1,6.4-3.9,9.5c-1.8,3.1-3.9,5.5-6.3,7.1c-0.8,0.6-1.7,0.8-2.7,0.5
			c-1-0.2-1.8-0.6-2.6-1.2c-0.8-0.6-1.4-1.2-1.9-1.8c-0.8-1.1-1.4-2.2-1.9-3.5c-1.1-3-2-7-2.8-12c-0.8-5-1.2-10.2-1-15.4
			c0-3.3,0.7-6.4,1.9-9.4c1-2.3,2.1-4.2,3.4-5.7c1.3-1.6,2.7-2.5,4.1-2.9c1.7-0.5,3.4-0.4,5.2,0.1c1.8,0.6,3.4,1.4,4.7,2.6
			c1.5,1.3,2.9,3.1,4,5.5C1351.1,65.2,1351.5,66.1,1351.8,67.1z M1350.1,69.8c0-1-0.1-1.9-0.4-2.9c-0.3-1.2-1.1-2.7-2.2-4.4
			c-1.2-1.7-2.7-3.1-4.5-4.3c-1.1-0.6-2.3-0.9-3.6-0.9c-1.4,0-2.7,0.4-3.9,1.2c-1,0.6-1.9,1.4-2.8,2.6c-0.9,1.1-1.4,2.4-1.7,3.7
			c-1,4.2-1.6,8.1-1.9,11.6c-0.3,3.6-0.4,6.1-0.3,7.5c0.1,1.4,0.3,3.1,0.6,5c0.4,2.6,1,5.4,1.8,8.4c0.9,3,2,5.5,3.3,7.4
			c1,1.4,2.2,2.2,3.5,2.3c1.4,0,2.7-0.6,3.8-2.1c4-5.2,6.6-10.5,7.8-16.1c0.9-3.7,1.3-7.8,1.4-12.3c0-1.2,0.1-2.3,0.1-3.4
			c0-0.2,0-0.5,0-0.8C1350.4,72.3,1350.1,71.5,1350.1,69.8z"/>
		<path class="st4" d="M1363.3,59.8c0,0.2,0,0.6,0,1.4c0,0.7-0.1,2.5-0.1,5.4c0.3-0.3,0.7-0.6,1.2-1c2.7-2.4,5.2-4,7.5-5
			c2.7-1.1,5.1-1.2,7.2-0.4c1.2,0.4,2.1,1.1,2.8,2c0.7,0.9,1.2,1.7,1.3,2.4c0.2,1.1-0.2,2.9-1.4,5.6s-3,5.1-5.7,7.5
			c-0.9,0.8-1.9,1.5-3.1,2.1c-1.2,0.6-2.1,1.1-3,1.4c-0.8,0.3-1.7,0.6-2.6,0.9c-0.9,0.3-1.4,0.5-1.5,0.5c-0.5,0.2-1,0.5-1.4,0.6
			c0,0,0.1,0.1,0.2,0.2c0,0.1,0.2,0.4,0.5,1c0.7,1.4,1.9,4,3.7,7.8c1.8,3.8,3,6.5,3.5,7.8c0.4,1,1.1,2.1,2.1,3.6s1.8,2,2.4,1.7
			c0.7-0.3,1.4-0.8,1.9-1.5c0.6-0.7,1-1.5,1.2-2.3c0.3-0.9,0.4-1.6,0.5-2.1c0.1-0.6,0.2-1,0.2-1.5c0-0.4,0-0.7,0-1.1
			c0-0.1,0-0.2,0-0.4s0-0.3,0-0.3c0-0.1,0-0.2,0-0.3c0-0.3,0.3-0.6,0.7-0.9c0.4-0.3,0.8-0.3,1.1,0c0.3,0.2,0.4,0.6,0.4,1.2
			c0,0.1,0,0.3-0.1,0.6c-0.1,0.2-0.1,0.4-0.1,0.4c0,0,0,0.3-0.1,0.6c-0.1,0.4-0.2,0.7-0.3,1.1c-0.1,0.4-0.2,0.8-0.4,1.3
			c-0.1,0.5-0.3,1.1-0.6,1.7c-0.2,0.6-0.5,1.2-0.8,1.7c-0.5,1-1.2,1.8-2.1,2.4c-0.9,0.6-1.7,0.9-2.3,0.8c-1.3-0.3-2.4-1.1-3-2.4
			c-0.4-0.9-1.3-2.7-2.6-5.6s-2.6-5.5-3.7-8c-1.2-2.4-2.1-4.1-2.7-4.8c-0.3-0.4-0.5-0.6-0.6-0.8c-0.2-0.2-0.3-0.3-0.4-0.4
			c-0.2,10.8-0.3,16.7-0.2,17.8c0,0.6,0.1,1,0.1,1.2l0.1,1.2c0,0.4-0.3,0.8-0.7,1.1c-0.4,0.3-0.8,0.3-1,0.1
			c-0.3-0.2-0.4-0.7-0.4-1.4c0-0.1,0-0.3,0.1-0.6c0-0.3,0.1-0.4,0.1-0.5c0-0.4,0.1-2,0.2-4.8c0.1-2.7,0.2-5.6,0.3-8.5
			c0.1-3,0.1-4.6,0.1-4.9c0-0.4,0-1,0.1-1.7c-0.3-0.2-0.5-0.5-0.4-0.8c0-0.2,0.2-0.4,0.4-0.6c0-2.1,0-5,0-8.8c0-6-0.1-9.8-0.4-11.6
			c0-0.6-0.1-1-0.1-1.2c-0.1-0.5-0.1-0.9-0.1-1c0-0.8,0.4-1.2,1-1.2C1362.8,58.6,1363.2,59,1363.3,59.8z M1363.2,69.6
			c0,0.5,0,0.9,0,1.4c0,5.5,0,9,0,10.3c0,0.1,0,0.3,0,0.4c0.1,0,0.2-0.1,0.4-0.1c0.3-0.1,0.5-0.1,0.6-0.1c0,0,0.3-0.1,0.8-0.3
			c0.5-0.1,0.9-0.3,1.4-0.4s1-0.3,1.8-0.6c0.7-0.3,1.4-0.5,2.1-0.8c0.6-0.3,1.4-0.6,2.1-1c0.8-0.4,1.5-0.9,2.1-1.3
			c1.5-1.1,2.8-2.4,4-3.7c1.2-1.4,2-2.5,2.4-3.3c0.5-0.8,0.8-1.4,0.9-1.8c0.6-1.9,0.5-3.5-0.4-4.8c-0.5-0.8-1.3-1.5-2.4-1.9
			c-1.1-0.5-2.3-0.6-3.5-0.4c-3,0.5-6,2.1-8.9,4.8c-0.4,0.4-0.9,0.9-1.3,1.4c-0.7,0.9-1,1.3-1.1,1.4
			C1363.9,69.1,1363.5,69.4,1363.2,69.6z"/>
		<path class="st4" d="M1410.7,61.7c-0.2,0-0.8,0-1.8-0.1c-0.4,0-1.7,0-4,0c-2.3,0-4.3,0-6.2-0.1c-1.2,0-2.2,0.2-3,0.5
			c-0.8,0.3-1.3,0.9-1.7,1.6c-0.3,0.7-0.6,1.4-0.6,1.9c-0.1,0.6-0.2,1.2-0.2,2.1c-0.1,2-0.2,6.8-0.4,14.3c1.1-0.1,2.7-0.4,5-0.6
			c1.3-0.2,3.2-0.3,5.6-0.4c0.1,0,0.2,0,0.4,0c0.2,0,0.3,0,0.4,0c0.5,0,0.7,0,0.8,0c0.2,0.1,0.4,0.4,0.5,0.8c0.1,0.5,0,0.8-0.3,1
			c-0.2,0.2-0.5,0.3-0.8,0.2c0,0-0.1,0-0.3-0.1c-0.1-0.1-0.2-0.1-0.3-0.1c-0.9-0.3-1.9-0.4-3-0.4c-2.8,0.1-5.5,0.6-8.1,1.4
			c0,0.7-0.1,1.5-0.1,2.2c-0.2,9.8-0.3,15.4-0.3,16.9c0,0.5,0.1,0.9,0.1,1.2c0,0.1,0.1,0.2,0.1,0.4c0,0.1,0,0.3,0,0.4
			c0,0.1,0,0.2,0,0.2c0.2,0,0.7,0,1.4,0.1c2.1,0.2,5.5,0.3,10.4,0.2c3.7,0,6.7-0.1,9.1-0.2c0.7,0,1.1-0.1,1.4-0.1l1.3-0.1
			c0.5,0,0.9,0.3,1.2,0.7c0.3,0.4,0.4,0.8,0.1,1c-0.3,0.3-0.8,0.4-1.5,0.4c-0.2,0-0.4,0-0.7-0.1c-0.3-0.1-0.5-0.1-0.6-0.1
			c-1.2-0.1-3-0.2-5.5-0.2c-6,0-10.8,0-14.3,0.3c-0.8,0-1.2,0.1-1.3,0.1c-0.6,0-1,0.1-1.2,0.1c-0.9-0.1-1.3-0.5-1.2-1.1
			c0-0.1,0-0.2,0-0.2c-0.1,0-0.2-0.1-0.3-0.1c-0.3-0.1-0.4-0.4-0.4-0.9c0-0.1,0-0.3,0.1-0.5c0-0.2,0.1-0.4,0.1-0.5
			c0-0.4,0.1-2.9,0.2-7.4c0.1-3.9,0.3-8,0.4-12.2c-0.1,0-0.2,0.1-0.2,0.1c-0.5,0-0.8-0.3-0.9-0.9c-0.1-0.6,0.1-1,0.6-1.2h0.6
			c0.1-4.6,0.2-7.3,0.3-8.1c0-0.6,0-2.1-0.1-4.4c-0.1-2.3-0.1-4.3,0-5.9c0.1-1.6,0.4-2.5,0.9-2.9c1.3-0.9,3-1.4,5.1-1.5
			c2.1-0.1,4.2-0.1,6.3,0.1c2.2,0.2,3.5,0.3,3.9,0.3c1-0.1,1.5-0.1,1.5-0.1c0.7-0.1,1.2-0.1,1.4-0.1c1.1,0,1.6,0.4,1.5,1
			C1412.2,61.3,1411.7,61.6,1410.7,61.7z"/>
	</g>
</g>
<g id="temp">
</g>
<g id="hand">
</g>
<g id="Nails">
</g>
<g id="test">
</g>
<g id="Ebene_9">
</g>
</svg>
