<?xml version="1.0" standalone="no"?>
<!DOCTYPE svg PUBLIC "-//W3C//DTD SVG 1.1//EN" "http://www.w3.org/Graphics/SVG/1.1/DTD/svg11.dtd" >
<svg xmlns="http://www.w3.org/2000/svg" xmlns:xlink="http://www.w3.org/1999/xlink" version="1.1">
<metadata></metadata>
<defs>
<font id="miracle_dayregular" horiz-adv-x="710" >
<font-face units-per-em="2048" ascent="1638" descent="-410" />
<missing-glyph horiz-adv-x="528" />
<glyph horiz-adv-x="0" />
<glyph unicode="&#xd;" horiz-adv-x="528" />
<glyph horiz-adv-x="0" />
<glyph horiz-adv-x="0" />
<glyph unicode=" "  horiz-adv-x="528" />
<glyph unicode="&#x09;" horiz-adv-x="528" />
<glyph unicode="&#xa0;" horiz-adv-x="528" />
<glyph unicode="!" horiz-adv-x="452" d="M150 858q-2 45 1 99.5t9 113.5q4 47 10 93t18 93q6 23 16.5 31t35.5 10q59 7 116 -28q23 -16 27 -28.5t-6 -37.5q-10 -29 -15.5 -59.5t-9.5 -61.5q-16 -102 -27.5 -203.5t-15.5 -205.5q-6 -129 0 -262q2 -20 2 -40t2 -42q0 -10 -2 -19.5t-4 -19.5q-6 -18 -24 -19 q-45 -4 -62 33q-8 14 -14 29.5t-10 32.5q-16 61 -25.5 122.5t-13.5 124.5q-4 57 -6 114.5t-2 129.5zM195 127q0 25 20 27q63 16 111 -19q14 -8 14 -22q0 -12 2 -23.5t0 -21.5v-19q0 -45 -45 -49t-74 23q-6 6 -11 12t-7 16q-4 18 -8 36.5t-2 39.5z" />
<glyph unicode="&#x22;" horiz-adv-x="489" d="M115 1008q-2 18 14 24q10 6 26.5 7t33 -2t32 -8t23.5 -13q14 -12 8 -31q-16 -41 -19.5 -82t-5.5 -84q-2 -10 -1 -19t-3 -20q-4 -16 -8 -20t-18 -4q-16 2 -28.5 9t-18.5 23q-8 23 -12.5 44.5t-8.5 44.5q-6 33 -7 65.5t-7 65.5zM283 1008q-2 18 16 24q20 10 58.5 5 t56.5 -21q12 -12 6 -31q-14 -41 -18.5 -82t-6.5 -84v-19t-2 -20q-4 -16 -9 -20t-17 -4q-35 4 -50 32q-8 23 -12 44.5t-8 44.5q-6 33 -7 65.5t-7 65.5z" />
<glyph unicode="#" horiz-adv-x="815" d="M135 401q0 20 7.5 28.5t25.5 12.5q14 4 26.5 6.5t26.5 4.5q20 2 21 22q-2 25 -1 48.5t5 45.5q2 10 6 27q4 23 15.5 32t35.5 11q51 0 90 -25q16 -10 18.5 -20t-3.5 -27q-8 -20 -10.5 -39.5t-6.5 -38.5q0 -14 12 -14h78q12 0 13 12q4 16 5 32t5 32q2 16 10 39q6 27 19.5 32 t29.5 7q31 0 60 -17q23 -14 20 -41q-4 -23 -5 -44t-3 -44q-2 -14 -2 -17t16 -7q20 -2 39 -6t37 -9q23 -6 20 -26q0 -23 -20 -23t-39.5 -1t-40.5 3q-16 4 -18 1t-4 -19q-2 -6 -2 -21q-2 -25 2 -28.5t28 -5.5q33 -4 68 -13q20 -2 20 -26q-2 -23 -24 -25h-47h-20.5t-20.5 2 q-16 0 -17 -14q0 -31 -2 -62.5t-2 -62.5q0 -23 -3 -45.5t-7 -44.5q-6 -29 -33 -23q-31 6 -43 37q-16 41 -21 85t-7 87q0 10 1 22.5t-8 18.5q-8 6 -18 4t-21 -4q-16 0 -29.5 -1t-27.5 -3q-12 -4 -15 -7t-1 -16q4 -31 0 -60.5t-2 -57.5q0 -25 -25 -21q-37 4 -47 33 q-8 23 -15.5 45.5t-15.5 44.5q-6 16 -10 18.5t-20 -2.5l-62 -12q-31 -6 -33 25q-6 47 43 55q12 2 24.5 4t25.5 2q14 0 12 15q0 8 -1 16t-1 18q-2 14 -5 16.5t-18 -1.5q-14 -2 -27.5 -6.5t-27.5 -8.5q-14 -6 -19.5 -3t-11.5 18q-4 20 -2 30zM375 350q-2 -23 2 -27t26 1 q14 2 26.5 3t25.5 1q6 0 12 1t10 1q12 4 10 12q0 16 2 30.5t-2 30.5q-20 -2 -38.5 -2t-36.5 -2q-23 -4 -26 -7t-7 -25q-2 -4 -2 -8.5t-2 -8.5z" />
<glyph unicode="$" horiz-adv-x="954" d="M119 698q-4 61 11 120t38 116q90 211 285 346q14 8 14 23q2 33 6 63.5t2 63.5q0 29 27 28q53 0 88 -33q16 -12 6 -34q-6 -14 -11.5 -30t-9.5 -36q37 6 78 2q86 -12 148 -67q23 -23 33 -50.5t12 -58.5q4 -37 -3 -73t-20 -70q-29 -96 -77 -180.5t-105 -163.5 q-12 -16 -18 -23q-14 -14 -25 -4q-6 4 -4 10t6 10q43 76 71.5 156t49.5 164q10 41 16 84t2 86q-2 18 -5 36.5t-11 35.5q-8 14 -12 16t-19 0q-14 -4 -27.5 -9t-25.5 -12q-27 -14 -49.5 -31.5t-44.5 -37.5q-8 -8 -13 -29q-14 -84 -22 -168t-12 -170q-4 -61 -8.5 -121.5 t-6.5 -121.5v-13q-2 -16 17 -12l67 12q35 6 71 12.5t71 6.5q90 -4 147 -70q25 -31 29 -80q4 -53 -12.5 -98t-45.5 -86q-35 -53 -80 -94t-96 -76q-27 -18 -56.5 -28.5t-59.5 -16.5q-16 -4 -19.5 -7t0.5 -20q4 -12 4 -23.5t4 -21.5q8 -23 6 -44t-6 -44q-2 -18 -18 -14 q-27 0 -39 20q-14 18 -24.5 39t-12.5 43q0 12 -2 23.5t-4 23.5q-2 14 -16 15q-41 6 -74 20q-16 6 -32.5 14.5t-31.5 22.5q-45 39 -8 86q4 6 9 11t10 9q51 47 114 86q20 8 21 33q2 37 3 75t3 75q0 14 -2 16t-19 2q-53 4 -101 20.5t-89 53.5q-88 74 -92 192zM285 629 q-2 -29 2 -53.5t20 -47.5q10 -18 29 -24q16 -4 34.5 -5t37.5 3q18 0 18 20q0 35 1 69t3 68q0 80 4 160t8 158q0 10 2 20.5t-2 22.5q-8 -6 -12 -13.5t-8 -13.5q-33 -47 -56.5 -99t-43.5 -106q-31 -80 -37 -159zM317 80q-4 -12 13 -12q10 -2 20 0t21 6q31 8 36 14t5 37 q2 16 1 32.5t-1 32.5q-23 -10 -51.5 -38.5t-38.5 -47.5q-4 -8 -5 -24zM481 386.5q0 -17.5 2 -34.5v-37.5t2 -42.5q35 12 69 18.5t69 2.5q10 0 16 10q25 33 46.5 68t35.5 73q4 8 6 16.5t0 18.5h-19.5t-19.5 -2q-47 -8 -93 -18t-93 -17q-14 -2 -17.5 -5t-3.5 -17v-33.5z M487 231q0 -23 1 -43t8 -43q35 29 62 59.5t54 65.5q-33 0 -60.5 -8t-55.5 -20q-8 -2 -9 -11z" />
<glyph unicode="%" horiz-adv-x="913" d="M98 952q-18 82 4 164q10 41 25.5 80t38.5 74q16 29 41 47q16 14 39 10q43 -10 67 -35q10 -10 14.5 -20t-5.5 -23q-6 -10 4 -20q8 -10 14 -19.5t14 -19.5q35 -45 55.5 -94.5t20.5 -106.5q0 -125 -98 -196q-27 -20 -60 -17q-27 0 -46 8.5t-38 20.5q-37 29 -58 65.5 t-32 81.5zM215 926q0 -41 14 -78q6 -12 11.5 -14t17.5 4q18 10 30.5 26.5t22.5 34.5q45 100 21 209q-4 23 -12.5 45.5t-24.5 44.5q-10 -16 -17.5 -33.5t-13.5 -34.5q-23 -49 -36 -100t-13 -104zM283 90q6 61 18 123q35 215 94.5 421t134.5 410q16 45 35 89.5t37 89.5 q10 23 21.5 42t23.5 42q14 23 29.5 28.5t42.5 -2.5q39 -10 63 -33q16 -16 18.5 -29t-9.5 -36q-45 -78 -87 -157t-75 -163q-72 -180 -129.5 -363t-96.5 -376q-6 -27 -10 -53.5t-8 -52.5q-2 -16 -7 -29.5t-13 -28.5q-6 -12 -19 -12q-14 0 -29.5 10t-21.5 23q-10 29 -12 57z M496 209q6 59 22.5 114.5t44.5 108.5q14 25 31 39q27 25 65.5 16.5t55.5 -43.5q8 -14 2 -32q-4 -10 -1 -17.5t9 -17.5q49 -66 84 -144q14 -29 23.5 -57t11.5 -61q2 -49 -28 -94.5t-87 -57.5q-6 -2 -12 -2t-12 -2q-119 12 -181 115q-35 59 -28 135zM627 90q0 -27 12 -47 q14 -23 39 -16q64 7 82 73q10 39 4 74q-10 47 -28.5 89t-43.5 87q-39 -86 -57 -174q-12 -41 -8 -86z" />
<glyph unicode="&#x26;" horiz-adv-x="1085" d="M107.5 750.5q1.5 66.5 23.5 132.5q33 102 90.5 186t136.5 156q51 49 123 73q18 8 21.5 12.5t-0.5 22.5q-6 25 -4 48.5t6 45.5q8 41 49 33q35 -6 55 -22q18 -14 13 -33q-4 -10 -4.5 -20.5t-0.5 -20.5q-4 -33 -16 -53q4 -4 9 -5t9 -3q53 -14 101 -50q88 -66 59 -176 q-37 -139 -125 -252q-4 -6 -8 -10t-6 -12q27 2 52.5 5t51.5 3q23 0 47.5 -2t47.5 -8q37 -14 59 -39q16 -18 12 -40t-26 -34q-8 -4 -17 -2q-31 16 -18 47q2 4 2 10q-78 4 -137 -22q-29 -14 -56.5 -30.5t-50.5 -39.5q-20 -18 -43 -10q-53 18 -84 68q-12 27 15 43q4 4 8 4 q27 8 41 25.5t28 37.5q35 55 59.5 113.5t35.5 124.5q6 31 8 61.5t-6 61.5q0 8 -4 20q-6 20 -27 17q-20 -4 -38.5 -11.5t-35.5 -17.5q-47 -27 -86 -61.5t-74 -75.5q-49 -61 -88 -129t-65 -144q-16 -47 -20.5 -93t8.5 -93l6 -25q8 -25 32 -24q47 -4 91.5 3t87.5 27 q16 10 38.5 3t32.5 -23q8 -12 0 -31q-4 -14 -11 -25.5t-17 -23.5q-20 -31 -40 -61.5t-36 -63.5q-39 -70 -47 -145q-8 -51 18 -103q18 -39 60 -39q12 -2 23 -3t22 3q12 8 8 20.5t-4 22.5q2 115 49 204t137 157q10 8 17.5 15t17.5 14q33 25 67.5 44t79.5 15q68 -4 115 -53 q49 -53 23 -123q-10 -23 -22.5 -41.5t-27.5 -34.5q-31 -37 -63.5 -72.5t-69.5 -66.5q-39 -31 -76.5 -61.5t-80.5 -57.5q-23 -14 -45.5 -26.5t-47.5 -18.5q-14 -2 -14 -18q2 -55 0 -111q0 -18 -6 -24.5t-25 -6.5q-14 0 -32 6q-35 10 -41 45q-4 23 -7.5 44.5t-7.5 43.5 q0 16 -16 23q-84 29 -141 94q-100 115 -43 252q31 68 84 129l8 8t8 9v4q-6 2 -14 -2q-16 -2 -31.5 -1t-32.5 7q-45 16 -77.5 43.5t-53.5 74.5q-27 66 -25.5 132.5zM561 82q10 -2 15.5 1t9.5 5q98 45 161.5 119t102.5 172q4 12 6 24.5t6 24.5q0 8 1 14.5t-1 12.5 q-4 12 -16 10q-29 -6 -51 -21q-66 -43 -110 -101t-79 -126q-14 -33 -24.5 -66.5t-20.5 -68.5z" />
<glyph unicode="'" horiz-adv-x="321" d="M115 1008q-2 18 14 24q10 6 26.5 7t33 -2t32 -8t23.5 -13q14 -12 8 -31q-16 -41 -19.5 -82t-5.5 -84q-2 -10 -1 -19t-3 -20q-4 -16 -8 -20t-18 -4q-16 2 -28.5 9t-18.5 23q-8 23 -12.5 44.5t-8.5 44.5q-6 33 -7 65.5t-7 65.5z" />
<glyph unicode="(" horiz-adv-x="659" d="M155 435q1 21 1 44q-2 109 13 213.5t52 206.5q35 92 84 173t125 147q66 59 143 73q33 6 62 -8q27 -14 10 -37q-16 -23 -31.5 -42t-31.5 -40q-43 -53 -70 -108q-16 -37 -35.5 -74t-36.5 -76q-20 -47 -34.5 -94t-24.5 -96q-47 -201 -41 -402q2 -72 16.5 -140.5t44.5 -133.5 l50 -98q29 -53 69.5 -90t91.5 -66q6 -4 11.5 -6t9.5 -8q14 -18 -8 -23q-6 -2 -23 2q-57 12 -105 40t-91 67q-41 35 -72 76.5t-60 89.5q-39 66 -66.5 133t-39.5 143q-8 43 -12 90q-2 23 -1 44z" />
<glyph unicode=")" horiz-adv-x="567" d="M8 -229q16 23 31.5 42t32.5 40q39 47 67 108q18 37 38 73t36 77q20 47 34.5 94t24.5 96q47 201 41 401q-4 143 -61 273q-12 27 -24.5 51.5t-24.5 48.5q-29 53 -70 90t-92 66q-6 4 -11 6t-10 8q-12 16 9 23q6 2 22 -2q55 -12 104.5 -40t92.5 -67q39 -35 70.5 -77t60.5 -89 q39 -66 66.5 -133t39.5 -143q8 -45 13 -90q2 -23 1 -44t-1 -44q2 -109 -13.5 -213.5t-52.5 -206.5q-35 -92 -85 -173t-124 -147q-31 -29 -66.5 -47t-76.5 -26q-33 -6 -62 8q-27 12 -10 37z" />
<glyph unicode="*" horiz-adv-x="598" d="M110 941q1 7 15 17q18 10 43 15q27 0 39 -19q10 -14 22.5 -23t28.5 -26q2 39 6 76q0 27 6 55q4 16 10.5 21.5t24.5 9.5q31 2 62 -12q20 -12 12 -35q-6 -20 -10 -39.5t-7 -42.5q12 4 19.5 11t17.5 12q14 10 28.5 19t31.5 13q33 8 61 -16q16 -12 0 -29q-4 -4 -9 -5t-9 -5 q-41 -23 -77 -47.5t-71 -52.5q2 -10 8.5 -12.5t12.5 -6.5q23 -16 44 -29.5t44 -27.5q16 -10 24 -23q8 -14 -6 -22q-12 -8 -30 -4q-41 6 -76 26q-6 4 -12.5 7.5t-14.5 3.5q-2 -39 6 -76q6 -18 2 -43q0 -16 -16 -17q-18 -4 -34.5 4.5t-24.5 26.5q-8 16 -10.5 33.5t-6.5 34.5 q-2 8 -2 16.5t-4 18.5q-16 -16 -29.5 -31t-27.5 -31q-16 -18 -41 -6q-14 6 -17.5 13t4.5 22q12 25 27.5 46t32.5 42q4 6 9 11t9 11q-14 10 -26.5 21.5t-26.5 21.5q-14 12 -27.5 24.5t-25.5 29.5q-10 12 -9 19z" />
<glyph unicode="+" horiz-adv-x="735" d="M145 381q-14 33 21 39q35 8 69.5 7t69.5 -5q10 0 22.5 -2t24.5 -4q10 -2 13.5 0t3.5 14q-2 57 6 115q2 10 2 19t4 18q8 27 35 20q47 -8 79.5 -50t28.5 -89q-2 -14 -4 -28.5t-4 -28.5q-2 -16 10 -17l40 -8t38 -8q29 -6 47 -25q8 -12 13 -16q4 -10 0 -15q-4 -8 -15 -4 q-27 10 -53.5 10.5t-54.5 2.5q-16 2 -24.5 3t-11.5 -2t-4 -11.5t-3 -26.5q-6 -41 -9.5 -80t-1.5 -80q2 -23 1 -43t1 -43q2 -12 -6 -17.5t-20 1.5q-35 16 -43 53q-6 33 -11.5 65.5t-9.5 65.5q-4 25 -7 49.5t-9 48.5q-4 14 -6 16.5t-19 2.5q-23 0 -44 -4.5t-44 -8.5 q-41 -8 -74.5 9.5t-50.5 56.5z" />
<glyph unicode="," horiz-adv-x="380" d="M125 92q0 51 53 47q6 -2 12.5 -2t12.5 -4q27 -10 48 -26.5t42 -32.5q20 -19 20 -72q0 -8 -2 -14q-18 -61 -65 -105q-6 -4 -12.5 -8t-16.5 -6q-18 -4 -26.5 6t-0.5 31q4 16 8.5 30.5t0.5 30.5q-6 23 -23 33q-25 16 -39 38.5t-12 53.5z" />
<glyph unicode="-" d="M143 295q-14 41 29 49l31 6h47q45 -2 89 -5t89 -13q31 -4 62.5 -8.5t64.5 -8.5q23 -4 41 -12t33 -27q4 -4 5 -8t5 -8q8 -14 -2 -22q-6 -8 -21 0q-10 4 -22 4h-23q-74 -2 -146.5 -9.5t-143.5 -27.5q-43 -12 -80 16q-18 16 -32.5 33.5t-25.5 40.5z" />
<glyph unicode="." horiz-adv-x="382" d="M133 125q4 23 19 25q12 4 24.5 8t26.5 2q33 -6 59.5 -20.5t42.5 -45.5q8 -14 10 -29.5t-8 -29.5q-12 -16 -28.5 -26.5t-38.5 -6.5q-84 12 -105 86q-6 16 -2 37z" />
<glyph unicode="/" horiz-adv-x="778" d="M174 84q4 53 10 104.5t17 104.5q14 84 37.5 165t46.5 163q29 102 60.5 202.5t68.5 198.5q53 150 139 295q0 2 1 2t1 2q20 31 36.5 37t51.5 -6q20 -8 37.5 -19.5t34.5 -29.5q12 -16 12 -26.5t-12 -27.5q-35 -47 -61.5 -98t-49.5 -104q-45 -98 -85 -200t-77 -204 q-43 -117 -84 -233.5t-69 -239.5q-16 -55 -25 -111q-4 -16 -12 -25t-14 -24q-2 -4 -13 -4q-14 4 -24.5 10.5t-14.5 20.5q-4 12 -9 23.5t-3 23.5z" />
<glyph unicode="0" horiz-adv-x="811" d="M63 595q5 81 17 165q10 70 29.5 136.5t50.5 129.5q29 59 67.5 112.5t94.5 94.5q27 20 54 35.5t62 23.5q10 4 19.5 4h21.5q29 4 62 -16q16 -8 18 -15.5t-6 -23.5q-2 -6 2 -10q47 -43 75.5 -96.5t51.5 -110.5q10 -27 17.5 -54.5t11.5 -56.5q10 -45 19 -89t13 -91 q2 -14 2 -27.5v-27.5q4 -76 3.5 -149.5t-13.5 -147.5q-8 -51 -18 -99.5t-33 -95.5q-43 -94 -123 -155q-37 -27 -76 -31t-82 4q-76 14 -130 55t-97 103q-80 119 -102 268q-16 84 -11 165zM255 561q-11 -133 17 -270q25 -117 101 -205q47 -57 110 -25q57 27 92 80 q35 47 55.5 99.5t33.5 109.5q14 68 19 134t5 132q2 80 -11 161t-36 179q-16 66 -45 124.5t-66 113.5q-10 14 -14 14t-16 -12q-39 -39 -66 -80q-45 -66 -75.5 -138.5t-53.5 -150.5q-39 -133 -50 -266z" />
<glyph unicode="1" horiz-adv-x="561" d="M63 1018q3 6 7 12q14 25 31.5 45.5t33.5 40.5q25 33 45.5 68t38.5 69q4 6 5 13.5t5 13.5q8 31 41 35q86 10 152 -43q25 -18 16 -49q-14 -55 -20 -111.5t-10 -114.5q-6 -66 -12.5 -130t-12.5 -130q-4 -55 -6 -111.5t-6 -111.5q-2 -39 -3 -76t-3 -76q-4 -41 -1 -83.5 t5 -83.5q2 -29 4 -55.5t4 -55.5q0 -18 16 -18q16 -2 31.5 -5.5t32.5 -7.5q16 -2 30 -14q4 -4 9.5 -8t1.5 -11q-2 -6 -19 -6q-14 2 -28.5 0t-28.5 0h-33q-23 0 -37 -10q-12 -10 -27.5 -9t-29.5 5q-12 4 -23.5 5t-23.5 -3q-16 -4 -32.5 -5t-33.5 -3q-16 -4 -32.5 -2t-30.5 14 q-27 25 8 37q18 6 37.5 8t40.5 6q16 4 18 6.5t-2 18.5q-16 72 -27.5 143.5t-17.5 145.5q-6 94 -6 188t4 191q0 135 12 274q2 16 5 32.5t-1 39.5q-18 -23 -34.5 -43.5t-34.5 -36.5q-4 -4 -9.5 -7t-9.5 -8q-16 -12 -34 3q-8 8 -5 14z" />
<glyph unicode="2" horiz-adv-x="950" d="M66 819q0 92 40 185q45 106 136 184q41 37 91 60.5t103 35.5q37 10 82 14q80 8 156 -28q27 -14 51.5 -29.5t46.5 -36.5q92 -80 111 -207q14 -94 -9.5 -178t-78.5 -160q-41 -57 -86 -109t-103 -93q-43 -33 -89 -61.5t-93 -57.5q-68 -39 -129.5 -85t-114.5 -103 q-4 -6 -9 -11.5t-9 -11.5q-13 -19 -21 -35q25 12 50.5 23.5t50.5 21.5q59 23 118.5 30t122.5 1q49 -4 98.5 -10t98.5 -11q53 -4 106 13q10 6 11 16v21q0 14 10 14q8 2 14 -8q6 -8 9.5 -17.5t5.5 -19.5q6 -37 -0.5 -70t-30.5 -61q-10 -14 -25 -17q-23 -8 -46 -13t-48 -7 q-123 -6 -242 25q-135 37 -266 4q-16 -4 -33.5 -8.5t-33.5 -14.5q-8 -4 -17.5 1t-13.5 15q-45 113 20 209q31 47 69 86t79 78q39 37 80 71l82 68q76 66 137 142t102 168q27 53 40 111.5t9 117.5q0 37 -12 72q-14 37 -33.5 51t-60.5 14t-80 -7t-76 -19q-57 -20 -102 -56 t-82 -84q-70 -92 -94 -196q-10 -39 -13.5 -77t0.5 -77q4 -18 -12 -12q-23 8 -35 31q-33 53 -32 108z" />
<glyph unicode="3" horiz-adv-x="913" d="M80 88q-39 59 8 115q33 39 84 61q35 14 71 22.5t74 12.5q113 14 226 -16q16 -6 26 10q18 29 32.5 59.5t27.5 65.5q20 57 14 123q-2 57 -57 82q-23 8 -44.5 13t-43.5 7q-41 2 -82 3t-82 -7q-16 -4 -33.5 -6t-36.5 -6q-12 -4 -26.5 4t-18.5 20q-2 10 8 19q10 10 33 18 q25 10 45.5 22.5t40.5 28.5q29 23 56.5 47.5t54.5 53.5q41 47 67.5 100t34.5 115q4 23 3 43t-5 41q-4 14 -7 17t-18 3q-66 0 -122 -24q-115 -43 -191 -142q-35 -45 -41 -98q-2 -6 -2 -13.5t-2 -13.5q-4 -29 -24 -12q-12 8 -15 21q-33 84 -2 167q27 68 76 127q47 55 119 84 q12 4 16 7q59 29 115.5 23.5t113.5 -30.5q39 -18 73 -42.5t63 -59.5q66 -78 34 -178q-10 -35 -27.5 -64.5t-39.5 -58.5q-27 -33 -55.5 -61.5t-63.5 -53.5q-4 -2 -7 -4t-7 -10q53 -10 101 -34.5t89 -59.5q86 -70 109.5 -163t-23.5 -200q-23 -55 -60.5 -100t-84.5 -80 q-127 -92 -273 -106q-55 -8 -110 -2t-109 28q-16 8 -30.5 16.5t-28.5 18.5q-27 18 -43 47zM136 97.5q9 -23.5 42 -29.5q49 -6 90 4q123 33 224 121q29 24 45 53q-4 4 -6.5 5t-6.5 3q-39 8 -76.5 8t-78.5 -4q-66 -6 -119 -29q-31 -14 -57.5 -32.5t-47.5 -46.5 q-18 -29 -9 -52.5z" />
<glyph unicode="4" horiz-adv-x="907" d="M64 688q-5 53 6 111q18 104 55 198.5t90 184.5q20 33 46 59.5t52 52.5q14 16 43 11q72 -12 113 -64q16 -16 16 -28.5t-12 -32.5q-27 -41 -53.5 -83t-52.5 -83q-72 -111 -113 -242q-12 -43 -23.5 -87t-5.5 -91q2 -49 29 -94q18 -35 49 -54.5t66 -31.5q72 -27 153 -21 q10 2 17.5 1t17.5 -1q12 0 15 2t3 15q0 18 -1 36.5t-1 34.5q-4 80 -1 159t8 157q4 84 10 165.5t12 165.5q4 35 7 69t7 69t17.5 45t48.5 4q39 -6 76 -31q31 -23 28 -63q-4 -23 -7 -46.5t-7 -46.5q-10 -53 -16 -105t-11 -105q-10 -104 -11 -209t-3 -211v-33t2 -33q16 2 26.5 7 t20.5 12q33 14 58 -7q14 -12 2 -26q-18 -20 -45 -31l-43 -12q-18 -4 -19 -23q4 -45 5 -90t3 -92q4 -35 6.5 -71t6.5 -72q2 -27 -19.5 -44.5t-48.5 -7.5q-31 10 -51.5 31t-24.5 55q-10 59 -16 121t-10 121q-4 25 -8.5 29t-26.5 6q-66 4 -127.5 14t-120.5 39 q-31 14 -59.5 31.5t-55.5 38.5q-29 25 -51 55.5t-39 65.5q-27 53 -32 106z" />
<glyph unicode="5" horiz-adv-x="819" d="M62.5 919.5q-1.5 124.5 15.5 251.5q2 16 3 29.5t-1 28.5q0 35 37 41q18 4 35.5 3t35.5 -5q43 -10 78 -33q14 -6 27 -2q10 4 22.5 8t22.5 8q86 31 178 43q35 4 66.5 5t66.5 -7q25 -6 47.5 -15t40.5 -30q10 -10 17 -24q8 -29 -19 -25l-46 8l-46 8q-4 0 -9 1t-11 -1 q-84 -10 -166 -25.5t-160 -53.5q-10 -6 -16.5 -12.5t-8.5 -18.5q-10 -47 -14 -96.5t-8 -96.5q-10 -78 -12 -153q-2 -18 -1 -45t3 -55.5t4 -54.5t6 -40q51 27 98 37q139 31 258 -57q33 -25 60.5 -54.5t44.5 -68.5q23 -51 18.5 -100.5t-27.5 -98.5q-23 -51 -59.5 -88 t-79.5 -72q-92 -76 -217 -94q-47 -8 -94 -5t-92 22q-43 20 -68 47q-16 16 -16 29.5t10 33.5q35 66 102 96q59 27 119 37.5t123 5.5q31 0 47 23q39 47 66 92q14 23 20 46.5t8 47.5q2 27 -7 39.5t-32 20.5q-49 14 -104 8q-35 -4 -68.5 -10t-66.5 -19q-14 -2 -29 -10 q-14 -6 -20 -20q-10 -29 -39 -23q-29 4 -50.5 17.5t-35.5 41.5q-20 43 -30.5 89.5t-14.5 93.5q-10 127 -11.5 251.5zM137 59q84 8 152.5 44t130.5 90q-6 4 -12.5 4h-10.5q-14 -4 -27.5 -5.5t-25.5 -5.5q-41 -8 -79 -21t-72 -40q-16 -12 -31 -27.5t-25 -38.5z" />
<glyph unicode="6" horiz-adv-x="870" d="M68 299q-10 80 0 159t30 156q23 98 61 188.5t89 176.5q41 70 87 135.5t105 120.5q18 16 37 31.5t41 27.5q37 20 76 13q29 -8 51.5 -19.5t44.5 -30.5q8 -6 21 -22q18 -33 -17 -47q-55 -20 -94 -64q-35 -35 -65.5 -70.5t-55.5 -78.5q-8 -12 -15 -25.5t-18 -25.5 q-63 -98 -106 -203t-72 -217q-12 -51 -20 -102.5t-15 -102.5q-6 -57 5 -123q2 -17 12 -35q8 61 34.5 111.5t77.5 85.5q104 72 222 96q14 4 27.5 3t27.5 -3q63 -12 119 -49q35 -23 46 -50.5t-3 -74.5q-16 -55 -50 -97t-79 -77q-43 -33 -90 -52.5t-101 -29.5 q-84 -14 -159.5 2.5t-141.5 69.5q-53 43 -78.5 100t-33.5 123zM301 106q0 -23 7 -31.5t30 -13.5q23 -4 33 -2q35 0 56.5 7.5t47.5 27.5q10 8 20.5 16.5t20.5 16.5q33 29 60.5 58.5t46.5 66.5q10 23 15 43t1 43q-8 37 -45 31q-35 -4 -70 -15.5t-67 -27.5q-27 -10 -50.5 -26.5 t-39.5 -39.5q-23 -27 -36.5 -56.5t-23.5 -60.5q-6 -18 -6 -37z" />
<glyph unicode="7" horiz-adv-x="905" d="M72 1153q-25 37 12 66q4 4 9 5t9 5q55 27 112.5 44t119.5 23q39 4 77 8.5t76 0.5q49 -4 98.5 -4.5t98.5 -14.5q29 -8 57.5 -16t57.5 -17q12 -4 20 -10t17 -16q8 -8 6 -15q-4 -16 0 -32.5t-6 -32.5t-17.5 -34.5t-17.5 -37.5q-78 -133 -141.5 -272t-118.5 -285 q-6 -14 -5 -17t15 -14q16 -10 30.5 -17t28.5 -17q25 -14 35 -29q8 -8 4 -14t-8 -6.5t-8 -0.5q-12 0 -22.5 5.5t-20.5 11.5q-14 8 -27.5 18.5t-30.5 16.5l-8 4q-4 -2 -8 -8q-29 -86 -56.5 -172t-47.5 -177q-6 -29 -9.5 -58.5t-7.5 -57.5q-6 -33 -35 -25t-41 25 q-16 23 -32.5 46t-24.5 52q-6 23 -7 44.5t-3 43.5q-2 51 7 101.5t22 99.5q18 86 49 164q6 18 -11 26q-43 20 -75 39q-23 10 -35 27q-4 8 -2 14q6 6 14 4q4 -2 10.5 -3t10.5 -3q39 -16 80 -37q6 -2 11 -5t13 -3q57 158 127 307.5t170 290.5q-43 4 -74 -2q-86 -14 -168 -32.5 t-163 -47.5q-8 -4 -16.5 -7t-18.5 -7q-39 -18 -78 4q-37 20 -53 51z" />
<glyph unicode="8" horiz-adv-x="778" d="M64 264q-7 60 10 125q12 47 32.5 88t47.5 80q20 29 45.5 47.5t56.5 32.5q6 4 18 8q-2 6 -5 10t-7 9q-53 63 -84 134.5t-35 155.5q-4 92 27 171t109 137q25 16 51 27t57 9q31 0 62.5 -6t60.5 -20q78 -37 123 -97.5t65 -142.5q14 -53 16.5 -104t-3.5 -105 q-4 -35 -14.5 -65.5t-20.5 -63.5q-10 -35 -25.5 -66.5t-32.5 -64.5q-10 -20 -26.5 -35.5t-44.5 -13.5q-2 -6 1 -8t7 -6q16 -20 34.5 -39t35.5 -37q43 -45 71 -111q27 -61 15 -118q-10 -47 -33 -85t-64 -65q-47 -33 -98 -51.5t-108 -13.5q-94 6 -172 43.5t-130 123.5 q-35 57 -42 117zM221 252q0 -25 3 -49.5t14 -46.5q10 -31 28.5 -57.5t55.5 -37.5q39 -10 86 -4q125 18 163 136q16 49 6 95t-42 87q-37 47 -81 88t-85 82q-10 12 -21 -2q-29 -27 -50.5 -56.5t-35.5 -66.5q-16 -41 -27.5 -82t-13.5 -86zM285 899q26 -164 157 -285 q8 27 17.5 48.5t17.5 46.5q12 47 22.5 96t18.5 98q14 104 -6 209q-4 16 -8 33.5t-15 34.5q-8 14 -24 12q-25 -6 -48.5 -15.5t-43.5 -27.5q-111 -100 -88 -250z" />
<glyph unicode="9" horiz-adv-x="851" d="M63 827q4 59 15.5 115.5t30.5 114.5q27 86 90 151q53 59 126.5 71.5t151.5 -36.5q63 -37 96 -98q8 -12 15.5 -24.5t17.5 -22.5q0 12 -2 18q-10 63 -12 129q-2 39 37 39q49 -4 88 -35q10 -8 17 -19t11 -24q16 -45 23.5 -90t11.5 -92q12 -92 9 -180t-7 -180 q-4 -82 -10 -163t-16 -163q-10 -70 -37 -133q-10 -23 -19.5 -45.5t-23.5 -44.5q-31 -53 -75 -91t-107 -51q-102 -18 -187 41q-14 10 -25.5 22.5t-17.5 29.5q-23 51 8 102q29 45 78 78q41 27 83 43t87 30q25 8 33 31q18 59 26.5 119.5t16.5 120.5q4 33 7 64.5t7 66.5 q2 10 3 21.5t-3 27.5q-8 -16 -12 -30.5t-8 -28.5q-18 -59 -43 -115.5t-60 -110.5q-23 -43 -67 -77q-51 -41 -117 -23q-66 20 -109.5 61t-74.5 101q-35 66 -47.5 136.5t-8.5 143.5zM252 666q0 -51 7 -100.5t17 -78.5q16 -45 35 -50t56 26q47 41 73 94q41 78 76 156t64 157 q6 10 4 23q-6 23 -12.5 43t-10.5 43q-29 106 -98 188q-12 16 -20.5 16.5t-22.5 -14.5q-51 -49 -78 -106q-43 -98 -64.5 -199.5t-25.5 -197.5zM338 125q-12 -35 12 -68q10 -14 23 -4q23 16 42 31.5t36 38.5q46 69 73 145h-8q-72 -29 -131 -78q-31 -23 -47 -65z" />
<glyph unicode=":" horiz-adv-x="401" d="M131 150q4 18 19 24q12 2 24 6t27 4q33 -6 59.5 -21t42.5 -46q8 -14 10 -29.5t-8 -30.5q-12 -16 -28.5 -26.5t-38.5 -5.5q-84 12 -105 86q-6 16 -2 39zM143 536.5q-4 22.5 7 45.5q6 16 21 24t32 2q23 -10 44 -19t38 -28q33 -29 16 -69q-8 -18 -25.5 -29.5t-37.5 -11.5 q-25 0 -44.5 12t-33 31.5t-17.5 42z" />
<glyph unicode=";" horiz-adv-x="409" d="M142 547.5q1 17.5 18 32.5q14 12 30.5 11t32.5 -7q16 -4 30.5 -13.5t25.5 -25.5q4 -4 8 -7t8 -8q23 -18 31 -45q12 -31 -8.5 -52t-45.5 -17q-35 0 -73.5 27.5t-51.5 60.5q0 2 -1 4t-1 4q-4 18 -3 35.5zM152 113q0 53 53 47q8 0 24 -4q27 -10 48.5 -27t41.5 -35 q23 -20 21 -71q0 -8 -2 -13q-18 -59 -66 -104q-12 -12 -26 -15q-20 -4 -28.5 5.5t-0.5 29.5q4 16 8 31.5t0 32.5q-6 20 -22 30q-51 33 -51 93z" />
<glyph unicode="&#x3c;" horiz-adv-x="632" d="M139 377q4 6 10.5 12t10.5 10q10 8 18 15.5t17 15.5q35 29 71.5 54.5t75.5 47.5q29 16 54.5 34t54.5 34q18 10 38.5 17.5t42.5 0.5q8 0 17 -4q16 -8 16 -20q0 -8 -16 -12q-10 -4 -19.5 -11.5t-19.5 -15.5q-55 -49 -105.5 -102.5t-91.5 -114.5q-25 -33 -65 -37 q57 -33 114.5 -59.5t120.5 -44.5q41 -12 58 -56q8 -23 11 -46t-1 -48q-10 -41 -51 -27q-8 4 -29 13q-10 6 -19.5 12t-19.5 12q-37 25 -71.5 51.5t-69.5 57.5q-25 23 -49.5 41t-48.5 41q-16 14 -29.5 31.5t-13.5 39.5v3q-37 20 -11 55z" />
<glyph unicode="=" horiz-adv-x="866" d="M139 215q-18 37 21 45q27 6 51.5 7t50.5 3q27 2 51.5 3t46.5 1q43 0 83 2.5t79 -6.5q27 -4 52.5 -5t52.5 -5q33 -2 51 -31q14 -23 -10 -24q-47 -4 -94.5 -15.5t-96.5 -15.5q-47 -4 -93 -11t-91 -22q-29 -10 -54.5 -4t-48.5 23q-16 10 -29.5 24.5t-21.5 30.5zM152 401 q-6 25 16 33q27 8 47 10q51 8 101.5 11.5t103.5 5.5h139q96 0 178 -21q31 -6 47 -26q9 -9 11 -15q8 -18 -15 -18q-16 -2 -33.5 -2h-33.5q-53 4 -103.5 -4t-101.5 -13q-80 -10 -160 -24q-16 -2 -31.5 -7t-31.5 -9q-25 -6 -45 2q-45 14 -78 57q-4 4 -5 10t-5 10z" />
<glyph unicode="&#x3e;" horiz-adv-x="638" d="M113 33q0 10 16 14q10 4 19.5 10t17.5 15q55 49 106.5 102.5t92.5 114.5q27 37 65 39q-57 31 -114.5 57.5t-120.5 44.5q-45 16 -58 57q-20 45 -10 93q8 43 51 26q6 -4 13.5 -6t13.5 -6q10 -4 20.5 -11.5t20.5 -11.5q37 -25 71.5 -52t69.5 -56q25 -23 49.5 -42.5 t48.5 -39.5q16 -16 28.5 -32.5t14.5 -41.5q37 -23 9 -55l-19 -25q-10 -8 -18 -14t-17 -14q-35 -29 -71.5 -54.5t-75.5 -48.5q-29 -16 -54.5 -33.5t-54.5 -33.5q-18 -12 -38.5 -19.5t-43.5 -1.5q-12 4 -16 6q-16 8 -16 19z" />
<glyph unicode="?" horiz-adv-x="716" d="M78 1024q20 94 86 166q10 10 18 19.5t19 19.5q31 31 67.5 46t77.5 19q76 6 146 -22q51 -20 85.5 -55t57.5 -82q31 -63 29 -129q-4 -106 -52 -197q-27 -49 -56.5 -95t-57.5 -93q-43 -72 -72 -140q-10 -27 -16.5 -53.5t-10.5 -54.5q-6 -43 17 -82q14 -23 14 -39 q2 -20 -18 -21q-6 -2 -21 2q-31 10 -58.5 28t-49.5 44q-27 31 -33 66t-2 71q6 51 22.5 97.5t40.5 91.5q27 49 53.5 98t53.5 98q29 49 52.5 99.5t35.5 107.5q8 39 7 77t-21 75q-8 18 -19 26q-12 10 -27 15q-35 4 -68.5 -2t-62.5 -27q-96 -61 -141 -164q-18 -41 -19 -80 t11 -80q0 -8 4 -12q14 -35 -27 -26q-29 10 -41 34q-43 74 -24 154zM278 115.5q1 19.5 3 38.5q2 25 28 28q51 11 94 -16q18 -12 21 -33q2 -14 3 -28.5t3 -30.5t-2 -28.5t-12 -27.5q-12 -18 -31 -20q-84 -2 -104 80q-4 18 -3 37.5z" />
<glyph unicode="@" horiz-adv-x="964" d="M145 436q6 27 13.5 53.5t17.5 51.5q47 115 162 184q66 41 137.5 49t147.5 -4q37 -8 71.5 -19.5t69.5 -29.5q59 -33 91 -83t40 -116q8 -88 -16 -176q-10 -25 -21 -47q-51 -82 -143 -51q-59 18 -88 80q-11 18 -19 43q-29 -55 -61 -99q-10 -16 -24.5 -29.5t-28.5 -25.5 q-20 -18 -52 -23.5t-64 4t-57.5 34t-33.5 63.5q-8 43 3 83t27 79q20 43 52 71q35 31 74.5 38t82.5 3q66 -6 109 -47q10 -10 27 -6q16 0 29.5 -2t27.5 -10q20 -10 18 -37q-4 -27 -6 -51.5t-2 -50.5q0 -43 23 -80q37 20 49 61q31 84 22 174q-6 39 -20.5 74t-42.5 63 q-10 8 -18.5 15.5t-18.5 11.5q-61 35 -126 43t-132 -16q-23 -10 -40 -24.5t-36 -29.5q-61 -47 -89 -109.5t-44 -133.5q-12 -61 -3 -119.5t32 -114.5q29 -78 96 -112q41 -20 86 -7q37 12 62.5 37t45.5 56q10 16 19.5 32.5t17.5 32.5q10 16 29 10q18 -6 16 -26v-2 q-23 -61 -57.5 -109.5t-101.5 -68.5q-25 -8 -50.5 -8.5t-50.5 3.5q-66 10 -116 42t-82 90q-80 133 -54 286zM430 276q-4 -14 4 -26q23 10 39 26.5t33 34.5q53 61 98 140q8 14 7 18t-13 12q-18 12 -30.5 18.5t-21.5 4.5t-18.5 -10.5t-23.5 -26.5q-61 -82 -74 -191z" />
<glyph unicode="A" horiz-adv-x="1413" d="M43 227q-2 19 -2 38q-1 47 11 93q16 64 40 125q35 90 107 144q46 36 99 36q8 0 15 -1q12 -2 24.5 -5.5t22.5 -13.5q8 -4 7 -12q0 -4 -11 -8q-4 -2 -8 -2q-31 2 -54.5 -12.5t-43.5 -35.5q-55 -53 -86 -117.5t-47 -138.5q-7 -35 -7 -69v-8q1 -38 13 -80q8 -29 20.5 -52.5 t34.5 -41.5q29 -23 66 -31q8 -2 17 -2q29 0 61 22q23 18 40 41q70 88 113 193q25 57 46.5 113.5t41.5 115.5q4 12 6 21q-12 2 -22 0t-21 -7q-31 -10 -56.5 -24t-47.5 -37q-16 -20 -39 -2q-14 10 -2 31q18 27 47 43q27 16 54.5 23t56.5 12q10 2 22 3t21 5q10 6 11 17t5 22 q23 61 43.5 122.5t46.5 120.5q41 84 85 164t104 152q20 23 41.5 44t46.5 38q4 4 8 6l8 4q39 27 81 28h5q39 0 73 -14q36 -16 63.5 -43.5t37.5 -58.5q11 -39 15 -77l2 -32q0 -23 -3 -47q-8 -80 -24.5 -158.5t-32.5 -158.5q-8 -45 -15 -89t-18 -89q0 -4 -1 -9.5t3 -11.5 q12 6 22.5 12.5t20.5 14.5q10 10 21.5 17t21.5 15q14 10 27 9q25 -6 8 -27q-23 -29 -49.5 -51.5t-62.5 -32.5q-20 -4 -23 -27q-10 -80 -15 -160q-4 -58 -3 -115v-46q2 -94 24 -186q12 -55 43 -105q8 -14 13.5 -15t21.5 5q16 10 29 24q16 16 29.5 35t23.5 39q43 78 74.5 160 t58.5 168q20 70 37 141l12 37q6 12 21 10q14 -4 12 -18q0 -20 -2 -31q-29 -129 -71 -254t-97 -248q-6 -16 -15.5 -32.5t-19.5 -32.5q-36 -53 -100 -53q-12 0 -25 2q-47 8 -79.5 31.5t-57.5 62.5q-31 49 -47 102t-25 109q-8 62 -8 122v24q2 72 6 147q2 23 3 43t5 41 q0 16 -12 16q-57 10 -111.5 28.5t-109.5 32.5q-25 4 -49.5 8.5t-48.5 8.5q-16 2 -20.5 0t-8.5 -19q-20 -47 -39.5 -94t-42.5 -94q-55 -127 -135 -240q-10 -14 -20.5 -27.5t-24.5 -23.5q-45 -45 -103 -45q-21 0 -43 6q-84 20 -132 75.5t-58 141.5zM666 584q2 -2 14 -6 q66 -6 135 -29q43 -10 85 -24.5t87 -18.5q16 -4 18.5 -1t4.5 19q4 23 7 46.5t7 45.5q14 86 32.5 172t35.5 175q10 53 17 104t9 104q1 9 1 18q0 23 -7 48q-4 10 -7 13t-15 -1q-37 -10 -64 -30q-43 -33 -77 -73t-62 -85q-70 -111 -121 -226.5t-98 -236.5q-4 -12 -2 -14z" />
<glyph unicode="B" horiz-adv-x="1378" d="M64 552q8 81 45 159q29 59 70.5 105t92.5 87q47 35 97.5 62.5t103.5 52.5q25 10 31 37q8 31 17 61.5t22 59.5q14 31 32.5 59.5t42.5 50.5q27 31 76 43q14 5 29 5q25 0 51 -13q27 -14 27 -41q0 -6 -2 -14q-14 -47 -51 -95q-20 -29 -41 -45q-20 -16 -23 -39 q-33 -121 -43 -251q-6 -57 -9 -113.5t-5 -112.5q-1 -20 -1 -39q0 -39 3 -79q4 -58 12 -117v35v37q0 161 31 319q18 96 49 187t80 177q25 41 55.5 77t67.5 71q23 20 55 16q41 -4 68 -14q81 -33 81 -119q0 -104 -47 -190q-51 -92 -123 -174q-8 -8 -14 -17.5t-16 -19.5 q30 6 60 6q38 0 78 -10q68 -18 123.5 -61.5t89.5 -110t34 -148.5q23 4 45 6t45 4q22 4 47 4q12 0 25 -1q8 0 17 -2.5t9 -10.5q0 -10 -8 -10t-16 -2q-37 -4 -73 -8t-73 -13q-16 -4 -18 -8t-4 -20q-14 -129 -61.5 -243t-137.5 -210q-53 -57 -113.5 -101t-134.5 -67 q-38 -10 -76 -18q-25 -5 -52 -5q-13 0 -27 1q-31 4 -58.5 9t-56.5 17q-91 42 -91 143q0 17 3 36q6 33 20.5 61.5t32.5 56.5q4 6 7 11.5t-1 13.5q-25 49 -39 101t-26 106q-23 99 -34 199q-8 73 -8 148q0 27 1 54q2 70 9 137.5t19 137.5q0 4 1 9t-3 9q-27 -14 -53.5 -27.5 t-50.5 -29.5q-61 -37 -113 -82q-59 -55 -97 -122t-50 -149q-5 -26 -5 -50q0 -29 7 -54q12 -49 31.5 -94t48.5 -86q12 -16 25.5 -30.5t31.5 -25.5q4 -2 8 -5t0 -7q-2 -8 -16 -4q-35 6 -60 31q-35 29 -58 64.5t-40 76.5q-29 69 -29 136q0 15 1 29zM559 -106q4 -31 15.5 -55.5 t39.5 -41.5q27 -14 52.5 -14t54.5 8q86 20 153.5 65.5t120.5 110.5q53 66 90 141.5t60 157.5q6 23 11 45t7 45q-8 2 -20 -2q-29 -6 -53.5 -16t-53.5 -21q-80 -29 -154.5 -65.5t-142.5 -87.5q-14 -10 -21 -15.5t-9 -9.5t-1 -13t3 -30q2 -23 4 -42t4 -40q4 -20 -14 -28 q-20 -8 -46 -3t-43 21q-4 4 -7 8t-9 6q-20 -30 -32 -60q-9 -23 -10 -48q0 -8 1 -16zM693 400q1 -66 5 -134q2 -16 3 -29.5t1 -27.5q6 -2 9.5 0t7.5 4q59 43 124.5 74.5t135.5 56.5q43 16 86 29.5t88 23.5q16 6 18 23q0 39 -3 77t-15 76q-20 70 -72 111q-29 20 -51 18 q-47 0 -82 -8q-66 -16 -121 -46t-108 -70q-20 -16 -21 -43q-5 -58 -5 -115v-20zM717 676q29 39 59 74q39 43 72 90t63 96q23 39 39.5 80t30.5 84q8 25 10 49.5t2 46.5q0 8 -1 15.5t-5 15.5q-10 -2 -18 -8.5t-19 -14.5q-78 -63 -119 -147q-41 -78 -66.5 -158t-41.5 -166 q-4 -14 -6 -27.5t0 -29.5z" />
<glyph unicode="C" horiz-adv-x="1376" d="M63 586q4 63 22.5 120.5t53.5 110.5q35 51 84 80t109 41q32 6 64 6q22 0 44 -3q52 -7 105 -21q10 -2 20 -7.5t21 -1.5q10 4 14 14.5t8 18.5q43 70 93.5 132.5t115.5 113.5q53 41 111.5 71.5t124.5 47.5q45 10 88 10q77 0 147 -33q31 -16 55 -37q56 -52 56 -119 q0 -33 -13 -69q-27 -66 -72.5 -113t-107.5 -82q-78 -43 -158 -56q-42 -7 -86 -7q-41 0 -83 6q-23 4 -45.5 6t-45.5 8q-18 2 -26 -12q-20 -41 -37.5 -81t-32.5 -83q-35 -96 -53 -193.5t-25 -199.5q-1 -19 -1 -37q0 -113 32 -221q14 -43 32.5 -82t53.5 -72q8 -8 14 -12 q23 -20 48.5 -24.5t54.5 -0.5q86 12 157.5 51.5t135.5 96.5q121 111 207 250q23 35 43 72.5t36 78.5q6 18 16.5 32.5t20.5 29.5q8 10 21 8q14 0 12 -14q-6 -16 -9 -35t-11 -35q-29 -66 -68 -124t-82 -118q-39 -53 -84 -100t-92 -92q-47 -43 -100.5 -77t-114.5 -54 q-57 -19 -109 -19h-7q-56 2 -104 20.5t-88 51.5t-69 72q-41 53 -64.5 115.5t-35.5 127.5q-8 49 -12.5 94t-4.5 78q2 141 24.5 263t74.5 239q6 12 12 24.5t12 26.5q6 8 -6 15q-61 16 -123 20q-9 1 -18 1q-52 0 -107 -19q-51 -18 -87 -53t-62 -82q-52 -88 -53 -189 q0 -26 4 -53q8 -59 26.5 -115.5t50.5 -107.5q8 -14 18.5 -25.5t20.5 -21.5q2 -4 4.5 -7.5t-2.5 -7.5q-4 -6 -12 -2q-12 2 -24 12q-25 18 -41.5 42t-30.5 51q-31 62 -47 126q-13 52 -14 107q0 13 1 27zM788 854q18 -6 31 -6q45 -6 89 -10q18 -2 35 -2q27 0 54 4 q156 23 254 127q35 39 55 83q18 40 17 87v10q-2 45 -39 78q-16 12 -33 10q-29 0 -53 -6q-55 -14 -102 -42t-88 -63q-66 -53 -119 -118.5t-96 -141.5z" />
<glyph unicode="D" horiz-adv-x="1658" d="M61 522q4 186 134 314q53 51 113.5 91t125.5 72l154 74q20 8 26 29q8 29 18.5 55.5t22.5 52.5q25 49 70 84q28 24 70 24h3q44 -1 72 -28q25 -18 7 -47q-10 -16 -22.5 -32.5t-29.5 -30.5q-10 -10 -16 -20.5t-10 -22.5q-23 -63 -37 -128t-23 -132q-18 -135 -22 -271 q-2 -68 -2 -137t2 -137q2 -12 3 -24.5t7 -28.5q0 78 9 153.5t24 149.5q23 117 56.5 229.5t90.5 218.5q20 35 42 67.5t44 65.5q27 35 59.5 60.5t71.5 46.5q29 16 59.5 17t61.5 -7q70 -16 120 -53t87 -94q31 -47 48.5 -96.5t29.5 -102.5q16 -68 20 -137.5t6 -139.5 q1 -19 1 -38q0 -37 -3 -75q-4 -56 -10 -112q0 -6 -2 -12q20 0 37.5 4t34.5 8q33 4 65.5 8t67.5 4q16 0 25 -2q10 0 10 -10q-2 -4 -13 -8q-76 -10 -145 -25q-16 -4 -29.5 -7t-27.5 -7q-23 -6 -28 -11t-9 -28q-10 -45 -20.5 -88t-26.5 -86q-53 -133 -148 -238 q-139 -156 -342 -188q-36 -6 -70 -6q-21 0 -41 2q-54 6 -106 31q-16 6 -29.5 16t-25.5 21q-40 38 -40 90q0 18 5 37q2 6 3 13t5 13v7t-4 7q-23 10 -34 30t-21 42q-20 41 -32.5 86t-22.5 90q-16 66 -21.5 132.5t-9.5 134.5q-1 40 -1 80q0 70 4 138q7 107 21 218 q4 18 7.5 35.5t7.5 35.5q4 12 2 19q-2 0 -3 1t-3 1q-66 -31 -129.5 -63.5t-122.5 -73.5q-41 -31 -79 -66t-69 -76q-35 -45 -51 -94t-22 -102q-2 -19 -2 -37q0 -46 11 -88q15 -58 50 -113q39 -63 113 -88q6 -2 13 -4t13 -4q8 -4 4 -10q0 -6 -6 -6q-16 -4 -31 0 q-80 16 -131 81q-84 109 -84 246zM745 -76q-4 -31 2.5 -57.5t32.5 -48.5q43 -33 94 -33q22 0 46 6q92 23 167.5 72t133.5 127q37 53 65.5 109.5t50.5 115.5q10 27 17.5 53.5t13.5 57.5q-18 -4 -27 -9q-158 -49 -307 -122q-35 -16 -68.5 -38t-66.5 -44q-35 -25 -64.5 -51.5 t-54.5 -61.5q-10 -18 -20 -35.5t-15 -40.5zM770 74q4 4 7 6t5 4q41 41 88.5 71.5t98.5 57.5q186 94 387 154q27 6 28 30q10 61 16 122q4 45 4 91q0 17 -1 33q-2 61 -5 122.5t-12 121.5q-6 47 -15 92t-25 88q-14 37 -32 70.5t-46 62.5q-25 27 -45.5 31t-55.5 -8 q-41 -16 -71.5 -41t-59.5 -58q-53 -66 -91 -138.5t-68 -149.5q-37 -96 -56.5 -193.5t-36.5 -198.5q-10 -74 -13 -148q-2 -45 -2 -90q0 -30 1 -61v-71z" />
<glyph unicode="E" horiz-adv-x="1302" d="M63 689q-1 10 -1 21q0 34 10 70q20 72 67 138q29 41 71 63.5t89 32.5q55 13 109 12q44 0 88 -8l2 -2q25 -4 31 -1t18 25q45 84 112.5 141.5t153.5 94.5q47 20 96 32.5t101 12.5q57 -2 108 -16.5t96 -49.5q52 -40 52 -103q0 -17 -4 -36q-20 -82 -88 -137 q-110 -86 -243 -86h-18q-96 6 -178 33q-10 4 -21.5 5t-21.5 5t-20 -8q-16 -31 -26 -64q-9 -28 -10 -56q0 -5 1 -11q4 -90 68 -148q30 -25 64 -25q8 0 15 1q23 3 46 3q11 0 22 -1q33 -2 66 -13q27 -6 45 -24q4 -4 8 -9.5t0 -11.5q-2 -8 -19 -12q-10 0 -20 -2t-21 0 q-41 0 -73.5 -14.5t-65.5 -36.5q-39 -29 -70.5 -62.5t-54.5 -74.5q-41 -72 -67 -148q-23 -66 -23 -140v-22q4 -98 57.5 -160.5t151.5 -78.5q26 -4 50 -4t47 4q46 8 91 30q82 39 146.5 98.5t118.5 133.5q53 72 91 149.5t74 157.5q4 8 7.5 15.5t7.5 15.5q8 16 18 10q8 -2 7 -8 t-3 -10q-27 -98 -73 -193q-29 -55 -58.5 -107.5t-64.5 -101.5q-37 -51 -82 -96t-99 -82q-102 -69 -214 -69q-78 0 -160 34q-72 27 -135 78q-72 61 -102 140q-24 64 -24 137q0 17 1 34q2 39 10 75t20 71q10 35 28.5 65.5t41.5 59.5q33 41 69.5 73.5t84.5 55.5q10 4 22 14l2 4 q-55 23 -93 61.5t-67 92.5q-28 54 -28 111q0 54 20 108q-8 6 -16 6h-15q-33 3 -66 3q-27 0 -53 -2q-58 -5 -114 -34q-31 -14 -57 -41q-74 -82 -82 -182q-1 -10 -1 -19q0 -31 10 -61q13 -39 34 -74l7 -7t3 -9q-14 -8 -31 4q-27 18 -45 45q-27 41 -31 85zM699.5 970 q0.5 -3 13.5 -7q14 -4 27.5 -7.5t27.5 -7.5q45 -10 90 -17q21 -3 42 -3q24 0 50 4q53 10 98.5 33.5t79.5 64.5q45 55 45 117q0 19 -4 39q-6 31 -19 41t-50 10q-25 -4 -53.5 -8t-57.5 -17q-125 -49 -215 -143q-37 -37 -69 -86q-6 -10 -5.5 -13z" />
<glyph unicode="F" horiz-adv-x="1101" d="M68 686q-4 25 -4 48q0 32 7 60q13 50 48 95q84 115 225 162q55 18 110.5 28.5t112.5 14.5q41 2 79 2t77 2q23 0 35 22q47 94 131 152q66 43 132 50q10 1 21 1q56 0 117 -31q29 -16 45 -35q18 -24 18 -48q0 -20 -12 -40q-12 -23 -30.5 -38t-40.5 -25q-37 -16 -76 -27.5 t-80 -17.5q-12 -2 -24.5 -3t-26.5 -1q-10 0 -14.5 -4t-8.5 -13q-23 -47 -35 -96t-20 -100q-12 -66 -16 -131.5t-7 -130.5q0 -14 3.5 -17.5t17.5 -5.5q25 -4 49.5 -3t46.5 9q25 6 47.5 16.5t40.5 28.5q12 12 27 0q6 -6 4 -11t-6 -11q-18 -25 -42 -44.5t-54 -27.5 q-16 -4 -33 -7t-33 -3t-31.5 -2t-31.5 2q-4 -10 -5 -21q2 -63 3.5 -125.5t1.5 -126.5q0 -68 -5.5 -133t-27.5 -131q-14 -41 -33.5 -77.5t-48.5 -69.5q-33 -35 -73 -57.5t-87 -26.5q-19 -2 -37 -2q-46 0 -87 11q-58 15 -107 60q-57 53 -70 132q0 8 -1 14t1 14q4 16 8 33.5 t8 34.5q8 16 15 24q10 6 14 4q4 -4 0 -14q-10 -30 -10 -58q0 -18 4 -35q10 -44 41 -85q16 -18 34.5 -34.5t41.5 -26.5q27 -10 49 -5q47 14 77.5 42t53.5 69q61 117 74 248q6 65 6 130q0 24 -1 48q-2 53 -2 106q0 36 1 72q0 14 -3 17.5t-18 5.5h-12q-67 0 -121 -43 q-10 -8 -11 -17.5t-1 -19.5q0 -18 -16 -12q-12 4 -15 10q-12 18 -18 38.5t-2 43.5q12 59 82 65q31 4 61.5 7t61.5 -3q10 -2 10 11q2 23 2 43v43q2 55 6 110t14 111q4 25 10.5 48t12.5 46q8 16 6 27q-18 1 -34.5 1t-33.5 -1q-39 -4 -76.5 -5.5t-74.5 -9.5 q-66 -12 -127.5 -32.5t-118.5 -59.5q-41 -29 -73.5 -65.5t-55.5 -83.5q-16 -37 -15 -76q0 -23 5 -47q4 -10 6 -20.5t6 -20.5q25 -76 94 -109q10 -4 18.5 -8t14.5 -14q-6 -4 -13 -3t-14 3q-72 20 -110.5 67t-52.5 119zM940 1102q12 2 21.5 3t19.5 3q29 4 56.5 12t54.5 23 q39 23 51 63q4 12 0 27q-6 18 -25 16q-12 -2 -24.5 -4t-22.5 -8q-80 -47 -131 -135z" />
<glyph unicode="G" horiz-adv-x="1167" d="M63 694q10 59 40 104.5t73 82.5q102 86 242 90q20 0 33 18q29 57 65.5 108.5t83.5 96.5q35 33 73 59.5t81 42.5q60 24 116 24q17 0 32 -2q71 -9 136 -54q53 -38 53 -91q0 -27 -14 -59q-20 -41 -50 -70.5t-69 -52.5q-122 -70 -255 -70q-36 0 -74 5q-16 2 -20.5 0 t-12.5 -19q-47 -88 -70 -180q-21 -79 -21 -163q0 -14 1 -29q0 -66 33 -132q14 -29 29.5 -37t54.5 3q27 8 49 23.5t43 35.5q111 100 178 234q4 8 6 16t4 18q6 23 11.5 43.5t15.5 42.5q6 16 14 29.5t23 24.5q20 16 48.5 11t43.5 -26q10 -10 2 -24q-18 -55 -25.5 -112.5 t-11.5 -117.5q-3 -33 -3 -64v-15q1 -39 3 -78q2 -14 2 -28.5t2 -27.5q6 -4 9 -1t7 5q92 61 195 76q20 6 45 -8q6 -6 4 -10q0 -6 -8 -6q-18 -4 -35.5 -11.5t-36.5 -11.5q-43 -10 -83 -28.5t-78 -36.5q-16 -8 -15 -27q6 -78 6 -154q0 -53 -4 -104t-20 -103 q-10 -29 -23.5 -57.5t-29.5 -52.5q-23 -35 -55 -57.5t-68 -31.5q-26 -7 -52 -7q-9 0 -18 1q-35 3 -66 15q-80 35 -79 121v12q0 46 14 89q16 48 45 91q80 119 197 203q20 14 18 37q-6 59 -9 119q-2 35 -2 71q0 24 1 48q0 2 -1 3t-1 3q-6 -2 -8.5 -6.5t-6.5 -8.5 q-23 -35 -49 -69.5t-55 -65.5q-31 -31 -68 -55q-39 -27 -78 -28h-4q-38 0 -77 20q-66 29 -106 81t-56 121q-17 60 -17 120q0 12 1 24q4 71 22 143q8 29 17.5 58.5t21.5 60.5h-11l-67 -10q-135 -41 -201 -160q-30 -52 -30 -104q0 -44 22 -89l8 -12t-4 -10q-6 -4 -13 -1t-11 7 q-29 23 -41 55q-12 31 -12 62q0 10 1 20zM621 952q41 -2 76.5 -2t72.5 6q41 8 79 19.5t73 34.5q70 39 92 108q9 26 9 51q0 19 -5 37q-6 27 -35 33q-16 4 -33 0q-23 -6 -43 -13t-41 -18q-47 -29 -86 -61q-47 -41 -86.5 -88.5t-72.5 -106.5zM670 -109q-1 -7 -1 -13 q0 -40 21 -73q18 -27 51 -18q33 8 58 37q20 18 34.5 40.5t24.5 47.5q31 74 37 151q4 41 4 83v87q-8 -4 -11 -7t-7 -5q-45 -39 -84 -82t-72 -92q-47 -72 -55 -156z" />
<glyph unicode="H" horiz-adv-x="1239" d="M62 681q-1 8 -1 16q0 28 7 55q18 102 104 163q59 41 125 68q41 16 83 29.5t83 29.5q25 10 31 33q10 35 24 69t33 66q23 41 61 70q35 27 77 27t79 -29q24 -18 24 -41q0 -13 -8 -27q-10 -23 -24.5 -39t-32.5 -32q-14 -10 -26.5 -19.5t-28.5 -19.5t-23 -29 q-16 -51 -27.5 -102t-17.5 -105q-10 -72 -10 -141.5v-140.5v-38t2 -38q0 -14 1 -26.5t1 -24.5q6 -2 9 1t7 5q47 29 93.5 57.5t91.5 56.5q16 10 16 31q6 98 19.5 194.5t42.5 190.5q18 66 44.5 128.5t73.5 115.5q31 37 68 57q20 10 39.5 14.5t42.5 0.5q47 -8 88 -37 q29 -18 42 -44t17 -57q2 -15 2 -30q0 -45 -14 -88q-39 -111 -104.5 -200t-155.5 -161q-18 -14 -23 -39q-10 -88 -12 -170q-6 -98 -6 -200q0 -51 5 -101.5t9 -103.5q4 -49 12.5 -98.5t20.5 -98.5q6 -31 18 -61q8 -27 33 -13q27 14 49 37q47 55 80 131q37 88 63.5 179.5 t43.5 183.5q4 16 8 33.5t8 33.5q2 6 4 12.5t13 4.5q18 -4 14 -21q-4 -16 -6 -34.5t-6 -34.5q-23 -106 -51.5 -209t-69.5 -203q-27 -63 -62 -113q-8 -10 -16 -19t-19 -17q-24 -17 -53 -17q-10 0 -20 2q-96 23 -139 111q-31 63 -49.5 128.5t-28.5 135.5q-14 97 -22 197 q-6 79 -5 159v43q0 4 1 6.5t-3 6.5q-4 0 -7 -2t-7 -4q-45 -29 -89 -55.5t-92 -55.5q-14 -12 -14 -29q4 -73 12 -147q5 -46 6 -93q0 -27 -2 -55q-2 -66 -8 -128t-22 -126q-8 -41 -41 -79q-41 -46 -104 -46h-13q-49 4 -90 26t-70 63q-20 25 -26 53t-8 57q-1 13 -1 27 q0 33 7 64q10 44 26 89q27 68 70 125.5t96 104.5q18 16 17 41q-5 73 -9 147q-3 51 -3 103q0 23 1 47q2 80 8.5 158.5t22.5 156.5v12q0 4 -2 6q-59 -23 -116.5 -44t-110.5 -56q-55 -35 -87 -86t-36 -117q-1 -12 -1 -23q0 -53 16 -99q18 -56 69 -101q6 -6 12 -10t8 -14 q-10 -4 -16 -2t-12 6q-49 25 -82 62.5t-43 92.5q-6 35 -8 71zM283 -131q14 -57 65 -88q25 -16 51 4q25 23 37 51q16 41 19.5 84t5.5 88q1 29 1 58v29q-1 44 -1 87q0 29 -2 58.5t-4 62.5q-4 -4 -9 -4q-61 -59 -104 -129t-63 -154q-8 -37 -7 -70q-1 -38 11 -77zM688 1159 q16 14 27.5 28.5t15.5 37.5q-31 -29 -43 -66zM1012 743h4q2 2 3 2t3 3q141 131 195 307q9 32 9 70q0 13 -1 26q0 16 -5.5 32.5t-13.5 33.5q-6 10 -14 2l-14 -15q-29 -27 -46.5 -59.5t-33.5 -67.5q-23 -49 -35 -101t-27 -106q-14 -59 -24 -127z" />
<glyph unicode="I" horiz-adv-x="880" d="M66 674q-4 26 -4 52t4 50q8 49 30 96q59 129 180 201q55 33 116 52.5t124 35.5q14 4 27.5 6t29.5 7q25 2 33 26q20 47 66 82q30 26 66 26h2q38 -1 69 -24q4 -4 8 -6t8 -6q10 -12 0 -29q-35 -41 -50 -89t-25 -99q-12 -69 -20 -139q-7 -56 -7 -115v-27q0 -49 1 -99t3 -100 q0 -51 2 -100l4 -98v-10.5t4 -10.5q8 0 14.5 4.5t12.5 8.5q29 14 58.5 25.5t60.5 17.5q16 4 33.5 10t33.5 8q27 0 45 -10q8 -4 9 -12q-2 -6 -11 -11q-14 -4 -28.5 -5t-30.5 -3q-47 -6 -100 -29q-23 -10 -42.5 -18t-41.5 -18q-16 -8 -17 -27q2 -37 2 -75t-4 -77 q-4 -55 -12 -110t-23 -109q-18 -84 -75 -147q-14 -16 -39 -30.5t-53.5 -22t-59.5 -6.5t-57 14q-45 20 -64 67q-16 41 -16 80t10 80q12 49 36.5 90t55.5 82q20 29 43 53.5t51 46.5q14 12 13 31q-6 100 -14.5 200.5t-8.5 201.5v100t6 98q6 63 16.5 126t30.5 122q5 13 7 21 q-12 0 -15 -3q-66 -18 -126 -41.5t-118 -58.5q-156 -92 -188 -266q-7 -35 -7 -69v-8q1 -38 13 -75q33 -96 131 -127q8 -4 15.5 -6t13.5 -6q8 -4 4 -10q0 -4 -8 -4q-25 -4 -43 2q-80 27 -127 79t-57 134zM381 -123q4 -27 11 -50.5t24 -43.5q8 -12 14 -13t19 5q27 12 40 37 q33 45 43 106q18 91 18 181q0 23 -1 46q-2 10 -2 21.5t-2 21.5h-6q-47 -47 -85 -100t-61 -119q-13 -38 -13 -74q0 -9 1 -18z" />
<glyph unicode="J" horiz-adv-x="1011" d="M70 728q-7 33 -7 64q0 46 17 89q23 53 56.5 96t76.5 78q59 49 128 76.5t144 39.5q66 10 131 11q29 1 57 1q37 0 75 -1h51q18 -2 30 14q29 35 66 57q35 23 69 23q8 0 16 -1q42 -7 75 -36q18 -16 18 -31q0 -16 -24 -30q-8 -4 -15.5 -8.5t-15.5 -8.5q-18 -4 -28.5 -14 t-18.5 -27q-16 -33 -28.5 -65.5t-22.5 -67.5q-16 -57 -23.5 -115.5t-11.5 -117.5q-6 -60 -6 -119q0 -42 3 -83q7 -101 17 -202q2 -18 2 -36.5t2 -34.5t5 -18.5t20 1.5q20 4 37.5 13.5t33.5 19.5q35 23 64 51.5t45 67.5q4 10 14 6q10 -6 10.5 -13.5t-2.5 -15.5 q-20 -63 -75 -112q-31 -25 -65 -41.5t-75 -20.5q-10 0 -10 -14v-61.5t-4 -59.5q-4 -53 -17.5 -103.5t-39.5 -97.5q-33 -55 -77 -93t-105 -56q-47 -14 -96 -16h-20q-40 0 -79 5q-51 6 -111 29q-145 53 -188 205q-24 81 -24 159q0 34 4 68q16 109 75 213q47 78 123 121 q52 32 107 32q9 0 18 -1q64 -6 117 -53q86 -74 92 -183q2 -16 4 -18t16 -6q2 0 4.5 -1t4.5 -1q18 -4 22 0t2 22q-4 76 -10 150.5t-10 152.5q-2 41 -2 81q0 61 4 121q6 101 30 200q12 49 31 92q2 4 5 9t-1 11q-18 -2 -37.5 -2t-40.5 -2q-59 -4 -117.5 -9t-117.5 -21 q-82 -18 -152 -56q-61 -35 -108 -83t-74 -115q-12 -29 -14 -63v-14q0 -27 6 -53q8 -32 29.5 -63t56.5 -53q8 -4 16.5 -7t18.5 -8q8 -2 16 -3t19 -3q-8 -10 -16.5 -11t-16.5 -1q-47 8 -86 37q-72 53 -92 134zM203 25q10 -47 26.5 -91.5t49.5 -83.5q31 -35 67.5 -54t83.5 -23 q27 0 53.5 2t53.5 6q41 10 75 33q41 29 68 69.5t41 89.5q10 41 13 83t5 85v29q-2 8 -2 29q-2 31 -7 36t-36 9q-20 2 -30 -15q-29 -57 -89 -75q-23 -8 -55 -4q-23 4 -34 24.5t1 42.5q6 10 13.5 20.5t17.5 16.5q16 10 19 31q4 23 4 46q0 12 -1 23q-3 35 -5 70q-2 27 -23 53 q-20 27 -49 25q-10 -2 -21.5 -3t-21.5 -5q-84 -33 -131 -97q-93 -132 -93 -285q0 -43 7 -87z" />
<glyph unicode="K" horiz-adv-x="1409" d="M64 746q6 66 42 128q94 164 285 201q57 10 113.5 18.5t113.5 12.5q4 0 6.5 1t6.5 1q20 0 28 20q16 47 54 95q39 51 96 60q17 3 33 3q39 0 76 -16q36 -14 36 -40q0 -16 -14 -38q-14 -23 -33.5 -36t-42.5 -23q-18 -10 -24 -29q-12 -47 -19.5 -93t-15.5 -93 q-14 -98 -15.5 -192.5t-3.5 -193.5v-116q8 -4 11.5 -2t7.5 4q35 16 65.5 36.5t59.5 45.5q35 33 66.5 68.5t56.5 76.5q33 53 62.5 104.5t51.5 110.5q16 45 29.5 90t17.5 92q1 17 1 33q0 54 -15 105q-10 41 -43 57q-8 4 -15 10t-5 17q2 6 12 9t22 -1q98 -23 123 -119 q11 -41 11 -82q0 -13 -1 -23q-4 -52 -18 -104q-18 -78 -52 -145.5t-75 -132.5q-37 -57 -78 -107.5t-94 -91.5q-23 -18 -47.5 -33.5t-48.5 -32.5q-14 -4 -21 -12q2 0 2 -1t2 -1q59 -23 94.5 -67t57.5 -99q25 -57 40 -116.5t32 -118.5q10 -35 21 -71t28 -71q16 -35 26.5 -39 t43.5 25q23 16 39 38.5t32 45.5q20 29 35.5 59.5t32.5 63.5q63 129 110 254q10 27 18.5 53.5t18.5 52.5q4 6 6 14.5t13 4.5q10 -4 9 -11.5t-3 -15.5q-6 -29 -15.5 -55.5t-19.5 -52.5q-31 -90 -67.5 -176.5t-77.5 -172.5q-25 -51 -62 -106q-4 -8 -10 -15.5t-12 -15.5 q-31 -41 -79 -41q-16 0 -34 4q-131 31 -180 156q-20 49 -32.5 99t-25.5 104q-8 39 -18 76.5t-23 74.5q-12 33 -30 62q-16 23 -39 24q-10 4 -13.5 1t-5.5 -15v-72q1 -18 0 -37q0 -37 -2 -73q-4 -56 -12 -109q-8 -55 -23.5 -108.5t-44.5 -100.5q-59 -98 -172 -104 q-29 -2 -63 4q-57 18 -90 67q-8 14 10 15q6 0 12.5 -3t10.5 -7q10 -10 22 -17.5t25 -15.5q23 -12 43 6q29 29 45 59q27 51 39 103.5t16 107.5q6 67 6 134v33q-2 83 -4 169q-2 129 -4 256v42q0 106 8 214q4 37 10.5 73t16.5 71l4 12t0 14q-10 4 -22.5 1t-22.5 -5 q-55 -6 -109.5 -15.5t-107.5 -25.5q-84 -25 -142.5 -78t-95.5 -131q-24 -49 -24 -106q-1 -23 3 -45q12 -82 81 -140q40 -34 89 -34h3q4 0 8 -1t8 -1q12 -4 12 -11q0 -4 -12 -8q-12 -1 -24 -1q-43 0 -80 17q-41 18 -69 50t-46 73q-24 56 -24 109q1 13 2 25z" />
<glyph unicode="L" horiz-adv-x="731" d="M63 348q3 64 11 127q12 100 32.5 196.5t55.5 190.5q29 78 64.5 148.5t88.5 136.5q27 31 56.5 57.5t66.5 48.5q51 31 105 31q45 0 92 -22q45 -20 67.5 -54t28.5 -82q2 -26 0 -63q0 -7 1 -15q0 -40 -10 -82q-11 -50 -30 -98q-49 -127 -124.5 -232.5t-180.5 -191.5 q-53 -43 -117 -67q-16 -6 -18 -27q-4 -66 -4 -133t10 -133q8 -59 23.5 -114.5t50.5 -106.5q16 -31 41 -45q23 -16 51 -16q7 0 14 1q41 6 74 25.5t61 48.5q49 49 86 111q104 164 144 344q4 16 8 30.5t8 30.5q4 12 8 21q4 4 8.5 4h10.5q8 -2 8 -15q0 -16 -2 -24 q-33 -133 -82 -257t-131 -235q-25 -31 -49 -55q-75 -75 -167 -75q-37 0 -77 12q-63 18 -109.5 58t-76.5 95q-39 72 -60.5 145.5t-31.5 151.5q-6 48 -6 95q0 17 1 34zM258 406q27 10 47.5 22t40.5 27q68 53 122 118.5t97 139.5q51 88 78 180q24 80 24 168q0 13 -1 26 q-2 49 -29 101q-4 8 -10 14q-8 10 -13.5 11t-17.5 -5q-25 -14 -51 -37q-29 -31 -54.5 -64.5t-46.5 -70.5q-66 -115 -104 -233q-27 -78 -43 -157t-29 -159q-4 -20 -6 -39t-4 -42z" />
<glyph unicode="M" horiz-adv-x="1691" d="M66 516q-3 25 -3 50q0 58 17 111q24 75 78 140q41 51 92 87t110 59q47 18 93.5 31.5t93.5 27.5q25 6 26 27q18 86 62 159q23 39 51 62q28 24 65 24h14q46 -6 73 -41q15 -21 15 -43q0 -15 -7 -32q-10 -29 -26.5 -51.5t-41.5 -36.5q-23 -14 -32 -32t-13 -40 q-12 -63 -20 -126t-15 -126q-8 -59 -10 -118.5t-4 -119.5v-16t6 -18q4 51 10.5 97t18.5 91q10 43 24.5 83t36.5 79q16 31 35 51q51 58 116 58q29 0 60 -11q70 -25 101 -92q27 -55 34 -107q6 2 6.5 6.5t2.5 8.5q16 82 36.5 161.5t49.5 157.5q14 37 34.5 71t42.5 66 q12 16 27.5 29.5t34.5 24.5q27 14 59 8q66 -12 100.5 -53t45.5 -103q10 -61 10 -122q0 -47 -6 -93q-4 -45 -9.5 -90t-9.5 -90q-10 -74 -19 -147.5t-20 -147.5q-10 -66 -16 -129t-12 -129q-8 -94 -13 -195q-1 -19 -1 -38q0 -61 9 -115q4 -29 17 -47q4 -10 9 -11.5t16 3.5 q14 8 26.5 18t22.5 25q27 35 46 71.5t36 77.5q35 80 58.5 162t45.5 166q10 33 19.5 64.5t19.5 64.5q0 4 4 12t10 6q4 -2 4 -10q-4 -23 -8 -44.5t-8 -43.5q-10 -41 -19.5 -80t-21.5 -80q-29 -94 -60.5 -186t-78.5 -180q-14 -25 -32.5 -45.5t-47.5 -30.5q-20 -6 -38 -6t-32 5 q-30 11 -57 40q-27 27 -39 60.5t-20 68.5q-8 41 -11.5 83t-5.5 83q-1 39 -1 78q0 58 2 118q3 98 7 197q4 102 16.5 202.5t28.5 204.5q10 51 17.5 102.5t15.5 104.5q4 29 5 55.5t-3 55.5q0 10 -2 14q-4 14 -7 15.5t-13 -3.5q-10 -4 -19.5 -11t-17.5 -13q-45 -45 -72 -98 q-35 -70 -55.5 -142.5t-38.5 -148.5q-18 -72 -28.5 -142.5t-20.5 -142.5q-4 -27 -3 -53.5t1 -54.5q0 -49 -3 -99.5t-5 -99.5q-2 -23 -8.5 -41t-10.5 -37q-4 -14 -22 -18q-23 -4 -40.5 6t-25.5 31q-12 37 -17 74.5t-7 76.5q-6 98 -7.5 193.5t-9.5 193.5q-4 80 -20 150 q-4 29 -19 53q-6 12 -9 13t-15 -3q-29 -10 -50.5 -28.5t-37.5 -41.5q-23 -33 -39.5 -67.5t-28.5 -71.5q-43 -129 -43 -262q0 -100 5 -198.5t16 -196.5q2 -12 2 -25.5v-25.5t-13 -15q-17 -7 -31 -7q-35 0 -55 40q-41 74 -61 154q-47 172 -58 354q-4 62 -4 123q0 171 29 340 q4 12 0 20q-82 -23 -160 -50.5t-145 -80.5q-136 -114 -136 -278q0 -13 1 -27q4 -63 30.5 -117.5t81.5 -95.5q37 -29 80 -43q8 -4 15.5 -7t15.5 -9v-2l2 -4q0 -4 -2 -4.5t-4 -2.5q-33 0 -57 9q-31 10 -60 24t-55 35q-45 33 -67.5 78t-30.5 98z" />
<glyph unicode="N" horiz-adv-x="1396" d="M22 627q6 63 37 127q31 63 77 110t104 88q53 35 106 66t109 59q31 14 43 47q8 29 20 53.5t27 49.5q10 18 24.5 35.5t32.5 29.5q34 24 69 24q29 0 58 -16q29 -14 29 -34q0 -15 -17 -33q-10 -10 -19 -18.5t-20 -18.5q-20 -12 -30 -45q-18 -61 -32.5 -122.5t-23.5 -125.5 q-12 -92 -14 -180q-1 -29 0 -59q0 -60 2 -121q4 -68 16.5 -133.5t24.5 -130.5q0 -4 1 -8.5t5 -8.5q0 14 1 27.5t-1 25.5v25q-1 122 17 240q20 130 61 256q29 86 72 161.5t96 147.5q16 23 35.5 40t42.5 34q49 38 100 38q15 1 31 -3q68 -14 115 -62q27 -27 41 -59.5t20 -69.5 q6 -43 6 -90q-4 -76 -15 -150.5t-28 -148.5q-23 -102 -44 -203.5t-38 -206.5q-12 -74 -19 -148q-4 -47 -4 -93q0 -27 1 -54q4 -57 20 -106q8 -29 33 -53q10 -10 16.5 -12t18.5 5q27 12 49 43q35 45 59.5 94.5t44.5 102.5q27 72 45.5 143.5t36.5 143.5q4 16 9.5 31.5 t9.5 31.5q2 4 3 8.5t5 8.5q4 10 20 6q6 -4 6.5 -8.5t0.5 -10.5q-10 -57 -25 -108q-20 -92 -46 -178t-61 -172q-14 -31 -29.5 -60t-31.5 -57q-10 -18 -23.5 -32.5t-31.5 -25.5q-23 -12 -45.5 -12t-44.5 8q-131 41 -181 166q-23 52 -29 108q-5 42 -5 86v27q2 86 11 169t21 167 q14 92 35 181.5t39 181.5q8 47 17.5 93t13.5 93q4 35 4 66.5t-6 64.5q-4 14 -7 15.5t-18 -2.5q-55 -23 -96 -60q-68 -66 -115 -142.5t-78 -164.5q-61 -176 -73 -358q-4 -56 -4 -111v-37q2 -74 8 -147q4 -33 6 -64t6 -63q4 -23 -10 -39q-6 -10 -6 -19.5t-2 -19.5 q-4 -23 -23 -19q-23 0 -41 7.5t-31 29.5q-10 18 -21 34.5t-24 33.5q-10 14 -17 29.5t-15 31.5q-72 186 -99 379q-12 91 -12 180q0 29 1 57q5 118 24 236q4 20 8 41.5t8 46.5q-12 -8 -20.5 -12t-18.5 -8q-53 -33 -106.5 -66.5t-102.5 -72.5q-74 -59 -115 -150 q-28 -59 -28 -120q0 -66 33 -134q16 -35 38.5 -64.5t51.5 -56.5q39 -33 84 -41q8 -4 16 -5t10 -11q2 -12 -30 -8q-76 12 -136 65q-35 29 -61.5 65t-42.5 79q-20 52 -20 103q0 13 1 26z" />
<glyph unicode="O" horiz-adv-x="1413" d="M43 582q4 94 42 170.5t105 142.5q63 61 137 102t158 70q27 10 52.5 16.5t52.5 14.5q23 6 33 22q37 49 79.5 91t98.5 73q33 18 67 28q24 8 51 8q10 0 21 -1q49 -6 80 -41q27 -27 2 -53q-23 -25 -53 -41q-37 -23 -74 -35q-16 -4 -25.5 -15.5t-17.5 -23.5q12 2 23.5 6 t23.5 8q31 6 60.5 3t58.5 -11q111 -33 175 -106.5t97 -180.5q18 -59 23.5 -119.5t7.5 -121.5q1 -26 1 -52q0 -52 -5 -103q-8 -77 -31 -154q-2 -2 -2 -11q6 -4 16 0q53 23 100.5 54.5t82.5 78.5q4 6 10 12.5t12 12.5q12 12 25 2q8 -6 0 -20q-43 -80 -127 -127 q-29 -16 -57.5 -30.5t-61.5 -25.5q-16 -6 -22 -24q-23 -74 -57 -140.5t-79 -128.5q-29 -41 -63.5 -75.5t-75.5 -59.5q-54 -34 -110 -34q-28 0 -56 8q-152 43 -248 172q-53 74 -85.5 154.5t-49.5 168.5q-16 94 -16 186q0 24 1 46q5 114 34 229q16 68 35.5 133.5t48.5 126.5 l24 49q-4 4 -8 3t-8 -3q-96 -35 -181 -84t-157 -125q-37 -39 -63.5 -84t-38.5 -98q-9 -45 -11 -90v-8q0 -41 13 -82q29 -98 110 -152q8 -4 16.5 -7t16.5 -7q16 -8 22 -14q14 -14 -6 -21q-10 -2 -20 0t-21 6q-63 20 -112 76q-74 91 -74 217v19zM606 246q10 -88 35 -170 t70 -160q10 -16 22 -32.5t29 -30.5q43 -35 81 -43q9 -2 19 -1q31 0 70 17q31 12 56.5 32.5t47.5 45.5q47 51 79 109.5t59 119.5q8 16 14 33.5t10 38.5q-23 2 -42 3t-40 5q-82 20 -146.5 65.5t-117.5 108.5q-29 35 -49.5 75t-36.5 81q-23 61 -35 123q-10 54 -10 110v19 q2 35 5 67.5t9 65.5q-6 -4 -8 -10.5t-6 -12.5q-31 -66 -50.5 -132t-35.5 -134q-34 -142 -34 -284q0 -55 5 -109zM787 739q1 -88 30 -176t80 -159.5t133 -118.5q66 -41 147 -41h15q16 2 20.5 5t8.5 19q18 72 27 144q6 50 6 102q0 23 -1 45q-2 31 -3 61.5t-5 63.5 q-4 16 -5 34.5t-5 35.5q-10 47 -22.5 91t-34.5 85q-20 35 -46 65.5t-63 51.5q-49 27 -85 27h-6q-38 -2 -83 -42q-51 -47 -76 -117q-32 -85 -32 -171v-5z" />
<glyph unicode="P" horiz-adv-x="1400" d="M51 721q20 78 63.5 135t108.5 102q68 47 141.5 78t153.5 51q29 8 57.5 15.5t57.5 15.5q20 4 33 27q12 31 28.5 59.5t38.5 50.5q35 35 78 37h5q40 0 75 -30q10 -12 12 -20.5t-8 -22.5q-16 -29 -27.5 -60t-21.5 -61q-29 -76 -42 -155t-22 -159q-4 -40 -6 -78 q-1 -19 -1 -38.5t1 -40.5q6 29 13.5 55.5t15.5 54.5q29 106 67 201q14 33 30 61.5t34 57.5t41.5 51t52.5 43q38 26 80 26q14 0 29 -3q55 -12 98 -40t72 -77q29 -47 43 -95.5t20 -101.5q7 -56 7 -112q0 -42 -4 -82q-9 -96 -38 -191q-2 -10 -10 -31q-2 -6 -5 -11t-3 -15 q33 2 64.5 4t64.5 4q29 4 57 -6q8 -4 15 -8q10 -14 -7 -19q-10 -2 -17 -2h-17q-41 -2 -82 -7t-82 -11q-23 -2 -35 -25q-29 -55 -63.5 -105t-77.5 -96q-66 -72 -160 -86q-22 -4 -43 -4q-31 0 -59 9q-47 16 -63 53q-8 19 -9 39q0 20 8 41q10 31 32.5 54t49.5 40 q55 35 115.5 58.5t126.5 37.5q31 6 37 35q10 49 16 99t10 102q4 44 4 87q0 22 -1 43q-3 64 -9 130q-4 49 -14.5 97t-32.5 93q-14 35 -22.5 39t-45.5 -12q-51 -23 -82.5 -62t-54.5 -86q-72 -137 -106 -299q-29 -117 -37 -235q-5 -67 -5 -135q0 -51 3 -103q4 -47 5 -92t7 -92 q4 -41 11 -78t18 -76q4 -16 3 -34.5t-3 -34.5q0 -20 -23 -21q-7 -1 -13 -1q-44 0 -73 36q-35 47 -54.5 98.5t-35.5 104.5q-23 76 -35 152.5t-22 154.5q-8 76 -12.5 150.5t-4.5 152.5q4 117 18.5 229.5t49.5 223.5q2 8 5 15t1 15q-6 6 -12 2q-41 -14 -80 -26t-80 -29 q-41 -16 -80 -36.5t-74 -43.5q-168 -113 -188 -305q-2 -16 -3 -31q0 -40 16 -78q22 -50 67 -92q25 -25 55 -38q6 0 8 -11q-10 -8 -26 -4q-74 14 -127 74q-74 78 -74 179q0 36 10 75zM864 129q10 -34 38 -34q4 0 9 1q35 8 66 22.5t55 39.5q29 29 50.5 58.5t39.5 62.5 q17 26 27 63h-10q-53 -14 -101.5 -33.5t-93.5 -48.5q-25 -16 -45 -35.5t-31 -48.5q-10 -25 -4 -47z" />
<glyph unicode="Q" horiz-adv-x="1040" d="M44 532q-2 32 -2 64q0 42 3 84q8 104 37 200.5t82 186.5q25 41 54.5 77t66.5 64q47 39 105.5 62.5t119.5 23.5t121.5 -23.5t116.5 -74.5q45 -43 77.5 -94t57.5 -111q43 -104 59 -210.5t19 -217.5q0 -207 -89 -405q-41 -92 -101 -168t-144 -135q-5 -5 -11 -9 q14 -10 27.5 -14t28.5 -8q53 -16 106 -31.5t109 -21.5q26 -4 52 -4q32 0 63 6q55 10 106 45q27 20 43 53q10 16 11 33.5t-15 34.5q4 10 20 6q29 -6 41 -25q4 -4 9 -12q7 -26 7 -51q0 -16 -2 -31q-8 -39 -48 -68q-86 -68 -203 -71q-16 -1 -32 -1q-67 0 -131 14 q-79 17 -157 46q-29 10 -54.5 19.5t-53.5 21.5q-20 8 -43 0q-79 -29 -164 -29q-52 0 -107 11q-27 6 -52 16t-48 27q-23 16 -41 47q-12 20 0 39q10 16 23.5 24t29.5 15q52 21 106 21q31 0 62 -7q35 -8 70 -18.5t70 -22.5q14 -4 32 4q35 25 64 51q217 195 266 486 q16 96 16 191q0 141 -36 278q-16 63 -42 119.5t-67 109.5q-12 18 -28.5 33.5t-32.5 29.5q-29 23 -65 23q-12 0 -24 -2q-14 -2 -28.5 -3t-28.5 -5q-59 -14 -107.5 -47t-86.5 -80q-66 -78 -103 -167t-51 -192q-8 -53 -13 -107q-3 -30 -3 -61q0 -24 2 -49q4 -49 14 -98t27 -96 q37 -104 133 -168q18 -14 38.5 -17.5t43.5 0.5q66 14 105.5 54.5t62.5 97.5t27 117v20q0 51 -15 100q-8 25 -19.5 47.5t-35.5 36.5q-8 4 -7 13q2 8 13 8q20 8 50 -2t46 -33t25.5 -48.5t13.5 -53.5q5 -28 5 -54.5t-5 -53.5q-10 -52 -33 -103q-10 -23 -16 -41 q-23 -72 -79 -107t-114 -39q-9 -1 -17 -1q-79 0 -149 49q-66 43 -103.5 102t-57.5 133q-18 74 -22 147zM170 -143q23 -14 35 -18.5t35 -4.5h16q59 0 119 25q-25 14 -55.5 22t-60.5 8t-53.5 -8t-35.5 -24z" />
<glyph unicode="R" horiz-adv-x="1425" d="M41 594q2 59 23.5 109.5t56.5 97.5q66 86 150.5 143t187.5 92q29 10 56.5 18.5t55.5 16.5q25 6 29 27q29 72 70 129q12 16 25.5 29.5t29.5 23.5q39 29 81 30h3q40 0 80 -22q33 -14 20 -53q-16 -45 -49 -70q-14 -10 -20 -30q-25 -53 -40.5 -108.5t-31.5 -111.5 q-12 -47 -24.5 -93t-18.5 -93q-15 -117 -23 -231q-5 -74 -5 -149q0 -40 1 -81q6 45 11.5 90t11.5 91q10 86 29.5 166.5t46.5 160.5q20 61 42.5 120.5t51.5 119.5q14 27 28.5 50.5t30.5 45.5q20 23 47 43q43 34 99 34q16 0 32 -3q43 -6 76 -25.5t56.5 -46.5t37 -59.5 t19.5 -63.5q9 -46 9 -91q0 -30 -4 -60q-11 -74 -38 -146q-53 -154 -143 -282q-37 -53 -80 -99q-49 -51 -109 -82q-4 -4 -9 -6t-9 -8q27 -23 40 -51.5t27 -59.5q14 -33 27.5 -64.5t28.5 -61.5q10 -23 25.5 -45.5t37.5 -38.5q21 -16 45 -16q13 0 27 5q53 20 92 70 q23 29 43.5 57.5t36.5 59.5q29 55 54.5 110.5t47.5 112.5q12 33 26.5 63.5t29.5 61.5l4 8q6 10 16 6q8 -2 4 -14q-10 -27 -17 -52.5t-18 -52.5q-29 -72 -61.5 -142.5t-69.5 -137.5q-16 -29 -32.5 -54.5t-32.5 -50.5q-10 -14 -21.5 -25t-21.5 -22q-41 -37 -87 -44 q-14 -2 -28 -2q-33 0 -67 11q-129 37 -197 148q-25 41 -48.5 81t-37.5 87q0 2 -1 4t-1 4q-2 6 -3 13.5t-5 11.5q-8 4 -16.5 5t-18.5 3q-12 2 -12 -10q0 -4 -1 -6.5t-1 -6.5q-1 -33 -1 -65t1 -63q2 -62 10 -126q2 -29 12 -49q8 -20 9 -40.5t1 -41.5q-2 -31 -28 -33 q-11 -2 -22 -2q-46 0 -81 35q-47 51 -71.5 110.5t-45.5 123.5q-35 105 -45 213q-6 67 -6 136q0 41 2 83q8 106 19.5 212.5t34.5 211.5q8 35 18 69.5t20 69.5q0 4 1 6t-1 8q-92 -27 -176 -67.5t-155 -108.5q-37 -35 -68 -77t-47 -91q-17 -54 -17 -103q0 -107 81 -196 q53 -59 141 -65q10 0 20.5 -1t12.5 -12q0 -10 -10.5 -11t-20.5 -3q-20 -4 -40 0t-38 8q-47 10 -87 33t-71 62q-35 41 -47 88t-12 98zM754 254q0 -18 16 -18q16 -2 28.5 2t26.5 10q45 25 86 61q41 39 71 83t54 93q53 111 75 224.5t26 232.5q0 16 1 30.5t-1 31.5 q-2 27 -5.5 51t-13.5 47q-6 16 -20 8q-16 -10 -29.5 -19.5t-26.5 -23.5q-55 -57 -96 -122.5t-72 -139.5q-35 -86 -58 -176t-38 -185q-4 -20 -7 -40.5t-7 -41.5q-4 -23 -4 -43t-6 -43v-22z" />
<glyph unicode="S" horiz-adv-x="1101" d="M46 526q-4 23 -4 48q0 27 5 55q23 119 90.5 199.5t175.5 132.5q57 27 114.5 45t117.5 36l67 19q14 2 19 18q23 74 65 138q16 20 32.5 36.5t39.5 28.5q35 19 69 19q8 1 16 -1q42 -6 81 -34q25 -16 28 -39t-14 -45q-20 -27 -51 -47q-25 -18 -51.5 -35t-54.5 -27 q-20 -8 -23 -31q-6 -35 -6 -70q0 -28 4 -54q8 -62 29 -123q23 -61 52.5 -119t61.5 -115q20 -35 41 -70.5t37 -74.5q8 -12 23 -10q35 10 70.5 12t70.5 6q31 0 61 -6q12 -4 13 -12q-2 -8 -13 -9q-12 -4 -24 -5t-25 -3q-39 -4 -75.5 -8t-77.5 -12q16 -39 24 -77t13 -75 q6 -34 6 -66q1 -49 -13 -93q-22 -74 -73 -140q-104 -133 -262 -158q-23 -4 -46 -4q-90 0 -167 58q-56 41 -68 99q-5 24 -5 47q0 32 9 60q14 43 39 79t53 69q53 59 117.5 99t136.5 71q10 4 21.5 8t23.5 8q16 6 18.5 10.5t-3.5 22.5q-16 37 -32 71t-34 68q-23 43 -43 87 t-43 89q-45 102 -59 203q-4 20 -3 40t-2 40q0 6 1.5 12.5t-3.5 12.5q-2 2 -4 0q-74 -23 -146.5 -47.5t-139.5 -61.5q-178 -100 -217 -297q-5 -27 -5 -53q0 -23 4 -45q9 -47 39 -90q0 -2 5 -6q4 -8 0 -13q-4 -4 -13 0q-29 16 -47 37q-37 43 -46 92zM497 -58q3 -36 27 -67 q30 -35 54 -44q9 -3 19 -4q19 0 44 11q78 31 133 96q47 53 72.5 116.5t25.5 135.5q0 29 -4 55.5t-10 55.5q-4 18 -7 20t-20 -4q-35 -14 -65.5 -31.5t-63.5 -33.5q-53 -33 -95 -75t-75 -95q-20 -35 -28 -64q-8 -28 -7 -56q-1 -8 0 -16zM793 1126q31 14 56 35t42 49 q4 8 7 17.5t-3 15.5q-8 6 -17.5 2t-15.5 -10q-51 -43 -69 -109z" />
<glyph unicode="T" horiz-adv-x="987" d="M43 1071q6 27 27 55q23 29 50 49.5t60 34.5q84 38 175 38q45 0 91 -9q35 -6 69 -14t67 -19q8 10 8 23.5t4 25.5q4 20 11 27.5t30 11.5q11 1 22 1q61 0 113 -38q27 -20 16 -49q-4 -10 -6 -22t-6 -25q-4 -12 12 -18q56 -11 114 -15l28 -2q44 0 90 9q23 4 44 12t44 18 q23 12 38 30.5t27 39.5q6 10 12.5 19.5t12.5 19.5q8 16 18 10q8 -4 13.5 -7t3.5 -13q-2 -12 -3 -24.5t-9 -22.5q-10 -14 -18.5 -27.5t-20.5 -26.5q-39 -35 -84 -49t-95 -20q-34 -5 -67 -5q-24 0 -50 3q-58 6 -118 16q-8 -27 -12 -51.5t-9 -50.5q-8 -53 -17 -107.5 t-15 -107.5q-8 -61 -14.5 -122t-10.5 -122q-10 -113 -14 -225q-2 -56 -2 -112t2 -114q2 -51 7 -100t13 -98q6 -41 29 -80q16 -35 49 -17q23 12 40 29.5t32 38.5q23 29 40 60.5t34 64.5q27 59 54 116.5t52 116.5q12 29 20.5 58.5t18.5 58.5q6 16 11 33.5t11 34.5q4 12 7 16 q8 18 24 12q10 -4 10 -10t-2 -10l-20 -86t-25 -84q-16 -47 -34.5 -91t-38.5 -89q-25 -53 -48.5 -107.5t-52.5 -105.5q-10 -14 -19 -28.5t-20 -29.5q-44 -52 -108 -52q-17 0 -35 3q-113 20 -164 125q-20 43 -31.5 88t-19.5 92q-12 73 -16 145q-2 39 -1 77q0 33 1 67 q2 164 18 328q10 104 22.5 204.5t30.5 202.5q4 16 6 33.5t6 34.5q2 18 -14 22q-51 13 -103 23q-33 7 -67 6q-19 0 -39 -2q-55 -6 -106 -22.5t-92 -55.5q-20 -18 -37 -37.5t-27 -44.5q-8 -23 -31 -10q-23 14 -16 45z" />
<glyph unicode="U" horiz-adv-x="1468" d="M43 711q4 49 24.5 92t51.5 82q39 51 88 88t108 65q51 23 104.5 40.5t108.5 29.5q29 6 49.5 20.5t30.5 42.5q10 27 25.5 49.5t34.5 43.5q41 42 88 42q23 0 47 -10q8 -2 16 -8q25 -16 10 -43q-10 -16 -21 -29.5t-26 -25.5q-16 -12 -22 -29q-25 -57 -40 -115.5t-30 -117.5 q-29 -119 -42 -239t-13 -243q0 -76 8 -150.5t31 -148.5q8 -27 17 -50t26 -46q8 -10 12 -11t14 7q16 10 33 31q37 41 61.5 90t47.5 100q35 86 64.5 174t58.5 176q27 82 50 164t46 166q8 33 12 66t10 65q8 43 18.5 84t31.5 80q4 6 5 13.5t3 13.5q8 14 16 6q8 -6 16.5 -6h18.5 q29 0 57 -13q20 -10 26.5 -21t4.5 -34q-4 -35 -9 -71.5t-14 -71.5q-12 -66 -19 -131.5t-13 -130.5q-8 -92 -11.5 -181.5t-5.5 -179.5q0 -70 2 -138.5t7 -135.5q4 -57 10 -113.5t16 -111.5q6 -35 17.5 -69t33.5 -65q10 -12 13.5 -12t13.5 12q23 25 36 54.5t23 60.5 q35 102 67 202.5t54 205.5q4 20 9.5 38.5t11.5 38.5q2 4 2 6.5t2 6.5q4 10 14 6q8 -2 8 -12q-4 -20 -7 -40t-7 -40q-23 -117 -56.5 -230.5t-68.5 -228.5q-12 -35 -27 -68q-32 -53 -83 -53q-20 0 -42 8q-53 18 -85.5 56.5t-53.5 89.5q-18 43 -27.5 88t-17.5 92 q-8 59 -14 117.5t-10 117.5q-6 82 -8 162v44q0 59 3 118v74q-16 -45 -28 -85t-27 -81q-27 -84 -52.5 -167t-57.5 -165q-16 -41 -36 -79t-42 -77q-8 -12 -15 -18q-37 -47 -90 -54q-9 -1 -17 -1q-44 0 -83 30q-51 39 -78 89q-29 51 -43 104t-24 111q-11 76 -11 154q1 10 1 19 q2 87 5 175q4 88 18.5 173t37.5 171q4 16 10 32.5t10 32.5q-4 4 -8 2l-8 -4q-41 -12 -80 -23.5t-78 -27.5q-59 -25 -111.5 -59.5t-93.5 -81.5q-33 -39 -54 -81t-28 -91l-2 -26q0 -43 16 -81q20 -48 58 -92q41 -47 100 -53q20 -4 29 -12q4 -4 3 -8.5t-7 -6.5q-10 -6 -25 -2 q-47 2 -86.5 19.5t-70.5 52.5q-39 45 -59 95q-17 42 -18 91q0 9 1 19z" />
<glyph unicode="V" horiz-adv-x="1282" d="M43 608q2 29 9 54.5t18 50.5q57 131 161 211q41 33 83 62.5t85 57.5q27 16 29 43q4 37 14.5 71t26.5 67q14 29 33 45q26 26 63 26h9q42 -4 69 -34q14 -18 4 -48q-14 -31 -33 -47q-14 -18 -22 -51q-12 -61 -16.5 -123.5t-8.5 -126.5q-3 -49 -3 -99q0 -25 1 -49 q2 -74 10 -149q6 -47 14.5 -92t18.5 -92q16 -66 35 -128t41 -124q23 -55 49.5 -105.5t63.5 -95.5q16 -20 24 -21t27 19q35 35 63 86q31 53 54.5 109.5t42.5 116.5q2 8 2 14t-11 10q-47 23 -81.5 57.5t-61.5 79.5q-45 72 -69.5 150t-34.5 164q-8 59 -8 117q0 128 38 253 q16 49 39 94.5t64 80.5q18 16 38.5 28.5t45.5 16.5q29 4 55.5 -2.5t50.5 -18.5q61 -29 92 -94q16 -35 21.5 -71t7.5 -72q2 -33 2 -66q0 -41 -3 -83q-5 -75 -15 -150q-16 -117 -43 -229.5t-60 -225.5q-4 -12 -6 -21q27 -8 52.5 -6t52.5 11q43 16 80.5 40.5t66.5 59.5 q10 12 22.5 24.5l22.5 22.5q4 2 8 6q10 8 25 -2q6 -6 -2 -18q-8 -10 -14.5 -20.5t-14.5 -20.5q-31 -35 -64.5 -63.5t-76.5 -49.5q-46 -21 -98 -21q-20 0 -41 3q-4 0 -8.5 1t-8.5 1q-14 4 -16 -11l-19 -55q-27 -72 -57.5 -138.5t-73.5 -127.5q-14 -20 -30.5 -32.5 t-40.5 -12.5q-14 -2 -28.5 2t-29.5 8q-29 10 -53.5 25.5t-46.5 36.5q-35 33 -62.5 70.5t-50.5 78.5q-45 84 -75.5 172t-51.5 180q-27 112 -34 222q-4 60 -4 119q0 52 3 104q0 20 2.5 38.5t4.5 39.5q2 10 3 19t-1 19q-4 2 -7.5 -1t-7.5 -5q-35 -27 -68.5 -51t-66.5 -53 q-51 -45 -89 -97.5t-60 -115.5q-18 -46 -17 -91q0 -47 14 -89q14 -41 36 -75t51 -54l49 -37q4 -4 8 -7.5t2 -9.5q-4 -6 -9 -5t-11 1q-10 2 -20.5 6t-20.5 9q-152 93 -152 266v18zM848 800q-1 -16 -1 -31q0 -103 23 -206q10 -49 26.5 -95t43.5 -89q31 -51 82 -86q2 8 3 13 t3 11q14 43 24.5 87.5t20.5 89.5q29 144 45 290q9 85 9 172q0 61 -5 123q-4 35 -13 66t-26 61q-8 18 -30 37q-20 18 -45 2q-14 -8 -26.5 -18t-25.5 -23q-31 -37 -48 -79t-27 -87q-29 -120 -33 -238z" />
<glyph unicode="W" horiz-adv-x="1622" d="M43 556q-1 14 -1 29q0 69 24 140q20 57 50.5 105.5t71.5 91.5q51 59 110.5 104t127.5 80q29 16 37 43q18 45 45 84q12 20 31 37q29 23 57.5 22.5t56.5 -16.5q20 -14 4 -35q-12 -16 -20 -33.5t-14 -36.5q-29 -76 -46.5 -152.5t-25.5 -156.5q-4 -41 -11.5 -83t-11.5 -85 q-6 -106 -10 -210l-2 -60q0 -75 8 -152q8 -70 19.5 -138t34.5 -134q4 -12 8 -25.5t14 -23.5q16 16 29.5 34.5t23.5 39.5q29 53 49.5 109t38.5 116q33 100 54.5 200.5t44.5 204.5q14 63 17 128t7 128q4 27 6 51.5t13 47.5q16 41 57 41q39 0 76 -19q31 -14 31 -46v-7 q-4 -29 -7.5 -57.5t-7.5 -57.5q-4 -59 -8 -117.5t-8 -117.5q0 -20 -1 -40t-1 -40v-53.5t4 -53.5q4 -47 8 -95t8 -95q8 -84 22.5 -165t39.5 -161q8 -27 17 -50t26 -46q16 -23 20 -23t27 17q14 12 28 37q27 35 43.5 75.5t32.5 81.5q51 129 82 269q2 16 -12 22q-49 20 -83 56 t-58 81q-29 51 -42.5 104.5t-23.5 111.5q-10 68 -11 135v15q0 60 7 120q8 66 25.5 129t46.5 123q10 18 20 34.5t27 30.5q32 33 72 34q1 0 3 1q38 0 74 -31q20 -16 33 -34q39 -57 53 -121q13 -61 17 -123q3 -43 2 -85v-38q-4 -131 -22.5 -258t-47.5 -256q-2 -4 -2 -10 q-8 -14 10 -19q20 -4 33 -4q96 0 162 66q10 10 19 20t20 21q14 14 32 10q25 -2 13 -25q-16 -31 -39 -47q-18 -16 -36.5 -29.5t-41.5 -23.5q-54 -24 -107 -24q-26 0 -51 6h-12q-12 6 -16 -11q-23 -88 -53.5 -173t-65.5 -171q-23 -53 -51 -100q-30 -44 -60 -56q-14 -6 -32 -5 q-23 0 -54 8q-29 6 -52.5 23.5t-43.5 39.5q-29 39 -47.5 81t-32.5 87q-31 92 -48 185.5t-30 189.5q-4 25 -4 50.5t-2 51.5v41q-10 -8 -11 -17t-5 -20q-29 -127 -64 -249.5t-86 -243.5q-16 -41 -41 -74q-20 -27 -57 -27h-10q-70 12 -115 70q-29 39 -43 76q-47 111 -61 227 q-13 86 -13 168v13q0 76 6 155q8 117 24.5 231.5t47.5 229.5q0 4 1 6t1 4q-4 8 -10 2q-78 -47 -142.5 -104.5t-113.5 -135.5q-35 -53 -53.5 -110t-20.5 -121q0 -66 23.5 -122t64.5 -105q35 -37 90 -54q4 0 7 -2q10 0 10 -8q2 -6 -2 -8l-8 -4q-16 -4 -29.5 -2t-26.5 6 q-41 12 -71.5 34.5t-53.5 59.5q-49 78 -55 161zM1221 655q10 -59 27.5 -114.5t47.5 -106.5q16 -27 36.5 -49.5t49.5 -40.5q4 12 4 14q25 109 41.5 218.5t22.5 220.5q4 59 6 119v23q0 48 -6 95q-6 49 -19.5 95.5t-41.5 87.5q-23 33 -34.5 32.5t-35.5 -28.5q-16 -18 -27.5 -40 t-21.5 -44q-62 -160 -62 -328q0 -76 13 -154z" />
<glyph unicode="X" horiz-adv-x="1294" d="M52 550q-9 35 -9 73q0 41 10 84q45 178 203 284q45 31 93 56.5t95 48.5q10 6 21 10q27 10 44 26.5t21 47.5q4 23 15.5 41t25.5 34q23 27 62 29h6q35 0 57 -22q12 -12 6 -23q-16 -33 -21 -66.5t-9 -68.5q-6 -73 -6 -146q0 -128 18 -256q23 -168 68 -329q0 -5 4 -13 q8 8 11 16.5t7 18.5q47 102 89 206t81 208q25 70 54.5 136.5t64.5 131.5q23 41 52.5 80t64.5 72q25 25 51 35q18 8 47 2t45 -23q23 -23 -6 -29q-35 -10 -62.5 -29.5t-52.5 -45.5q-31 -29 -54.5 -64t-45.5 -71q-59 -104 -102.5 -214t-86.5 -221q-29 -74 -57.5 -147.5 t-60.5 -145.5q-8 -16 -2 -38q47 -141 114 -271q16 -31 35 -59.5t45 -54.5q27 -27 42 -29t46 20q23 16 40.5 36t31.5 42q61 94 114.5 192.5t94.5 202.5l12 32l12 32q4 4 5 9t6 9q8 14 20 11q6 -4 5 -9.5t-3 -9.5q-18 -72 -49 -143q-23 -53 -47.5 -102.5t-50.5 -100.5 q-20 -43 -43 -85t-52 -83q-18 -27 -49 -57q-28 -27 -62 -33q-17 -3 -34.5 -3t-34.5 3q-37 8 -69.5 26.5t-61.5 43.5q-47 43 -84 93t-67 103q-4 8 -7.5 15.5t-11.5 15.5q-10 -16 -18 -29.5t-19 -27.5q-35 -47 -71.5 -92.5t-83.5 -79.5q-37 -29 -78 -50.5t-88 -31.5 q-25 -4 -49 -4q-21 0 -41 3q-43 7 -84 31q-35 20 -56 64q-21 51 -21 99q0 32 9 63q23 82 72 139q68 74 160 80q14 1 28 1q44 1 85 -9q54 -12 106 -45q23 -14 41 -33t39 -39q8 10 15 21.5t13 21.5q4 6 2 11t-4 11q-25 57 -44 118t-36 120q-49 186 -67 383q-5 52 -5 103 q0 77 11 155q0 4 1 8t-3 8q-6 0 -15 -4q-47 -25 -93 -49t-91 -53q-168 -106 -209 -293q-8 -35 -8 -69q0 -58 24 -110q40 -83 128 -132q6 -4 14 -6t4 -11q-4 -10 -12 -9t-15 3q-31 6 -55 21.5t-47 38.5q-59 66 -77 140zM123 37q-11 -31 -10 -62q0 -64 47 -122q30 -39 74 -39 h8q29 0 54.5 9t49.5 21q80 41 139.5 106.5t112.5 135.5q8 12 -4 20q-8 6 -14.5 12.5l-12.5 12.5q-35 41 -76.5 63.5t-93.5 30.5q-21 3 -41 3q-102 0 -172 -78q-43 -47 -61 -113z" />
<glyph unicode="Y" horiz-adv-x="1200" d="M51 514q-11 46 -11 89q0 48 13 92q25 85 78 163q45 66 103.5 117t123.5 94q29 16 55.5 34.5t55.5 35.5q18 8 27 28q10 23 21 43.5t28 38.5q6 8 13 14.5t15 12.5q22 16 44 16q27 0 55 -24q25 -18 2 -37q-8 -6 -17 -23q-6 -16 -13 -32.5t-11 -32.5q-29 -96 -51.5 -192.5 t-32.5 -194.5q-6 -63 -6 -125t4 -125q2 -41 7 -79t13 -77q4 -23 12.5 -41t14.5 -37q6 -14 22 -8q18 10 35 31q33 35 55.5 74t41.5 80q125 272 215 559q14 45 25 89t22 89q12 39 30 80q4 10 17 10q16 -2 30.5 -5t28.5 -14q23 -16 17 -40q-10 -37 -15.5 -74t-9.5 -74 q-6 -47 -8 -92t-6 -92q-4 -59 -5.5 -121t-1.5 -123q2 -59 8.5 -118.5t10.5 -119.5q0 -10 1 -18t3 -18q16 8 33.5 14t34.5 14q25 10 48 16.5t48 12.5q23 8 41 0q8 -4 6 -8q0 -6 -6 -8q-6 -4 -13.5 -7.5t-15.5 -5.5q-80 -29 -153 -67q-20 -10 -19 -35q4 -42 4 -84 q0 -22 -1 -43q-3 -64 -9 -127q-4 -41 -14.5 -80t-26.5 -78q-31 -74 -86 -112.5t-133 -51.5q-19 -3 -37 -3q-19 0 -38 4q-36 6 -71 20q-2 2 -10 6q-63 35 -82 84q-8 18 -8 40q0 36 21 81q23 53 57.5 96t77.5 82q47 45 99 84t110 72q14 10 18 19t4 26q-4 63 -7 126.5t-7 129.5 q-3 44 -3 88q0 21 1 43q2 65 4 131v88q-4 -4 -5 -9t-3 -10q-18 -63 -37 -125.5t-39 -125.5q-27 -78 -58.5 -155t-66.5 -153q-25 -53 -57 -94q-25 -31 -60 -49q-14 -10 -29.5 -9t-31.5 5q-63 12 -107 67q-31 41 -47 86.5t-26 94.5q-18 100 -18 200q0 46 4 91q12 145 53 288 q4 10 7 21.5t5 25.5l-8 -4q-68 -43 -129.5 -91t-114.5 -107q-43 -51 -68.5 -109.5t-40.5 -124.5q-6 -31 -6 -61.5t6 -61.5q6 -35 20.5 -63.5t37.5 -57.5q14 -16 32.5 -26t36.5 -21q4 -4 10.5 -5t10.5 -5q2 -4 4 -6t0 -6q-4 -6 -10 -6q-10 -2 -17.5 0t-15.5 4 q-129 45 -158 182zM666 -110q-2 -21 0 -44q4 -23 18 -34q33 -35 56 -42q6 -2 13 -2q23 0 58 17q8 4 14 8t15 8q70 47 98 121q16 41 26.5 85t14.5 89q4 35 6 70t4 72q-10 0 -16 -5.5t-12 -9.5q-29 -18 -55.5 -38.5t-53.5 -41.5q-113 -82 -174 -209q-10 -23 -12 -44z" />
<glyph unicode="Z" horiz-adv-x="1118" d="M45 772q25 162 143 285q66 68 147 109.5t173 64.5q39 10 79 17q31 5 63 5h18q135 -4 233 -86q90 -75 90 -182v-14q-2 -29 -11 -56.5t-26 -52.5q-70 -123 -190 -209q-4 -4 -8 -6q4 -4 8 -5t8 -3q41 -8 70.5 -30.5t52.5 -53.5q29 -37 45 -88q6 -16 21 -14q10 2 21 1t22 1 q18 1 35 1q33 0 64 -4q48 -8 95 -20q27 -8 39 -20q4 -8 2 -13q-4 -6 -12 -4q-4 0 -6 1t-7 1q-60 23 -122 27q-21 1 -41 1q-42 0 -84 -5q-12 -2 -11 -14q5 -32 5 -63q0 -98 -48 -193q-33 -61 -68.5 -120t-82.5 -112q-80 -90 -193 -154q-82 -45 -181 -45q-22 0 -44 2 q-109 10 -194 74q-10 8 -18.5 15.5t-16.5 15.5q-39 43 -39 95q0 24 8 50q18 51 55 95q51 59 112.5 106t127.5 88q102 61 209.5 101t222.5 67q16 4 31.5 7t31.5 7q12 0 11 15q-4 57 -35 100q-23 31 -68 35q-27 3 -53 3q-13 0 -25 -1q-38 -2 -77 -14q-12 -4 -23 -5 q-20 0 -40.5 -2t-41.5 -6q-12 0 -16 2q-10 8 -21.5 15.5t-19.5 17.5q-18 20 -4 37q4 8 7 15.5t7 15.5q2 10 9.5 17t15.5 13q20 12 40.5 24.5t39.5 25.5q74 49 133 110.5t102 138.5q12 23 20.5 45.5t8.5 47.5q0 35 -13.5 53t-44.5 31q-43 16 -86 20q-22 2 -44 2t-44 -2 q-41 -4 -78.5 -12t-74.5 -23q-80 -31 -147.5 -77t-121.5 -117q-74 -98 -92 -224q-3 -26 -3 -51q-1 -54 15 -104q22 -72 74 -135q23 -27 58 -45q6 -4 11 -6.5t9 -12.5q-10 -4 -18 -2t-17 6q-63 27 -106 86q-45 67 -65 139q-14 49 -14 101q0 26 3 53zM137 -92 q2 -23 15.5 -40.5t33.5 -21.5q20 -5 40 -5t40 5q70 16 123 39q145 59 255 157.5t187 233.5q16 31 28 64t22 68q-256 -43 -475 -179q-55 -35 -106.5 -72.5t-94.5 -86.5q-39 -45 -60 -99q-10 -24 -10 -46q0 -9 2 -17z" />
<glyph unicode="[" horiz-adv-x="559" d="M145 625q2 117 7.5 213t17.5 192q10 80 25.5 158t44.5 153q6 18 17 33t32 21q47 20 88 20q72 -4 129 -20q23 -6 37 -21l7 -7t1 -9q-4 -14 -16 -15q-16 -6 -37 -2h-31.5t-32.5 -4q-16 -4 -16 -18q-2 -12 -5 -24.5t-7 -24.5q-23 -59 -35.5 -121t-22.5 -125 q-12 -70 -20.5 -138.5t-14.5 -140.5q-4 -57 -6 -113.5t-2 -113.5q0 -84 5 -165t12 -163q4 -47 9 -93t13 -93q4 -23 9 -42t14 -40q6 -16 22 -16q14 0 28.5 -1t28.5 -1q27 0 46 -8q10 -4 10 -15q0 -6 -10 -10t-22.5 -6t-23.5 -4q-41 -4 -78.5 -1t-74.5 21q-41 18 -57 62 q-16 45 -29.5 91t-22.5 93q-20 131 -31.5 258t-7.5 240z" />
<glyph unicode="\" horiz-adv-x="780" d="M123 1233v4q-4 37 4 52.5t43 27.5q43 16 88 8q18 -4 25.5 -12t7.5 -29q2 -59 15 -114.5t30 -112.5q29 -104 62.5 -208t68.5 -206q41 -117 85 -233.5t97 -229.5q12 -27 24.5 -51.5t28.5 -48.5q6 -14 6.5 -26.5t4.5 -28.5q0 -6 -8 -11q-12 -6 -25.5 -8t-24.5 6 q-10 8 -21.5 13.5t-17.5 15.5q-31 43 -58.5 87t-53.5 91q-41 72 -75 151t-69 156q-43 96 -82.5 193.5t-74.5 198.5q-29 78 -47.5 155.5t-32.5 159.5z" />
<glyph unicode="]" horiz-adv-x="477" d="M2 -94q4 12 16 16q18 4 35 0h32.5t33.5 4q14 2 16 19q2 12 5 24.5t7 24.5q23 59 35.5 121.5t22.5 124.5q12 70 20 139.5t15 138.5q4 57 6 113.5t2 113.5q0 84 -6 165t-11 163q-4 47 -9 93t-15 94q-6 45 -21 81q-6 16 -22 17q-14 0 -28.5 1t-31.5 1q-27 0 -43 8 q-12 4 -10 14q0 4 10 11q10 4 22.5 6t22.5 4q41 4 79 1t75 -20q39 -18 57 -61q16 -47 29.5 -93t22.5 -93q18 -131 30.5 -258t8.5 -238q-2 -117 -8.5 -214t-16.5 -194q-10 -78 -25.5 -156.5t-44.5 -154.5q-12 -39 -49 -53q-23 -10 -44 -15.5t-46 -5.5q-70 4 -127 21 q-25 10 -37 20q-4 4 -7 7.5t-1 9.5z" />
<glyph unicode="^" horiz-adv-x="759" d="M90 745q4 6 5 14.5t5 14.5q4 10 11.5 20.5t11.5 20.5q45 72 102 146q23 25 41.5 50t38.5 50q14 16 30.5 29.5t41.5 15.5q12 20 24.5 23.5t30.5 -13.5l25 -18q8 -8 15 -16.5t15 -16.5q31 -35 56.5 -71t50.5 -72q16 -29 35.5 -54.5t36.5 -52.5q12 -18 20 -38.5t2 -43.5 q-4 -12 -6 -16q-4 -16 -16 -17q-10 0 -17 15q-4 10 -10 19t-14 18q-51 53 -106 102t-118 88q-16 12 -27.5 27.5t-13.5 38.5q-29 -59 -53 -116.5t-41 -123.5q-16 -45 -57 -59q-45 -20 -90 -13q-45 6 -29 49z" />
<glyph unicode="_" horiz-adv-x="692" d="M141 92q-14 41 29 49l31 6h47q45 -2 89 -5t89 -13q31 -4 62.5 -8t64.5 -8q23 -4 41 -12.5t33 -26.5q4 -4 5 -8.5t5 -8.5q8 -14 -2 -24q-4 -4 -9 -3t-12 3q-10 4 -22 5t-23 1q-74 -2 -146.5 -9t-143.5 -28q-43 -12 -80 16q-18 16 -32.5 34t-25.5 40z" />
<glyph unicode="`" horiz-adv-x="417" d="M123 952q-14 29 18 37q6 2 12.5 2t12.5 2q12 0 22.5 -2t20.5 -6q20 -10 31 -31q35 -94 94 -163q2 -4 4 -5.5t4 -5.5q20 -31 -16 -35q-45 -6 -76 29q-41 39 -69.5 85t-57.5 93z" />
<glyph unicode="a" horiz-adv-x="729" d="M4 328q14 137 98 247q58 77 147 77q12 0 25 -1q41 -6 69 -30.5t44 -61.5q8 -16 14 -35q2 -14 17 -8q23 8 46 7t48 -5q16 -6 27 -14q18 -10 12 -31q-10 -49 -13 -99t-8 -102q-4 -43 -5 -87v-29q0 -29 1 -58q4 -66 29 -116q14 -27 26.5 -29t34.5 20q18 16 32 37t24 43 q27 53 45 109.5t35 116.5q6 25 12 49t10 49q2 20 12 43q8 12 19 10q4 -4 4 -8v-8q2 -10 0 -22.5t-6 -22.5q-18 -80 -42 -158t-54 -154q-16 -39 -43 -82q-20 -33 -47 -44q-14 -6 -34 -6q-18 0 -40 5q-35 8 -60.5 30t-42.5 52q-31 51 -48 105.5t-19 113.5q0 4 -1 8.5t-1 8.5 h-6q-4 -14 -9.5 -28.5t-9.5 -29.5q-12 -35 -26.5 -66.5t-34.5 -62.5q-23 -41 -57 -54q-14 -5 -32 -5q-25 0 -59 10q-35 12 -58.5 37t-39.5 60q-27 53 -34 107q-4 29 -4 59q0 26 3 53zM172 225q2 -29 3 -56.5t5 -55.5q2 -14 3 -29.5t7 -30.5q8 -27 31 -10q16 10 26.5 23.5 t20.5 27.5q18 29 31.5 59.5t26.5 61.5q45 113 59 229q0 16 -2 25q-6 18 -12 37.5t-15 40.5q-18 51 -67 71q-14 8 -20.5 6.5t-16.5 -12.5q-4 -4 -5 -6t-3 -4q-18 -33 -31.5 -66.5t-19.5 -70.5q-10 -59 -13.5 -120t-7.5 -120z" />
<glyph unicode="b" horiz-adv-x="819" d="M2 610q-1 24 -1 50q0 50 3 100q4 68 11.5 135.5t23.5 132.5q16 55 37.5 106.5t56.5 98.5q18 29 42 50.5t56 35.5q40 19 81 19q39 0 79 -17q53 -23 78 -76q23 -51 29 -102q3 -22 3 -44q0 -30 -5 -61q-10 -72 -28.5 -139.5t-47.5 -132.5q-35 -82 -87 -148.5t-120 -121.5 q-10 -6 -15 -12.5t-3 -20.5q6 -72 18 -140.5t29 -136.5q2 -6 2 -12t8 -12q4 23 7 43t7 43q12 70 36 135.5t54 130.5q25 57 70 98q41 41 88 41q6 0 14 -1q56 -7 93 -64q27 -39 39 -81t20 -87q2 -4 2 -7t2 -7l4 -5q25 6 49.5 13.5t48.5 13.5q29 6 58.5 7t58.5 1q4 0 6 -1t6 -1 t5 -6q2 -6 -7 -6q-8 -2 -16 -2h-18q-90 -4 -172 -37q-16 -4 -17.5 -7t-1.5 -20q1 -25 1 -49q0 -59 -7 -117q-10 -80 -43 -161q-47 -117 -168 -150q-23 -6 -47 -6q-31 0 -64 10q-43 16 -51 56q-6 23 -6 44q0 15 3 29q7 34 24 70q47 109 143 190q18 18 41 35q12 8 12 21 q8 53 10 107l2 60q0 24 -1 48q-2 31 -17 67q-8 23 -28 13q-23 -10 -41.5 -25.5t-32.5 -36.5q-23 -31 -37 -64.5t-29 -68.5q-33 -80 -49 -163t-33 -167q0 -14 2 -20q0 -37 -36 -51q-16 -5 -32 -5q-25 0 -51 12q-42 19 -57 56q-35 92 -54 183.5t-30 189.5q-8 73 -10 147z M179 748v-23q0 -24 1 -47q4 -41 5 -79t5 -77q0 -4 1.5 -9t1.5 -11q4 2 8 2q4 4 10 8t10 8q41 41 77 85t62 95q49 98 74 202q22 90 22 184q0 15 -1 30q-4 68 -37 129q-10 23 -35 39q-20 14 -45 2q-37 -20 -57 -53q-23 -35 -37.5 -75t-24.5 -81q-16 -63 -23.5 -126.5 t-11.5 -129.5q-4 -37 -5 -73zM360 47q-8 -21 -8 -42q0 -29 15 -58q10 -27 30 -8q16 16 27.5 33.5t21.5 37.5q23 49 35.5 100.5t24.5 104.5q4 12 6 24.5t4 26.5q-2 2 -4 2q-37 -35 -69.5 -71.5t-55.5 -81.5q-8 -16 -15 -32.5t-12 -35.5z" />
<glyph unicode="c" horiz-adv-x="417" d="M0 289q2 57 16.5 123.5t53.5 130.5q33 57 92 94q39 23 81 23q26 0 54 -9q66 -23 72 -88q2 -16 2 -31.5t-6 -31.5q-4 -8 -9 -8q-4 0 -8 10q-4 23 -9 42t-15 38q-10 18 -25 26q-12 12 -29 0q-23 -23 -34 -49q-20 -41 -29.5 -84t-18.5 -86q-10 -72 -12 -141q-1 -15 -1 -29 q-1 -37 7 -75q10 -52 29 -101q10 -27 18.5 -29t30.5 15q31 25 52.5 55.5t41.5 62.5q35 61 68 125t61 129q4 6 13 23q2 4 6 9t10 1q10 -4 8 -9t-4 -11q-14 -39 -35 -82q-33 -72 -67.5 -141.5t-75.5 -137.5q-6 -12 -14.5 -23.5t-18.5 -21.5q-23 -29 -53 -37q-15 -4 -31.5 -4 t-34.5 4q-45 8 -76.5 34t-54.5 65q-29 47 -42 99t-13 120z" />
<glyph unicode="d" horiz-adv-x="937" d="M2 201q-1 16 -1 33q0 32 3 64q4 48 14 95q16 72 50 130.5t98 99.5q46 28 97 28q20 0 40 -4q41 -8 78 -45q4 -4 6 -8t10 -6q10 82 24.5 160.5t37.5 156.5t50.5 149.5t68.5 139.5q20 33 43.5 61.5t50.5 57.5q10 10 20 18t21 19q27 22 61 28q14 2 29 3q20 0 40 -5 q34 -8 61.5 -29.5t41.5 -52.5q8 -18 13.5 -36.5t7.5 -36.5q4 -29 4 -56q0 -14 -1 -28q-3 -41 -14 -82q-18 -86 -48.5 -165t-78.5 -151q-45 -72 -103 -129t-132 -98q-23 -12 -23 -39q0 -96 7 -190q4 -47 9 -94.5t13 -94.5q6 -41 15.5 -82t23.5 -82q8 -23 17.5 -44t25.5 -40 q14 -16 27.5 -20t35.5 2q31 10 60 37q51 47 82 104t52.5 119t37.5 125q12 47 23.5 95t21.5 98q4 20 8 28q8 14 21 8q12 -2 8 -14q-2 -12 -2 -24.5t-4 -24.5q-12 -63 -29.5 -126t-40.5 -124q-10 -25 -18.5 -50.5t-18.5 -49.5q-37 -92 -102 -170q-16 -20 -37 -36t-47 -24 q-24 -6 -49 -6q-32 0 -64 10q-63 23 -107 65t-75 99q-23 41 -35 85t-22 89q-10 43 -15.5 87t-7.5 89q-4 0 -8 -10q-16 -61 -37 -119.5t-45 -117.5q-6 -14 -13.5 -26.5t-13.5 -25.5q-20 -38 -65 -38h-2q-98 0 -154 77q-25 33 -34 69t-11 75zM186 244q0 -56 7 -111 q2 -23 9 -44t15 -44l8 4q4 2 5 4t6 6q23 31 41 66t32 70q20 53 35.5 105t30.5 106q8 29 10 58.5t6 57.5q0 6 -1 11.5t-3 11.5q-8 12 -15 23.5t-18 21.5q-32 30 -52 30h-4q-22 -4 -44 -45l-2 -2q-29 -51 -41 -106t-18 -113q-8 -52 -8 -104q1 -3 1 -6zM575 524 q27 16 50.5 31.5t46.5 34.5q47 39 81.5 87t63.5 101q41 74 64.5 153t33.5 163q7 45 7 82q0 36 -11 75q-6 16 -13 32.5t-17 33.5q-17 22 -36 22q-17 0 -36 -16q-16 -12 -29 -29q-10 -12 -18 -24.5t-17 -26.5q-43 -78 -71.5 -158.5t-50.5 -166.5q-14 -51 -22.5 -103.5 t-14.5 -105.5q-4 -45 -6.5 -91.5t-4.5 -93.5z" />
<glyph unicode="e" horiz-adv-x="530" d="M0 281q4 78 21.5 148.5t54.5 135.5q49 84 129 123q40 18 81 18q24 0 48 -6q44 -10 68 -42q20 -25 20 -58q0 -8 -2 -16q-25 -170 -152 -273q-8 -8 -14 -10q-23 -8 -30 -24.5t-7 -38.5q-1 -20 -1 -41q0 -29 2 -59q3 -50 20 -99q8 -27 26 -55q10 -16 20.5 -19.5t28.5 2.5 q31 10 54.5 30.5t42.5 47.5q37 49 59 98q63 119 98 250l13 37q6 12 20 10q10 -2 10 -8t-2 -12q-6 -25 -12 -50.5t-14 -50.5q-37 -111 -88 -204q-16 -29 -34 -56.5t-38 -54.5q-57 -75 -140 -75q-27 0 -57 8q-51 14 -89 43.5t-66 72.5q-66 103 -70 228zM224 329q-1 -3 5 -7 q29 23 51 64q24 40 36 86q13 48 13 93q0 42 -14 70q-33 -29 -47 -72q-37 -111 -43 -227q0 -4 -1 -7z" />
<glyph unicode="f" horiz-adv-x="468" d="M2 410v49q0 86 5 169q7 107 34 216q16 63 36.5 123.5t51.5 119.5q20 39 47 73t62 61q51 37 106 37q20 0 41 -5q47 -12 70 -53q18 -31 22 -74q1 -19 1 -38q0 -70 -17 -142q-23 -115 -71 -217t-118 -194q-33 -45 -73 -78q-12 -10 -13 -25q0 -27 -1 -51.5t-1 -50.5 q0 -12 11 -23q12 -14 24 -28.5t25 -28.5q39 -43 94 -55q18 -4 34.5 2t30.5 14q66 35 107 102q20 39 37 80q8 20 20 41q6 12 21 4q4 -2 4 -6t-2 -8v-6q-23 -59 -53.5 -112.5t-81.5 -94.5q-52 -40 -111 -40q-20 0 -41 5q-12 4 -20 0q41 -100 61 -199q10 -47 18 -94 q7 -38 7 -77v-19q0 -35 -7 -68q-6 -55 -67 -59q-51 0 -96 33q-63 51 -103 133q-31 68 -48 138.5t-28 141.5q-10 76 -14 151t-4 153zM185 225.5q1 -6.5 1 -10.5q4 -41 6.5 -82t8.5 -82q8 -68 20 -134.5t35 -131.5q6 -23 16.5 -41.5t22.5 -38.5q8 10 11 20.5t7 20.5 q11 56 11 108v9q-4 92 -32 175t-65 163q-6 12 -17 19t-22 18q-4 -6 -3 -12.5zM189 494.5q-1 -9.5 1 -23.5q49 55 82 109q51 82 83 170t51 180q10 47 14 92q2 22 2 45t-2 47q-2 23 -6 45.5t-21 40.5q-10 16 -24 4q-16 -10 -35 -35q-16 -27 -29.5 -54.5t-21.5 -57.5 q-74 -268 -93 -543q0 -10 -1 -19.5z" />
<glyph unicode="g" horiz-adv-x="659" d="M1 264q1 37 9 76q10 51 26.5 100t45.5 95q74 116 203 116q16 0 34 -2q90 -6 115 -86q2 -4 2 -9t8 -5q2 10 4.5 20.5t6.5 20.5q8 29 41 31q7 1 13 1q28 0 52 -14q12 -8 15.5 -13t-1.5 -22q-4 -14 -2 -27.5t5 -27.5q2 -31 9 -60.5t11 -60.5q4 -14 5 -26.5t5 -26.5 q10 0 23 12q23 18 46 35t50 33q16 14 37 16q12 4 16 -4q4 -4 0 -7t-8 -5q-6 -6 -22 -14q-35 -23 -66 -47.5t-61 -51.5q-8 -6 -7.5 -12t0.5 -14q4 -29 7.5 -59.5t5.5 -59.5q2 -37 2 -74q0 -77 -9 -152q-12 -110 -53 -219q-35 -92 -114 -161q-33 -29 -70 -45.5t-80 -24.5 q-23 -4 -43 -4t-43 4q-115 18 -137 135q-5 23 -5 46q0 16 3 32q6 37 20 74q51 129 152 235q80 92 178 174q4 4 8 8.5t4 12.5q-2 47 -4 92t-2 92q-10 -4 -11 -11t-5 -11q-23 -53 -45.5 -107.5t-50.5 -107.5q-12 -25 -27.5 -46.5t-32.5 -44.5q-23 -32 -63 -32q-11 0 -23 2 q-131 25 -168 155q-9 35 -9 69v7zM119 -344q2 -35 15 -65.5t46 -51.5q31 -18 56 -4q53 29 83 70q37 49 58.5 103t38.5 112q16 53 20 107.5t8 107.5q2 29 1 58.5t-1 62.5q-4 -4 -6 -4t-4 -2q-37 -35 -72.5 -70t-70.5 -70q-31 -33 -58.5 -66.5t-50.5 -72.5q-31 -49 -49 -103 q-15 -43 -15 -91q0 -10 1 -21zM201 162q2 -23 4 -43t12 -43q31 18 53 49q39 53 68 121q25 53 46.5 107.5t41.5 109.5q6 10 4 20q-10 31 -24.5 57.5t-38.5 49.5q-16 16 -28.5 14t-29.5 -18q-51 -57 -78 -142q-23 -70 -29 -140q-3 -41 -3 -82q0 -30 2 -60z" />
<glyph unicode="h" horiz-adv-x="712" d="M4 532q-3 50 -3 100.5t3 100.5q6 98 22.5 193.5t53.5 187.5q29 72 78 143q29 43 75 80q27 23 59 30t62.5 2t58 -20.5t46.5 -37.5q47 -59 47 -140q0 -63 -12.5 -125.5t-30.5 -121.5q-31 -100 -79 -191.5t-114 -171.5q-35 -43 -80 -82q-14 -10 -12 -24q8 -53 17.5 -106.5 t19.5 -106.5q0 -3 6 -15q14 137 70 252q20 43 51 79t72 60q31 19 62 18l28 -3q84 -23 100 -111q5 -30 5 -60q0 -22 -3 -44q-6 -51 -16 -103q-12 -57 -23.5 -112.5t-21.5 -114.5q-8 -49 -8 -98.5t8 -98.5q4 -14 5 -27.5t3 -27.5q4 -23 27 -12q37 16 53 43q39 55 67 117 q45 117 74 239q12 49 20.5 97.5t14.5 97.5q2 8 3 16t11 8q10 -2 10.5 -10t0.5 -14q-4 -51 -9.5 -100.5t-15.5 -98.5q-16 -72 -36.5 -142.5t-51.5 -135.5q-16 -33 -34.5 -63t-43.5 -58q-38 -43 -91 -43q-11 0 -22 2q-63 8 -120 47q-33 23 -49.5 52.5t-22.5 66.5 q-5 26 -5 51.5t5 50.5q10 53 24.5 102.5t34.5 96.5q23 61 48.5 122.5t46.5 125.5q6 20 11 40.5t3 43.5q0 33 -21 33q-8 0 -20 -5q-84 -35 -127 -114q-66 -129 -84 -269l-6 -61q-4 -23 0 -42.5t12 -39.5q10 -29 -2 -51.5t-41 -30.5q-14 -3 -27 -3q-43 0 -77 30q-27 25 -39 59 q-41 123 -54 250q-10 98 -16 198zM163 727q-1 -24 -1 -48q0 -64 6 -130q2 -16 3 -31t3 -29q8 -2 10 0.5t6 6.5q29 25 56 59q51 66 88 138.5t65 150.5q27 78 41 156q11 61 12 124q0 18 -1 35q-4 57 -21 103q-12 27 -31 49q-16 16 -28.5 18t-32.5 -8q-23 -12 -37 -33 q-43 -57 -68 -127q-20 -63 -35.5 -125.5t-21.5 -128.5q-10 -92 -13 -180z" />
<glyph unicode="i" horiz-adv-x="303" d="M0 277.5q0 62.5 4 123.5q2 47 7 94.5t12 94.5q4 35 17 46t46 9q47 -4 78 -22q27 -18 20 -50q-16 -98 -18 -198q-4 -41 -4 -83t-4 -83q-1 -18 -1 -35q0 -36 3 -70q4 -52 18 -102q2 -4 3 -7t3 -7l4 -8q31 23 52.5 52t38.5 64q23 47 40 95.5t31 99.5q10 33 20.5 64.5 t20.5 64.5q4 10 10 20q3 8 17 4q8 -4 6 -12q0 -10 -4 -22q-23 -94 -53.5 -185.5t-73.5 -177.5q-23 -49 -51 -86q-21 -29 -54 -29q-9 0 -18 2q-63 12 -100 68q-23 35 -36.5 73t-21.5 79q-12 61 -12 123.5zM26 887q1 24 3 47q2 27 13 37t42 8q29 0 63 -21q23 -14 21 -40 q-4 -29 -8 -56.5t-8 -56.5q-2 -12 -9.5 -23.5t-13.5 -21.5q-8 -8 -14 -10q-16 -4 -40 4t-32 24q-6 14 -11 29.5t-5 32.5q-2 23 -1 47z" />
<glyph unicode="j" horiz-adv-x="315" d="M-122 -320v17q0 23 3 47q6 53 26.5 99t45.5 91q59 104 137 193q18 20 14 51q-10 66 -16 133.5t-10 134.5v20q0 61 10 128q4 16 6 22q13 41 49 41q9 0 19 -2q14 -2 28 -10q16 -10 21.5 -18.5t1.5 -26.5q-2 -23 -2 -48q0 -18 1 -36q3 -43 7 -84q4 -35 9 -70.5t12 -70.5 q10 2 14 6l8 8q29 25 55.5 47.5t55.5 44.5q8 8 16 13.5t19 11.5l12 6q10 4 16 -4q4 -6 -6 -12q-10 -10 -21.5 -19.5t-21.5 -19.5q-33 -23 -62.5 -47.5t-58.5 -49.5q-20 -20 -18 -53q10 -72 16 -145q4 -54 4 -109v-37q-2 -45 -7 -89t-19 -85q-29 -96 -99 -159 q-45 -41 -99 -47q-12 -2 -24 -2q-42 0 -83 18q-31 14 -43 49q-14 31 -16 63zM-78 -276v-10q0 -37 15 -74q14 -35 26 -38t41 17q37 23 56.5 57.5t31.5 73.5q27 86 28 172v16q0 78 -9 160q-6 -2 -8.5 -5t-6.5 -7q-27 -35 -50 -69.5t-46 -73.5q-18 -33 -34.5 -66t-26.5 -70 q-14 -41 -17 -83zM99 910.5q1 11.5 3 21.5q2 20 25 24q10 2 20 2q34 0 64 -22q14 -10 10 -33q-2 -16 -3 -34.5t-5 -34.5q0 -12 -8 -21q-16 -16 -12 -35q0 -8 -11 -8q-14 -4 -30.5 3.5t-24.5 19.5q-10 23 -21.5 44t-5.5 46q-2 16 -1 27.5z" />
<glyph unicode="k" horiz-adv-x="679" d="M1 494q-1 26 -1 52q0 35 2 70q4 115 19.5 226.5t52.5 222.5q35 106 102 192q43 51 96 82q42 23 81 23q46 0 91 -31q35 -23 46.5 -55.5t13.5 -69.5q1 -14 1 -28q-1 -60 -15 -118q-18 -70 -46 -138q-47 -106 -108.5 -202.5t-147.5 -178.5q-4 -4 -8 -9.5t-2 -15.5 q2 -47 6 -91t11 -91q0 -4 1 -6t3 -9q23 98 57 175q23 49 53.5 93t73.5 81q34 30 69 30q11 0 23 -4q47 -12 74 -47q31 -39 37 -82q2 -14 2 -29q0 -29 -8 -59q-18 -61 -57.5 -104t-102.5 -64q-2 0 -3 -1t-3 -1l-4 -4q47 -41 62 -95t28 -110q6 -35 14 -67.5t21 -65.5 q4 -10 8 -17t8 -16q15 -20 35 -20q13 0 28 8q25 14 41 45q12 23 21.5 45.5t19.5 44.5q18 59 33.5 120t26.5 122q4 25 8 48.5t6 47.5q2 14 12 31q2 6 11 6q2 0 6 -8q6 -27 2 -60q-8 -63 -21.5 -124.5t-31.5 -122.5q-10 -35 -21.5 -71t-28.5 -69q-8 -18 -17 -35.5t-24 -31.5 q-28 -26 -62 -26q-7 0 -13 1q-55 10 -95.5 40t-68.5 77q-29 43 -45.5 90t-26.5 98q-4 16 -7 34t-7 34q-8 33 -25.5 55.5t-52.5 30.5q-8 4 -14 6q-8 -20 -10.5 -40.5t-6.5 -41.5q-6 -28 -6 -54v-14q2 -32 10 -65q4 -10 5 -20.5t4 -20.5q4 -27 -10.5 -49.5t-49.5 -17.5 q-78 6 -106 81q-25 63 -37.5 130t-20.5 135q-8 61 -11 123zM176 573.5q0 -4.5 4 -8.5q6 0 8 4t7 9q27 29 51 59.5t45 64.5q33 53 60.5 107.5t49.5 114.5q52 134 52 271v5q-2 27 -7.5 49.5t-19.5 44.5q-12 20 -24.5 23.5t-34.5 -8.5q-16 -10 -29.5 -23.5t-26.5 -30.5 q-20 -29 -36.5 -59.5t-26.5 -65.5q-16 -47 -26.5 -93t-20.5 -93q-16 -92 -19.5 -181t-5.5 -181v-8.5zM252 378q4 -5 20 -9q9 0 13 -2q10 0 17 1t15 5q10 6 20.5 12t20.5 16q37 37 65 80t42 97q4 12 6 25t0 26q0 18 -5 21t-22 -3q-39 -14 -66.5 -38.5t-49.5 -59.5 q-23 -35 -40.5 -73t-33.5 -77q-6 -16 -2 -21z" />
<glyph unicode="l" horiz-adv-x="479" d="M2 492v43q0 74 5 147q7 94 28 186q16 82 42.5 158t67.5 148q35 59 93 106q45 37 104 43q7 1 14 1q39 0 74 -20q41 -22 62 -69q23 -54 23 -108q0 -55 -11 -113q-18 -86 -49 -174q-39 -98 -93.5 -183.5t-140.5 -150.5q-23 -16 -30 -35.5t-9 -46.5v-37q0 -60 4 -119 q6 -78 17 -155q6 -41 16 -83t27 -83q4 -10 9 -18.5t13 -18.5q12 -16 19.5 -17.5t25.5 9.5q33 18 62 49q47 55 71 112q33 74 61 149t48 153q4 14 6 28.5t6 28.5q0 6 2 10q6 23 21 17q14 -2 10 -23q-4 -18 -7 -36.5t-7 -35.5q-16 -78 -44 -149.5t-61 -143.5 q-14 -31 -29.5 -59.5t-33.5 -56.5q-10 -16 -21.5 -29.5t-21.5 -28.5q-18 -20 -41 -27t-49 -7q-45 2 -90 28q-53 35 -86 83t-54 108q-20 55 -31.5 111.5t-15.5 115.5q-4 47 -5 96.5t-1 96.5zM186 504q37 31 69 62.5t56 70.5q61 92 98 194.5t54 212.5q4 29 6 57.5t-4 57.5 q-4 23 -9 44.5t-22 41.5q-20 27 -29.5 28t-35.5 -20q-23 -16 -36.5 -38.5t-25.5 -47.5q-23 -45 -37 -92t-26 -94q-20 -82 -31.5 -164t-19.5 -166q-7 -71 -7 -147z" />
<glyph unicode="m" horiz-adv-x="884" d="M0 397q0 53 2 108.5t12 108.5q8 51 60 58q11 1 21 1q57 0 102 -28q36 -19 36 -54q0 -7 -2 -16q-4 -35 -9 -67.5t-9 -67.5q-4 -31 -6 -62.5t-6 -64.5v-15t2 -17q8 10 9 19t3 19q10 43 21.5 85t31.5 83q23 43 70 62q12 4 26 4q21 1 46 -9q41 -16 59 -38q14 -18 24.5 -36.5 t14.5 -41.5q4 -10 6 -18.5t6 -20.5q8 20 11.5 37.5t7.5 34.5q8 43 22 84t43 76q4 4 6 7t6 7q30 32 69 32h7q43 -3 74 -38q35 -37 45 -80q8 -36 8 -74v-16q-4 -59 -16 -115.5t-25 -112.5q-12 -55 -19 -111q-5 -44 -5 -89v-25q0 -35 16 -74q6 -12 18 -4q20 12 37 35 q10 16 19.5 32.5t15.5 35.5q33 86 60.5 170t46.5 172q4 14 8 39q2 8 8 9t12 -1q14 -4 11 -17q0 -6 -2 -8q-20 -59 -35 -118.5t-31 -118.5q-14 -45 -29.5 -90t-34.5 -88q-16 -41 -38 -66q-23 -26 -56 -26q-7 0 -14 1q-45 8 -71.5 36t-45.5 65q-16 35 -24.5 70.5t-10.5 72.5 q-1 21 -1 41q-1 64 9 126q12 81 37 161q10 29 20.5 58.5t14.5 60.5q0 4 1 5t1 3q0 8 1 16t-5 12q-8 4 -13 -1t-11 -9q-25 -16 -39.5 -40.5t-24.5 -51.5q-16 -39 -24.5 -79t-14.5 -81q-4 -39 -8 -75.5t-8 -75.5q-2 -29 2 -55.5t4 -55.5q-2 -6 -1 -12t-1 -12q0 -14 -10 -29 q-4 -4 -7.5 -6t-5.5 -6q-10 -12 -19 -20.5t-26 -8.5q-23 2 -40 6t-33 21q-10 12 -18.5 25t-18.5 26q-6 8 -8 16t-5 19q-4 61 -5 123v24q0 49 3 98q4 31 6.5 63t2.5 62q0 8 -1.5 15.5t-7.5 15.5q-20 -8 -36 -29q-35 -37 -52.5 -81t-29.5 -91q-10 -41 -14.5 -81t-6.5 -80 q-2 -27 -1 -52.5t-1 -52.5q0 -10 2 -14q6 -16 1 -27.5t-15 -21.5t-22.5 -13.5t-26.5 -3.5q-31 2 -55.5 16.5t-45.5 36.5q-4 6 -8 19q-29 94 -39 199q-4 41 -6 80.5t-4 80.5z" />
<glyph unicode="n" horiz-adv-x="737" d="M4 322q2 18 1 37.5t1 37.5q0 96 27 183q12 33 45 38q31 4 60.5 1t58.5 -19q23 -10 26 -21.5t0 -33.5q-10 -59 -19 -117.5t-20 -118.5q-6 -29 0 -55q2 8 6 29q14 61 35 120.5t49 116.5q16 35 39 64.5t52 52.5q51 41 96 44h9q42 0 93 -26q49 -27 53 -90q1 -16 1 -31 q0 -62 -19 -120q-18 -59 -35.5 -121t-27.5 -123q-13 -62 -19 -124q-4 -39 -4 -77q0 -24 2 -49q4 -37 12.5 -71.5t26.5 -67.5q20 -35 32.5 -35t41.5 23q23 18 39 40.5t32 49.5q20 35 36 73.5t28 79.5q18 63 30.5 126t22.5 128l19 129q0 10 2 15q4 10 12 8q12 0 10 -12 q0 -16 1 -31t-3 -31q-6 -61 -18 -123q-16 -82 -35 -163t-47 -158q-12 -37 -29.5 -72t-42.5 -66q-35 -47 -90 -53q-23 -2 -49 4q-78 18 -127 64.5t-76 118.5q-18 51 -24 101q-3 29 -3 59q0 22 2 44q6 104 34 201.5t69 192.5q10 27 18 53t15 55q2 14 0 39q-25 -8 -42.5 -21.5 t-33.5 -29.5q-33 -35 -56.5 -74t-41.5 -82q-33 -74 -50.5 -151.5t-21.5 -159.5q-4 -35 -7 -71q-2 -22 -2 -43q0 -14 1 -29q0 -16 -12.5 -29.5t-30.5 -18.5q-6 -1 -12 -1q-24 1 -52 13q-35 16 -49 40q-4 4 -4 10t-2 10q-36 120 -36 249q0 34 3 69z" />
<glyph unicode="o" horiz-adv-x="595" d="M4 276q4 53 13.5 104.5t29.5 102.5q14 39 43 78q26 37 62 49q25 9 55 9q12 0 24 -1q49 -6 82 -28q8 -6 17 -6q41 -4 64.5 -26.5t37.5 -59.5q16 -37 20.5 -77t6.5 -81v-12q-2 -25 3 -30t30 -2q78 6 143 60q10 10 21.5 20.5t21.5 20.5q12 10 33 6q12 -4 6 -16q-2 -2 -3 -4 t-3 -4q-47 -55 -105 -85q-43 -22 -96 -22q-18 0 -37 2q-12 2 -15 0t-5 -16q-6 -96 -41 -192q-10 -31 -25.5 -57.5t-42.5 -47.5q-38 -33 -87 -33q-12 0 -24 2q-55 6 -98 27q-45 23 -70.5 60.5t-41.5 84.5q-21 63 -21 132q0 21 2 42zM167 126v-7q0 -33 9 -64q4 -16 8 -30.5 t15 -26.5q23 -30 49 -30q17 0 35 12q23 16 36 38q18 27 31 62q18 47 27.5 96t17.5 100q2 14 -12 21q-25 10 -46.5 25.5t-37.5 33.5q-37 40 -51 97q-10 -10 -13.5 -19.5t-7.5 -19.5q-23 -53 -37 -106.5t-18 -110.5q-4 -35 -5 -71zM299 477v-8q1 -46 23 -80q24 -37 63 -65 q4 -6 16 -5q2 31 0 62q-4 37 -10 71.5t-26 65.5q-6 10 -13.5 19.5t-19.5 13.5q-20 -18 -26.5 -32.5t-6.5 -41.5z" />
<glyph unicode="p" horiz-adv-x="684" d="M2 -94q-2 69 -2 138q0 139 8 278q12 174 31 350q4 33 7 63.5t11 63.5q6 29 19.5 40t42.5 9q49 0 92 -25q25 -16 25 -38q0 -9 -5 -19q-12 -29 -15 -60.5t-7 -62.5q-6 -41 -9 -79t-5 -79q0 -6 4 -6t4 4t2 9q12 35 28.5 68.5t34.5 68.5q25 43 64 76q27 23 64 23q8 0 18 -1 q45 -8 77.5 -30.5t55.5 -65.5q18 -37 26.5 -77t14.5 -81q4 -23 4 -44t2 -44q16 4 29.5 8t29.5 8q31 6 63 11.5t66 7.5h14.5t10.5 -8q0 -8 -8 -9.5t-15 -3.5q-18 -4 -37.5 -7t-39.5 -7q-27 -6 -51.5 -15.5t-51.5 -17.5q-14 -4 -14 -20q-2 -25 -6 -48.5t-9 -45.5 q-4 -41 -17 -81t-30 -79q-35 -78 -104 -127q-41 -29 -83 -30h-4q-40 0 -83 22q-27 12 -40 40.5t-9 57.5q6 47 39 94q29 39 62.5 73t74.5 60q23 16 36 35t15 47q4 66 4 130.5t-12 129.5q-2 10 -6 21.5t-8 21.5q-6 16 -19 6q-18 -10 -39 -30q-47 -41 -74.5 -94.5t-48.5 -112.5 q-23 -72 -37 -145.5t-14 -151.5q-2 -104 -3 -209v-41q0 -84 3 -168q0 -20 2 -40.5t2 -41.5q2 -31 0 -59q-6 -35 -41 -35q-9 -1 -17 -1q-32 0 -50 14q-23 16 -35 46q-10 29 -15.5 57.5t-9.5 57.5q-8 51 -9 100.5t-3 100.5zM256 43q-6 -33 8 -59q14 -21 28 -21q12 0 25 14 q6 6 19 23q16 25 27.5 52.5t21.5 56.5q21 59 33 137q-76 -51 -125 -125q-12 -18 -22.5 -36.5t-14.5 -41.5z" />
<glyph unicode="q" horiz-adv-x="774" d="M2 172q-1 20 -1 40q0 134 58 255q39 82 103 131q35 29 74 35q19 3 38.5 3t40.5 -3q72 -12 117 -64q4 -4 8 -2q6 23 11.5 46.5t11.5 45.5q4 14 9 26.5t9 27.5q10 23 27.5 35t52.5 8q37 -4 68 -21q29 -18 26 -53q-4 -31 -11 -60.5t-13 -58.5q-18 -90 -34.5 -179t-27.5 -181 q-4 -41 -8 -83t-8 -83q-2 -18 1 -22.5t21 -10.5q25 -6 56 8q37 20 61.5 48t42.5 63q25 41 44.5 82t37.5 84q16 35 29.5 69.5t27.5 69.5l4.5 13.5t10.5 4.5q10 -4 7 -10t-5 -12q-14 -80 -44 -152.5t-65 -144.5q-16 -33 -35.5 -62.5t-48.5 -54.5q-44 -42 -93 -42q-13 0 -27 3 q-4 -4 2 -8q102 -119 125 -278q6 -47 7 -93v-7q0 -43 -12 -87q-4 -10 -6 -18t-6 -17q-23 -50 -76 -50q-6 0 -12 1q-74 8 -115 76q-31 51 -49 104.5t-28 108.5q-16 82 -20 163q-4 56 -4 113q0 25 1 50q2 51 4 101t6 101q2 8 -2 21q-6 -18 -13 -34.5t-13 -33.5 q-12 -35 -28.5 -67.5t-33.5 -67.5q-16 -35 -41 -63q-20 -25 -57 -29q-49 0 -90 17.5t-70 58.5q-41 63 -45 139zM166 129q0 -49 16 -88q10 6 18.5 13t14.5 14q37 43 64 90q41 72 73.5 147.5t65.5 151.5q7 16 7 32q0 28 -24 52q-12 12 -18 16q-21 16 -41 16q-22 0 -43 -18 q-39 -35 -59 -80q-23 -43 -35 -90t-23 -94q-10 -41 -15 -81q-3 -22 -3 -45q0 -18 2 -36zM545 -167q2 -44 4 -87q4 -55 12 -108.5t23 -106.5q4 -16 8 -30.5t14 -28.5q8 4 11.5 10t7.5 12q12 27 18 62q4 27 3 52t1 52q0 51 -12 100.5t-33 96.5q-10 23 -22.5 42t-28.5 42 q-4 -8 -4 -21q-3 -29 -3 -58q0 -14 1 -29z" />
<glyph unicode="r" horiz-adv-x="540" d="M0 655q-3 25 -3 51q0 71 21 142q12 45 37 78q14 20 27 30q20 18 47 23.5t51.5 -0.5t45 -22.5t30.5 -43.5q14 -33 16 -65q0 -8 1 -17q0 -24 -5 -49q-12 -66 -31.5 -127t-52.5 -120q-12 -23 -2 -46q33 -63 84 -94q10 -4 27 -16q47 -27 66.5 -67t23.5 -91q1 -13 1 -26 q0 -19 -2 -39q-3 -32 -7 -62q-4 -53 -6 -104q-1 -13 -1 -26q0 -39 5 -79v-12q4 -16 14 -6q37 23 55 53q27 39 41 78q33 74 65 146.5t54 150.5q8 23 13.5 46.5t15.5 45.5q4 6 5 11t5 10q6 10 14 8q6 -2 6.5 -6t0.5 -9q-6 -41 -19 -79q-27 -82 -56.5 -161t-62.5 -157 q-10 -23 -18 -44t-19 -44q-10 -20 -21 -38.5t-26 -37.5q-24 -32 -59 -32q-9 0 -19 2q-86 16 -124 88q-31 57 -35 135v55q0 37 2 75t6 77q2 17 2 33q0 24 -4 44q-6 31 -31 41q-23 10 -41 25.5t-41 28.5q-6 0 -6 6q0 8 -8 16q-45 47 -61.5 103.5t-20.5 117.5zM144 720v-15 q0 -58 10 -115q0 -8 6 -10q6 16 11 34.5t9 36.5q24 81 24 163q0 17 -1 34q-2 16 -5.5 32.5t-13.5 34.5q-14 -16 -18 -31.5t-8 -31.5q-12 -66 -14 -132z" />
<glyph unicode="s" horiz-adv-x="425" d="M6 -68q12 50 43 97q53 86 137 159q12 10 13.5 14.5t-4.5 18.5q-14 37 -33 72t-37 69q-20 37 -39.5 76t-30.5 80q-12 54 -14 104v12q0 44 12 91q14 45 41 72q30 32 67 32q15 0 32 -6q59 -16 67 -75q4 -31 -2 -56q-8 -51 -22.5 -97t-34.5 -93q-12 -27 2 -45 q16 -27 30.5 -51.5t30.5 -49.5q10 -14 18.5 -26.5t18.5 -26.5q6 -10 10 -12t15 8q18 14 37.5 27.5t39.5 27.5q23 16 47.5 30.5t53.5 25.5q16 8 22.5 8t22.5 -10q-20 -16 -41 -26.5t-41 -21.5q-37 -18 -68.5 -42.5t-62.5 -51.5q-8 -6 -2 -20q6 -10 12 -22.5t12 -24.5 q56 -117 56 -240q0 -104 -74 -188q-23 -29 -55.5 -45.5t-68.5 -22.5q-17 -3 -33 -3q-20 0 -40 4q-37 7 -67 26q-51 31 -68 94q-8 32 -8 60q0 26 6 48zM69 -156q5 -34 29 -65q12 -16 18.5 -16.5t22.5 10.5q23 14 38.5 33.5t27.5 41.5q27 57 32 117q2 19 2 37q0 41 -8 82 q-4 18 -6 36t-8 34q-4 0 -8 -4q-59 -59 -98 -132q-14 -23 -24.5 -48t-14.5 -54q-5 -23 -5 -45q0 -14 2 -27zM153 666q-1 -13 -1 -26q0 -22 3 -44q5 -34 19 -59q14 31 21 59q8 29 14 59.5t4 61.5q-2 16 -5 31.5t-13 29.5q-16 -16 -27.5 -46t-14.5 -66z" />
<glyph unicode="t" horiz-adv-x="333" d="M-344 971q-2 10 6 22q23 27 49 41q33 20 69 30.5t73 16.5q31 5 62 5q19 0 38 -2q49 -5 96 -15q16 -4 18.5 -2t4.5 16q6 39 11 77t11 77q4 35 20.5 47t51.5 6q51 -6 90 -37q18 -14 21.5 -25t-3.5 -34q-10 -41 -16 -84t-14 -84q-4 -14 8 -16q66 -23 132.5 -38.5 t137.5 -19.5q41 0 84 13q27 8 50.5 20t41.5 33q6 8 13.5 14t13.5 15q10 10 27 2q16 -12 8 -27q-8 -14 -16.5 -26.5t-24.5 -22.5q-57 -37 -117 -45q-34 -5 -70 -5q-27 0 -55 3q-53 6 -103 17t-98 30q-10 4 -18 6t-20 6q-4 -43 -7.5 -84t-7.5 -82q-4 -76 -9 -151.5t-9 -151.5 q-4 -88 -5 -175v-35q0 -70 3 -140q2 -35 6 -66.5t10 -64.5q0 -4 1 -6t1 -6q10 -39 43 -13q18 16 33.5 37t30.5 43q20 35 33.5 73t25.5 77q10 39 22.5 77.5t22.5 77.5l6 19q6 10 15 8q10 -2 10 -12q-2 -6 -2 -21q-10 -59 -28.5 -117.5t-39.5 -115.5q-12 -35 -26.5 -67 t-30.5 -62q-4 -10 -10.5 -18.5t-10.5 -16.5q-27 -41 -70 -41q-13 0 -28 4q-76 14 -117 84q-20 35 -30.5 70.5t-16.5 74.5q-8 47 -12 94.5t-4 94.5v190q0 92 5 184.5t13 184.5q4 23 5 46t3 46q2 14 -12 16q-48 10 -95 10q-30 0 -58 -4q-74 -10 -144 -53q-12 -6 -21 -15 l-20 -20q-12 -14 -31.5 -9t-25.5 22z" />
<glyph unicode="u" horiz-adv-x="696" d="M2 203q-2 38 -2 75.5t2 75.5q4 74 21 148q4 18 8 35.5t8 35.5q10 47 61 48q37 0 68 -19q34 -17 34 -54q0 -7 -1 -16q-4 -35 -10.5 -71.5t-10.5 -71.5q-10 -66 -15 -128t-5 -128q0 -47 12 -92q0 -8 6 -10q23 23 39 55q27 49 49 109q63 156 103 311q4 20 4 40.5t2 43.5 q0 10 1 20.5t1 20.5q0 29 26 35q23 8 45.5 6t45.5 -6q35 -10 63 -27q27 -20 25 -49q-4 -29 -6.5 -57.5t-6.5 -57.5l-6 -98q-4 -55 -8.5 -109.5t-7.5 -109.5q-4 -59 -6 -120q-1 -14 -1 -30q0 -46 5 -92q2 -27 4 -53.5t5 -52.5q2 -8 4.5 -15.5t6.5 -17.5q16 12 27.5 28.5 t19.5 32.5q31 59 50.5 120.5t42.5 123.5q20 59 33.5 120.5t27.5 123.5q4 18 10 35.5t10 35.5q0 2 1 3t1 6q6 10 21 8q12 -4 8 -17q-4 -18 -5 -35.5t-5 -35.5q-18 -66 -31.5 -131.5t-34.5 -131.5q-23 -72 -45 -141t-57 -135q-6 -10 -12 -20.5t-15 -20.5q-18 -18 -53 -18 q-59 6 -102 51q-16 16 -27.5 36.5t-21.5 43.5q-18 45 -27.5 92t-13.5 94q-5 55 -7 111q-1 24 -1 47q0 32 1 63v78q-2 2 -4 2l-6 -18q-18 -55 -35.5 -111.5t-35.5 -114.5q-8 -27 -19.5 -52t-23.5 -50q-16 -29 -35 -38t-49 1q-45 12 -74 40t-45 69q-29 66 -31 131z" />
<glyph unicode="v" horiz-adv-x="573" d="M2 557v21q-2 31 29 40q23 8 46 8.5t46 -3.5q29 -6 53 -19q31 -18 31 -51q0 -66 5 -130.5t13 -129.5q6 -41 13.5 -83t11.5 -85q4 -29 13.5 -56.5t23.5 -56.5q14 12 22 31q29 55 47 109q16 53 33 108t27 111q6 18 -8 26q-47 29 -74 71t-37 95q-7 38 -7 76q0 15 1 31 q4 54 26 106q4 12 11.5 24.5t15.5 24.5q25 39 69 39h9q29 -4 48 -15t30 -40q16 -45 16 -88q-4 -74 -8 -147.5t-16 -147.5q-2 -4 -3 -12q-4 -10 11 -19q34 -10 70 -13q7 -1 15 0q28 0 56 9q25 10 43 2q10 -6 10 -10q2 -4 -8 -14q-16 -8 -27 -11q-36 -9 -75 -9q-29 0 -60 5 q-16 4 -41 8q-6 -10 -7 -22t-3 -23q-10 -53 -23.5 -106t-29.5 -107q-23 -70 -62 -127q-18 -27 -57 -30h-6q-71 0 -127 47q-35 31 -58.5 69.5t-39.5 81.5q-20 53 -31.5 106.5t-20.5 108.5q-8 49 -11 98.5t-5 98.5zM379 537q4 -27 15 -51.5t34 -47.5q4 16 4 19q18 94 25 192 q4 33 4 63.5t-6 61.5t-25 51q-20 -16 -27 -41q-33 -82 -33 -162q0 -43 9 -85z" />
<glyph unicode="w" horiz-adv-x="911" d="M6 207q-5 45 -5 89t5 87q10 86 37 172q2 6 4 11t6 12q12 33 36 45t54 10q53 0 93 -23q18 -12 22 -22t-4 -31q-41 -137 -57 -289q-7 -45 -9 -88q-1 -17 0 -33q0 -27 2 -55q2 -16 6.5 -32.5t10.5 -36.5q16 20 27.5 39.5t21.5 41.5q31 68 49.5 139.5t32.5 145.5q6 27 6 52.5 t2 54.5q2 33 12 67q6 27 33 33q16 4 33 4q38 0 74 -20q23 -12 22 -39q0 -33 1 -65v-21q0 -21 -1 -43v-104.5t4 -104.5q4 -59 13.5 -117.5t29.5 -116.5q4 -10 8.5 -21t14.5 -22q12 -12 24 -4q20 14 35 35q14 20 25.5 41.5t21.5 44.5q29 63 45.5 129t30.5 133q4 16 1 19.5 t-17 7.5q-72 25 -123 82q-50 61 -50 141q0 9 1 18q6 80 39 146q8 18 24 37q25 32 55 32h1q29 0 63 -16q25 -14 43 -43q20 -31 28.5 -64.5t16.5 -68.5q5 -32 5 -63v-11q-1 -37 -3 -76q0 -23 -1 -46t-3 -50q23 0 40 7.5t34 17.5q20 14 39 33q18 14 36 10q20 -8 7 -23 q-27 -27 -56.5 -47t-68.5 -26q-27 -4 -32 -9.5t-7 -31.5q-10 -66 -23.5 -128.5t-38.5 -123.5q-10 -25 -22 -49.5t-29 -47.5q-43 -66 -115 -66q-24 0 -51 7q-92 25 -137 104q-25 41 -38 84t-23 89q-4 20 -6.5 39.5t-6.5 41.5q-4 -4 -5 -9t-3 -9q-14 -43 -26.5 -87t-30.5 -87 q-4 -10 -9.5 -19.5t-9.5 -19.5q-14 -23 -34.5 -31t-45.5 -4q-43 4 -74.5 26.5t-54.5 57.5t-36 75t-19 83zM672 471q10 -35 33.5 -60.5t56.5 -41.5q12 -6 15 -5t5 15q4 33 6.5 67.5t4.5 83.5q-2 35 -9.5 82t-29.5 95q-6 10 -13.5 24t-19.5 14t-20.5 -13t-14.5 -25 q-32 -64 -33 -132q1 -51 19 -104z" />
<glyph unicode="x" horiz-adv-x="638" d="M-39 -74q0 4 8 4q20 -4 33.5 7.5t28.5 21.5q35 27 59 61q23 33 42.5 65t39.5 67q10 16 0 32q-31 49 -56.5 101.5t-47.5 107.5q-27 70 -41 133q-4 20 -4 34q0 18 7 28q13 18 56 24q10 1 21 1q45 0 90 -21q20 -10 29.5 -26.5t15.5 -37.5q8 -31 14 -60.5t14 -59.5 q4 -10 5 -19.5t10 -19.5q10 20 19 37.5t20 35.5q29 53 65.5 102.5t83.5 90.5q31 27 59 43q15 6 30 6q23 0 46 -14q16 -16 -4 -23q-41 -16 -71.5 -42.5t-59.5 -61.5q-29 -37 -55 -84q-25 -45 -47.5 -90t-44.5 -93q-4 -10 -4 -16t4 -16q29 -63 65.5 -119.5t81.5 -110.5 q12 -12 16.5 -12t18.5 10q31 20 61 54q70 82 111 176q10 27 21.5 52t23.5 52q4 8 7 15.5t7 15.5q4 4 6.5 10t10.5 2t6 -10t-4 -10q-10 -33 -21.5 -63t-25.5 -60q-10 -23 -21.5 -46.5t-21.5 -45.5q-10 -25 -23.5 -47.5t-28.5 -45.5q-16 -27 -36.5 -51t-47.5 -43 q-34 -24 -72 -24q-20 0 -40 6q-61 20 -111 63q-20 20 -40 39.5t-38 44.5q-18 -29 -35.5 -54.5t-37.5 -49.5q-12 -16 -26.5 -30.5l-31.5 -31.5q-16 -12 -26 -16q-20 -8 -40 -9t-42 -1q-16 -4 -29 10q-6 6 -2 12z" />
<glyph unicode="y" horiz-adv-x="651" d="M8 186q-7 58 -7 117q0 97 19 193q4 23 8.5 42t10.5 40q8 33 43 38q13 1 25 1q21 0 39 -4q30 -7 59 -23q23 -14 23 -43q0 -7 -1 -15q-4 -35 -10 -66.5t-10 -64.5q-10 -66 -19 -132q-7 -46 -7 -94q0 -20 1 -40q2 -29 4 -57.5t7 -59.5q14 8 20 18.5t12 22.5 q29 51 51.5 104.5t42.5 108.5q12 37 26.5 75t33.5 73q14 29 18 59.5t11 61.5q2 20 12 39q12 37 47 38q7 1 13 1q40 0 73 -21q20 -12 14 -35q-14 -47 -14 -95v-12q2 -55 12 -108q2 -12 2 -23.5t4 -23.5q29 20 54.5 38.5t54.5 37.5q14 10 27.5 18t29.5 17q16 6 29 2 q10 -4 4 -11q-6 -6 -13 -11t-14 -9q-39 -29 -77.5 -56.5t-73.5 -58.5q-14 -14 -12 -39q10 -66 19 -133t13 -133q3 -47 3 -93v-22q-1 -57 -17 -112q-25 -82 -76 -135.5t-137 -71.5q-19 -4 -38 -4q-41 0 -83 18q-47 20 -61 74q-10 29 -10 57q0 13 2 25q6 41 16 82 q18 72 51 129q16 31 32.5 62.5t37.5 62.5q16 23 35.5 44t35.5 44q4 4 7.5 10t3.5 14q-4 53 -7.5 104.5t-7.5 104.5q-2 0 -3 1t-3 1q-10 -27 -18 -52t-17 -52q-14 -47 -30.5 -92t-34.5 -92q-12 -31 -29 -64q-20 -39 -42.5 -47t-57.5 0q-53 14 -92 59q-29 37 -44.5 80 t-19.5 88zM256 -283q-2 -31 4 -59.5t25 -54.5q10 -16 17 -15.5t22 13.5q18 18 30.5 40.5t22.5 45.5q23 51 32 104t11 109q0 35 -1 71.5t-1 71.5v7t-4 7q-4 -2 -6 -5t-7 -7q-39 -53 -68.5 -109.5t-51.5 -115.5q-8 -25 -14.5 -50.5t-10.5 -52.5z" />
<glyph unicode="z" horiz-adv-x="626" d="M16 666q4 16 14.5 31.5t20.5 27.5q23 23 51 20q49 -6 76 -43q14 -16 12.5 -35.5t-4.5 -37.5q-4 -31 -12 -60.5t-18 -58.5l-9 -25q16 6 26.5 13.5t21.5 15.5q29 23 54 43.5t52 42.5q27 20 61 37q26 12 50 12q45 0 88 -39q29 -26 37 -58q4 -16 4 -33t-4 -36 q-8 -37 -29 -64.5t-45 -53.5q-14 -18 -45 -41q18 -8 33.5 -16.5t29.5 -18.5q6 -4 19 4q23 12 43 24.5t41 24.5q31 16 61.5 33.5t59.5 34.5q8 4 16 6t18 -2q18 -12 0 -23q-10 -8 -22 -14t-25 -12q-47 -23 -90 -47.5t-86 -53.5l-6 -6q18 -29 29.5 -59.5t13.5 -65.5 q1 -16 1 -32q0 -96 -42 -183q-23 -47 -53.5 -87t-73.5 -69q-41 -29 -84 -46q-38 -15 -83 -15h-11q-80 6 -141 55q-40 33 -46 80q-1 9 -1 17q0 39 24 79q37 66 96 115q23 18 44.5 35.5t45.5 34.5q51 31 99.5 63.5t97.5 65.5l4 2q4 4 11.5 7t4.5 11q-2 16 -24 21q-18 3 -35 3 t-33 -3q-10 -4 -20 -5t-21 -6q-23 -6 -39 11q-23 25 -26.5 32t18.5 37q14 20 28.5 39t31.5 37q59 70 84 150q-4 4 -9.5 3t-9.5 -3q-49 -12 -82 -50q-20 -18 -39.5 -37.5t-36.5 -41.5q-6 -6 -12 -13.5t-12 -13.5q-36 -36 -72 -36q-5 0 -11 1q-42 6 -77 41q-10 10 -17 22.5 t-14 24.5q-17 47 -17 96q0 45 15 91zM92 -162.5q2 -17.5 12 -34.5q12 -14 29 -12q90 20 156 90q47 47 79.5 101.5t61.5 111.5q12 23 18.5 46.5t10.5 47.5q2 8 2 16.5t-4 16.5q-10 -2 -15.5 -6t-11.5 -8q-31 -20 -60.5 -42t-60.5 -40q-47 -29 -86 -62.5t-69 -76.5 q-20 -27 -36 -53.5t-24 -59.5q-4 -18 -2 -35.5zM104 586q-2 -14 -2 -28q0 -24 7 -50q12 38 20 74q4 16 4 33q0 21 -6 44q-17 -37 -23 -73z" />
<glyph unicode="&#xad;" d="M143 295q-14 41 29 49l31 6h47q45 -2 89 -5t89 -13q31 -4 62.5 -8.5t64.5 -8.5q23 -4 41 -12t33 -27q4 -4 5 -8t5 -8q8 -14 -2 -22q-6 -8 -21 0q-10 4 -22 4h-23q-74 -2 -146.5 -9.5t-143.5 -27.5q-43 -12 -80 16q-18 16 -32.5 33.5t-25.5 40.5z" />
<glyph unicode="&#x2000;" horiz-adv-x="730" />
<glyph unicode="&#x2001;" horiz-adv-x="1461" />
<glyph unicode="&#x2002;" horiz-adv-x="730" />
<glyph unicode="&#x2003;" horiz-adv-x="1461" />
<glyph unicode="&#x2004;" horiz-adv-x="487" />
<glyph unicode="&#x2005;" horiz-adv-x="365" />
<glyph unicode="&#x2006;" horiz-adv-x="243" />
<glyph unicode="&#x2007;" horiz-adv-x="243" />
<glyph unicode="&#x2008;" horiz-adv-x="182" />
<glyph unicode="&#x2009;" horiz-adv-x="292" />
<glyph unicode="&#x200a;" horiz-adv-x="81" />
<glyph unicode="&#x2010;" d="M143 295q-14 41 29 49l31 6h47q45 -2 89 -5t89 -13q31 -4 62.5 -8.5t64.5 -8.5q23 -4 41 -12t33 -27q4 -4 5 -8t5 -8q8 -14 -2 -22q-6 -8 -21 0q-10 4 -22 4h-23q-74 -2 -146.5 -9.5t-143.5 -27.5q-43 -12 -80 16q-18 16 -32.5 33.5t-25.5 40.5z" />
<glyph unicode="&#x2011;" d="M143 295q-14 41 29 49l31 6h47q45 -2 89 -5t89 -13q31 -4 62.5 -8.5t64.5 -8.5q23 -4 41 -12t33 -27q4 -4 5 -8t5 -8q8 -14 -2 -22q-6 -8 -21 0q-10 4 -22 4h-23q-74 -2 -146.5 -9.5t-143.5 -27.5q-43 -12 -80 16q-18 16 -32.5 33.5t-25.5 40.5z" />
<glyph unicode="&#x2012;" d="M143 295q-14 41 29 49l31 6h47q45 -2 89 -5t89 -13q31 -4 62.5 -8.5t64.5 -8.5q23 -4 41 -12t33 -27q4 -4 5 -8t5 -8q8 -14 -2 -22q-6 -8 -21 0q-10 4 -22 4h-23q-74 -2 -146.5 -9.5t-143.5 -27.5q-43 -12 -80 16q-18 16 -32.5 33.5t-25.5 40.5z" />
<glyph unicode="&#x2013;" horiz-adv-x="1229" d="M146 295q-29 41 59 49l63 6h96q91 -2 181 -5t181 -13q63 -4 127.5 -8.5t131.5 -8.5q47 -4 83.5 -12t66.5 -27q9 -4 11 -8t10 -8q16 -14 -4 -22q-13 -8 -43 0q-20 4 -44.5 4h-47.5q-150 -2 -298 -9.5t-292 -27.5q-88 -12 -163 16q-37 16 -66.5 33.5t-51.5 40.5z" />
<glyph unicode="&#x2014;" horiz-adv-x="2253" d="M153 295q-57 41 118 49l126 6h192q183 -2 362 -5t362 -13q127 -4 255 -8.5t263 -8.5q93 -4 166.5 -12t134.5 -27q16 -4 20 -8t21 -8q32 -14 -9 -22q-24 -8 -85 0q-41 4 -90 4h-93q-302 -2 -597 -9.5t-584 -27.5q-175 -12 -326 16q-73 16 -132 33.5t-104 40.5z" />
<glyph unicode="&#x202f;" horiz-adv-x="292" />
<glyph unicode="&#x205f;" horiz-adv-x="365" />
<glyph unicode="&#x25fc;" horiz-adv-x="686" d="M0 0v686h686v-686h-686z" />
</font>
</defs>
</svg>
