<?xml version="1.0" standalone="no"?>
<!DOCTYPE svg PUBLIC "-//W3C//DTD SVG 1.1//EN" "http://www.w3.org/Graphics/SVG/1.1/DTD/svg11.dtd" >
<svg xmlns="http://www.w3.org/2000/svg" xmlns:xlink="http://www.w3.org/1999/xlink" version="1.1">
<metadata></metadata>
<defs>
<font id="penchill_gageregular" horiz-adv-x="1198" >
<font-face units-per-em="2048" ascent="1638" descent="-410" />
<missing-glyph horiz-adv-x="348" />
<glyph horiz-adv-x="0" />
<glyph horiz-adv-x="0" />
<glyph unicode="&#xd;" horiz-adv-x="0" />
<glyph unicode="&#xa;" horiz-adv-x="0" />
<glyph unicode=" "  horiz-adv-x="348" />
<glyph unicode="&#x09;" horiz-adv-x="348" />
<glyph unicode="&#xa0;" horiz-adv-x="348" />
<glyph unicode="!" horiz-adv-x="356" d="M125 721q10 115 41.5 338t56.5 254q6 6 14 2t5 -12q-14 -28 -17 -37q-22 -89 -69 -437q-25 -240 -11 -356q7 -51 37 -137q2 -7 -1 -12t-7.5 -4.5t-7.5 4.5q-2 3 -16 45q-41 124 -25 352zM139.5 109q8.5 32 40.5 38q8 2 10.5 -7t-4.5 -13q-2 0 -10.5 -3.5t-9.5 -4.5 q-2 -1 -8 -19q-1 -25 8 -37t24 -12q19 0 30.5 17.5t4.5 46.5q-2 6 -7.5 13t-10 10.5t-12.5 10.5t-11 9q-6 6 -1.5 13.5t12.5 4.5q9 -4 25 -20t20 -25q18 -35 -0.5 -68.5t-49.5 -33.5q-22 0 -38 22q-21 26 -12.5 58z" />
<glyph unicode="&#x22;" horiz-adv-x="452" d="M59 1255q2 8 8.5 20t12.5 13q7 3 12 -2.5t0 -11.5q-10 -15 -12 -23q-3 -21 3.5 -75t14.5 -76q6 -11 23 -33q6 -7 -0.5 -13.5t-14.5 -0.5q-25 20 -36 71q-4 21 -8 68t-3 63zM341.5 1167.5q3.5 52.5 12.5 87.5q6 25 27 50q4 5 9 4t7 -6t0 -11q-3 -5 -10 -14t-10 -14 q-11 -27 -14 -86t6 -86q3 -9 -5 -13t-14 4q-12 32 -8.5 84.5z" />
<glyph unicode="#" horiz-adv-x="1005" d="M76 548.5q2 6.5 8 8.5q220 28 244 33q5 39 14 114.5t14 110.5q-88 -12 -178 -12q-39 0 -49 10q-10 13 14 27q8 5 13.5 -2.5t-0.5 -14.5q20 -1 98 4t106 9q2 12 7 53t7 57.5t7 52.5t9 57.5t10 52t13 56.5t15 52q18 46 27 51q11 8 13 -6q0 -6 -3 -13q-32 -62 -51 -184 q-11 -59 -33 -227q17 2 77.5 7.5t78 7t78.5 6t78.5 3.5t78.5 0q35 159 62 314q1 7 6 8.5t9.5 -1.5t4.5 -9q-2 -19 -14.5 -85t-27.5 -141.5t-17 -85.5q31 -2 98 -10q8 -1 10 -6.5t-2 -10.5t-12 -4q-91 11 -98 11q-37 -161 -46 -207q54 4 162 0q12 0 12 -10.5t-12 -10.5 q-83 3 -168 0q-5 -28 -48 -214t-48 -210q-10 -42 -10 -73q0 -9 -9 -10.5t-12 6.5v22q1 14 10.5 59t21.5 95t13 57q11 49 32 138.5t30 127.5q-105 -7 -373 -41q-37 -311 -43 -634q-2 -13 -13 -13q-8 1 -7 10q6 324 43 633q-15 -2 -116.5 -15.5t-111.5 -14.5q-9 -3 -18 0 q-6 5 -4 11.5zM350 592q259 34 373 41q26 112 45 209q-58 2 -120 -1.5t-149.5 -12t-121.5 -11.5q-4 -39 -13.5 -114.5t-13.5 -110.5z" />
<glyph unicode="$" horiz-adv-x="1169" d="M74 297q-3 9 5 13.5t13 -3.5t10.5 -14.5t15 -14.5t12.5 -11t18 -13l14 -10q147 -110 416 -125q1 89 5 267t5 267q-14 8 -64.5 35.5t-77.5 44.5q-130 74 -186 135q-48 48 -51 109q0 50 28.5 93.5t69.5 72t97.5 53t101 38t92.5 23.5q0 68 -12 99q-5 12 5 17q7 4 11 -5 q6 -11 9.5 -25.5t4.5 -25t1.5 -29.5t0.5 -26q66 12 105 12q129 0 250 -121q5 -5 3.5 -10.5t-6 -7t-9.5 1.5q-2 2 -15.5 16t-15.5 16q-88 82 -207 82q-50 0 -105 -10q-1 -36 -5 -288t-5 -287q169 -93 297 -177q30 -19 52 -35.5t50 -40.5t47 -51t27 -55q14 -45 -3.5 -81.5 t-57.5 -60t-86 -38.5t-98 -21q-115 -14 -238 -8q-4 -62 -2 -140.5t18 -135.5q3 -9 -5 -13.5t-13 3.5q-27 47 -18 286q-174 11 -273 47q-55 19 -133.5 66.5t-97.5 85.5zM231 993q-6 -32 11 -63q20 -44 73 -86q20 -16 44.5 -33t41.5 -28.5t49 -30t44 -24.5t50.5 -27t45.5 -25 q0 281 8 561q-55 -11 -107.5 -28.5t-113 -46t-100.5 -72.5t-46 -97zM598 119q193 -11 324 26q50 11 96 42.5t49 74.5q3 41 -31 88q-32 43 -102 94q-101 74 -326 197q-1 -87 -5 -261t-5 -261z" />
<glyph unicode="%" horiz-adv-x="1087" d="M90 967q-12 98 39 192q3 6 16 22.5t19 20.5q2 2 5 2.5t5.5 -1t4.5 -4t1.5 -5.5t-2.5 -6q-25 -31 -28 -35q-52 -80 -39 -180q2 -19 12.5 -33t26.5 -14q27 1 63.5 34t52.5 62q16 23 13 41q-5 34 -91 70q-12 5 -8 16q4 7 13 4q51 -21 81 -45q28 -24 25 -53 q-1 -42 -53.5 -94.5t-95.5 -55.5q-22 0 -39.5 19t-20.5 43zM190 147q-19 33 33 152l4 8q89 208 248 471q75 125 116.5 190t116.5 161t150 163q9 8 16 0.5t-2 -16.5q-66 -58 -128.5 -132t-123 -167.5t-98.5 -157.5t-98 -170q-149 -256 -201 -409q-5 -10 -12 -37t-6 -37 q2 -11 28 2q25 15 94.5 82t144 142.5t89.5 88.5q169 162 283 242q20 12 33 10q9 -2 14 -24q0 -39 -19 -125q37 -35 81 -119t53 -135q3 -14 -0.5 -26t-14.5 -13q-16 -4 -47 18q-51 38 -76 86q-32 64 -16 180q-14 13 -44 32.5t-42 29.5q-114 -92 -225 -203q-5 -5 -43 -43.5 t-70 -71t-73 -72t-73 -66.5t-49 -36q-32 -18 -43 2zM782 651q58 -37 72 -51q14 86 14 113q-6 -3 -24 -15.5t-38.5 -28.5t-23.5 -18zM870 557q-8 -72 4 -115q8 -37 43.5 -80.5t69.5 -52.5q-1 41 -43.5 127t-73.5 121z" />
<glyph unicode="&#x26;" horiz-adv-x="1351" d="M74 162q14 75 63 155q70 111 221 281q-39 103 -36 193q0 112 45 208q44 99 133.5 195t183.5 133q20 10 53 10q34 -2 52.5 -27.5t18.5 -59.5t-9 -70q-23 -84 -92 -185q-45 -67 -105.5 -143t-102 -124t-118.5 -134q96 -227 324 -332q211 180 393 467q1 1 7 11.5t9 11.5 q6 3 10 -3t2 -12t-17.5 -30t-16.5 -27q-162 -251 -365 -428q116 -49 229 -74q22 -5 104 -23t126 -30q8 -2 30 -9.5t35 -9.5q12 -4 39 -4q10 -3 8.5 -12.5t-12.5 -7.5q-31 0 -78 14q-55 19 -207 49q-167 38 -292 93q-278 -232 -480 -232q-103 0 -139 57q-26 42 -16 99z M96.5 166q-10.5 -46 5.5 -81.5t60 -49.5q38 -10 71 -10q190 0 455 223q-235 114 -321 327q-126 -142 -185 -227q-31 -44 -53 -90t-32.5 -92zM345.5 854.5q-15.5 -121.5 27.5 -240.5q137 155 225 267q184 230 190 358q0 59 -32 72q-12 6 -27 6q-63 0 -152.5 -81t-144.5 -157 q-71 -103 -86.5 -224.5z" />
<glyph unicode="'" horiz-adv-x="163" d="M66.5 1191q2.5 91 13.5 118q1 3 3.5 5t5 1.5t5 -2t4 -4.5t0.5 -6q-1 -9 -5 -29t-5 -29q-9 -168 10 -201q4 -6 2 -11.5t-7 -6t-9 3.5q-12 14 -16 43q-4 27 -1.5 118z" />
<glyph unicode="(" horiz-adv-x="489" d="M119 571q24 301 211 635q41 72 51 80q6 6 16 6q20 0 28 -13q5 -8 -7 -13q-3 -1 -11 2.5t-12 1.5q-4 0 -8 -8q-3 -4 -11.5 -18.5t-18 -31.5t-11.5 -20q-154 -273 -199 -553q-32 -203 19 -442q49 -211 121 -336q38 -68 106.5 -127t136.5 -72q9 -2 8 -11t-10 -9 q-19 0 -63 22q-73 34 -133 101.5t-96 148.5q-144 328 -117 657z" />
<glyph unicode=")" horiz-adv-x="518" d="M-185 -213.5q2 5.5 9 6.5q133 20 199 53q108 52 186 155.5t123 231.5q93 265 22 607q-40 182 -143 321q-133 172 -176 203q-14 10 -6 19q4 6 12 1q5 -3 18 -15.5t30 -30.5l17 -17q129 -143 189.5 -256.5t91.5 -288.5q57 -321 -53 -594q-61 -148 -160 -250 q-79 -79 -153.5 -111t-194.5 -48q-7 -1 -10 3.5t-1 10z" />
<glyph unicode="*" horiz-adv-x="724" d="M80 1020q4 4 14 4q16 0 66 -25q64 -27 172 -88q2 -2 11 5t9 10q2 87 23 295v12q0 8 7.5 9.5t10.5 -5.5q2 -4 2 -13t-1 -20t-1 -14q-17 -143 -20 -248q126 103 205 178q17 18 34 23q9 3 13 -5.5t-4 -13.5q-25 -15 -29 -20q-71 -67 -219 -189q-1 -1 -1 -13.5t1 -12.5 q233 -137 272 -158q12 -7 5 -16q-5 -7 -13 -2q-33 18 -266 153q-4 -147 0 -221q0 -2 1 -8t0.5 -9.5t-3.5 -6.5q-3 -4 -9 -3.5t-8 5.5q-4 12 -4 39q0 142 2 212q0 3 -6 8t-8 3q-3 -2 -25 -21t-39 -33t-44 -35t-46.5 -36t-39 -27.5t-29.5 -15.5q-8 -2 -13 3.5t-4 12.5 q2 9 10.5 13.5t14.5 -1.5q57 35 196 152q-145 81 -215 102q-4 1 -1 -3q4 -7 5 -9q3 -8 -5.5 -11.5t-12.5 3.5q-16 33 -8 41z" />
<glyph unicode="+" horiz-adv-x="833" d="M56.5 421q-0.5 9 9.5 11q81 8 313 39v40v58t-0.5 62t-3 68.5t-6 60.5t-9.5 54.5t-14 35.5q-1 1 -2.5 4t-3 5.5t-3.5 5t-4.5 3.5t-4.5 0q-14 -4 -16 7t10 14q4 1 8 0q16 -2 27.5 -15.5t18 -38t9.5 -39t6 -40.5q12 -94 8 -283q229 27 367 31q8 0 11.5 -5t1 -10.5 t-10.5 -5.5q-153 -5 -369 -30q0 -5 -2.5 -106t-6 -181.5t-7.5 -104.5q-1 -9 -11 -9t-12 9v23q0 1 2.5 3.5t2.5 4.5q6 119 14 357q-42 -5 -126 -15.5t-126 -15.5q-2 0 -5.5 -2.5t-4.5 -3.5h-49q-11 0 -11.5 9z" />
<glyph unicode="," horiz-adv-x="151" d="M35 39q-7 13 1.5 23t22.5 10q21 0 38 -18.5t22 -39.5q13 -58 -17 -112q-8 -15 -23.5 -39t-21.5 -35q-5 -7 -11 -7t-8 5t1 12q2 4 15.5 25.5t25 41.5t14.5 27q22 71 -10 105l-1 -1q-1 -9 -3 -11q-8 -12 -22.5 -6.5t-22.5 20.5zM51 51q0 -2 12 -14v6q0 2 -3 5t-3 5z" />
<glyph unicode="-" horiz-adv-x="704" d="M21 437.5q-2 5.5 2.5 10t13.5 3.5q50 -9 98 -9q33 0 268.5 1t268.5 1q12 0 12 -10t-12 -10q-14 0 -122.5 -1t-201 -1.5t-189.5 1.5t-128 7q-8 2 -10 7.5z" />
<glyph unicode="." horiz-adv-x="112" d="M33 39q-4 7 0.5 13.5t13.5 4.5q2 0 10 4q5 2 9.5 -2t3.5 -10q17 -14 12 -30.5t-27 -22.5q-14 -4 -20.5 11.5t-1.5 31.5zM50 17q1 -2 3 -1q10 5 10 9q1 2 -1 5t-5 4t-4 -1q-7 -10 -3 -16z" />
<glyph unicode="/" horiz-adv-x="653" d="M2 -185.5q2 12.5 3.5 19t5.5 19t5 14.5q34 116 123 332q2 4 184.5 439t208.5 509q29 86 33 125q2 13 12 14q8 -1 9 -10q0 -18 -11 -62q-20 -78 -152.5 -390t-259.5 -619.5t-140 -392.5q13 -10 3 -18q-12 -7 -22 7q-4 1 -2 13.5z" />
<glyph unicode="0" horiz-adv-x="778" d="M119 727q13 200 74 369q15 41 39 88t64 94t75 47q20 0 110 -10q-59 41 -129 28q-26 -3 -49 -16q-10 -10 -14 -10q-7 -4 -13.5 2t-1.5 12q17 20 50 27q24 8 57 8q45 0 86 -18q52 -27 91.5 -79t61 -115t32.5 -124.5t12 -120.5q5 -212 -68 -475q-13 -45 -33 -91.5t-49.5 -97 t-71 -82.5t-86.5 -32q-36 0 -71 24.5t-60.5 63t-43.5 76.5t-29 72q-47 146 -33 360zM152 444q10 -52 34.5 -115t71 -120t96.5 -57q49 0 92.5 40.5t73 106t46.5 116t30 103.5q82 332 25 565q-27 120 -101 197q-10 10 -12 10q-124 20 -143 15q-19 -4 -47.5 -35t-45.5 -58 q-88 -141 -120 -366q-32 -235 0 -402z" />
<glyph unicode="1" horiz-adv-x="585" d="M68 1198q-5 5 0 11t12 3l20 -10q15 -8 41 -4q14 2 55 16.5t86.5 32.5t53.5 21q44 22 94 22q19 0 25 -4q38 -19 16 -125q-5 -30 -17.5 -93.5t-17.5 -98.5q-39 -207 -59 -467q-22 -274 0 -455q1 -3 3 2q0 3 1 4q5 8 12 4.5t6 -12.5q0 -2 -2.5 -8.5t-5.5 -14.5t-4 -10 q-4 -6 -13 -5.5t-12 7.5q-5 13 -9.5 63.5t-4.5 74.5q-14 313 60 778q7 42 22.5 120.5t22.5 114.5q0 4 2.5 22t3.5 30t0 26.5t-6 20.5q-8 8 -25 8q-27 0 -55 -12q-30 -10 -84.5 -33t-77.5 -31q-58 -20 -88 -20q-12 0 -30 7t-25 15z" />
<glyph unicode="2" horiz-adv-x="909" d="M73 55.5q-6 7.5 1 14.5q2 2 22 13.5t21 12.5q105 72 202 164.5t180 202t136 236.5t59 249q8 114 -32 182q-51 99 -175 99q-106 0 -251 -80q-97 -47 -109 -76q-4 -8 3.5 -11t23.5 -5q2 0 13.5 -1t12.5 -1q6 -1 8 -6t-0.5 -10t-9.5 -5q-74 0 -74 33q0 24 56 61 q75 50 162.5 85.5t160.5 35.5q102 0 160 -58.5t70 -164.5q13 -107 -27 -246q-44 -167 -179.5 -340.5t-293.5 -296.5q137 62 317 88q134 21 230 11q55 -11 65 -15q8 -3 5.5 -11t-11.5 -7q-20 0 -26 6q-58 10 -105 10q-147 0 -309.5 -47t-290.5 -125q-9 -5 -15 2.5z" />
<glyph unicode="3" horiz-adv-x="882" d="M70 31q0 9 9 10t11 -8q0 -9 2 -13q3 -4 43 -12q49 0 133 39q89 43 186 114.5t181.5 165.5t112.5 177q23 73 4 125q-19 56 -81.5 82t-140.5 26q-55 0 -145 -20t-129 -41q-46 -23 -53 -23q-10 -3 -11 7t7 14q13 9 47 20q6 2 29.5 16t25.5 15q167 99 268 195 q66 59 116 140.5t28 139.5q-10 28 -47 49q-67 33 -154 33q-128 0 -246 -68q-46 -31 -65 -59q-7 -7 -14.5 -1.5t-2.5 13.5q35 62 138 99t186 37q90 0 160 -33q51 -22 64.5 -66t-5.5 -95t-53.5 -101t-79.5 -93q-91 -91 -250 -188q114 31 184 31q69 0 131.5 -20.5t94.5 -67.5 q33 -47 26 -113q-11 -90 -80 -184q-37 -52 -106.5 -117.5t-149 -125t-164.5 -100t-145 -40.5q-41 0 -53 12q-12 9 -12 29z" />
<glyph unicode="4" horiz-adv-x="960" d="M79.5 354q-3.5 30 10 70t24.5 65t31 64q62 120 194.5 329.5t172.5 278.5q42 73 47 94q-15 6 -6 17q10 12 20 5q3 -2 5 -7q5 -15 -7 -39q-17 -37 -91.5 -161t-166 -272t-96.5 -157q-70 -123 -102 -207q-27 -89 4 -115q20 -14 71 -14q28 0 76 6q133 24 377 113 q-1 64 -4 190.5t-4 188.5q0 32 2 37q3 8 10 8q11 0 16 -11q4 -11 -8 -12q-3 -80 9 -393q166 68 184 76q3 1 21.5 10t21.5 10q8 3 12 -3.5t-2 -12.5q-5 -5 -34 -18.5t-31 -14.5q-126 -51 -172 -67q0 -3 5 -169t7 -194q0 -4 2 -4q3 -9 -5 -13t-14 3q-4 4 -4 16q-4 52 -6 111 t-3.5 130.5t-2.5 110.5q-307 -120 -455 -120q-59 0 -84 22q-21 19 -24.5 49z" />
<glyph unicode="5" horiz-adv-x="954" d="M69 171q4 8 13 3q52 -35 270 -35q229 0 381 64q96 40 113 88q22 56 -23 152.5t-102 166.5q-79 97 -169.5 145t-209.5 52q-7 0 -47.5 -3t-63.5 -3q-40 0 -53 8q-24 13 -6 59q4 8 53.5 96t73 151.5t10.5 98.5q-1 3 -8 11.5t-10.5 16t0.5 11.5q4 6 15 8t32 1l20 -2 q310 0 351 -7q7 -1 8.5 -6t-2 -9.5t-10.5 -4.5q-73 6 -388 6q17 -20 17 -55q-2 -49 -41 -133q-4 -8 -49 -92.5t-51 -98.5q-15 -30 0 -37q20 -7 96 2q99 4 160 -10q138 -29 265 -166t152 -276q15 -62 -6 -103q-33 -61 -154 -100t-225 -47q-58 -4 -135 -4q-216 0 -270 35 q-12 7 -7 17z" />
<glyph unicode="6" horiz-adv-x="952" d="M90 401q7 101 76 242q1 4 -3 2q-8 -2 -9 -2q-6 0 -8.5 7.5t1.5 11.5q2 2 16 3.5t15 4.5q111 205 241 346t329 276q3 2 13 10t14 10.5t13.5 9t15 9.5t14 7t16.5 6.5t16 3.5q8 2 10.5 -7t-4.5 -12q-2 -1 -14.5 -6t-14.5 -6q-38 -13 -144 -93.5t-153 -123.5 q-181 -157 -325 -428q187 26 346 26q39 0 67.5 -2t64 -7t61 -17t49.5 -30.5t39.5 -48.5t21.5 -69q12 -75 -20 -145q-33 -74 -116.5 -138.5t-179.5 -100.5t-176 -36q-76 0 -141.5 33.5t-97.5 98.5q-36 71 -33 165zM111 389q-3 -93 43 -166q28 -45 85 -71.5t115 -26.5 q91 0 196 41.5t187.5 118.5t96.5 164q14 96 -37 159q-27 38 -78 51q-58 19 -176 19q-165 0 -350 -29q-80 -148 -82 -260z" />
<glyph unicode="7" horiz-adv-x="864" d="M49 1221q0 9 9 10.5t12 -6.5q3 -10 12 -16t23 -8t24.5 -2.5t28.5 0.5t24 1q76 2 157.5 15.5t192 39.5t156.5 35q24 6 55 6q46 0 56 -24q7 -20 -2 -60q-3 -9 -29 -69q-22 -50 -178 -354.5t-168 -329.5q-101 -209 -141 -326q-10 -19 -5 -29q3 -7 -2.5 -12t-11.5 0 q-12 7 -6 35q11 34 41 109q61 143 201 421q1 2 53.5 103.5t91 176.5t81 162t52.5 115q13 38 2 52q-8 10 -37 10q-32 0 -98 -16q-27 -6 -94 -21t-103.5 -22.5t-92.5 -17.5t-105 -14.5t-96 -4.5q-103 0 -103 41z" />
<glyph unicode="8" horiz-adv-x="1071" d="M113 956q17 75 80 138q93 100 232 155.5t280 55.5q189 0 266 -107q37 -48 22 -119q-33 -201 -418 -483q99 -57 134 -94q31 -34 34 -78q2 -47 -39.5 -102.5t-93 -95t-102.5 -66.5q-120 -58 -215 -58h-8q-70 2 -121 41.5t-47 102.5q4 86 81 238t140 202q-99 48 -135 74 q-66 44 -84 98q-16 42 -6 98zM131 887q6 -41 41 -76q50 -46 182 -111q2 -1 12 3t13 4q7 0 8.5 -8t-4.5 -11q157 -74 172 -82q51 38 92.5 70.5t96.5 82t95.5 94t76 98.5t51.5 104q18 61 2 106q-28 66 -108.5 95.5t-166.5 29.5q-117 0 -234 -45.5t-212 -122.5 q-79 -64 -105 -131q-21 -53 -12 -100zM150 190q20 -34 60.5 -50.5t84.5 -16.5q108 0 232 71t178 162q21 35 18 72q-10 75 -166 154q-178 -135 -213 -148q-9 -3 -12.5 6t4.5 15q43 24 201 137q-31 16 -179 84q-22 -16 -41 -36.5t-36.5 -48t-28 -47t-27.5 -52.5 q-119 -231 -75 -302z" />
<glyph unicode="9" horiz-adv-x="937" d="M109 846q18 69 60.5 138t100 123.5t130 89t143.5 34.5q120 0 209 -78.5t96 -198.5q8 -118 -57 -262q-67 -152 -197 -305q2 0 20 -1t21 -1q7 -1 8.5 -6t-2 -9.5t-10.5 -4.5q-9 1 -28 2t-28 2q-70 -78 -171 -162t-185 -129q-6 -5 -59 -31q-7 -2 -11 2t-3.5 9.5t6.5 7.5 q198 97 399 305q-148 17 -254.5 73.5t-165.5 176.5q-49 101 -22 225zM121 752q3 -75 39 -142q56 -107 160 -156t247 -65q95 106 169.5 241.5t90.5 256.5q14 104 -32 182q-40 66 -108 103.5t-146 37.5q-106 0 -200.5 -69.5t-158.5 -171.5q-64 -103 -61 -217z" />
<glyph unicode=":" horiz-adv-x="186" d="M51 764q-5 12 0 28t17 23q-2 13 11 13q19 -2 30 -19q6 -11 0.5 -26t-15.5 -25t-24.5 -8.5t-18.5 14.5zM58.5 118.5q-0.5 8.5 7.5 14.5v23q2 8 10 8t10 -8q0 -15 2 -15q47 9 49 -18q2 -18 -4 -34t-20 -17q-16 -3 -28 8t-17 29q-9 1 -9.5 9.5zM70 771q1 -2 4 -1q6 2 12 10 t6 15q0 3 -4 1q-2 -1 -4 -1q-5 5 -8 2q-11 -19 -6 -26zM88 119q0 -12 8 -23t15 -4q11 11 6 27q-1 3 -3 4t-5.5 1t-6.5 -1l-7.5 -2.5t-6.5 -1.5z" />
<glyph unicode=";" horiz-adv-x="210" d="M45 786q11 27 16 31q-1 6 4 11t11 3q18 -6 18 -14q6 -6 6 -12q3 -24 -20 -43q-14 -11 -26 -3t-9 27zM66 776q12 12 12 29q-7 -5 -12 -29zM72 -197q0 5 10 25q51 82 59 117q9 27 9 59q-12 -6 -25 -6q-29 0 -35 27q-3 20 8.5 36.5t26.5 16.5q9 0 22 -10q17 -15 21 -43 q4 -26 -4 -76q-4 -17 -12 -36.5t-15 -31.5t-20.5 -34t-18.5 -31q-1 -1 -3 -7t-4 -10.5t-3 -5.5q-6 -5 -11.5 -1t-4.5 11zM110.5 33.5q0.5 -8.5 4.5 -13.5q10 -6 24 3q1 1 3.5 1t3.5 0.5t1 2.5q-6 30 -22 30q-6 1 -10.5 -7t-4 -16.5z" />
<glyph unicode="&#x3c;" horiz-adv-x="1046" d="M66 412q-8 23 18 49q49 48 369.5 237.5t414.5 233.5q6 3 58 16q9 2 12 -7t-6 -13q-13 0 -43 -10q-13 -4 -51 -25t-79.5 -44.5t-49.5 -27.5q-305 -178 -338 -198q-145 -85 -238 -150q-47 -31 -49 -47q-3 -12 18 -23q39 -24 93 -45q308 -130 684 -174q8 0 24.5 -1t24.5 -1 q17 0 49 4q7 2 11 -2t3.5 -9t-6.5 -7q-10 -4 -45 -4q-153 0 -371 53.5t-381 120.5q-111 43 -122 74z" />
<glyph unicode="=" horiz-adv-x="1071" d="M44.5 286.5q-3.5 6.5 2.5 12.5q5 5 14 8q57 17 299 49q222 28 426 37q201 13 230 13q9 -2 10 -10.5t-8 -10.5q-27 -6 -129 -6q-406 -16 -768 -80q-32 -6 -64 -16q-9 -3 -12.5 3.5zM127.5 710.5q4.5 7.5 13.5 4.5q17 -6 63.5 -9t87.5 -3t96 1t61 1q53 2 159.5 8t159.5 8 q46 4 139 4q67 0 88 -6q7 -3 5.5 -12t-9.5 -9q-3 0 -24.5 3.5t-24.5 3.5q-39 1 -213.5 -7t-241.5 -12q-126 -4 -190 -4q-101 0 -150 8q-12 4 -16 8q-8 5 -3.5 12.5z" />
<glyph unicode="&#x3e;" horiz-adv-x="1093" d="M52.5 167.5q1.5 5.5 8.5 8.5q22 14 29 12q182 80 539 226q190 80 291 131q92 53 92 69q-1 5 -25 21q-35 17 -90 31q-60 17 -229 57.5t-260 69.5q-99 32 -211 86q-7 2 -26.5 11t-23.5 13q-4 3 -4 8t4.5 8t10.5 1q6 -5 8 -5q138 -71 272 -112q25 -7 156 -39.5t251.5 -65 t153.5 -47.5q14 -7 24.5 -20t6.5 -25q-14 -46 -149 -102q-57 -28 -410.5 -177t-366.5 -155q-20 -10 -38 -16q-7 -2 -11 2t-2.5 9.5z" />
<glyph unicode="?" horiz-adv-x="702" d="M70 1143q-10 23 2 47q22 42 87.5 70t121.5 28q98 0 196 -27.5t133 -80.5q17 -31 17 -64q2 -38 -21 -98q-7 -18 -15.5 -36t-20 -37.5t-19.5 -33.5t-24 -36t-22.5 -31.5t-26 -34t-24 -30.5t-26.5 -33.5t-25 -30.5q-108 -138 -135 -221q-1 -3 -4.5 -15t-5.5 -20t-2 -17.5 t4 -13.5q5 -8 -2 -14t-14 0q-16 14 2 73q18 64 55 122.5t101 137.5t85 107q53 74 93 162t20 139q-18 41 -86.5 68.5t-131.5 36t-116 8.5q-41 -2 -100.5 -29t-75.5 -59q-3 -4 -3.5 -9t0.5 -13t1 -11q0 -8 -7.5 -9.5t-10.5 5.5zM225 147q-4 16 0.5 34.5t16.5 23.5q19 13 28 8 q-4 12 -8 16q-2 3 -10 6t-10 7q-7 13 9 13q17 -1 28 -13q13 -14 14.5 -49t-6.5 -54q-9 -20 -29 -20q-11 0 -20.5 7.5t-12.5 20.5zM244 156.5q4 -17.5 12 -17.5q6 0 8 4q8 8 8 52q0 6 -21 -9l-3 -2q-8 -10 -4 -27.5z" />
<glyph unicode="@" horiz-adv-x="1030" d="M96 567q-6 127 56 264q52 124 158.5 217t228.5 93q130 0 245.5 -75t145.5 -194q16 -59 10 -124.5t-27 -123t-63.5 -104t-97.5 -67.5q-27 -9 -41 -9q-16 0 -31 9q-21 10 -33 43q-5 20 -10 90q0 33 3.5 93t4.5 77q-13 -16 -39.5 -51t-43 -55.5t-42.5 -46.5t-51 -44 q-39 -31 -82 -31q-22 0 -33 11q-25 19 -12 67q14 68 94 156q42 44 102 94.5t89 50.5q37 0 41 -65v-27q0 -9 -9 -9t-10 9q-2 7 -2.5 24.5t-3.5 26.5q-5 21 -16 21q-22 0 -72 -43q-168 -134 -195 -246q-8 -37 15 -49q25 -8 60.5 13t64.5 50q38 38 118 144q3 6 23 26q6 6 12 6 q12 0 12 -36t-3 -64q-2 -15 -3 -64.5t0 -62.5q5 -88 39 -94q13 -4 47 6q56 20 97 72.5t59.5 112t20.5 120.5q2 59 -20 117.5t-62 97.5q-56 57 -136 91t-159 34q-122 0 -207 -76q-90 -75 -141.5 -166.5t-73.5 -209.5q-26 -161 45 -295q98 -174 297 -174q120 0 176 34 q9 4 14.5 -3t-2.5 -13q-49 -41 -164 -41q-87 0 -157 25q-108 41 -169.5 143.5t-66.5 224.5z" />
<glyph unicode="A" horiz-adv-x="946" d="M41 31q2 2 8 14q14 40 57.5 167t69.5 196q-17 -3 -51.5 -7.5t-52.5 -7.5q-6 -1 -10 3t-3.5 9t7.5 7q8 3 60 10t58 8q154 412 299 694q60 114 86 152q47 61 72 61q23 0 33 -51q11 -43 33 -199.5t45.5 -341.5t25.5 -202q48 7 76 7q11 0 20 -1q8 -1 8 -10t-8 -11 q-6 -1 -47 -3t-47 -3q46 -307 84 -497q7 -33 2 -37q-7 -6 -13.5 1t-8.5 17q0 1 1 4.5t1 5.5q-1 3 -6 29t-6 29q-34 162 -72 446q-161 -16 -307 -49q-43 -9 -128 -29.5t-128 -29.5q-19 -52 -39.5 -110.5t-45 -130t-38.5 -110.5q-8 -38 -21 -45q-7 -4 -13 2.5t-1 12.5z M209 434q32 7 123.5 30.5t142.5 33.5q144 28 283 43q-10 82 -45.5 344t-44.5 315q-10 89 -25 113q-5 9 -18 -4q-40 -33 -94 -134t-95 -192q-111 -242 -227 -549z" />
<glyph unicode="B" horiz-adv-x="1220" d="M16 14q-5 8 1.5 14.5t13.5 2.5q4 -4 6 -4q14 -11 57 -11q145 0 355 54q-36 200 -36 445q0 69 3 142q-16 -3 -46 -8t-46 -8q-24 -6 -39 -6q-9 1 -9 9t9 11q20 7 65 21.5t68 23.5q23 397 37 564q-20 -2 -117 -17q-111 -25 -152 -25q-7 0 -12 1q-8 1 -8 10t8 10h31 q43 5 143 27q41 7 109 14q0 32 12 37q11 6 18 -3t-6 -13q-5 -5 -4 -17q1 -3 2 -2q27 1 56 1q99 0 223 -13q66 -7 132.5 -20.5t143.5 -48.5t101 -83q10 -20 10 -39q0 -24 -15 -47q-76 -130 -690 -350q-1 0 -1 -2q0 -3 -1 -4q99 12 199 12q289 0 424 -117q39 -34 63 -78 q19 -35 19 -69q0 -9 -2 -18q-4 -42 -43 -84.5t-104.5 -78t-132.5 -65.5t-150 -56.5t-133.5 -41.5t-104.5 -29q2 -15 -8 -17q-5 -1 -8 5q-1 1 -1.5 3t-1.5 3t-3 0q-226 -53 -355 -53q-62 0 -80 18zM414 678h4h-4zM436 659q-3 -78 -3 -152q0 -246 36 -431q79 19 163 45.5 t189 66t184.5 90.5t106.5 103q9 18 9 40q0 19 -7 42q-16 51 -57.5 90.5t-92 61t-114.5 35.5t-116 18t-105 4q-91 0 -193 -13zM440 709q473 166 633 295q29 22 43 47q12 25 6 51q-15 42 -85.5 77.5t-135.5 51.5q-91 19 -201 29q-76 6 -145 6q-41 0 -80 -2q-5 -54 -19.5 -280 t-15.5 -275z" />
<glyph unicode="C" horiz-adv-x="1189" d="M78 649q16 131 104 279q96 164 259 259t352 95q211 0 299 -121q9 -11 27.5 -48t21.5 -52q1 -7 -3.5 -10t-10 -1.5t-7.5 7.5q-22 55 -33 73q-75 130 -296 130q-169 0 -320 -82t-250 -222t-123 -307q-7 -50 -7 -97q0 -112 40 -206q35 -78 107.5 -148.5t165 -113.5 t178.5 -43q124 0 260.5 68t249.5 165q6 5 12 3t6.5 -7t-4.5 -10q-114 -101 -250.5 -169t-263.5 -68q-144 0 -277.5 86.5t-195.5 216.5q-48 99 -48 225q0 47 7 98z" />
<glyph unicode="D" horiz-adv-x="1128" d="M34 10.5q-10 16.5 7 30.5q6 5 12 -0.5t2 -11.5q-5 -10 -4 -11q9 -6 27 -6q19 0 35 4q33 8 118 43q1 114 6.5 233.5t16.5 295t14 233.5q2 40 5.5 116.5t5.5 113.5q0 119 20 145q6 6 13.5 2t4.5 -12q-11 -28 -12 -33q-4 -25 -18 -367q-3 -54 -10.5 -174.5t-11.5 -189.5 t-8 -169.5t-5 -184.5q110 50 213.5 110.5t206.5 136.5t187.5 170t135.5 193q56 114 56 211v16q-10 124 -91.5 221.5t-198 147t-239.5 49.5q-99 0 -222 -36.5t-155 -98.5q-6 -8 -14.5 -4.5t-5.5 12.5q20 46 100.5 82.5t160.5 52t134 15.5q98 0 193 -31q132 -45 237.5 -150.5 t118.5 -232.5q2 -19 1 -39q0 -96 -44 -197q-39 -87 -105 -170.5t-142 -151t-169 -130.5t-179 -110t-179 -89q0 -35 4 -51q3 -7 -4 -11.5t-12 1.5q-9 11 -9 53q-102 -45 -153 -45h-12q-22 2 -32 18.5z" />
<glyph unicode="E" horiz-adv-x="1062" d="M37 657q0 9 8 11q23 5 29 0q46 2 149 18q26 378 35 436q7 57 25 85t69 36q204 34 425 34q34 0 69 -1q3 0 35.5 -3t59 -5t34.5 -6q6 -2 7 -7.5t-2 -9.5t-9 -2q-95 12 -189 12q-180 0 -362 -24q-51 -3 -90 -14q-22 -7 -31 -23q-10 -15 -17.5 -55t-10.5 -74.5t-6 -84 t-3 -54.5q0 -6 -18 -236q225 35 555 105q8 1 12 -4t2 -10.5t-10 -6.5q-315 -66 -561 -104q-1 -10 -9.5 -87.5t-12.5 -132.5t-8 -130q-2 -33 -2 -63q0 -37 3 -67q5 -54 18 -81q17 -36 58 -48q24 -6 47 -6q80 0 221 51.5t250.5 106.5t204.5 109q7 4 12.5 -3.5t-0.5 -13.5 q-71 -60 -331 -164t-361 -104q-45 0 -74.5 16t-43.5 47t-19 63t-5 77v6q0 42 12 192q12 162 19 228q-135 -19 -170 -19q-11 0 -14 10z" />
<glyph unicode="F" horiz-adv-x="952" d="M51 627q2 10 15 14q9 1 71.5 12.5t71.5 12.5q0 17 2.5 148.5t5.5 248.5t6 147q-16 -2 -45 -5t-45 -5q-6 0 -9 5t-2 10t7 6q5 1 47 6t47 6q0 1 3 17t5 18q5 6 12 3.5t7 -9.5q0 -1 -2 -12.5t-2 -12.5q29 5 123 21.5t145 23.5q106 12 162 12q90 0 158 -24q12 -5 43 -21.5 t38 -21.5q8 -6 2.5 -13.5t-14.5 -3.5q-76 43 -110 52q-47 12 -110 12q-26 0 -54 -2q-38 -2 -76 -6.5t-82 -11.5t-71.5 -11.5t-81.5 -14.5t-74 -14q-2 -30 -5 -148t-6 -248.5t-4 -147.5q28 5 145 27t167 30.5t139 20.5t162 16q11 1 12 -8q1 -11 -12 -13q-73 -4 -162 -16 t-139 -20.5t-167 -30.5t-145 -27q-8 -242 -8 -362q0 -123 23 -178q3 -8 -5 -12t-14 3q-22 24 -22 138q-1 26 -1 64q0 115 7 343q-135 -27 -146 -27q-13 0 -12 9z" />
<glyph unicode="G" horiz-adv-x="1181" d="M62 442q-1 13 -1 25q0 67 19 125q62 218 223 397q92 102 214 174t239 72q145 0 200 -72q10 -14 28.5 -46.5t19.5 -43.5q3 -12 -8 -12q-10 0 -13 10q-24 79 -77 111t-140 32q-94 0 -190.5 -43.5t-175 -114.5t-141.5 -154t-103 -169q-74 -152 -74 -269v-15q2 -66 26 -119.5 t62.5 -89t91 -60t109 -35t118.5 -10.5q241 0 449 119q96 52 135 117q22 32 22 71.5t-20 73.5q-40 62 -135 88q-71 19 -208 34.5t-165 20.5q-65 12 -68 31q-1 6 7 12q8 8 43 17q48 11 516 63q3 0 19.5 2t19.5 2q7 0 9.5 -5t0 -10t-9.5 -5q-492 -46 -578 -74q8 -4 25 -8t18 -4 q33 -5 158 -20t191 -29q105 -22 155 -80q31 -34 39 -79q3 -15 3 -29q0 -29 -11 -56q-24 -65 -113 -123q-104 -71 -235.5 -111t-257.5 -40q-290 0 -398 188q-34 60 -38 141z" />
<glyph unicode="H" horiz-adv-x="1097" d="M66 526q6 8 18 4q24 -2 29.5 -2t30 6t30.5 7q-2 143 -2 430q0 2 -0.5 55t-0.5 89t2.5 79.5t8.5 58.5q3 9 12 6t7 -12q-8 -46 -8 -71q-1 -42 -1 -168v-147q0 -252 3 -314q54 12 224 54t285.5 65t229.5 34q0 384 4 506q0 29 16 51q6 6 14.5 0.5t4.5 -12.5q-15 -23 -15 -39 q-4 -122 -4 -504q3 0 22.5 2.5t22.5 2.5q9 0 10 -9.5t-8 -11.5q-3 0 -23.5 -2t-23.5 -2q0 -28 -2 -170q-2 -119 -3 -159q1 -9 1 -13q0 -28 2 -170q0 -12 -10 -12t-10 12q-2 142 -2 170q0 4 -1 12q1 39 3 158q2 142 2 170q-114 -11 -228 -34t-287.5 -66.5t-223.5 -55.5 q0 -260 14 -389q2 -35 12 -86.5t23 -66.5q9 5 15 -2.5t-1 -14.5q-6 -6 -14 -6q-23 0 -37 64q-19 73 -27 210q-6 94 -6 287q-3 -1 -30.5 -6.5t-41.5 -5.5q-15 0 -30 6q-12 4 -6 12z" />
<glyph unicode="I" horiz-adv-x="473" d="M49 20.5q0 10.5 12 10.5q180 6 359 30q8 1 12 -3.5t2 -10t-10 -6.5q-192 -25 -363 -31q-12 0 -12 10.5zM77.5 1227q-0.5 5 2.5 8q53 45 342 45q12 0 12 -10t-12 -10h-38h-40.5t-37 -0.5t-40.5 -1.5t-36.5 -3t-40.5 -5t-37 -7q-37 -11 -60 -24q-5 -3 -9.5 0t-5 8zM200 284 v34q0 103 3 186q4 221 16 667v39h-6q-9 2 -9 11t9 10q7 2 14.5 -1.5t10.5 -10.5q2 -6 2 -45q-19 -686 -19 -863q0 -145 12 -241q1 -8 -3.5 -12t-10 -2t-6.5 10q-13 94 -13 218z" />
<glyph unicode="J" horiz-adv-x="890" d="M20 303q-5 6 1.5 12t13.5 2q4 0 14 -10q88 -63 215 -113.5t219 -50.5q73 0 109 33q27 27 37 72q9 51 9 137q0 49 -3 109q-10 260 -31 458q-1 6 -5.5 45t-8.5 70.5t-6 66t0 46.5q-68 -13 -242 -72q-3 -1 -17.5 -6t-17.5 -6q-9 -2 -11 7.5t7 12.5q161 60 289 86q4 12 16 4 q35 9 119.5 22t124.5 13h14q9 -1 9 -10t-9 -10h-18q-106 -8 -242 -35q-4 -26 -3 -45.5t6 -61t5 -45.5q39 -303 45 -637q0 -89 -10 -153q-10 -52 -45 -84q-50 -37 -129 -37q-121 0 -313 94q-34 16 -82 43.5t-60 42.5z" />
<glyph unicode="K" horiz-adv-x="1081" d="M102 541q-2 17 19 39q1 1 8.5 8t7.5 10q1 59 4 178t4 178q0 7 4.5 133t6.5 148q2 13 11 9.5t7 -17.5q-4 -36 -7 -164.5t-6 -284t-3 -164.5q162 136 295 240q133 113 235 207q64 60 92 92q1 1 36.5 41.5t45.5 46.5q8 3 13 -3.5t-1 -12.5q-1 -2 -30 -31q-62 -73 -148 -154 t-140.5 -126.5t-164.5 -135.5q-195 -157 -233 -190q0 -10 -1 -29.5t-1 -28.5q15 -4 71 -14t119.5 -21t71.5 -12q94 -20 199.5 -45.5t232.5 -58t199 -49.5q13 -3 10 -14q-2 -10 -12 -7q-71 17 -205.5 52t-243.5 61t-207 45q-15 3 -118 20.5t-117 20.5q-2 -60 -4 -228v-99 q0 -88 2 -128q4 -21 8 -26q6 -8 -1 -15t-14 0q-8 7 -16 60q-1 32 -1 87.5t1 133.5q2 156 4 221q-31 10 -33 27zM123 543l12 -6q0 5 1 15t1 15q-1 -1 -6.5 -7.5t-7.5 -10t0 -6.5z" />
<glyph unicode="L" horiz-adv-x="989" d="M78.5 132q1.5 30 3.5 48.5t6.5 49.5t5.5 36q4 20 21 116.5t24 136t17 111.5t16 130q7 86 17 272q7 133 7 195q0 25 -1 39q-2 16 9 18q7 1 9 -8v-2q3 -21 3 -69q0 -55 -4 -147q-8 -172 -15 -251q-13 -154 -47 -350q-5 -30 -18 -95t-21.5 -114.5t-12.5 -95.5q-6 -42 6 -54 q6 -6 21 -6q23 0 43 8q13 4 61 20.5t103 36t61 21.5q262 86 436 86q52 0 91 -10q1 0 13 -3.5t22.5 -7t13.5 -5.5q7 -4 4.5 -12.5t-10.5 -6.5q-6 0 -48 14q-44 11 -89 11l-35 -2q-65 -4 -216 -33q-43 -10 -94 -25.5t-83.5 -26.5t-94.5 -33t-86 -30q-64 -22 -92 -22 q-33 0 -43 26q-5 4 -3.5 34z" />
<glyph unicode="M" horiz-adv-x="1505" d="M127 137q0 272 6 545q7 286 31 471q8 57 14 82q7 40 25 63q6 10 19 11.5t22 -6.5q16 -13 43 -67t41 -91q30 -74 107 -269.5t122 -300.5q139 -316 195 -370q6 -11 16 -8q14 5 29 51q20 51 41 123q145 480 374 809q2 3 17.5 23t25.5 33t27.5 34t30.5 35t27 26t24 15 q7 3 13 3q22 0 26 -41q1 -10 1 -27t-1 -42q-5 -79 -27 -297q-51 -481 -51 -711q0 -112 6 -149q12 -10 3 -18q-11 -9 -19 3q-1 2 -2 5q-8 18 -8 123v26q0 136 18 385q2 17 18.5 179.5t29.5 303t13 179.5q0 49 -8 59q-3 5 -14 -6q-20 -14 -41 -39q-138 -155 -253.5 -384.5 t-188.5 -461.5q-2 -6 -16.5 -52t-27 -86t-16.5 -50q-23 -72 -53 -72q-27 0 -59 53q-54 88 -123 240q-56 118 -178 424q-3 8 -41.5 106t-72.5 176t-52 101q-15 20 -23 10q-31 -45 -49 -305q-8 -123 -16 -485q-5 -199 -5 -314q0 -95 3 -135q10 0 11 -9.5t-5 -17.5 q-5 -5 -12.5 -2.5t-10.5 9.5q-6 16 -6 110z" />
<glyph unicode="N" horiz-adv-x="1155" d="M96 125v39q0 176 31 473q28 276 59 414q24 98 56 106q15 3 33.5 -11.5t27.5 -26.5t23 -34q50 -83 149 -264q358 -591 453 -678q22 -22 33 -20q11 0 16 22q29 69 35 308q2 68 2 134q0 189 -13 367q-14 183 -69 375q-1 1 -4.5 12.5t-3.5 14.5q-2 9 6.5 11t11.5 -7 q79 -234 90 -586q2 -85 2 -163q0 -188 -12 -330q-7 -143 -45 -172q-11 -8 -26.5 -4.5t-26.5 14.5q-64 60 -228.5 314.5t-249.5 400.5q-5 8 -43 75.5t-71.5 125t-46.5 73.5q-25 31 -37 29q-19 -4 -33 -60q-12 -38 -35 -174q-44 -298 -59 -588q-4 -82 -4 -136q0 -75 8 -95 q1 -1 12 -23q3 -8 -4.5 -12t-13.5 2q-19 24 -23 74z" />
<glyph unicode="O" d="M76 520q20 166 113 344.5t219 300.5q52 52 118 52q40 0 68 -17q4 -2 5 -6t-1.5 -7.5t-7.5 -4.5q-2 -1 -12 2.5t-11 3.5q-19 8 -43 8q-47 0 -88 -33q-81 -66 -166 -199t-125 -241q-53 -142 -53 -282v-15q2 -67 18 -125t47.5 -107t85 -77.5t124.5 -28.5q137 0 282 69 t257.5 181.5t164.5 239.5q46 108 46 216q0 13 -1 25q-7 74 -43 131q-59 88 -222 185.5t-265 109.5q-2 2 -21 2q-6 1 -7.5 6.5t1 10.5t8.5 4q56 -3 129.5 -32.5t119.5 -56.5t114 -71q105 -68 156 -140.5t51 -183.5q0 -106 -46.5 -214t-125.5 -197t-177 -159t-207.5 -109 t-209.5 -39q-170 0 -248 147q-51 90 -51 225q0 39 4 82z" />
<glyph unicode="P" horiz-adv-x="1173" d="M31 1152q-1 12 2 17q12 38 93.5 68.5t185.5 46.5t189 24.5t128 8.5q69 0 141 -12t145 -37t129 -72.5t78 -110.5q11 -37 11 -69q0 -29 -9 -55q-30 -75 -110 -144q-280 -251 -697 -420q0 -233 21 -356q12 6 15 -9t-7 -22q-6 -6 -10 -6q-13 0 -23 62q-16 145 -16 323 q-71 -27 -113 -45q-12 -3 -15.5 6.5t7.5 14.5q38 13 121 47q0 127 5 392t13 329q0 11 4.5 19t12.5 7q10 -3 12 -11t-8 -11q-3 -16 -5.5 -72.5t-4 -120t-2.5 -74.5q0 -37 -3.5 -199t-3.5 -251q83 35 197.5 94.5t248 140t232.5 170.5t115 160q3 15 3 31q0 30 -11 61 q-15 49 -55.5 88t-92 63t-113 40t-115.5 22t-103 6q-71 0 -189.5 -14t-238 -45.5t-142.5 -69.5q-4 -8 0 -28q2 -9 -6.5 -11t-11.5 7q-3 5 -4 17z" />
<glyph unicode="Q" horiz-adv-x="1409" d="M74 530q0 183 102 353.5t262 281.5q45 31 73.5 48.5t74.5 35t86 17.5q89 0 125 -45l2 -5q2 -4 4 -4q83 -9 148 -22.5t137.5 -41t127.5 -76t87 -116.5q41 -86 41 -192q0 -58 -13 -123q-18 -96 -68.5 -181.5t-123.5 -153t-153 -119t-173 -93.5q179 -225 338 -403 q5 -7 2.5 -13t-8 -6t-10.5 6q-185 210 -340 408q-153 -63 -291 -63q-103 0 -186 42.5t-135 114.5t-79.5 161.5t-29.5 188.5zM96 483q7 -90 37 -169t80.5 -140.5t127 -97t169.5 -35.5q124 0 270 61q-15 21 -88 123q-23 39 -22 47q2 9 9.5 7t12.5 -11q12 -34 109 -157 q287 131 416 313q60 86 87 193q19 73 19 143q0 33 -4 65q-33 230 -260 316q-57 21 -133.5 34.5t-116.5 17t-139 11.5q-7 1 -9 6.5t1 10.5t10 4q16 -1 48.5 -4t49.5 -4q-40 30 -98 30q-33 0 -54 -8q-140 -44 -270.5 -174t-193.5 -272q-60 -133 -60 -265q0 -22 2 -45z" />
<glyph unicode="R" horiz-adv-x="1130" d="M66 1106q0 46 52 81t109 52q0 13 1 41t1 41q0 9 9.5 10.5t11.5 -8.5q1 -9 0.5 -22t-1.5 -32.5t-1 -23.5q134 35 342 35q311 0 399 -141q22 -38 22 -77q0 -9 -1 -18q-6 -48 -39 -99.5t-87 -99.5t-95 -79t-93 -66q-165 -103 -479 -256q0 -42 -2 -65q210 -25 252 -31 q101 -14 304 -47.5t304 -48.5q8 -1 10 -6.5t-2 -10.5t-12 -4q-98 15 -292.5 48t-291.5 47q-80 11 -272 32q-5 -107 -5 -199q0 -39 1 -75q12 -4 5.5 -18.5t-15.5 -14.5q-8 0 -8 8q-4 22 -4 85q0 77 6 216q-83 12 -89 29q-3 8 5 17q10 14 88 53q7 305 26 760q-45 -15 -89 -42 t-48 -57q0 -1 -1 -8t-1 -8q-1 -6 -6 -8t-9.5 0.5t-4.5 9.5zM127 395q20 -10 68 -14q2 18 2 53q-57 -28 -70 -39zM219 469q292 143 412 215q44 26 86 55t95 71.5t91.5 83t64.5 88.5q24 45 23 83v6q-4 50 -48.5 90t-100 61t-113.5 29q-67 9 -135 9q-212 0 -348 -35 q-21 -486 -27 -756z" />
<glyph unicode="S" horiz-adv-x="1275" d="M12.5 142q-0.5 6 4 9.5t12.5 0.5q171 -62 438 -62q334 0 596 80q141 46 151 88q2 6 2 13q0 51 -98 149q-83 79 -193.5 149t-247 145.5t-212.5 125.5q-127 88 -127 135q-2 12 6 29q15 29 76.5 69t113.5 66t97 45q120 49 203 49q38 0 137.5 -16t122.5 -31q7 -4 4 -12.5 t-11 -6.5q-1 0 -5 1t-5 1q-134 43 -246 43q-54 0 -100 -14q-80 -24 -220 -94.5t-153 -118.5q-6 -22 19 -47q36 -38 119 -94q73 -48 249 -147.5t265 -161.5q119 -81 190 -181q38 -50 38 -86q0 -4 -1 -8q-5 -41 -59 -65q-124 -64 -321.5 -94.5t-375.5 -30.5q-283 0 -461 63 q-7 3 -7.5 9z" />
<glyph unicode="T" horiz-adv-x="1075" d="M7 1263q4 6 11 5q6 -3 50 -1.5t77.5 3.5t77.5 5t51 3q235 12 474 13q48 0 96 -1q157 -4 215 -14q9 -2 10.5 -7.5t-3 -10t-13.5 -3.5q-54 11 -185 15q-56 1 -110 1q-235 0 -430 -11q-23 -1 -125.5 -6.5t-157.5 -6.5q-6 -2 -19.5 -1t-17.5 5q-5 6 -1 12zM501 310.5 q0 37.5 6 222.5t7 223q1 24 5 193t5 192q0 41 23 67q3 4 7.5 4.5t7.5 -4t1 -10.5q0 -1 -3 -6.5t-6.5 -12.5t-4.5 -8q-4 -8 -4 -26q-2 -22 -4.5 -158.5t-3.5 -148.5q-2 -73 -8 -249.5t-7 -248.5v-99v-151q0 -7 -5 -10t-10 -1t-5 9q-1 185 -1 222.5z" />
<glyph unicode="U" horiz-adv-x="1148" d="M91 866q1 84 3 178q0 115 10 140q2 5 10.5 19t12.5 18q6 6 13 0t3 -13q-10 -10 -20 -30q-4 -10 -6 -56.5t-2 -48.5q-3 -89 -3 -162q0 -128 9 -206q6 -58 17.5 -115.5t36 -126t56.5 -120t83 -86t112 -34.5q60 0 124 32t116 79q57 50 105.5 119t80.5 134t62.5 155t47.5 152 t39 153q3 22 27 131q0 1 5 37t7 42q2 7 10 7t9 -7q2 -8 -4 -45t-6 -41q-41 -281 -56 -555q-5 -91 -5 -171q0 -192 30 -326q2 -16 10 -39q6 3 11 -0.5t5 -11.5q-2 -8 -11 -11.5t-15 0.5q-14 14 -21 56q-30 130 -30 336v49q5 180 34 463q-89 -349 -221 -531 q-64 -92 -161 -159.5t-195 -67.5q-194 0 -289 313q-25 79 -35 173q-10 86 -9 163v14z" />
<glyph unicode="V" horiz-adv-x="1021" d="M26.5 1155q3.5 7 10.5 6q10 -3 26 -26q118 -140 218 -373q38 -87 99.5 -249.5t80.5 -209.5q18 -57 47 -104q1 -1 3.5 -5t4.5 -6.5t5 -5t5.5 -4t5.5 -0.5q4 1 10.5 10t8.5 15q12 24 43.5 128.5t42.5 147.5q103 352 289 738q1 3 11 23.5t11 23.5l7 14t10.5 19t11 15t12.5 9 q11 1 13 -12.5t-5 -24.5q-8 -8 -16 -2q-13 -25 -49 -98q-171 -363 -266 -684q-66 -231 -78 -264q-22 -57 -37 -70q-11 -10 -25 -8q-29 6 -67 92q-35 82 -101 259.5t-106 268.5q-110 252 -223 365q-6 5 -2.5 12z" />
<glyph unicode="W" horiz-adv-x="1470" d="M50 1201.5q-1 20.5 6 29t22 2.5q10 -4 6.5 -13.5t-12.5 -7.5v-7q0 -40 43 -193q5 -17 38.5 -144t62.5 -235.5t62.5 -221t49.5 -147.5q8 -24 18 -31q10 14 17.5 34t10 30t8.5 40.5t7 33.5q11 46 36 160t39.5 175t38.5 154t48.5 172.5t52.5 155.5q24 63 39 72q19 11 29 -9 t14 -53q8 -60 16 -172.5t13 -161.5q39 -300 127 -522q12 -33 30.5 -71.5t45 -83t59.5 -75.5t65 -36q45 0 95 98q43 99 102 305q86 306 137 641q10 55 10 99q3 3 3 16q1 6 6 7.5t9.5 -1.5t4.5 -10q-22 -313 -164 -807q-57 -194 -104 -287q-16 -31 -41 -59q-27 -23 -55 -23h-7 q-45 7 -94 64q-60 68 -109 180t-78.5 236.5t-47 236t-25.5 213.5q-1 8 -4 51.5t-6 80t-8 75t-11 51.5q-32 -36 -88 -237q-22 -76 -46 -170.5t-37.5 -151t-41.5 -180t-36 -158.5q-24 -107 -48 -129q-13 -9 -24.5 -0.5t-18.5 25.5q-19 41 -59 174.5t-74.5 260t-75 279 t-45.5 170.5q-5 23 -7.5 39t-3.5 36.5z" />
<glyph unicode="X" horiz-adv-x="1478" d="M12.5 6q-7.5 8 1.5 17q362 336 815 782q-17 23 -67.5 94.5t-86 119t-71.5 91.5q-62 73 -98 104q-2 1 -2 -2q2 -6 2 -8q0 -8 -8 -8.5t-11 6.5q-11 25 -3 40q4 7 12 3q8 -3 20.5 -12.5t24 -20.5t27 -28t24.5 -27.5t22 -26.5t15 -18q58 -74 215 -293q56 53 223 219t201 207 q6 7 12 16t12.5 20t10.5 17q3 8 11 5.5t7 -11.5q-3 -23 -82 -110q-43 -46 -97.5 -100.5t-88 -87t-105 -101.5t-92.5 -90q33 -48 99.5 -143.5t107 -153.5t99.5 -138t110 -145q71 -93 198 -231q5 -6 3 -11.5t-7.5 -5.5t-11.5 5q-132 148 -154 174q-74 91 -148 193 t-170.5 241.5t-139.5 199.5q-517 -506 -813 -782q-9 -8 -16.5 0z" />
<glyph unicode="Y" horiz-adv-x="931" d="M16 1329q0 14 12 18q11 3 11 -10q0 -10 8 -22q19 -27 123 -187.5t168 -238.5q53 -65 98 -88q29 -13 60 -10q3 1 2.5 4.5t-2 8.5t-0.5 7q3 6 9.5 5t8.5 -7q1 -2 1 -6t1 -5.5t4 -0.5q85 32 197 196q71 109 174 332q3 6 8.5 6t9 -4t0.5 -10q-223 -493 -389 -543 q2 -29 2 -100q0 -81 -2 -215q-5 -254 -10 -330q0 -67 -6 -109q-1 -6 -6.5 -7.5t-10.5 1.5t-4 9q11 144 13 245q4 60 6 251q1 64 1 113q0 98 -3 138q-7 -1 -13 -1q-46 0 -94 36q-14 10 -28 24l-23.5 23.5t-25 29.5t-21 27t-23 31.5t-20.5 28.5q-39 55 -106.5 160t-94.5 145 q-35 44 -35 55z" />
<glyph unicode="Z" horiz-adv-x="1253" d="M20.5 32q3.5 14 12.5 26.5t22 23.5q59 57 535 420q144 113 278 227q161 137 226 203q32 32 62 74q26 37 26 62v7q-3 27 -39.5 49.5t-77.5 34.5q-92 27 -287 27q-12 0 -232 -8q-147 -5 -213 -5q-33 0 -46 1q-2 0 -33 5.5t-47 6.5q-33 0 -37 2q-9 2 -9 10t9 10q8 1 33.5 -2 t54.5 -7.5t33 -4.5q13 -1 47 -1q68 0 221 5q229 8 240 8q278 0 366 -69q35 -30 37 -58v-10q0 -28 -14 -53q-25 -43 -81.5 -101.5t-95 -92t-100.5 -85.5q-75 -63 -168 -137.5t-151 -120.5t-177.5 -137.5t-158.5 -122.5q-175 -133 -205 -172q-15 -20 -4 -24q22 -11 86 -11 q30 0 69.5 2.5t68 5.5t63.5 6.5t43 4.5q135 16 397 60.5t389 60.5q8 1 12 -4t1 -10.5t-11 -6.5q-90 -11 -434.5 -69t-533.5 -68q-35 -2 -63 -2q-84 0 -105 18q-12 8 -8.5 22z" />
<glyph unicode="[" horiz-adv-x="567" d="M130 254q1 62 1.5 94t3.5 111.5t4 97.5q15 307 21 371q12 143 35 211q25 84 84 123q23 17 100.5 39t105.5 22q16 0 25 -18q3 -9 -4.5 -13.5t-13.5 2.5l-5 9h-12q-96 -21 -127 -33q-57 -16 -94 -56q-38 -46 -59 -165q-15 -81 -23 -222q-3 -61 -11.5 -294t-8.5 -283 q-4 -190 14 -299q27 -143 117 -150q47 -7 131 17q54 15 129 43q12 3 14 -7q3 -10 -8 -14q-8 -3 -36 -12.5t-39 -13t-35 -11t-39.5 -11t-36 -7.5t-39.5 -6q-56 -3 -95 18q-28 17 -47 45t-28 68.5t-12.5 65.5t-6.5 69q-3 49 -4.5 98t-0.5 111z" />
<glyph unicode="\" horiz-adv-x="690" d="M66 1290q0 6 4.5 8t9.5 -0.5t6 -9.5q12 -66 55 -170q21 -53 195 -459q188 -431 313 -684q5 -11 -3.5 -15.5t-14.5 5.5q-229 469 -479 1077q-86 196 -86 248z" />
<glyph unicode="]" horiz-adv-x="610" d="M68 1251l4 4q9 7 30 11q20 3 169.5 30.5t172.5 30.5q20 0 29 -12q6 -12 6 -41q0 -84 -8 -164q-39 -643 -8 -1153q1 -10 6 -83.5t6 -84.5q0 -31 -4 -45q-6 -14 -25 -14q-46 0 -177.5 44t-188.5 72q-6 3 -6.5 9t3 10t9.5 2q3 -1 39 -19q47 -19 168.5 -58.5t152.5 -39.5 q3 0 5.5 2t3 6.5t0.5 8v10v8.5q-1 9 -5.5 71.5t-5.5 71.5q-31 460 5 1129q0 15 5 109t5 108q0 28 -4 31q-8 6 -31 -2q-39 -6 -112 -20.5t-109 -20.5q-8 -2 -58.5 -10.5t-58.5 -10.5q-5 -14 -14 -9q-10 7 -4 19z" />
<glyph unicode="^" horiz-adv-x="892" d="M64.5 740.5q1.5 7.5 3 10t5.5 10t5 9.5q48 80 175 265.5t155 201.5q18 12 38 -4q8 -6 23.5 -29t33 -52t19.5 -32q144 -245 189 -313q45 -63 82 -100q8 -8 25 -20.5t22 -16.5q8 -6 2 -13.5t-15 -3.5q-29 16 -58 46t-45 53t-42 63q-32 50 -65.5 105t-75 125.5t-62.5 105.5 l-12 22q-12 22 -21.5 34t-17.5 14q-13 3 -29 -19q-35 -44 -157 -223t-152 -229q-2 -3 0 -2q1 0 3 1l11 3q8 2 11 -6.5t-4 -12.5q-1 -1 -11 -4t-12 -4q-19 -5 -22 6q-3 2 -1.5 9.5z" />
<glyph unicode="_" horiz-adv-x="960" d="M0.5 -240.5q-1.5 5.5 1.5 10t10 3.5q72 -3 129 2q28 3 226 27.5t225 27.5q160 16 356 23q12 0 12 -10.5t-12 -10.5q-167 -4 -284 -16q-67 -5 -141 -14t-165.5 -21.5t-138.5 -18.5q-109 -15 -180 -10h-31q-6 2 -7.5 7.5z" />
<glyph unicode="`" horiz-adv-x="344" d="M43 1231q-2 16 8 20q4 2 10 -2l9 -10q34 -43 104 -76q41 -23 123 -59q7 -3 7 -9t-5 -9.5t-12 -0.5q-22 10 -65 31t-64 31q-63 31 -99 72q-14 -4 -16 12z" />
<glyph unicode="a" horiz-adv-x="657" d="M51 176q-4 15 -4 31q0 66 59 147q62 84 154.5 143t192.5 78q12 3 22 3q15 0 42 -4t36 -5q1 40 1 73q0 66 -5 106q-11 111 -51 137q-20 18 -68 18q-70 0 -161 -44.5t-122 -102.5q-4 -9 -3.5 -12.5t6.5 -12.5q6 -6 0 -12t-13 -2q-14 7 -14 24q0 23 28.5 54t55.5 49 q117 80 223 80q55 0 86 -27q56 -54 56 -266q0 -77 -7 -176q-10 -185 -10 -222q0 -42 8 -90t27 -63q6 -6 2 -14t-12 -5q-19 7 -30 48t-13 72.5t-2 60.5q-193 -95 -314 -129q-41 -10 -72 -10q-11 0 -22 1q-64 13 -76 72zM66 220q-1 -9 -1 -17q0 -30 19 -51q24 -27 63 -27 q102 0 388 139q1 42 4 89.5t7.5 106t6.5 89.5q-3 0 -33 3t-45 3q-25 0 -37 -4q-96 -27 -164 -71t-135 -118q-27 -31 -47 -66.5t-26 -75.5z" />
<glyph unicode="b" horiz-adv-x="753" d="M92 240q-4 46 -4 102t4 123q1 24 19 307q16 255 16 320v12q0 61 -16 110q-3 11 0.5 17t9.5 3.5t10 -13.5q19 -60 19 -143.5t-7 -147.5q-3 -46 -12 -165.5t-14 -205t-9 -166.5q0 -107 5 -137q2 6 12.5 53.5t17.5 71.5q83 293 267 469q84 80 155 80q30 0 51 -12 q49 -27 69 -111q14 -58 14 -110q0 -24 -3 -46q-8 -78 -50 -150.5t-106.5 -129t-132 -98.5t-143.5 -76q-28 -11 -68.5 -22t-56.5 -7q-7 2 -7 9t7 9h11q30 2 81 21q120 45 223.5 120.5t168.5 172.5q56 83 56 186q0 10 -1 21q-1 30 -6 60.5t-16 64.5t-33.5 55.5t-53.5 21.5 q-71 0 -161 -90q-77 -76 -134.5 -179.5t-86 -191t-60.5 -215.5q-2 -11 -8 -19.5t-13 -4.5q-9 5 -14 31z" />
<glyph unicode="c" horiz-adv-x="770" d="M51 422q7 103 63.5 197.5t149.5 154.5t197 60q36 0 83 -9t62 -26q16 -25 19 -35q3 -11 -10 -13q-13 0 -13 11q1 6 -4 14.5t-10 11.5q-39 25 -123 25q-52 0 -82 -10q-128 -37 -215 -142.5t-96 -238.5q-2 -21 -2 -42q0 -89 36 -157q59 -108 222 -108q38 0 75 6 q86 10 259 51q5 1 35.5 9t35.5 9q9 1 11.5 -8t-5.5 -12q-48 -12 -51 -12q-198 -50 -305 -60q-30 -3 -57 -3q-156 0 -220 93q-57 79 -57 194q0 20 2 40z" />
<glyph unicode="d" horiz-adv-x="737" d="M63 334v15q0 192 74 351q39 81 102.5 143t129.5 62q45 0 96 -41.5t76 -85.5q6 -13 -4 -14t-17 8q-14 20 -52.5 58.5t-55.5 46.5q-24 8 -37 8q-44 0 -92.5 -35t-79.5 -80q-72 -101 -103 -254q-16 -89 -16 -162q0 -44 6 -82q5 -35 17.5 -72t41 -69.5t64.5 -32.5 q135 0 328 656q28 98 28 104q6 129 21 254q0 1 4.5 29t9.5 47.5t10 25.5q5 4 12.5 3.5t10.5 -5.5q7 -10 7 -41q0 -21 -3 -51q-10 -107 -51 -266v-4q-4 -89 -4 -173q0 -359 73 -628q2 -7 -2.5 -10.5t-10 -2t-7.5 8.5q-73 272 -73 633q0 44 1 90q-99 -350 -215 -563 q-15 -28 -26 -45t-29.5 -39t-40 -32.5t-47.5 -10.5q-37 0 -66.5 28t-46 70t-24.5 82.5t-9 75.5zM596 971q27 131 27 196v9q-16 -76 -27 -205z" />
<glyph unicode="e" horiz-adv-x="688" d="M45 385q3 102 43 186q44 98 141 177t193 79q15 0 39 -4q45 -11 75 -41q22 -22 22 -49q0 -10 -3 -20q-10 -43 -99 -92t-179 -79t-136 -36q-33 -4 -53 4q-23 -75 -22 -138q0 -34 6 -65q33 -149 225 -149q90 0 262 32q6 1 46 11.5t46 11.5q9 2 11 -7.5t-7 -12.5 q-211 -56 -360 -56q-167 0 -225 113q-25 52 -25 120v15zM96 539q0 -11 2 -11q7 -2 16 -2q65 0 246 74q71 25 127 64q26 18 41 42t4 46q-12 27 -44.5 41t-65.5 14q-100 0 -192.5 -83.5t-133.5 -184.5z" />
<glyph unicode="f" horiz-adv-x="688" d="M43.5 862q8.5 10 19.5 10q5 0 8.5 -3.5t0.5 -10.5q55 2 182 19q27 163 68 284q9 32 21 61.5t31 61.5t46 51t59 19q26 0 39 -8q26 -14 47.5 -39t44 -59.5t37.5 -51.5q10 -12 0 -20q-5 -2 -10 2q-22 19 -56.5 73t-62.5 72q-15 10 -39 10q-31 0 -58.5 -26t-48.5 -71.5 t-37.5 -92.5t-28.5 -104t-18.5 -91t-11.5 -67q51 6 205 28q7 1 11 -3.5t2 -10t-9 -6.5q-36 -5 -106.5 -15.5t-106.5 -15.5q-44 -270 -53 -539q0 -228 29 -270q1 -2 2 -0.5t3 6t3 6.5q5 6 12 1.5t4 -11.5q-2 -8 -8 -16t-12 -8q-9 0 -17.5 7t-11.5 15q-14 35 -22 113 q-3 42 -3 84t3 86q9 271 49 524q-78 -12 -164 -18q-35 0 -41 4q-10 10 -1.5 20z" />
<glyph unicode="g" horiz-adv-x="866" d="M6 -300q2 45 21 83q39 77 121.5 146.5t166.5 97.5q1 0 8.5 2t8.5 2q9 1 11.5 -6.5t-5.5 -12.5q-1 -1 -7.5 -3t-8.5 -3q-117 -38 -222 -151q-40 -44 -64 -104q-12 -31 -12 -56q0 -24 11 -43q16 -31 67 -31q98 0 318 99.5t295 166.5q22 23 22 41q0 25 -37 45 q-59 43 -178 70q-37 9 -84.5 16.5t-72.5 10.5t-91.5 10t-78.5 8q-80 9 -101 22q-24 15 -18 42q7 27 22 45q31 49 90 104q-59 17 -94 49q-36 42 -39 82q-1 10 -1 21q0 56 36 116q27 51 81.5 114t119.5 119t136.5 94t125.5 38q39 0 59.5 -36t20.5 -79q0 -2 -3 -6h1l97.5 22.5 t96.5 22.5q12 2 15 -8q0 -7 -6 -10q-11 -4 -52.5 -14t-88 -20t-52.5 -11q-1 0 -9 -3.5t-9 -3.5q-7 -1 -9.5 2.5t-0.5 9t8 9.5q-4 1 -6.5 5.5t-3.5 9t-2 12.5t-1 10q-2 22 -13 43t-28 24q-16 3 -32 0q-75 -11 -168.5 -77t-166.5 -148.5t-104 -150.5q-22 -46 -22 -87 q0 -21 6 -40q11 -35 48.5 -60t78.5 -31q32 29 52 29q7 0 13 -4q7 -4 4.5 -12t-10.5 -6q-1 0 -3 1t-3 1q-10 2 -27 -15q26 -2 51 -2q68 0 131 17q87 24 149 85.5t71 149.5q2 19 2 37q0 49 -12 98q-16 66 -60 86q-25 9 -54 9q-14 0 -30 -2q-33 -2 -108 -19q-7 -2 -11 2 t-3.5 9.5t6.5 7.5q6 3 28.5 7.5t28.5 4.5q48 10 90 10q49 0 78 -20q33 -21 50 -72q17 -47 17 -94q0 -4 -1 -8q-1 -51 -9 -95q-18 -78 -77 -132.5t-132.5 -77.5t-154.5 -23q-35 0 -70 6q-50 -44 -92 -102q-25 -39 -25 -54q0 -10 17 -16q22 -8 108.5 -18.5t124.5 -12.5 q169 -21 287 -63q24 -9 44.5 -19t41.5 -24.5t31 -33t6 -38.5q-9 -50 -166 -133q-5 -3 -8 -4q-343 -176 -476 -176q-49 0 -77 22q-23 27 -23 69v6z" />
<glyph unicode="h" horiz-adv-x="747" d="M104 211q-2 33 -2 83t2 116q0 20 16 374q14 314 13 396v18q-3 -8 -11.5 -6.5t-8.5 10.5q0 28 14 45q4 5 11.5 3t8.5 -9q7 -16 7 -102q0 -140 -16 -429q-15 -272 -15 -420v-18q0 -19 4 -67.5t8 -61.5q7 9 17 32t19 48t20.5 60t18.5 57.5t16 52t10 33.5q52 160 110 262 q45 84 106.5 163.5t116.5 86.5q23 0 41 -12q43 -37 43 -244q2 -118 2 -188q-1 -18 -1 -33q0 -74 -3 -222t-4 -223q0 -12 -10 -12t-10 12q0 3 2.5 117t3.5 199.5t1 202.5q0 15 1 29q1 99 -3 170q-4 82 -11 116q-10 66 -43 68q-19 1 -42 -14t-45 -39.5t-38.5 -46.5t-32.5 -45 l-6 -9q-95 -145 -166 -365q-9 -28 -26.5 -85.5t-26.5 -86.5q-2 -4 -11.5 -29.5t-18.5 -45.5t-15 -25q-9 -6 -15 -6q-21 0 -31 90z" />
<glyph unicode="i" horiz-adv-x="247" d="M70 1075q8 33 34 62q-6 3 -3 10.5t10 7.5q56 0 71 -29q14 -23 15 -48q0 -23 -13 -48q-17 -33 -55 -33q-23 0 -43 17q-18 21 -18 46q0 7 2 15zM83 330q0 37 0.5 80.5t0.5 50.5q0 252 6 293q0 1 2 5t2 5q10 11 19.5 -2t-1.5 -18q-1 -1 -3 -1q-3 -41 -3 -202q0 -20 -2 -96.5 t-2 -110.5t3 -92t10 -105q11 -7 0.5 -18.5t-18.5 -0.5q0 1 -1 3q-5 14 -8 48t-4 79t-1 82zM88 1055q1 -17 14 -27t29 -10q17 0 27 10q15 15 17.5 42t-9.5 44q-10 15 -35 19q-43 -37 -43 -78z" />
<glyph unicode="j" horiz-adv-x="303" d="M-379 -119q-3 9 5.5 13.5t13.5 -3.5l12 -24q39 -81 128.5 -124.5t186.5 -43.5q56 0 108 18.5t72 59.5q32 59 48 194q6 63 6 149q0 140 -17 339q-20 232 -26 344v16q3 8 10 8q12 0 19 -13q5 -9 -7 -13h-2q7 -112 33 -414q12 -148 12 -264q0 -304 -80 -389 q-53 -56 -180 -56q-109 0 -207.5 53.5t-134.5 149.5zM43 1155q2 27 21 66t42 39q-8 0 -14 -3q-9 -1 -11.5 7.5t3.5 13.5q8 4 25 4q21 -4 45.5 -34t35.5 -56q6 -15 6 -29q0 -23 -16 -43q-28 -34 -74 -39q-32 -4 -51 19q-16 19 -12 55zM66 1165q-5 -25 1.5 -44t26.5 -19h7 q33 0 59 26q16 13 16 37q-1 19 -22.5 49t-40.5 43q8 -10 -15 -24q-24 -17 -32 -68z" />
<glyph unicode="k" horiz-adv-x="729" d="M98 1286q-8 38 0 45q6 7 11.5 2.5t5.5 -14.5q0 -26 20 -96q9 -50 12 -101q4 -52 6 -111q3 -59 3 -102v-32q0 -35 -1 -83q-1 -72 -1.5 -102.5t-3 -113.5t-3.5 -105q81 63 134.5 107.5t121 110.5t115.5 128q4 7 11.5 21.5t11.5 21.5q5 6 13 3.5t7 -11.5q-3 -9 -20.5 -36 t-26.5 -38q-36 -45 -86 -94t-84.5 -78.5t-103 -85t-93.5 -76.5q-1 -2 -1 -5t1 -3q20 -2 168 -2q55 -2 114.5 -10.5t140 -24t114.5 -20.5q9 -1 9 -11t-9 -10q-18 0 -121 23q-141 27 -221 31q-12 1 -98 2t-99 2q-4 -146 -4 -195v-16q0 -58 9 -113q15 -4 7 -17q-7 -13 -16 -6 q-2 2 -4 5q-16 24 -16 119v17q0 53 4 212q-18 9 0 31q1 26 5 132t5 149.5t2 127.5v40q0 59 -2 109q-3 66 -10 132q-5 53 -27 141z" />
<glyph unicode="l" horiz-adv-x="247" d="M104 35v11q0 30 3 116q4 108 4 117q6 200 6 412q0 173 -4 353q0 8 -1 59.5t-1 59.5q5 28 10 37q5 8 13 4.5t5 -12.5q-7 -23 -7 -74q0 -20 1 -45q4 -160 4 -335q0 -271 -10 -578q0 -4 -1 -39t-1 -64.5t2 -38.5q6 5 12.5 1t3.5 -11q-4 -10 -14 -13t-16 5q-9 9 -9 35z" />
<glyph unicode="m" horiz-adv-x="1218" d="M72 770v14q0 8 8.5 9.5t11.5 -7.5q2 -6 2 -38q0 -22 1 -186.5t3 -310t8 -185.5q3 9 12 45.5t19.5 77.5t12.5 47q63 247 149 423q37 72 89 133q51 60 99 60h2q11 0 23 -6q35 -21 41 -154q2 -27 8.5 -278t10.5 -291q6 17 27 78.5t35.5 100t31.5 75.5q15 34 42.5 82.5 t67.5 109t82 111t88.5 85t83.5 34.5q28 0 47 -20.5t29 -67t13.5 -73.5t7.5 -88q0 -3 0.5 -5.5t0.5 -5.5q2 -24 11.5 -194.5t17.5 -260.5q0 -11 -9.5 -11.5t-10.5 9.5q-7 72 -12 152t-10.5 183.5t-8.5 153.5q-15 170 -49 199q-11 8 -25 8q-35 0 -84 -39q-54 -44 -102 -104 t-81.5 -114.5t-68.5 -132.5t-55 -130.5t-49 -136.5q-13 -39 -25 -39q-4 0 -7 2t-4.5 7t-2 8.5l-1.5 10.5t-1 9q-5 43 -11.5 299.5t-7.5 275.5q-7 113 -28 131q-6 6 -17 6q-18 0 -45 -18q-43 -34 -83.5 -95.5t-68.5 -123.5t-56.5 -147t-43 -138t-32.5 -125q-1 -3 -9.5 -40 t-16.5 -65.5t-13 -37.5q-5 -8 -13.5 -8.5t-13.5 6.5q-8 16 -8 47q-6 52 -8.5 356t-3.5 328z" />
<glyph unicode="n" horiz-adv-x="696" d="M57 852q-2 9 7.5 12t13.5 -6q0 -2 3 -16.5t3 -16.5q22 -80 26 -184q1 -12 5 -125.5t10 -210t12 -125.5q2 4 5 12.5t5 12.5q7 22 31.5 106t40.5 129q17 50 43 112.5t68 149t90.5 143t89.5 56.5q81 0 106 -248q11 -135 11 -372v-166q0 -2 1.5 -8.5t1 -11t-4.5 -7.5 q-5 -3 -8.5 -2t-6.5 9.5t-4 15.5t-2 16v35q0 54 2 150q1 56 1 105q-1 69 -3 123q-4 94 -16 185q-26 136 -66 154q-7 3 -15 3q-35 0 -83 -65q-55 -73 -106.5 -185.5t-86.5 -221.5q-1 -2 -61 -201q-15 -46 -27 -53q-11 -5 -17.5 5t-10.5 27q-10 38 -21.5 297.5t-17.5 292.5 q-1 5 -9.5 37t-9.5 37z" />
<glyph unicode="o" horiz-adv-x="669" d="M53 485q11 83 63.5 199t110.5 174q32 28 66 31q-6 6 -2.5 12.5t12.5 5.5q67 -13 107 -24.5t82 -33t64.5 -50.5t38 -75.5t19.5 -111.5v-33q0 -137 -30 -231q-27 -94 -92.5 -146t-163.5 -52q-91 0 -166.5 51.5t-102.5 136.5q-10 39 -10 86q0 29 4 61zM78 350 q21 -81 95.5 -131.5t160.5 -50.5q64 0 112 26t75.5 66t44.5 96.5t22.5 108t5.5 110.5q0 117 -35 181q-36 77 -164 110q-3 -7 -10.5 -7.5t-21 3.5t-17.5 4q-17 1 -30 1q-34 0 -50 -7q-42 -21 -92.5 -112t-73.5 -160q-31 -86 -31 -161q0 -40 9 -77z" />
<glyph unicode="p" horiz-adv-x="761" d="M49.5 9.5q0.5 5.5 7.5 8.5q9 3 29 10.5t29 10.5q0 22 3 327q3 236 3 319v34q-2 5 -6 -7q-1 -2 -2 -5q-7 -14 -7 -33q-3 -8 -11.5 -6.5t-8.5 10.5q0 34 26.5 61t57.5 40t66 20q47 8 102 8q54 0 110.5 -9t115.5 -28t101 -57.5t52 -89.5q5 -22 5 -44q0 -41 -17 -83 q-26 -63 -93 -134q-217 -237 -477 -337q9 -311 19 -437q14 0 14 -12q0 -28 -6 -37q-4 -6 -12 -5.5t-9 7.5q-10 20 -10 88q-11 172 -14 389q-27 -9 -51 -18q-8 -3 -12.5 0.5t-4 9zM135 47q142 57 269.5 151.5t224.5 213.5q60 74 71 143q1 12 1 24q0 64 -42 109 q-50 53 -141 75.5t-184 22.5q-118 0 -195 -49q2 -34 2 -80q0 -11 -1 -23q0 -61 -1.5 -151t-1.5 -102q-2 -111 -2 -334z" />
<glyph unicode="q" horiz-adv-x="819" d="M60 191q-3 38 -3 75q0 39 4 76q8 71 23 127q15 55 51 127.5t85.5 143t114 119t124.5 48.5q30 0 55 -14q13 -7 26.5 -18.5t20.5 -19.5t22 -25.5t19 -22.5q8 -9 0.5 -16t-16.5 2q-3 4 -12.5 15.5t-13.5 17t-13 15t-15 15.5t-15 12.5t-17 10.5q-13 8 -35 8q-40 0 -88 -28 t-84 -64q-119 -122 -174 -284q-40 -119 -40 -241q0 -45 5 -90q8 -60 27 -84q13 -18 43 -18q55 0 127.5 66t139 162t131 209.5t107.5 200.5t66 144q12 46 18 55q5 6 12.5 2.5t6.5 -10.5q0 -5 -8.5 -27t-8.5 -24q-12 -31 -26.5 -147t-16.5 -166q-6 -101 -6 -259q0 -126 4 -288 q0 -66 5.5 -171.5t17.5 -135.5q12 5 13 -9q1 -10 -7 -16q-12 -9 -20.5 5.5t-12.5 37.5q-12 76 -16 227q-4 143 -4 428q4 256 29 402q-28 -60 -66.5 -134.5t-102 -180.5t-125 -189.5t-132.5 -143t-127 -59.5q-33 0 -54 21q-30 34 -38 113z" />
<glyph unicode="r" horiz-adv-x="526" d="M74 127q12 557 12 691v30q-7 3 -7 11t5 15q3 7 11.5 4.5t8.5 -10.5q2 -21 2 -103q0 -151 -8 -511q12 67 27 136.5t44.5 169t62.5 177.5t81.5 142.5t100.5 83.5q31 8 57.5 -3.5t32.5 -39.5q2 -8 -7.5 -11t-13.5 4q0 1 -4 11t-8 14q-11 8 -27 8q-36 0 -79 -39 q-54 -50 -100 -143.5t-77 -204.5t-50 -201t-32 -178q0 -1 -5 -34.5t-7 -39.5q-1 -6 -9 -5t-9 8q-2 4 -2 18z" />
<glyph unicode="s" horiz-adv-x="788" d="M25.5 178.5q3.5 9.5 15.5 5.5q219 -67 365 -67q37 0 103.5 6t142 24.5t81.5 45.5q1 4 1 8q0 38 -68 106q-26 30 -72 64q-52 39 -156.5 108.5t-152.5 104.5q-23 16 -64 53q-37 37 -45 63q-4 13 -4 25q0 23 14 43q27 41 103.5 80t124.5 39q15 0 35 -4q19 -6 39.5 -16 t46 -24t38.5 -20q2 -1 33.5 -15.5t36.5 -19.5q7 -6 3.5 -13.5t-11.5 -4.5q-13 5 -96.5 46.5t-96.5 45.5q-20 4 -30 4q-23 0 -50 -10q-49 -17 -99.5 -46.5t-63.5 -61.5q-5 -10 -5 -20q0 -48 95 -122q55 -42 169 -117.5t169 -117.5q73 -61 106 -111q22 -37 22 -62q0 -9 -3 -18 q-12 -31 -91.5 -51.5t-149.5 -26.5t-118 -6q-146 0 -360 70q-11 3 -7.5 12.5z" />
<glyph unicode="t" horiz-adv-x="512" d="M29 819.5q-1 8.5 8 11.5h20q32 1 91.5 6.5t76.5 6.5q4 122 4 188q0 25 -2 29q-5 8 -0.5 15t13.5 1q10 -6 10 -45q0 -62 -4 -188q66 5 151 5q36 0 76 -1q7 0 10 -5t1 -10.5t-9 -5.5q-40 1 -77 1q-86 0 -154 -5q-1 -29 -5 -115t-5.5 -123.5t-4 -112t-3 -123t-0.5 -113 t1 -121.5v-13q-4 -12 -14 -2q-6 5 -6 13q-1 39 -1 90q0 212 17 620q-155 -12 -181 -12h-3q-9 0 -10 8.5z" />
<glyph unicode="u" horiz-adv-x="655" d="M51 760q2 11 13 33t20 28q11 9 14.5 -6t3.5 -39q0 -427 68 -602q28 -70 59 -70q33 0 76 76q81 139 135.5 302t108.5 382q9 19 10 19q6 3 10.5 -1.5t3.5 -11.5q-17 -257 -17 -438q0 -71 3 -129q4 -105 23 -174q13 8 15 -6q2 -16 -12 -20q-2 -1 -5 -1q-14 0 -25 43 q-18 99 -18 271q-1 31 -1 63q0 137 11 289q-118 -453 -246 -631q-38 -53 -74 -53q-47 0 -79 89.5t-44.5 224.5t-17 224.5t-4.5 157.5q-1 -1 -3.5 -7.5t-5 -12t-3.5 -6.5q-3 -7 -12 -4.5t-7 10.5z" />
<glyph unicode="v" horiz-adv-x="671" d="M31 887q-1 9 6.5 12t13.5 -2q18 -9 21 -12q8 -6 2 -13.5t-15 -3.5q37 -90 108 -301.5t120 -320.5q5 -14 21.5 -45.5t23.5 -38.5q7 5 16 31q13 38 41.5 129t46.5 139q21 55 48 115t60.5 131.5t51.5 111.5q1 2 13.5 34.5t15.5 37.5q5 8 12 5.5t6 -11.5q-1 -10 -16.5 -47.5 t-22.5 -49.5q-17 -38 -49.5 -108t-58 -127.5t-45.5 -110.5q-5 -15 -42.5 -130t-43.5 -132q-13 -31 -25 -39q-15 -6 -29 13q-29 38 -81.5 176t-105.5 296t-65 187q-26 66 -28 74z" />
<glyph unicode="w" horiz-adv-x="1126" d="M33 795q-4 6 0 12q25 25 43 12q10 -11 28 -63q36 -103 86.5 -299t65.5 -248q8 -34 26 -78t35 -49q12 -3 23 18q28 50 68 221.5t62.5 297.5t39.5 231q2 12 12 15t13 -9q0 -219 73 -438q12 -37 40 -103.5t71.5 -136t73.5 -69.5q67 0 230 531q5 16 7 22q35 114 35 166 q0 18 -4 28q-2 7 0.5 12t7 5.5t8.5 -3.5q8 -10 8 -37q0 -30 -10 -79q-36 -185 -166 -504q-42 -103 -70 -135q-20 -24 -40 -27q-4 -1 -7 -1q-46 0 -106 103q-149 259 -168 576q-66 -377 -127 -590q-33 -103 -61 -113q-5 -2 -11 -2q-28 0 -51 54q-22 50 -45 139 q-11 40 -31 120.5t-33 130t-33 118t-40 125.5q-1 2 -5 16t-9 24.5t-9 14.5q-3 1 -6 -1t-6 -5l-4 -4q-7 -7 -14 2z" />
<glyph unicode="x" horiz-adv-x="720" d="M31 45q-4 11 24 53q23 35 133.5 178.5t155.5 200.5l-35 63t-44 76.5t-38 61.5q-47 74 -125 104q-1 0 -3.5 1t-4.5 1.5t-4 -0.5q-16 -8 -20 4q-3 11 12 16l4 1q19 0 50 -17t52 -34q35 -27 82 -107q10 -16 88 -153q147 187 254 292q21 18 52 25q10 1 13.5 -7t-5.5 -13 q-1 0 -12 -2.5t-13 -2.5q-32 -16 -123.5 -123t-154.5 -188q21 -40 51 -91.5t75.5 -124t90.5 -124t73 -57.5h23q9 0 10 -10t-8 -11h-10q-21 0 -43.5 12.5t-47.5 40.5t-36 42t-35 47q-4 5 -6 8q-65 95 -152 250q-269 -344 -301 -400q6 -11 -6 -17.5t-16 5.5z" />
<glyph unicode="y" horiz-adv-x="655" d="M25 809q-2 8 3.5 12t12.5 0q2 -1 5.5 -5.5t4.5 -6.5q204 -278 336 -533q136 280 207 463q2 8 7.5 16.5t10.5 8.5q6 0 9.5 -5.5t1.5 -10.5q-9 -9 -11 -15q-59 -160 -213 -479q38 -78 41 -86t-0.5 -12.5t-9 -3.5t-8.5 8q-5 11 -16.5 34t-16.5 35q-51 -107 -311 -645 q-3 -7 -9 -8t-9.5 4t-0.5 12q17 36 137 283.5t181 378.5q-23 47 -68 121q-137 235 -239 373q-2 4 -22.5 29.5t-22.5 31.5z" />
<glyph unicode="z" horiz-adv-x="806" d="M29 66q-2 4 -2 8q0 21 36 61q13 15 39.5 42t34.5 36q21 21 269 247.5t286 266.5q16 16 35.5 41.5t20.5 38.5q0 18 -52 41q-77 24 -157 24q-95 0 -242 -34q-113 -25 -123 -25q-13 0 -9 10q5 9 15 11q37 5 110.5 22.5t110.5 22.5q67 12 140 12q71 0 131 -14q83 -24 92 -54 q3 -7 3 -15q0 -27 -32 -63q-42 -50 -319 -305.5t-279 -257.5q-53 -53 -78 -82q-1 -2 -3 -4.5t-3 -4.5t-2.5 -4.5t-2.5 -4.5t-1 -3.5t1 -3t3 -1.5q13 -4 42 -4q68 0 222 22q261 27 344 33q35 4 58 4.5t33 -4.5q11 -4 4 -14q-5 -6 -13 -5q-21 3 -43 0q-106 -6 -301.5 -27 t-249.5 -26q-39 -3 -65 -3q-13 0 -23 1q-22 4 -30 15z" />
<glyph unicode="{" horiz-adv-x="688" d="M78 453q12 23 98 30q100 9 133 15q65 17 82 47q16 29 4 84q-11 55 -42.5 130t-57.5 145.5t-29 131.5q-3 43 17 88q28 72 87 119t126 67t147 23q9 0 12 -5t0 -10t-12 -5q-241 -7 -332 -174q-27 -52 -24 -103q5 -77 59.5 -208.5t65.5 -176.5q19 -72 0 -112q-19 -42 -86 -58 q-31 -8 -92.5 -12t-86.5 -8q-44 -11 -49 -15q-7 -6 0 -14t56.5 -40t52.5 -34q61 -46 72 -102q11 -51 -21 -145q-40 -100 -55 -150q-15 -68 -4 -108q26 -80 161 -80q52 0 109.5 11t91.5 34q6 0 14 8q8 3 12.5 -5t-1.5 -14q-15 -10 -43 -24q-71 -31 -183 -31q-52 0 -102 15 q-86 30 -86 127q2 56 39.5 155t44.5 129q11 57 -4 94q-9 21 -27 40.5t-32 30t-44.5 30t-39.5 26.5q-47 28 -31 54z" />
<glyph unicode="|" horiz-adv-x="342" d="M131 977q0 165 27 264q31 93 41 113q6 8 14 2.5t4 -15.5q-50 -116 -57 -202q-10 -95 -6 -285q7 -222 32 -530q5 -88 21 -255t29 -210q0 -1 1 -4.5t1 -4.5q2 -8 -6.5 -10.5t-12.5 4.5q-15 24 -24 150q-20 208 -41 491q-23 377 -23 492z" />
<glyph unicode="}" horiz-adv-x="585" d="M30.5 -242q1.5 5 7 6t11.5 -2q39 -27 68 -32q28 -6 82 10q70 27 110 76q58 75 31 207q-9 46 -37 129t-35 106q-23 84 -16 117q8 39 51 69q30 22 90.5 51.5t79.5 41.5q-15 4 -57 10t-64 14q-49 14 -67 47q-16 31 -9 74q8 56 44.5 165t44.5 165q10 71 -3 123 q-26 92 -143 133q-33 11 -137 24q-19 5 -25 11q-5 8 1.5 15t15.5 7q13 0 10 -12q45 -5 79 -11t76 -20.5t70 -35t50 -55t28 -79.5q6 -46 -2 -101t-18.5 -91.5t-30.5 -98.5q-1 -2 -10 -27.5t-11.5 -35t-9.5 -34t-8 -38t-1.5 -32t4.5 -31t15 -21.5q25 -20 91 -33q5 -1 25.5 -4 t38.5 -6.5t24 -7.5q17 -17 -27 -41q-7 -4 -60.5 -30.5t-80.5 -43.5q-40 -31 -47 -49q-14 -30 -3 -78q10 -48 41 -138.5t41 -135.5q26 -117 -10 -195q-25 -52 -89.5 -92.5t-123.5 -40.5q-48 0 -100 41q-6 5 -4.5 10z" />
<glyph unicode="~" horiz-adv-x="837" d="M53.5 467.5q-1.5 5.5 3.5 11.5q1 1 18.5 21.5t24.5 28.5t24.5 26.5t29.5 28t27.5 21.5t29.5 17t27 5q25 0 63 -33q8 -9 56.5 -67.5t80.5 -80.5q44 -28 84 -28q62 0 127 61q32 32 72 87t43 83q1 7 6 9.5t9.5 0t4.5 -9.5q0 -8 -2 -16.5t-4.5 -15t-7.5 -15.5t-8 -13.5 t-10 -14.5t-9 -13q-106 -162 -227 -162q-46 0 -82 25t-76 70q-5 6 -24.5 30.5t-32.5 39t-32 28.5t-33 14q-49 -4 -164 -141q-5 -6 -11 -4.5t-7.5 7z" />
<glyph unicode="&#xa1;" horiz-adv-x="309" d="M78 725q-1 34 21.5 61.5t54.5 32.5q7 1 11 -4t-1 -10q31 -9 35 -38.5t-17 -57t-53 -33.5q-21 -4 -35 11t-16 38zM101 713.5q5 -17.5 20 -17.5q6 0 18 6q27 15 37.5 41.5t-12.5 38.5q-2 1 -15.5 4.5t-15.5 4.5q-19 -14 -28 -37t-4 -40.5zM160 -406q4 54 12 144t12.5 143.5 t10 143.5t5 144t-2.5 144q-4 85 -29 123q0 1 -2 4t-2 4q-4 7 3 13t13 0q8 -16 13 -21q51 -105 6 -608q-15 -201 -17 -231q-2 -13 -13 -13q-9 1 -9 10z" />
<glyph unicode="&#xa2;" horiz-adv-x="729" d="M88 377q12 100 56.5 191.5t125 160t179.5 82.5q15 56 38 156q3 13 14 11q8 -3 7 -13q-13 -65 -37 -150q57 6 123 -4q20 -3 34.5 -17t14.5 -32q0 -9 -9.5 -10t-10.5 8q-5 23 -19 26q-17 7 -69.5 9t-69.5 -2q-29 -104 -93 -309.5t-93 -309.5q55 -3 110 17t123 57 q66 32 100 74q5 6 11 6t9.5 -4.5t0.5 -10.5q-18 -31 -90.5 -71t-130.5 -64q-79 -29 -140 -24q-2 -7 -10.5 -39.5t-12 -53.5t-3.5 -41q0 -15 6 -30q2 -6 -1 -10.5t-7.5 -4t-7.5 4.5q-8 9 -10.5 26t1 39t7 39t10 41t8.5 31q-85 21 -129 86q-41 60 -35 135zM113 386 q-10 -74 20 -124q44 -69 125 -86q28 100 91.5 304.5t92.5 310.5q-136 -25 -221 -140q-38 -50 -68 -120.5t-40 -144.5z" />
<glyph unicode="&#xa3;" horiz-adv-x="890" d="M71.5 578.5q-5.5 7.5 2.5 13.5q8 8 26 8q151 32 330 35q-2 62 -15 175.5t-16 156.5q-7 97 13 159q25 71 96 109.5t151 38.5q38 0 62 -12q25 -13 50.5 -47.5t25.5 -59.5q0 -9 -9 -10.5t-12 6.5q-8 34 -16 47q-27 39 -64 51q-24 4 -37 4q-55 0 -116 -26t-88 -62 q-19 -25 -28 -60t-8.5 -68.5t1.5 -69.5q3 -43 16 -156.5t15 -175.5q1 1 146 0.5t146 -0.5q12 0 12 -10.5t-12 -10.5q-32 0 -91.5 0.5t-108 0.5t-92.5 -1q3 -97 -11 -184q-15 -117 -79 -215t-164 -156q185 49 302.5 70.5t272.5 28.5q10 1 11 -8q1 -11 -11 -13 q-312 -13 -661 -127q-9 -1 -14.5 5t-0.5 12q1 1 31 16q221 105 281 326q26 90 22 245q-49 0 -185.5 -13t-158.5 -26q-9 -4 -14.5 3.5z" />
<glyph unicode="&#xa4;" horiz-adv-x="860" d="M72 399q0 6 4 11q65 45 121 75q8 5 33 16.5t32 12.5t11 -6t-1 -12q-6 -4 -39 -15q-56 -27 -145 -90q-6 -4 -11 -1t-5 9zM139 1042q-1 9 7.5 12t11.5 -3q1 -1 4 -8.5t6 -13.5t4 -7q33 -58 127 -102q2 -2 9.5 -5.5t16 -7.5t9.5 -4q9 -4 5 -12.5t-13 -5.5q-53 18 -116 66 t-71 91zM270 602q-8 49 11 121q17 76 88 185.5t135 135.5q10 3 12.5 -6t-6.5 -14q-70 -34 -139.5 -151.5t-79.5 -202.5q-7 -61 10 -97q18 -35 56.5 -53t84.5 -18q33 0 66 10q0 2 -2 12.5t-2 12.5q7 15 18 4l6 -21q48 23 78.5 74t42.5 111q16 84 -10 131q-7 -7 -18.5 -24 t-18.5 -24q-5 -6 -12 -1t-4 12t18.5 27.5t22.5 27.5q-7 8 -14.5 14.5t-17.5 12.5t-17 10.5t-20.5 9.5t-19 7.5t-21.5 7t-20 5.5t-22 6t-20 5q-6 2 -7.5 7.5t1.5 10t10 2.5q6 0 36.5 -9t32.5 -9q76 -26 113 -68q17 17 67.5 53.5t69.5 43.5q6 2 9.5 -2t3 -10t-6.5 -9 q-71 -38 -131 -92q20 -30 23 -68q6 -115 -66 -217q-27 -43 -75 -65q15 -49 44 -117.5t52 -91.5q10 -10 -1 -18q-6 -5 -12 1q-27 22 -45 70q-26 53 -57 148q-41 -13 -74 -13q-63 0 -111.5 32.5t-60.5 90.5z" />
<glyph unicode="&#xa5;" horiz-adv-x="897" d="M90 1255q-2 11 5.5 18t17.5 3q53 -19 135 -250q4 -11 36 -102.5t61.5 -172t39.5 -102.5q14 2 47 2q3 6 9.5 6.5t9.5 -4.5h43q43 61 157.5 288t141.5 302q-2 4 -2 6q0 8 8.5 9.5t11.5 -7.5q4 -11 -10 -39q-14 -36 -92 -200q-5 -11 -24.5 -51.5t-26.5 -55t-24 -49 t-27.5 -54t-26 -48t-30.5 -52.5t-30 -47q6 0 38 0.5t59 1t56 -1t40 -4.5q8 -3 6.5 -11.5t-10.5 -8.5q-1 0 -11.5 2t-11.5 2q-39 3 -182 -2q-33 -42 -53 -51l-5 -2q-4 -3 -4 -5q0 -60 4 -174q72 9 275 50q13 3 14 -8q2 -10 -8 -11q-169 -37 -281 -51q2 -43 5.5 -131.5 t5.5 -134.5q0 -8 -5.5 -11.5t-10.5 -1t-5 10.5q-4 88 -8 264q-25 -3 -114 -14.5t-136 -16.5q-23 -6 -28 4q-4 6 1 10.5t13 4.5q15 1 72 8t118 15t72 9q-4 118 -4 178q-27 9 -49 54q-122 -4 -180 -4q-17 0 -28 0.5t-24 3.5t-17.5 10t-0.5 18q3 12 13 6q6 -5 5 -14 q37 -4 110.5 -3t110.5 3q-10 24 -63 173t-59 165q-76 219 -129 268q-3 -7 -11 -7t-10 7zM395 631q11 -25 27 -33q1 5 2 16.5t2 16.5h-31zM442 600q21 12 35 33q-21 0 -31 -2q-1 -5 -2 -15.5t-2 -15.5z" />
<glyph unicode="&#xa6;" horiz-adv-x="352" d="M88.5 1289q-2.5 8 5.5 11q21 7 27 5q27 -10 33 -95q0 -4 6 -200q0 -12 -10.5 -12t-10.5 12q0 8 -1 53.5t-2 82.5t-5.5 76.5t-11.5 53.5q0 8 -4 8q-1 0 -7.5 -1t-7.5 -1q-9 -1 -11.5 7zM190 -178q-10 193 11 463q2 15 12 112.5t12 112.5q3 20 17 37q6 7 13.5 2.5 t2.5 -12.5q-1 -2 -6 -12.5t-6 -16.5q-6 -41 -20.5 -206.5t-16.5 -207.5q-6 -144 2 -270q0 -8 -5.5 -11.5t-10.5 -1t-5 10.5z" />
<glyph unicode="&#xa7;" horiz-adv-x="659" d="M11.5 -95q1.5 6 7.5 7.5t12 -2.5q49 -41 83 -65.5t85.5 -46t101.5 -21.5q57 0 107.5 18.5t70.5 54.5q13 27 10 54q-4 56 -71 143q-25 33 -119 133.5t-123 124.5q-2 2 -2.5 6.5t-1.5 5.5q-44 54 -57 103q-17 57 -6 147q13 98 55 174q19 41 55.5 67t79.5 26q17 0 27 -7 q15 -6 22 -39q2 -8 -6.5 -10.5t-11.5 4.5q-2 2 -7.5 14.5t-7.5 14.5h-26q-37 -3 -68 -27q-52 -43 -78.5 -154t-13.5 -186q10 -55 61 -116q5 4 9.5 2t5.5 -7.5t-2 -11.5q77 -47 135 -47q69 3 117.5 52.5t68.5 121.5q26 105 -16 199q-21 54 -86 123q-25 26 -102.5 93.5 t-110.5 111.5q-45 52 -39 106q6 57 61 114t115 83q26 13 53 10q39 -1 86.5 -38.5t61.5 -74.5q3 -7 -4.5 -11.5t-12.5 1.5q-5 5 -16 27q-20 30 -55.5 52.5t-69.5 22.5q-54 0 -124.5 -67.5t-76.5 -120.5q-3 -43 35 -90q35 -47 109 -109q8 -7 28 -25t30 -26.5t27 -24.5t28 -28 t24 -27t23 -30q33 -45 49 -103q26 -87 -2 -188q-20 -71 -77 -122.5t-126 -51.5q-43 0 -88 20q7 -7 46 -48t52.5 -55.5t42 -46.5t48.5 -58t38 -54q25 -38 33 -77t-8 -79q-23 -45 -80 -67.5t-117 -22.5q-57 0 -111.5 22t-85 44.5t-90.5 71.5q-6 5 -4.5 11z" />
<glyph unicode="&#xa8;" horiz-adv-x="509" d="M39 1157q0 21 12 37t31 16q9 0 10.5 -8.5t-6.5 -11.5q-2 -1 -7 -2t-7 -2l-2 -4q8 -3 23.5 -14t19.5 -17q11 -13 4 -29t-25 -16t-35.5 16.5t-17.5 34.5zM59 1161q-1 -11 9.5 -21.5t23.5 -13.5q6 -2 6 5q0 6 -4 10q-15 15 -35 20zM371 1147q-2 10 1 16.5t11 5.5 q-1 19 10 29t31 10q17 0 37 -10q12 -6 13.5 -19.5t-7.5 -23.5q-12 -12 -33 -23.5t-37 -11.5q-16 2 -26 27zM392 1149q1 -1 3 -4q1 -3 5.5 -3.5t7.5 1.5q10 2 26.5 12t20.5 19q1 3 -1 4.5t-8 3.5q-20 7 -43 0q-1 -3 -1 -9.5t-0.5 -10.5t-2.5 -7.5t-6 -3.5q-2 -1 -1 -2z" />
<glyph unicode="&#xa9;" horiz-adv-x="1060" d="M113 756q44 150 190 272q80 66 156.5 98.5t169.5 32.5q44 0 67 -4q8 0 32 -6t30 -10q6 -3 5 -9.5t-7 -9.5q73 -10 119 -36t69 -85q27 -81 12 -231q-24 -264 -161 -434q-130 -160 -287 -160q-115 0 -222.5 82.5t-156.5 196.5q-63 142 -16 303zM120.5 704 q-18.5 -109 12 -206t107 -177t184.5 -114q40 -12 82 -12q71 0 137.5 35.5t115.5 93t84.5 123.5t53.5 133q48 155 45 311q-3 75 -26 122t-85 70q-60 19 -176 27q-12 0 -12 10t12 10q16 -1 47 -4t46 -4q-59 19 -119 19q-120 0 -229 -67t-191 -173q-70 -88 -88.5 -197zM330 694 q9 83 54 159t112 120q26 17 45 12q7 -3 21.5 -18t19.5 -23q3 -4 0 -8.5t-8 -5.5t-9 2q-2 2 -8.5 10.5t-12.5 15t-9 7.5q-20 7 -66 -39q-88 -79 -115 -209q-15 -69 17 -109q20 -25 55 -41t70 -16q25 0 41 8q1 1 8 4t8 4q9 3 12.5 -5t-4.5 -13q-32 -19 -69 -19 q-38 0 -75.5 17.5t-60.5 46.5q-30 35 -26 100z" />
<glyph unicode="&#xab;" horiz-adv-x="894" d="M76 401q-6 23 6 54q7 17 31 47.5t62 70.5t64.5 67.5t67 67t41.5 40.5q-11 11 2 18q45 30 47 31q8 3 12.5 -5t-1.5 -14q-9 -9 -80 -80.5t-132.5 -135.5t-76.5 -85q-22 -30 -25 -55q-4 -67 154 -160q91 -53 221 -96q7 -3 8 -9t-3 -10t-11 -2q-49 16 -101 38t-119.5 56.5 t-113.5 77t-53 84.5zM526 469q-2 8 0.5 18t10 21.5t13 19.5t19 21.5l18.5 18.5t19 18l15 14q7 6 88 81t94 85q7 6 12.5 4t6 -7.5t-4.5 -10.5q-44 -37 -137 -123t-113 -113q-27 -38 -18 -51q6 -8 24 -17t35 -14t41 -12t27 -8q16 -5 62 -27.5t57 -32.5q9 -7 2 -14t-15 -2 q-62 40 -118 59q-3 1 -28 7.5t-37.5 11t-32 12.5t-29 18.5t-11.5 22.5z" />
<glyph unicode="&#xac;" horiz-adv-x="1044" d="M51.5 666.5q-2.5 4.5 0 9.5t9.5 6q30 4 78 16q22 5 78.5 19.5t86.5 21.5t77 17.5t87.5 18t80.5 13.5q107 15 194 15q51 0 80.5 -4t57 -18t41.5 -43t18 -76q8 -72 4 -173q-2 -39 -29 -407q-1 -12 -11 -12t-9 12q3 50 11.5 145t13 171t4.5 145q4 95 -11 157q-11 42 -32 58 q-32 26 -140 26q-63 0 -141 -10q-57 -6 -127.5 -19.5t-107.5 -22t-133 -32.5t-113 -28q-40 -10 -58 -10q-7 0 -9.5 4.5z" />
<glyph unicode="&#xad;" horiz-adv-x="0" />
<glyph unicode="&#xae;" horiz-adv-x="1138" d="M98 643q3 174 84 309q70 120 196 201.5t259 81.5q92 0 158 -31q25 -13 75 -53q8 -6 3.5 -14t-13.5 -4q-3 2 -24.5 18t-24.5 18q-64 45 -168 45q-131 0 -246.5 -71.5t-187.5 -186.5t-86 -245q-14 -158 35 -267q47 -104 138.5 -160.5t207.5 -56.5q121 0 246.5 54.5 t193.5 146.5q82 107 79 254t-91 254q-73 93 -199 168q-6 6 -14 6q-6 1 -8 6t0.5 9.5t9.5 4.5q6 0 8 -2q30 -8 119 -77q87 -71 134.5 -153t57.5 -189q13 -135 -45 -242q-67 -119 -207 -190.5t-284 -71.5q-180 0 -295 127q-55 58 -84 141.5t-27 169.5zM393 840v104q2 13 13 12 q9 -1 8 -12q0 -94 4 -141q12 40 23 53.5t48 32.5q40 16 84 16q90 0 123 -59q16 -33 -2 -70q-3 -7 -7.5 -13.5t-12 -14l-10.5 -10.5t-13.5 -12.5t-11.5 -10.5q-5 -5 -32.5 -27.5t-51 -43.5t-27.5 -32q-6 -12 23 -24q47 -17 133 -17q52 0 104 9q1 0 8.5 1t8.5 1q8 0 9.5 -9 t-7.5 -12q-33 -10 -129 -10q-143 0 -168 43q-5 10 -1.5 22.5t13.5 22.5q20 24 66 60t63 53q27 32 31 49q8 36 -24 59t-76 23q-118 0 -142 -78q0 -1 -3.5 -12.5t-7.5 -17.5t-9 -7q4 -47 20 -207t21 -196q2 -9 -7.5 -12.5t-13.5 5.5q0 1 -1 8.5t-1 8.5q-7 41 -24 224.5 t-21 240.5z" />
<glyph unicode="&#xaf;" horiz-adv-x="544" d="M33 1159q-11 10 3 17q18 7 25 -7q15 -2 43 2q282 34 400 41q8 0 11 -5t0.5 -10t-9.5 -5q-118 -7 -400 -41q-17 -3 -39 -2.5t-34 10.5z" />
<glyph unicode="&#xb0;" horiz-adv-x="436" d="M82 1096q20 74 64 132.5t108 69.5q10 1 12.5 -8t-6.5 -12q-2 0 -14.5 -3t-14.5 -3q-27 -7 -57 -41q-45 -56 -67.5 -123.5t-6.5 -128.5q10 -45 47.5 -73.5t83.5 -28.5q74 0 99 55q17 35 10 80q-4 55 -35 149q-1 2 -6 13.5t-6 13.5q-4 9 -7.5 14.5t-9.5 11.5t-12 5l-4 -2 q-9 -2 -12 7.5t6 12.5q19 6 35 -6q22 -19 42.5 -85.5t26.5 -111.5q15 -83 -20 -129q-36 -47 -107 -47q-41 0 -80.5 22.5t-56.5 57.5q-34 64 -12 158z" />
<glyph unicode="&#xb1;" horiz-adv-x="1122" d="M58 51q0 10 12 10q138 -4 316 -1.5t316 18.5q133 13 351 76q13 3 16 -7q3 -9 -8 -12q-181 -53 -305 -72q-145 -23 -341.5 -25t-344.5 3q-12 0 -12 10zM144 731q0 10 12 10q43 0 360 27q-33 375 -37 541q0 7 5 10.5t10 2t6 -8.5v-56q2 -58 6.5 -126.5t8.5 -114.5 t11.5 -129t10.5 -119q193 18 374 33q10 1 11 -8q-1 -10 -11 -11q-64 -6 -188.5 -17t-183.5 -17q2 -17 8.5 -86t8.5 -94t6 -84t4.5 -94.5t-0.5 -84.5t-5 -92q-1 -6 -6 -8.5t-9.5 -0.5t-4.5 9q0 2 1 13.5t1 13.5q7 80 0 200q-8 133 -25 308q-317 -27 -362 -27q-12 0 -12 10z " />
<glyph unicode="&#xb2;" horiz-adv-x="440" d="M-3.5 1595.5q-2.5 9.5 5.5 12.5q66 23 86 24q62 8 92 8q158 0 209 -84q23 -44 17 -90q-12 -154 -207 -383q-8 -9 -27 -31t-29.5 -34t-25 -30.5t-25.5 -35.5q-13 -26 -8 -32q9 -15 61 -15q11 0 77.5 5t99.5 5q35 0 43 -4q12 -5 4 -14q-6 -7 -15 -4q-25 5 -59 2 q-117 -10 -141 -10q-81 0 -91 30q0 7 -1.5 10t2 11t4.5 11.5t6 12t7.5 12.5t8.5 12t8.5 11.5t8 10t6.5 8.5q20 26 62 75t63 74q20 26 39 54t40.5 64t36.5 71t24.5 70t8 67.5t-15.5 56.5q-23 41 -80.5 57.5t-118.5 16.5q-87 0 -149 -29q-8 -4 -15 -4q-9 -1 -11.5 8.5z" />
<glyph unicode="&#xb3;" horiz-adv-x="567" d="M41 1554q3 18 47 48q47 38 77.5 52.5t80.5 14.5q48 0 91 -12.5t62 -38.5q18 -25 15 -55q-5 -35 -37 -76q-22 -25 -103 -84q38 12 76 12q73 0 117 -47q38 -39 36 -88t-29 -95.5t-71 -84.5q-62 -52 -136.5 -91.5t-135.5 -39.5q-16 0 -42 4.5t-34 9.5t-5.5 12t11.5 6 q1 0 11.5 -3t11.5 -3q32 -8 51 -8q55 0 131 41t137 101.5t74 113.5q13 42 -6 84q-32 66 -121 66q-28 0 -59 -7q-5 -1 -36 -10t-36 -10q-6 -2 -11 4t-1 12q4 8 26 19q92 61 122 91q52 54 34 99q-11 31 -56.5 45.5t-88.5 14.5q-48 0 -86.5 -23t-87.5 -69q9 -1 8 -11t-10 -10 q-11 0 -19.5 4t-7.5 12z" />
<glyph unicode="&#xb4;" horiz-adv-x="380" d="M47 1053q23 27 118.5 94.5t153.5 105.5q7 5 12.5 2t5 -8.5t-6.5 -9.5q-137 -87 -258 -190l-11 -9q-7 -4 -13 2.5t-1 12.5z" />
<glyph unicode="&#xb6;" horiz-adv-x="968" d="M100 815q-25 112 2 217q68 283 609 283q103 0 137 -6q23 -5 45 -41q4 -9 -4.5 -15t-14.5 2q-1 1 -9 13.5t-15 17.5q-8 6 -55 6q-240 8 -381 -28q-173 -38 -244 -134q-40 -54 -53 -129t-2 -149q15 -101 82 -145q22 -15 50 -24t67 -17.5t55 -12.5q66 -16 86 -53 q18 -29 22 -82q4 -62 -8 -184q-18 -255 -14 -362q4 -84 16 -158q1 -8 -3.5 -11.5t-10 -1t-6.5 10.5q-10 58 -14.5 117.5t-2.5 130t4.5 115t9.5 131t9 118.5q4 69 0 104q-7 42 -19.5 63.5t-46.5 33.5q-26 10 -77.5 20.5t-63.5 13.5q-62 22 -97.5 58.5t-52.5 97.5zM700 664 q0 70 2 161t10 212.5t21 158.5q3 7 11 6.5t10 -8.5q1 -4 -0.5 -9.5t-1.5 -6.5q-4 -18 -7.5 -37.5t-6 -34.5t-4.5 -38t-3.5 -35t-2.5 -38.5t-1.5 -35t-1.5 -39t-1 -35t-0.5 -38.5t-0.5 -36q-4 -322 -2 -481q0 -249 12 -416q5 2 10 -1t5 -7q0 -30 -9 -43q-10 -10 -18 2 q-4 7 -6 26.5t-4 42.5t-2 27q-13 250 -9 703z" />
<glyph unicode="&#xb7;" horiz-adv-x="184" d="M30.5 448q0.5 14 10.5 25q2 1 5.5 1h6t2.5 1q5 10 11 14q9 4 33.5 7.5t35.5 1.5q12 -3 17.5 -11.5t-0.5 -17.5q-7 -11 -21 -14q-50 -25 -88 -25q-13 4 -12.5 18zM51 451q13 2 42 11t38 15q-28 3 -55 -6q-2 -6 -7 -9t-10 1l-4 -6z" />
<glyph unicode="&#xb8;" horiz-adv-x="90" d="M-181 -362q4 9 13 6q7 -2 20.5 -8.5t20.5 -8.5q21 -6 47 -6q64 0 143.5 24.5t96.5 65.5q11 32 -13.5 56.5t-62.5 29.5q-2 0 -52.5 2t-58.5 6q-42 17 4 103q2 3 32 58.5t34 64.5q-2 6 3 10.5t11 1.5q12 -3 4 -20q-4 -10 -40.5 -78t-40.5 -78q0 -1 -4 -11t-4.5 -14.5 t1.5 -11.5q8 -10 64 -10q45 0 65 -6q41 -9 64.5 -40.5t11.5 -68.5t-63.5 -62t-102 -33.5t-92.5 -8.5q-52 0 -96 24q-9 4 -5 13z" />
<glyph unicode="&#xb9;" horiz-adv-x="362" d="M45 1602q7 15 18 6q10 2 82 37.5t88 35.5q12 0 19.5 -13.5t9.5 -31.5q4 -105 -67 -653q0 -3 -2.5 -24.5t-2.5 -24.5q-2 -6 -7.5 -7.5t-9.5 1t-3 8.5q2 41 43 350q2 18 11.5 109t13.5 139q9 99 0 121q-2 4 -5 5.5t-7.5 0t-8.5 -3t-9.5 -4.5t-8.5 -4q-2 -1 -28 -15t-43 -23 t-40 -17.5t-37 -8.5q-13 3 -6 17zM61 860q9 24 94.5 43t127.5 19q6 0 8.5 -5t0.5 -10t-9 -6q-34 -2 -103 -14.5t-90 -24.5l-16 -16q-6 -1 -10.5 3.5t-2.5 10.5z" />
<glyph unicode="&#xbb;" horiz-adv-x="921" d="M67 185q-5 8 5 14q179 121 252 174l16 12q16 12 22 17t22 17.5t24 21t18.5 19.5t16.5 21t8 19q13 41 -66 100q-67 43 -162 90q-13 5 -51.5 24.5t-46.5 24.5q-18 14 -21 27q-2 11 6.5 17t14.5 -1q2 -2 2 -9t2 -9q2 -3 9.5 -7.5t16.5 -9.5t11 -6q11 -6 62 -30.5t72 -35.5 t57 -33.5t63 -43.5q48 -34 53 -78q3 -22 -11.5 -47t-45.5 -52t-49 -41t-50 -36q-148 -104 -235 -162q-10 -8 -15 3zM370 253.5q-4 8.5 5 12.5q14 7 116 60t191.5 101.5t112.5 64.5q1 1 10.5 8.5t13.5 11.5t9 11t6 14q3 16 -13 32q-28 30 -98 76q-152 95 -207 143 q-4 -1 -6 -1t-5.5 3.5t-5.5 6.5l-5 7.5t-5 6.5q-9 11 -1 18q6 6 14 -2q64 -54 123 -94q7 -5 67 -43.5t103.5 -72t54.5 -54.5q7 -15 4 -31q-2 -9 -8.5 -18t-14.5 -17t-21.5 -18t-23 -16.5t-26 -16t-24.5 -14t-24 -13t-18 -9.5q-39 -21 -115.5 -60.5t-115.5 -60.5 q-5 -2 -40 -20.5t-40 -20.5q-9 -3 -13 5.5z" />
<glyph unicode="&#xbc;" horiz-adv-x="1333" d="M83.5 1338q-1.5 9 6.5 12q35 12 66 34q3 2 20.5 14.5t31.5 20.5t23 8q15 -2 21 -30q1 -28 -25 -361q-30 -434 -34 -514q0 -8 -5.5 -11.5t-10.5 0t-5 11.5q5 132 43 617q22 227 14 268q-3 -1 -60.5 -39.5t-74.5 -38.5q-9 0 -10.5 9zM350 70q0 6 10 16q175 292 211 350 q25 39 88 139t96 153.5t82.5 136.5t88.5 157t73 147q47 108 66 123q6 6 12 0.5t2 -12.5q0 -6 -14 -20q-30 -60 -57 -123q-42 -87 -100.5 -191t-93.5 -161.5t-119.5 -192t-104.5 -166.5q-54 -85 -199 -328q-2 -2 -12.5 -20t-11.5 -19q-5 -6 -12.5 -1t-4.5 12zM881 287 q-28 21 2 119q51 170 161 346q30 50 41 61q10 7 16.5 -4t-5.5 -16q-2 -1 -8.5 -11t-8.5 -12q-62 -101 -129.5 -244.5t-62.5 -208.5q5 -18 12 -18q31 0 107 61q37 31 74 76.5t58 79t56 92.5q17 25 25 27q9 1 12.5 -9t3.5 -24q-11 -77 -16 -117q-11 -65 -25.5 -196t-7.5 -168 q2 -9 -8 -12t-13 6q-8 26 2 123q9 96 31 249q12 74 16 113q-9 -15 -28 -46.5t-34.5 -55.5t-31.5 -45q-36 -49 -105.5 -111.5t-111.5 -62.5q-14 0 -22 8z" />
<glyph unicode="&#xbd;" horiz-adv-x="1359" d="M74 1345q-2 10 10 11h4q6 0 18 6.5t22 14t23 17t15 11.5q11 8 29 8q20 0 28 -16q5 -10 7 -30t2.5 -40.5t-1.5 -51t-3.5 -48t-4 -45.5t-2.5 -31q-20 -285 -2 -508q1 -7 -3.5 -10t-10 -1t-6.5 9q-5 58 -6 70q-6 48 -4.5 145t4.5 145.5t9 146t9 146.5q0 47 -2 72 q0 25 -12 27q-9 4 -39 -19q-12 -10 -34.5 -24t-33.5 -15q-14 0 -16 10zM334 127q144 313 330 625q184 320 337 542q1 1 9 12.5t10 14t9.5 12.5t10.5 13t10 11t12 11.5t11.5 8.5t13.5 9q8 5 13 -2.5t-2 -13.5q-4 -4 -16.5 -13t-18.5 -16q-9 -9 -29.5 -37.5t-38 -55.5 t-39.5 -60.5t-24 -36.5q-281 -440 -451 -764q-15 -28 -129 -268q-2 -6 -7.5 -6t-9.5 4t-1 10zM862 743q5 38 68 65.5t108 27.5q70 0 114 -42t44 -112q3 -87 -43 -180q-72 -147 -176 -254q-33 -33 -47 -51q17 0 106 19t97 20q67 12 135 18q8 1 11.5 -4t1 -10.5t-10.5 -6.5 q-17 -2 -53 -6l-54 -6q-36 -5 -102.5 -20.5t-99.5 -20.5q-43 -12 -52 4q-9 13 21 43q118 125 182 240q79 140 62 242q-13 59 -50 81.5t-102 22.5q-40 0 -85 -22t-56 -56q-5 -8 -12.5 -4.5t-6.5 12.5z" />
<glyph unicode="&#xbe;" horiz-adv-x="1466" d="M84.5 457.5q1.5 13.5 2.5 21t5 24.5t4 19q2 6 7.5 7.5t10 -1.5t3.5 -10q-1 -5 -7.5 -28t-5.5 -37q0 -17 9 -17q20 -7 100 35q99 62 202.5 179.5t114.5 209.5q9 70 -48 115.5t-138 50.5q-18 1 -39 -2t-47 -8.5t-41 -7.5q-6 -2 -10 4t0 12q5 5 31 18q74 40 173 134.5 t99 156.5q-3 34 -41 53q-55 33 -160 33q-64 0 -94 -30q-6 -8 -5.5 -18.5t5.5 -16.5q2 -2 6 -6.5t6 -6.5q6 -7 0 -13.5t-14 -0.5q-29 25 -23 53q4 29 44 44.5t75 15.5q29 0 61.5 -4.5t68.5 -14t60.5 -30.5t28.5 -50q7 -50 -53 -122q-94 -108 -201 -179q32 7 58 7 q85 0 153 -44.5t68 -125.5q-2 -55 -36 -119t-85 -120.5t-103 -102.5t-100 -78q-78 -43 -106 -43q-18 0 -29 8q-6 5 -8.5 13.5t-1 22zM283 10l11 20q11 19 15 23q1 1 5 2t5 2q230 331 469 723q59 97 89 149t73.5 136.5t71.5 157.5q0 1 2 6.5t4 7.5q4 6 11 2.5t5 -10.5 q0 -5 -6.5 -21.5t-14.5 -34.5t-9 -22q-81 -174 -281 -498q-182 -294 -356 -549q-11 -18 -39.5 -57.5t-38.5 -48.5q-6 -4 -12 0t-4 12zM829 283q0 39 60.5 157.5t110.5 201t92 149.5q2 2 11 15t11 15q11 9 16 -4.5t-8 -17.5q-205 -303 -266 -490q-7 -20 -4 -28q25 3 98 57 q109 78 218 192t182 228q10 20 14 22q10 6 15.5 0.5t2.5 -16.5q-77 -235 -106 -356q-34 -153 -39 -213q0 -29 2 -43q13 -4 3 -19q-9 -14 -17 -5q-1 2 -2 3q-19 37 12 180q39 197 106 400q-77 -110 -195.5 -230t-223.5 -188q-53 -38 -74 -33q-16 6 -19 23z" />
<glyph unicode="&#xbf;" horiz-adv-x="526" d="M70 -33q-11 -49 12 -82q32 -50 128.5 -74t186.5 -24q95 0 176 74q13 10 13 30q0 2 -0.5 7t-0.5 8t1 6t4 4t8.5 -2t5.5 -6q7 -25 -2 -43q-20 -43 -89 -70.5t-128 -27.5q-79 0 -164 20.5t-135 60.5q-102 84 51 322q30 45 88 116t103 134t69 125q24 48 21 67q-4 16 -4 25 q0 4 12 4q2 0 5 -4.5t3 -7.5q6 -39 -28 -121q-23 -51 -59 -102t-86.5 -111.5t-74.5 -93.5q-93 -128 -116 -234zM380.5 863q-1.5 33 4.5 50q10 23 29 23q12 0 22 -8t13 -21q4 -11 0.5 -28t-13.5 -25q-16 -16 -30 -12q-3 -2 -1.5 -6.5t5.5 -10.5q2 -1 10 -4t10 -6 q11 -14 -8 -14q-23 0 -31 14q-9 15 -10.5 48zM401 858q1 0 11 4t14 8q10 12 5 28.5t-15 16.5q-7 0 -10 -8q-3 -6 -5 -23.5t0 -25.5z" />
<glyph unicode="&#xc0;" horiz-adv-x="944" d="M41 20q-5 7 0 13q14 23 29 67q54 170 104 308q-18 -3 -52 -7.5t-52 -7.5q-3 0 -8 2.5t-5 5.5q6 11 9 13q19 3 57.5 8t58.5 8q26 71 74 191.5t120.5 288.5t144 291t112.5 134q19 8 33 -24q8 -21 45 -277q12 -83 33 -246.5t32 -242.5q78 5 94 4q3 0 6.5 -3.5t2.5 -6.5 q-5 -11 -9 -11q-30 0 -92 -4q38 -262 68 -418q20 -93 22 -110q0 -7 -6 -8t-12 4q-1 0 -3.5 5t-2.5 7v14q-56 280 -86 504q-66 -6 -144.5 -20t-132.5 -25.5t-146.5 -33.5t-135.5 -31q-11 -30 -123 -349q-1 -2 -4 -11t-5.5 -15.5t-6.5 -13t-7 -7.5q-7 -3 -12 4zM209 436 q339 81 547 107q-13 88 -41.5 311.5t-46.5 343.5q-11 73 -25 113q-1 2 -10 0.5t-10 -4.5q-28 -24 -64 -82q-41 -69 -104 -203q-121 -250 -246 -586zM510 1574q6 7 14 -1q76 -67 105 -84q2 -2 15 -10.5t15 -10.5q6 -5 1.5 -12t-11.5 -4q-18 6 -64.5 43.5t-72.5 60.5 q-10 10 -2 18z" />
<glyph unicode="&#xc1;" horiz-adv-x="944" d="M41 20q-5 7 0 13q14 23 29 67q54 170 104 308q-18 -3 -52 -7.5t-52 -7.5q-3 0 -8 2.5t-5 5.5q6 11 9 13q19 3 57.5 8t58.5 8q26 71 74 191.5t120.5 288.5t144 291t112.5 134q19 8 33 -24q8 -21 45 -277q12 -83 33 -246.5t32 -242.5q78 5 94 4q3 0 6.5 -3.5t2.5 -6.5 q-5 -11 -9 -11q-30 0 -92 -4q38 -262 68 -418q20 -93 22 -110q0 -7 -6 -8t-12 4q-1 0 -3.5 5t-2.5 7v14q-56 280 -86 504q-66 -6 -144.5 -20t-132.5 -25.5t-146.5 -33.5t-135.5 -31q-11 -30 -123 -349q-1 -2 -4 -11t-5.5 -15.5t-6.5 -13t-7 -7.5q-7 -3 -12 4zM209 436 q339 81 547 107q-13 88 -41.5 311.5t-46.5 343.5q-11 73 -25 113q-1 2 -10 0.5t-10 -4.5q-28 -24 -64 -82q-41 -69 -104 -203q-121 -250 -246 -586zM585.5 1408.5q-0.5 5.5 4.5 10.5q12 8 63 50t68 57q2 4 18 20q7 6 14.5 1t2.5 -13q-6 -10 -28.5 -30.5t-43 -37.5t-49.5 -39 t-31 -24q-6 -5 -12 -2.5t-6.5 8z" />
<glyph unicode="&#xc2;" horiz-adv-x="946" d="M41 20q-5 7 0 13q14 23 29 67q54 170 104 308q-18 -3 -52 -7.5t-52 -7.5q-3 0 -8 2.5t-5 5.5q6 11 9 13q19 3 57.5 8t58.5 8q26 71 74 191.5t120.5 288.5t144 291t112.5 134q19 8 33 -24q8 -21 45 -277q12 -83 33 -246.5t32 -242.5q78 5 94 4q3 0 6.5 -3.5t2.5 -6.5 q-5 -11 -9 -11q-30 0 -92 -4q38 -262 68 -418q20 -93 22 -110q0 -7 -6 -8t-12 4q-1 0 -3.5 5t-2.5 7v14q-56 280 -86 504q-66 -6 -144.5 -20t-132.5 -25.5t-146.5 -33.5t-135.5 -31q-11 -30 -123 -349q-1 -2 -4 -11t-5.5 -15.5t-6.5 -13t-7 -7.5q-7 -3 -12 4zM209 436 q339 81 547 107q-13 88 -41.5 311.5t-46.5 343.5q-11 73 -25 113q-1 2 -10 0.5t-10 -4.5q-28 -24 -64 -82q-41 -69 -104 -203q-121 -250 -246 -586zM530 1387q-6 6 2 14q81 103 113 115q16 5 53.5 -41.5t49.5 -49.5q1 0 5 -1t5 -1q7 -3 5.5 -11.5t-9.5 -8.5q-4 0 -9 2 t-10 4.5t-10.5 7.5t-10 9t-10.5 10.5t-10 10.5t-10 11.5t-8.5 10.5t-7.5 10t-6 8q-10 10 -13 8q-9 -8 -54.5 -56t-47.5 -50q-8 -10 -17 -2z" />
<glyph unicode="&#xc3;" horiz-adv-x="944" d="M41 20q-5 7 0 13q14 23 29 67q54 170 104 308q-18 -3 -52 -7.5t-52 -7.5q-3 0 -8 2.5t-5 5.5q6 11 9 13q19 3 57.5 8t58.5 8q26 71 74 191.5t120.5 288.5t144 291t112.5 134q19 8 33 -24q8 -21 45 -277q12 -83 33 -246.5t32 -242.5q78 5 94 4q3 0 6.5 -3.5t2.5 -6.5 q-5 -11 -9 -11q-30 0 -92 -4q38 -262 68 -418q20 -93 22 -110q0 -7 -6 -8t-12 4q-1 0 -3.5 5t-2.5 7v14q-56 280 -86 504q-66 -6 -144.5 -20t-132.5 -25.5t-146.5 -33.5t-135.5 -31q-11 -30 -123 -349q-1 -2 -4 -11t-5.5 -15.5t-6.5 -13t-7 -7.5q-7 -3 -12 4zM209 436 q339 81 547 107q-13 88 -41.5 311.5t-46.5 343.5q-11 73 -25 113q-1 2 -10 0.5t-10 -4.5q-28 -24 -64 -82q-41 -69 -104 -203q-121 -250 -246 -586zM483 1425q5 17 32.5 28t51.5 11q19 1 57 -11t58 -11q15 2 37 24q4 6 9.5 5.5t7.5 -5t-1 -10.5q-21 -35 -57 -35 q-18 0 -53 11t-52 12q-44 4 -73 -29q-5 -6 -12.5 -1.5t-4.5 11.5z" />
<glyph unicode="&#xc4;" horiz-adv-x="944" d="M41 20q-5 7 0 13q14 23 29 67q54 170 104 308q-18 -3 -52 -7.5t-52 -7.5q-3 0 -8 2.5t-5 5.5q6 11 9 13q19 3 57.5 8t58.5 8q26 71 74 191.5t120.5 288.5t144 291t112.5 134q19 8 33 -24q8 -21 45 -277q12 -83 33 -246.5t32 -242.5q78 5 94 4q3 0 6.5 -3.5t2.5 -6.5 q-5 -11 -9 -11q-30 0 -92 -4q38 -262 68 -418q20 -93 22 -110q0 -7 -6 -8t-12 4q-1 0 -3.5 5t-2.5 7v14q-56 280 -86 504q-66 -6 -144.5 -20t-132.5 -25.5t-146.5 -33.5t-135.5 -31q-11 -30 -123 -349q-1 -2 -4 -11t-5.5 -15.5t-6.5 -13t-7 -7.5q-7 -3 -12 4zM209 436 q339 81 547 107q-13 88 -41.5 311.5t-46.5 343.5q-11 73 -25 113q-1 2 -10 0.5t-10 -4.5q-28 -24 -64 -82q-41 -69 -104 -203q-121 -250 -246 -586zM455 1509q-6 14 5 26t29 15q15 3 28 -2.5t13 -19.5q0 -11 -11 -21t-23 -10q-5 0 -11 8t-8 15q-1 6 -3 -1q0 -6 -1 -8 q-2 -8 -9 -8.5t-9 6.5zM497 1527q0 -3 1 -6t2 -3t3 2q2 3 3 2q-1 0 1 2q3 3 3 4q-1 2 -12 2q-1 0 -1 -3zM631 1512q-5 14 10 14q9 20 33 20q13 0 19.5 -7.5t2.5 -20.5q-3 -11 -15 -19.5t-24 -7.5q-20 3 -26 21zM659 1516q0 -10 15 2l2 2q4 6 -3 6q-11 -1 -14 -10z" />
<glyph unicode="&#xc5;" horiz-adv-x="944" d="M41 20q-5 7 0 13q14 23 29 67q54 170 104 308q-18 -3 -52 -7.5t-52 -7.5q-3 0 -8 2.5t-5 5.5q6 11 9 13q19 3 57.5 8t58.5 8q26 71 74 191.5t120.5 288.5t144 291t112.5 134q19 8 33 -24q8 -21 45 -277q12 -83 33 -246.5t32 -242.5q78 5 94 4q3 0 6.5 -3.5t2.5 -6.5 q-5 -11 -9 -11q-30 0 -92 -4q38 -262 68 -418q20 -93 22 -110q0 -7 -6 -8t-12 4q-1 0 -3.5 5t-2.5 7v14q-56 280 -86 504q-66 -6 -144.5 -20t-132.5 -25.5t-146.5 -33.5t-135.5 -31q-11 -30 -123 -349q-1 -2 -4 -11t-5.5 -15.5t-6.5 -13t-7 -7.5q-7 -3 -12 4zM209 436 q339 81 547 107q-13 88 -41.5 311.5t-46.5 343.5q-11 73 -25 113q-1 2 -10 0.5t-10 -4.5q-28 -24 -64 -82q-41 -69 -104 -203q-121 -250 -246 -586zM500.5 1606.5q1.5 5.5 7.5 7.5q38 10 74 10q76 0 98 -43q15 -27 11.5 -68.5t-25.5 -60.5q-17 -14 -41 -14q-42 0 -66 35 q-16 27 -20 65t12 64q-3 0 -20 -4.5t-19 -4.5q-7 -1 -10 3.5t-1.5 10zM561 1556q-3 -46 16.5 -73t45.5 -27q23 0 36.5 21t10.5 61q-4 38 -25 51q-30 18 -70 15q-3 0 -1 -6q1 -4 1 -5q-1 -1 -10 -6q-4 -20 -4 -31z" />
<glyph unicode="&#xc6;" horiz-adv-x="1683" d="M41 35q2 2 8 14q14 40 57.5 167t69.5 196q-17 -3 -51.5 -7.5t-52.5 -7.5q-9 -2 -12.5 7.5t6.5 13.5q7 2 58.5 8t59.5 8q153 410 299 696q59 112 86 150q49 63 72 63q22 0 33 -51q11 -44 33 -201t45.5 -341.5t25.5 -202.5q32 4 47 4q2 28 12 124t13 148q1 11 11 146.5 t13 158.5q8 62 29 86q18 25 66 33q199 33 424 33q161 0 198 -12q9 -3 7 -13t-11 -8q-114 15 -178 15q-102 0 -255 -10.5t-208 -30.5q-22 -7 -31 -23q-10 -14 -17.5 -54t-10 -74.5t-5 -84t-3.5 -55.5q-10 -131 -21 -248q84 12 176.5 31.5t205.5 46t175 39.5q8 2 12 -2.5 t2 -10.5t-10 -8q-58 -12 -175 -39.5t-210 -46.5t-178 -30q-2 -41 -10 -109h28q8 -1 8 -10t-8 -11h-30q-23 -272 -17 -307q9 -74 19 -108q19 -56 102 -56q149 0 563 199q13 7 117 68q7 4 12.5 -3.5t-0.5 -13.5q-64 -53 -303 -153t-342 -113q-95 -12 -139 25l14 -70 q0 -15 -13 -8q-10 7 -13 18q0 1 1 4.5t1 5.5q0 1 -18.5 82.5t-18.5 96.5q-2 22 -23.5 163.5t-23.5 163.5q-147 -17 -307 -49q-43 -9 -128 -30.5t-128 -30.5q-6 -15 -123 -350q-2 -9 -9 -25.5t-12 -20.5q-7 -4 -13 2.5t-1 12.5zM209 438q32 7 123.5 30.5t142.5 33.5 q144 28 283 43q-10 82 -45.5 344t-44.5 315q-2 21 -10 61.5t-15 51.5q-5 9 -18 -4q-30 -26 -64 -84q-47 -76 -125 -240q-113 -248 -227 -551zM780 528q5 -31 14.5 -95t14.5 -95q2 31 7 96t7 96q-7 0 -21.5 -1t-21.5 -1z" />
<glyph unicode="&#xc7;" horiz-adv-x="1189" d="M76.5 635q14.5 118 66.5 221q100 199 267 311t385 115q275 0 346 -219q0 -1 -1.5 -4.5t-3.5 -6t-3 -1.5q-12 6 -13 8q-23 63 -43 90q-51 64 -122.5 87.5t-168.5 23.5q-215 0 -389.5 -126t-253.5 -329q-69 -164 -45 -332q13 -96 54 -168q66 -108 187 -186t239 -78 q128 0 262.5 66.5t251.5 166.5h14q3 -1 2.5 -6.5t-2.5 -9.5q-118 -99 -215 -147q-196 -102 -352 -86q-1 -5 -18.5 -47t-18.5 -50q7 0 27.5 3t31.5 1q37 -6 60 -36q28 -37 6 -64.5t-69 -44t-95 -16.5q-7 0 -9.5 5t-0.5 10t8 5q77 8 119 29q19 8 28.5 22.5t1.5 28.5 q-10 22 -30.5 33t-42.5 8q-20 -4 -35 -4q-19 0 -21 12q-1 7 3.5 23t10.5 30t14 32t9 22q-144 25 -269.5 133.5t-158.5 245.5q-28 111 -13.5 229z" />
<glyph unicode="&#xc8;" horiz-adv-x="1060" d="M37 655q-3 3 6 11q2 3 8 3.5t14 -0.5t9 -1q71 6 147 18q6 69 16.5 208.5t16.5 209.5q8 86 37 113q28 24 141.5 38.5t200.5 17.5t158 3q113 0 182 -14q3 0 6 -6t0 -7q-8 -8 -10 -6q-79 12 -193 12q-161 0 -342 -22q-83 -10 -106 -16q-20 -8 -29 -23q-28 -40 -37 -256 q-1 -15 -10 -123.5t-10 -124.5q269 42 555 103q3 1 7 -1t6.5 -5t0.5 -5q-8 -8 -10 -8q-257 -54 -561 -104q-25 -281 -29 -404q-4 -65 8.5 -124t52.5 -74q28 -11 66 -11q52 0 164 35q239 74 508 230q3 2 8.5 0.5t5.5 -5.5q-1 -1 -1 -6t-1 -6q-99 -74 -345 -171t-341 -97 q-124 0 -141 121q-9 50 -5 137q2 35 29 371q-119 -17 -166 -19q-8 0 -16 8zM461 1542q-3 8 4.5 12t13.5 -2q1 -1 9.5 -13t9.5 -13q15 -15 47 -31q2 -2 21.5 -11t21.5 -11q7 -6 3 -14t-13 -5q-30 11 -69.5 38.5t-47.5 49.5z" />
<glyph unicode="&#xc9;" horiz-adv-x="1060" d="M37 655q-3 3 6 11q2 3 8 3.5t14 -0.5t9 -1q71 6 147 18q6 69 16.5 208.5t16.5 209.5q8 86 37 113q28 24 141.5 38.5t200.5 17.5t158 3q113 0 182 -14q3 0 6 -6t0 -7q-8 -8 -10 -6q-79 12 -193 12q-161 0 -342 -22q-83 -10 -106 -16q-20 -8 -29 -23q-28 -40 -37 -256 q-1 -15 -10 -123.5t-10 -124.5q269 42 555 103q3 1 7 -1t6.5 -5t0.5 -5q-8 -8 -10 -8q-257 -54 -561 -104q-25 -281 -29 -404q-4 -65 8.5 -124t52.5 -74q28 -11 66 -11q52 0 164 35q239 74 508 230q3 2 8.5 0.5t5.5 -5.5q-1 -1 -1 -6t-1 -6q-99 -74 -345 -171t-341 -97 q-124 0 -141 121q-9 50 -5 137q2 35 29 371q-119 -17 -166 -19q-8 0 -16 8zM552 1423q0 6 5 11q101 76 154 108q12 8 15 -2t-9 -18q-46 -28 -148 -105q-6 -5 -11.5 -2.5t-5.5 8.5z" />
<glyph unicode="&#xca;" horiz-adv-x="1060" d="M37 655q-3 3 6 11q2 3 8 3.5t14 -0.5t9 -1q71 6 147 18q6 69 16.5 208.5t16.5 209.5q8 86 37 113q28 24 141.5 38.5t200.5 17.5t158 3q113 0 182 -14q3 0 6 -6t0 -7q-8 -8 -10 -6q-79 12 -193 12q-161 0 -342 -22q-83 -10 -106 -16q-20 -8 -29 -23q-28 -40 -37 -256 q-1 -15 -10 -123.5t-10 -124.5q269 42 555 103q3 1 7 -1t6.5 -5t0.5 -5q-8 -8 -10 -8q-257 -54 -561 -104q-25 -281 -29 -404q-4 -65 8.5 -124t52.5 -74q28 -11 66 -11q52 0 164 35q239 74 508 230q3 2 8.5 0.5t5.5 -5.5q-1 -1 -1 -6t-1 -6q-99 -74 -345 -171t-341 -97 q-124 0 -141 121q-9 50 -5 137q2 35 29 371q-119 -17 -166 -19q-8 0 -16 8zM506 1415q1 11 12 12q13 8 44 33.5t50 34.5q24 12 41 6q26 -5 52 -31q20 -20 28 -20q9 -3 12 -10t-6 -10q-12 -5 -47.5 23t-40.5 30q-16 2 -41 -10q-70 -58 -88 -66q-13 -4 -16 8z" />
<glyph unicode="&#xcb;" horiz-adv-x="1060" d="M37 655q-3 3 6 11q2 3 8 3.5t14 -0.5t9 -1q71 6 147 18q6 69 16.5 208.5t16.5 209.5q8 86 37 113q28 24 141.5 38.5t200.5 17.5t158 3q113 0 182 -14q3 0 6 -6t0 -7q-8 -8 -10 -6q-79 12 -193 12q-161 0 -342 -22q-83 -10 -106 -16q-20 -8 -29 -23q-28 -40 -37 -256 q-1 -15 -10 -123.5t-10 -124.5q269 42 555 103q3 1 7 -1t6.5 -5t0.5 -5q-8 -8 -10 -8q-257 -54 -561 -104q-25 -281 -29 -404q-4 -65 8.5 -124t52.5 -74q28 -11 66 -11q52 0 164 35q239 74 508 230q3 2 8.5 0.5t5.5 -5.5q-1 -1 -1 -6t-1 -6q-99 -74 -345 -171t-341 -97 q-124 0 -141 121q-9 50 -5 137q2 35 29 371q-119 -17 -166 -19q-8 0 -16 8zM519.5 1401q-3.5 21 17.5 33q8 4 19 1.5t17 -8.5q7 -11 2 -24t-16 -19q-6 -4 -16 -4q-20 0 -23.5 21zM543 1411q-5 -11 2 -11t10 11q1 5 -2 5q-5 0 -10 -5zM657 1419.5q6 20.5 29 24.5q14 2 26 -11 t11 -28q-1 -10 -10.5 -16.5t-20.5 -6.5q-12 0 -22 7q-19 10 -13 30.5zM680 1407q19 -10 22 2q2 8 -6 12t-14 -2q-1 -1 -1 -6t-1 -6z" />
<glyph unicode="&#xcc;" horiz-adv-x="473" d="M51 15q-3 5 0 10.5t12 5.5q180 6 355 30q8 1 13 -3.5t2 -10t-11 -6.5q-189 -25 -359 -31q-9 0 -12 5zM77 1224q-3 7 7 15q58 41 336 41q12 0 13 -10q-1 -9 -11 -10h-37h-39.5t-36.5 -0.5t-40 -1.5t-36 -3t-39 -5t-36 -7q-37 -7 -60 -20q-16 -9 -21 1zM109 1608 q-10 12 0 19q4 4 10 -1q11 -9 45 -43t73.5 -74.5t43.5 -44.5q5 -6 3 -11.5t-8 -5.5t-12 5q-146 146 -155 156zM200.5 289q-0.5 128 2.5 225q4 217 16 655q0 27 -2 41q-3 0 -8 4t-4 7q5 10 8 10q22 0 25 -14q2 -14 2 -46q-19 -691 -19 -872q0 -136 12 -227q0 -5 -4.5 -11.5 t-7.5 -5.5q-8 8 -8 11q-12 95 -12.5 223z" />
<glyph unicode="&#xcd;" horiz-adv-x="473" d="M51 15q-3 5 0 10.5t12 5.5q180 6 355 30q8 1 13 -3.5t2 -10t-11 -6.5q-189 -25 -359 -31q-9 0 -12 5zM77 1224q-3 7 7 15q58 41 336 41q12 0 13 -10q-1 -9 -11 -10h-37h-39.5t-36.5 -0.5t-40 -1.5t-36 -3t-39 -5t-36 -7q-37 -7 -60 -20q-16 -9 -21 1zM163.5 1388.5 q-1.5 5.5 2.5 10.5q2 2 34.5 35.5t56.5 57t52.5 49.5t40.5 32q7 4 12.5 -3.5t-0.5 -13.5q-84 -71 -180 -170q-5 -6 -11 -4.5t-7.5 7zM200.5 289q-0.5 128 2.5 225q4 217 16 655q0 27 -2 41q-3 0 -8 4t-4 7q5 10 8 10q22 0 25 -14q2 -14 2 -46q-19 -691 -19 -872 q0 -136 12 -227q0 -5 -4.5 -11.5t-7.5 -5.5q-8 8 -8 11q-12 95 -12.5 223z" />
<glyph unicode="&#xce;" horiz-adv-x="473" d="M51 15q-3 5 0 10.5t12 5.5q180 6 355 30q8 1 13 -3.5t2 -10t-11 -6.5q-189 -25 -359 -31q-9 0 -12 5zM77 1224q-3 7 7 15q58 41 336 41q12 0 13 -10q-1 -9 -11 -10h-37h-39.5t-36.5 -0.5t-40 -1.5t-36 -3t-39 -5t-36 -7q-37 -7 -60 -20q-16 -9 -21 1zM98 1444 q54 63 95 104q31 27 51 27q21 3 47 -23q5 -5 22.5 -27.5t34.5 -40t27 -20.5q14 -4 11 -14q-1 -6 -9 -6q-21 0 -41 24q-4 4 -23 28t-36 40.5t-29 17.5q-12 2 -29 -10q-15 -13 -29 -28t-35.5 -40t-27.5 -32q-1 -1 -7 -8.5t-7 -8.5q-8 -5 -14.5 2.5t-0.5 14.5zM200.5 289 q-0.5 128 2.5 225q4 217 16 655q0 27 -2 41q-3 0 -8 4t-4 7q5 10 8 10q22 0 25 -14q2 -14 2 -46q-19 -691 -19 -872q0 -136 12 -227q0 -5 -4.5 -11.5t-7.5 -5.5q-8 8 -8 11q-12 95 -12.5 223z" />
<glyph unicode="&#xcf;" horiz-adv-x="473" d="M51 15q-3 5 0 10.5t12 5.5q180 6 355 30q8 1 13 -3.5t2 -10t-11 -6.5q-189 -25 -359 -31q-9 0 -12 5zM77 1224q-3 7 7 15q58 41 336 41q12 0 13 -10q-1 -9 -11 -10h-37h-39.5t-36.5 -0.5t-40 -1.5t-36 -3t-39 -5t-36 -7q-37 -7 -60 -20q-16 -9 -21 1zM125.5 1491 q2.5 5 7.5 5.5t10 -3.5q18 12 39 12q20 0 30.5 -10.5t0.5 -26.5q-13 -22 -37 -22q-13 0 -26 10q-6 -6 -13 -2q-22 9 -10 27q-4 5 -1.5 10zM160 1479q-5 -2 9 -10q4 -3 7 -3q13 0 19 11q3 6 -2 8q-12 2 -33 -6zM200.5 289q-0.5 128 2.5 225q4 217 16 655q0 27 -2 41 q-3 0 -8 4t-4 7q5 10 8 10q22 0 25 -14q2 -14 2 -46q-19 -691 -19 -872q0 -136 12 -227q0 -5 -4.5 -11.5t-7.5 -5.5q-8 8 -8 11q-12 95 -12.5 223zM295 1461q-14 23 12 40q0 2 6 2q3 11 14 18t23 7q21 0 27 -15q4 -11 -0.5 -31t-11.5 -30q-11 -14 -29 -14q-27 0 -41 23z M313 1468q16 -16 29 -10q6 3 10 14t4 19q4 16 -4 16q-14 0 -18 -8v-10q0 -6 -7 -8.5t-12 2.5q-7 -7 -2 -15z" />
<glyph unicode="&#xd0;" horiz-adv-x="1136" d="M39 29q1 2 4 5t4 5q2 2 10 2q2 1 3 -0.5t1.5 -5t1.5 -4.5q0 -2 -1.5 -5t-2.5 -5.5t0 -2.5q12 -6 29 -6q39 0 150 47q1 133 24 543q-10 -2 -30 -2t-27 4q-5 4 -4 10t6 11q26 13 29 -4q18 0 26 2q2 31 13.5 253.5t13.5 253.5q4 42 16 64q1 3 6 4.5t6 -0.5t2.5 -4.5t3 -4.5 t1.5 -3l-13 -39q-3 -17 -6 -79.5t-5.5 -133.5t-2.5 -80q-2 -39 -6 -115.5t-6 -115.5q47 5 138.5 16.5t104.5 13.5q7 1 11 -3.5t2 -10t-9 -6.5q-25 -3 -112.5 -14.5t-136.5 -16.5q-21 -378 -23 -534q109 50 212 110t205 135.5t186 167t134 187.5q71 146 58 260 q-9 88 -61.5 164t-129 125.5t-165 77.5t-173.5 28q-178 0 -336 -94q-19 -10 -36 -39q-11 -11 -15 -4q-8 8 -6 12q32 64 162.5 106t230.5 42q141 0 267.5 -61.5t210.5 -174.5q79 -110 73 -238q-6 -111 -64.5 -221t-143 -196.5t-197 -169t-211 -137.5t-201.5 -103 q-3 -19 0 -39q6 -18 2 -22q-8 -4 -16 0q-1 1 -2 5t-2 5q-2 7 -2 43q-112 -45 -158 -45q-20 0 -29 6q-22 18 -14 31z" />
<glyph unicode="&#xd1;" horiz-adv-x="1155" d="M96 164q0 179 29 454q28 280 57 416q24 115 60 123q37 7 84 -72q5 -10 42.5 -76t71.5 -125.5t43 -74.5q395 -651 463 -682q4 0 12 -4q2 -3 9 4q6 5 11.5 18.5t8 24.5t5.5 29t3 20q23 160 19 481q-7 400 -90 654q-2 3 1.5 8t6.5 4q1 -1 3.5 -2t4.5 -2t2 -2 q75 -220 90 -576q7 -268 -6 -469q-17 -169 -39 -196q-15 -15 -29 -15q-6 0 -13 2.5t-13 6t-13 10.5t-12 11.5t-13 14.5t-11.5 15t-11.5 16t-11 15q-140 184 -371 565q-8 13 -59.5 104t-98 168t-67.5 98q-5 5 -14 5q-5 1 -17 -11q-35 -42 -68 -329.5t-44 -460.5 q-10 -200 0 -238q1 -2 8 -18.5t6 -24.5q-2 -5 -9 -3q-1 1 -2.5 1h-2.5q-5 0 -12 21q-13 25 -13 92zM342 1399q-15 36 14 77.5t68 41.5q26 0 61 -23q5 -3 32.5 -23t48.5 -30t34 -6q33 12 86 129q3 6 9 6t9.5 -4.5t0.5 -10.5q-57 -125 -97 -139q-29 -10 -67 15 q-9 6 -31.5 23.5t-40 27t-35.5 12.5q-28 6 -50.5 -15.5t-25.5 -52.5q0 -4 1 -11.5t1 -10.5q1 -6 -2.5 -9.5t-8.5 -3t-7 6.5z" />
<glyph unicode="&#xd2;" d="M96 371q15 -126 83 -205.5t190 -79.5q69 0 161 29q112 33 216 98t187 152t133 199.5t50 230.5q0 81 -35 141q-34 63 -132 135.5t-206 122t-176 53.5q-3 0 -8 10q-2 2 2.5 6.5t7.5 4.5q113 -9 284.5 -110t231.5 -189q55 -79 52 -189q-3 -101 -44 -202.5t-108 -182.5 q-110 -133 -284 -231t-334 -98q-86 0 -152.5 43.5t-103.5 123.5q-78 179 -7 429q79 271 289 491q47 47 90 57q21 7 41 7q34 0 68 -17q2 -1 2 -5t-2 -8.5t-4 -4.5q-40 14 -72 14q-28 0 -56.5 -16.5t-44 -33t-40.5 -46.5q-167 -201 -230 -377q-69 -189 -49 -352zM462 1598 q-1 6 3.5 10t11.5 2q145 -50 262 -107q10 -6 5.5 -14.5t-15.5 -3.5q-120 58 -258 104q-8 3 -9 9z" />
<glyph unicode="&#xd3;" d="M96 371q15 -126 83 -205.5t190 -79.5q69 0 161 29q112 33 216 98t187 152t133 199.5t50 230.5q0 81 -35 141q-34 63 -132 135.5t-206 122t-176 53.5q-3 0 -8 10q-2 2 2.5 6.5t7.5 4.5q113 -9 284.5 -110t231.5 -189q55 -79 52 -189q-3 -101 -44 -202.5t-108 -182.5 q-110 -133 -284 -231t-334 -98q-86 0 -152.5 43.5t-103.5 123.5q-78 179 -7 429q79 271 289 491q47 47 90 57q21 7 41 7q34 0 68 -17q2 -1 2 -5t-2 -8.5t-4 -4.5q-40 14 -72 14q-28 0 -56.5 -16.5t-44 -33t-40.5 -46.5q-167 -201 -230 -377q-69 -189 -49 -352zM532 1546.5 q0 5.5 7 9.5q25 16 75 52q124 87 140 92q11 5 13 -6q-1 -9 -9 -15q-17 -8 -107.5 -70.5t-101.5 -68.5q-7 -3 -12 -1t-5 7.5z" />
<glyph unicode="&#xd4;" d="M96 371q15 -126 83 -205.5t190 -79.5q69 0 161 29q112 33 216 98t187 152t133 199.5t50 230.5q0 81 -35 141q-34 63 -132 135.5t-206 122t-176 53.5q-3 0 -8 10q-2 2 2.5 6.5t7.5 4.5q113 -9 284.5 -110t231.5 -189q55 -79 52 -189q-3 -101 -44 -202.5t-108 -182.5 q-110 -133 -284 -231t-334 -98q-86 0 -152.5 43.5t-103.5 123.5q-78 179 -7 429q79 271 289 491q47 47 90 57q21 7 41 7q34 0 68 -17q2 -1 2 -5t-2 -8.5t-4 -4.5q-40 14 -72 14q-28 0 -56.5 -16.5t-44 -33t-40.5 -46.5q-167 -201 -230 -377q-69 -189 -49 -352zM408 1447 q-1 9 8 11q11 2 35 17.5t54.5 38.5t31.5 24q68 44 102 49q41 3 72 -24q4 -3 33 -33.5t38 -32.5q14 -4 11 -14q-1 -6 -9 -6q-14 0 -43 24q-4 4 -14 16.5t-15.5 18t-14.5 13.5t-19 12q-24 10 -47 4q-27 -7 -84 -45q-6 -4 -35 -27t-54.5 -39t-39.5 -16q-9 0 -10 9z" />
<glyph unicode="&#xd5;" d="M96 371q15 -126 83 -205.5t190 -79.5q69 0 161 29q112 33 216 98t187 152t133 199.5t50 230.5q0 81 -35 141q-34 63 -132 135.5t-206 122t-176 53.5q-3 0 -8 10q-2 2 2.5 6.5t7.5 4.5q113 -9 284.5 -110t231.5 -189q55 -79 52 -189q-3 -101 -44 -202.5t-108 -182.5 q-110 -133 -284 -231t-334 -98q-86 0 -152.5 43.5t-103.5 123.5q-78 179 -7 429q79 271 289 491q47 47 90 57q21 7 41 7q34 0 68 -17q2 -1 2 -5t-2 -8.5t-4 -4.5q-40 14 -72 14q-28 0 -56.5 -16.5t-44 -33t-40.5 -46.5q-167 -201 -230 -377q-69 -189 -49 -352zM342 1436 q16 29 56.5 57.5t70.5 28.5q17 -2 51 -19q1 -1 36 -24t57 -32t36 -3q11 5 18 14t13.5 26.5t9.5 22.5q4 7 13.5 4.5t7.5 -10.5q-3 -15 -18 -39.5t-27 -31.5q-20 -14 -43 -7q-18 4 -37 15t-41 25.5t-35 21.5q-29 16 -47 14q-35 -2 -80 -47q-2 -2 -13.5 -14.5t-13.5 -14.5 q-6 -5 -12 1t-2 12z" />
<glyph unicode="&#xd6;" d="M96 371q15 -126 83 -205.5t190 -79.5q69 0 161 29q112 33 216 98t187 152t133 199.5t50 230.5q0 81 -35 141q-34 63 -132 135.5t-206 122t-176 53.5q-3 0 -8 10q-2 2 2.5 6.5t7.5 4.5q113 -9 284.5 -110t231.5 -189q55 -79 52 -189q-3 -101 -44 -202.5t-108 -182.5 q-110 -133 -284 -231t-334 -98q-86 0 -152.5 43.5t-103.5 123.5q-78 179 -7 429q79 271 289 491q47 47 90 57q21 7 41 7q34 0 68 -17q2 -1 2 -5t-2 -8.5t-4 -4.5q-40 14 -72 14q-28 0 -56.5 -16.5t-44 -33t-40.5 -46.5q-167 -201 -230 -377q-69 -189 -49 -352zM377 1503 q0 6 6.5 9t11.5 -3q1 -1 2 -6.5t2 -10.5t2 -5q12 6 29 6q24 0 40 -13t13 -34q-3 -18 -19 -29.5t-34 -11.5q-23 0 -35 18q-7 8 -12.5 36.5t-5.5 43.5zM403 1462q0 -19 11 -30q7 -7 16 -7q10 0 21 7t12 16q1 14 -13.5 19.5t-29.5 2.5q0 -12 -17 -8zM687 1452q23 33 63 33 q8 0 20 -4q13 -4 18.5 -19.5t2.5 -31.5q-7 -25 -22 -40t-34 -8q-31 9 -39 15q-32 22 -9 55zM713 1427q1 -4 8 -11t10 -9q6 -5 14 -5.5t11 5.5q9 10 13.5 23.5t0.5 23t-18 8.5q-20 0 -35 -12q-2 -1 -2 -2.5t1 -3t1 -2.5q0 -3 -2 -8t-2 -7z" />
<glyph unicode="&#xd7;" horiz-adv-x="1046" d="M68 78q9 23 59 72.5t88 82.5q143 136 289 265q-55 68 -150.5 175t-132.5 130q-33 22 -94 22q-9 0 -10 9.5t8 11.5h8q20 0 51.5 -8.5t44.5 -16.5q40 -23 139.5 -134t151.5 -177q73 65 206.5 175.5t176.5 133.5q16 8 39 8q26 0 39 -8q9 -3 7 -11.5t-11 -6.5q-13 0 -19 6 q-23 3 -45 -6q-16 -8 -49 -32t-66 -50.5t-80.5 -66t-75 -63t-68.5 -59t-42 -36.5q49 -61 137.5 -182t98.5 -134q60 -77 92 -100q26 -20 58 -23q7 -1 9.5 -6t0 -9.5t-9.5 -4.5q-48 0 -101 53q-26 28 -158 205t-141 188q-78 -66 -246.5 -221t-183.5 -186q-7 -14 -17 -10 q-7 3 -3 14z" />
<glyph unicode="&#xd8;" horiz-adv-x="1253" d="M46 23.5q-1 5.5 3 11.5q53 70 131 170q-38 65 -49 162q-17 142 31 301q80 272 287 485q33 33 62 48.5t67 15.5q30 0 69 -17q2 -1 1.5 -5t-2.5 -8.5t-3 -4.5q-40 14 -72 14q-48 0 -109 -57t-113 -137.5t-92 -155t-58 -123.5q-58 -161 -52 -309q3 -114 48 -191 q54 69 174 220.5t188.5 239t166.5 216t177 238.5q-82 49 -146.5 77t-131.5 33q-1 0 -11 10q-1 4 11 11q70 -7 138 -36t152 -79q2 3 14 20t23.5 31.5t16.5 18.5q6 5 13.5 3.5t10 -7t-1.5 -11.5q-1 -1 -4.5 -1.5t-6 -1.5t-3.5 -3q-3 -3 -45 -59q50 -30 80 -50t68.5 -54.5 t62.5 -69.5q54 -82 51 -189q-3 -100 -44 -201.5t-108 -183.5q-108 -132 -283 -230.5t-335 -98.5q-146 0 -229 122q-22 -28 -65 -83t-65 -82q-5 -7 -10.5 -6t-6.5 6.5zM205 205q75 -117 213 -117q146 0 295.5 72.5t262 192.5t161.5 257q38 96 32 201q-2 57 -22.5 104.5 t-59 86t-75 65t-92.5 59.5q-103 -142 -212 -284t-282.5 -359.5t-220.5 -277.5z" />
<glyph unicode="&#xd9;" horiz-adv-x="1148" d="M94 1047q0 110 8 137q13 33 35 39q1 0 3.5 -6.5t2.5 -8.5q-10 -10 -20 -30q-8 -18 -8 -123q-11 -252 12 -406q9 -54 21.5 -105.5t37.5 -112t56 -104.5t79 -74t105 -30q90 0 184 67.5t164 164.5q104 149 164 350.5t100 449.5q6 12 11 9q10 -5 10 -9q0 -13 -2 -27 t-5.5 -31.5t-4.5 -27.5q-44 -330 -58 -608q-11 -255 25 -424q10 -52 14 -57q2 -2 6.5 -4.5t7 -4.5t0.5 -5q-2 -1 -5 -5t-5 -4q-13 0 -14 2q-21 28 -33.5 118t-15.5 157q-11 237 32 627q-82 -310 -182 -472q-66 -111 -174.5 -198.5t-220.5 -87.5q-57 0 -106 28.5t-82 72 t-59.5 102t-41 110t-24.5 105.5q-28 158 -17 426zM401 1614q-2 9 8 11t13 -7q1 -4 5 -19.5t8 -26t9 -18.5q16 -24 179 -165q6 -5 4.5 -11t-7.5 -7.5t-12 3.5q-23 18 -89.5 79t-82.5 79q-29 37 -35 82z" />
<glyph unicode="&#xda;" horiz-adv-x="1148" d="M94 1047q0 110 8 137q13 33 35 39q1 0 3.5 -6.5t2.5 -8.5q-10 -10 -20 -30q-8 -18 -8 -123q-11 -252 12 -406q9 -54 21.5 -105.5t37.5 -112t56 -104.5t79 -74t105 -30q90 0 184 67.5t164 164.5q104 149 164 350.5t100 449.5q6 12 11 9q10 -5 10 -9q0 -13 -2 -27 t-5.5 -31.5t-4.5 -27.5q-44 -330 -58 -608q-11 -255 25 -424q10 -52 14 -57q2 -2 6.5 -4.5t7 -4.5t0.5 -5q-2 -1 -5 -5t-5 -4q-13 0 -14 2q-21 28 -33.5 118t-15.5 157q-11 237 32 627q-82 -310 -182 -472q-66 -111 -174.5 -198.5t-220.5 -87.5q-57 0 -106 28.5t-82 72 t-59.5 102t-41 110t-24.5 105.5q-28 158 -17 426zM539 1425q4 12 29.5 48.5t37.5 50.5q43 50 90 69q2 0 14.5 5.5t14.5 5.5q8 2 10.5 -7t-4.5 -12q-9 -6 -29.5 -14.5t-29.5 -14.5q-60 -41 -113 -137q-4 -6 -9.5 -6.5t-9 3t-1.5 9.5z" />
<glyph unicode="&#xdb;" horiz-adv-x="1157" d="M96 1047q0 110 8 137q13 33 35 39q1 0 3.5 -6.5t2.5 -8.5q-10 -10 -20 -30q-8 -18 -8 -123q-11 -252 12 -406q9 -54 21.5 -105.5t37.5 -112t56 -104.5t79 -74t105 -30q90 0 184 67.5t164 164.5q104 149 164 350.5t100 449.5q6 12 11 9q10 -5 10 -9q0 -13 -2 -27 t-5.5 -31.5t-4.5 -27.5q-44 -330 -58 -608q-11 -255 25 -424q10 -52 14 -57q2 -2 6.5 -4.5t7 -4.5t0.5 -5q-2 -1 -5 -5t-5 -4q-13 0 -14 2q-21 28 -33.5 118t-15.5 157q-11 231 33 627q-82 -307 -183 -472q-66 -111 -174.5 -198.5t-220.5 -87.5q-57 0 -106 28.5t-82 72 t-59.5 102t-41 110t-24.5 105.5q-28 158 -17 426zM424.5 1302q-2.5 8 3.5 11q4 3 15.5 8t15.5 8q90 80 104 90q57 37 78 41q23 6 47 -4q42 -21 86 -129q3 -7 -0.5 -11.5t-9 -4t-8.5 7.5q-51 119 -92 123q-9 0 -19 -2.5t-21.5 -9t-21.5 -12t-23.5 -15.5t-22 -16.5 t-22.5 -18.5t-19 -16.5t-18 -16t-14 -12.5q-36 -29 -49 -29q-7 0 -9.5 8z" />
<glyph unicode="&#xdc;" horiz-adv-x="1159" d="M98 1047q0 110 8 137q13 33 35 39q1 0 3.5 -6.5t2.5 -8.5q-10 -10 -20 -30q-8 -18 -8 -123q-11 -252 12 -406q9 -54 21.5 -105.5t37.5 -112t56 -104.5t79 -74t105 -30q90 0 184 67.5t164 164.5q104 149 164 350.5t100 449.5q6 12 11 9q10 -5 10 -9q0 -13 -2 -27 t-5.5 -31.5t-4.5 -27.5q-44 -330 -58 -608q-11 -255 25 -424q10 -52 14 -57q2 -2 6.5 -4.5t7.5 -4.5t1 -5q-2 -1 -5.5 -5t-5.5 -4q-13 0 -14 2q-21 28 -33.5 118t-15.5 157q-11 231 33 627q-82 -307 -183 -472q-66 -111 -174.5 -198.5t-220.5 -87.5q-57 0 -106 28.5t-82 72 t-59.5 102t-41 110t-24.5 105.5q-28 158 -17 426zM347.5 1325q5.5 17 17.5 29q1 2 5.5 3.5t4.5 2.5q8 11 35 6q32 -6 35.5 -40t-27.5 -46q-13 -5 -35.5 -0.5t-32.5 16.5q-8 12 -2.5 29zM369 1307q12 -8 26 -9t23 9q12 13 5 27t-26 14h-2q-1 0 1 -4q1 -2 1 -3q4 -7 -3 -12.5 t-13 0.5q-3 7 -4 7q-1 1 -2 -1q-13 -22 -6 -28zM557 1335q4 20 17 22q7 1 10 -7q34 15 57 4q22 -14 8.5 -35.5t-41.5 -26.5q-7 -1 -23 5t-22 12q-6 4 -6 26zM582 1323q9 -9 22.5 -9t22.5 9q5 5 6 7.5t-1.5 4t-8.5 2.5q-21 6 -41 -14z" />
<glyph unicode="&#xdd;" horiz-adv-x="931" d="M20 1337q6 11 11 11q8 -8 8 -11l2 -8q24 -44 136.5 -210t148.5 -214q57 -69 94 -94q42 -25 76 -20q2 0 2 10q0 1 2 6t2 6q2 3 12 -2q1 -1 4 -10l2 -4q47 12 101 72t98 126q70 102 172 328q6 6 12 6q1 1 3 -1.5t3 -6t0 -4.5q-25 -54 -34.5 -74t-41.5 -84.5t-52.5 -99.5 t-56.5 -91t-65 -88.5t-66 -62.5t-71 -41q6 -83 0 -378.5t-16 -377.5q-1 -1 -5 -3t-5 -3t-6 4t-5 7q22 345 19 661q-1 14 -2 42t-2 42q-59 -3 -105 35q-14 11 -29 26l-25 25t-27 32t-21.5 28t-24.5 33.5t-22 29.5q-37 52 -100.5 151t-92.5 142q-1 1 -8.5 11.5t-13.5 20 t-8 13.5q-6 17 -3 20zM455 1329q19 20 89.5 85.5t92.5 82.5q6 5 11.5 2.5t5.5 -8t-5 -10.5q-73 -61 -178 -166q-8 -6 -15 -0.5t-1 14.5z" />
<glyph unicode="&#xde;" horiz-adv-x="698" d="M78.5 553.5q1.5 5.5 7.5 7.5q22 4 64 17q3 69 10 206t10 205q-14 5 -8 17l10 10q4 69 8 203q2 5 2 16t-2 14q-4 16 8 20q12 -1 15 -14q0 -76 -10 -221l2 2q68 51 208 51q37 0 74 -5t77 -17.5t68.5 -38.5t36.5 -63q9 -46 -16 -93t-75 -88.5t-95 -71t-98 -57.5 q-110 -62 -205 -92q-5 -80 -10.5 -272t-1.5 -238q2 -13 -10 -15q-10 -2 -11 9q-3 12 -2 100t3 155t5.5 155t3.5 100q-42 -14 -57 -14q-7 -1 -10 3t-1.5 9.5zM170 584q73 25 161 67.5t177.5 107.5t118.5 124q22 45 10 84q-28 94 -246 100q-137 0 -198 -61q-19 -336 -23 -422z " />
<glyph unicode="&#xdf;" horiz-adv-x="880" d="M98 549q0 82 1.5 133.5t10.5 131.5t25.5 137t49 119.5t79.5 107.5q69 66 161 99.5t187 27.5q42 0 80 -15q37 -19 45 -45q10 -31 -10 -80q-43 -101 -156 -206t-235 -183q105 31 192 31q36 0 74 -6q106 -20 173 -91.5t44 -164.5q-26 -109 -138 -221.5t-214 -112.5 q-54 0 -88 30t-68 87q-4 6 -1.5 11.5t7.5 5.5t9 -5q8 -9 24 -34t27 -36q37 -37 84 -37q37 0 74 13q115 51 204 180q73 105 64 180q-7 58 -53.5 101t-105 62t-116.5 19q-22 0 -44 -2t-51 -8.5t-41.5 -9.5t-50.5 -13.5t-42 -11.5q-8 -4 -20 -4q-6 2 -7.5 9.5t4.5 13.5 q11 9 78 49q182 121 297 270q86 115 66 162q-11 23 -49.5 33t-75.5 10q-77 0 -153 -26.5t-134 -73.5q-44 -37 -77.5 -83t-53 -102.5t-31.5 -105t-17 -118t-6 -112t-1 -114.5q0 -353 4 -471q0 -3 1 -17t1 -16q14 2 18 -8q2 -7 -8 -10q-6 -3 -14.5 -2.5t-11.5 6.5q-7 14 -7 73 q-4 147 -4 443z" />
<glyph unicode="&#xe0;" horiz-adv-x="661" d="M51 176q-18 77 55 178q62 84 154.5 143t192.5 78q12 3 22 3q15 0 42 -4t36 -5q4 120 -4 179q-11 111 -51 137q-20 18 -68 18q-70 0 -161 -44.5t-122 -102.5q-4 -9 -3.5 -12.5t6.5 -12.5q6 -6 0 -12t-13 -2q-14 7 -14 24q0 23 28.5 54t55.5 49q117 80 223 80q55 0 86 -27 q77 -73 49 -442q-10 -185 -10 -222q0 -42 8 -90t27 -63q6 -6 2 -14t-12 -5q-19 7 -30 48t-13 72.5t-2 60.5q-193 -95 -314 -129q-55 -14 -94 -9q-64 13 -76 72zM66.5 219.5q-6.5 -40.5 17.5 -67.5t63 -27q102 0 388 139q1 42 4 89.5t7.5 106t6.5 89.5q-3 0 -33 3t-45 3 q-25 0 -37 -4q-96 -27 -164 -71t-135 -118q-27 -31 -46.5 -66.5t-26 -76zM284 1138.5q0 6.5 5 9t12 -0.5q105 -57 174 -84q13 -5 7 -17q-4 -8 -13 -4q-65 27 -178 86q-7 4 -7 10.5z" />
<glyph unicode="&#xe1;" horiz-adv-x="663" d="M53 176q-18 76 56 178q62 84 154 143t192 78q12 3 22 3q15 0 42 -4t36 -5q4 120 -4 179q-11 111 -51 137q-20 18 -68 18q-69 0 -160 -44.5t-122 -102.5q-5 -9 -4.5 -12.5t6.5 -12.5q6 -6 0 -12t-13 -2q-14 7 -14 24q0 23 28.5 54t55.5 49q117 80 223 80q55 0 86 -27 q77 -73 49 -442q-10 -185 -10 -222q0 -42 8 -90t27 -63q6 -6 2 -14t-12 -5q-19 7 -30 48t-13 72.5t-2 60.5q-193 -95 -314 -129q-55 -14 -94 -9q-64 13 -76 72zM68.5 219.5q-6.5 -40.5 17.5 -67.5t64 -27q101 0 387 139q1 42 4 89.5t7.5 106t6.5 89.5q-3 0 -33 3t-45 3 q-25 0 -37 -4q-96 -27 -164 -71t-135 -118q-27 -31 -46.5 -66.5t-26 -76zM263.5 1032.5q-0.5 5.5 4.5 9.5q8 5 48.5 31.5t77.5 50t50 27.5q10 3 13.5 -6t-4.5 -15q-26 -14 -54 -30.5t-65 -40t-53 -33.5q-6 -5 -11.5 -2t-6 8.5z" />
<glyph unicode="&#xe2;" horiz-adv-x="665" d="M53 176q-18 76 56 178q62 84 154 143t192 78q12 3 22 3q15 0 42 -4t36 -5q4 120 -4 179q-11 111 -51 137q-20 18 -68 18q-69 0 -160 -44.5t-122 -102.5q-5 -9 -4.5 -12.5t6.5 -12.5q6 -6 0 -12t-13 -2q-14 7 -14 24q0 23 28.5 54t55.5 49q117 80 223 80q55 0 86 -27 q77 -73 49 -442q-10 -185 -10 -222q0 -42 8 -90t27 -63q6 -6 2 -14t-12 -5q-19 7 -30 48t-13 72.5t-2 60.5q-193 -95 -314 -129q-55 -14 -94 -9q-64 13 -76 72zM68.5 219.5q-6.5 -40.5 17.5 -67.5t64 -27q101 0 387 139q1 42 4 89.5t7.5 106t6.5 89.5q-3 0 -33 3t-45 3 q-25 0 -37 -4q-96 -27 -164 -71t-135 -118q-27 -31 -46.5 -66.5t-26 -76zM240 1049q3 10 12 8q4 -2 16 -2q25 10 90 75l10 12q11 11 20 19t13 10q13 4 30 -9.5t36 -35.5t27 -28q2 -2 7.5 -4t6.5 -2q6 -5 3.5 -12.5t-11.5 -6.5t-18.5 7.5t-15.5 13.5t-15 18t-13 16 q-27 31 -39 17q-61 -65 -98 -92q-30 -25 -55 -17q-9 3 -6 13z" />
<glyph unicode="&#xe3;" horiz-adv-x="661" d="M51 176q-18 77 55 178q62 84 154.5 143t192.5 78q12 3 22 3q15 0 42 -4t36 -5q4 120 -4 179q-11 111 -51 137q-20 18 -68 18q-70 0 -161 -44.5t-122 -102.5q-4 -9 -3.5 -12.5t6.5 -12.5q6 -6 0 -12t-13 -2q-14 7 -14 24q0 23 28.5 54t55.5 49q117 80 223 80q55 0 86 -27 q77 -73 49 -442q-10 -185 -10 -222q0 -42 8 -90t27 -63q6 -6 2 -14t-12 -5q-19 7 -30 48t-13 72.5t-2 60.5q-193 -95 -314 -129q-55 -14 -94 -9q-64 13 -76 72zM66.5 219.5q-6.5 -40.5 17.5 -67.5t63 -27q102 0 388 139q1 42 4 89.5t7.5 106t6.5 89.5q-3 0 -33 3t-45 3 q-25 0 -37 -4q-96 -27 -164 -71t-135 -118q-27 -31 -46.5 -66.5t-26 -76zM226 1022q-2 4 1 8q9 15 49 39q33 21 58 18q8 -1 56 -19.5t59 -18.5q30 3 43 43q3 7 11.5 6.5t8.5 -8.5q0 -17 -14.5 -35t-30.5 -23q-13 -6 -39 -2q-5 2 -28.5 12t-45 17.5t-30.5 7.5q-15 -2 -74 -41 q2 -12 -9 -13q-12 -1 -15 9z" />
<glyph unicode="&#xe4;" horiz-adv-x="659" d="M51 176q-18 77 55 178q62 84 154.5 143t192.5 78q12 3 22 3q15 0 42 -4t36 -5q4 120 -4 179q-11 111 -51 137q-20 18 -68 18q-70 0 -161 -44.5t-122 -102.5q-4 -9 -3.5 -12.5t6.5 -12.5q6 -6 0 -12t-13 -2q-14 7 -14 24q0 23 28.5 54t55.5 49q117 80 223 80q55 0 86 -27 q77 -73 49 -442q-10 -185 -10 -222q0 -42 8 -90t27 -63q6 -6 2 -14t-12 -5q-19 7 -30 48t-13 72.5t-2 60.5q-193 -95 -314 -129q-55 -14 -94 -9q-64 13 -76 72zM66.5 219.5q-6.5 -40.5 17.5 -67.5t63 -27q102 0 388 139q1 42 4 89.5t7.5 106t6.5 89.5q-3 0 -33 3t-45 3 q-25 0 -37 -4q-96 -27 -164 -71t-135 -118q-27 -31 -46.5 -66.5t-26 -76zM249.5 1028q-2.5 5 2.5 10q16 13 35 13q23 0 33.5 -13.5t-1.5 -33.5q-17 -21 -38 -21q-17 0 -23 14q-2 10 2 23q-8 3 -10.5 8zM279 1008q-1 -6 5 -4q1 0 13 6q12 12 6 16q-9 9 -18 4q-6 -6 -6 -22z M393.5 1011q-0.5 12 5.5 19q17 21 39 21q26 0 33 -23q7 -19 -7 -36t-34 -17q-9 0 -18 6q-1 1 -5.5 7t-5.5 7q-7 4 -7.5 16zM420 1004q2 -8 9.5 -8.5t14.5 5t9 13.5q1 10 -8.5 13.5t-18.5 -1.5q-10 -7 -6 -22z" />
<glyph unicode="&#xe5;" horiz-adv-x="667" d="M53 176q-18 76 56 178q62 84 154 143t192 78q12 3 22 3q15 0 42 -4t36 -5q4 120 -4 179q-11 111 -51 137q-20 18 -68 18q-69 0 -160 -44.5t-122 -102.5q-5 -9 -4.5 -12.5t6.5 -12.5q6 -6 0 -12t-13 -2q-14 7 -14 24q0 23 28.5 54t55.5 49q117 80 223 80q55 0 86 -27 q77 -73 49 -442q-10 -185 -10 -222q0 -42 8 -90t27 -63q6 -6 2 -14t-12 -5q-19 7 -30 48t-13 72.5t-2 60.5q-193 -95 -314 -129q-55 -14 -94 -9q-64 13 -76 72zM68.5 219.5q-6.5 -40.5 17.5 -67.5t64 -27q101 0 387 139q1 42 4 89.5t7.5 106t6.5 89.5q-3 0 -33 3t-45 3 q-25 0 -37 -4q-96 -27 -164 -71t-135 -118q-27 -31 -46.5 -66.5t-26 -76zM342 1094q-9 24 10 43q19 16 54 27.5t55 4.5q14 -6 21 -24t5 -35q-3 -40 -35 -79.5t-71 -39.5q-23 0 -31 17q-25 39 -8 86zM358 1042q6 -24 15 -30q10 -3 16 0q32 9 56 43.5t22 68.5q0 12 -6 21 q-5 8 -21 8t-49 -14q8 -1 11.5 -6t1 -10t-10.5 -5q-23 0 -31.5 -24t-3.5 -52z" />
<glyph unicode="&#xe6;" horiz-adv-x="1179" d="M51 176q-18 77 55 178q62 84 154.5 143t192.5 78q12 3 22 3q15 0 42 -4t36 -5q4 120 -4 179q-11 111 -51 137q-20 18 -68 18q-70 0 -161 -44.5t-122 -102.5q-4 -9 -3.5 -12.5t6.5 -12.5q6 -6 0 -12t-13 -2q-14 7 -14 24q0 23 28.5 54t55.5 49q131 89 250 78q25 0 49 -17 q84 -54 65 -362q46 99 142 178.5t192 79.5q15 0 39 -4q47 -10 77 -41.5t19 -71.5q-21 -62 -175.5 -128.5t-237.5 -76.5q-35 -4 -56 4q-5 -19 -9.5 -92t-4.5 -106q-1 -22 18.5 -57t38.5 -50q54 -47 168 -47q85 0 262 33q5 1 45.5 11t45.5 11q10 1 12.5 -8t-6.5 -12 q-195 -55 -359 -55q-173 0 -227 110q7 -120 35 -141q6 -6 2 -14t-12 -5q-19 7 -30 48t-13 72.5t-2 60.5q-193 -95 -314 -129q-55 -14 -94 -9q-64 13 -76 72zM66.5 219.5q-6.5 -40.5 17.5 -67.5t63 -27q102 0 388 139q1 14 -2 39t-3 35q-2 46 13 117q6 31 10 94q-3 0 -33 3 t-45 3q-25 0 -37 -4q-96 -27 -164 -71t-135 -118q-27 -31 -46.5 -66.5t-26 -76zM580.5 505.5q0.5 -3.5 3.5 -3.5q16 -1 28 -1t37.5 6.5t43 11t45 14t43.5 15t37.5 13.5t27.5 10q75 31 125 66q67 46 47 88q-14 27 -46.5 41t-66.5 14q-100 0 -191 -83t-132 -185 q-2 -3 -1.5 -6.5z" />
<glyph unicode="&#xe7;" horiz-adv-x="776" d="M51 365q-6 137 62.5 253t191.5 177q79 39 152 39q119 0 151 -35q20 -27 17 -41q0 -3 -6.5 -5.5t-8.5 -0.5q-15 30 -22 36q-28 25 -119 25q-51 0 -85.5 -9t-78.5 -34q-100 -53 -161.5 -144.5t-71.5 -203.5q-7 -116 37 -199q33 -61 88.5 -83.5t134.5 -22.5q118 0 330 55 q5 1 36.5 9t36.5 9l10 -8q-6 -12 -8 -12q-17 -7 -51 -14q-11 -3 -50.5 -12.5t-55.5 -13t-50.5 -11t-55.5 -11t-50.5 -7.5t-56 -5t-52.5 0q-2 -5 -16 -32.5t-16 -32.5q6 3 18.5 11t20 12t19 8t21.5 4q14 0 26.5 -13.5t17.5 -29.5q17 -52 -13.5 -111t-83.5 -86q-31 -15 -59 -6 q-8 3 -6.5 11.5t10.5 8.5q35 0 41 2q31 13 55 41.5t33 61.5q14 48 0 80q-9 18 -18 20q-11 0 -52.5 -22t-46.5 -23q-8 -1 -11 8.5t1 18.5q26 51 39 69q-228 23 -244 269z" />
<glyph unicode="&#xe8;" horiz-adv-x="694" d="M51 403q7 102 45 177q49 99 139.5 173t190.5 74q43 0 79 -18.5t54 -54.5q11 -27 -8.5 -58.5t-52.5 -52.5q-60 -38 -186 -87.5t-185 -49.5q-23 0 -35 4q-35 -115 -16 -203q21 -80 73 -113t140 -36q149 0 364 55q11 2 12.5 -7.5t-8.5 -12.5q-199 -56 -358 -56 q-178 0 -231 127q-23 63 -17 139zM102 541q-8 -15 15 -15q59 0 189.5 50.5t185.5 87.5q36 25 47 53q9 26 -10.5 49t-51.5 33q-41 11 -74 8q-97 -13 -179 -90.5t-122 -175.5zM194 1098q4 7 13 4q8 -3 31.5 -18t54 -36.5t31.5 -21.5q3 -2 26.5 -15.5t26.5 -15.5q6 -6 2 -13.5 t-12 -4.5q-11 4 -45.5 26.5t-72 48t-44.5 29.5l-8 4q-7 6 -3 13z" />
<glyph unicode="&#xe9;" horiz-adv-x="694" d="M51 403q7 102 45 177q49 99 139.5 173t190.5 74q43 0 79 -18.5t54 -54.5q11 -27 -8.5 -58.5t-52.5 -52.5q-60 -38 -186 -87.5t-185 -49.5q-23 0 -35 4q-35 -115 -16 -203q21 -80 73 -113t140 -36q149 0 364 55q11 2 12.5 -7.5t-8.5 -12.5q-199 -56 -358 -56 q-178 0 -231 127q-23 63 -17 139zM102 541q-8 -15 15 -15q59 0 189.5 50.5t185.5 87.5q36 25 47 53q9 26 -10.5 49t-51.5 33q-41 11 -74 8q-97 -13 -179 -90.5t-122 -175.5zM322 984.5q-1 6.5 4 10.5q59 47 151 129q5 4 10.5 2t6.5 -7t-2 -9q-12 -18 -144 -123 q-16 -11 -18 -10q-7 1 -8 7.5z" />
<glyph unicode="&#xea;" horiz-adv-x="694" d="M49 403q7 102 45 177q49 99 139.5 173t190.5 74q43 0 79 -18.5t54 -54.5q11 -27 -8.5 -58.5t-52.5 -52.5q-60 -38 -186 -87.5t-185 -49.5q-23 0 -35 4q-35 -115 -16 -203q21 -80 73 -113t140 -36q149 0 364 55q11 2 12.5 -7.5t-8.5 -12.5q-199 -56 -358 -56 q-178 0 -231 127q-23 63 -17 139zM100 541q-8 -15 15 -15q59 0 189 50.5t185 87.5q37 26 48 53q9 26 -10.5 49t-51.5 33q-41 11 -74 8q-97 -13 -179 -90.5t-122 -175.5zM290 995q-4 9 9 19t40.5 37.5t45.5 38.5q14 11 35 4q8 -3 24 -17t30 -28t31.5 -32.5t20.5 -21.5 q5 -6 2.5 -11.5t-8 -5.5t-10.5 5q-3 3 -19 20t-28.5 30t-28 26t-24.5 16q-11 4 -39 -24q-7 -6 -19 -18.5t-22.5 -22t-20.5 -15.5q-15 -10 -19 0z" />
<glyph unicode="&#xeb;" horiz-adv-x="692" d="M49 403q7 102 45 177q49 99 139.5 173t190.5 74q43 0 79 -18.5t54 -54.5q11 -27 -8.5 -58.5t-52.5 -52.5q-60 -38 -186 -87.5t-185 -49.5q-23 0 -35 4q-35 -115 -16 -203q21 -80 73 -113t140 -36q149 0 364 55q11 2 12.5 -7.5t-8.5 -12.5q-199 -56 -358 -56 q-178 0 -231 127q-23 63 -17 139zM100 541q-8 -15 15 -15q59 0 189 50.5t185 87.5q37 26 48 53q9 26 -10.5 49t-51.5 33q-41 11 -74 8q-97 -13 -179 -90.5t-122 -175.5zM218 948q-7 20 3 37q4 9 13 5t6 -13q9 6 20 6q15 0 24 -8t3 -21q-3 -10 -16.5 -18t-26.5 -8 q-19 0 -26 20zM249 948q1 -1 7 2t10 11q-1 -1 -4 2q-1 -1 -6 -6.5t-6 -6.5q-2 -2 -1 -2zM367 952q0 8 5.5 14.5t12.5 6.5q-3 17 9 27t30 10q25 0 29 -25q6 -32 -13 -53t-43 -21q-33 0 -30 41zM389 954q-10 -6 6 -22q12 -9 27 10q14 14 10 41q-3 12 -22 2q-2 -2 -7 -12 q-4 -8 -10 -8q-1 0 -1.5 -2.5l-1 -5t-1.5 -3.5z" />
<glyph unicode="&#xec;" horiz-adv-x="237" d="M43 1020q-2 9 7.5 11t12.5 -7q6 -19 21.5 -35t34.5 -24q16 -9 63 -17q8 -2 8 -10t-8 -10q-41 0 -87 28t-52 64zM117 274q0 27 1 207t1 205v25.5t3 36t11 18.5q4 4 12.5 -2t6.5 -12q0 -1 -5.5 -5.5t-5.5 -5.5q-2 -66 -2 -198q0 -36 -1.5 -104t-2 -111t3.5 -101t13 -106 q0 -1 -5.5 -4t-5.5 -4q-1 1 -3.5 2.5t-4.5 3t-2 2.5q-5 18 -8 40t-3.5 35t-1.5 41.5t-1 36.5z" />
<glyph unicode="&#xed;" horiz-adv-x="237" d="M58 918.5q-1 5.5 3 9.5q3 3 21.5 23t33.5 36t30 34.5t18 27.5q-8 0 -10 6.5t4 11.5q9 8 19 0.5t9 -20.5q-4 -14 -26 -41q-8 -12 -42 -49t-44 -44q-5 -5 -10 -2.5t-6 8zM93.5 481q0.5 165 2.5 205q0 72 13 80q4 4 12 -2t6 -12q0 -1 -4 -5.5t-4 -5.5q-2 -38 -2.5 -107 t-1.5 -91q0 -30 -3 -130t0 -165t15 -127q0 -1 -5 -4t-5 -4q-1 1 -3.5 2.5l-5 3t-2.5 2.5q-12 44 -12 153q-1 42 -0.5 207z" />
<glyph unicode="&#xee;" horiz-adv-x="337" d="M32 906q-1 6 3 12q44 44 78 73q24 19 39 17q12 -1 56 -37.5t48 -38.5q13 -5 45 -10q9 -2 9 -11.5t-9 -9.5q-46 0 -117 62q-24 24 -37 24q-10 2 -32 -20q-35 -31 -66 -66q-5 -5 -10.5 -3t-6.5 8zM154 274q0 27 1 207t1 205v25.5t3 36t11 18.5q4 4 12 -2t6 -12 q0 -1 -5 -5.5t-5 -5.5q-2 -66 -2 -198q0 -30 -3 -130t0 -165t15 -127q0 -1 -5 -4t-5 -4q-1 1 -3.5 2.5t-4.5 3t-2 2.5q-5 18 -8 40t-3.5 35t-1.5 41.5t-1 36.5z" />
<glyph unicode="&#xef;" horiz-adv-x="344" d="M29 950q-4 9 1.5 20.5t16.5 16.5q6 4 11 -1t3 -11q22 6 33 -12t-4 -35q-8 -10 -20 -10t-24.5 9.5t-16.5 22.5zM57 948q-3 -3 1 -5.5t10 -4.5q4 -3 7 2t3 10q-2 7 -9 5t-12 -7zM167.5 481q0.5 165 2.5 205q0 2 -0.5 14.5t0 20t1.5 18t3.5 17.5t7.5 10q4 4 12.5 -2t6.5 -12 q0 -1 -4 -5.5t-4 -5.5q-3 -50 -3 -198q0 -31 -2.5 -103t-3 -112.5t3.5 -99.5t13 -107q0 -1 -5.5 -4t-5.5 -4q-1 1 -3.5 2.5t-4.5 3t-2 2.5q-12 51 -12 153q-1 42 -0.5 207zM240 971q0 1 1 3t1.5 3.5t-0.5 1.5q-3 12 8 16q24 7 43.5 -1.5t19.5 -30.5q0 -14 -14.5 -32 t-28.5 -18t-22 18.5t-8 39.5zM258 975q2 -5 4 -20q3 -20 8 -21l4 2q26 21 17 33q-6 10 -33 6z" />
<glyph unicode="&#xf0;" horiz-adv-x="749" d="M43 285q-3 35 11 70t36 66.5t51 59.5q129 129 373 221q106 37 123 37q-27 135 -127 281q-193 -114 -291 -203q-5 -3 -14 -12.5t-10 -13.5q-2 -12 -13 -11q-8 0 -8 8q0 52 326 248q-41 58 -104 115t-126 94q-6 -5 -12.5 -1t-3.5 11q3 11 12 11q7 0 47 -25 q131 -95 203 -194q5 3 29 17t44 25.5t42 22.5t31 12q9 2 11 -6.5t-7 -11.5q-4 -2 -138 -76q71 -106 115 -227q64 -181 14 -354q-37 -132 -158.5 -207.5t-267.5 -75.5q-109 0 -161 57q-24 27 -27 62zM70 338q-14 -44 2 -78q34 -74 168 -74q131 0 241.5 67t151.5 185 q42 128 12 281h-10q-11 0 -68 -19q-70 -24 -139 -55.5t-146 -77t-134.5 -105.5t-77.5 -124z" />
<glyph unicode="&#xf1;" horiz-adv-x="702" d="M61 850q0 2 5 12q2 2 8.5 -0.5t7.5 -5.5q25 -91 33 -287q12 -314 26 -389q7 19 41.5 131t34.5 113q40 120 112 269t136 192q22 16 49 16q79 0 104 -239q11 -118 11 -449q0 -3 1 -34t1 -56.5t-2 -32.5q0 -1 -6.5 0.5t-10.5 3.5q-4 6 -4 35q0 46 1.5 178.5t-2 223.5 t-15.5 178q-3 32 -9.5 65.5t-26.5 70t-48 36.5q-16 0 -34 -14t-28 -26.5t-28 -37.5q-51 -71 -101 -184t-77 -194t-62 -200l-9 -27q-9 -26 -13 -32q-10 -10 -11 -10q-12 0 -14 4q-9 15 -16 56t-9.5 78.5t-4.5 86t-3 57.5q-13 309 -20 340q0 6 -8.5 38.5t-8.5 33.5zM252 1008 q5 30 32.5 61t57.5 35q26 0 55 -25q2 -1 8.5 -5.5t10 -7t10 -6.5t10 -4t8.5 1q7 4 15 17t16 31t10 21q3 8 9 9.5t9.5 -3t0.5 -12.5q-5 -14 -8.5 -22.5t-10 -22t-12 -19.5t-14.5 -14.5t-17 -7t-20 3.5q-12 4 -30.5 20t-29.5 21q-10 7 -22 4q-43 -12 -68 -82q-2 -6 -7.5 -6.5 t-9.5 3.5t-3 10z" />
<glyph unicode="&#xf2;" horiz-adv-x="673" d="M55 475q8 80 59 198t105 175q35 35 74 41q3 0 2 2.5t-2.5 5.5t0.5 4q12 6 14 6q60 -12 99 -22.5t77 -28t60.5 -40t40.5 -56.5t25 -80.5t7 -108.5q0 -61 -7 -116t-26.5 -113t-50 -100t-82 -68.5t-118.5 -26.5q-84 0 -160.5 49.5t-103.5 127.5q-24 62 -13 151zM74 475 q-7 -95 14 -151q28 -70 99.5 -113t148.5 -43q260 0 260 416q0 110 -35 172q-20 44 -61 68.5t-101 41.5q-1 0 -5 -3.5t-7 -2.5q-14 0 -40 4t-38 4q-25 0 -43.5 -11.5t-40.5 -35.5q-54 -69 -97.5 -167t-53.5 -179zM207 1138q-1 10 8 11q12 2 33 -10q21 -10 119 -68 q12 -7 6 -15.5t-17 -2.5q-4 2 -37.5 23.5t-61 36t-40.5 15.5q-9 0 -10 10z" />
<glyph unicode="&#xf3;" horiz-adv-x="675" d="M55 475q8 80 59 198t105 175q35 35 74 41q3 0 2 2.5t-2.5 5.5t0.5 4q12 6 14 6q60 -12 99 -22.5t77 -28t60.5 -40t40.5 -56.5t25 -80.5t7 -108.5q0 -61 -7 -116t-26.5 -113t-50 -100t-82 -68.5t-118.5 -26.5q-84 0 -160.5 49.5t-103.5 127.5q-24 62 -13 151zM74 475 q-7 -95 14 -151q28 -70 99.5 -113t148.5 -43q260 0 260 416q0 110 -35 172q-20 44 -61 68.5t-101 41.5q-1 0 -5 -3.5t-7 -2.5q-14 0 -40 4t-38 4q-25 0 -43.5 -11.5t-40.5 -35.5q-54 -69 -97.5 -167t-53.5 -179zM260 1049q9 15 78.5 75t85.5 70q5 4 10 5t8.5 -1.5t3.5 -7.5 q0 -10 -4.5 -15t-11.5 -1q-4 -4 -40.5 -35.5t-67.5 -59.5t-39 -37l-7 -6q-7 -6 -14 -0.5t-2 13.5z" />
<glyph unicode="&#xf4;" horiz-adv-x="679" d="M57 475q8 80 59 198t105 175q35 35 74 41q3 0 2 2.5t-2.5 5.5t0.5 4q12 6 14 6q60 -12 99 -22.5t77 -28t60.5 -40t40.5 -56.5t25 -80.5t7 -108.5q0 -61 -7 -116t-26.5 -113t-50 -100t-82 -68.5t-118.5 -26.5q-84 0 -160.5 49.5t-103.5 127.5q-24 62 -13 151zM76 475 q-7 -95 14 -151q28 -70 99.5 -113t148.5 -43q260 0 260 416q0 110 -35 172q-20 44 -61 68.5t-101 41.5q-1 0 -5 -3.5t-7 -2.5q-14 0 -40 4t-38 4q-25 0 -43.5 -11.5t-40.5 -35.5q-54 -69 -97.5 -167t-53.5 -179zM209.5 1057q-4.5 7 1.5 12q7 5 68 66t79 67q19 8 37 -14 q61 -70 107 -131q9 -10 0.5 -17t-17.5 2q-88 113 -108 136q-8 8 -10 6q-13 -7 -52.5 -43t-52.5 -51q-2 -1 -8.5 -8.5t-11.5 -12.5t-11.5 -10t-9.5 -6q-7 -3 -11.5 4z" />
<glyph unicode="&#xf5;" horiz-adv-x="675" d="M57 475q8 80 59 198t105 175q35 35 74 41q3 0 2 2.5t-2.5 5.5t0.5 4q12 6 14 6q60 -12 99 -22.5t77 -28t60.5 -40t40.5 -56.5t25 -80.5t7 -108.5q0 -61 -7 -116t-26.5 -113t-50 -100t-82 -68.5t-118.5 -26.5q-84 0 -160.5 49.5t-103.5 127.5q-24 62 -13 151zM76 475 q-7 -95 14 -151q28 -70 99.5 -113t148.5 -43q260 0 260 416q0 110 -35 172q-20 44 -61 68.5t-101 41.5q-1 0 -5 -3.5t-7 -2.5q-14 0 -40 4t-38 4q-25 0 -43.5 -11.5t-40.5 -35.5q-54 -69 -97.5 -167t-53.5 -179zM166 1014q5 16 24 39.5t33 29.5q16 5 37 -2q13 -5 40 -23.5 t44 -23.5q25 -9 46 9.5t26 48.5q2 12 11.5 6.5t8.5 -17.5q-3 -10 -17.5 -30.5t-23.5 -28.5q-22 -15 -41 -12q-16 4 -53 22q-49 33 -63 33q-26 -2 -54 -59q-5 -8 -13 -4.5t-5 12.5z" />
<glyph unicode="&#xf6;" horiz-adv-x="677" d="M57 475q8 80 59 198t105 175q35 35 74 41q3 0 2 2.5t-2.5 5.5t0.5 4q12 6 14 6q60 -12 99 -22.5t77 -28t60.5 -40t40.5 -56.5t25 -80.5t7 -108.5q0 -61 -7 -116t-26.5 -113t-50 -100t-82 -68.5t-118.5 -26.5q-84 0 -160.5 49.5t-103.5 127.5q-24 62 -13 151zM76 475 q-7 -95 14 -151q28 -70 99.5 -113t148.5 -43q260 0 260 416q0 110 -35 172q-20 44 -61 68.5t-101 41.5q-1 0 -5 -3.5t-7 -2.5q-14 0 -40 4t-38 4q-25 0 -43.5 -11.5t-40.5 -35.5q-54 -69 -97.5 -167t-53.5 -179zM193 1110q-10 11 2 23t30 14q2 0 7 3.5t6 4.5q6 3 11 -0.5 t3 -9.5q0 -1 8.5 -8t9.5 -9q8 -16 -1.5 -32.5t-28.5 -24.5q-12 -4 -19 -4q-17 0 -25.5 12t-2.5 31zM211 1090q10 -15 35 10q9 14 6 18q-2 3 -10 6t-11 0q-26 -21 -20 -34zM400 1090q-1 23 9 21q3 0 7 -3q24 31 61 22q23 -4 23 -31t-15 -48q-14 -25 -39 -25q-11 0 -24 10 q-20 16 -22 54zM426 1071q4 -16 12 -22q13 -10 27 8q6 8 10.5 24t3.5 25q-5 8 -22 4q-7 0 -15.5 -4t-9.5 -10q0 -3 4 -8t4 -7q0 -6 -4.5 -9t-9.5 -1z" />
<glyph unicode="&#xf7;" horiz-adv-x="706" d="M29 481.5q0 10.5 12 10.5q68 2 270 24q93 10 353 14q8 0 11.5 -5t0 -10t-11.5 -5q-224 -5 -267 -8q-52 -3 -171.5 -16.5t-184.5 -14.5q-12 0 -12 10.5zM320 789.5q1 9.5 10 9.5h4q34 0 58.5 -20t15.5 -48q-6 -13 -19 -22t-27 -9q-23 0 -28 19q-8 22 4 57q0 2 -10 2 q-9 2 -8 11.5zM331.5 215q-0.5 19 0.5 25q2 8 9 8.5t9 -6.5q17 10 37 10q24 0 35 -14q12 -18 3.5 -38.5t-28.5 -31.5q-9 -6 -20 -6q-21 0 -35 18q-1 2 -4.5 5t-3.5 5q-2 6 -2.5 25zM350 740q1 -19 15 -19h4q12 3 17 14.5t-1 20.5t-27 18q-9 -15 -8 -34zM357 196 q9 -20 26 -14q18 9 25 31q4 14 -12.5 17t-30.5 -5q-17 -9 -8 -29z" />
<glyph unicode="&#xf8;" horiz-adv-x="706" d="M55 10q5 15 30 57t55 90.5t34 55.5q-59 49 -82 111q-23 60 -12 151q11 84 60 200t104 173q36 36 75 41q2 0 1 2.5t-2 5.5t1 4q12 6 13 6q2 0 24 -4.5t26.5 -5t24 -5t26 -6.5t23 -6.5t25 -8.5t21.5 -9.5t23 -12t20 -13.5q41 80 53 106q12 34 16 39q4 6 11.5 3t7.5 -9 q0 -21 -10 -23q-24 -60 -62 -131q37 -27 55 -84q25 -64 25 -166q0 -61 -6.5 -115.5t-25.5 -112.5t-49 -99t-82 -67.5t-120 -26.5q-94 0 -168 51q-2 -4 -51.5 -85.5t-56.5 -97.5q0 -8 -8 -16q-4 -7 -13 -3.5t-6 11.5zM100 475q-10 -86 15 -151q22 -58 71 -95 q26 42 110.5 177.5t138.5 227t102 183.5q-37 25 -113 49q-2 0 -5 -3.5t-5 -2.5q-14 0 -41 4t-39 4q-41 0 -84 -47.5t-73.5 -114t-51.5 -130t-25 -101.5zM203 217q71 -47 157 -47q187 0 240 217q24 95 21 197q0 154 -70 219q-36 -70 -83.5 -152t-83 -140t-94 -152t-87.5 -142 z" />
<glyph unicode="&#xf9;" horiz-adv-x="665" d="M57 762q10 33 31 57q1 1 4 2t5.5 1t2.5 -1q9 -21 9 -47q0 -72 3 -147.5t11 -179.5t27 -189t47 -127q19 -27 39 -27q22 0 54.5 47t66 120.5t53 120.5t34.5 87q51 148 111 383q0 11 8 19q2 2 9.5 -3t7.5 -8q-25 -342 -15 -581q4 -95 21 -158q1 -2 8.5 -4t7.5 -4 q-1 -2 -2 -6t-2 -6q0 -2 -6.5 -5t-7.5 -2q-8 4 -15 11q-10 32 -18 104q-5 39 -10 178q0 166 10 371q-49 -193 -103 -343t-133 -273q-45 -68 -84 -68q-24 0 -44.5 25t-34.5 69.5t-25.5 98t-18 117.5t-11 120t-6.5 114.5t-2.5 92t-0.5 59.5l-12 -24q0 -3 -5 -6t-8 0zM170 1069 q-3 7 1.5 11.5t12.5 4.5t13 -5.5t0 -12.5q50 -46 139 -109q7 -4 7 -10t-5 -8t-12 2q-74 50 -138 105q-15 15 -18 22z" />
<glyph unicode="&#xfa;" horiz-adv-x="663" d="M55 762q10 33 31 57q1 1 4 2t5.5 1t2.5 -1q8 -19 8 -47q0 -103 4.5 -208t26.5 -243t58 -192q19 -27 38 -27q22 0 55 47.5t66 120t53 120.5t35 87q51 148 111 383q0 11 8 19q2 2 9.5 -3t7.5 -8q-25 -342 -15 -581q4 -95 21 -158q1 -2 8.5 -4t7.5 -4q-1 -2 -2 -6t-2 -6 q0 -2 -6.5 -5t-7.5 -2q-8 4 -15 11q-10 32 -18 104q-5 39 -10 178q0 166 10 371q-49 -193 -103 -343t-133 -273q-45 -68 -84 -68q-24 0 -44.5 25t-34.5 69.5t-25.5 98t-18 117.5t-11 120t-6.5 114.5t-2.5 92t-0.5 59.5l-12 -24q0 -3 -5 -6t-8 0zM239 961q-7 7 1 18 q1 2 29.5 36t50.5 61.5t26 37.5q-3 9 5 13t14 -3q2 -3 3 -6.5t-0.5 -7.5t-3.5 -7.5t-5.5 -8t-6 -7.5t-6.5 -7.5t-6 -6.5q-15 -19 -43.5 -54.5t-42.5 -53.5q-8 -11 -15 -4z" />
<glyph unicode="&#xfb;" horiz-adv-x="661" d="M53 762q10 33 31 57q1 1 4 2t5.5 1t2.5 -1q8 -19 8 -47q0 -103 4.5 -208t26.5 -243t58 -192q19 -27 38 -27q22 0 55 47.5t66 120t53 120.5t35 87q51 148 111 383q0 11 8 19q2 2 9 -3t7 -8q-24 -333 -14 -581q4 -95 21 -158q1 -2 8.5 -4t7.5 -4q-1 -2 -2 -6t-2 -6 q0 -2 -6.5 -5t-7.5 -2q-8 4 -15 11q-10 32 -18 104q-5 39 -10 178q0 166 10 371q-49 -193 -103 -343t-133 -273q-45 -68 -84 -68q-24 0 -44.5 25t-34.5 69.5t-25.5 98t-18 117.5t-11 120t-6.5 114.5t-2.5 92t-0.5 59.5l-12 -24q0 -3 -5 -6t-8 0zM255 1026q0 3 1 6 q3 8 20.5 28t26.5 27q17 17 29 19q10 3 20 -4q8 -4 18.5 -21t18 -33t17.5 -38.5t12 -26.5q3 -7 -0.5 -11.5t-9.5 -4t-9 7.5q-26 58 -37 78q-15 30 -24 32q-1 1 -14 -6q-25 -21 -41 -43q3 -13 -12 -16.5t-16 6.5z" />
<glyph unicode="&#xfc;" horiz-adv-x="661" d="M55 762q10 33 31 57q1 1 4 2t5.5 1t2.5 -1q8 -19 8 -47q0 -103 4.5 -208t26.5 -243t58 -192q19 -27 38 -27q22 0 55 47.5t66 120t53 120.5t35 87q51 148 111 383q0 11 8 19q2 2 9.5 -3t7.5 -8q-25 -342 -15 -581q4 -95 21 -158q1 -2 8.5 -4t7.5 -4q-1 -2 -2 -6t-2 -6 q0 -2 -6.5 -5t-7.5 -2q-8 4 -15 11q-10 32 -18 104q-5 39 -10 178q0 166 10 371q-49 -193 -103 -343t-133 -273q-45 -68 -84 -68q-24 0 -44.5 25t-34.5 69.5t-25.5 98t-18 117.5t-11 120t-6.5 114.5t-2.5 92t-0.5 59.5l-12 -24q0 -3 -5 -6t-8 0zM188.5 1067.5 q0.5 25.5 6.5 44.5q3 9 11.5 7.5t8.5 -9.5q0 -1 -2.5 -13t-1.5 -14q1 -4 6 -5t15 0l10 1q15 0 25.5 -12t6.5 -27q-4 -12 -18.5 -19t-30.5 -7q-21 0 -28 10q-9 18 -8.5 43.5zM209 1055.5q0 -5.5 1 -11.5t3 -8q4 -4 14 -4q19 0 26 13q4 7 -3 12q-3 2 -20 2.5t-19 1.5 q-2 0 -2 -5.5zM356 1081q9 15 24.5 24t29.5 9q15 0 22.5 -9.5t3.5 -27.5q-3 -15 -14 -29t-21 -14q-8 0 -14 6q-1 1 -11 4.5t-11 4.5q-20 10 -9 32zM395 1059q11 -11 20 12q7 21 -1 23q-2 1 -6 -2q-26 -17 -13 -33z" />
<glyph unicode="&#xfd;" horiz-adv-x="667" d="M33 809q0 6 2 10q0 1 3 2t6 1t3 -1q15 -20 16 -22q204 -276 332 -523q142 299 205 461q1 1 2.5 5.5t3 7.5t2.5 4q10 10 13 10q1 -1 4 -7t4 -7q1 -2 -3.5 -9.5t-4.5 -9.5q-45 -116 -213 -479q2 -4 13 -24.5t19.5 -39.5t8.5 -26q2 -3 -7 -7l-1 -1h-1q-2 -2 -6 0.5t-6 5.5 q-10 25 -33 69q-56 -121 -163.5 -342.5t-145.5 -302.5q-1 -2 -14 -6q-4 0 -4 16q240 496 317 658q-138 264 -307 496q-5 7 -21 27.5t-24 33.5zM297 836q0 27 49 96t78 90q12 7 13 -6q0 -10 -7 -17q-26 -23 -66.5 -80t-46.5 -85q-1 -9 -10.5 -8t-9.5 10z" />
<glyph unicode="&#xfe;" horiz-adv-x="647" d="M102.5 -11.5q0.5 41.5 6.5 162.5t8 162q16 315 8 850q0 4 -0.5 18t-0.5 24.5t1 23t4 21.5t8 14q7 6 14 -1t1 -14q-7 -7 -7 -35q4 -373 2 -561q119 152 254 152q49 0 86 -28t56 -75q39 -80 45 -173.5t-28 -178t-105 -127.5q-70 -43 -160 -43q-116 0 -150 62q-5 6 2 12 t13 0q2 -1 10 -11.5t10 -11.5q30 -30 113 -30q99 0 169.5 54.5t92.5 150.5q36 142 -27 280q-43 98 -127 98q-53 0 -112 -32q-32 -17 -87 -67.5t-55 -76.5q0 -44 -11.5 -316.5t-12.5 -295.5q-4 -160 10 -238q0 -8 -7.5 -10.5t-12.5 4.5q-9 15 -9 74q-2 121 -1.5 162.5z" />
<glyph unicode="&#xff;" horiz-adv-x="661" d="M29 809q0 6 2 10q0 1 3 2t6 1t3 -1q15 -20 16 -22q204 -276 332 -523q142 299 205 461q1 1 2.5 5.5t3 7.5t2.5 4q10 10 12 10q1 -1 4.5 -7t4.5 -7q1 -2 -4 -9.5t-5 -9.5q-45 -116 -213 -479q2 -4 13 -24.5t19.5 -39.5t8.5 -26q2 -3 -8 -8q-2 -2 -6 0.5t-6 5.5 q-10 25 -33 69q-56 -121 -163.5 -342.5t-145.5 -302.5q-1 -2 -14 -6q-5 0 -5 16q293 605 318 658q-138 264 -307 496q-5 7 -21 27.5t-24 33.5zM210.5 934.5q-0.5 22.5 6.5 40.5q-4 7 2 16t14 6q5 -2 13 2q21 4 37 -6q18 -11 16 -31t-18 -34q-35 -29 -54 -21 q-16 5 -16.5 27.5zM229.5 936.5q-0.5 -5.5 2 -8t8.5 -0.5q34 7 38 30q0 19 -22 21q-10 0 -16 -2l-2 -2q-1 -4 -3.5 -13t-3.5 -14.5t-1.5 -11zM411 929.5q-1 25.5 11 43.5q8 13 21 8q9 -5 1 -14q-16 -20 -10.5 -42t29.5 -26q20 0 24 4q6 3 7 8t-2.5 11t-7.5 11.5t-10 12.5 t-9 12q-3 7 1.5 15.5t12.5 11.5q6 2 9.5 -1t3 -8.5t-6.5 -10.5q33 -38 29 -58q-6 -28 -43 -28q-23 0 -41 12q-18 13 -19 38.5z" />
<glyph unicode="&#x152;" horiz-adv-x="1953" d="M76 563q20 166 113 344.5t219 300.5q52 52 118 52q40 0 68 -17q4 -2 5 -6t-1.5 -7.5t-7.5 -4.5q-2 -1 -12 2.5t-11 3.5q-19 8 -43 8q-47 0 -88 -33q-81 -66 -166 -199t-125 -241q-56 -150 -53 -297q2 -67 18 -125t47.5 -107t85 -77.5t124.5 -28.5q115 0 237.5 50 t222.5 131t175.5 189.5t101.5 219.5q-120 -17 -162 -19q-7 0 -11 5.5t-3 11t8 6.5q22 5 27 0q46 2 145 18q22 135 -21 224q-39 84 -167 168q-218 141 -334 155h-21q-6 1 -7.5 6.5t1 10.5t8.5 4q64 -3 146 -39q55 -26 98 -47.5t99.5 -57.5t96 -71t74 -83t47.5 -98 q12 214 21 265q7 57 25 84.5t69 35.5q225 37 494 31q19 0 67.5 -4t61.5 -8q9 -3 7 -13t-11 -8q-74 15 -179 15q-152 0 -372 -25q-102 -7 -121 -39q-10 -14 -17.5 -54t-10.5 -74t-6 -83.5t-3 -54.5q0 -3 -18 -235q279 44 555 102q8 2 12 -2.5t2 -10t-10 -6.5 q-243 -54 -561 -106q-1 -7 -9.5 -86t-12.5 -132.5t-8 -129.5t1 -130t18 -81q26 -53 103 -53q149 0 561 198q13 7 117 68q7 4 12.5 -3.5t-0.5 -13.5q-69 -59 -328 -163.5t-358 -104.5q-48 0 -78.5 15t-45 46.5t-19.5 62t-7 79.5q0 34 11 175.5t16 180.5q-52 -144 -170 -268.5 t-272.5 -199t-305.5 -74.5q-155 0 -235 145q-66 116 -47 307z" />
<glyph unicode="&#x153;" horiz-adv-x="1228" d="M53 455q6 38 28 102t53.5 132.5t75 117.5t83.5 49q-6 6 -2.5 12.5t12.5 5.5q58 -11 96 -21t76.5 -26.5t61.5 -39t42 -55.5t27 -78.5t8 -106.5q44 109 142 195.5t200 86.5q13 0 41 -4q47 -10 77.5 -41.5t19.5 -70.5q-21 -62 -175.5 -128.5t-238.5 -76.5q-38 -4 -55 4 q-34 -112 -15 -205q17 -83 76 -115t152 -32q99 0 260 30q4 1 44.5 11.5t47.5 11.5q6 2 9 -2t2 -9.5t-7 -6.5q-199 -56 -358 -56q-219 0 -250 185q-27 -97 -93 -152t-165 -55q-90 0 -166.5 52.5t-102.5 137.5q-16 64 -6 148zM78 317q21 -81 94.5 -130.5t159.5 -49.5 q64 0 112.5 26.5t76.5 66.5t45 97t22.5 109t5.5 111q0 114 -35 178q-21 45 -62 68.5t-102 40.5q-3 -6 -10.5 -6.5t-21.5 3t-17 3.5q-50 7 -80 -7q-42 -21 -92 -111t-74 -159q-47 -132 -22 -240zM614 545q2 2 0 2v-2zM633.5 533.5q0.5 -4.5 3.5 -5.5q58 -11 262 72 q82 34 125 64q27 17 42.5 42t4.5 48q-16 27 -49 40t-68 13q-98 0 -188 -82.5t-131 -183.5q-2 -3 -1.5 -7.5z" />
<glyph unicode="&#x178;" horiz-adv-x="929" d="M18 1337q6 11 11 11q8 -8 8 -11l2 -8q24 -44 136.5 -210t148.5 -214q57 -69 94 -94q42 -25 76 -20q2 0 2 10q0 1 2 6t2 6q2 3 12 -2q1 -1 4 -10l2 -4q47 12 101 72t98 126q70 102 172 328q6 6 12 6q1 1 3 -1.5t3 -6t0 -4.5q-25 -54 -34.5 -74t-41.5 -84.5t-52.5 -99.5 t-56.5 -91t-65 -88.5t-66 -62.5t-71 -41q6 -83 0 -378.5t-16 -377.5q-1 -1 -5 -3t-5 -3t-3.5 1.5t-5 5.5t-2.5 4q22 345 19 661q-1 14 -2 42t-2 42q-59 -3 -105 35q-14 11 -29 26l-25 25t-27 32t-21.5 28t-24.5 33.5t-22 29.5q-37 52 -100.5 151t-92.5 142q-1 2 -8.5 12 t-14 19.5t-8.5 13.5q-6 17 -2 20zM381 1466q3 19 37 19q15 2 34.5 -2t24.5 -15q10 -19 -1.5 -42.5t-33.5 -28.5q-23 -3 -38.5 12t-18.5 39q0 2 -2.5 8.5t-1.5 9.5zM408 1440q7 -23 28 -23q11 0 18 10t7 23q0 15 -18 16.5t-35 -2.5q-3 -1 1 -9q1 -2 1 -3q0 -2 -1 -6t-1 -6z M613 1471q-2 8 3 12q12 6 13 8q1 6 7.5 6.5t10.5 -4.5q27 3 47.5 -5.5t20.5 -31.5q0 -19 -14.5 -31t-34.5 -12q-23 0 -37 17q-8 8 -8 32q-6 1 -8 9zM641 1458q-1 -11 7 -17.5t20 -6.5t20.5 7t5.5 19q-2 18 -43 13q-2 0 -2 -7q-3 -5 -8 -8z" />
<glyph unicode="&#x2c6;" horiz-adv-x="495" d="M43.5 1144q2.5 8 11.5 7q12 -2 35 16q9 7 66.5 55t104.5 79t73 30q16 0 41 -35l20 -40t33.5 -68t20.5 -41q3 -7 -0.5 -11.5t-9.5 -4t-9 7.5q-10 20 -29.5 61t-29.5 62q-2 3 -9.5 16t-14 22t-11.5 11q-26 0 -90 -43q-7 -4 -80.5 -66t-91.5 -69q-15 -5 -25 0q-8 3 -5.5 11z " />
<glyph unicode="&#x2dc;" horiz-adv-x="702" d="M45 1085q22 43 73.5 91.5t90.5 48.5q13 0 33 -4q22 -5 86 -30t102 -26q69 -2 164 58q44 33 47 37q4 7 12.5 3t5.5 -12q-4 -8 -16 -20q-118 -86 -207 -86q-19 0 -42.5 5t-37 9t-43.5 15.5t-37 13.5q-40 16 -65 16q-69 0 -143 -125q-4 -6 -10.5 -7t-10.5 2.5t-2 10.5z" />
<glyph unicode="&#x2000;" horiz-adv-x="850" />
<glyph unicode="&#x2001;" horiz-adv-x="1701" />
<glyph unicode="&#x2002;" horiz-adv-x="850" />
<glyph unicode="&#x2003;" horiz-adv-x="1701" />
<glyph unicode="&#x2004;" horiz-adv-x="567" />
<glyph unicode="&#x2005;" horiz-adv-x="425" />
<glyph unicode="&#x2006;" horiz-adv-x="283" />
<glyph unicode="&#x2007;" horiz-adv-x="283" />
<glyph unicode="&#x2008;" horiz-adv-x="212" />
<glyph unicode="&#x2009;" horiz-adv-x="340" />
<glyph unicode="&#x200a;" horiz-adv-x="94" />
<glyph unicode="&#x2010;" horiz-adv-x="704" d="M21 437.5q-2 5.5 2.5 10t13.5 3.5q50 -9 98 -9q33 0 268.5 1t268.5 1q12 0 12 -10t-12 -10q-14 0 -122.5 -1t-201 -1.5t-189.5 1.5t-128 7q-8 2 -10 7.5z" />
<glyph unicode="&#x2011;" horiz-adv-x="704" d="M21 437.5q-2 5.5 2.5 10t13.5 3.5q50 -9 98 -9q33 0 268.5 1t268.5 1q12 0 12 -10t-12 -10q-14 0 -122.5 -1t-201 -1.5t-189.5 1.5t-128 7q-8 2 -10 7.5z" />
<glyph unicode="&#x2012;" horiz-adv-x="704" d="M21 437.5q-2 5.5 2.5 10t13.5 3.5q50 -9 98 -9q33 0 268.5 1t268.5 1q12 0 12 -10t-12 -10q-14 0 -122.5 -1t-201 -1.5t-189.5 1.5t-128 7q-8 2 -10 7.5z" />
<glyph unicode="&#x2013;" horiz-adv-x="696" d="M27.5 421.5q1.5 5.5 7.5 6.5q12 2 82 2q465 0 530 14q1 0 7.5 1t7.5 1q9 2 11 -6.5t-7 -11.5q-38 -14 -179 -14q-28 -1 -224 -3t-224 -3q-7 -1 -10 3.5t-1.5 10z" />
<glyph unicode="&#x2014;" horiz-adv-x="1587" d="M34.5 349.5q-1.5 7.5 6.5 10.5q4 2 16 4t26 4t17 3q552 65 1051 65q250 0 395 -49q11 -5 7.5 -14t-15.5 -6q-145 49 -395 49q-484 0 -1041 -66q-3 0 -28 -4t-29 -4q-9 0 -10.5 7.5z" />
<glyph unicode="&#x2018;" horiz-adv-x="178" d="M53 1223q20 69 62 92q8 3 13 -4t-1 -13q-3 -3 -12.5 -10.5t-14.5 -13.5q-27 -39 -30 -78q36 -12 39 -14q15 -10 9.5 -29.5t-24.5 -19.5h-4q-27 4 -36 31.5t-1 58.5zM71 1172q3 -7 11 -13q5 -5 10.5 -5t5.5 7t-24 13q-4 1 -3 -2z" />
<glyph unicode="&#x2019;" horiz-adv-x="192" d="M51 1255q0 13 8 21t19 8q15 0 28 -9.5t17 -25.5q0 -3 4 -1q2 1 4 1q9 1 11.5 -8t-5.5 -12q-12 0 -12 -4q5 -42 -10.5 -87.5t-48.5 -56.5q-9 -3 -13 4.5t2 12.5q1 1 8.5 5t8.5 5q17 12 25.5 48.5t8.5 66.5q-22 -3 -38.5 5t-16.5 27zM72 1255q0 -16 30 -12q-6 12 -8 14 q-5 5 -13.5 5t-8.5 -7z" />
<glyph unicode="&#x201a;" horiz-adv-x="143" d="M34 23q-2 13 1 22q2 12 9.5 21t18.5 8q19 -3 33.5 -25.5t16.5 -44.5q4 -42 -27 -110q-3 -6 -10.5 -18.5t-12 -22.5t-6.5 -19q-1 -9 -9 -9t-9 9q-2 9 6 25q3 7 13.5 28t15 32t10.5 28.5t8 32.5q7 44 -24 69q-7 7 -9 2q-9 -14 -6 -28q3 1 9.5 4t9.5 4q6 2 10 -2t4 -9.5 t-6 -7.5q-25 -15 -37 -6q-7 4 -9 17z" />
<glyph unicode="&#x201c;" horiz-adv-x="325" d="M72 1243q34 76 67 76q5 0 8 -4.5t2 -9t-6 -5.5q-50 -19 -65 -120q4 4 10 4q11 0 28.5 -5t22.5 -12q16 -19 -1 -42t-42 -23q-14 0 -22 8q-38 33 -2 133zM78 1171q-4 -49 18 -49q7 0 19 8q19 14 10 23q-3 3 -10 5t-16 3.5t-11 1.5q-6 0 -10 8zM198 1174.5q-9 33.5 1 64.5 q17 69 57 82q10 4 13.5 -4.5t-5.5 -13.5q-35 -18 -47 -74q-8 -38 6 -60q10 -16 18 -3q8 14 -3 32q-3 5 -17 14q-6 6 -0.5 13.5t12.5 3.5q17 -9 25.5 -27.5t5.5 -38.5q-6 -22 -31 -22q-26 0 -35 33.5z" />
<glyph unicode="&#x201d;" horiz-adv-x="456" d="M61 958q-4 9 5 13q32 22 70 86.5t40 99.5q-7 -1 -28 1t-29 5q-24 11 -29.5 38.5t12.5 47.5q13 13 31 13q32 0 49 -31q17 -39 12.5 -81.5t-26.5 -80.5q-63 -106 -94 -117q-9 -3 -13 6zM111 1201q6 -16 24 -21q12 -2 41 -2q-10 63 -37 63q-18 2 -26 -11t-2 -29zM287 954 q0 9 8 11q19 4 45 39q32 52 35 98q-28 2 -50 15.5t-22 35.5q-1 19 12 33t29 14q15 0 23 -8q20 -16 26 -58t-2 -67q-9 -37 -43 -88q-26 -30 -47 -35q-11 0 -14 10zM324 1161q-4 -17 11.5 -27t37.5 -12q-4 28 -13 45q-6 12 -19 10.5t-17 -16.5z" />
<glyph unicode="&#x201e;" horiz-adv-x="368" d="M-16 -210.5q1 9.5 10 9.5h14q39 7 75 91.5t36 132.5q-25 4 -41.5 9t-29.5 17.5t-7 30.5q10 29 41 29q27 0 43 -25q22 -35 10 -104q-27 -122 -90 -185q-23 -19 -53 -16q-9 1 -8 10.5zM61 63q3 -5 13.5 -9t25 -7t17.5 -4q-4 34 -21 41q-9 5 -18.5 3.5t-15.5 -9t-1 -15.5z M158.5 -209q-4.5 7 1.5 12q4 3 11.5 8.5t13.5 10.5t10 10q62 62 106 178q-2 2 -7 1.5t-13 -2t-9 -1.5h-2q-23 0 -36 17.5t-7 38t29 28.5q16 4 25 4q18 0 38 -10q23 -16 5 -68q-16 -59 -63.5 -137t-90.5 -94q-7 -3 -11.5 4zM248 51q-3 -10 6.5 -17t21.5 -5q2 0 15 2.5t16 1.5 q7 21 4 30q-2 6 -22 13q-14 2 -27 -5t-14 -20z" />
<glyph unicode="&#x2022;" horiz-adv-x="274" d="M58.5 801.5q-1.5 8.5 7.5 11.5q37 5 80 -9.5t57 -43.5q23 -44 4 -121q-7 -32 -25 -55t-43 -23q-6 0 -18 4q-30 12 -46 58.5t-14 87.5q4 26 15 43q21 26 84 22q-33 17 -90 17q-10 0 -11.5 8.5zM82 698q3 -34 17 -75t38 -41t39 30q13 25 16 69t-8 69q-2 6 -24 6 q-45 5 -62 -8q-16 -13 -16 -50z" />
<glyph unicode="&#x2026;" horiz-adv-x="1488" d="M43 72q-5 27 3 49.5t30 25.5q7 2 10 -2t1.5 -9.5t-7.5 -8.5q20 -5 31.5 -18t5.5 -31q-6 -15 -18.5 -24t-26.5 -9q-10 0 -19 7t-10 20zM63 102q-7 -33 8 -36q4 -1 9 2q22 9 16 24q-2 7 -9.5 12t-15 5t-8.5 -7zM725 45q-4 10 0.5 33t11.5 35q1 2 7.5 2.5t7.5 1.5 q18 9 41 -2q20 -14 15 -38.5t-26 -43.5q-13 -10 -26 -10q-25 0 -31 22zM748 45q9 -7 18.5 2t15.5 23q10 19 2 24q-1 3 -6 4.5t-6 -0.5q-6 -10 -18 -2q-18 -41 -6 -51zM1376 49q-1 6 0 18.5t0 18.5q-3 13 6.5 23t22.5 10q11 0 20 -6q16 -9 21.5 -27t-4.5 -33q-19 -22 -43 -22 q-20 0 -23 18zM1397 74q-3 -14 2 -25q9 0 26 17q6 9 -1 20.5t-19 11.5q-1 0 -2 -2t-2 -2q1 -2 -1.5 -10.5t-2.5 -9.5z" />
<glyph unicode="&#x202f;" horiz-adv-x="340" />
<glyph unicode="&#x2039;" horiz-adv-x="661" d="M88 406q-49 40 35 133q20 22 41 43t47.5 43.5t44 37.5t51 40t46 34.5t52.5 38.5t48 35q12 9 18 -2q4 -7 -4 -12q-10 -7 -51 -36.5t-55 -40t-48.5 -37t-53 -42.5t-46 -40t-49 -46.5t-41.5 -46.5q-41 -53 -31 -74q3 -7 23 -22q16 -9 58.5 -29.5t64.5 -34.5q14 -8 134.5 -86 t139.5 -88q46 -25 92 -31q7 -1 9.5 -6t0 -9.5t-9.5 -4.5q-15 0 -47 8q-55 19 -143 80q-135 91 -189 121q-5 3 -37.5 19.5t-62 32.5t-37.5 22z" />
<glyph unicode="&#x203a;" horiz-adv-x="542" d="M57 705q-7 11 6 20q8 3 13.5 -2.5t1.5 -11.5q18 -14 159 -99t160 -100q47 -30 64 -63q16 -28 10 -54q-5 -49 -102.5 -137t-145.5 -104q-9 -4 -16 -2q-8 3 -6.5 11.5t10.5 8.5q10 0 16 6q117 74 187 152q47 55 35 94q-2 9 -7.5 18t-10 15t-15 14.5t-14.5 12t-17.5 13 t-15.5 11.5q-15 10 -137 82.5t-140 85.5q-1 0 -12 6.5t-15.5 11.5t-7.5 11z" />
<glyph unicode="&#x205f;" horiz-adv-x="425" />
<glyph unicode="&#x20ac;" horiz-adv-x="1310" d="M74.5 771q-2.5 8 5.5 11q4 4 18 4q25 5 81.5 16.5t86.5 16.5q31 81 88.5 163t131 150.5t164.5 112t179 43.5q83 0 119 -49q11 -16 26 -57.5t15 -59.5q0 -9 -9.5 -10t-10.5 8q-12 73 -41 110.5t-94 37.5q-84 0 -171.5 -41.5t-159 -107.5t-127.5 -143.5t-87 -152.5 q217 38 436 41q64 0 88 -4q9 -2 8 -11t-10 -9q-5 0 -42 2t-42 2q-228 -3 -446 -43q-49 -130 -31 -262q108 25 309 62.5t275 53.5q6 2 10 -2t3.5 -9t-7.5 -7q-16 -8 -39 -8q-61 -12 -172.5 -33.5t-203 -40t-171.5 -37.5q16 -72 53.5 -141t90.5 -124t124 -88.5t146 -33.5 q118 0 287.5 88.5t244.5 181.5q26 39 35 48q6 7 13.5 2t2.5 -13l-26 -39q-88 -105 -261 -196.5t-300 -91.5q-103 0 -196.5 60.5t-153 151t-81.5 191.5q-58 -13 -104 -29q-4 -12 -15 -4q-13 9 -6 18q1 2 3 3q9 5 61 18t57 15q-17 120 29 262l-82.5 -16.5t-89.5 -16.5 q-9 -1 -11.5 7z" />
<glyph unicode="&#x2122;" horiz-adv-x="1218" d="M49 1225q-5 6 0 11.5t12 2.5q2 -1 19 -18q11 -7 45 -11t55 -4q41 0 127 4q0 4 -1 25t-1 25q3 10 14.5 10.5t18.5 -8.5q6 -6 1 -12t-13 -3q0 -6 1 -18t1 -17q11 0 103 6t108 5q10 0 16 -6q6 -7 -1 -14t-15 -1q-36 0 -211 -10q9 -313 0 -438q9 -6 2.5 -18t-17.5 -9 q-10 3 -4 45q4 49 4.5 110.5t0 92.5t-3.5 116.5t-3 98.5q-82 -4 -123 -4q-48 0 -73 4q-46 4 -62 35zM522 809q-2 11 5 36.5t16 47.5t21 50t14 34q2 5 43.5 103.5t50.5 115.5q6 10 16.5 12t16.5 -8q9 -15 18 -100q16 -113 39 -131q12 -13 37 12q34 40 35 41q2 3 28 42.5 t48 68.5t34 36q7 5 19 5q27 0 41 -25q26 -36 59 -112t45 -99q16 -26 39 -43q8 -5 6.5 -13t-10.5 -8q-7 0 -19.5 12t-17.5 21q-27 35 -60 111.5t-49 103.5q-23 42 -43 29q-7 -4 -21 -21.5t-26 -35t-26.5 -39.5t-16.5 -25q-20 -30 -47 -58t-49 -28q-26 0 -47 60 q-8 29 -16.5 90t-16.5 90q-19 -36 -73 -167.5t-64 -168.5q-3 -9 -8 -39q-1 -9 -10 -9t-11 9z" />
<glyph unicode="&#x25fc;" horiz-adv-x="808" d="M0 0v809h809v-809h-809z" />
</font>
</defs>
</svg>
